<?xml version="1.0" encoding="utf-8"?>
<!-- Generator: Adobe Illustrator 22.1.0, SVG Export Plug-In . SVG Version: 6.00 Build 0)  -->
<svg version="1.1" id="Layer_1" xmlns="http://www.w3.org/2000/svg" xmlns:xlink="http://www.w3.org/1999/xlink" x="0px" y="0px"
	 width="128px" height="128px" viewBox="0 0 128 128" enable-background="new 0 0 128 128" xml:space="preserve">
<g>
	<g id="Layer_3">
		<path fill="#2D5C99" d="M0,39.4746c2.0953,0.3866,4.2492-0.2522,5.795-1.7186c7.9887-6.52,9.1256-25,16.0735-31.5545
			C23.859,4.3239,34.084-3.8929,38.2023,25.2886c0.5084,3.6022,1.9685,13.75,4.3292,23.6883
			c0.7011,3.4494,1.9527,6.7636,3.7066,9.8154c11.84,18.7094,16.5952-52.2871,28.7768-40.32
			c2.5477,2.503,4.3531,8.3486,5.9325,15.3258c1.4874-0.9696,3.1153-1.7042,4.8264-2.178c10.1778-2.709,19.0874-5.08,26.314,18.4067
			c0.0586,0.1907,0.1247,0.4077,0.1941,0.6362c3.3511-6.0294,6.08-4.082,10.1759-5.9831c1.7283-0.8479,3.7239-0.9692,5.5422-0.337V0
			H0V39.4746z"/>
		
			<image overflow="visible" opacity="0.15" enable-background="new    " width="46" height="43" xlink:href="63D0DE0AFC85A260.png"  transform="matrix(1 0 0 1 82 0)">
		</image>
		<path fill="#3D6FB0" d="M122.4578,5.84c-3.4406,0.1923-6.8513,0.7464-10.1759,1.6529c1.6589,0.8076,6.3517,11.3348,12.898,12.1163
			c1.0864,0.13,2.0437,0.1949,2.82,0.2283V5.888C126.1553,5.7573,124.3044,5.7413,122.4578,5.84z"/>
		<path fill="#3D6FB0" d="M16.2946,30.1308c1.6216,0.4873,3.2741,0.8653,4.9464,1.1314c6.36-1.747,13.7714-1.4559,22.0157-1.1314
			c0.3875,0.0152,1.0629,0.0446,1.9835,0.1066c2.389-0.4765,4.1606-0.9262,5.0163-1.1436c4.4737-1.1366,3.1627-1.2772,9.5922-3.111
			C65.5373,24.36,72.3625,5.8069,80.9474,4.9984c-1.7785-1.1985-3.8079-1.9739-5.9325-2.2665
			c-12.1816-1.77-16.9371,8.73-28.7768,5.9628c-1.3078-0.2741-2.5605-0.7647-3.7066-1.4516
			c-1.5856-0.9796-3.0404-2.1567-4.3292-3.5031C34.084-0.5757,23.859,0.64,21.8685,0.9171
			C14.9206,1.8864,13.7837,4.6194,5.795,5.5836C3.8726,5.8149,1.9353,5.8999,0,5.8378V28.23
			c0.938-0.0892,2.1653-0.1708,3.5913-0.173C7.9087,28.0726,12.1964,28.7726,16.2946,30.1308z"/>
		
			<image overflow="visible" opacity="0.15" enable-background="new    " width="52" height="54" xlink:href="63D0DE0AFC85A261.png" >
		</image>
		<path fill="#2D5C99" d="M16.9427,26.4529c1.3729-0.66,2.8068-11.421,4.2983-11.8307c-1.6723-0.2661-3.3248-0.6441-4.9464-1.1314
			c-4.0982-1.3583-8.3859-2.0583-12.7033-2.074C2.1653,11.419,0.938,11.5006,0,11.59v19.14
			c1.2871-0.0195,2.5724-0.1058,3.8506-0.2585C8.415,29.9029,12.8453,28.543,16.9427,26.4529z"/>
		
			<image overflow="visible" opacity="0.15" enable-background="new    " width="113" height="65" xlink:href="63D0DE0AFC85A267.png"  transform="matrix(0.9846 0 0 1 15.8692 0)">
		</image>
		<path fill="#2D5C99" d="M112.2819,7.4925c-0.0694-0.0338-0.1355-0.0659-0.1941-0.0941
			c-7.2266-3.4735-16.1362-3.1228-26.314-2.7221c-1.6689,0.0657-3.276,0.176-4.8264,0.3221
			c-7.1569,0.7623-14.2229,2.2173-21.0987,4.3444c-6.43,1.8338-5.1185,1.9744-9.5922,3.111
			c-0.8557,0.2174-2.6273,0.6671-5.0163,1.1436c4.1187,0.2777,13.2,20.4178,23.9416,23.76c9.2552,2.88,8.5487,4.06,12.9625,4.4073
			c12.6829,0.9973,15.6447-8.9752,26.1843-7c4.8692,0.9126,7.9163,3.7306,17.1106,4.6665c0.9465,0.0964,1.8083,0.1574,2.5608,0.1964
			V11.6451c-0.7764-0.0334-1.7337-0.0986-2.82-0.2283C120.6868,10.8606,116.3234,9.533,112.2819,7.4925z"/>
		
			<image overflow="visible" opacity="0.1" enable-background="new    " width="128" height="75" xlink:href="63D0DE0AFC85A262.png" >
		</image>
		<path fill="#20497D" d="M108.3286,15.5648c-10.54-1.9754-13.5014,7.9971-26.1843,7c-4.4138-0.3471-3.7073-1.5276-12.9625-4.4073
			c-7.7805-2.4282-15.8133-3.9581-23.9416-4.56c-0.9206-0.062-1.596-0.0914-1.9835-0.1066
			c-8.2443-0.3245-15.6562-0.6156-22.0157,1.1314c-1.4777,0.3999-2.9163,0.9323-4.2983,1.5907
			c-4.0974,2.09-8.5277,3.4498-13.0921,4.0183C2.5724,20.384,1.2871,20.4704,0,20.49v27.73
			c2.3619,0.0404,4.7142-0.3102,6.9616-1.0376c3.81-1.5342,6.9556-4.4072,11.407-4.4072c10.8885,0,15.4256,8.3077,21.2586,8.5552
			c5.447,0.2312,15.3035-6.331,20.74-6.7405c5.5463-0.4177,15.8193,4.6022,21.2586,5.185c7.259,0.7778,15.8113-6.4045,31.24-5.8331
			c3.2166,0.1191,8.296,3.4113,15.1345,4.1451v-27.66c-0.7525-0.039-1.6143-0.1-2.5608-0.1964
			C116.2449,19.2954,113.1978,16.4774,108.3286,15.5648z"/>
		
			<image overflow="visible" opacity="0.15" enable-background="new    " width="128" height="88" xlink:href="63D0DE0AFC85A263.png"  transform="matrix(0.9886 0 0 1 0.7273 0)">
		</image>
		<path fill="#3D6FB0" d="M81.6258,28.5273c-5.4393-0.5828-15.7123-5.6027-21.2586-5.185c-5.4365,0.4095-15.293,6.9717-20.74,6.74
			c-5.833-0.2475-10.37-8.5552-21.2586-8.5552c-4.4514,0-7.5974,2.873-11.407,4.4072C4.7142,26.6619,2.3619,27.0127,0,26.9724
			V59.635c2.5355,0.2011,5.0847,0.1495,7.61-0.154c7.9887-0.9642,9.1257-3.6973,16.0736-4.6665
			c1.99-0.2777,12.2155-1.4929,16.3337,2.8227c1.2888,1.3463,2.7434,2.5233,4.329,3.5028c1.146,0.6869,2.3988,1.1775,3.7065,1.4516
			c11.84,2.7669,16.5953-7.7326,28.7769-5.9628c8.18,1.1885,8.7095,7.4709,18.666,8.0368c0.5139,0.0292,1.0277,0.0343,1.5574,0.017
			c2.2635-1.2009,4.8614-1.6172,7.3868-1.1836c0.0971,0.0138,0.1915,0.0311,0.2873,0.0465
			c0.6777-0.1344,1.3994-0.2794,2.1755-0.4354c7.7469-1.5572,10.8-2.1545,17.37-2.6055c1.3465-0.0925,2.5959-0.1184,3.7274-0.1054
			v-33.56c-6.8385-0.7338-11.9179-4.026-15.1345-4.1451C97.4371,22.1228,88.8848,29.3051,81.6258,28.5273z"/>
		
			<image overflow="visible" opacity="0.15" enable-background="new    " width="128" height="93" xlink:href="63D0DE0AFC85A26E.png"  transform="matrix(1 0 0 1 0 1)">
		</image>
		<path fill="#2D5C99" d="M18.1094,61.7171c10.8885,0,15.4256,8.3078,21.2585,8.5553c5.4471,0.2312,15.3035-6.331,20.74-6.7405
			c10.0671-0.7583,11.2338,5.4533,21.2585,5.185c8.2969-0.2221,11.4282-24.3618,15.6866-26.5619
			c-0.53,0.0173-1.0435,0.0122-1.5574-0.017C85.5392,41.5721,85.01,35.29,76.83,34.1012c-12.1816-1.77-16.9371,8.73-28.7769,5.9628
			c-1.3077-0.2741-2.5605-0.7647-3.7065-1.4516c-1.5857-0.9796-3.0405-2.1567-4.3293-3.5032
			c-4.1182-4.3156-14.3433-3.1-16.3337-2.8227c-6.9479,0.9693-8.0849,3.7023-16.0736,4.6665C5.0847,37.2565,2.5355,37.3081,0,37.107
			v30.0556c2.2759,0.0234,4.5402-0.3273,6.7023-1.0382C10.512,64.59,13.658,61.7171,18.1094,61.7171z"/>
		
			<image overflow="visible" opacity="0.15" enable-background="new    " width="54" height="87" xlink:href="63D0DE0AFC85A26F.png"  transform="matrix(1 0 0 1 74 1)">
		</image>
		<path fill="#2D5C99" d="M124.2726,36.953c-6.57,0.451-9.623,2.0723-17.37,3.63c-0.7761,0.156-1.4978,0.301-2.1755,0.4354
			c6.593,1.0566,10.4308,22.6175,21.49,23.0715c0.6525,0.0268,1.2495,0.0352,1.7831,0.0339V37.12
			C126.8685,37.107,125.6191,36.8605,124.2726,36.953z"/>
		
			<image overflow="visible" opacity="0.15" enable-background="new    " width="128" height="91" xlink:href="63D0DE0AFC85A264.png"  transform="matrix(1 0 0 1 0 3)">
		</image>
		<path fill="#3D6FB0" d="M126.2169,47.1934c-11.0589-0.454-14.8967-5.1189-21.49-6.1755c-0.0958-0.0154-0.19-0.0327-0.2873-0.0465
			c-2.5254-0.4336-5.1233-0.0173-7.3868,1.1836c-4.2584,2.2-7.39,6.3718-15.6866,6.5939
			c-10.0247,0.2683-11.1914-5.9433-21.2585-5.185c-5.4366,0.41-15.293,6.9717-20.74,6.7405
			c-5.8329-0.2475-10.37-8.5553-21.2585-8.5553c-4.4514,0-7.5974,2.873-11.4071,4.4073C4.54,46.8673,2.2758,47.218,0,47.1946V68.28
			c0.9825-0.0262,2.3024-0.0894,3.8506-0.247c9.1943-0.9359,12.2414-3.7539,17.1105-4.6665c10.54-1.9754,13.5015,7.9971,26.1844,7
			c4.4137-0.3471,3.7072-1.5276,12.9625-4.4073c8.4093-2.6468,17.1207-4.2149,25.9251-4.6665
			c10.1778-0.4006,19.0874-0.7513,26.3139,2.7221c4.0974,2.09,8.5278,3.4498,13.0922,4.0184c0.9687,0.1157,1.8334,0.18,2.5608,0.216
			V47.2273C127.4664,47.2286,126.8694,47.22,126.2169,47.1934z"/>
		
			<image overflow="visible" opacity="0.3" enable-background="new    " width="128" height="97" xlink:href="63D0DE0AFC85A265.png"  transform="matrix(1 0 0 1 0 11)">
		</image>
		<path fill="#20497D" d="M112.347,51.471c-7.2265-3.4734-16.1361-3.1227-26.3139-2.7221
			c-8.8044,0.4516-17.5158,2.0197-25.9251,4.6665c-9.2553,2.88-8.5488,4.06-12.9625,4.4073
			c-12.6829,0.9973-15.6448-8.9752-26.1844-7c-4.8691,0.9126-7.9162,3.7306-17.11,4.6665C2.3024,55.647,0.9825,55.71,0,55.7364
			v23.9675c1.6725-0.0654,3.3473-0.0409,5.0172,0.0734c6.57,0.451,9.6229,2.0724,17.37,3.63
			c5.6982,1.1454,8.5473,1.7181,11.407,1.5555C43.7506,84.3964,44.28,78.114,52.46,76.9256
			c12.1816-1.77,16.9371,8.73,28.7768,5.9627c1.3078-0.274,2.5605-0.7646,3.7066-1.4515c1.5856-0.9796,3.0404-2.1568,4.3292-3.5032
			c4.1183-4.3156,14.3433-3.1,16.3338-2.8228c6.9479,0.9693,8.0848,3.7023,16.0735,4.6665c2.0966,0.2522,4.2105,0.3306,6.32,0.2343
			V55.7054c-0.7274-0.0364-1.5921-0.1-2.5608-0.216C120.8747,54.9208,116.4444,53.561,112.347,51.471z"/>
		
			<image overflow="visible" opacity="0.15" enable-background="new    " width="128" height="93" xlink:href="6D3017967F50783F.png"  transform="matrix(1 0 0 1 0 21)">
		</image>
		<path fill="#2D5C99" d="M121.68,63.1373c-7.9887-0.9642-9.1256-3.6972-16.0735-4.6665c-1.99-0.2777-12.2155-1.4928-16.3338,2.8228
			c-1.2888,1.3464-2.7436,2.5236-4.3292,3.5032c-1.146,0.6869-2.3988,1.1775-3.7066,1.4515
			c-11.84,2.7669-16.5952-7.7326-28.7768-5.9627c-8.18,1.1884-8.7095,7.4708-18.6661,8.0367c-2.86,0.1626-5.7088-0.41-11.407-1.5555
			C14.64,65.21,11.5875,63.5883,5.0172,63.1373C3.3473,63.023,1.6725,62.9985,0,63.0639v25.6822
			c0.8163-0.0295,1.8657-0.0943,3.0728-0.2384c4.5644-0.5685,8.9948-1.9283,13.0922-4.0184
			c7.2265-3.4734,16.1361-3.1227,26.3139-2.7221c10.91,0.43,19.2092,2.751,25.9251,4.6665C74.67,88.221,73.5867,88.4,77.6688,89.46
			c2.5332-0.3343,5.2274-0.58,8.105-0.6934c9.5764-0.377,18.03-0.7087,25.0148,2.1467c0.3923-0.1043,0.7821-0.215,1.1695-0.332
			c4.0982-1.3582,8.3859-2.0582,12.7033-2.074c1.3036,0.0021,2.4361,0.0707,3.3386,0.15V62.976
			C125.9031,63.2281,123.7871,63.2821,121.68,63.1373z"/>
		
			<image overflow="visible" opacity="0.15" enable-background="new    " width="48" height="77" xlink:href="6D3017967F50783D.png"  transform="matrix(1 0 0 1 80 38)">
		</image>
		<path fill="#20497D" d="M111.9581,77.5257c-0.387,0.1177-0.7768,0.2283-1.1695,0.332c0.4387,0.1793,0.8721,9.33,1.2992,9.5354
			c4.0974,2.09,8.5278,3.4498,13.0922,4.0184c1.0864,0.13,2.0437,0.1949,2.82,0.2283V75.6022c-0.9025-0.08-2.035-0.1484-3.3386-0.15
			C120.344,75.4678,116.0564,76.1676,111.9581,77.5257z"/>
		
			<image overflow="visible" opacity="0.15" enable-background="new    " width="108" height="93" xlink:href="6D3017967F50783B.png"  transform="matrix(1 0 0 1 0 31)">
		</image>
		<path fill="#20497D" d="M16.2946,99.8855c1.4171,0.4269,2.8584,0.769,4.3163,1.0243c6.2683-1.6261,13.5391-1.3419,21.6091-1.0243
			c0.487,0.0192,1.4288,0.0607,2.7428,0.1617c2.53-0.4967,4.4054-0.9729,5.294-1.1987c4.4737-1.1366,3.1627-1.2772,9.5922-3.111
			c4.9446-1.41,10.7491-18.4,17.82-19.3331c-4.0821-1.06-2.9986-1.2394-9.2648-3.0267c-6.7159-1.9155-15.0151-4.237-25.9251-4.6665
			c-10.1778-0.4006-19.0874-0.7513-26.3139,2.7221c-4.0975,2.0901-8.5279,3.4499-13.0924,4.0184
			C1.8657,75.5958,0.8163,75.6606,0,75.69v22.2945c0.938-0.0891,2.1653-0.1708,3.5913-0.173
			C7.9087,97.8272,12.1964,98.5272,16.2946,99.8855z"/>
		
			<image overflow="visible" opacity="0.3" enable-background="new    " width="51" height="78" xlink:href="6D3017967F507835.png"  transform="matrix(1 0 0 1 0 45)">
		</image>
		<path fill="#3D6FB0" d="M15.9057,95.1836c1.4971-0.7195,3.0674-9.2089,4.7052-9.6338c-1.4579-0.2553-2.8992-0.5974-4.3163-1.0243
			c-4.0982-1.3583-8.3859-2.0583-12.7033-2.074C2.1653,82.4538,0.938,82.5354,0,82.6245V99.43
			c0.7752-0.0334,1.73-0.0987,2.8136-0.228C7.378,98.6335,11.8083,97.2737,15.9057,95.1836z"/>
		
			<image overflow="visible" opacity="0.3" enable-background="new    " width="114" height="86" xlink:href="6D3017967F507837.png"  transform="matrix(1 0 0 1 14 38)">
		</image>
		<path fill="#3D6FB0" d="M112.0878,78.4331c-0.4271-0.2052-0.8601-0.397-1.2992-0.5754
			c-6.9853-2.8554-15.4386-2.5237-25.0148-2.1467c-2.8776,0.1132-5.5718,0.3591-8.105,0.6934
			c-6.0329,0.8665-11.9904,2.1947-17.82,3.9731c-6.43,1.8338-5.1185,1.9744-9.5922,3.111c-0.8886,0.2258-2.764,0.702-5.294,1.1987
			c4.4093,0.3388,13.0572,14.6665,23.1823,17.8168c9.2552,2.88,8.5487,4.06,12.9625,4.4073c12.6829,0.9974,15.6447-8.9751,26.1843-7
			c4.8691,0.9126,7.9163,3.7306,17.1106,4.6665c1.4175,0.1443,2.646,0.21,3.5978,0.24V82.68
			c-0.7764-0.0334-1.7337-0.0986-2.82-0.2283C120.6156,81.8831,116.1852,80.5232,112.0878,78.4331z"/>
		
			<image overflow="visible" opacity="0.1" enable-background="new    " width="128" height="80" xlink:href="6D3017967F50782A.png"  transform="matrix(1 0 0 1 0 47)">
		</image>
		<path fill="#2D5C99" d="M107.2916,86.6c-10.54-1.9753-13.5014,7.9972-26.1843,7c-4.4138-0.3471-3.7073-1.5276-12.9625-4.4073
			c-7.5384-2.3489-15.3128-3.8596-23.1823-4.5048c-1.314-0.101-2.2558-0.1425-2.7428-0.1617
			c-8.0694-0.3176-15.3405-0.6018-21.6088,1.0243c-1.6198,0.4118-3.1957,0.9804-4.7052,1.6978
			c-4.0974,2.0898-8.5278,3.4494-13.0921,4.0177C1.73,91.3953,0.7752,91.4606,0,91.494v18.3029
			c2.0162-0.028,4.0155-0.3729,5.9246-1.0221c3.81-1.5343,6.9556-4.4073,11.407-4.4073c10.8885,0,15.4256,8.3078,21.2586,8.5553
			c5.4471,0.2312,15.3035-6.331,20.74-6.74c5.5463-0.4178,15.8193,4.6022,21.2586,5.185c7.259,0.7778,15.8113-6.4045,31.24-5.8331
			c3.3772,0.1251,8.807,3.7494,16.1715,4.2363V91.5059c-0.9518-0.03-2.18-0.0956-3.5978-0.24
			C115.2079,90.33,112.1607,87.5121,107.2916,86.6z"/>
		
			<image overflow="visible" opacity="0.15" enable-background="new    " width="128" height="69" xlink:href="6D3017967F50782B.png"  transform="matrix(1 0 0 1 0 57)">
		</image>
		<path fill="#3D6FB0" d="M80.5888,101.8953C75.15,101.3125,64.8765,96.2925,59.33,96.71c-5.4365,0.4095-15.2929,6.9717-20.74,6.74
			c-5.833-0.2475-10.37-8.5553-21.2586-8.5553c-4.4514,0-7.5974,2.873-11.407,4.4073c-1.909,0.6495-3.9082,0.9947-5.9244,1.0229
			v18.4324c2.1932,0.1148,4.3922,0.0406,6.5727-0.2216c7.9887-0.9642,9.1257-3.6972,16.0735-4.6665
			c1.9905-0.2777,12.2156-1.4929,16.3338,2.8228c1.2889,1.3464,2.7436,2.5236,4.3293,3.5032
			c1.146,0.6869,2.3988,1.1775,3.7065,1.4515c11.84,2.7669,16.5953-7.7326,28.7769-5.9627c8.18,1.1884,8.71,7.4708,18.666,8.0367
			c2.86,0.1626,5.7089-0.41,11.4071-1.5555c7.7468-1.5571,10.8-3.1785,17.37-3.6295c1.7725-0.1217,3.3781,0.7136,4.7644,0.76
			v-18.9972c-7.3645-0.4869-12.7943-4.1112-16.1715-4.2363C96.4,95.4908,87.8478,102.6731,80.5888,101.8953z"/>
		
			<image overflow="visible" opacity="0.15" enable-background="new    " width="128" height="57" xlink:href="6D3017967F50782D.png"  transform="matrix(1 0 0 1 0 70)">
		</image>
		<path fill="#20497D" d="M123.2356,112.1357c-6.57,0.451-9.623,2.0724-17.37,3.6295c-5.6982,1.1454-8.5473,1.7181-11.4071,1.5555
			c-9.9565-0.5659-10.4862-6.8483-18.666-8.0367c-12.1816-1.77-16.9371,8.73-28.7769,5.9627
			c-1.3077-0.274-2.5605-0.7646-3.7065-1.4515c-1.5856-0.9796-3.0403-2.1568-4.3291-3.5032
			c-4.1182-4.3157-14.3433-3.1-16.3338-2.8228c-6.9478,0.9693-8.0848,3.7023-16.0735,4.6665
			c-2.1805,0.2622-4.3795,0.3364-6.5727,0.2216v11.8244c1.47-0.0656,3.8646,2.7856,5.6653,2.06
			c3.81-1.5342,6.9557-4.4072,11.4071-4.4072c10.8885,0,15.4256,5.2357,21.2585,5.4832c5.4471,0.2312,15.3035-1.7246,20.74-2.1341
			c10.0671-0.7583,11.2338,2.1269,21.2585,1.8586c12.1891-0.3262,13.2284-4.2837,23.0734-2.8826
			c6.7723,0.9638,10.5573,0.8665,21.777,1.3271c1.1191,0.046,2.0808-1.2408,2.82-1.2613V112.384
			C126.4181,112.207,124.8272,112.1241,123.2356,112.1357z"/>
		
			<image overflow="visible" opacity="0.3" enable-background="new    " width="128" height="48" xlink:href="6D3017967F50782F.png"  transform="matrix(1 0 0 1 0 80)">
		</image>
		<path fill="#2D5C99" d="M125.18,124.2071c-11.22-0.4606-15.0047-5.2582-21.777-6.222c-9.845-1.4011-10.8843,7.4513-23.0734,7.7775
			c-10.0247,0.2683-11.1914-5.9433-21.2585-5.185c-5.4366,0.4095-15.293,6.9717-20.74,6.74
			c-5.8329-0.2475-10.37-8.5552-21.2585-8.5552c-4.4514,0-7.5974,2.873-11.4071,4.4072c-1.825,0.6273-3.7361,0.9688-5.6655,1.0121
			V128h128v-3.7742C127.2607,124.2463,126.299,124.2531,125.18,124.2071z"/>
	</g>
</g>
</svg>
