<svg xmlns="http://www.w3.org/2000/svg" xmlns:xlink="http://www.w3.org/1999/xlink" width="13.5211" height="10.5641" viewBox="0 0 13.5211 10.5641"><defs><radialGradient id="radial-gradient" cx="6.7605" cy="5.2821" r="6.0665" gradientUnits="userSpaceOnUse"><stop offset="0" stop-color="#ffd496"/><stop offset="1" stop-color="#f29d25"/></radialGradient></defs><title>AE</title><g id="Layer_2" data-name="Layer 2"><g id="Layer_1-2" data-name="Layer 1"><path id="AE" d="M13.269,1.2962l.1841.251.026,1.701.042.121-.0981.018-.11.129-.129.199-.177.103-.142.116-.134.144-.12.031-.155-.183-.107-.187.026-.041.075-.013.028-.097-.045-.14-.1049-.053-.1321-.004-.127.063-.135.124-.076.133-.011.267.035.3-.001.146-.0739.181-.026.266.0529.2059.048.123.005.104-.126.328.1091.0621.361.023.106.2219.072.1521-.02.09-.256.0669-.322.074-.231-.021-.4181.1-.223.1539.065.0961.0771.074.0349.203-.065.288-.118.2789-.1469.348-.17.399-.233.6-.197.471-.021.339.005.221-.022.441-.187.2431-.042.0069-.223-.0289-.075-.01-.213-.028-.33-.043-.4291-.057-.507-.066-.565-.075-.604-.08-.625-.082-.624-.082-.605-.08-.565-.074-.507-.067-.428-.057-.33-.043-.213-.028-.075-.01-.236-.031-.1271-.164-.154-.198-.155-.199-.154-.199-.154-.199-.154-.199-.1539-.199-.154-.199-.154-.199-.154-.2L1.097,7.468l-.155-.2-.154-.2-.154-.2-.154-.2-.154-.2-.154-.2L.068,6.134.011,5.983,0,5.587V5.5l.104-.16.05.114.116.155.197-.038.092.026.068.549.145.195.1761.078.5969.043.371-.074.731-.358.384-.129,1.062.022.851.149,1.325.088.2571-.023.715-.288.438-.254.261-.073.172-.246.1129-.32.101-.209.1291-.1.122-.178.099-.289.246-.292.986-.711.576-.602.051-.195.313-.292.251-.32L12.274.852l.235-.379.139-.425.017-.03L12.7661,0,12.91.064l.015.318-.0529.3L12.8661,1l-.021.172.109.141.186.061.081-.007Zm-.0459,1.283.017-.133-.029-.069-.12-.009-.05.115-.017.165.083.014Zm-5.096,2.438-.025.06-.079-.005-.198-.054-.0641-.086.1241-.103.055-.005.0789.108Zm-3.1811.564-.208.017-.188-.116.397-.155.107-.07.116-.143.0931.123L5.16,5.43l-.073.083ZM2.938,5.49l-.0469.022-.05-.165.003-.052.129-.075.079.135Zm3.6791.34.0009.104-.2849-.03-.076.054-.234-.03-.229-.075.155-.125.404-.147.168.134Z" fill="url(#radial-gradient)"/></g></g></svg>