<svg xmlns="http://www.w3.org/2000/svg" xmlns:xlink="http://www.w3.org/1999/xlink" width="40.429" height="30.578" viewBox="0 0 40.429 30.578"><defs><radialGradient id="radial-gradient" cx="20.2145" cy="15.289" r="17.9218" gradientUnits="userSpaceOnUse"><stop offset="0" stop-color="#ffd496"/><stop offset="1" stop-color="#f29d25"/></radialGradient></defs><title>AF</title><g id="Layer_2" data-name="Layer 2"><g id="Layer_1-2" data-name="Layer 1"><path id="AF" d="M40.429,4.335l-.144.023-.204-.084-.08-.128-.034-.018-.162.084-.309.106-.524.277.0119.071.3411.281.08.093.042.029-.309.135-.664.304-.437.248-.104.009-.2641-.104-.39-.124-.104.002-.9.021-.827.046-.344.06-.639.057-.402.02-.257.096-.281.126-.292.082-.217.027-.2611.118-.172.234-.4909.346-.276.167-.139.189-.158.018-.27-.034-.209.204-.231.292-.423.423-.2251.171-.1339.276.099.143.344.214.154.202.0839.16.1571.41.1.403.148.174.0429.295.0381.181-.081.129-.074.143v.136l.089.14.078.124.043.099-.053.11-.157.168-.08.172-.174.287-.272.196-.18.142-.1909.3-.316.333-.133.278-.139.153-.1431.082.0371.15.124.187.205.209-.0091.325-.01.234.007.283-.112.238-.57.228-.5459.1-.669.006-.253-.036-.202-.05-.726-.256-.295.151-.061.369.53.598.217.333.241.556.18.286-.064.268-.48.304-.477.285-.608.059-.382.102-.185.147-.136.623-.137.228.003.271-.129.307-.195.197-.137.322.043.609.064,1.03-.259.324-.292.328-.3081.234-.2929.108-.243-.04-.192-.202-.114-.17-.212-.142-.216.029-.2171.13-.3469-.043-.296-.13-.15.014-.086.131-.317.28-.7781.425-.3179.031-.136.106.054.174.139.142.243.1.012.116-.214.101-.183.115-.403.141-.465.055-.48-.082-.247-.187-.292-.018-.266.137-.275.226-.3.484-.08.085-.0809.077-.196.104-.281.17-.141.356-.169.633.04.34.013.589-.0659.413-.122.271.0239.213.1861.242-.075.157-.156.174-.151.097-.605.183-.829.249-.548.16-.815.238-.238.058-.496.021-.257-.036-.348-.01-.512.009-.357.065-.358.119-.2641.15-.1519.148-.054.071-.3591-.122L8.65,30.238l-3.063.288-.289-.055-1.045-.337L2.9059,29.7l-.8329-.269-1.069-.352.732-.87.638-.76.64-.764.63-.755.075-.265.01-.519-.166-.695-.267-.317-.881-.128-.661-.097-.721-.105-.092-.039-.0821-.543L.894,22.98l-.047-.469.007-.362.1039-.595.0061-.269L.631,20.124l-.1861-.645-.19-.667L.214,18.599.21,18.336l.442-.62.137-.135.259-.309.162-.165-.0281-.113L.9,16.929l-.426-.006-.2271-.094L.07,16.66,0,16.414l.116-.437L0,15.126l.237-.422.204-.295.692-.042-.24-.334L.777,13.839l-.074-.056-.028-.089.037-.09.177-.034.12-.112.195-.157.102-.068.018-.191.093-.134.14-.169.1111-.192-.028-.225.1019-.27.0471-.17.074-.147-.065-.214-.0561-.181-.0179-.215.111-.057.14-.079.027-.17.074-.215.056-.171.093-.135.01-.137-.056-.227L2.41,9.9l.093.125.124.162.339.302.22.088.277.044.341-.041.272-.057.128.015.297.219.347.307.111.137.052.209.102.062.222-.207.214-.068.197.039.217.023.218-.076.097-.055.379-.268.344-.204.214-.125.077-.42.099-.239.141-.139L7.48,9.56l-.059-.132-.06-.179.06-.095.137-.042h.344l.605-.189.504-.189.466-.154.212-.025.201.026.092-.045.025-.147.114-.155.2589-.126.487-.267.43-.397.153-.302.104-.441.2009-.682.2221-.749.082-.331.094-.255.38-.215.388-.156.601-.031.705-.016.149-.411.093-.35.117-.181.171-.147.06-.029.38.215.583.329.679.164.341.082.142-.013.857-.08.677.128.355.35.349.089.342-.169.2119-.031.0821.109.17.046.26-.017.15.097.016.097.02.112.1921.266.3469.323.3081.078.405-.251.137.029.067-.081.041-.183.245-.172.4479-.161.2541-.144.091-.119.151-.034.165.036.118-.045.041-.113.047-.049.084-.04.0749-.02.1361.031.251.206.366.38.238.174.109-.029.14-.117.171-.202.042-.292-.085-.381.058-.308.203-.234.375-.144.547-.055.336.033.124.121.168.066.211.013.194-.137.175-.289.01-.357-.155-.427.042-.136.067-.059.21-.155.293-.321.283-.414L28.43.435l.337-.314L29.168,0l.486.138.573.396.215.486-.14.577-.012.316.1159.059.1961-.016.275-.09.18-.005.0851.082-.005.162-.096.243-.115.681-.071.588-.071.577-.061.506.109.394.166.594.187.392.191.125.192.045.191-.035.393-.252.593-.468.576-.288.838-.162.281-.503.388-.333.886-.495.4809-.19.2771-.032.346.089.079.032.068.024.179.041.037.151-.047.163-.191.134-.061.104.073.078.27.027.559-.181.362-.116.251-.046.101-.151.1579-.152.2511-.011.269.081.223.047.379-.043.2.132.28.249.126.155Z" fill="url(#radial-gradient)"/></g></g></svg>