<svg xmlns="http://www.w3.org/2000/svg" xmlns:xlink="http://www.w3.org/1999/xlink" width="4.912" height="11.121" viewBox="0 0 4.912 11.121"><defs><radialGradient id="radial-gradient" cx="2.456" cy="5.5605" r="4.2983" gradientUnits="userSpaceOnUse"><stop offset="0" stop-color="#9b0400"/><stop offset="1" stop-color="#4c0200"/></radialGradient></defs><title>AL</title><g id="Layer_2" data-name="Layer 2"><g id="Layer_1-2" data-name="Layer 1"><path id="AL" d="M2.198.382l.111.086L2.54.842l.1531.33.3029.114.168.128.217.195.104.195.148.597.017.36-.0429.164-.0361.043-.135.584.032.297-.001.196-.114.077-.076.123.123.484-.015.207.0061.236.2209.538.131.166.116.079.15.494.088.085.363-.047.178.055.071.117.016.08-.024.276.09.212.121.218v.133l-.082.218-.145.253-.192.098-.212.082-.102.197-.0509.209L4.033,8.79l-.058.17-.091.346-.021.125-.143.127-.222.052-.2.011-.134.059-.069.118-.127.095-.076.042v.105l.092.219.1051.178.0029.142-.052.04-.163-.018-.034.052-.018.16-.043.135-.067.083-.116.09-.213-.029-.2-.136-.104-.042-.06.004-.016-.333-.087-.259-.316-.625L.572,9.093.329,8.819.223,8.588.116,8.37l.102-.006.101.055.129.067.053-.109L.445,8.138.179,7.58l-.02-.154.13-.468.217-.527-.014-.64.067-.485L.484,4.991.448,4.605.6071,4.09.744,3.963l.084-.164.005-.55L.526,2.991.173,2.943l.008-.187.044-.297L.2,2.36l.026-.17L.14,1.964,0,1.8l.135-.289L.333,1.16.517.882.74.592.889.314,1.048.073,1.186,0l.068.051.037.105-.009.31.047.107.095.079L1.625.613,1.847.536l.3-.164Z" fill="url(#radial-gradient)"/></g></g></svg>