<svg xmlns="http://www.w3.org/2000/svg" xmlns:xlink="http://www.w3.org/1999/xlink" width="8.826" height="8.8509" viewBox="0 0 8.826 8.8509"><defs><radialGradient id="radial-gradient" cx="4.413" cy="4.4254" r="4.4192" gradientUnits="userSpaceOnUse"><stop offset="0" stop-color="#ffd496"/><stop offset="1" stop-color="#f29d25"/></radialGradient></defs><title>AM</title><g id="Layer_2" data-name="Layer 2"><g id="Layer_1-2" data-name="Layer 1"><path id="AM" d="M8.5649,8.7159,8.08,8.6949l-.414.156L7.51,8.82l-.104-.2771-.0889-.225-.264-.579.071-.237-.147-.137-.354-.247-.091-.102.05-.141.0349-.2569-.034-.208-.096-.063-.177-.004-.215.052-.432.201-.3-.128-.173-.129-.101-.108-.2249.09-.055-.043L4.7969,6.01l-.068-.145-.135-.169-.1259-.081-.461.167-.277.057-.097-.156-.487-.514-.451-.395-.31-.163-.312.017-.484.079-.178-.033-.422-.172-.352-.205.048-.085L.759,4.15.67,3.8829l-.196-.43.021-.135-.062-.186-.068-.141.276-.337.126-.271.028-.265-.074-.275-.182-.499-.112-.145-.208-.136L.044.8409,0,.6839.147.6529.576.6489.992.5949l.326-.104L1.79.4039l.1939-.078.227-.037L2.9.3719,3.158.308,3.934.296l.02-.033L3.849.157,3.85.117,4.312.05,4.384,0l.06.168.174.187L4.807.43l.102.103.005.078L4.579.706,4.556.753l.0219.046.1.023.47.234.268.005.141.071.07.14.224.19.179.184.011.0629-.034.093-.5.359-.063.124-.008.131.219.3891.323.424.466.322.643.349.008.216-.102.256-.087.174-.04.118-.078.049-.64-.011-.096.042-.042.05-.0029.042.23.078.359.273.207.265.215.116.2411.211.193.196.301.254.335-.083.448.226.019.153-.028.137-.282.149-.035.062v.052l.037.073.165.122.195.181.219.27-.098.081-.2051.012-.1589-.033-.0561.055.003.088.208.205.041.149-.0089.259ZM4.4479.98l.014-.099-.021-.089-.075-.028-.092.023-.007.099.028.094.093.042Zm1.484,1.5189L5.825,2.56l-.1-.027v-.152l.072-.061.083.003.079.055Z" fill="url(#radial-gradient)"/></g></g></svg>