<svg xmlns="http://www.w3.org/2000/svg" xmlns:xlink="http://www.w3.org/1999/xlink" width="34.539" height="38.7371" viewBox="0 0 34.539 38.7371"><defs><radialGradient id="radial-gradient" cx="17.2695" cy="19.3685" r="18.349" gradientUnits="userSpaceOnUse"><stop offset="0" stop-color="#ffd496"/><stop offset="1" stop-color="#f29d25"/></radialGradient></defs><title>AO</title><g id="Layer_2" data-name="Layer 2"><g id="Layer_1-2" data-name="Layer 1"><path id="AO" d="M3.7409.576l-.043.045L3.39.745l-.331.116-.435.472-.22.204-.064.051-.199.113-.144.097.005.053.096.062.098.102-.01.771-.042.76L2.09,3.61l-.276.025-.367.053-.117.034-.041-.075L1.166,3.369l.069-.264.074-.197-.083-.401L1.0389,2.15l-.198-.453L.78,1.61l.167-.146.251-.32.105-.166.291-.037.108-.116.077-.186.03-.108.328-.088.394-.157.218-.172L2.97.004,3.11,0l.092.045.253.298L3.67.531Zm30.573,17.559.062.372.061.517.043.372.0441.167.015.089-.049.096-.04.223-.079.198-.044.138.037.254-.03.364-.031.385-.01.371.105.664-.0151.204-.1309.348-.099.264-.0641.306-.012.16.24.452-.014.09-.184.0281-.152.0079H28.7349v8.511l.169.892.31.972.121.09.312.179.433.366.2429.277.4941.481.6569.614.633.551.5591.486-.8771.171-1.247.242-.841.164L28.68,38.4l-.68.125-.8469.1551-.135-.003-.227-.107-.49-.021-.576.148-.457.04-.338-.068L24.6,38.54l-.322-.1909-.557-.07-.7931.052-.764-.037-.736-.126-.526-.05-.317.027-.34-.041-.363-.109-.303-.185-.364-.39-.285-.372-.0739-.0529-.09-.0571-.089-.0169-.8079-.01-.7671-.009-.439-.001-1.074-.001-1.0739-.001-1.074-.002-1.074-.001-1.074-.002-1.0739-.001-1.074-.002L8.071,36.89l-.57-.0011-.53.03-.585.0321-.084-.014-.139-.0451-.095-.082-.315-.211-.274-.16-.373-.27-.241-.295-.203-.094-.359-.053-.27-.052-.22-.012-.387.139-.292.138-.208.133-.361.152-.304.1521-.53-.02-.115.022-.295-.01-.278-.133-.282.012-.313.169L0,36.483.104,35.38l.109-.487.003-.582L.152,32.807.075,32.6l-.052-.242L.3,32.174l.141-.141.191-.249.136-.349.16-.768.582-1.763.276-1.723.35-.814.131-.912.974-1.175.24-.721.5041-.353.713-.376.508-.669.246-.463.28-.887-.003-.925.178-1.233-.039-.354-.266-.49-.049-.35-.247-.344-.264-.26-.124-.464L4.46,15.66l-.125-.487-.219-.35-.035-.431-.115-.456-.224-.45-.2092-.515V12.81l.136-.194.129-.063-.043.098-.086.115.021.089.856-.902.054-.176L4.571,11.58l-.0041-.241.034-.28-.808-1.661-.641-1.542-.109-.779-.848-1.023-.334-.665-.19-.466-.143-.176.054-.089L1.8,4.635l.486-.108.666-.118.615-.27.164-.12.326-.024.3319.072.123-.052.07-.004h.779l.324-.018.601.005.379.022.216.03.583.047.7281-.011.257-.024.954-.016.942-.016.847-.014.9359.003.716.002.326.097.2961.184.135.167.064.074.088.176.162.14.058.216-.047.293.023.353.094.412.197.432.298.454.13.36-.039.267.092.282.2219.297.162.157.094.119.252.456.467.728.35.546.123.065.179-.023.38-.054.376-.011.269.112.1079-.019.4051-.217.4019-.066.42-.09.219-.092h.255l.687.175.13.009h.5561l.556-.098.082-.732.005-.145.1339-.275.17-.24.021-.229-.01-.313.123-.379.373-.302.603-.143.343-.028.541-.084.82-.085.3029.011.024.043-.174.524-.003.1709.063.173.139.094.851.01.784.01.899.0329.674.024.086.026.068.039.1.26-.022.508-.15.742.0579.694.2671.646.0269.9931-.0939.5929-.1191.748-.046.849.122.355.258.371.394.389.305.503.216.619.078.39-.058.1611.004.278.0671.396-.0751.263-.216.129-.072.178.109.342.027.311.085.119.062.086.102.013.219-.111.2621-.207.21-.087.296.011.416.059.734.0209.226-.0369.683-.279.179-.021.27.026.3829.083.386.017.188-.086.017-.113.06-.147Z" fill="url(#radial-gradient)"/></g></g></svg>