<svg xmlns="http://www.w3.org/2000/svg" xmlns:xlink="http://www.w3.org/1999/xlink" width="1010.335" height="547.553" viewBox="0 0 1010.335 547.553"><defs><radialGradient id="radial-gradient" cx="505.1675" cy="273.7765" r="406.2928" gradientUnits="userSpaceOnUse"><stop offset="0" stop-color="#ffd496"/><stop offset="1" stop-color="#f29d25"/></radialGradient></defs><title>AQ</title><g id="Layer_2" data-name="Layer 2"><g id="Layer_1-2" data-name="Layer 1"><path id="AQ" d="M310.625,9.645l-.518.231.136-.273.689-.716.073-.2181.797-.4169.377.0889.805-.2459.362.167.313-.1111.172.1241.112.335-.009.133-.469-.052-.438.393L312.508,9l-.069.325.11.168-.14.146-.445-.304-.351.106-.114.531-.153.11-.09.022-.14-.136-.286-.044-.027-.07Zm-.675,1.063.622-.273-.114-.209-.234-.024-.08-.088-.206-.061-.389.2651.078.112Zm-1.307.627.382-.044.1-.1891-.119-.276-.232-.091-.511.013.116.246Zm-4.317,1.384.191.001.559-.1031.278-.254.217.078.678-.104.068.383.09.173.283.231,1.042-.797-.43.021-.385-.425-1.225.146-.137-.076-.3-.419-.189-.097-.108.355-.385.353-.499-.016.007.274Zm1.568,1.77-.372-.444-.192.063-.097.266.133.29.2.138.163-.056-.152-.138-.005-.108.182.052Zm-.162,4.549-.428-.1711-.23.302-.037.7621-.455.0789.336.2671.21.071.35-.227-.005-.105-.095-.268.093-.311Zm-3.785,2.284.07-.177.247-.3871-.388.151-.237.237-.065.34.257-.021Zm21.525,169.881.11.298.111.111,12.319-1.513.201-.541.2009-.714.615-.787.625-.417,15.884-7.609.108-.221.1-.377-.014-.524-.087-.449-.753-1.219.0451-.284.108-.2069.29-.2621.293-.0739.641.1489.565-1.4.213-1.435.127-3.482-.058-1.576-.43-1.939-.258-.758-.159-2.056L354,162.751l-.244-1.402-.263-1.284-.233-.812-.266-.4-.896-.1711-1.474-.034-1.475.1451-.368-.052-.364-.281.162-.74.229-.757.408-.365,3.145-.91.267-.957.1789-1.367.033-.663-.022-.678-.067-.69-.129-.387-.6719-1.252-.69-1.0171-.7139-.7819-.723-.6321-1.904-1.435-1.299-.729-.743-.292-1.593-.26-.574.07-1.216.3791-.642.279-3.899,2.786-.175.63-.591,1.758-1.643,3.329-.567,1.3309-.219.688-.209,1.294-.234,1.2151.118.545.263.2169-.157.712-.23.592-.345.396-.031.438.032.616-.05,1.222-.149,1.011-.212.908-.236.751.755.4619.125.12.115.256.133.658.102.7361-.125.7639-.175.495-.737,1.782-1.458,3.035-1.48,2.726-1.644,2.461-.115-.248-.054-.787-.292-.184-.297.528-.675.933-.691.313-.345-.232-.477-.76-.133-.093-.248,1.314-.544,1.567-1.035,3.424-.238.493-.611.903-.068.933.058,2.371ZM320.369,3.974l.14.215.369-.164.303-.301.976-.167.109-.133-2.009-.257-.149.194.199.2329Zm-3.365,11.324.538.437.267.027.559-.587.025-.147-.021-.224-.009-.035-.221-.047-.977-.142-.353.389.039.102Zm6.821-10.76.125-.055.083-.255.048-.698-.072.039-.202.348-.197.26.0231.136Zm-6.596,11.911.015.115-.042.102-.084.101.018.146.102.378.237.1209.829-.343.208-.257.501-.27.225-.011.439.244,1.226.108.229-.18-.088-.468-.14-.277-.167-.038-.704.0059-.173-.161-.002-.104-.171-.178-1.27.1791-.962.479Zm1.706.773-.988.186-.071.2.16.279.622.419.236-.278.43-.2731-.12-.439ZM286.137,47.004l.549-.1421.138-.215.056-.188.366-.455-.072-.188-.201-.19-.48-.06-.39.102-.523.418.035.135.115.061-.011.561ZM272.666,61.879l.4.268.608-.337-.971-1.662-.374-.319-.735-.31-.368.16-.223.285-.058.482.507.932Zm9.112-16.223.323.569.227.475.233.0679.237-.0579.195-.1681.117-.003.118.076.207-.19.188-.375.163-.742.158-.169.209.053.211.137.231-.144.292-.471.053-.177-.105-.236-.386-.259-.254-.076.168-.203.407-.3209.207-.323.304-.263.45-.519-.206-.177-.187-.295-.136-.142-.204-.126-.055-.091-.002-.359.104-.983.538-.7.167-.264-.084-.538-.335-.062-.301.23-1.118,1.03-.227.365-.443.9959-.229.56-.216.625-.243.553-.736,1.233-.141.361-.015.458.05.46Zm18.764-31.141.189-.332.075-.269-.588.307-.314.666-.046.26.113-.028ZM269.094,76.118l.07.453.595.705-.132.274-.146.176-.186-.05-.502-.497-.598-.695-.292-.244-.41-.241-.137.047-.202.1019-.188.133-.141.3691.0141.4439.113.64.019.3431-.052.18-.075.0449-.193-.016-.418-.2139-.636-.657-.664.106-.541.528-.121.27-.049.308.079.41-.017.238-.119.2509-.027.4291.083.4539.264.32.362.4521.297.224.325.406.343.275.344.058.657-.131.301.156.317.636.157.15.441.102.271-.16,1.016-1.1859-.099-.376-.332-.467-.391-.534.151-.191.401-.1259.625.164.683.463.546.1729.125-.018,1.447-2.328.212-.268.217.079.598.879.645.738.678.258.308-.114.308-.013,1.499.632-.066.354-.13.377-.402.429-.203.113-2.22.673.015.293.647.89.699.319.659-.188.653-.321.853-.546.304-.058.306.041.309.2131.304.3369-.623.873-.683.313-.565.094-2.056-.069-1.486-.255-.677-.3239-.68-.1951-.335.0511-.329.218-.65.959.082.369.141.34.335.584.301.317.309.144.391-.059.143.26.131.386.185.107,1.463-.286,1.929-.1161.662-.1309.538.093.527.391,1.348-.36,2.396-.861.168-1.003,1.429-2.0021.2739-.479.229-.66.188-1.002.429-1.381.037-.869-.069-3.643-.072-1.884-.101-1.598-.062-.477-.322-.326-.024-1.148-.264-.857-.497-1.456-1.012-2.638-.4-1.485-.334-1.971-.18-.669-.816-2.096-.414-.352-.164-.074-.466.347.079-.965-.004-.391-.148-1.412-.137-.285-.442-.706-.295-.336-2.735.658-1.34.5251-.34.232-.19.236-.143.462-.082.429.007.4879.059.386.095.33.33.4879.364.303.254.446.069.81-.136,1.009-.24,1.275-.044.326-.033.504.072.494.123.2931.229.398.091.115,1.615,1.0629.271.0411.274-.0751.58-.437,1.1.166.263.172.3259.4451.659.59.7431.774-.116.119-.119.021-.767-.456-.323-.079-.667.088-.657.357-1.4,1.116-.362,1.034.049.453.346.417.372.2021.72.273,1.016.156.288.123.287.2739.284.1241.168-.144.161-.037.127.322.022.514-.001.52-.035.509-.097.286-.131.07-.986-1.459-.155-.117-.162-.041-1.012.397-1.271-.067-.319.2249-.553.87-.601.291-1.79-.609-.994-.016-.982.4681.185.517.25.319,1.334.452.613.525-1.15.468-.56-.042-.558-.1309-1.06-.4161-.215.032-.366.227Zm5.798-8.217.318-.396.273-.617-.041-.164-.215-.254-.606.2329-.133-.2509-.281.193.037.2529.273,1.0311Zm-7.009,25.063-.101.283-.14.267-.034.378.304.49.178.103.271-.1879.44-.5931.11-.693.3931-.98-.37-.227-.443.124ZM346.777.563l.441-.193.199.34.873.024.63.477.002-.196-.038-.153-.069-.137-.048-.048-.363-.091-.081-.234-.318-.206L347.393,0l-.327.129-.282-.097-.061.238.004.166ZM295.806,25.719l.258.235.569.151.097.111.085.171.26-.206.248-.452.282-.045.289.042.223-.108.205-.2429.497-.454.531-.255-.257-.343-.292.103-.276.243-.411.007.271-.676-.253-.578.116-.368-.292-.372-.427-.036-.136.08-.2.267-.218.185.042.268-.017.242-.678.232.054.194.083.148-.853.471-.155.349-.129.408.248.078ZM286.203,40.54l.313.033.131-.052.296-.383-.033-.184-.177-.439-.264-.1171-.238.138.032.336-.263.513Zm11.658-14.43-.259.028-.278.723.236.005.444-.301.167-.463.224-.343-.1181-.059Zm2.209-1.819.201-.3921.148.114.166-.046.197-.262.062-.149.331-.211.032-.472.226-.396.099-.62-.59-.309.003-.321-.172-.169-.344-.008-.263.214-.114.191-.07.261.057.15.311.456-.068.276-.39.894-.218.344-.073.177-.098.048.154.11ZM288.174,36.413l.627-.78.007-.153-.085-.311.134-.3549-.157-.108-.415.305-.035.852-.212.287-.001.133.049.081Zm2.118-2.988.614-.264.027-.195-.015-.515.076-.354.084-.083.32-.146.005-.182.087-.532-.552-.139-.378.297-.088.419-.188.227.048.536-.292.197-.079.359.018.2751ZM718.255,39.79l.323-.175.31-.35-.268-.089-.102-.133-.386-.086-.296.154-.128.258.294.389Zm34.319-2.3921.271.198.265-.083.292-.3469-.565-.358-.427.094.024.1209ZM266.619,93.052l.406-1.267.366-.976-.146-.438-.168-.31-.388-.239-2.534-.698-.994.5609.083.302.285.397.451.398.549.146-.09.395-.396.011-.141.4781-.107.075-.754-.526-.345.021-.337.28-.125.225-.095.403.017.507.104.504.14.325.2879.436,3.722,2.749.344-.4569.242-.9991-.284-.366-.234-.569-.07-.405-.112-.159-.147-.353.408-.306ZM747.743,35.634l.229-.256.009-.17-.037-.296-.208-.266-.5721.018-.322-.173-.316.069-.284.237-.257.732.245.271ZM734.831,32.92l.386.1.367-.092.191-.229-.014-.099-.087-.203-.386-.194-.547.031-.149.227.0411.137Zm-19.573,7.314.726.69.014.104.078.104.483-.189.3239-.424-.369-.852-.711-.327-.597-.037-.072.374Zm-.625-1.542.242.0449.298-.224-.377-.3939-.083-.243-.1221-.021-.146.459.03.145ZM676.997,68.826l.324.615.246.094.2059-.003.2131-.199.054-.291-.067-.423-.05-.197-.156-.37-.337-.43-.081-.316-.036-.4619-.117-.3981-.256.1661-.165.4329-.026.896.063.453Zm79.725-32.993.369-.09.048-.254.025-.469-.326.129-.275.396.016.102Zm177.093,4.498.138.1.052-.433-.009-.163-.078-.219-.094-.4181-.229-.1439-.188.086.209.8419Zm4.091,5.011.151.064.245-.209.075-.268.164-.413-.032-.211-.16-.4-.07-.274-.396-.483-.024.214.059.865-.16.676Zm-6.706-8.32.585.8449.1291.035.1519-.336-.135-.314-.71-1.267-.023.094-.014.271.081.306ZM757.332,32.004l.4539.018.097.176,1.22-.162.722-.768.058-.249-.108-.375-.397-.47-.549-.165-.775.123-.174.085-.381.3821-.239.3729-.151.56.063.3251Zm7.589-2.617.163.179.032.177.04.65.105.133.452.093.169-.156-.052-.127-.331-.331-.21-.314-.013-.153.026-.4731-.152-.312-.685-.406-.271.044-.103.211.082.455ZM487.289,67.718l.141.2869.521.4311.451-.2.18-.388.078-.5331-.088-.62-.2561-.356-.6709-.088-.405.216-.1181.194.0181.292Zm-20.028,3.675.089.272.034.489.456.359-.013.28-.046.362-.009.484.117.4761.496-.2291.667-.838.212-.4.226-.828.263-.396.075-.295-.458-.211-.471.037-.307-.279-.609-.625-.814-.167-1.395.075-.105.1681.24.278Zm-1.063,2.511.214.503.303.256.395.056.296-.199-.663-1.032-.061-.163-.141-.21-.381.09.02.164-.034.336Zm-26.67,8.854.472.462.37.077.224-.208-.073-.305-.286-.628-.427-.589-.243-.053-.11.1271-.136.453.055.3129Zm18.825-13.624.069.22.735-.5-.155-1.008-.062-.091-.271-.1409-.492.3439-.545.058.482.82Zm-42.057,32.938.324.447.209.505.368,2.209.079.1779.227.274.696.123.203-.517.0151-.364-.033-.948-.497-1.246-.115-.477-.036-.467.131-2.2219.243-.896v-.862l-.167-.923-.309.06-.496.513-.315,1.14-.127.902-.286.604-.455.503-1.802.6859-.295.511,1.194-.151Zm13.228-14.537.38.47.4.006.197-.224-.191-.744-.366-1.14-.149-.181-.279.14-.171.534.019.48Zm53.747-18.08.952-.2211.376-.367.141-.2919.108-.5911-.083-.387-.106-.083-.338-.093-1.237.995-.131.287.106.496ZM380.139,166.839l.325-.559-.037-.227-.133-.4051-1.114-.8369-3.208-1.982-.176.027-.542.849-.724.481-.533.217-.921.1959-.0979,1.1111.3349.171ZM466.04,68.712l.454-.014,1.521-.225.155-.377-.004-.721-.082-.466-.257-.265-.406-.072-.627.229-.321.307-.587,1.2069.019.165Zm82.643-1.362.989.514.316.1129.389-.297.517.058.18-.318.049-.427-.385-1.195-.144-.592-.229-.2979-.503-.146-.35.098-.894,1.052-.08.51.028.275ZM519.52,63.765l.139.132.509.221.882.738.178-.5281.261-1.333.87-.765-.1459-.22-.9161-.1469-.947.189-.591.363-.287.445-.096.282.023.179Zm-41.041,2.349.32.663.146.616.155.027.247-1.051.454-.9891-.137-.781-.273-.1469-.809.222-.216.364.008.6179ZM611.266,39.831l.206.067.472-.164.642-.042.031-.076-.009-.2589-.088-.082-.318-.132-.786.02-.16.146-.0189.184.0059.169ZM315.034,20.133l.084.046.32-.22-.16-.1619-.56.059-.039-.112-.183-.101-.684.136.188.26.765.159ZM281.348,164.6219l1.72-2.9279,1.35-2.082,1.897-2.717.883-1.605.337-.783.728-1.297.166-.53-.315-.474-.555-.471-1.236.649-5.388,4.564-.98,1.191-.629.581-1.605,1.077-.23.261-1.764,2.32-.56,1.027-.6,1.7459-.326,3.0151.017.864.119.586.1359.456.452.864.313.2589,1.208.532,1.21.1371.613-.0511.611-.217,1.08-.7429.273-1.563-.146-1.14.819-2.4861Zm3.057,4.0711,2.041.349.484-.745-.121-.896.184-1.011.187-.243.292-.649-1.139-.6859-.672-.134-.894.197-.563.87-.256.201-.275.529-.355,1.586.395.407Zm23.794,13.392.199-.995.231-.785.291-.17.294-.024-.242-.744-.253-.588-.813-.229.006-1.623.093-1.017.129-1.003-.469-1.563-1.98-.567-1.256,1.074-.249.8469-.64.393-.009,1.0231.281.445-.158.2819-1.072.388-.091.805.063,1.062.272,1.175.316.628.816.212-.333.83-.899.626-1.68.412-.806.078-9.714.188-.38-.391-.146-.252-.14-1.466-.22-.388-.228-.206-.297.0349-.297.233-.26.363-.253.555.105.412.399.6519,1.144,1.42,2.753,2.82,2.623,2.443.136-.252.262-1.149.172-.302.982-.577,1.603-.38.214.562.229,1.856.128.546.757,1.199,1.816.968,4.043,1.053.883-1.188.403-.719.557-1.1649.283-.7181.152-1.3319-.007-1.692.112-3.6191Zm-22.553-11.2,1.802,2.22.234.498.088,1.262.163.579,1.386,1.035.122,1.311.133.338.147.104.262-.06.517-.388.254-.219,1.107-1.392-.099-1.878-.111-1.0491-.817-.5209-.404-1.7751-.729-.192-1.436-.063-.27-.399-.274-.211-1.289-.129-.701-.494-.3389.271.107.674ZM314.1,23.227l.542.185.262-.077-.123-.315-.212-.1451.243-.375.295-.106-.142-.354.065-.444-.751-.554.105-.313-.317.035-.329.307-.087.21-.091.087-.098.039-.105-.088.054-.669.13-.271.003-.245-.146-.41-.265.0151-.126.182-.28.081-.211.1909-.362.247-.188.498-.233.47-.037.293.114.1371.128-.0251.285-.153.291-.062-.043.408.069.292.331.231-.798.468.254.357.125-.008.415-.304.142-.008.142.07-.089.406.119.1041.108-.0591.136-.642.335-.057.091.114-.035.3Zm-8.05,46.057-.01-.498-.284-.298-.927.073-.163.125-.095.563.049.252.173.514.198.178h.239l.71-.542ZM63.198,134.52l1.051-.553,1.243-.158-.226-.811-1.746-.568-.618.003-.082.356.04.25.161.536-.098.783Zm-22.34,41.846,1.157.552.507.414.659.16.515-.043-.267-.738-1.43-.84-1.76-1.356-1.437-1.351-.216,1.016.634.268,1.349.851ZM315.667,23.239l-.819.539-.144.0219-.225.1371-.006.187.0409.3369.3.198.241-.025.7-.644.128-.265-.018-.295.16-.3159ZM61.521,130.296l-.026-.157-.171-.473-.338-.4111-.365-.229-.285.2311.131.242.63.6829ZM995.845,272.227l-.907.078-1.107.418-1.385.896-.653-1.024-.51-1.651-1.9551-.5479-2.091-.1191-.95-1.228-.899-.421-4.52.398v.002l-1.065-2.356-.61-1.737-1.286-.688-1.259-1.261-.4019-.247-.404.088-1.762-1.501-4.686-2.744-.857-.149-.794-.732-.381-1.656-.494-1.0059-3.336-.755-.451-1.274-.742-.057-1.469-2.194-1.189.057-1.496-.797-1.066-1.583-.695-.647-.192-1.999-.52-.654-.612-.312-1.362,1.059-1.387-1.958-4.85-.902-.75-1.106-.52-1.061.047-.9719.424.2739.414.005.75-.3159.2249-.455.248-1.3141.205-.666.3531-1.435-.93-1.805-.517-.287-.7421,1.29-.6329.388-.5541-1.125-.301-.298-.182-.7689.108-1.659-.436-1.759-.447-.819-.603-.168-.831-.775-1.303-2.036-2.812-5.266-.653-.646-2.0931.896L933.91,222.553l-.263,1.193-.457.348-1.033-1.15-3.818.181-.327-1.754,3.536-1.972,3.518-2.645-.218-1.372-1.6791-3.0751-.421-.965-.093-1.086-.687-.676-.425-1.319-1.204-2.178-.7459-.8209-.4161-.014-1.893-4.167-1.229-.927.0251-1.31.172-.524.4959-.774.031-1.5819-.031-3.69-.308-.111-.93-.962-.044-1.056.6811-.131.609-.458.31-.404-.02-.971-.622-.6469-.2261-.9131.23-1.296.096-.979-.268-.421-4.145.296-1.38-.321-.037-1.253.581-.9279,3.963-3.381.567-.546.497-.712-.002-1.305-.479-.802-.774.207-.603-.534-.069-1.1,1.1031-.84.229-.709-.065-.875-.672-.0461-.302-.73.2589-.378.396-.106,1.227-1.961.067-1.036-.288-.858-.237-1.517,1.097-2.258.89-1.045.997.534.537.662.356.015.245-.456v-.908l-.388-.89-.875-3.323.024-1.5059.445-.4991.248.125.609,2.1241,1.865,2.938.718-.769,1.707-1.246,1.118-.596,1.119-1.243.938-.382,4.159-.456.477.806.668.958.913-.216.559.088.229-1.1389-.203-1.24-.721.044-.8159-.341-.847-.643-1.531-2.033-.3611-2.0881-.0289-1.229-.2991-.29-.4019,1.174-.6271,1.335-1.1859,1.235-.929-1.097-.897-.17.365-1.056.903-1.422.174-1.19-.198-.945-.53-.086-.549-.32.024-1.0431-.782-.986-.4131-1.541-.0319-2.519-.419-1.516-.5851-1.81L933.4,134.85l-.665-.109-.48-.21-.642-.6371.11-1.07.3369-.5.43-1.018-.049-1.076-.198-1.068.421-1.273-.2719-2.83-.644-.208-.174-.621.5949-1.236.271-1.125.198-1.219-.1729-.605-.495-.403-.634-.813-.316-.734-.139-1.739-.8029-.699-1.898-.2009-.545.1079-.344-.68,2.158-1.291.647.178.498.306.387-.2979.518.0339.347-.775.198-3.727.4149-.93.587-.8519.579-.5721.275-1.846.371-.461.445.368.502,1.535.563.038.669-.464.664.106.781.368.46.105.4161-.165.8469.328.297-.372-.0239-.834-.384-.555-.635-1.69-.733-2.414.365-.26.208-.783-.259-.891-.388-2.787.178-1.598.538-.219.351.08.3221,1.859.016,2.108.2719.977.566-.336.519.208.504-.442.541-.881-.38-1.042-.3109-.379.3959-.159.444-.425.757-.067,1.592.172.843-1.029.667.071.4911-.521-.2621-.563-1.096-.597-1.099-.5-1.03-2.189-.039-.589,1.206.72.766,1.312,1.958-.24.986.071.496-.6161.995.243.835,1.056,1.436-1.448.469-1.661.373-.7819-.0461-.6221L950.75,87.241l-1.261-.646-.557-.744-.5431-.829.415-.04.4.05.992.782,1.032.169.9391.438.7659.6259.4451-.331.223-.823-.074-.9829-.371.245-.487.0479.2151-2.646.5449-1.523h.52l.747.187.515-.903-.223-1.1079-.4941-1.26-.471-1.638-.446.2219-.0729,1.104-.248.548-.521-.441-.8791-.615-2.43-2.0789-1.1649-.675-.59-.123-.5789-.787-.247-.686-.2231-.7589-.445-.604-.198-.3771-.956-.3319-1.689-.909-1.389-.266-.781.106-1.809-.63-1.385-.12-.878-.389-1.136,1.063-1.212.049-.611-.181-.904-1.007-.987-1.646-1.287.245-.5449.8839.05,1.5591.6921,2.9329-.024.456-.247.152-.768-1.139-.816.076-.563-.765-1.088-4.297-.59-1.122-.4911-.837-1.24-.867-.235-1.101v-.858l-.5469-.838-.4131-.873-1.116-.429-2.073-1.181-.603-.165-.771-.717-.632-.2219-.44.1879-.826.823-1.221-1.0479-1.565.054-1.341-.828-1.3771-.418-1-1.0151-.495-.414-.341-.52-.8129-1.082-1.0571-1.6569-.4719-.52-.347-.2009-.347.2009.022,1.0961-.0721,1.1309-.1729.6811-.588.273-.438.416-.724.302-.752-.691-.7541-.295-.786-.031-1.974-.2459-.321.5449-.445.41-.421-.41-.05-1.089-.148-1.822-.372-.201-.74.3381-.926.2509-.776-.1209-.979-.0171-1.274.104-1.072-.0009-1.191.273-2.491-.701-.6031.07-.73-.119-.83-.721.226-.623.0521-.534-.1241-.597-.068-.57-1.5479-1.591-.846-.936-1.175-.245-1.203.258-.698.701-1.333.543-.604.785-.594-.263-.1-.524.595-1.108.297-1.215.718-1.431.297-1.021-.198-.762L880.81,41.4l-.646.5021-.58.021-.136-1.092-.371-.441h-.792l-.783.513-.788.369-.563.092-1.013-.462-.471-.535-.522-.4769-1.279-.091-.648.27-1.079-.568-2.8109-.262-.805-.548-1.0431-.449-2.4279-.237-.297.17-.367-.145-.602-.612-.482-.354-1.172-.42-1.255-.048-.42.477-.522.219-1.009-1.026-.518-.177-1.276-.604-.568-.367-1.0679,1.412-.566.162-1.042.888-.306-.023-.1611-.904-.148-.492-.622-.506-.321-.352-1.1179-.5-.831.092-.77.577-1.5549-.088-1.373.489-1.6811-.141-.787-.168-1.0479.119-.779.417-.506.16-.406.372-.658.867-.677,2.0089-.738,2.063-.714.407-.466-.129-.529.193-.554.086-1.299-.656-1.197.166-.4941-.441-1.38-1.644-.586-1.851-.677-.246-.973-.47-.594-.217-.736.202-.576.218-.313.6421-.537.8839-.768.378-.628.097-.638-.396-.489-.363-.637.052-.85.4861-1.249.4829-1.652.425-1.264.39-.42.302-1.178,1.113-.353.242-1.4291.324-1.6229.726-3.557.979-.594-.371,1.008-.8729,1.89-.891,1.182-.662-.24-.123-.286-.003-1.177.182-1.263.57-.992.533-.703.193-.548-.077-.542-.331-.525-.235-.523.021-.582.312-1.254-.14-.466.037-.584-.425-.59-.06-.574.438-.826.251-.925.428-1.406.263-.596.505-.69.354-.752.229-.951.129-.82.26-.32-.536.221-1.132.754-.286.872-.46,1.974-.58.472-.502.543-1.333-.912-1.488-.64-.479-.598-.112-.704-.063-.79-.7559-1.073-2.0831-.6879-.901-.582-.2969-.377-.259-.7541-.334-1.5479.329-1.172.357-1.9.418-1.533.799-.8969,1.637.099,1.483-.52.685-1.7219,1.509-1.0131.5349-1.551-.3339-1.499-.685-.612-.898-.466.2329-.58-.057-.331-.591-.285-.198-1.107-.576-2.2-.419-3.892-1.719-.936-.189-1.061-.676-.948-.352-.5269.011-.35.063-1.325-.5641-1.3821-.354-.791.463-.612.1481-1.964-.021-.262.15-.169.33.018.549-1.229,1.791-.836.471-1.065.342-1.087.526-1.275.703-1.435.159-.39-.831-.328-.129-.396-.255-.573-.219-1.509.984-.93-.202-.809-.558-.875.359-1.024.347-1.214.152-1.2639.068-.8221-.422-.46-.308-.686-.184-.71.297-.768.731-.63.295-.35.0059-.681-.33-1.021-.407-.795-.102-.966.3771-.39-.07-.298-.0721-.486-.322-.671-.356-.832.208-.648.244-1.472.217-1.331.931-.714.251-1.668.38-.974-.034-.772-.135-.806-.053-1.334.182-.937-.206-2.514,1.082-.388.325-.551.37-1.773.129-1.144.766-.791-.002-.876-.255-1.034-.169-.7379.089-.9111.937-.721.348-1.151,1.087-.531,1.187-.411.0561-1.546.0189-.937.58-.72-.013-2.328,1.046-2.313.862-3.018,1.292-.709.4229-.867.773-.456.881-.21,1.7751-.73,1.0059-.599,1.055-.555,1.384-.776.829-.979.25-1.184,1.06L690,60.13l-.695-.022-.619.707-.198,1.209-.52,1.002-.594.359-.775-.307-1.618.197-.967-.646-.798-.464-.747.671-.986.188-.795,1.313-.615.709-.219,1.184.045,1.304-.387.639-.574,1.065-.4359.492-1.0041.423-.375.805-.386,1.267-.4749,1.773-.2411,1.3481-.083,1.801-.2039.977-.3023.4287-.25.5819-.975.7681-.3239.179-.121.802-.782,1.129-.932.707-.54,1.106-.604,1.116-.688.318-.428.092-2.0689.897-.878,1.271-.381.942.124,1.593-.124,1.607-.625.797-1.197,1.284-.895-.622-.669-.1891-.5491-.075-.2009-.8109.698-1.21.409-.489.6209-2.917.284-1.681.187-1.583.424-2.631.733-2.4.505-1.398.46-1.667.7671-.916.385-.305.494-.611.405-.787.294-.479.886-2.829.023-1.01.149-1.296-.247-.811-.396-.073-.74.372-.556.355-1.735.0869-.791-.809-1.098-.439.417-.796.445-.736.959-1.1091.31-.4769.4241-.4651.6649.528.922.157.496-.078.455-.369.223-.788.074-.928-.148-.619-.495-.304-.223-.5641.074-.773.445-.281.861-.047.498-.3.225-.492-.0411-.614-.2349-1.02.322-.718-.277-.588-.035-.929.639-1.066.466-.484.152-.544-.21-.647-.333-.759-.2361-.896-.2849-.901.1489-1.317-.2709-.753-.401-.149-.699.607-.751.276-1.604.204-.644-.264-1.673-.326-.92-.313-1.9261-.0189-2.1909-.363-3.183-.709-1.803-.693-.652-.13-1.295.136-.617.257-.925.631-1.443-.53-2.427-.259-.833-.299-1.4879-.836-1.725.132-.609.404-1.121.193-1.441-1.86-1.178-.48-.8159-.431-.558-.447-.563-.195-.747.276-1.317.026-.369.1229-.5561.3071-.551.698-.592.377-.988-.4731,1.651-1.624.248-.8189-.0739-.565-.4531-.417-.4089-.673.4169-.16.604.395.881.3791.457-.06.558-.6451-.52-.9749-.396-.36-1.396-.354-1.088-1.14-.74-.897-.578-.533-.601-.334-.961-.261-3.581-.396-2.0121.597-1.619.162-1.386.351-.5529.36-2.1061,1.689-.979.287-.718.617-.247,1.117.173,1.062.603.475-.033.847.272,1.521-.1481.318-.73-.16-.805.021-1.4521-1.039-.6779-.641-1.17-.023-1.024.754.374.921.324.331.588-.125.831.196-.467.912-1.1859,1.229-.029.77.0789,1.247-.2719.984-.495.461-.148-.526v-.984L611,46.367l-.706-.29-.716.415-.6.087-.493-.466-.5529-.68.321-.765.481-.433-.144-.345-.554-.033-.759-.6-.91-.048-.296.258-.384.7151.0071.546.328.416-.105.619-.688.29-.747.021-.894.565-1.045-.039-.583.282-.813,1.004-.917.425-.5479.084-1.75.548-1.0751.1049-.589.268-.3969.21-1.153,1.729-1.639.616-1.314.628-.6271.462-.8859,1.1439-.935.118-.7521.511-.4879.488-.4991.773-.2849,1.62-.161,2.001-.612,1.4619-.774,1.438-.541,1.126-.4471.669.147.755-.074.611-1.083-.955-.997-1.896-1.002-.8-.638-.06-.52.2391-.729.508-.727-.688-.385-.592-.373-.115-.715.011-.8791.182-1.2639-.014-.591.172-.371-.356-.263-1.207-1.071-2.536-.431-.575-1.508.126-.688-.089-.117-.622.316-.318.5319-.733.407-.735-.0739-.683-.953-.1489-1.089-.095-.9651.143-.969.726-.3779.666-.2081,1.604.4781,1.424.464.983.2039,1.104.0381.861-.2181.885-.286,1.428-.529.747-.4619.208-.833.607-2.191,1.04-.887-.009-.6421.1791-2.3319.447-1.514.886-1.55,1.4849-1.474.837-1.933.769-.531.348-.847.835-.811.3671-.4589.117-.717.4489-1.473.154-.909-.402-1.299-.169-1.2081-.6779-.473-.613-.5689-.987v-1.416l-.4211-.74-.594-.296-.619-.073-.389,1.431-.724,1.255-.721.621-.479.12-1.498-.602-.47-.3741-.124-.448.4569-.687-.085-.726-.422-.484-.711-.976-.318-.196-.404-.152-1.032,1.9761-.425,1.565-.3229,1.387-2.646.635-.516-.064-.821.09-.681-.031-.4051-.125-.314-.697-.354-1.2491.296-1.536.18-1.661-.525-.673-.371-.0889-.701.565-.546.17-.228,1.047-.3351.862-.301.186-2.688-.752-1.2831-.4481-.349-1.609-.572-.485-.999.399-.612,1.084-.685.057-1.4-.3-1.605.04-1.8779.3629-.8141-.463-.659-.481-.6519-1.453-1.233.099-.087.427.36.217.396.154.182.422-.695.792-.618.512-.429.612-.676,1.457-.657,1.018-.372.255-1.397-.321-.659-.349-2.108-1.518-.932-.881-.764-1.115-1.324-.707-.91,1.722-.827.694-.607-.102-1.768-.881-.773,1.156-1.264.343-1.243.432-2.425.422-1.49.1631-4.508,1.6049-2.519.477-1.967.89-1,.6619-2.013,1.0591-.832.627-1.079,1.085-.951,1.42-.399.738-.607.6309-.608-.734-.225-.805-.156-1.679-.482-.731-.417.162-.387.899-.411.225-1.443.1859-.692-.671-.979-.318-.566.002-1.2.346-1.329.1241-.79-.313-.7261-.005-.552-.094-4.209.122-.47-.137-.026-.5281.13-.971.496-.885.547-.721.339-.957-.3-.95-.678-.276-.867.365-.848.521-.816.235-.543-.08-1-.411-.65.3579-.374.118-.287.357-.052.479.328.661.39.901.078.889-.221.878-.125,1.957-.567.79-.844.104-.79.247-.417-.019-.896-2.755-.743-1.636-.482-.49-.553-.192-.81-.587-.592-.869-.482.08-.251.401.0809.358.586.319.249.603-.553.612-.494.429-.318.395-.3919,1.292-.465.979-.405.06-.534-.698-.472-.365-.94-.953-.738-.373-.414.0721-.376.31-.4031.5051.188.9279.383,1.0511,1.267.942,1.021.593.431-.077.478-.17.135.578.008.718-.458,1.173-.631,2.29-.422,1.2139-.787.289-.891.5041-1.831,1.224-1.295,1.474-1.106.067-.943-.34-1.0069-.22-.0011.488.365.557.472,1.502-.462.98-.438.1989-1.925-.729-1.653.475-.581.535-.972,1.774-.3649.528-.438.366-.201,1.285-.033.875.368.372.815.277.454.486-.189.586-.499.144-.283.371.173.492,1.323.3029,1.373-.5739,1.819-.375.105.867-.239.5219-1.208,1.782-.563,1.214-.678.983-.396.33-2.125-.868-.835.039-.735-.081-.87.146-.384.47-1.367,3.368-.408,1.75-.4289,1.203-.83.841-.281.69-.371,1.39.371,1.108.281.5269.286.073.311.389-.788.349-.746.085-1.802.781-2.791-.538-.83,1.146-.578.456-1.248.552-1.443.126-1.452-.376-2.0539.644-3.009.562-5.0231,2.184-1.405,1.132-1.612,1.199-1.4559.812-1.1961.371-2.397,1.333-2.688,2.733-.927.757-.75,1.244-3.33,3.352-1.0881,1.592-.959-.298-.586.058L382.037,138l-.602.377-1.36,1.4651-.6019,1.247-.733,2.706-.7211,1.22-.784.22-1.183,2.74-1.885,5.89-.238,2.078.074,2.271.98,1.001,1.05,1.304,1.462.652,2.238,1.959,3.376,1.771,1.27-.1,3.169-1.151,1.2-.257.9541-.0571.924.581.387,2.12-.093,2.76.455,1.5461.28.213,13.164,2.561,1.651.19.383-.264.657.204.594.6959,1.912.703-.47,1.6951-1.25.7119-.619.858-14.282,1.802-.568.16-.746.685-1.762.933-1.656.474-.8331,2.3839-.9039-.092-1.744.272-1.264.902-.985.303-.376-.222-.385.371-2.866,1.08-2.742.813-.543,1.648-.7171,1.175-.5329,1.379-.753.526-.745.695-.878.271-1.113,1.602-2.25-1.967-2.135-1.278-2.78,2.672-1.904,2.414-1.33.132-.593.778-.864,1.53-.779,2.0529-.939,3.6111-1.455,3.176-1.729,5.083-1.372,5.192-1.108,1.284-.639-.285-.458,1.013-1.652,1.529-2.091,1.22-1.085.359-.958-1.225.192-2.434.7009-1.44.427-2.33-.2049-2.43-.39-1.866-.8659.6469-1.2721.482-.9549.0171-1.478-1.583-1.33-.6551-4.683,1.507-1.75.156-1.562.8021-1.4621.9379-1.92,1.498-1.078.384-1.516-.187-.613.512-.511.186-.691.459-1.726,2.407-1.947,3.15-1.42.291-.77,1.979-.682,1.376-2.907,4.593-.571,1.128-.675,1.558-1.382,3.754-3.441,8.113-.948-.3951-1.524-.04-1.646-.325-1.241-.78-.461-1.321.166-1.49.265-1.121.374-1.146.289-2.026-.05-2.459-.265-1.206-1.112,1.624-.584-.766-.594-3.505-.946-2.3209-.464-2.1451-.294-2.028.513-.516,1.287-.788,3.584-4.035.813-1.576-.447-.2329-.482-.037-2.926,1.75-2.087-.168-2.304.916-.86-.055-1.75,1.478-1.4679-.083-.7031-1.102-.713-.793-.414.293-.399-.318-.5589-1.992.355-2.815-.161-1.056-.307-.448-.507-.3531.257-.791.354-.232,3.396-.294,1.5969-.36-.149-1.471-1.7409.154-1.2721-.336-.625-.209-.3739-.895,1.6789-.639.914-.8549.619.374.682-.23,1.302.317.602-.1729,1.707.325,1.134-.11,1.057-.814-.529-1.1451-.3829-.38-2.771-.068-3.5711-.601-2.311-1.161-6.712-5.795-.5-.326-.396-1.025-.118-1.258-.739-.646-1.661.662-1.27-.699-.388-.078-.674-.779-.636-1.083-.43-2.125-.47-1.543-.359-.35-.925-.125-.598.4781-.419.614-2.227,1.422-1.065,1.5659-1.337,1.1371-.993-.42-1.556-1.371-1.609.389-.829.856-.755-.469-.452-1.01-.303-1.463-.421-1.757-.17-1.482-.432-2.509-.318-.746-.458-.721-.769-2.23-.415-1.0659-.981.594-1.132.3549-2.851.229-2.052-1.263-2.114-1.5059,2.717-.024,2.78.229,1.346-.248.894-.626.971-.8319.601-1.316.876-3.049-.207-2.5041-.316-1.192-.79-.935-8.298-.321-1.952-.549-.743.399-.204.4.027,1.601-.157,1.33-.477.0659-.525-.236-.761-1.555-.166-1.556-.788-2.027-.443-.938-2.605-2.701-1.071-1.4459-.812-.613-.94-2.335-.285-1.045-.186-1.072.159-.797.453-.6811.532.729.359-.084-.053-.62-.736-1.508-.503-1.3721-.181-1.1129-.076-1.118,1.03,1.775.925,1.809,1.33,2.299,1.906,2.0621,3.124,2.7849,1.471.987,1.476-.029,2.96-.99,2.364-.094.91-1.2311.26-1.41.056-1.769-.652-.463-.542-.704-4.635-2.709-5.42-3.633-.393-.528,1.341-.056.603-.588.805-.604,1.396.59,1.193.611,5.436,1.309,3.661,1.4,2.917,1.547,1.646.2731,2.161-.935,1.563-1.8771.655-1.0269,1.056-2.659.065-1.358-1.757-.712-3.094-.746-2.263-.049-1.014-.978-.531-.821-.874-.76-1.614-3.547-.967-1.977-.334-1.6209.272-.8741,2.654-.538.79.081.369.195h.483l.605-.26.492-.064,3.897,1.4,1.145-.26,2.104.165,2.592.779,2.536-.165.966-.26.956-.536.322-.237.506-1.604,1.714-2.048,5.013-2.841,3.221-1.122,1.136-.7151,1.807-1.57.778-.3159.747-.563,2.037-1.7961,1.935-1.4379.297-.59-.13-.5139-.48-.178-.571-.092-.825.016-.862-.404,1.185-.955.859-.381.899-.193.163-.427-.4591-.871-.657-.049-.993-.28.488-.563.539-.504.566-.295.446.331.205-.64-.12-.909-.029-.856.297-.07.52.1409.501.492.398,1.7.5451.607.658-.2781.5889-.685.2041-.921-.11-.68-.669-1.726-.261-.467-.027-.674.411.12.264.241.995.396.757-.0189,1.009-.3511.483-1.1019.376-.6841-.223-.685-.946.683-.592.226-1.434-.404.35-.637.414-.345.965.1371.52-.884-.3341-.677-.445-.203-1.456-.04.271-.364.14-.734.411-.283.397.001.563.614.323-.276.521-.595.315-1.596-.249-.995-.564-.728-.914-.707-.65.326-.283-1.227-.14-1.178-.357-.381-.263-.661.792.127.836.298.523.571.451.761.521-.076.587-.482.354-.58.44.28.79.342.297-.836.167-1.533-.149-.888h-.39l-.297.761-.366-.0961-.414-1.674V87.73l-.539-.2491-.603.497-.974-.931.018-1.238.652.021.89-.414.185-.59-.074-.854-.038-1.154-.042-.653-.32-.191-.333-.012-.437.375-.569.194-.512-.365-.38-.182-.747.166-1.018-.485.892-1.032.826-.368,1.71-.385.2421-.653-.13-.768-.242-.647-.371-.218-.98.989-.457-.023-.655-.132.138-.24.337-.132.768-1.213.412-.236.371-.456.25-.5151.408-.198.115-.653-.154-.677-.658-1.424-.171-1.156-.5629-.141-.53.048-.727.376-.223-.849.13-.619.52-.1691.316-.28.256-.5.319-.395-.037-.668-1.392.056-.65-.61-.408-.497.13-.716.319-.38.572.38.223-.659-.074-.655-.677-.758-.575-1.641-.122-1.964-.383-.859-.71-.841-.433-.341-.281-.602-.581-.885-.434-.778-.063-.71.378-1.096-.278-.3579-.854-.461-.074-.561.186-.305,1.01-.711.653-.221.379.12.13-.334-.346-.167-.449-.014-1.628.389-.359.213-.687.65.035.803.22.652-.983-.194-1.317-.563-.73-.426-.234-.267.285-.721.24-.305.163-.317-.262-.285-.678-.047-.3381-.208.244-.374,1.317-.9.187-.3079-.067-.334-.087-.201-.208.084-.728.546-.476.078-.445-.028-.262-.121.248-.618.229-.292-.164-.594-.203-.4039.03-.441.043-.208.438-.9521-.081-.364-.067-.164-.093-.438-.055-.612.057-.492.168-.372.261-.11.285.2261.474-.048.73-.204-.021-.277-.0889-.191-.474-.208.2139-.223.314-.196.149-.2329-.192-.1371-.0669-.578.238-.3759.163-.558.138-.627.2229-.047.149.372.429.011,1.006.528.57-.109.238-.2781-.04-.4979-.111-.3-.755-.758.176-.336.143-.126.235-.583.35-.681.284-.183-.093-.44-.183-.294.466-.251.387.015.536.14.219.619.513.7021.819,1.602.213.185.259.0059-.019-.6079-.314-.458.049-.315.055-.152.007-.378-.098-.505-.293-.374.204-.5071.2781-.138.249.013.71-.155.35.083.6759.606.094.745.241.186.167-.602.058-.653.42-.166.264-.563.39.138.402.327.043.547.297.323.241-.507.111-.507-.299-.558.151-.267.278-.0461.315.274.334-.503.167-.364-.148-.3189-.546.008-.28-.092-.211.133-.144.356-.276-.022-.17-.098-.191.038-.261.5431-.605.088-.141.161-.602.172-.466-.046-.46-.563-.348-.792-.033-.521.232-.448.202-.521.446-.745.661-.135-.111-.313-.302-.063-.422-.383-.257-.842.17-.394.168-.2719.215-.27.259.2891.54.0209.241-.354-.4451-1.013.093-.3079.28.004.281.079.178.119.302.041.763-.282.405-.492.7171-1.171.2919-.346.456-.439.149-.384.275-.024.784-.752.317.016.239.115.086.7.248.161.205-.345-.109-.59.184-.527.241-.086.255.376.394.26.501.051.445.56.297-.086-.056-.517-.251-.363-.027-.237.242-.086.056-.3-.347-.086-.152-.0869-.197-.2021.118-.255.467-.0529.326-.7021.536-1.036.754-.967,1.14-.674.336-.254.436-.441.339-.207.496-.145.369-.072.153.279-.153.303.093.417.408-.083.39.041.148-.375-.408-.416-.262-.832-.157-.688-.257-.173-.622-.0529-1.343.5759-.975.829-1.285.522-.557.109-.461.747-.508.275-.821.678-1.346.565-.807.092-1.647.956-.163.221.099.269-.548,1.064-.257.309-.624.419-.208.315-.085.456-.368.386-.35.033-.354.102-.722.665-.291.132-.266-.116-.186-.563-.279.087-.204.65.137.512-.384.159-.309-.104-.969.665.096.567.149.345-.074.396-.334-.088-.241-.3531-.612.078-.78-.3419-.427.396-.353.573-.093.664.056.934.402.339.309.088-.057.345-.124.166-.572-.016-.186.114-.134.318-.094.105-.633.052.0621.268.075.1939-.1271.4081-.11.0869-.483-.227-.074.4521.056.362.297.228.0929.409-.279.41-.303-.182-.778-.32-.298.08-.456.251.127.512.14.334-.405.16-.417-.0739-.427.042-.281.828-.16.2329-.004.381.273.421-.111,1.198-.136.365-.228.176-.298-.03-.64-.375-.35-.004-.18.12-.373.572-.065.36.174.958-.104.464-.088.281.051.597.068.373.052.929-.074.336-.148-.191-.164-.393-.413.174-.2211.362-.186-.192.0451-.55-.119-.264-.074-1.142-.223-.284-.353.047-.39.854-.397.144-.1481.159-.16,1.132-.099,1.207.059.497.057.232.162.09,1.018-.454.565.049.612.26.078.243-.26.243-.408.731-.297,1.029-.24.734-.121.706.484.919.517.706-.281.434-.414,1.183-.2131.933.176.743-.223.767h-.4639l-.257.702.569.883.467.425.13,1.039-.38.688-.544.552-.189.754-2.159-.516-.9.29-.333.228-.359.1561.198.754.471.944.186,1.338.001,1.719.779,1.8989.666,1.4321.551,2.229.263,1.349.264,1.8319-.0711,1.97.1951,2.131.743,1.71.313.836.372.767.348,1.751-.707,2.732-.638,2.086-1.011,2.109-.936.963-2.303,1.632-1.294.621-1.926.551-.994.463-1.949-.109-1.222.896-.687-.016-.833.2571-1.085.5819-.861.1371-.679-.0431L268.04,97.687l-.565-.0441-.415-.1149-.698.3129-.734-.5709-.528-.1291-.7-.063-.848.7231-.901.252-1.052.692-1.302-.16-.3721.312-.453.238-.242-.266.2861-.995.7529-1.517-.241-1.046-.8.349-.866-.0771-1.1271.2671-.837.317-.74.086-1.062-.484-.498-1.91-1.566-2.162-.804-.591-.964-.27-.815-.532-.408.316-.074,1.018.492,1.37.166.81.122,1.039-1.931-1.746-.427.1291-.241.645.074,1.559.204,1.572-.408,1.057-.835.576-1.62.616-1.773-1.252-.636-.251-1.468-.013-.649-.606-1.173-.721-1.002-.158-1.15-.541-.784-.875-.903-1.509-.615-.649-.503.159-1.744,1.415-.53.098-.693-.096-1.019-1.578-.582.025-.92.451-.754-.209-.602.092-.397-1.049.643-1.79.385-.724.001-.675-.934-.8049-.71-.183-.974.096-.287,1.255-.314.606-.508-.178-.829-.078-.61.931-.329-.1489-.401.3189.061,1.354-.441,1.208-1.375.74-.695-.1179-3.01-1.251-1.648-.134-2.463.488-.782.698-.7339.257-.9551-.62L209,93.147l-.581-.184-.821.2069-.986.511-.762.15-.679-.078-.791-.318-.786-.604-1.461-.776-.49.1761-.47-.4131-.544-.659-.551-.1049-4.496-.2151-1.257.397-.855-.247-.721-.33-1.435.137-.98.331-.45-.086-.526-.219-1.068-.103-.204-.3481.334-.38.255-.728-.255-.71-.342-.231-1.042-.184-.714.047-.299.481-.444.443.189,1.205.649,2.304.47.979.656.349,2.411-.095.68.18,1.079-.115,2.113.345,1.167.485,1.383.911.919.751.854.398-.746.296-.509-.066-.5549.108-.323.489-.351.26-2.629.378-.7511-.006-.406-.2249-.507-.396-.776-.284-.676-.112L189.336,97l-1.05-.141-1.091.291-.177,1.38.271,1.01.914.424.942.324,1.094.672.361.742.685,2.617.256,1.416.641.2021.397.38.985-.5491.822-.049.335.323.297,1.554-.708,1.714-.585.53.45.451.418.255.885-.175.552.292,1.245,1.408,1.35.679.476.537-.247.961-.299.442-.64.114-1.546-.205-1.548.682-1.068-.188-.682.497-.935.265-.742-.624-.91-1.592-.226-1.0349-2.984-.113-.981-.237-.853.066-1.337.56-.725-.3481-1.286.389-.797-.45-1.396.903-3.422,1.615-.879-.384-.939.2781-1.51-.144-1.2619-.763-1.594-.505-1.262-.2361-2.015.154-3.127-.091-.715.319-.292-.948,1.391-1.98,1.223-1.237.649-1.342.198-1.8449-.217-1.774-.637-.809-.664-.206-.7-.397-.45-.438-.805.131-.458-.198-.495.91.236,1.214.074,1.229-.261.711.141.864.433,1.0349-.313.441-.483.098-.847.332-2.586.639-1.408.561-.447.091-.503.321h-.501l.037-.7861.315-.711.228-2.116.338-.278.521-.627.742-1.098-.34-.626-.523.126-.315-.4131.111-1.44.39-.2039.239-.51-.054-.7131-2.35-1.668-.779-.224-.47.869-.562,2.938-.32,1.874-.33.339-3.397-.4229-1.783.273-2.071-.734-1.504-.224-.88.1179-.413.307-.616,1.0021-1.122,1.094-.715.35-5.24,1.014-6.583.246-1.187-.397-2.921-.225-2.893.297-1.786-.477-2.366.2281-3.023,1.078-.835.094-1.551.671-1.136-.008-1.857-.694-2.383-.162-.962-.482-.847.253-1.797.179-1.356.49-.902.029-.9-.267-.977-.573-1.054-.874-1.464-.039-1.875.797-.555.758-.657,2.156-.246,1.13-.282.243-1.235-.099-1.482-.8431-4.296.9241-1.522.578-1.691,2.1359-.498.462-.668.563-.813.25-.63.291.979,2.263-.378.057-.353-.055-1.042-.633-1.651-1.8129-.661-.436-1.943.589-1.549.227-1.814,1.8989-1.405,1.149-1.078.5381-2.476.112-.942,1.521-.167.924,1.467,1.961.612.6989.562.9941-.687.234-.558-.0541-1.997-1.03-.617-.235-2.927-2.2039-1.292-.3091-.389.156-.485.587-.417.826-.321.396-1.095.468-1.037.643.883.64.825.467,1.249.423,3.538-.658,1.583.823,1.712,1.821,1.167,1.1149.21.584-.028,1.082.159.858-.497.727-.358.2119-.0931.497.2891.319.3119.114.533.736.133.475-.333.279-.487.66.039.725.226.107.18.77.138.7329-.2149.4241-1.113-.018-.89-.185-1.507-2.7281-.785.332-.66.444-.349.059-.459-.198-1.308-1.253-1.056-1.34-.576.249-.172.978-.013,1.033.279.761.52.232.84.658.292.6421-.517,1.152-2.206,1.1939-.977.949-.321.786-.363.308-1.029-.351-.621-.523-1.827-2.0721-2.14-1.913-.784-.172-3.027.385-1.077-.341-.315-.68-.093-.6779-.299-.459-.554-.6-2.54-1.266-.805-.093-.722.174-1.574-.443-.818.095-.441.366-.84.989-1.324.369-.915-.138-1.057-1.919-.452.15-.591.83-.092,2.5089.046,1.847-.34,1.5251-.418,2.153.262,1.456.34.8449,1.229,1.664,1.631,1.7181,1.958-.1871,3.445.079.856.396.958-.053,1.128.579-.687,1.382-.502.547-3.377,1.574-.809.681-.734,1.0881.996,1.5629,2.539,3.1971,1.942,1.202,2.807,1.048,2.291.2609,1.285-.478.297.196.237,1.146-.107.733.527.5869.75.561.751,1.148.898,1.015,1.565,1.323,4.039,1.73,1.779,1.1681.676.702.262,1.283-.13.813-.469-.019-.385.369.009.671.254.508.063,1.1061-.367.318-.8931.2869-2.278-.0349-.7509.1909-1.0541.53-.603,1.004-.393,2.372.166.937.658,1.2.418.509,1.976,1.295.461.117.141.191.019,1.141.169.839.457.3969,1.239.324,1.458,1.327-.279,1.149-10.979,2.292-10.907,1.89-1.7039.527-.805,1.259-.61,1.632,1.516,1.078,4.447,2.515,1.186,1.066.71,1.095.773,1.489-.294,1.2719-.356.8871-.738,1.127-.7459,1.458,2.3429,4.789,2.4491,5.73-1.091,2.943L44,227.022l-3.727,4.2119-.868,2.7861-1.621,1.062-2.754,1.122-1.413.732-.442.5349.253,1.3661.655.262.92.852-1.125,2.691-.76.846-4.897,3.992-1.345-1.205-1.884-.128-4.498.73-1.058-2.6711-.948-1.547-.559-.4359-1.747,1.065-.912,1.261-1.087,1.057-.558-1.3561-.761-2.9669-1.975-1.78-1.675-.35-4.23.396-.927.218-.382-.315-.636.367-.522-.646-.523-.323-.634-.888L.168,236.691,0,236.556v7.83l.933.781,1.074,1.967.807,2.057.421.643.827,2.518.706,1.43.697.521L8,253.813l2.042-.046,1.082-.872,1.643,1.2769,2.436,3.6891.201,1.86-.316,1.022-1.063.491-.282.6821-.23,1.5869.44,1.008,1.393,2.317.591.467.179.422-.021.53-.376.8091-3.441.629-.167-.145-.156.3319.295.824.613.621,2.253.407.609.727.388.6519.206.594.328.459,14.776,7.511,3.697,1.022,1.025.89.368,1.554-1.852.065-.854.665,1.307,2.227.97,3.146.516,3.529-.986.204-.89-.2181-10.365-6.5219L18.43,285.51l-1.489-.01-9.675-2.558-1.631.448-1.562-3.2411-1.738-1.37L0,277.614V547.553H1010.335V277.614l-6.185-3.053ZM63.293,128.991l-.527-.282-.402.253-.215.802.376.633.88.524.331-.984-.247-.8461Zm241.82-57.062-.298.1749-.162.2831.113.344.327.291.386.151.28-.049.046-.104.055-.3561-.048-.318-.224-.364ZM932.715,117.47l-.344.344-.361.813.198.265.354.05.505-1.46-.144-.11ZM305.009,54.531l.355.129.105-.213-.138-.352-.305-.266-.375-.055-.19.225.339.38ZM948.095,143.19l.551-.018.662-.367,1.018-1.212.661-.466-.217-.908-2.315-.882-2.777.104-1.0579-.932.002-.182.062-.47-.335-1.066-.761-.313-.59.349-.262.795.157.47.388.597.054.5269-.473.862-.223.65-.454.396.057.297.83,2.003.331.9719.22,1.022.831-1.255.714-.711.317-.709,1.474-.06Zm-12.857-35.07-.013.237.074.736.228.32h.369l.233-.855.109-.221.31-1.3189-.579.2249Zm10.542,39.196-.2119.19-.164.532-.634,1.1439-.77.9091-.291.021-.541-.683-1.279-.796-.276.167-.001.4.107,1.123.2.844.457.44.9569-.308.871-.852,1.237.365.394-.453.352-1.022-.008-.405-.129-1.214Zm60.258,85.84-2.218-2.168-.85.338-.752.693-.563-.201-.726.741-.616-.023-3.27-2.761.18,1.22.2979,1.185,7.09,7.044.987,1.256,4.736,3.907v-7.83ZM951.462,96.314l.524.6339.377-.203.043-.366.285-.532-.207-.5479-.291-1.32-.12-.0369-.191.2509-.074.324.039.382-.505,1.197ZM388.365,173.683l-1.364-2.416-.212-.1631-.898,1.5381.495,1.854.6449.6079,2.104.813,1.185,1.1681,1.103-1.204.643-.165.223.063.298-.325-.72-1.378-2.215-1.425-.336-1.344-.229,1.23.0581.717L388.74,174ZM302.305,59.748l-.091-.523-.456-.6031-.392-.6779-.339-.308-.57-.235-.207.068-.146.203.201.853.786,1.647.124,1.138.244.75.246-.062.077-.246.175-.837-.01-.4359.292-.15Zm1.28,3.343-.167.301-.05.32.072.1421.196.229.421-.018.142-.1681-.124-.589ZM671.416,80.802l-.125.419.143.688.137.023.354-1.17-.065-.089-.278-.125Zm-3.003,1.646-.283.796-.365.646-.076.366.147-.0009.584-.2231.414-.435.065-.58-.312-.697ZM384.835,169.557l-.349.894-.231,1.029.192.383.484-.145.958-1.0381.125-.051.065-.557-.608-.589ZM130.404,99.073l.121.065.113.227.917,1.002-.24.286-.479,1.075.015.433.228.507.083.29-.354.087-.184.137.049.639.223.422,1.607.629,3.436-.685.168-.113-.006-.348-.089-.141-.049-.2.098-.893.083-.168,2.012-1.717-.112-.682-.185-.668-.5-1.005-.466-.0411-2.175-.19-1.317-.211-1.316-.302-1.333-.0189-.286-.0671-.28.092-.384.564-.12.646-.153.4031.437.0629Zm9.088,1.942-.304.534.05.16.186.23.176.024.588-.121.282-.349,1.094-.801.193-.312.315-.901-.091-.441-.139-.25-.721-.319-.842-.028-.428.346-.375.055.396,1.767-.091.172Zm41.378-8.964.482.7219.621.113.342-.4439-1.22-2.1681-.314.238-.133.244.023.335Zm82.197-27.088.106.091,1.286.44,1.178.247.497-.394.262-1.1.333-.216.062-.181-.077-.268-.237-.456-.731-.882-.497-.199-.419.104-.119-.044-.24.114-.139.548-.073.19-.958.338-.219.28-.15.556.024.444ZM146.694,102.69l1.38-.284.471-.404.159-.31-.056-.125-.209-.149.067-.1339.374-.3871.832-1.088-.134-.15-.501-.305-2.792,2.208-.062.406.099.395Zm-28.35-6.3181.278.18.003,1.274.056.109.251.099.325-.0839.294-.49.178-.194.357-.037.36.163.125.102.119.2.085.461-.017.662.639.794,1.002.646.573.822.375.2781.36.0739.93,1.153.608.2671,1.891.178.608.314.127.001.282-.3141-.006-.592.078-.5209.03-.4211-.143-.197-.228-.499-.553-.376-.063-.272.144-.379.164-.268-.243-.469-1.155-.946-.217-.044-.216.143-.839.8061-.324-.0381-.325-.254-.288-.052-.633.247-.342.021-.349-.203-.164-.22-.008-.315.088-.304.295-.156.311.08.944-.202.034-.24-.175-.484-.499-.549-.161-.259-.184-.821-.306-.468-.339-.171-.334-.308-.251-.411-.743-.279-.749-.071-.654.115-.415.168-.409-.133-.405.095-.355.766-.098.635.042.685Zm-2.073,9.2841.198.118.238.559.275.338.84.696.426-.189.375-.468.244-1.032-.237-.576-.72-.208-1.029-.764-.533-.204-.254.157.104,1.448ZM261.385,73.677l.26.139.267-.004,3.846-1.0391.845-.3339.841-.424,1.433-1.11.404-.6031-.438-.7489-.485-.48-.22-.146-.226-.067-.209.2-.005.665-.31-.345-.494-.327-.155.091-.035,1.186-.164.3649-.175.19-.564-1.367-.303-.3419-.155-.002-.151.1569-.084.3531-.063.4669-.188.393-.233.177-2.314.54-.602.237-.361.261-.344.406-.031.424.252.859Zm-72.01,9.519.333.05.333-.1161.513-.0189,3.493.9409.455-.051.256.133.252.234.959.623.668.249.801.606.75.0121.676.154.654.54.686.079.94.009.653-.087.646-.242.324-.009.625.495.317.042.311-.189.312-.098,1.799.278.062-.216.044-.276-.179-.661.708-.138.702-.27.125-1.4891-.22-.6779v-.974l-.213-.106-.62.5949-1.617.785-.66.439-.228.037-.256-.115-.25-.23.741-.827,1.169-.788.486-1.356-.725-.534-1.364.133-.616.84-.185.919-.115.416-.13.373-.29.524-.323-.008-.184-.358-.158-.494.305-.862-.313-1.065-.6491.328-.3009,1.796-.687.06-.022-.953.238-.96-.275-.833-.576-.347-.621-.159-.98.814-.33.7051-.483.359-.867-.246-.482.798-.138.104-.138.016-.427-.967-.279-.926-.3761-.0361-.511.295-4.848,1.083-.304.216-.145.208-.071.445.137.495Zm31.949-28.588.028.066.013.0339.009.0151h.008l.023-.011.039-.014.04-.011.04-.004.055.001.031-.0041.009-.004.02-.019.022-.091.01-.093-.013-.054-.006-.065-.004-.055-.006-.045v-.035l-.029-.077-.037-.077-.037-.026-.025-.009-.053-.007-.029-.006-.047-.001-.025.014-.01.02.002.0381-.008.065-.015.0629v.0721l-.001.056-.03.04-.011.088.014.067ZM105.173,105.766l.204.27.313.297.682.117,1.176.539.314-.222.279-.724.029-.617-.068-.44-.709-.006-.914-.482-.097-.3909-.473-.0621-.491.263-.631.8.318.397ZM219.237,89.575l.071.3959-.263.5591-.169,2.193.468.1129.515-.241.455-.442.296-.508.33-.875.069-.73-.071-.597-.334-.289.323-.87.047-.479-.123-.662-.394-.5089-1-.084-.867.436-.162.28.333,1.225Zm-7.251.499.477-.005.112-.115-.123-.244-.574-.5931-.12.032-.186.352.098.227Zm-2.979-2.418,1.687-.494-.022-.219-.224-.911-.069-.148-.078-.072-.524.458-1.298.77-.161.446.15.216ZM18.808,231.38l-2.799-.501.17.319.088.508.195.521.09.571.001.94.14.44.571.779.298.883.549.865,2.082,1.0529.873-.541.465-1.774.542-.36-1.978-2.3909-.199-.5361Zm11.296-20.939.64,1.463,1.098,2.211.218,1.093.249-.144.43-1.511-1.196-1.6811-.241-.9349L29.71,208.55l-.21-.008.175.772Zm23.29-71.264.218-.058.115-.259-.401-.179-1.466-1.465-.551.081-.824.597.469.292Zm-.506-7.339,1.186-.1531.415-.507-.052-.198-.208-.337-1.853.279-.101.276.121.3041ZM25.351,204.859l-.051-.431-.369-.856-.901-1.1111-1.742-1.2589-2.52-1.558-2.088-.591-1.876.79-.171.526-.059.7249.033.246.138.368.348.398,1.439.712,7.527,2.201Zm34.088-73.233-.178-.334L58.48,131l-.745.116-1.138-.154-.381.485.647.745.714.338.475-.056.407-.476.838-.088ZM15.518,167.32l.725.813,1.109.964,4.074,3.09,2.971,1.713,1.417.516,3.505-.589.122-.427.036-.715-.154-.638-.189-.314-.199-.582-.186-.72-.31-.71-.147-.573-.744-1.62-.784-1.187-.803-.799-1.445-2.095-1.457-1.843-1.009-1.553L20.597,158.49l-.644-.48-.65-.265-.705-.238-.706-.086-.37.042-.25.831-.884,1.098-.433,1.063-.873.976-.208.816-.127,1.289-.103,1.614.157,1.136Zm37.873-33.789-.574.276-.304.413.148.2831.769.893,1.699.2979.11.186.248.18,1.221.104.176-.203-.162-.345-.359-.179-.071-.371-.18-.5949-.665-.929-.132-.4681-.227-.176-1.467.293Zm13.849-14.63.541.267.31-.057-.04-.323-.177-.468-.286-.604-.964-.833-.378-.103-.506.321-.211.452.303.433ZM56.834,138.426l-.354-.4471-.402-.067-.403.335.627.8921,1.431.208-.812-.648Zm5.343-14.29.545.596.72.749.574-.173-.727-1.739-1.155-.413-.161.124-.008.196.037.168Zm-3.169,10.285.097-.2571-.194-.28-.548-.236-1.499-.438-.181.192.162.961.646.325,1.176-.153Zm45.137-29.145.082-.333-.534-.244-.784.365-.072.42.873.3851Z" fill="url(#radial-gradient)"/></g></g></svg>