<svg xmlns="http://www.w3.org/2000/svg" xmlns:xlink="http://www.w3.org/1999/xlink" width="55.8712" height="122.5577" viewBox="0 0 55.8712 122.5577"><defs><radialGradient id="radial-gradient" cx="27.9356" cy="61.2788" r="47.6209" gradientUnits="userSpaceOnUse"><stop offset="0" stop-color="#ffd496"/><stop offset="1" stop-color="#f29d25"/></radialGradient></defs><title>AR</title><g id="Layer_2" data-name="Layer 2"><g id="Layer_1-2" data-name="Layer 1"><path id="AR" d="M30.6654,1.3036l.071.0831-.001.0869.237.178.474.271.444.523.414.777.389.576.363.372.334.264.305.154.163.125.021.096.285.1989.549.303.347.303.146.302.542.313.939.322.683.154.426-.014.611.257.796.53.486.368.1749.205.521.333,1.3.689.573.173.272.158.161.2.159.062.1571-.078.3259.072.496.222.388.269.499.593.159.237.067.212-.024.187-.152.2-.28.212-.083.093-.006.089-.071.179-.232.382-.059.178-.013.132-.147.144-.391.266-.081.129-.02.139-.049.083-.053.035-.075.139-.061.231-.006.296.048.362-.01.117-.086.062-.049.084-.017.169-.074.124-.129.079-.048.09.034.103-.095.101-.224.1-.137.146-.051.1909-.125.1711-.199.151-.065.201.104.372,1.226-.1291.999.136,1.182.358.784.125.387-.108.287.015.187.139.251.028.315-.0819.261.0629.206.2081.187-.052.168-.31.193-.227.2179-.1421.271-.043.3251.057.259.114.194.171.211-.005.229-.181.11-.217-.01-.253.091-.181.1911-.109.1289-.147.067-.1859.227-.113.387-.041.203-.091.018-.141.114-.13.211-.1191.145-.148.078-.177.127-.112.1781-.0449.198-.373.217-.698.129-.942.045-1.3331.219.001.102.099.1619.051.17-.112.1449-.052.2291-.004.1239-.126.145-.02.099.068.096.083.204.019.162.216.178.066.076.248.115.653.214.386.212.44.008.196-.119.198-.02.2849-.074.6971-.025.257.074.175.0271.245-.115.299-.224.448-.217.1209-.056.005-.2941.259-.207.097-.12-.065-.137.112-.154.291-.188.13-.34.072-.102.034-.198-.01-.17.072-.142.1551-.151.058-.161-.039-.146.057-.131.153-.076.166-.021.179-.128.122-.236.065-.082.09.015.125-.106.097-.399.102-.289.18-.178.259-.188.163-.296.1-.402.264-.058.163.153.15.055.134-.043.117-.125.016-.208-.085-.148-.018-.088.05-.042.094.005.138-.074.094-.154.05-.097.114-.041.179-.1929.2261-.344.2719-.271.367-.199.462-.232.304-.266.146-.183.208-.1.27-.284.418-.466.568-.4231.39-.38.212-.213.24-.047.267-.246.305-.445.342-.126.1539-.104.126-.015.22-.173.289-.333.359-.116.311.151.393.022.477-.066.191-.146.065-.033.1229.079.182.004.2391-.07.297-.154.34-.239.383-.058.256.124.129.061.137-.002.146-.051.211-.099.277-.15.206-.201.134-.061.17.081.2051.011.2139-.0581.2231.034.2169.1261.211-.0091.2411-.2189.495-.0531.306.137,1.313-.083.184-.139.212-.165.016-.188-.037-.136.132-.085.583-.259,1.264.046.301.208.489.076.312.058.235.046.446-.121.201-.112.035-.141.1129.167.545.133.251.38.516,1.4591.718.605.424.685.579.374.596.0329.492-.547.737-.061.62.112.437.198.406.53.528.39.194.527-.021.09.148.0539.13.083,1.075-.01.4051-.155.372-1.012,1.714-.864,1.052-.313.583-.1109.625-.2771.298-1.4979.948-2.324.849-1.878.442-.427.149-3.0191.487-.584.068-.76-.0431-.617.065-.688-.133-.614-.153-.344-.38-.408-.047-.111.19.199.485-.0969.585.121.334.241.067.232.173.2049.232-.353.024.137.185.151.1079-.017.3871-.137.934-.3439.2-.0921.054-.104.202-.219.8981-.07.5839.094.3771.413.794-.156.517-.261.281-1.131.579-.452.232-.712.159-1.147.0269-.424-.036-.983-.528-.73-.316-.668-.2509-.65-.15.093-.076.043-.1359-.183-.076-.133-.0171-.428.2731-.18.2789-.052.245-.009.5881.076.495.308,1.223.032.667-.146.844.204.4979.248.225.557.223.216.152.238-.024.073.0591-.035.109-.14.215.009.227.422.067.438-.046.459-.101.108-.1581.003-.33-.538-.058.068-.1229.408-.134.534-.219.273-.041.186.1469.125.1351.154.3549.096.469.004.565-.064.5331-.076.189-.135.227-.96.29-.269-.0759-.25-.4031-.079-.4169-.214-.2811-.459-.223-.457.068-.453.387-.445.125-.158.3531,1.116.572.527.16.172-.006.171.075-.159.213-.159.132-.794.292-.35.204-.409.402-.573.879-.176.192-.0881.224-.0589.609.186,1.015-.1961.4261.1211.474-.068.317-.2.457-.8039.723-.143.53.2789.313-.019.274-.093.249-.334-.003-1.214-.167-.4419.272-.41.333-.112.159-.145.1-.835.178-.165.1179-.888,1.2751-.38.794-.4591.7819-.12.332-.026.461.064.416.064.307.16.3951.336.4509,1.711,1.847.3551.162,1.83.199.406.259.237.412.087.364-.105.924-.109.29-.202.2639-.433.34-.518.181.148.129.21-.019.458-.11.198.11.15.367-.287.148-.087.1791-.207.271-1.056,1.0839-.569.3251-.523.437-.702.443-.275.255-.372.536-.569.585-.614,1.261-.024.245.089.164-.341,2.231-.119.264-.247.282-.65.466-.313.0579-.414-.27-.233-.282-.229-.4819-.276-.496-.014.177.096.302-.065.316-.706.1439-.187.1481.637-.066.434.096.184.115.165.241.146.29-.122.161-.348.133-.45.245-.532.443-.2951.514-.127.37-.144.748-.038.496-.225.382-.347.345.02.079.235-.177.188-.0561.162.46.218.9229.101.6421-.016.19-.065.262-.448.063-.4-.008-.294.112.158.116.27-.041.373.276.414-.118.1889.185.136.169.634,1.354.554.841.28.5-.139.2281-.05-.303-.361-.079-.352-.081-.587-.217-.7909-.328h-.792l-.629-.277-.695-.306-1.4671-.027L7.39,108.27l-1.3241-.019-.8469-.013-.567-.008-.147-.115.05-.38-.21-.28-.305-.3381-.371-.2379-.184-.319-.206-.358.116-.317.178-.769.003-.338-.161-.236-.049-.335.049-.157.145-.119.087-.547-.068-.535-.111-.477-.147-.21-.189-.1-.14-.019-.31.178-.514-.045-.175.068-.251.191-.356.282-.198-.098-.061-.302-.132-.261-.084-.23-.063-.379-.105-.485-.21-.573-.322-.462-.018-.415-.06-.52.164-.505-.096-.418L0,97.5717l.062-.514.198-.284.062-.36.916-.057-.038-.483.152-.39.171-.353.146-.16.326-.14.384-.203.217-.232.104-.208.063-.268.017-.285-.063-.605.072-.1859.238-.245.402-.217.173-.575-.099-.4991-.223-.395-.284-.178-.025-.405.128-.384.167-.411.199-.471-.012-.329.177-.192.504-.428.173-.418.177-.113.207-.05.012-.2361-.151-.234-.024-.293.0181-.324.0459-.433.235-.162.348-.35.093-.222.012-.297-.101-.612-.086-.438-.044-.161-.158-.296-.117-.187.187-.2341.35-.2449.148-.355-.136-.3011-.198-.1589-.062-.46.074-.583.148-.176.52-.088.049-.299.396-.422-.012-.403-.252-.247-.247-.3981-.182-.351-.606-.192-.644-.104-.087-.331.025-.191.299.0771.489-.0671.368-.015.256-.034.2951-.0479.272.1389.272-.0869.111-.521.173-.277.025-.26L6.632,76.45l-.3169-.064-1.387-.164-.042-.207.012-.347.052-.354V75.14l.126-.153.144-.32.101-.213-.101-.276-.221-.407.161-.188.013-.224-.05-.219-.23-.243-.203-.335v-.356l.238-.095.158-.109.037-.22-.087-.271-.329-.083-.438-.166-.134-.139-.124-.29.092-.813-.046-.489-.039-.27.107-.208.146-.187-.069-.435-.13-.228.046-.175.123-.176.107-.217.092-.051.138.124.233-.073.281-.175.03-.206-.056-.294-.209-.738-.188-.455.039-.164.074-.172-.059-.624.019-.376.014-1.105.021-.3759-.192-.384.026-.359.135-.262.127-.354.095-.313.1-.141.1691-.07.039-.171-.077-.13-.218-.203-.05-.2479.046-.19.107-.11.166.0009.125-.2709.036-.334.026-.1551-.096-.195-.069-.459-.065-.26.0769-.109.107-.04.189.0621.133-.032.023-.139.0151-.149.051-.101.1189-.336.1271-.416.03-.293-.0451-.7931.067-.182.136-.166.189-.156.249-.129.309-.186.38-.068.154-.206.107-.274.03-.225-.146-.156-.192-.1859-.091-.467-.049-.431-.028-.542-.191-.4651-.2-.5219-.0539-.464.067-.253.079-.402-.0841-.183-.1-.327.104-.256.1261-.397L6.88,49.1519l-.1-.479-.092-.2681.092-.286.146-.267.115-.143-.019-.23.05-.189.218-.126.204-.234.146-.028h.176l.115-.066.046-.18.031-.199.281-.247.165-.227.299-.0469.146-.246.003-.315-.034-.318.1-.367-.111-.56.011-.296L8.753,43.59l.023-.263-.062-.168-.174-.063-.064-.209.084-.103.164-.079.206-.16.154-.768.073-.2281.071-.273-.009-.142.099-.205.124-.311.195-.3.111-.206.108-.277.031-.167.138-.083.159-.021.187-.052.077-.1019-.014-.1481-.012-.327-.056-.519-.036-.667.033-.4379.123-.4391.115-.2379-.0311-.183-.031-.201-.215-.11-.204.095-.143-.026-.183-.233-.054-.247.031-.337.143-.21.056-.264-.084-.082-.18-.175-.17-.6019.021-.5121-.169-.136-.079-.3989-.174-.143-.069-.298-.054-.307.023-.135.182-.0381.103-.242-.077-.135-.138-.117-.176.009-.158-.138-.211-.577-.167-.318.0531-.463.0329-.3611.072-.309.026-.243.13-.116.123.053.115-.027.106-.197.116-.124-.007-.0981-.069-.106-.033-.187.081-.223.14-.509.212-.56.091-.209-.023-.177.046-.08.144.089.409-.098.138-.248.054-.221.123-.124-.054-.1761-.169-.0529-.102-.083.041-.2.06-.4589-.01-.337-.154-.719-.124-.71.087-.237.268-.324.203-.146.037-.185.201-.834.023-.455.132-.251.087-.472.364-.406.107-.2689.146-.0261.077-.0869.193-.299.251-.307.216-.1551.054-.242.103-.33.214-.547.12-.381.161-.137.188-.498.081-.292.215-.12.168-.034.161.1371.169-.026.154-.1711.37-.117.167-.063.077-.171v-.3l-.154-.222-.313-.4249-.27-.475-.029-.149-.002-.163.046-.206.129-.233.324-.384-.035-.2739-.236-1.0071-.087-.2769-.164-.513.023-.203.144-.566.125-.2281.184-.0419.1-.076.031-.101-.123-.126-.054-.16-.054-.228-.17-.08-.098-.1891V8.9489l.153-.3611.1691-.101.069-.16.181-.146.165-.1129.138-.209.569-.256.452-.199.8819-.38.6051-.261.058-.18.046-.1229.28-.917.363-1.183.227-.74-.522-.544.092-.145.299-.372.062-.298.119-.128.536-.303.092-.201.047-.223.109-.16.204-.033.371-.142.398-.135.12-.183.113-.318.097-.352L20.643,0l.128.009.213.088.112.133.557.422.25.241.238.032.47-.047.095.011,1.199.014.183.021.419.103.237.083.1651.043.265.13.23.4311.129.343.09.302.201.531.137.202.049-.098.117-.581.161-.338.217-.3791.437-.8839.153-.132.17-.0641.119-.005.121.066h.165l.117-.07,1.146-.011,1.189-.01.025.005.054.152.198.332.222.176Zm2.176,55.3591.028.228-.146-.027-.347-.218-.117-.204-.027-.086.354.093.167.0851ZM13.82,121.6887l.016-1.096.022-1.464.004-1.297.004-1.256.004-1.292.004-1.283.005-1.363.005-1.375.165.195.652.95.17.39.107.456-.261-.29-.275.1661-.136.2719-.116.2961v.2089l.09.183.268.159.651.054.048.06.38,1.151.1911.258.2219.205.514.592.4931.64.5849.609.63.469.574.3561.547.437.584.612.635.446.682.315.689.2639,1.061-.103.329.028.205.194-.206.537-.263.433-.351.179-.371.066-.335-.009-.334-.08-.314.045-.3.1829-.313.091-.322.0121-.314.154-.315.111-.327-.092-.85-.432-.552-.103-1.87-.1711-.6-.099-.598-.1489-.313-.0071-.447.097-.358-.012Zm11.518-.667.31.112.612-.0851.323-.0009.142.04.063.06.422-.094.187.011-.048.208-.389.207-.16-.088-.827.019-.366.214-.156-.002-.361.305-.264-.193-.073-.177.191-.2521.18-.005.1229-.102Z" fill="url(#radial-gradient)"/></g></g></svg>