<svg xmlns="http://www.w3.org/2000/svg" xmlns:xlink="http://www.w3.org/1999/xlink" width="21.394" height="10.818" viewBox="0 0 21.394 10.818"><defs><radialGradient id="radial-gradient" cx="10.697" cy="5.409" r="8.4759" gradientUnits="userSpaceOnUse"><stop offset="0" stop-color="#ffd496"/><stop offset="1" stop-color="#f29d25"/></radialGradient></defs><title>AT</title><g id="Layer_2" data-name="Layer 2"><g id="Layer_1-2" data-name="Layer 1"><path id="AT" d="M20.849,1.709l-.011.043-.016.159-.109.201-.118.262.008.23.301.794.268.481.05.183.172.141-.163.177-.032.262-.106.117-.028.149.045.136-.001.17.059.233-.262.051-.311-.008-.111.014-.104.064-.107-.032-.282-.219-.158-.049-.112.013-.084.096-.145.122-.135.086.03.075.583.197.103.302-.112.246-.038.121-.137.094-.167.083-.202.021-.024.133.079.389-.064.084-.064.121.06.319.125.023.028.072-.022.13-.022.137-.044.145-.022.065-.083.04-.258-.021-.223.124-.448.444-.156.076-.17.178.01.389-.023.036-.041.08L17.52,9.55l-.018.003-.359.05-.245.178-.297.103-.624-.055-.607.069-.144.052-.157.03-.148.104-.085.146-.151.184-.215.145-.233.112-.056.093-.076.054-.131-.07-.105.004-.129-.048-.429-.052-.47-.086-.225-.082-.254-.066-.274-.053-.245-.012-.124-.025-.589-.143-.389-.01-.513-.06L9.209,9.899l-.297-.088-.283-.027-.336-.075-.255-.123-.163-.234L7.7,9.042l-.319-.407-.066-.203.098-.178.1-.135-.011-.057-.078-.03-.561.174-.544.22-.214.006-.207-.048L5.622,8.38l-.264.059-.53.03-.31.162-.198.315L4.213,9.2l-.09.082-.185.031-.276-.024-.194-.073L3.27,8.999l-.307-.031-.282-.005-.075-.04.005-.142L2.5,8.515l-.184-.083-.476.501-.13.045-.383-.139L.992,8.625.956,8.468.901,8.339.62,8.217.269,8.134H.157l.044-.076.041-.129L.216,7.827.134,7.72.089,7.607l-.014-.11L.05,7.407.035,7.322.009,7.256l.229-.5.047-.311-.2-.183L0,6.208l.07-.041.285.034.181-.103.095-.103.253.097.372.194.175.132.072.101.041.085-.022.146.084.057.175.021.117.045-.041.192-.008.157L2.01,7.2l.203-.12.158-.217.098-.211.074-.514.026-.043.122.04.493-.022.233.096.369.016-.007.08.065.126.164.181.08.118.171.021.265-.065.154-.068.059.048.241-.047.214-.146.053-.111.216-.079.292-.181.401-.139,1.315-.15L7.52,5.7l-.019-.259.035-.038.165.064.266.061.205.091.131.12.123.005.19-.084.257-.054.24.125.07.134-.042.069.004.109.075.091.195.148.25.127.13-.01.048-.123.046-.295.017-.316-.057-.181L9.714,5.44l-.161-.015-.086-.038.031-.099.128-.258-.001-.345-.291-.394L9.081,3.91l.001-.13.152-.226.233-.18.519-.3.163-.062.21-.05.302-.124.145-.127.098-.138.142-.719.033-.031.042-.042.529.249.047-.042.09-.04.172-.191.038-.144-.004-.275.016-.259.033-.083.079.031.228.134.181.152.169.381.395.101.499.01.178-.17.162-.039.183.052.386.059.043-.307.222-.321.101-.112.283.011.069-.24.07-.665L15.349,0l.206.014.205.121.061.099.107-.008.149-.068L16.24.115l.259.071.551.302.285.111.18-.021.169.004.651.466.455.065.415.002.134-.14.176-.119L19.7.872l.161.061.314.202.145.052.193.033.141.045.125.35Z" fill="url(#radial-gradient)"/></g></g></svg>