<svg xmlns="http://www.w3.org/2000/svg" xmlns:xlink="http://www.w3.org/1999/xlink" width="129.2408" height="155.33" viewBox="0 0 129.2408 155.33"><defs><radialGradient id="radial-gradient" cx="64.6204" cy="77.665" r="71.4411" gradientUnits="userSpaceOnUse"><stop offset="0" stop-color="#ffd496"/><stop offset="1" stop-color="#f29d25"/></radialGradient></defs><title>AU</title><g id="Layer_2" data-name="Layer 2"><g id="Layer_1-2" data-name="Layer 1"><path id="AU" d="M49.1039,3.557l-.102-.256.045-.064.052-.034.066.008.26.274.1129.075.1661.199.375.024.45-.214.21.087.1-.016.33-.203.215-.058.144-.15.146.162L52,3.579l.103.197.138.093.046.062-.1989.207-.0251.223-.213-.0151-.255.366-.957.6141-.859-.524-.373-.354-.25-.49ZM67.5709,16.24l.0319.145.152.141.12-.134-.063-.116-.019-.218-.1539-.197-.066.167-.063.039-.059.133Zm6.327,2.884.123.002.2-.066.104-.14.109.036.217-.256.146-.126.388-.042-.262-.325-.047-.023-.362.126-.466.083-.18.175-.186.287-.042.256.033.081ZM82.1158.29l.068-.195L82.0629,0l-.144.199.124.168ZM66.4869,3.766l.401-.523.109-.518-.137.035-.013.228-.047.153-.063.055-.109.097-.25.416-.107.103.014.128Zm-11.52-.611.224.439.056-.044.101-.38-.091-.178-.01-.309-.041-.082-.115.169-.151.025.091.224ZM65.8708,4.348l.256-.21.0251-.123-.0851.06-.511.254-.244.2861.444-.2121Zm1.3121,11.606.0449-.021.0771-.09-.037-.25-.088.12ZM82.0129,1.67l-.015.079.0319.18.152.085.234-.163-.216-.32ZM66.2179,15.826l.032.128.047.015.168-.012.061-.244-.074-.03-.178.0271Zm1.074-3.999-.276-.113-.104-.123-.013-.122.12-.365.075-.11.079-.031.176-.2-.042-.116-.057-.066-.071-.037-.114.263-.131.008-.121-.119-.053-.2229.0171-.128-.13-.016-.204.13-.138.208-.307.205-.037.42.046.331-.1.142-.159.104.078.049.272.016.531.132.318-.021.368.057.104-.135.055-.178-.047-.0151Zm40.28,28.299.065-.041.097-.128-.0609-.158-.128-.224.0319-.198-.0789-.05-.088.009-.0961-.0771-.2429-.0919-.0751.2119.4241.641Zm5.091,6.157.071-.085.018-.212.162-.525.586-1.388.025-.263-.172-.192-.0449-.5441-.07-.0289-.095.033-.119.078-.104.154.12.055.156.276-.0411.2559-.1069.2-.4241.377.063.3369-.026.1611-.146.291-.063.318.0851.55Zm1.0351,4.845.061-.047-.045-.36.1129-.513-.0969-.025-.147.061-.042.28.032.303Zm-.0561.55-.0139.502.086.13.073.0171.242-.867-.048-.0441-.242-.054Zm-8.0939-15.959.09-.047-.076-.237-.094-.053-.01.172-.063.121.072.051Zm-1.651-.39-.001-.132-.044-.303-.104.076-.0171.23.0671.22Zm-10.7-11.602.211.207.125.258.177.1.079-.1061.042-.143-.121-.2169-.0579-.279-.082-.016-.051.045-.1241.041-.247-.01ZM82.43.574l.167-.176-.112-.147L82.26.277l-.066.141.059.103Zm18.6809,28.641.058-.045.033-.269-.103.073-.07.0981-.055.124.074.032Zm.1451.451.091.0021.067-.0331.004-.042-.114-.1669-.066-.2021-.118.3871Zm-26.741-9.579-.143.121.037.12.105-.05.3129-.059-.03-.153-.188-.15ZM91.4308,87.883l-.169-.145-.3679.017-.026.079-.016.177.156.108ZM99.32,93.764l-.077-.069-.258-.103-.4991-.659-.1879-.115-.264.384-.2021.141.1271.146.18-.018.083.24-.0431.157.376.575.063.1489.075.1031.09.078.294-.104.25-.224.039.004.027-.106-.203-.165.109-.125Zm-.17,1.939-.052-.037-.0709-.007-.2131.067.027.0831.171.179ZM90.4258,88.5l.399-.028.2361.133-.0171-.067-.098-.169-.074-.066-.196-.048Zm-.966,7.172.018-.244-.021-.02-.09.13-.115.055.105.383ZM65.2549,10.503l-.071.047-.034.079.002.104.255.055.066-.032.106-.096-.05-.243-.118-.12Zm63.812,143.65-.171.957.026.22.094-.191.188-.652.0369-.495ZM99.4009,94.938l-.36.187-.391-.003-.136.087.027.086.231.174.313.022.296-.084.094.23.144-.039.197-.199-.15-.24Zm.041,6.706-.036-.141-.074-.127v-.135l.039-.288-.078-.42.025-.635-.0269-.341.008-.336.0629-.43-.017-.434-.041-.217-.018-.22.021-.624-.218-.341-.5121-.273-.181-.005-.269.344-.155-.003-.55-.1-.119.114-.221.328-.129.139-.188-.06-.1891-.107-.145.012-.141.088-.317.04-.325-.007-.197.094-.177.15-.058.189.034.2181-.175-.2021-.175-.132-.205.142-.214.097-.721.078-.579-.168-.813-.347-.129-.102-.117-.13-.134-.085-.308-.129-.12-.148-.136-.042-.156.021-.225-.118-.187-.208-.165-.018-.184.094-.325-.014-.63-.24-.28-.182-.025.408-.179.732.046.363.1.415.187.5609.005.1811.034.107.386.841.393.685.513.7249.059.33-.067.338.167-.022.103-.166.024.165.058.1389.438.48.03.127-.166.397-.094-.328-.174-.257-.488-.407.107.85.087.3369.616,1.4551.084.094.14.064.119.116.201.297.34.644.198.186.286-.0591.4211.131.1439-.036.089.055.052.15-.33-.003-.321.083-.0349.125.088.141.084.3951.403-.133.636.026.38-.042.4229.359.3791.067.111-.026.227-.425.141-.511.0869-.195.1171-.166-.2521-.219-.008-.111.0331-.128.494.382.202-.154.042-.343v-.212l.059-.151.124-.07.05-.188.014-.145-.128-.328-.012-.189.31.393.124.533.237-.141.034-.084-.037-.369.106-.123.336.1.2991.214.0209.099-.02.1-.0739.088-.243-.09-.1111.1561.144.39.2441.374.1469-.096.3-.051.1-.095-.064-.752-.12-.55-.008-.601.034-.3271.138-.252.101-.266-.013-.343.05-.3239.123-.336.172-.251.08-.058-.042-.07.073-.217.13-.159.079.195-.104.076-.061.085.204.143.0609.127.021.14-.021.174.037.1339.115.0251.032-.175-.033-.212Zm14.691-47.646-.339-.608-.075-.4769-.119-.4081-.527-1.146-.2281-.661.1271-.664-.219-2.1209.227-1.0561-.11-.129-.273-.163-.121-.167-.181-.396-.02-.793-.35-.488-.378-.223-.256-.4-.172-.333-.024-.185-.104-.313-.29-.215-.1989-.102-.427-.313-.209-.3159-.429-.899-.199-.239-.396-.258-.324-.0151-.209-.064-.742-.572-.231-.125-.186-.268-.278-.288-.161-.212-.247-.225-.169-.855v-.83l-.054-.989-.2571-.477-.1389-.154-.152.051-.012.308.042.21-.107.01-.3821-.272-.478-.29-.258-.324-.188-.304-.156.012-.11.048-.11.374.179.6451-.088.088-.151-.149-.2751-.337-.143.11-.189.043-.165-.338-.1389-.213-.201-.705-.18-.776-.0171-.561-.351-.308-.137-.529-.109-.1469-.103-.375-.4051-.49-.416-.346-.3449-.3271-.297-.463.13-.335.211.071.224-.032-.1791-.341-.174-.229-.445-.429-.2069-.108-.448-.063-.498-.391-.305-.169-.2151-.027-.249-.0609-.176-.221-.311-.073-.438-.437-.215-.44-.108-.162-.1469-.122-.216.073-.178.033-.392-.062-.1291-.1791-.253-.2269-.487-.06-.385-.143-.294-.141-.298-.18-.2739-.3-.243-.401.042-.514.0609-.333-.31-.129-.5349-.6971-.026-.2849.144-.582.146-1.002-.2131-.744-.4149-.907.028-.46-.209-.006-.232-.09-.327-.447-.248-.294-.167-.271-.181-.367.029-.294.043-.198.018-.524-.231-.509-.073-.521-.219-.651.061-.432-.048-.356-.068-.308.071-.196.029-.249-.302-.249-.324-.19-.418-.336-.751-.524-.173-.396-.318-.354-.425.137-.313.065-.292.267-.4039.197-.3921-.178-.1859-.15-.138-.53-.1791-.578-.1519-.29-.1141-.35.107-.853-.16-.401-.05-.599-.152-.684-.169-.342.012-.275-.314-.403-.1-.289-.178-.104L84.762,6.4l-.032-.221.0171-.161.135-.267.073-.346-.315-.086-.219-.015-.153-.109-.172-.169-.062-.538.0059-.57-.0449-.356-.094-.265-.066-.28-.159-.298-.478-.387.0349-.156.1111-.202-.1691-.116h-.2479l-.14.27-.226.232-.443.177-.083.928-.275,1.02-.25.753.046.228-.02.223-.135-.1-.119-.125-.182.298-.329.773-.03.401.193.108.135.106.161.035.073.099.041.194.104.167-.026.1809-.125-.071-.263.001-.134.1571-.339.314.089.9039-.159.4761-.153.3689-.173.7.023.371.1531.264.1649.386-.1.532-.101.381.226,1.104.063.588-.1241.401-.364,1.186-.164.868.053.479-.158.44-.18.704-.203.532-.711,1.074-.141.52-.239.648-.511.378-.386.2361-.846.234-.488-.005-.252-.143-.145-.1241-.575-.2069-.699-.468-.538-.152-.266-.47-.026-.195-.096-.254-.282-.3341-.532-.113-.546-.241-.337.034-.731-.207-.487-.295-.445-.409-.587-.708-.498-.191-.637-.293-.366-.244-.222-.118-.246-.183-.224.041-.387.005-.243-.172-.031-.135.037-.106.014-.193-.085-.029h-.086l-.071.052-.099.038-.342-.148-.479-.247-.09-.217-.151-.265-.662-.385-.384-.318-.848-.461-.217-.223-.071-.195-.063-.281.19-.292.185-.207.5771-.859.1729-.15.217-.233.199-.6271.099-.358-.169-.542-.006-.91.67-.353.187-.0459.173-.078.198.11.133.171.138-.031.374-.634-.06-.264L66.26,7.915l.0541-.139,1.1519-1.241-.1409-.304-.1711-.07-.328.021-.309-.265-.194-.501-.2719-.018-.4861.514-.057.118.118.067.103.312-.19.366-.19.003-.312-.036-.142-.261-.064-.398-.198-.112-.226.075-.1871.14-.132.04-.11-.091-.0059-.166.2849-.276.239-.177.019-.066-.174-.054.026-.128.222-.227-.104-.0119-.271.243-.289.14-.384.298-.551.195-.378.264-.527-.08-.491-.26-.107-.137-.242-.201-.539.218-.339-.023-.187-.077-.319-.052-.2739-.193-.66-.308-.701-.059-.34.014-.253-.159-.244-.091-.479-.064-.199-.239-.251-.481-.18-.129-.291-.046-.309.221-.1811.104-.353-.395-.627-.4079-.2-.056-.105.099-.076.1879-.119.0181-.139-.085-.245-.241-.16-.044-.42.2569.029.0881.343.131.36.359.171.074.404-.094.554.068.559.448-.082.223-.0419.31.015.338-.013.229.23.252-.103.019-.26-.057-.205.07-.193.119-.086.339-.109-.16-.334-.152-.198.117-.332.154-.302-.062-.192-.078-.454.1319-.809-.0039-.27-.19-.079-.3259-.063-.08-.0739.146-.1271.168-.489.034-.073.069.029.163-.019.2049-.1879.0151-.232.0539.025.2511.043.196-.086.098-.255-.179-.114-.193-.179-.06-.14.069-.036.172.021.444-.1271.05-.331-.017-.1519.084-.229.558-.4211.213-.064.291-.028.248.35.449-.169.23-.178.188-.178.08-.378.073-.278.205-.117.216-.022.206-.077.264-.121.313-.024.169-.2529.168-.45.5029-.2269.5151.296.28.348.2009.253-.006.002.051-.264.207.164.212.253.198.154.029.113.084-.239.047-.354.017-.068.216.043.249.063.216-.044.1531-.132-.1051-.058-.1619-.304-.33-.2181-.101-.3189-.078-.096.1.013.5029-.063.231-.113-.131-.028-.368-.301-.298-1.186-.298-.168-.019-.276.039-.1891.118-.0189.116-.126.094-.205.107-.188.164-.122.137-.006.171.152.321.0889.093-.012.153-.148-.159-.13-.051-.123.25-.118.05.031-.698.123-.473.1-.279.11-.218-.053-.115-.822-.653-.348-.535-.255-.3-.397-.289-.207-.182-.461-.278-.544-.193-.262-.261-.289-.093-.358.127-.03.2431.045.236-.285.3859-.307.206-.245-.236-.223-.172-.225.124-.068.213-.113.0791-.085-.145-.123-.32-.183-.1271-.1829.056.055.254.1049.14-.029.202-.132.0929-.025.1911-.079.254.012.355-.2089.075-.156.281-.113-.06-.029-.183-.057-.187-.2281-.0711-.0839.1741-.0511.0589-.081.012.055-.142V12.37l.066-.278-.216-.1-.086.062.003.24-.052.35-.214.055-.19.157-.281.003-.143.076-.051.185-.247.191.005.229.166.232.011.202.395.205-.023.206-.056.096-.149-.038-.319-.178-.325-.038-.098-.082-.039.059-.0021.137-.1259.1-.1811.01-.211.147.15.23-.027.091.074.11.322.02.137-.029.014.196-.041.196-.131.07-.125-.18-.621-.345-.163-.033-.034.108.029.141-.131.1709-.231.224-.157-.061-.186.0531-.12.3829-.042.383.206.268.138.353.287-.4339.117-.05.001.188-.112.195-.066.24-.0219.2709-.188.007-.211-.036-.0511.086-.0789.202.046.279.14.105.325-.01.277.02.247.101.041.085-.223-.048-.456.026-.217-.038-.4311.0259-.32-.159-.1581-.159-.239-.041-.2329.064-.13.223-.1569.054-.365-.552-.229-.037-.113.129.11.346-.058.213-.125.159-.158-.01-.098.067.078.146.25.371.205.162.182.225.093.194.22-.009.051.157-.126.228.004.362-.09.019-.127-.08-.252-.223-.13-.043-.067.064-.021.1531.0609.4-.129.571.026.167-.023.142-.106-.103-.13-.221-.269-.343-.329-.747-.348-.506-.189-.431-.291-.811-.151-.012-.193.349-.213.459-.1451.226-.344.225-.2119.228-.2541.08-.279.26-.2009.223-.282.52-.048.335.012.353.123.501.13.728.191.078.154.123-.043.22-.2341.1389-.718.6891-.4829.2459-.138.173-.177.365-.256.461-.1161.291-.2689.564-.438.63-.443.4681-.511.375-.335.179-1.248.524-.666.2-1.203.146-.51.237-.638-.077-.714-.0511-.9911.792-.822.193-.728.145-.313.13-.716.457-.417.209-.778.234-.319-.024-.431-.215-.403.05-.446-.031-.364.02-.283.178-1.669.9459-.33.258-.343.375-.492.347-.393.4-.826.4169-.85.316-.42.263-.299.357-.521.96-.11.243-.208.253-.276.092-.1791.082.063-.482-.1989-.428.14-.817-.052-.244-.284.159-.1811.174-.4589,1.184-.3141.923.238.53.077.308-.0009.331-.084.476.006.31-.0281.413L1.8126,40l-.178.417-.192.802-.023.372.014.557.241.488.184.302.285.874.342.581.563,1.171.621.95.04.3641-.07.49.034.507-.111.149-.24.1749-.275-.2249-.14-.195-.1761-.7181-.072-.041-.118.3141-.13.137-.1179-.093-.09-.1191-.0219-.124.04-.148.0431-.538-.258-.307-.229-.33-.247-.081-.152.149-.005.205.331.5739.213.6221.329.3889.1939.1.217.237-.047.525-.157.196-.131.1-.427-.116-.099-.378-.3339-.743-.108-.288-.092-.078-.037.142.007.256-.062.11-.065-.011-.132-.134-.119-.072-.072.025.13.185.286.548,1.056,1.344.895,1.5659.1971.62.099,1.3641.0889.33.5281.679.517.787.152.392-.003.336.105.319.642.866.286.93.035.34-.082.584.075,1.033.072.562.233,1.114.278.8041.329.5.45,1.112.684,1.284.1111.635-.035,1.693-.049.552-.15.0949-.101.233.146,1.114.034.636-.221.6-.25.533-.439.364-.497.012-.231-.2119-.295-.217-.052.969-.006.832.09.317.01.374.334.291.188-.113.232-.016.807.412.453.34.73.914.646.241.842.416.978.132.782.024,1.229.219.263-.078.526-.068.402-.142.362-.091,1.08-.849,1.053-.8741.521-.0689.4669-.01.57-.298.518-.903.264-.201.351-.225.997-.132.587.093.314-.146.797-.163,1.6581-.15.91.1209.608-.02.322.06.252.395,1.759-.34.5-.024.313.057.394.295.442-.279.397.037.402-.269.611-.806.278-.503.445-1.059.33-.38.363-.189.426-.061.657-.191,1.425-.891.553-.192.292-.168.981-.691.615-.133,1.804.179.855-.046.6619-.108,1.0051-.372,1.0939-.28,1.3431-.588,1.122-.608.679-.14,1.069-.107,1.5739-.158,1.833.0819.464-.125.2281-.111.3209-.119.396.083.3041.09.92.485,1.386,1.021.3061.043.9119-.2329.305.023,1.276.75.529.016.423-.019.32.081.34.204L59,67.5078l.853.453.043.3661-.063.2379-.192.009-.163.051.205.7671.358.62.86.084.3129.2169.201.245.157.389.117.609.431.508.402.434.094.179.189.615.0721.18.1569.609.2291.696-.063.071-.136-.015-.242-.177-.213-.197-.1141.031-.13.135-.0189.167.19-.044.111.024.263.213.245.248.1939.145.4681.618.183-.138.2239-.123.3561.336.142.067.081-.129-.135-.6031-.135-.146-.032-.214.167-.153.081-.183.3969-.4509.8691-1.347.267-.154.308-.295.416-.225.43-.267.274-.104.269-.055.301-.247.328-.668.247-.7911.264-.348.404-.371.3109-.515-.025-.403.004-.411.224.317.141.322.2231,1.0771-.191.237-.2021.119.039.378.1351.493.05.395-.424.417-.366.524-.439,1.018-.028.308-.069.4279.026.377.068.365-.108.566-.177.506-.232.013-.158-.019-.347.045-.32-.03L67.29,77.02l.233.052.178-.063h.3209l.359-.198.5251-.162.3.057.3519-.018.5121-1.416.127-.921.261-.413.081-.285.135-.27.272.4639.2189.451.482.732.151.365.06.888-.313,1.03-.1879.2949-.227.2571-.19.4329.575.11.373-.008.583-.315.115-.042.293-.005.112-.1649.287-.157.214-.1841.2769-.145.2521.096.057.083.063.0931-.0931.2039-.008.4311-.1649-.047-.147-.256-.184.066-.128.193-.275-.061.046.126.147.247.5809.476.621.631.231.2979.506.951.36,1.011-.029.299-.177.54-.127.549.011.288.117.365.255.3741.946,1.021.5.9.665.467,1.077.172.5689.338.591.682.188.058.287.028.368-.415.561.044.738.412.439-.098.313.051.438.233.641.461.68.232.404.349.3141.052.5629.2269.4141-.1939.3519-.244.813-.845.6371-.407.335-.158.269-.07.341-.264-.212-.186-.201.031-.344-.1049.196-.1221.205-.091.99-.628.263.186.182.208.197.285-.148.403-.132.19-.305.305-.368.012-.175-.025.363.342.314.23.65-.4181.1619-.3289.123-.191.206-.042.308.064.119.241.067.2941-.223.08-.108.218-.0759.207.388.266.1989.169.24-.0041.277.041.21.391.196.451.232-.125.145-.118.248.113.27.355.219.403.022.17.168.078.159-.12.076-.17-.006-.313-.043-.494-.111-.075-.253.268-.144-.194-.194-.206.003-.1989.211-.099.179.043h.224l1.182-.173,1.5121-1.585.662-.581.6879-.431.712-.277.371-.089,1.912-.149.995.048.512-.109.237-.146.402-.399.282-.244.346-.068.0839-.298.001-.3189.066-.3331-.101-.625.027-.8209.078-.428.209-.601.0919-.617.094-.8741.083-.518.104-.473.271-.521.23-.337.543-1.268.188-.125h.157l.068-.077.021-.07-.046-.051-.069-.147.046-.119.165-.118.052.045.084-.025.013-.065-.078-.347.114-.486.139-.849.157-.381.093-.303.363-.455.3969-.448-.1129-.048-.186-.034.12-.107.095-.032.1209.071.1-.197.022-.309.097-.456-.086-.397.184-.124.209-.075.088-.416.058-.167.13-.1551.218-.331.171-.3449.405-.658.396-.269.59-.208.0659-.1191-.15-.073.006-.072h.222l.09-.23.234-.17.391-.3921.13-.36.081-.288.039-.651.636-.854.443-1.153.107-.739.11-.399.0739-.584-.067-.608.019-.5089.442-1.292.101-.533.136-.342.209-1.273.004-.66.32-.768.399-.625.034-.578-.1339-.444ZM48.3359,5.036l.5219-.151.52.182.291-.054-.01-.123-.0641-.103-.106-.0969-.231-.067-.074-.249-.133-.234-.0239-.256-.105-.236h-.124l-.123.067-.276.333.0969.182.029.333-.164.11-.1879-.046-.081.304.094.108ZM.6279,46.822l-.001-.216-.1-.209-.319-.913-.1.035L0,45.638l.157.66.539.967.074-.128L.673,46.891ZM6.96,31.348l.1631-.233.031-.213L7.09,30.758l-.2249.233-.1291.193.026.118ZM32.6,15.359l.1.025.105-.082.022-.131-.114-.132-.0381-.117-.0889-.008-.0431.072-.06.139.115.122Zm1.893-2.431-.0151-.078.013-.224-.1069-.054-.1191.104-.073.288.122.144Zm62.1749,92.398-.0709.131-.023.118-.0641.063.117.083.031.188.0641.0319h.176l-.104-.47Zm-.1129.767-.08-.005-.14.198-.04.157-.06.03-.039.11-.061.086-.164-.067.001.07.137.266.218-.065.218.068.132-.4-.038-.195Zm2.331-2.538-.1971-.087-.1409.18.023.087-.0041.196.053.017.157-.034-.011-.1129.193-.11ZM70.22,78.678l-.2609.124-.672-.081.005-.057.104-.226-.1421-.125-.153-.052-.551-.043-.68.245-1.271.293-.168.206-.107.281.137.156.465.338.4421.0461.317-.079.342.0529.174-.1959.484.133.1859.187.3981-.165.09-.307.137-.139.462-.104.495.137.153-.024.16-.1669-.216-.3351Zm17.378,14.355-.083-.535-.254-.21-.146.013-.027.27-.168.152-.049.138.009.313-.074.291.138.29-.033.293.064.206.082-.015.3-.138.2169-.205.081-.25-.098-.2911ZM29.9929,6.779l-.0021-.029-.0629-.005.002.029Z" fill="url(#radial-gradient)"/></g></g></svg>