<svg xmlns="http://www.w3.org/2000/svg" xmlns:xlink="http://www.w3.org/1999/xlink" width="3.066" height="2.222" viewBox="0 0 3.066 2.222"><defs><radialGradient id="radial-gradient" cx="1.533" cy="1.111" r="1.3387" gradientUnits="userSpaceOnUse"><stop offset="0" stop-color="#ffd496"/><stop offset="1" stop-color="#f29d25"/></radialGradient></defs><title>AX</title><g id="Layer_2" data-name="Layer 2"><g id="Layer_1-2" data-name="Layer 1"><path id="AX" d="M1.321.31l.086.001L1.446.263l.15.034.226.219.046.119.155.061.054.123-.18.382-.1111.007-.083-.048-.1469.042-.086.072-.029.159.005.332-.657.066-.151-.097L.4312.979.4732.783.6122.7.7312.682l.018.408.175-.041L.9792.78.9912.591.9442.495.8252.421.7562.294.8552.089,1.0382,0l.158.274Zm-.919.927.0151.126L.31,1.331l-.083.043L.171,1.529.049,1.473,0,1.25.091.916.308.903Zm2.664.823-.0219.133-.229.029-.096-.118-.214.015-.037-.059.089-.118.17-.074.2219.03Z" fill="url(#radial-gradient)"/></g></g></svg>