<svg xmlns="http://www.w3.org/2000/svg" xmlns:xlink="http://www.w3.org/1999/xlink" width="15.713" height="12.7772" viewBox="0 0 15.713 12.7772"><defs><radialGradient id="radial-gradient" cx="7.8565" cy="6.3886" r="7.1603" gradientUnits="userSpaceOnUse"><stop offset="0" stop-color="#ffd496"/><stop offset="1" stop-color="#f29d25"/></radialGradient></defs><title>AZ</title><g id="Layer_2" data-name="Layer 2"><g id="Layer_1-2" data-name="Layer 1"><path id="AZ" d="M10.679.1761l.258.2171.447.588.6371.954.156.27.103.312.089.377.146.333.646.837.279.309.455.398.162.089.2119.025.391.001.36.156.178.109.184.158.165.183.166.486-.625-.16-.63.025-.355.104-.346.143-.331.201-.2069.391-.1741.902-.255.841.009.388.111.373-.013.176-.116.075-.146.158-.195.766-.097.153-.125.095-.034-.09.008-.201-.275-.177-.145.199-.101.421-.201.441-.01.084.05,1.359-.08-.006-.575.138-.12-.044-.492-.626-.102-.069L9.929,12.01l-.125-.103-.1011-.168-.0579-.125-.509-.34-.075-.125-.011-.11.075-.099.086-.083.249-.085.29-.073.093-.053.047-.091-.003-.146-.047-.144-.417-.261-.046-.113-.013-.138.023-.145.065-.113.34-.154.182-.16-.113-.178-.367-.407-.436-.448-.291-.004-.335.132-.536.382L7.6,8.8212l-.387.27-.421.3-.345.318-.215.263-.382.1141-.195.22-.641.6579-.18-.008-.011-.3269.009-.2591-.041-.1489-.2081-.205L4.58,9.9282l.056-.055.159.033L5,9.8942l.098-.081-.219-.27-.195-.181L4.519,9.24l-.0369-.073v-.052l.0349-.062.282-.149.028-.137-.019-.153-.448-.226-.335.083-.301-.254-.193-.1961L3.29,7.81l-.215-.116-.207-.2651-.359-.273-.23-.078.003-.042.042-.05.096-.0419.64.0109.078-.049.04-.118.087-.174.1019-.256-.008-.216-.643-.349-.466-.322-.323-.424-.219-.389.008-.131.063-.124.5-.359.034-.093-.011-.063-.179-.184-.224-.19-.07-.14-.141-.071-.268-.005-.47-.234L.85,3.041.828,2.9951l.023-.047.335-.095-.005-.078-.102-.103L.89,2.597.716,2.41l-.06-.168.605-.492.179-.099.396.091.823.327-.056.181.083.102.189.138.363.14.307.072L3.7,2.64l.236-.052.307.162.2831.205.141.083.0759.025.2151-.068.258-.264.102-.319.028-.154-.15-.212-.31-.23-.3469-.202L4.316,1.435l-.143-.353-.1439-.039L3.993.997,3.9691.876,3.975.708l.049-.13L4.165.522l.1421-.02.128-.124.161-.243L4.6641,0l.302.077.041.218.054.046.125-.026.208-.091.166.07.214.259.295.273.16.184.063.126.151.123.221.144.176.226.157.524.159.121.5689.199.2.041.5591.07.197-.05.288-.451.259-.465.242-.097.437-.225.262-.213.11-.23.247-.434ZM2.202,4.7431l.028-.122-.0789-.055-.083-.003-.0721.061v.1521l.1.027ZM.718,3.2242l-.061.0419L.564,3.2242.536,3.13l.007-.099.092-.0231.075.0281.021.089Zm3.0611,7.8389-.5411-.108-.973-.233-.268-.12-.253-.323-.151-.156-.223-.2-.184-.076-.139-.14L.968,9.5l-.117-.186-.2-.219L.196,8.35l-.059-.078-.095-.124L0,8.0791l.277-.057.461-.167.126.081.135.169.068.145.012.268.055.043.2249-.09.1011.108.1729.129.3.128.432-.201.2151-.052.177.004.096.063.034.208-.035.257-.05.141.091.102.354.247.147.137-.071.237.264.579.089.225Z" fill="url(#radial-gradient)"/></g></g></svg>