<svg xmlns="http://www.w3.org/2000/svg" xmlns:xlink="http://www.w3.org/1999/xlink" width="10.797" height="10.551" viewBox="0 0 10.797 10.551"><defs><radialGradient id="radial-gradient" cx="5.3985" cy="5.2755" r="5.3374" gradientUnits="userSpaceOnUse"><stop offset="0" stop-color="#ffd496"/><stop offset="1" stop-color="#f29d25"/></radialGradient></defs><title>BA</title><g id="Layer_2" data-name="Layer 2"><g id="Layer_1-2" data-name="Layer 1"><path id="BA" d="M3.318,0l.58.416.239.062L4.272.421l.183.026.408.122L4.956.62,5.079.611,5.38.449l.103.02.344.318L6,.791,6.208.654,6.342.535l.396.089L6.964.57,7.152.565l.204.054.186.074.181.064L8.212.79l.234.202.094.195.002.119.023.127.134.125.295.071.185-.015.098-.009.251-.112.296-.058.212.067.101.065.023.089-.063.307-.119.33-.193.343-.202.323-.052.17-.015.272-.025.213.028.116.066.109.223.086.302.214.256.278.329.315.102.117v.126l-.096.093-.281.036-.292-.028-.112-.032-.105.038-.065.072.035.085.299.382.349.547.019.235-.042.184-.081.128-.144-.022-.111-.1-.167.007-.13.028-.169.198L9.62,6.817l-.145.03-.091.039-.145-.058L9.086,6.79l-.066.061-.029.116.094.209.177.327-.028.25-.135.027-.124-.208-.109-.034-.125.008-.286.241-.211.203-.048.141-.076.154-.023.112.005.371-.379.059-.079.055-.046.112.031.475.031.255.217.392.008.124-.031.082-.155.155-.073.056-.049.018-.252-.102-.12-.049L6.7,10.054l-.223-.193-.353-.252-.217-.144-.11-.218-.174-.05-.204.07-.231-.158.164-.081.04-.078-.021-.102L5.299,8.71l-.624-.598-.307-.41-.049-.147-.005-.392-.072-.094L3.783,6.89l-.512-.511-.53-.503-.072-.14-.272-.381-.333-.347-.265-.222-.217-.252L1.341,4.18l-.125-.535-.111-.476L1.03,2.984.877,2.918.403,2.351,0,2.021l.004-.357L.07,1.067.145.388.242.293.426.242l.21.019L.819.346l.362.465.207.181.175.07L1.764.866,2.012.455,2.229.238l.73.079Z" fill="url(#radial-gradient)"/></g></g></svg>