<svg xmlns="http://www.w3.org/2000/svg" xmlns:xlink="http://www.w3.org/1999/xlink" width="12.9321" height="17.621" viewBox="0 0 12.9321 17.621"><defs><radialGradient id="radial-gradient" cx="6.4661" cy="8.8105" r="7.7277" gradientUnits="userSpaceOnUse"><stop offset="0" stop-color="#ffd496"/><stop offset="1" stop-color="#f29d25"/></radialGradient></defs><title>BD</title><g id="Layer_2" data-name="Layer 2"><g id="Layer_1-2" data-name="Layer 1"><path id="BD" d="M12.7731,14.06l.0219.1141.0041.996.025.4249.09.35.018.133-.089.108-.088.021-.083-.169-.188-.129-.278-.138-.118-.092-.143.037-.201.209-.08.194.035.272.063.268.14.1531.011.169.05.219.072.2.034.217-.046.004-.167-.278-.15-.301-.389-.57L11.19,15.45l-.008-.5061-.2671-.596-.177-.826-.0709-.215.093-.268.016-.1-.05.022-.136.138-.177-.33-.116-.296-.458-.613-.133-.271L9.7,11.3239l-.198.266-.269.187-.274.2811-.182.0849-.577.052-.334-.376-.479-.921-.063-.208.063-.543-.114-.515.002-.271-.034-.182-.086.04-.033.125.019.191-.035.16-.414-.031-.39-.073.343.271.369.063.19.242.023.189-.012.213-.188.149-.173.094.031.204.21.248-.2541.07-.0689.162-.006.231.128.204.051.151-.031.139.124.149.18.313.058.222-.075.313-.1031.122-.1649.118-.388.394-.19.448-.161.209-.2021.039-.078-.092-.167-.12-.004-.219.051-.173.341-.419-.1859.056-.21.12-.32.227-.102-.281-.067-.26-.001-.319.2571-.477-.2911.238-.08.297.036.35-.038.248-.113.323-.155.194-.25.125-.11.191-.168.14-.005-.28-.054-.37-.1811-.879-.039.189.094.545-.0059.354-.1371.28-.275.3-.211.042-.124-.046-.188-.186-.206-.266-.034-.428-.085-.235.013-.281-.017-.266-.2211-.713-.143-.366.018-.118-.01-.05-.0659-.472-.092-.289-.046-.308.218-.443-.088-.072-.251-.059-.233-.077-.057-.1149.104-.4371L1.894,9.48l-.174-.173-.055-.069-.0579-.09-.08-.22.1551-.463.2169-.538.039-.2049.0361-.356.02-.137-.028-.135-.229-.156L1.334,6.875l-.2849-.131-.166-.198L.741,6.4669l-.175.059-.223-.077L.156,6.252,0,6.0129l.02-.112L.061,5.752l.294-.62.1091-.0191.255.119H.814l.167-.245.234-.699.33.002.2911.0221.1959.036.1951-.022.205-.056.111-.0881.061-.112-.021-.0969-.251-.132-.097-.099-.07-.281-.073-.105-.493-.0151-.256-.129-.141-.116-.25-.3829-.31-.284L.3461,2.362.2321,2.27.17,2.124l.035-.211.089-.192.062-.214.236-.283L.8691.977l.124-.17.175-.179L1.1891.53l-.03-.112L1.017.311.918.277.902.208.97.023,1.105,0l.281.168.2861.271.169.242.007.191.11.031.111.007.186.084.192-.025.124.047.083-.017.031-.11L2.5921.7271l-.068-.115.078-.116.089-.023L2.79.502l.135.104.099.2131.019.331.219.299.289.212.226.098.272.07.2329-.067.1161-.208-.053-.187.037-.167.093-.092.146.006.108.132.317.714-.065.316.071.866-.08.57.013.123.037.095.054.039.0931-.0011.386.107.325.119.367.108.53.084.325-.027.162-.003.329.025.864-.045.715-.012.291.082.233.029.796-.057.804-.027.435.181.474.295.2671.219.0479.125-.029.107-.0889.059-.164.002-.375-.143-.0641.042.0071.292-.0121.046-.08.262-.226.589-.044.263-.048.067-.059.0369-.177.01-.139.043-.058.096-.09.198-.063.2-.086.062-.2069-.108-.1291.017-.162.046-.162.114-.111.142-.126.048-.3759-.028-.071.02-.048.101-.038.127-.293.3L8.89,8.663l-.09.312.015.242.247.631.173.818.066.083.058.026.026-.019-.006-.169.011-.205.081-.048.104.042.099.178.111.326.119.128.186.036.211-.077.157-.147.064-.16-.045-.314-.01-.235.101-.224.362-.334.052-.103-.023-.285.001-.268.137-.018.185.043.232-.131.071-.003.098.141.165-.024.122.582.125.513.001.2389.021.524.057.427.089.097.104.228.096.265.075.148.051.483.063.348.083,1.092Zm-5.425-2.974.05.13-.156-.078-.117-.09-.0721-.12.122-.063Zm.381,2.639-.488.106-.249-.033.465-.791-.016-.354-.072-.289-.236-.232-.013-.166L7.014,11.739l-.055-.266.2621-.085.213.152.03.084.046.217.105.226.368.465-.007.285-.101.695Zm2.1859-.882-.13.089-.122-.077-.156-.294.077-.372.0491-.053.078.121.109.259.071.197Zm-1.1389.624-.297.211.0969-1.25.222.466.0561.249Zm2.029,1.032-.102.246-.05-.179.043-.2269.044-.125.029.001.06.129Zm.212.973-.169.014-.083-.089.039-.125-.046-.403.143-.042.073.002.041.119.038.218Z" fill="url(#radial-gradient)"/></g></g></svg>