<?xml version="1.0" encoding="utf-8"?>
<!-- Generator: Adobe Illustrator 22.1.0, SVG Export Plug-In . SVG Version: 6.00 Build 0)  -->
<svg version="1.1" id="Layer_1" xmlns="http://www.w3.org/2000/svg" xmlns:xlink="http://www.w3.org/1999/xlink" x="0px" y="0px"
	 width="10.776px" height="8.715px" viewBox="0 0 10.776 8.715" enable-background="new 0 0 10.776 8.715" xml:space="preserve">
<radialGradient id="BE_1_" cx="5.388" cy="4.3575" r="4.8999" gradientUnits="userSpaceOnUse">
	<stop  offset="0" style="stop-color:#FFD496"/>
	<stop  offset="1" style="stop-color:#F29D25"/>
</radialGradient>
<path id="BE" fill="url(#BE_1_)" d="M6.43,0.262l0.013,0.093L6.52,0.394l0.269-0.02l0.136-0.169l0.108-0.106l0.08,0.072l0.039,0.208
	l0.074,0.27l0.321,0.302l0.271,0.086l0.334-0.059l0.132-0.054l0.09,0.045l0.089,0.16l0.191,0.182l0.404,0.13l0.123,0.073
	l0.086,0.123L9.242,1.811L9.05,2.246L9.025,2.374l0.026,0.043l-0.038,0.08l-0.25,0.291L8.741,2.89l0.083,0.167l0.069,0.138
	l0.002-0.027l0.383-0.125l0.173,0.251l0.284,0.009l0.034,0.081l0.319,0.234l0.098,0.185l0.229,0.179l-0.19,0.226l0.029,0.101
	l0.068,0.103l0.258,0.06l0.129,0.148l0.008,0.227l0.059,0.368l-0.532,0.366l-0.151,0.408l-0.014,0.08l-0.018-0.012l-0.058-0.135
	L9.906,5.924l-0.22-0.057L9.379,6.235L9.24,6.541L9.158,6.765L9.034,6.946L9.009,7.137l0.016,0.081L8.983,7.321L8.981,7.43
	l0.176,0.213l0.045,0.116l0.215,0.379L9.35,8.275L9.297,8.424L9.235,8.53L9.162,8.597L8.94,8.593L8.658,8.64l-0.19,0.075H8.37
	L8.166,8.527L7.938,8.245L7.794,8.11L7.728,7.994L7.549,7.945L7.294,7.806L7.117,7.654L6.965,7.559L6.751,7.512L6.574,7.517
	L6.523,7.261L6.501,6.969L6.357,6.772l0.198-0.768L6.437,5.929L6.309,5.99L6.123,6.174L6.034,6.392L5.981,6.586L5.669,6.769
	L5.174,6.836L4.633,6.769L4.559,6.72L4.524,6.664V6.597l0.037-0.104l0.094-0.127l0.024-0.18L4.582,6.03L4.519,5.969l0.025-0.151
	l0.071-0.189L4.63,5.52L4.263,5.193L3.998,5.129L3.741,5.117L3.546,5.08L3.432,5.096L3.351,5.191L3.268,5.26L3.206,5.178
	L3.092,4.596L3.004,4.508L2.672,4.41L2.22,4.375L2.1,4.269L2.034,4.006L1.992,3.69L1.844,3.386L1.768,3.309L1.633,3.175L1.397,3.23
	L1.114,3.407L0.947,3.455L0.883,3.474L0.658,3.302L0.404,3.033L0.201,2.747L0.152,2.588l0.062-0.193L0.14,2.247L0.031,1.976L0,1.764
	l1.221-0.752l0.744-0.386l0.351-0.117L2.4,0.897L2.464,1.02L2.547,1.1l0.11,0.016L2.784,1.02l0.178-0.101l0.285,0.047l0.207,0.093
	l0.073,0.097l0.138,0.092l0.2,0.022l0.387-0.176l0.372-0.268l0.109-0.187L4.774,0.47l0.22,0.112l0.194,0.024l0.086-0.05L5.219,0.285
	L5.377,0.14l0.175-0.066l0.079,0.117l0.161,0.12l0.127,0.001L6.26,0l0.08,0.062l0.074,0.111L6.43,0.262z"/>
<g>
	<text transform="matrix(1 0 0 1 2.7672 3.9046)" fill="#770B00" font-family="'KornerDeliNF'" font-size="0.9937px">Brussels</text>
	<g id="Layer_2_copy_2_3_" opacity="0.9">
		<path fill="#9B0F00" d="M5.2428,1.8781c-0.0444-0.0087-0.167-0.0099-0.203-0.01v0c0,0-0.0018,0-0.005,0c-0.0032,0-0.005,0-0.005,0
			l0,0c-0.036,0.0001-0.1586,0.0013-0.203,0.01C4.2983,1.9821,4.4588,2.4589,4.57,2.6196c0.0942,0.1361,0.4161,0.4999,0.4161,0.4999
			h0.0973c0,0,0.3219-0.3638,0.4161-0.4999C5.6107,2.4589,5.7712,1.9821,5.2428,1.8781z"/>
		<path fill="#770B00" d="M5.1996,1.8781C5.165,1.8695,5.0708,1.8682,5.0398,1.868v0c0,0-0.0018,0-0.005,0
			c-0.0032,0-0.005,0-0.005,0l0,0c-0.031,0.0002-0.1252,0.0015-0.1599,0.01c-0.4215,0.104-0.2934,0.5808-0.2047,0.7415
			C4.7403,2.7557,4.997,3.1195,4.997,3.1195h0.0756c0,0,0.2567-0.3638,0.3318-0.4999C5.4931,2.4589,5.6211,1.9821,5.1996,1.8781z"/>
		<path fill="#4C0700" d="M5.0972,1.8781C5.0853,1.8707,5.0555,1.8687,5.0398,1.8682l0-0.0002c0,0-0.0019,0-0.005,0.0001
			C5.0316,1.868,5.0297,1.868,5.0297,1.868l0,0.0002C5.014,1.8687,4.9842,1.8707,4.9723,1.8781
			C4.8049,1.9821,4.8558,2.4589,4.891,2.6196c0.0298,0.1361,0.1318,0.4999,0.1318,0.4999h0.0239c0,0,0.1019-0.3638,0.1318-0.4999
			C5.2137,2.4589,5.2646,1.9821,5.0972,1.8781z"/>
	</g>
</g>
</svg>
