<svg xmlns="http://www.w3.org/2000/svg" xmlns:xlink="http://www.w3.org/1999/xlink" width="10.776" height="8.715" viewBox="0 0 10.776 8.715"><defs><radialGradient id="radial-gradient" cx="5.388" cy="4.3575" r="4.8999" gradientUnits="userSpaceOnUse"><stop offset="0" stop-color="#9b0400"/><stop offset="1" stop-color="#4c0200"/></radialGradient></defs><title>BE</title><g id="Layer_2" data-name="Layer 2"><g id="Layer_1-2" data-name="Layer 1"><path id="BE" d="M6.43.262l.013.093L6.52.394l.269-.02L6.925.205,7.033.099l.08.072.039.208.074.27.321.302.271.086L8.152.978,8.284.924l.09.045.089.16.191.182.404.13.123.073.086.123-.025.174-.192.435-.025.128.026.043-.038.08-.25.291-.022.102.083.167.069.138.002-.027.383-.125.173.251.284.009.034.081.319.234.098.185.229.179-.19.226.029.101.068.103.258.06.129.148.008.227.059.368-.532.366-.151.408-.014.08-.018-.012-.058-.135-.097.002-.22-.057-.307.368-.139.306-.082.224-.124.181-.025.191.016.081-.042.103-.002.109.176.213.045.116.215.379-.067.137-.053.149-.062.106-.073.067L8.94,8.593l-.282.047-.19.075H8.37l-.204-.188-.228-.282L7.794,8.11l-.066-.116-.179-.049-.255-.139-.177-.152-.152-.095-.214-.047-.177.005-.051-.256-.022-.292-.144-.197.198-.768-.118-.075-.128.061-.186.184-.089.218-.053.194-.312.183-.495.067-.541-.067L4.559,6.72l-.035-.056V6.597l.037-.104.094-.127.024-.18L4.582,6.03l-.063-.061.025-.151.071-.189L4.63,5.52l-.367-.327-.265-.064-.257-.012L3.546,5.08l-.114.016-.081.095-.083.069-.062-.082-.114-.582-.088-.088L2.672,4.41,2.22,4.375,2.1,4.269l-.066-.263L1.992,3.69l-.148-.304-.076-.077-.135-.134-.236.055-.283.177-.167.048-.064.019L.658,3.302.404,3.033.201,2.747.152,2.588l.062-.193L.14,2.247.031,1.976,0,1.764l1.221-.752L1.965.626,2.316.509,2.4.897l.064.123.083.08.11.016.127-.096L2.962.919l.285.047.207.093.073.097.138.092.2.022.387-.176L4.624.826,4.733.639,4.774.47l.22.112.194.024.086-.05L5.219.285,5.377.14,5.552.074l.079.117.161.12.127.001L6.26,0l.08.062.074.111Z" fill="url(#radial-gradient)"/></g></g></svg>