<svg xmlns="http://www.w3.org/2000/svg" xmlns:xlink="http://www.w3.org/1999/xlink" width="22.207" height="16.138" viewBox="0 0 22.207 16.138"><defs><radialGradient id="radial-gradient" cx="11.1035" cy="8.069" r="9.7056" gradientUnits="userSpaceOnUse"><stop offset="0" stop-color="#ffd496"/><stop offset="1" stop-color="#f29d25"/></radialGradient></defs><title>BF</title><g id="Layer_2" data-name="Layer 2"><g id="Layer_1-2" data-name="Layer 1"><path id="BF" d="M16.112.48l-.039.134-.002.237-.05.375-.06.449.244.29.292.312.078.121-.078.307.055.18.154.3.262.381.269.391.186.051.177.032.108.07.157.068.157.044.136.086.087.084.113.241.303.159.212.157-.085.08-.264-.032-.248-.069-.033.116-.01.442.039.367.058.049.25.068.595.477.538.452.181.117.297.044.334.019.143-.042.323-.227.172-.025.159.006.086.036.155.186.145.28.041.207-.013.111-.049.042-.265.053-.115.042-.028.06.041.139.051.09.289.403.418.544.129.139-.073.162-.213.424-.159.177-.703.6-.344-.071-.723.121-.108-.138-.169-.018-.209.024-.076.052-.023.059-.075.083-.134.238-.103.06-.128.037-.158-.005-.092.031v.118l-.028.102-.107.052-.045.114.008.113-.062.052-.136-.028-.081-.032-.076.146-.094.099-.067-.001-.723.029-.263.078-.158.002-.006-.066-.019-.039-.912-.221-.639-.131-.648-.145-.037.136-.093.088-.14.006-.097-.021-.065.105-.108.139-.15.067-.147.086-.083.075-.06.001-.148-.176-.197-.018-.368.029-.166-.048-.226-.023-.534.036-.853-.072-.14.039-.037.032-.845.008-.929.009-.778.008-.681.007-.001-.03-.219-.004-.024.059-.193.708-.021.385.103.239.115.152.129.063.013.086-.104.111.009.113.122.117.03.124-.062.129.015.31.09.491.003.318-.086.145.041.249.167.351.03.148-.06.069-.139.091-.141-.003-.164-.212-.072-.095-.132-.216-.113-.216-.152-.095-.15-.088-.182-.275-.176-.131-.186.037-.271-.051-.547-.068-.588.02-.244.063-.241.1-.611.221-.241.108-.183.276-.208-.006-.207-.088-.13-.125-.279.027L2.25,15.2l-.26-.239-.192-.079-.245-.173-.067-.33-.155-.231-.142-.322-.212-.144-.244-.077-.337.016-.221-.129L0,13.304l.046-.163.079-.232.009-.223.052-.362-.032-.453-.061-.316.186-.132.215-.118.134-.215.139-.483.058-.417-.043-.155L.711,9.912l-.057-.18-.033-.22L.66,9.32l.163-.178.204-.148.145-.072.384-.074.48-.11.277-.126.202-.125.113-.1.115-.203.186-.158.144-.16.02-.443L3.092,7.17l-.107-.14-.058-.119.711-.348.005-.245-.099-.274-.139-.221-.052-.19.197-.225.175-.169.127-.143.28-.218.292-.057.263.082.779.514.135.033.162-.039.206-.136.266-.106.098-.344-.009-.506.061-.232.14-.042.448.097.117.005.13-.032.095-.089-.004-.164L7.29,3.717l.146-.47.267-.354.539-.442.168-.089.195-.045.966.304.157-.075.236-.754.262-.072.314-.013.204-.065.106-.052.46-.287.81-.39.436-.168.085-.063.312-.277.414-.318.264-.064L13.996,0l.23.052.062.09.076.046L14.84.053l.682.215Z" fill="url(#radial-gradient)"/></g></g></svg>