<svg xmlns="http://www.w3.org/2000/svg" xmlns:xlink="http://www.w3.org/1999/xlink" width="17.516" height="11.404" viewBox="0 0 17.516 11.404"><defs><radialGradient id="radial-gradient" cx="8.758" cy="5.702" r="7.3897" gradientUnits="userSpaceOnUse"><stop offset="0" stop-color="#9b0400"/><stop offset="1" stop-color="#4c0200"/></radialGradient></defs><title>BG</title><g id="Layer_2" data-name="Layer 2"><g id="Layer_1-2" data-name="Layer 1"><path id="BG" d="M17.516,1.926l-.066.931-.271.431-.409-.144-.522.12-.276.49-.157.145-.141.17-.091.634-.022,1.034-.198.125-.181.039-.755.906.435.254.192.193.318.537.452.605.09.295-.38-.066-.132.02-.085.093-.177-.019-.218.001-.228.107-.126.045L14.4,8.774l-.315-.294-.191-.205-.141-.052-.143.061-.51.07-.121.119-.236.132-.236.063-.341.045-.179-.006-.1.063-.084.193-.057.188-.05.076-.424.093-.094.108-.025.105.0079.105-.3379-.102-.261.069-.062.08-.054.116.03.123.096.12.091.324.033.323-.056.184-.194.13-.401.145-.389-.069-.17.057-.288.018-.265.038-.407.132-.368.078-.33-.269-.392-.183-.412-.109-.143.079-.062.063-.345-.238-.154-.085-.075-.092-.143-.318-.085-.01-.284.118-.274-.005-.165-.022-.49.014-.065.217-.06.033-.106.029-.26-.014-.333.161-.357.098-.279.002-.287-.047-.172.034-.371.017-.235.234-.366-.013-.308-.039.038-.074.062-.931.152-.417-.006-.086-.033-.065-.135-.067-.097-.226-.203-.595-.115-.12L.949,8.352.67,8.18.433,7.952,0,7.39l.219-.056.066-.115.219-.31.025-.152L.506,6.671.359,6.522l-.1-.327L.334,5.89l.007-.157L.267,5.577l.077-.194.158-.106.099-.031.415-.021.263-.389.16-.124.164-.221.076-.081.072-.172.025-.176-.329-.247-.112-.186-.147-.206L.99,3.281.591,3.037.435,2.789l-.07-.322L.259,2.223.142,2.064.12,1.934.071,1.775.06,1.462l.095-.417L.216.897.351.856.711.633.728.348.793.17.907.068,1.013,0,1.21.166l.478.265.233.192L1.909.742,1.8.86,1.592.976l-.121.153-.033.189.031.134.144.117.858-.153.87.079,1.168.259.774.09.573-.12,1.059.217.987.202.947.059.53-.158.373-.213.321-.402.793-.531.767-.299L12.639.357l.672-.082.094.082.855.489.381.002.308.087.113.129.077.032.41-.121.181.267.283.374.483.192.43.108.136.017Z" fill="url(#radial-gradient)"/></g></g></svg>