<svg xmlns="http://www.w3.org/2000/svg" xmlns:xlink="http://www.w3.org/1999/xlink" width="5.044" height="5.984" viewBox="0 0 5.044 5.984"><defs><radialGradient id="radial-gradient" cx="2.522" cy="2.992" r="2.767" gradientUnits="userSpaceOnUse"><stop offset="0" stop-color="#ffd496"/><stop offset="1" stop-color="#f29d25"/></radialGradient></defs><title>BI</title><g id="Layer_2" data-name="Layer 2"><g id="Layer_1-2" data-name="Layer 1"><path id="BI" d="M4.321.243,4.265.316,4.008.838l-.05.079.028.048.11.099-.065.165-.025.044-.049.153.027.141.062.052.167.068.25.049.295.118.199.021.047.085-.009.151.048.131.001.235-.059.207-.304.097-.157.106-.042.054.038.062.02.083-.286.207-.294.269-.07.181-.059.215-.086.137-.224.198-.229.398-.112.258-.561.62-.499.31-.145.105-.883-.018-.067-.418L.891,4.977.587,4.462.555,4.246.569,3.83.57,3.246.55,2.932l.007-.229.038-.398L.59,2.067.391,1.793.143,1.501.007,1.358,0,1.243l.001-.107L.041.981.138.808.247.789.515.858l.279.147.148.331.114.047.206-.001.527-.043.131.005.239-.079.238-.139L2.466.982,2.521.657l.05-.583L2.693.068l.332.207.072.014L3.166.282,3.282.179,3.423.095l.105.002L3.914,0l.207.176.13.055Z" fill="url(#radial-gradient)"/></g></g></svg>