<svg xmlns="http://www.w3.org/2000/svg" xmlns:xlink="http://www.w3.org/1999/xlink" width="8.619" height="17.432" viewBox="0 0 8.619 17.432"><defs><radialGradient id="radial-gradient" cx="4.3095" cy="8.716" r="6.8753" gradientUnits="userSpaceOnUse"><stop offset="0" stop-color="#ffd496"/><stop offset="1" stop-color="#f29d25"/></radialGradient></defs><title>BJ</title><g id="Layer_2" data-name="Layer 2"><g id="Layer_1-2" data-name="Layer 1"><path id="BJ" d="M7.948,1.96l-.116.183-.178.378-.008.295.424.622.049.063.109.097.059.116.051.306.029.345.034.232.205.326.013.131-.142.487-.034.052-.037.013-.22-.042-.094.053-.12.165-.073.165-.004.069.195.306-.123.441-.126.275-.226.157-.202.037-.141.074-.082.097.012.315-.298.287-.165.201-.08.121.034.37-.106.374-.184.295-.412.064-.346.036-.118.751.006.475-.032.485-.057.198.024.278-.026.629-.046.495.061.133.035.291-.002.301.088.209.096.183-.003.094-.051.059-.043.077v.708l.018.212-.026.134-.074.112.029.358.06.228.06.168-.058.14-.051.185-.077.472-.005.164-1.177.115-1.316.189-.549.123-.032-.095.468-.123-.097-.369-.292-.436-.114-.08-.059-.217.071-.142-.034-.096-.024-.294-.144-.325.263-.013V11.659l-.051-.813-.007-.597-.011-.788-.095-.246-.398-.417-.109-.216-.019-.287L1.638,8l-.005-.517-.007-.602L1.59,6.784l-.432-.287L.547,6.09.081,5.78.047,5.757,0,5.681l.068-.918.096-.12.149-.378.072-.306.067.001.094-.099.076-.146.081.032.136.028.062-.052L.893,3.61l.045-.114.107-.052.028-.102V3.224l.092-.031.158.005.128-.037.103-.06.134-.238.075-.083.023-.059.076-.052.209-.024.169.018.108.138.723-.121.344.071.703-.6.159-.177L4.49,1.55l.073-.162.066-.292L4.49.557,4.498.461l.29-.116L5.15.255,5.29.248,5.383.202,5.515.085,5.73,0l.127.028.078.017.762.713.331.36.088.184.171.133.252.082.23.183Z" fill="url(#radial-gradient)"/></g></g></svg>