<svg xmlns="http://www.w3.org/2000/svg" xmlns:xlink="http://www.w3.org/1999/xlink" width="3.5439" height="2.795" viewBox="0 0 3.5439 2.795"><defs><radialGradient id="radial-gradient" cx="1.7719" cy="1.3975" r="1.5957" gradientUnits="userSpaceOnUse"><stop offset="0" stop-color="#ffd496"/><stop offset="1" stop-color="#f29d25"/></radialGradient></defs><title>BN</title><g id="Layer_2" data-name="Layer 2"><g id="Layer_1-2" data-name="Layer 1"><path id="BN" d="M2.7029.347l-.229.122-.226.152-.226.131-.105.103.037.144.055.317.03.249.079.099.062.099-.025.108-.134.206.076.04L2,2.39l-.1439.202-.199.165-.128.038-.103-.07-.1681-.181L1.075,2.293.99,2.147l-.263-.02-.094-.116L.627,1.869.553,1.703.449,1.525.295,1.387.088,1.28,0,1.203l.32.005.341-.045.351-.149L1.35.834,1.634.628,1.9011.396,2.18.213,2.6151,0,2.761.017,2.76.168Zm0,0h.318L3.1.439l.167.325.109.326.035.497.133.211-.021.043-.08.036-.1241.015-.2139-.048-.178-.073-.156-.538L2.7019.929l.006-.363Z" fill="url(#radial-gradient)"/></g></g></svg>