<svg xmlns="http://www.w3.org/2000/svg" xmlns:xlink="http://www.w3.org/1999/xlink" width="34.099" height="38.404" viewBox="0 0 34.099 38.404"><defs><radialGradient id="radial-gradient" cx="17.0495" cy="19.202" r="18.1577" gradientUnits="userSpaceOnUse"><stop offset="0" stop-color="#ffd496"/><stop offset="1" stop-color="#f29d25"/></radialGradient></defs><title>BO</title><g id="Layer_2" data-name="Layer 2"><g id="Layer_1-2" data-name="Layer 1"><path id="BO" d="M32.235,30.224l.056-.493-.057-.427-.057-.11-.825-.508-.749-.462-.98-.604-1.264.017-1.309.017-1.247.27-1.227.265-.582.126-1.167.252-.687.116-.18.486-.269.73-.267.427-.308.449-.434.633-.001.77v.733l-.305,1.035-.26.88-.25.852-.172.589-.064.15-.04-.048-.222-.176-.198-.332-.054-.151-.025-.006-1.19.01-1.145.011-.117.07-.165-.001-.121-.065-.118.005-.171.064-.153.133-.437.884-.216.378-.161.339-.117.581-.049.097-.136-.201-.201-.531-.09-.303-.129-.343-.23-.431-.265-.13-.165-.043-.237-.082-.419-.103-.183-.021-1.199-.014-.095-.011-.47.047-.238-.032-.25-.24-.557-.422-.112-.134-.214-.088-.127-.009-.078.083-.096.352-.114.318-.119.183-.398.135-.371.141-.204.033-.109.159-.048.223-.091.201-.536.303-.119.127-.062.299-.299.371-.092.145-.47.102-.611.11-.357-.007-.244-.029-.074-.067-.165-.105-.028-.117-.002-.166.046-.299L4.95,37.2l-.192-.482.015-.155-.025-.236-.097-.443-.248-.223-.07-.368-.029-.323-.209-.404-.034-.514.005-.44-.328-.511-.342-.542-.276-.074-.068-.065-.03-.155-.006-.241.022-.146.213-.237.008-.036-.043-.05-.55-.354-.139-.103-.043-.126.004-.114.131-.116.067-.086-.129-.252.013-.228-.082-.098.009-.074.08-.063.357-.073.111-.231.004-.192-.054-.136-.33-.343-.007-.058.346-.477.248-.313.068-.064-.021-.068-.061-.083-.157-.12-.204-.132-.169-.16-.22-.237-.277-.203-.205-.202-.105-.168-.002-.172-.028-.285-.134-.462-.036-.312-.058-.345-.058-.225-.032-.217-.096-.235-.053-.172.077-.121.077-.094-.009-.059-.529-.251-.088-.064-.125-.502-.384-.446-.045-.332v-.134l-.031-.209L.23,21.881l-.175-.113L0,21.634l.058-.141.341-.279.183-.047.048-.142.111-.112.321-.41.189-.269.189-.162.219-.112.095-.094-.05-.289.015-.195.076-.123.219-.13.197-.099.042-.049-.017-.073-.181-.148-.373-.129-.247.013-.151-.114-.083-.097L.712,17.237l-.081-.279.006-.108.328-.59.133-.193.23-.278-.041-.11-.403-.461L.76,14.999l.003-.219.04-.265.234-.143.067-.216.049-.213.1-.07.102-.121.121-.174.188-.152.111-.116.024-.323.092-.088.257-.103.026-.083-.058-.217-.128-.229-.104-.112-.137-.562-.143-.279.06-.112.099-.142.096-.281.031-.327L1.866,9.25l.006-.237.126-.165.185-.192.157-.073.148-.121-.011-.227.098-.134.121-.168-.375-.661-.33-.581-.309-.545-.358-.63-.235-.415L.796,4.586.539,4.134.188,3.518l.326-.011.657.022.636.11.431.048.18.094.04.151.119.07.138-.027.156-.01.349-.154.282-.103.243-.123.125-.12.303-.421.244-.232.225-.081.439-.034.139.066.179-.008.155-.239.236-.264.465-.329.236-.09.147-.115.252-.017.222-.12L8.183.75,8.617.536l.27-.039L9.111.446l.38-.119.952-.116.611-.047.196.115.22-.033L11.657.06,11.812,0l.114.005.164.22.08.234-.053.178.01.259.073.338-.041.302-.231.394-.116.161-.029.166.02.224.106.364.191.506.029.374-.134.243-.062.21.011.177.047.124.086.071.047.141.01.212.112.205.213.198.087.188-.04.18.011.113.062.044.058-.036.078-.05.069.018.15.251.019.051.081.208.025.157.219.088.237.069.131.082.262.249.22.164.276.134.091.215.169.324.465.124.542.062.346.071.422-.172.279.024.289.117.123.08.215.167.333.214.272.079.194-.119.179-.042.139.05.073.233.073.157.161.119.345.305.195.125.22-.009.454.201.484.195.25.032.246-.029.163.076.066.235.421.47.198.185.236.158.601-.003.18.047.268-.042.806-.08.146-.025.456.205.539.296.357.232.249.128.13.208.106.217.049.234-.065.232-.098.094-.033.15.041.225.179.201.066.247.098.438.11.138.071,1.357-.361.011-.509.016.149.13.421.506.387.467.062.75.038.473.055.668.032.399.967.036,1.114.041,1.339.05,1.177.044.116-.005.204-.054.136-.071.083.002.014.162-.028.204.001.235-.337.464-.021.146.051.612.119.496.06.448.135.14.399.237.603.438.241.057.204-.06.122.179.024.289.333.807.211.513.097.179.158.092-.03.067-.131.027-.059.096-.183.576-.241.759-.163.535.147.008.006.148.033.226-.181.028-.054.081-.208.439-.272.575-.282.596-.167.353.285.261.475.436-.075.121-.204.061-.171.042-.131.165-.073.121Z" fill="url(#radial-gradient)"/></g></g></svg>