<svg xmlns="http://www.w3.org/2000/svg" xmlns:xlink="http://www.w3.org/1999/xlink" width="109.9967" height="114.7739" viewBox="0 0 109.9967 114.7739"><defs><radialGradient id="radial-gradient" cx="54.9984" cy="57.3869" r="56.2053" gradientUnits="userSpaceOnUse"><stop offset="0" stop-color="#ffd496"/><stop offset="1" stop-color="#f29d25"/></radialGradient></defs><title>BR</title><g id="Layer_2" data-name="Layer 2"><g id="Layer_1-2" data-name="Layer 1"><path id="BR" d="M49.1487,9.2663l.0841.027.1879.023.4461.107.582.121.159-.042.095-.085.022-.249.018-.176-.131-.155-.163-.176-.15-.2189-.18-.063.023-.113.117-.117.12-.064.069-.0791.076-.2919.05-.052.051-.013.06.0109.1189.076.458.232.201-.035.768-.061.116-.134.163-.03.276-.134.109-.009.098.032.123-.025.181-.125.076-.013.029.138.117.143.142.131.068.03.238-.0419.125.0369.054.122.016.106.1.09.128.002.068.037.117.058.099.133.23.106.393.148.183.0021.17.045.104.045.113-.083.402-.229.1961-.128.1319-.097.099-.092.074-.024.05.055.043.074.144.043.336.086.154.024.216-.073.185-.125.088-.043.137.125.094.175.063.077.139-.018.275.027.203.056.126-.005.172-.078.093-.154.244-.141.232-.13.133-.173.197-.288.066-.123.014-.208.277-.604.105-.111.062-.191.111-.221v-.185l.081-.179.159-.154.117-.097.188-.26.131-.245.327-.543.025-.154.13-.092.043-.117.139-.145.146-.114.063-.169.107-.175.234-.131.087-.06.266-.482.03-.215.24-.008.377.249.301.367.403,1.179.067,1.089.163.57.469,1.188.03.22.075.266.148.282.164.464.006.086-.106.126.1561.009.1409.075.0921.294.117.199.212.272.434.089.328.033.3729.154.274.197.212.669-.069.42.021.296-.11.116-.307.194-.0669.103-.6271.5-.137.236-.336.3169-.333.604-.487.552-.172.14-.263.032-.16.085-.378.451-.5079.15-.047.2609-.293.596-.259.326-.1651.11-.415.594-.053.26.002.455-.277.277-.288.176-.036.389-.13.133-.111.086-.586-.102-.91.423-.311.105.993.021.319.225.699-.1489.846-.5361.323-.113.6561-.364.267-.243.4859-.291.104-.128.272-.1359.1481.173.012.109-.224.213.058.137.147.172.053.238.02.181.091.317.301.4289.01.142-.042.1871.144.1539.149.0911.512.462.4-.258.247-.0751.157-.108.33-.0719.27.108.515.155.377-.1651.762-.3779-.238.669-.173.614-.131.248-.13.668-.128.1789-.104.2041.17-.0711.146-.0969.187-.257.14-.447.552-1.193.158-.106.459-.136.79-.954.309.003.198.219.187.13.048-.261.27-.106-.285-.129-.046-.117-.027-.195.194-.264-.116-.234.402-.294-.031-.221.144-.182.182-.188.206-.091.038-.161.13-.066.102-.024.201.18.218-.212.212-.083.095.0369.119.094.125.04.101-.017.263-.1359.243.219.146.048-.04-.123-.077-.114.06-.093.115-.058.364.052.191.0979.207.181.287.013.226-.019.142.102.231-.001.116.159.352.223.076.151.283.073.266.093.283.025.286-.022.012.191.209.052.269-.042.203.235.543.177.376.271.247-.048.276.072.296.589.067.418.132-.0581.123-.187.1579-.342.297-.113.142.131.297.21.256.23.108.148.193.024-.161.182.162-.019.195-.129.167.268.126.292.025.297-.119.17-.104.107-.116.21-.137.038-.137.068.156.153.107.147.2341-.398.165-.112.238-.062.124.283.026.268-.388.111-.001.211-.116.12-.076.138-.061.288-.079.239-.231,1.06-.004.175.282-.187.52-.54.158-.5751.2049-.5669.223-.178h.139l.207.062.012.186-.032.107-.222.282-.094.154.091.152.503-.467.2261-.164.1919.033.3811-.216.768-.0451.058-.247.153-.105.422.028.822.22.293.18.439.167.231.199.965.366.7009.039.347-.166.433.174.229.1951.45.105.454.055.347-.14.8959-.0459,1.125-.207.671.049.76.135.542.347.456.196.276.193.445.201.949.539.3331.312.588.424.591.178.319.444.253.2.626.75.71.525.475.525.912.338.3559.558.617.068.263.083.32.235.4389.131.572-.037.6311.027.5109-.11,1.208.2091.19.103.25.237.4411.885.263.982.13.751.301.584.164,1.098.14.346.011.267.1189.06.08.742-.031.299-.116.389-.008.174.017.11-.051.163-.016.156.1171.35.006.28-.157.34-.214.889-.536,1.475-.5141.848-.719.876-.4689.458-.186.047-.17-.091.121.242-.105.213-.476.646-.473.422-.491.734-.037.017-.629.284-.372.232-.476.422-.437.666-.09.085-.161-.047.005.338-.376.536-.115.079.003-.152.065-.116.03-.123-.002-.1459-.105.1059-.223.402.075.2941-.161.445-.616,1.272-.754,1.071-.174.331-.619.723-.455.349-.128.002-.145-.03-.073-.556-.362-.336-.104-.059-.148.356-.124.098-.179.021.191.155.056.18-.195.36-.006.327-.348.361-.202.264-.102.331-.062.309.153-.084.073.065.0571.096-.035.142-.112.269.0169.669-.0369.152.111.1651.118-.2811.068.0791-.3291,1.7959.129.81.0481.919.148.899.163.804.013.064-.2251.935-.2879.924-.173.755-.1091.816-.109.393-.035.4021.125.954.047.181-.349.426-.377.207-.208.206-.46.77-.25,1.14-.006.607.118,1.274-.088.521-.146.349-.172.229-.439.275-.394.671-.171.706-.27.258-.055.396-.217.428-.563.639-.366.186-.174.179-.111.375-.353.618-.26.8029.068.273.004.042.095.93-.035.237-.343.257-1.292.48-.344.199-.771.818-.048.193.0321.276.126.159-.13.172-.154.309-.225-.019h-1.287l-.696.098-.362-.0189-.163-.074-.182-.121-.055-.159.099-.24-.059-.143-.191.005-.2091.068-.036.143.015.1031.0781.1489.0429.1841-.0859.159-.408.021-.458.146-.572.0609-.456.106-.21-.1339.21-.067.302.0319.324-.111-.076-.131-.458-.168-.509.103-.282.201-.617-.019-.7561.1531-.1229.156.021.302.147.0659.145.138-.1391.1291-.135.057-.798.141-.74.591-.309.0739-.2749.261-.0281.2231-.087.135-.176.007-.3859-.122-.5011-.003-.362.097-1.849.961-.664.386-.7569.7869-1.2771.884-.6709.529-.1271.137-.1059.007-.21.11.083.091.143.008-.059.3091-.267.2109-.501.555-.111-.041.159-.289-.246-.011-.362-.106-.157.119.087.286-.136.123-.247.014-.224-.034-.246-.209.111.3791.52.0919.216.089.081.146-.404.677-.338.088-.037.096h.186l.103.188-.121.758-.167.144-.098.004-.097.13.133.248.138.1811-.019.352-.052.291-.003.283.174.548.063.563.07.205.04.228-.116.213.066.342-.198.583.104.842-.042.792-.078.417-.126.3259-.292.42-.006.4211-.629.393-.695.549-.642.6519-.691.9211-.806,1.406-.747,2.017-.899,1.532-.36.555-.486.622-.647.726-.866.728-.948.65-.342.293-.334.413-.083-.171.072-.282-.046-.211-.01-.273.191-.051.286.174.146-.118.106-.116.345-.073.658-.713.488-.263.275-.449.047-.238-.011-.483.156-.1229.353.0419.072-.138-.031-.1519.069-.332.479-.294.227-.354-.076-.902.088-.041.197.14.093-.058.099-.395-.048-.205-.232-.054-.802.445-.261-.019-.043-.349-.39-.16-.152-.29-.045-.198-.1351-.0809.008.343.037.333.35.389-.085.155-.1659.18-.116.401.013.521-.094-.159-.12-.092-.049.56-.232.215-.073.211.061.245-.12.169-.591.455-.589.311-.128.146-.063.348-.09.357-.261.315-.207.626.005.27.069.398.111.2621-.176.1749-.237.34-.188.3839-.468,1.4451-.403.875-.311.429-.443.453-1.262,1.141-.0759-.016-.185-.092-.155-.109-.035-.073-.0181-.109.021-.411-.0029-1.102.0549-.208.082-.134.2461-.194.239-.2769.27-.3531.2489-.28-.0889-.188-.2081-.182L57.92,110.9l-.3551-.258-.315-.332-.1459-.3449-.1341-.372-.127-.2931-.042-.1339-.125-.0561-.198-.149-.1239-.1389-.181-.08-.3241-.0869-.337-.153-.419-.362-.302-.401-.149-.2651-.159-.1859-.8649-.308-.393-.367-.155.115-.231-.112-.228-.1761-.068-.1359-.096-.139-.09-.159-.058-.152-.2341-.267-.303-.288-.1279-.082-.068.024-.065.11-.042.1069-.1141.071-.1409.132-.145.162-.185.107-.22.037-.148-.005-.03-.064-.008-.221.055-.503-.128-.194-.171-.208-.197-.277-.648-.5869-.883-.8431-.312-.257-.293-.02-.268.029-.247.111-.1871.389-.077.06-.476-.008-.473-.063-.159-.237.1261-.154.445-.342.246-.305.047-.267.213-.24.38-.2119.423-.39.466-.568.284-.418.1-.27.183-.208.266-.146.232-.304.199-.462.271-.367.344-.272.193-.226.041-.179.0969-.114.154-.05.074-.094-.005-.138.042-.094.088-.05.1481.018.208.085.125-.016.043-.117-.055-.1339-.153-.15.058-.163.402-.264.296-.1.188-.1631.178-.2589.289-.18.3989-.102.106-.097-.015-.125.082-.09.236-.065.128-.122.021-.179.076-.1661.131-.153.146-.057.161.039.151-.058.142-.155.17-.072.198.01.102-.034.34-.072.188-.13.154-.291.137-.112.12.065.207-.097.294-.259.056-.005.217-.121.224-.448.115-.299-.027-.245-.074-.175.025-.257.074-.697.02-.285.1189-.198-.008-.196-.212-.44-.2139-.386-.115-.653-.076-.248-.178-.0659-.162-.216-.204-.019-.096-.083-.099-.068-.145.02-.124.126-.229.004-.145.052-.17.112-.162-.051-.102-.099-.219-.001.015-.443.386-.656.104-.305-.05-.173.115-.609.281-1.042.09-.681-.102-.321-.003-.224.145-.19.07-.057-.362-.232-.195-.212-.25-.151-.269-.1209-.13.051-.139.07-.269.111-.306.192-.158.07-.279.0709-.315.061-.26-.04-.223-.041-.14-.121-.074-.263v-.2219l-.046-.3221-.167-.182-.056-.141-.009-.171.019-.191.046-.141-.028-.171-.074-.1209.019-.211-.037-.292-.111-.1811-.056-.21v-.21l-.083-.21-.009-.23.074-.21.028-.21-.083-.15-.158-.09-.121-.24-.019-.31-.13-.169-.139-.14h-.158l-.241-.08-.213.01-.344-.01-.158-.05-.083-.109-.213-.149-.121-.259-.148-.05-.214.08-.074.1-.083.14-.148.16-.195-.01-.2041.09-.195.01-.26.02-.26-.08-.315-.09-.27-.06-.26.06-.176-.05-.232-.03-.26-.02-.204-.16-.223-.089-.121.03-.158.1-.167-.02-.214-.08-.083-.189.0191-.12.0459-.12.083-.169-.0459-.1791.019-.159.037-.1389.0369-.159-.028-.149-.009-.159-.019-.149-.028-.159.111-.228.093-.188-.056-.158.019-.109.074-.178.093-.218-.009-.406-.083-.237-.091-.0641-.023-.071.044-.0939-.048-.0961-.0191-.099.0481-.086-.0661-.17-.133-.049-.0459-.0491-.046-.1879-.037-.217.019-.167-.065-.147-.093-.089-.093-.157-.093-.1179-.037-.167-.062-.216.185-.04.073-.121.13-.164.171-.043.204-.06.075-.121-.475-.436-.285-.261.167-.354.282-.5949.272-.576.2081-.438.053-.081.182-.028-.033-.226-.006-.148-.146-.008.163-.534.241-.76.183-.575.059-.0961.131-.0269.03-.066-.158-.092-.097-.179-.211-.513-.333-.808-.024-.289-.122-.178-.204.06-.241-.057-.603-.438-.399-.237-.135-.14-.06-.449-.119-.495-.051-.612.021-.146.337-.464-.001-.234.028-.205-.014-.162-.083-.002-.135.071-.205.054-.116.005-1.177-.044-1.339-.05-1.114-.0419-.967-.0361-.032-.3989-.055-.667-.039-.474-.062-.75-.388-.467-.421-.5061-.148-.13.509-.016.361-.0109-.071-1.357-.11-.138-.098-.438-.066-.248-.179-.2-.041-.226.033-.15.098-.093.065-.232-.049-.233-.106-.217-.13-.208-.249-.128-.356-.232-.54-.295-.456-.206-.146.025-.806.08-.268.0419-.18-.0469-.601.002-.236-.158-.198-.185-.421-.47-.065-.235-.163-.075-.247.029-.25-.032-.484-.195-.454-.2-.22.008-.195-.125-.345-.305-.161-.1189-.073-.158-.073-.232-.139-.05-.179.042-.194.119-.272-.079-.333-.214-.215-.167-.123-.079-.289-.117-.279-.024-.422.172-.346-.071-.542-.0621-.464-.125-.169-.324-.091-.214-.276-.134-.22-.164-.262-.249-.13-.083-.237-.069-.219-.088-.024-.157-.082-.207-.019-.051-.149-.251-.07-.018-.077.05-.058.036-.063-.044-.011-.112.04-.18-.086-.188-.213-.198-.112-.205-.01-.212-.047-.141-.085-.072-.048-.1239-.01-.176.062-.21.134-.243-.029-.375-.191-.5061-.106-.364-.02-.224.029-.166.116-.161.231-.395.041-.3009-.073-.339-.01-.259.053-.1781-.08-.233-.164-.22-.114-.005-.155.06-.187.186-.22.033-.195-.115-.612.048-.951.115-.38.119-.224.051-.271.039-.434.214-1.071.831-.222.121-.252.017-.147.115-.236.09-.464.329-.236.264-.155.239-.179.008-.139-.066-.439.033-.225.082-.244.232-.303.42-.125.12-.244.124-.282.103-.349.154-.156.01-.138.027-.119-.07-.04-.151-.18-.095-.43-.048-.637-.11-.657-.021-.326.01-.268.007-.465-.059-.3389-.01-.297.149-.432.185-.197.047-.145.007-.141-.023-.165-.096-.231-.2211-.178.085-.128.095.002-.4809.003-.723.003-.637.002-.509.002-.594.002-.419.121-.159.074-.178-.089-.238.02-.218.062-.152.081-.1481-.187.0741-.082.0409-.1.112-.242.152-.162.1521-.191.1239-.242.2731-.199.15-.207.096-.344.321-.285.064-.754.049-.784-.001-.717-.001-.108-.004.007-.265.018-.1871-.245-.1969-.017-.2431-.065-.168-.082-.2049-.171-.1311-.241-.051-.395-.113-.586-.118-.56-.008-.549.011.335-.412.335-.411-.01-.358-.271-.312-.146-.194-.226-.267-.279-.185-.152-.246.014-.149-.024-.098-.106-.057-.106-.09-.146-.099-.171-.131v-.131l-.065-.139-.1059-.163v-.131l-.098-.205-.106-.147-.106-.098-.155-.139.008-.114.114-.057.049-.131-.016-.131-.13-.082-.155-.041-.204-.237-.147-.123-.098-.074L0,35.8l.057-.057.065-.082.017-.131-.033-.122v-.106l.098-.033.106.017.106-.065.139-.024L.71,35.18l.082-.073-.008-.13-.098-.253-.098-.106-.033-.155.08-.298.051-.191.179-.202.546-.433.49-.294.239-.03.177-.109.112-.167.031-.182-.025-.159-.091-.234-.109-.292-.082-.163.073-.195.13-.267.266-.403.248-.434.027-.126.032-.2651.114-.54.063-.292-.033-.113.057-.098.155-.082.374-.074.254-.161.391-.303.326-.322.27-.104.489-.298.281-.189.11-.059.276-.137.495-.047.412-.049.233-.09.341-.037.229-.101.255-.003.479-.103.163-.1539.139-.184.187-.157.219-.041.244.027.292-.003.354-.049.171.122.075.149.218.151.1549-.008.155-.033.2121.13.139-.016.089-.073.0169-.182.05-.099.104-.57.172-.941.156-.853.172-.943.179-.974.181-.986.148-.809.1271-.695.079-.427.122-.559.048-.491.049-.141-.031-.119-.106-.169.001-.074.012-.098-.012-.086-.111-.092-.086-.055-.068-.08-.031-.111-.056-.1109-.025-.1171-.081-.092-.024-.117.056-.111.024-.117-.024-.11-.031-.129-.062-.123-.094-.075-.225-.0831-.226-.199-.267-.178-.34-.338-.074-.16-.001-.439.015-.476.022-.719.011-.366.192-.021.169-.01.177-.025.154-.025.142-.053.106-.065.126-.042.099.015.099-.058.109-.055.106-.045.154-.038.144.088.081.088.094.042.088-.01.061.008.063.07.081.005.116-.013.109-.015.05-.021.008-.045-.0281-.078-.038-.073.03-.113.003-.136.005-.173-.086-.096-.086-.181-.096-.146-.149-.098-.139-.038-.116.061-.108.01-.081-.055-.131-.002-.142-.018-.1489-.021-.27.04-.096-.049-.1311-.005-.152.053.004-.695.004-.655.002-.46.136.01.169-.083.251-.013.193-.087.108-.007.204.042.2131.09.209.013h3.031l.177.005-.103-.153-.12-.198.046-.156.059-.157.069-.082.178.087.149.267.124.201.121.099.15.011.17-.034.17-.083.29-.368L17.942,9l.149-.106.158-.097.118-.037.161.012.136.086.088.15.322.522.243.394.082.246.005.6-.015.531.032.069.048.02.531-.125.721.644.533.476.23.152.128.042.31-.032.368-.062.179-.068.198-.149.321-.207.262-.114.103-.015.104.037.221.124.121.23-.111.267.019.166.232-.009.186-.276.13-.218.272-.177.2651-.251.185-.24.217-.14.327-.171.259-.104.242.011.18-.113.233-.2121.163-.17.113-.061.2269.017.283-.023.2781-.207.2529-.25.134-.422.0881-.374L28.05,9.29l.0921-.06.108-.039.26-.027.456-.199.314-.202.298-.043.088-.054.108-.187.054-.329-.041-.199-.548-.062H28.88l-.594-.051-.283-.082-.061-.057-.006-.063.057-.143.055-.267-.081-.362-.296-.567-.211-.558-.028-.389.005-.411.017-.269-.152-.21-.8211-.663-.2839-.313-.094-.217-.324-.399.082-.123.187.004.159.104.146.222.104.05H26.6l.757-.001.177.038.107.075.091.093.1359.259.146.126.3-.004.47-.005.264-.023.158.072.196.06.413-.138.115-.003.124.061.445.463.255.195.215.259.313.001.26-.222.069-.747.078-.217.131-.061.156-.007.185-.117.2-.152.174-.051.723.163.2009-.078.732-.197.748-.254.21-.32.313-.086.246-.234.198.024.3.01.186-.041.094-.044.103-.11.169-.313.205-.119.257-.126.176-.148.145-.183.0669-.159-.002-.126-.085-.245-.104-.23-.112-.076-.084-.029.255-.054.21.081.328.012.143-.062.207.03L38.6259,0l.168.054h.111l.101.125.079.141.245.171-.024.26-.045.23-.032.266-.014.202-.104.207-.156.193-.046.078-.022.102.105.062.186.018.232.008.158.06.204.012.246.1659.119.1.01.077-.078.1839-.031.17.061.108.072.078.199.384.095.133.08.043.019.074-.068.14-.082.178-.185.187-.025.148-.147.093-.345.221.06.35.012.177-.006.138-.118.185-.204.545-.075.272-.0661.628.004.211.094.283.2.629.114.101.263.147.033.425L40,9.208l-.0119.172.043.074.118.036.084.053.013.131-.008.137.196.079.171.05.158.188.285.293.114.054.057.121.241.247.367.09.37.109.146.155.152.126.115.006.097-.02.16-.1091.128-.094.223.0061.262-.016.045-.077.025-.099-.054-.253.093-.077.217-.043.043-.135.049-.074.062-.086.074-.012.093.049.143.031.161.043.086.086.143.007.159-.016.064-.055.047-.096.035-.207.102-.006.205-.046.218-.091.292-.014.273.002.137-.061.127-.133.246-.377.129-.087.139-.065.118.012.241-.063.198-.09.074.023.154.193.078.042.114.014.373.098.198-.031.214-.062.206-.0231.148.043.107-.056Zm17.3551.01-.28.127-.1611-.049-.148-.332.05-.276.203-.092.157.02.0581.035.14.453Zm.41,4.31-.305.094-.057-.088v-.351l.086-.192.388-.054.04-.057.111-.036.062.121-.009.201Zm-.7671.707-.05.41-.505-.173.038-.419.236-.118.209-.223.072-.273.004-.372.078-.064.068-.026.061.025.024.558.029.342Zm1.931-.359.115.146-.397.583-.219.084-.24.017-.311-.174-.484.013-.151-.041-.016-.254.203-.271.406.015.699-.2179Zm.826,1.061-.7439.087-.34-.139.077-.117.254-.187.3089-.132.2771-.059.289.074.079.157-.024.158Zm-3.393.053-.768.546-.26-.179-.054-.104.044-.105-.009-.044.086-.187.429-.1531.216-.026.276.048.046.134Zm2.874.273.262.012.371-.053.249-.13.278-.026.275.014.927.145.557.045.2041.046.199.066.146.071.036.154-.135.248-.1011.26-.094.363-.073.073-.122-.019.076.325-.027.13-.061.126-.149.262-.226.334-.067.07-.172.116-.14.148.03.14.07.141-.083.176-.267.257-.16.062-.147.026-.136-.025-.241-.258-.025.202-.065.207-.082.113-.311-.012-.173-.111-.281-.1229-.053.332-.175.229-.176.072-.276.048-.158.098-.298-.076-.277-.152-.157-.013-.122.1229-.643.0231-.295.125-.18-.0351-.265-.252-.042-.167-.158-.3389-.142-.4031-.101-.366.085-.316.172.01.203.047.043-.022.01-.102-.045-.084-.327.013-.207-.188-.036-.29.042-.604.027-.124.1449-.173.047-.153-.036-.162.062-.295.1351-.255.5159-.322.599-.115ZM62.2,18.6793l-.297.053.383-.698.342-.325.0051-.644.371-.573.341-.233.479-.068.262.349-.3251.99-.095.006-.435.522-.484.365Zm19.504-.323-.18.134-.0589.069-.1481-.052.0271-.077.044.008.048-.224.253.027Zm1.077,4.524-.276.274.091-.317-.046-.219.0361-.169.1889-.164.0571-.024-.016.202.013.062Zm16.152,28.639-.11.062-.011-.182.287-.229.047-.271.15.125.04.139-.0021.058Zm-.448,1.078-.096.169-.111-.025-.044-.113-.082-.11.044-.086.074-.049.205.007Zm-14.6659,28.45.088.083-.162-.008-.182.073-.279.065-.112-.122.241-.17.088-.127.063.027.081.092Zm-3.1741,2.275-.002.159-.117-.081-.31.062-.108-.12.418-.513.084.075.065.093.0451.13-.048.084Zm-9.329,7.747-.052.038-.176-.387.354-.371.1181.15-.094.294-.104.208Zm.277,4.281-.193.143.0351-.749.104-.25.113-.187.14-.115.104.163-.089.361-.245.443Z" fill="url(#radial-gradient)"/></g></g></svg>