<svg xmlns="http://www.w3.org/2000/svg" xmlns:xlink="http://www.w3.org/1999/xlink" width="17.5061" height="18.34" viewBox="0 0 17.5061 18.34"><defs><radialGradient id="radial-gradient" cx="8.753" cy="9.17" r="8.9639" gradientUnits="userSpaceOnUse"><stop offset="0" stop-color="#ffd496"/><stop offset="1" stop-color="#f29d25"/></radialGradient></defs><title>BS</title><g id="Layer_2" data-name="Layer 2"><g id="Layer_1-2" data-name="Layer 1"><path id="BS" d="M4.938,3.229l-.0589.027-.244-.311-.196-.09.306-.22.133-.189-.003-.413.075-.227-.025-.196.067-.2-.091-.225-.256-.179L4.1381.295,3.3371.122,2.9221.115,3.15,0l.21.014.3241.068.388.033.237.209.226.278L4.74.714l.084.071-.009.081.034.076.267.13.269.209.079.613-.362.29-.066.8859ZM1.381.66l.34.098L1.904.744,2.013.681l.503.026L2.922.613l.061.166-.01.087L2.109.947l-.792.2439L.883,1.356l-.204.019L.523,1.288,0,.7859l.14.05.386.284.24-.052L.989.88l.034-.142L.99.671,1.091.446ZM6.556,4.52l.462.348L7.412,5l.426.436.184.155.033.141-.072.644-.096.387.014.339-.1-.1011L7.7,6.779l-.166-.1271L7.478,6.585,7.776,6.57l.026-.35.146-.276-.022-.288L7.578,5.339,7.34,5.06l-.367-.09-.339-.278-.202-.034-.247.049.089-.166.062-.22.045-.042ZM3.483,6.924l-.006.372.031.278-.028.099-.304.186-.078.104-.286.105-.173.146-.087-.237-.168-.146-.028-.249-.128.084-.186-.0509-.306-.188-.193-.256.271-.0441.056.159.214-.195-.049-.103-.039-.013-.07-.191.322-.502.07-.324-.146-.521.137-.034.363.183.163.18.005.247.153.19.221.457Zm1.113-.943-.3169.064-.227-.063L3.994,5.931l.097-.085.213-.071.343-.007.15.084.018.037ZM10.319,8.48l.019.155L10.15,8.604l-.2781.061-.1.002.062-.107.193-.144.01-.137-.239-.198-.277-.493-.13-.117-.062-.186-.233-.199.048-.106.048-.025.157.051.356.71.023.068ZM3.725,8.328l.005.07-.278.193.202.138.19-.3.151.244.083.456-.014.08.014.0679.029.0871.007.126-.154.397-.554-.041-.013-.335-.086-.065-.129-.479-.173-.154-.241-.394.14-.102.187.034.096-.048.259-.038.157-.054Zm9.06.555-.223.331-.1189-.028.0669-.417.154-.066.061.004ZM9.319,10.767l-.117.018-.209-.081-.491-.37-.228-.032.075-.209.174.073.396.319.149.16Zm2.313,1.687-.018.078-.354-.605-.446-.147-.256-.146.053-.083.178-.036.03-.192-.076-.208-.2349-.42-.132-.285-.061-.066-.018-.239.2789.371.116.329.1871.322.125.554.357.188.2569.268Zm2.197.517.064.054-.1789.122-.4031-.15-.091.011-.08-.16-.031-.1181.02-.109.24.0841.129.157ZM13.41,14.51l-.197.091.044-.156.3771-.265.209-.233.119-.083.042-.064.1659-.086.0831-.15-.0231-.123-.173-.203.0021-.143.06-.101.292-.047-.077.152.115.43-.388.535-.332.1659Zm3.272-.649.174.043.095-.003.3211.09.191.125.043.051-.103.111-.295-.21-.258-.027-.362.005-.145-.04.097-.226Zm.3511,2.775-.374.147-.038-.173.191-.139Zm-.3121.942-.089.219-.2969.418-.663.105-.73.02-.056-.114-.0159-.1.053-.157-.005-.062-.03-.063.268-.067.174-.194.277-.0329.345.137.186.005.275-.15.221-.3251.131.042Z" fill="url(#radial-gradient)"/></g></g></svg>