<svg xmlns="http://www.w3.org/2000/svg" xmlns:xlink="http://www.w3.org/1999/xlink" width="9.387" height="5.067" viewBox="0 0 9.387 5.067"><defs><radialGradient id="radial-gradient" cx="4.6935" cy="2.5335" r="3.7714" gradientUnits="userSpaceOnUse"><stop offset="0" stop-color="#ffd496"/><stop offset="1" stop-color="#f29d25"/></radialGradient></defs><title>BT</title><g id="Layer_2" data-name="Layer 2"><g id="Layer_1-2" data-name="Layer 1"><path id="BT" d="M8.119,1.744l-.016.071-.079.191-.052.206.043.17.178.201.239.161.303.012.28-.062.111.026.152.269.109.232-.148.24-.08.21-.028.149.018.065.09.12.105.206.015.189-.067.125-.144.062-.154-.018-.127.003-.158.022-.248.069-.23.09-.433-.016L7.625,4.55l-.081-.001-.393.242-.429-.043-.78.081-.327.019L5.28,4.821,5.11,4.77,4.796,4.6,4.51,4.477l-.29.113-.103.021-.232.29-.505.096-.503.07-.149-.038-.284-.018-.01-.068.009-.066-.065-.052-.115-.054-.198-.023-.254-.072-.146-.069-.516.102L.848,4.556.506,4.345.333,4.254.271,3.928.21,3.823.075,3.712,0,3.582l.061-.133L.401,3.2l.027-.059.158-.464.219-.17.216-.235.163-.374.314-.385.346-.395L2.082.796l.157-.15L2.565.485,2.837.39,3.026.175,3.253.054,3.486,0l.347.03.326.076.358.108.041.087L4.527.453,4.476.609,4.475.688l.054.044.35.03L5.308.738l.24.021.536.143.156.101.164.077.161-.013L6.767.901,6.98.761,7.112.738l.095.045.17.134.354.126.314.095.103.09-.036.387Z" fill="url(#radial-gradient)"/></g></g></svg>