<svg xmlns="http://www.w3.org/2000/svg" xmlns:xlink="http://www.w3.org/1999/xlink" width="26.345" height="27.387" viewBox="0 0 26.345 27.387"><defs><radialGradient id="radial-gradient" cx="13.1725" cy="13.6935" r="13.4355" gradientUnits="userSpaceOnUse"><stop offset="0" stop-color="#ffd496"/><stop offset="1" stop-color="#f29d25"/></radialGradient></defs><title>BW</title><g id="Layer_2" data-name="Layer 2"><g id="Layer_1-2" data-name="Layer 1"><path id="BW" d="M14.822.018l-.055.145-.043.211.052.158.112.212.162.185.124.11.147.273.148.342.194.266.569.61.063.219.079.217.358.417.056.139-.024.283.368.852.242.498.205.092.655.531.572.428.669.289.491.19.243.139.122.133.098.256.051.446.017.288.528-.011.437.026.153.058.057.082-.013.19.006.284.02.229-.045.244-.031.288-.021.358.067.139.423.451.177.292.189.443.11.142.089.057.382.048.983.186.606.17.481.175.201.046.097.047.033.043-.06.386.021.125.054.112.082.088.099.054.365.042.22.235.138.109-.659.059-.327.196-.189.352-.298.259-.405.165-.428.113-.452.062-.482.303-.511.545-.261.343-.011.142-.114.122-.219.103-.124.125-.028.145-.117.069-.204-.006-.144.107-.083.218-.18.133-.28.047-.241.123-.203.2-.155.102-.11.003-.171.163-.277.386-.046.179-.38,1.458-.208.173-.402.301-.326.361-.14.213-.153.095-.748.178-.277.095-.337.138-.084.124-.083.454-.232.65-.188.481-.122.419-.212.521-.184.175-.209.16-.274.079-.373.05-.339-.014-.262.007-.364.184-.34.013-.54-.107-.437-.103-.195-.021-.386-.341-.248.006-.379-.027-.213-.078-.197-.174-.429-.342-.419-.277-.371-.164-.346-.076-.329.068-.256.073-.099.036-.199.143-.203.271-.169.424-.064.26-.188.553-.249.664-.119.191-.138.142-.218.126-.711.529-.356.597-.224.174-.27.081-.229.051-.126.1-.141.302-.122.107-.135.041-.407-.036-.13-.031-1.078.059-.329-.095-.233-.039-.367.126-.154-.083-.123-.251-.06-.504.019-.428.2-.323.166-.236.163-.309.021-.138-.033-.124-.032-.253-.018-.26-.231-.566-.284-.749-.383-.833-.119-.229-.24-.361-.888-.686-.136-.093v-.74l-.001-.878L.006,18.45l-.001-.874-.001-.873-.001-.87-.001-.869v-.867l-.001-.865L0,12.502H2.788l.024-.115v-.535L2.81,10.628,2.808,9.407,2.806,8.19,2.805,6.976l-.002-1.21L2.801,4.558,2.799,3.354,2.798,2.151l-.001-.592.726-.036.833-.121,1.352-.196L6.967.962,7.789.82,8.763.651,9.098.622l.091.023.132.058.452.598.282.456.057.196.054.021.133-.032.15-.073.459-.455.096-.119.293-.22L11.652.85l.322-.159.323-.132.149.033.176.114.156.071.734-.551L13.84.099,14.702,0Z" fill="url(#radial-gradient)"/></g></g></svg>