<svg xmlns="http://www.w3.org/2000/svg" xmlns:xlink="http://www.w3.org/1999/xlink" width="26.76" height="23.12" viewBox="0 0 26.76 23.12"><defs><radialGradient id="radial-gradient" cx="13.38" cy="11.56" r="12.5032" gradientUnits="userSpaceOnUse"><stop offset="0" stop-color="#9b0400"/><stop offset="1" stop-color="#4c0200"/></radialGradient></defs><title>BY</title><g id="Layer_2" data-name="Layer 2"><g id="Layer_1-2" data-name="Layer 1"><path id="BY" d="M13.956.015l.383.437.09.017.213-.172.042-.011.44-.015.204.152.152.296.14.236.152.064L16.2.722l.237-.099.156.003.549.267.258.146.059.132.006.156-.07.231-.055.251.167.296.194.201.415-.332.153-.092.167-.003.224-.123.162-.186.155-.064.297.044.536-.044.625.291.054.09.312.34.109.169.103.054.166.166.223.104.154-.032.074.055.069.13.005.222-.022.632-.109.182-.115.148-.029.115.011.139.177.272.228.421.053.243V5.43l-.311.536-.103.125-.072.263-.038.267.022.111.52.424.385.229.086.112.008.07-.204.453-.02.122.308.187.171.295.15.48.293.459.631.406.459.264.096.12.033.142-.035.313-.119.381-.081.211.187.088.481-.024.585.074.701.418.002.187-.072.171.048.179.076.152.607.465.058.135.01.226-.016.165-.168.034-.187.077-.305.198-.12.279-.494.384-.304.174-.243.007-.578-.078-.203-.189-.084-.174-.222-.079-.295-.007-.407.03-.083.053-.067.213-.173.365-.124.205.102.126.162.262.252.332.26.295.083.18-.004.129-.123.151.018.304.252.399-.085.064-.026.489.003.521.068.126.135.104.115.19.191.432.013.113-.532-.032-.639.013-.359.251-.14-.058-.25-.064-.277.14-.378.423-.254.263-.247.368-.078.199-.156.366-.143.418.078.292.117.271.026.292.058.228-.156.166-.091.239-.266-.042-.326-.229-.069-.332-.251-.231-.165-.121-.272-.018-.435.108-.569.083-.429.022-.234.118-.346.116-.134-.138-.192-.377-.157-.376-.109-.165-.094-.046-.116.009-.133.119-.1.123-.141.043-.218.099-.159.134-.174.346-.115-.024-.119-.08-.137-.387-.188-.089-.301-.005-.373-.082-.303-.118-.11.028-.181.165-.194.024-.428-.147-.083.068-.113.217-.133.209-.116.021-.065-.054.036-.371-.248-.131-.418-.021-.294.054-.143-.015-.074-.072-.36-.625-.19-.04-.341.031-.503-.076-.58-.141L9.2,20.652l-.165-.141-.357-.048-.96-.265-.391-.047-.577-.004-.878-.059-.563.033-.261.088-.301.055-.509.048-.207-.005-.326.029-.374.071-.107.131-.123.289-.43.498-.417.33-.076.028-.244-.175-.203-.059-.239-.019-.169.056-.106.083.014.383-.024.033-.184-.454.015-.412.102-.236.125-.213-.051-.319.122-.423.004-.307-.054-.132-.099-.153-.272-.17-.12-.133-.368-.178-.365-.221L0,18.498l.017-.093.064-.142.279-.415.302-.404.193-.162,1.025-.52.158-.182.04-.308.002-.224-.019-.4-.063-.57-.078-.394-.196-.742L1.19,12.399.869,10.786l.209.095.49.035.389-.111.202-.016.18.036.268-.064.245-.026.127.145.228.128.451-.184.399-.229.414.025.059-.113.103-.575.123-.126.495.058.183-.104.192-.284.292-.178.244.001.254-.2.125.134.061.239-.084.19.036.075.176.094.301-.003.193-.078.045-.109V9.443l-.048-.185-.128-.159-.24-.083-.167-.002-.028-.102.057-.217.148-.402.182-.363.111-.137.019-.127-.021-.22L7.15,7.049l.163-.56.22-.418.295-.137.361-.073.231-.2.114-.23.043-.195.055-.168.115-.074.868.046.133-.363.075-.101.166-.108.116-.129-.043-.1L9.84,4.175l-.522-.057-.105-.121.033-.145.139-.376.133-.486.069-.377.007-.223.075-.06.425-.071.143-.076.366-.516.279-.088.721.133.33-.01.09.012.33.023.036-.052.148-.511.146-.149L13.25.35l.381-.287L13.872,0Z" fill="url(#radial-gradient)"/></g></g></svg>