<svg xmlns="http://www.w3.org/2000/svg" xmlns:xlink="http://www.w3.org/1999/xlink" width="4.068" height="7.574" viewBox="0 0 4.068 7.574"><defs><radialGradient id="radial-gradient" cx="2.034" cy="3.787" r="3.0396" gradientUnits="userSpaceOnUse"><stop offset="0" stop-color="#ffd496"/><stop offset="1" stop-color="#f29d25"/></radialGradient></defs><title>BZ</title><g id="Layer_2" data-name="Layer 2"><g id="Layer_1-2" data-name="Layer 1"><path id="BZ" d="M2.644.029l-.15.334.15.043L2.78.375l.329.012.126.366-.033.307-.31.808-.039.277-.141.415.191.273-.179.362-.061.234-.014.352.09.668-.145.962-.256.42-.159.159-.284.417-.373.124-.517.671-.091.176.05.19L.843,7.57.348,7.539l-.335.035L0,7.557l.027-.721L.07,5.719l.031-.821.03-.804.023-.603.031-.822.027-.71L.209,1.704.29,1.502l.233-.084.302.176.126.073.113-.042.144-.107.176-.311L1.826.564,2.003.107,2.176.016,2.426,0Zm.968,1.607L3.479,1.69l.11-.169.016-.108.154-.452.11.0021.0291.04Zm.275,1.47-.216.409-.014-.1171.09-.303.122-.1059.076-.112.017-.132.106.064-.027.13Z" fill="url(#radial-gradient)"/></g></g></svg>