<svg xmlns="http://www.w3.org/2000/svg" xmlns:xlink="http://www.w3.org/1999/xlink" width="53.493" height="52.69" viewBox="0 0 53.493 52.69"><defs><radialGradient id="radial-gradient" cx="26.7465" cy="26.345" r="26.5465" gradientUnits="userSpaceOnUse"><stop offset="0" stop-color="#ffd496"/><stop offset="1" stop-color="#f29d25"/></radialGradient></defs><title>CD</title><g id="Layer_2" data-name="Layer 2"><g id="Layer_1-2" data-name="Layer 1"><path id="CD" d="M42.629.568l.102.196.145.201.486.34.154.189.119.21.075.164.15.131.21.084.18.1.11.147.165.153.318.208.155.005.179.029.158.055.169-.016.273-.136.322-.228.246-.141.595.05.332.115.264.161.206-.01.449-.298.238-.317.231-.068.35.138.289.296.254.43.179.164.245.254.487.547.634.274.246.135.08.135.047.18.016.195.077.081.171-.028.146-.028.161.056.112.142.056.111.061.119.159.076.031.153-.109.186-.112.167-.136.332-.071.34.092.113.097.094.052.095.031.111-.012.13-.216.472-.111.412-.004.209.285.154.37-.008.117.094.117.15.103.077.156-.002.108.052.043.106.126.114.106.126-.051.161-.009.123-.264.342-.606.667-1.304,1.237-.001.001-.44.149-.227.23-.161.361-.38.306-.293.124-.031.073-.023.332.03.487-.137.223-.199.434-.103.271-.08.053-.089.136-.056.442-.038.149-.143.915.041.261-.111.435-.005.256-.046.29-.079.251.005.402.045.656-.008.087-.11.061-.196.163-.185.109-.141.028-.235.29-.2.275-.15.268-.039.123.031.347.021.411-.046.177-.07.105-.328.223-.216.16-.102.084-.053.129.095.304.007.222.078.131.26.106-.001.107.007.115.136.143.248.292.199.274.005.238-.038.398-.007.229.02.314-.001.584-.014.416.032.216.304.515.134.571.067.418.003.133-.103.481-.117.467-.007.177.055.236.217.54.158.393.076.237.109.276.145.423.036.201-.03.15-.296.531-.03.167.073.412.097.398.14.226.334.624.249.211.459.312.405.314.156.163.143.182.282.466.172.379.091.343.221.469.206.435.266.532.188.376.085.251-.486.075-.703.107-.775.119-.8.122-.793.122-.752.115-.683.104-.208.058.102.296-.047.311-.135.241-.214.296-.097.118-.218.231-.182.163-.371.274-.234.157-.002.142.394.664.179.477.073.431-.004.248-.015.51-.018.607-.027.239.107.433-.019.338-.265.378-.074.371-.134.501-.185.696-.132.366.073.238.066.16.07.215.142.324.166.191.093.082.546.409.227.197.346.392.256.26.356.061.427.098.236.076.162-.037.055-.092-.008-.196-.028-.144.045-.111.145-.073.371-.012.161-.098.128-.024.001.43v.412l.001.501v.575l.001.472v.502l.001.58-.003.065-.057.131-.147.045-.199-.113-.012-.119-.049-.213-.092-.109-.121-.034-.204.055-.28.157-.359.138-.146.079-.253-.01-.274-.075-.201-.177-.058-.265-.177-.272-.24-.394-.121-.161-.16-.184-.162-.021-.181-.051-.111-.269-.104-.34-.064-.131-.108-.169-.155-.103-.338-.136-.472-.189-.594-.238-.282-.012-.316-.04-.198-.113-.113-.09-.13-.33-.178-.386-.521-.459-.117-.508-.105-.073-.179.041-.138.063-.055.137-.139.458-.077.211-.052.059-.114.068-.186.062-.265.031-.374-.012-.468-.068-.252-.051-.683-.076-.198-.037-.279-.1-.201-.1-.662-.216-.301.026-.145-.153-.131-.075-.18-.144-.08-.197-.107-.423.026-.226.077-.252-.086-.07h-.12l-.172.087-.305.049-.559.111-.198.062-.219.048-.168.043-.42.243-.146.026-.249-.087-.12-.13.12-.147.051-.183-.085-.357-.129-.165-.372-.118-.143-.011-.06-.2-.103-.182-.212-.035-.102-.021-.106.056-.06.147-.017.113-.189.086-.386-.017-.383-.082-.269-.027-.179.021-.684.279-.225.037-.734-.021-.416-.059-.296-.01-.21.087-.262.207-.219.111-.101-.012-.062-.087-.086-.118-.027-.312-.109-.341.072-.179.216-.128.075-.264-.067-.396-.004-.278.058-.161-.078-.39-.216-.619-.305-.503-.394-.389-.258-.371-.122-.355.046-.849.119-.747.094-.593-.027-.993-.267-.646-.058-.694.151-.742.022-.508-.1-.26-.068-.039-.086-.026-.675-.025-.899-.033-.784-.01-.851-.01-.139-.094-.063-.173.003-.171.174-.524-.025-.043-.302-.011-.82.085-.541.084-.343.028-.603.143-.373.302-.122.379.01.313-.021.229-.17.239-.134.275-.005.145-.082.732-.556.098H18.89l-.13-.009-.687-.175-.255-.001-.218.092-.421.09-.402.066-.405.217-.108.019-.269-.113-.376.011-.381.054-.178.024-.123-.066-.35-.546-.466-.727-.253-.456-.094-.119-.162-.157-.222-.297-.092-.282.039-.267-.13-.36-.299-.453-.197-.432-.094-.413-.023-.352.047-.294-.057-.216-.163-.139-.088-.177-.064-.073-.135-.167-.297-.184-.326-.097-.716-.002-.935-.003-.847.014-.942.016-.954.016-.257.024-.728.011-.583-.047-.216-.03-.38-.023-.6-.005-.325.018-.778.001-.071.004-.123.052-.332-.072-.326.024-.182-.08-.4.05-.194.066-.311.233-.467.121-.173-.01L.556,31.55l-.271-.256-.21-.246L0,30.911l.117-.034.367-.052L.76,30.8l.054-.065.042-.76.01-.771-.098-.102L.672,29.04l-.004-.053.143-.097.199-.113.064-.051.22-.204.435-.472.331-.116.308-.124.043-.045.041-.092.138.007.044.044.068.1.121.14.219.166.22.179.11.023.177-.091.206-.135.303-.098.072-.092.039-.197.024-.21.026-.248.062-.034.109-.024.201.07.092.073h.165l.105-.066.192-.122.244-.049.261-.118.251-.15.118-.014.125.197.112.137.02.086-.112.164-.125.216.105.269.025.261-.003.158.085.064.058.03.09-.037.179.011.215.082L7,28.456l.2-.101.373-.392.545-.684.452-.429.357-.175.242-.204.127-.235.208-.159.434-.127.33-.144.33-.469.44-.844.123-.753.075-.458-.043-1.579-.029-.518.067-.282.164-.194.448-.411.301-.337.23-.394.441-.899.194-.29.087-.13.266-.239.373-.211.48-.181.741-.626.589-.63-.08-.757.138-.628.321-.798.105-.845-.11-.891.046-.729.308-.847.128-.315.043-.515-.002-.819.391-1.12.37-.672.414-.75.158-.454.21-.606-.033-.487-.038-.56.104-.77-.039-.453-.147-.394.075-.249.297-.101.37-.394.664-1.029.716-.502.498-.159.519.017.339.09.156.162.393.243.628.321.47.402.26.405.202.22.25.076.409-.033.457.095.476.227.293.084.108-.059.23.033.526.186.419-.102.621.077,1.442.332.077-.056.034-.013.123-.134.313-.665.265-.409.124-.154.306-.216.36-.055.345.019.289.095.264.11.292.001.299-.106.444-.195.468-.127.402-.14.662-.245L33.976.89l.329-.044.922.224.597-.148.244.043.517-.159.094-.107.329-.541L37.358,0l.53.08.298.084.992.231,1.288.241.379.037L40.999.7l.134-.038.423-.304.143-.043L41.82.32Z" fill="url(#radial-gradient)"/></g></g></svg>