<svg xmlns="http://www.w3.org/2000/svg" xmlns:xlink="http://www.w3.org/1999/xlink" width="36.406" height="24.516" viewBox="0 0 36.406 24.516"><defs><radialGradient id="radial-gradient" cx="18.203" cy="12.258" r="15.5179" gradientUnits="userSpaceOnUse"><stop offset="0" stop-color="#ffd496"/><stop offset="1" stop-color="#f29d25"/></radialGradient></defs><title>CF</title><g id="Layer_2" data-name="Layer 2"><g id="Layer_1-2" data-name="Layer 1"><path id="CF" d="M23.656.217l.198.353.095.124.818.834.158.198.405.605.248.408.285.587.027.319-.037.272-.057.773-.074.222-.359.416-.016.187.075.156.108.064.068.077-.041.36.129.141.269.094.681.064.354.052.279.072.133.035.073.127-.114.415.079.259.233.219.236.093.226.054.788.135.327.152.432.486.542.442.132.234-.024.213-.161.258.025.106.249.259.285.264.522.294.904.461.415.308.141.233.232.254.323.232.217.179-.15.505.045.166.081.144.189.199.075.255.187.319.223.145.373.054.196.148.41.254.396.219.169.15.105.134.09.158.045.158.009.341.068.423.213.289.198.216-.809-.248-.121-.005-.143.043-.423.304-.134.038-.154-.027-.379-.037-1.288-.241-.992-.231-.298-.084-.53-.08-.35.158-.329.541-.094.107-.517.159-.244-.043-.597.148-.922-.224-.329.044-.259.113-.662.245-.402.14-.468.127-.444.195-.299.106-.292-.001-.264-.11-.289-.095-.345-.019-.36.055-.306.216-.124.154-.265.409-.313.665-.123.134-.034.013-.077.056-1.442-.332-.621-.077-.419.102-.526-.186-.23-.033-.108.059-.293-.084-.476-.227-.457-.095-.409.033-.25-.076-.202-.22-.26-.405-.47-.402-.628-.321-.393-.243-.156-.162-.339-.09-.519-.017-.498.159-.716.502-.664,1.029-.37.394-.297.101-.075.249.147.394.039.453-.104.77.038.56-.158-.089-.152-.262-.071-.053-.439.118-.227.106-.121.104-.093.016-.139-.143-.11-.026-.172.026-.177-.002-.114-.019-.076.013-.207-.085-.754-.216L8.59,20.56l-.151.008-.391.188-.207.052-.624.117-.668.057-.256.003-.176.084-.113.117-.077.261-.131.45-.055.121.01.179-.039.301-.019.27.025.181-.189.365-.229.442-.19.379-.192.381-.133-.261-.082-.306-.032-.351.018-.093-.051-.104-.004-.023-.064-.265.065-.185-.053-.193-.156-.19-.141-.146-.082-.131-.067-.056-.155-.02-.209-.068-.277-.286-.268-.278-.344-.356-.275-.308-.338-.377-.312-.349-.187-.336-.076-.193.091-.019.135-.004.057-.035.003-.09-.139-.265-.066-.338-.115-.206-.363-.317-.346-.241-.11-.124L.78,17.825.647,16.707l-.059-.318L.479,16.25.4,16.185l-.03-.079.014-.199.046-.178-.002-.07.094-.156V14.467l-.051-.053-.061-.09-.097.007-.111-.009-.11-.151L0,13.981l.027-.135.096-.112.105-.099.133-.082.393-.166.111-.083.07-.102.046-.138.228-.534.34-.532.145-.11.145-.352.199-.431.08-.201.059-.2.11-.161.374-.266.283-.466.307.025.314.074.403.037.316-.09.205-.182L4.94,9.53l.527-.168.071-.25.155-.131.179-.116.062-.015.013.083.109.261.223.257.327.284.093-.018.203-.215.51-.133.129-.059.362-.313.436-.201.096-.018.157-.053.44-.208.313.028.503-.033.839-.098.606-.033.307-.039.076-.042.119-.301.091-.085.228-.13.446-.454.293-.384.082-.128.007-.01.06-.024.126-.162-.125-.167-.5-.341.007-.046-.028-.058.027-.047.191-.139.257-.158.274-.059.715.012.61-.034.142.008.476-.081.325-.072.334-.164.757.017.63-.418.182-.074.079-.065.024-.064.295-.166.33-.343.261-.309.071-.218.714-.739.249.015.122-.091.283-.494.088-.09.133-.031.161-.056.14-.146.121-.218.001-.269-.055-.216V1.196l.068-.096.114-.097.542-.266.138-.129.082-.116.152-.021.166.012.105-.072L21.904.29,22.28.127,22.628,0l.366.053.298.066.244.077Z" fill="url(#radial-gradient)"/></g></g></svg>