<svg xmlns="http://www.w3.org/2000/svg" xmlns:xlink="http://www.w3.org/1999/xlink" width="21.026" height="24.255" viewBox="0 0 21.026 24.255"><defs><radialGradient id="radial-gradient" cx="10.513" cy="12.1275" r="11.349" gradientUnits="userSpaceOnUse"><stop offset="0" stop-color="#ffd496"/><stop offset="1" stop-color="#f29d25"/></radialGradient></defs><title>CG</title><g id="Layer_2" data-name="Layer 2"><g id="Layer_1-2" data-name="Layer 1"><path id="CG" d="M20.993.584l.033.487-.21.606-.158.454-.414.75-.37.672-.391,1.12.002.819-.043.515-.128.315-.308.847-.046.729.11.891-.105.845-.321.798-.138.628.08.757-.589.63-.741.626-.48.181-.373.211-.266.239-.087.13-.194.29-.441.899-.23.394-.301.337-.448.411-.164.194-.067.282.029.518.043,1.579-.075.458-.123.753-.44.844-.33.469-.33.144-.434.127-.208.159-.127.235-.242.204-.357.175-.452.429-.545.684-.373.392-.2.101-.207.009-.215-.082-.179-.011-.09.037-.058-.03-.085-.064.003-.158-.025-.261-.105-.269.125-.216.112-.164-.02-.086-.112-.137-.125-.197-.118.014-.251.15-.261.118-.244.049-.192.122-.105.066H7.724l-.092-.073-.201-.07-.109.024-.062.034-.026.248-.024.21-.039.197-.072.092-.303.098-.206.135-.177.091-.11-.023-.22-.179-.219-.166-.121-.14-.068-.1-.044-.044-.138-.007-.041.092-.069-.043-.215-.189-.254-.298-.092-.046-.14.005-.222.11-.218.171-.393.158-.328.088-.03.108-.077.186-.108.116-.291.036-.105.166-.251.32-.166.146-.044-.062-.101-.078-.206-.248-.204-.309-.054-.14-.058-.08-.009-.31L1.51,22.66l-.77-.654-.082-.195L0,21.213l.168-.431.125-.2.151-.138.606-.338.092.013.418.439.133.035.149-.012.176.018.087-.086.013-.113-.127-.127-.019-.136.09-.147.05-.164.131-.192.014-.091-.138-.099-.283-.151-.193-.146-.074-.139.053-.178.155-.145-.009-.079-.137-.13-.1-.139-.102-.087-.285-.052.055-.187.104-.276.026-.211L1.25,16.97l.006-.1.078-.051.169.061.171.084.466-.12.162-.019.135.106.185.083,1.072-.231.021-.235.061-.213.008-.159-.044-.103-.053-.077-.032-.16-.001-.171.103-.081.342-.204.106.007.239.112.224.174.2.366.137.316.221.382.467.156.558.099.302-.026.431-.326.244-.254.079-.137.142.071.161.334.103.13.026.124-.072.154.07.099.3.071.263-.067.118-.136.197-.178.002-.15-.106-.097V16.47l.11-.105.106-.288.033-.21.104-.134.197-.093.071-.084.11-.498-.057-.18v-.149l.125-.191.023-.312-.053-.511-.035-.351-.038-.368.096-.483.1-.503-.018-.125-.139-.153-.171-.139-.44-.115-.164-.183-.128-.194-.093-.062-.482-.076-.106-.11.043-.314.043-.463-.017-.321.085-.26L7.913,9.3l.213-.206.112-.243.062-.06.403-.041.146-.101.115-.103.049-.138.138-.229.122-.155.014-.105-.026-.146-.122-.287-.146-.239-.088-.086-.178-.562-.165-.132L8.24,6.395l-.603-.064-.365.101-.555.189-.424.131-.276.074-.162-.02L5.781,6.72l.108-.073.053-.171-.069-.245-.107-.224-.061-.316L5.731,5.3l.104-.368.223-.478.014-.195.673.006.672.006.734-.005.709-.004.553.016.266-.124.253.188.124.041.042-.015.097.132.315-.014.05.03.027.16.292-.004.144.035.117-.004.17-.092.122.03.222.12.158.103.221-.034.512.018.397.099.393.274.263.158.236.234.087-.042.082-.064.046-.028-.003-.2-.132-.341-.051-.289.029-.237.1-.171.171-.103.017-.16.002-.022.192-.381.19-.379.229-.442.189-.365-.025-.181.019-.27.039-.301-.01-.179.055-.121.131-.45.077-.261.113-.117.176-.084.256-.003.668-.057.624-.117.207-.052.391-.188L17.854,0l.129.072.754.216.207.085L19.02.36l.114.019.177.002.172-.026.11.026.139.143.093-.016.121-.104.227-.106L20.612.18l.071.053.152.262Z" fill="url(#radial-gradient)"/></g></g></svg>