<svg xmlns="http://www.w3.org/2000/svg" xmlns:xlink="http://www.w3.org/1999/xlink" width="12.586" height="7.953" viewBox="0 0 12.586 7.953"><defs><radialGradient id="radial-gradient" cx="6.293" cy="3.9765" r="5.2638" gradientUnits="userSpaceOnUse"><stop offset="0" stop-color="#ffd496"/><stop offset="1" stop-color="#f29d25"/></radialGradient></defs><title>CH</title><g id="Layer_2" data-name="Layer 2"><g id="Layer_1-2" data-name="Layer 1"><path id="CH" d="M9.975,1.044l.085.054.2.183-.047.311-.229.5-.121.404-.013.309.023.145.041-.002.218.022h.112l.351.083.281.122.055.129.036.157.335.214.383.139.13-.045.476-.501.184.083.111.266-.005.142-.131.531-.023.285.113.188.012.147-.033.133-.19.012-.255-.072-.215-.229-.163.028-.141.059-.073.216-.064.258.021.143.101.111.078.234.057.304.043.139-.047.062-.134.042-.112-.041-.194-.363-.091-.138-.154-.025-.271.089-.416.203-.169-.001-.142-.041-.134-.172L9.74,5.528l-.036-.209-.079.006-.267-.06-.124.083-.001.34-.024.424-.134.273-.372.472-.136.205-.055.148-.011.128.057.221.077.211-.065.12-.196.063-.139-.128-.053-.228-.301-.312.137-.261-.023-.065-.497-.136-.214-.198-.3-.348-.056-.149.013-.486-.018-.118-.04-.058-.145.004-.203.169-.187.252-.382.285-.04.06.129.277-.006.107-.312.441-.059.145-.395.275-.181.103-.548-.202-.152-.024-.244.135-.346.129-.559.129-.206-.094L2.95,7.569l-.048-.134L2.761,7.2l-.158-.139-.11-.152-.147-.166-.095-.139.126-.446-.092-.156-.047-.224.024-.152-.05-.037-.505-.088-.419.028-.3.149-.245.248-.03.054.016.044.122.227-.207.24-.317.186-.224.019L.004,6.66,0,6.404l.186-.095.168-.167L.41,5.906.43,5.74.254,5.539l.021-.124.11-.234.063-.207.088-.179.349-.293.35-.296.053-.314.028-.383.049-.092.473-.23.118-.091.06-.13.372-.431.368-.428.075-.144.062-.085v-.07l-.047-.054-.175-.035-.06-.137.191-.244.239-.149.232-.003.093.069-.005.081.1.087.176.028.217-.03L4.07,1.33l.133-.217L4.28.948,4.619.76,4.85.855,5.493.88,5.961.829,6.254.701h.363l.244.072L6.904.762,6.972.746,7.038.677,7.268.63l.03-.057L7.289.514,7.248.485l-.283.03L6.858.47,6.83.366,6.921.184,7.129.036,7.305,0l.127.04.309.274.075.009L7.859.274,7.923.246,8.03.3l.12.17.021.026.691-.06h.155l.469.299Z" fill="url(#radial-gradient)"/></g></g></svg>