<svg xmlns="http://www.w3.org/2000/svg" xmlns:xlink="http://www.w3.org/1999/xlink" width="17.116" height="17.927" viewBox="0 0 17.116 17.927"><defs><radialGradient id="radial-gradient" cx="8.558" cy="8.9635" r="8.7631" gradientUnits="userSpaceOnUse"><stop offset="0" stop-color="#ffd496"/><stop offset="1" stop-color="#f29d25"/></radialGradient></defs><title>CI</title><g id="Layer_2" data-name="Layer 2"><g id="Layer_1-2" data-name="Layer 1"><path id="CI" d="M8.647.844l.175.188.222.129.337-.016.244.077.211.145.142.321.155.231.067.33.245.173.192.079.26.239.269.122.278-.028.13.125.208.088.208.006.183-.276.242-.109.611-.22.241-.1.244-.063.588-.02.547.068.271.051.186-.038.176.131.182.275.149.088.152.095.113.217.132.215.072.095.164.212.141.003.139-.092.06-.068.027.14-.055.227.011.141.077.054-.042.181-.161.308-.001.182.16.057L16.713,5l.068.33.069.11.007.068.116.799.143.801-.091.104-.125.031-.081.037-.023.075.053.109-.035.1-.156.069-.339.254-.023.101-.09.216-.075.132-.111.245-.176.648-.065.537-.01.166-.068.115-.077.167-.368.459-.188.375.024.163.009.164-.056.118.01.317.045.265.066.26.267.736.139.447.086.36.076.242.071.098.029.093.396.067.078.053.108.469-.02.212-.078.081.002.1789-.018.223-.058.0881-.222.0109-.151.0841-.198-.034-.019-.055-.107-.02-.294-.127.048-.4071-.136-.0169-.105.0539-.209.488-.1.0841-1.468-.2521-.319-.203-.382-.0459-.666.023-.549.061-.157.123,1.386-.072.149.014.07.074-1.752.161-.668.096-.198-.026-.15-.156-.726-.019-.149.051-.09.115.286-.025.451-.006.121.088-1.412.115-.979.22-.415.163-1.366.535-.833.252-.218.093-.379.2619-.487.1651-.546.308-.333.069-.075-.098-.009-.52-.046-.697.017-.267.044-.251.001-.208.166-.078.044-.087.025-.271.155-.247.003-.43.046-.089.035-.114-.066-.282-.086-.532-.042-.0351-.038.0231-.087.01-.343-.184-.265-.032-.186-.157-.013-.179-.09-.105-.063-.207-.093-.237-.261-.1441-.245-.035-.174.031-.204-.009-.234-.08-.162-.09-.153-.1741-.142-.138-.113.017L.18,11.998l-.136-.063L0,11.886l.568-.554.193-.271.021-.166.002-.167.062-.171.016-.261-.314-.95-.08-.294L.384,8.966.33,8.933l.159-.122.219.032.336.095.073-.094.254-.48-.007-.178-.025-.123.149-.329.118-.127.061-.137-.019-.188-.089-.07-.118.013L1.3,7.179l-.215-.108L.976,6.975,1.01,6.54l.02-.135.076-.078.118-.021.333-.013.27.05.237.029H2.19l.102.129.136.132.12-.001.042-.098-.028-.429-.08-.227-.181-.219-.468-.187-.011-.261.047-.283.101-.105.348-.18-.061-.097-.111-.103-.221-.104L1.976,4l.011-.303L1.8,3.731l-.192.018-.162-.093L1.31,3.472l-.025-.506V2.381l-.026-.259.052-.138.165-.127.18-.165.064-.105.083-.002.216-.063.196-.144.183-.3L2.6451.837l.278.018.082-.044.098-.008.116.159.117.121.083.003.062.229.507.096.217.063.183.167.064.004.077-.035.06-.058.012-.064-.079-.15.035-.135.082-.121.131-.008.197-.034h.226l.168.022.067-.121-.064-.34.017-.188.027-.158.063-.064.251.199.23.072.165.006L6.1631.43l-.07-.217.019-.065L6.1731.11l.108-.022L6.5741,0l.03.017.055.342-.025.112.062.232.076.215-.006.088-.063.133-.074.122.008.05.117.083.224.086.232.02.129-.125.134-.102.093-.091.032-.135.147-.099.42-.124.386-.019Zm6.839,14.913-.077.111-.372-.071.088-.093Z" fill="url(#radial-gradient)"/></g></g></svg>