<svg xmlns="http://www.w3.org/2000/svg" xmlns:xlink="http://www.w3.org/1999/xlink" width="120.673" height="139.5368" viewBox="0 0 120.673 139.5368"><defs><radialGradient id="radial-gradient" cx="60.3365" cy="69.7684" r="65.2232" gradientUnits="userSpaceOnUse"><stop offset="0" stop-color="#ffd496"/><stop offset="1" stop-color="#f29d25"/></radialGradient></defs><title>CL</title><g id="Layer_2" data-name="Layer 2"><g id="Layer_1-2" data-name="Layer 1"><path id="CL" d="M118.544,15.8108l.522.544-.227.74-.363,1.183-.28.917-.046.1229-.058.18-.605.261-.882.38-.452.199-.569.256-.138.209-.165.1129-.181.146-.069.16-.169.101-.153.3611v.2769l.098.1891.17.08.054.228.054.16.1229.126-.031.101-.1.076-.184.0419-.125.2281-.144.566-.023.203.164.513.087.2769.236,1.0071.035.2739-.324.384-.129.233-.046.206.002.163.029.149.27.475.313.425.154.2219v.3l-.077.171-.167.063-.37.117-.154.1711-.169.026-.161-.1371-.168.034-.215.12-.081.292-.188.498-.161.137-.12.381-.214.547-.103.33-.0539.242-.216.1551-.2511.307-.1929.299-.077.087-.146.026-.107.2689-.364.406-.087.472-.132.251-.023.455-.201.834-.037.185-.203.146-.268.324-.087.237.124.71.1539.719.01.337-.06.4589-.041.2.102.083.169.0529.054.1761-.123.124-.054.221-.138.248-.409.098-.144-.089-.046.08.023.177-.091.209-.212.56-.14.509-.081.223.033.187.069.106.007.0981-.116.124-.106.197-.115.027-.123-.053-.13.116-.026.243-.072.309-.033.3611-.053.463.167.318.211.577.158.138.176-.009.138.117.077.135-.103.242-.182.0381-.023.135.0539.307.069.298.1741.143.079.399.169.1359-.021.5121.17.602.18.1749.084.082-.056.264-.143.21-.031.337.054.247.183.233.143.026.204-.095.215.11.031.201.031.183-.115.2379-.123.4391-.033.4379.0361.667.056.519.0119.327.0141.1481-.077.1019-.1871.052-.159.021-.138.083-.031.167-.108.277-.111.206-.195.3-.124.311-.099.205.0091.142-.0711.273-.073.2281-.154.768-.2059.16-.164.079-.0841.103.064.209.174.063.0621.168-.0231.263.115.2441-.011.296.111.56-.1.367.034.318-.003.315-.146.246-.299.047-.165.2269-.281.2471-.031.1989-.046.18-.115.066h-.176l-.146.028-.204.234-.218.126-.05.189.019.23-.115.143-.146.267-.092.286.092.2681.1.479.015.2009-.126.397-.104.256.1.327.084.183-.079.402-.067.253.054.464.2.5219.191.4651.028.542.0491.431.091.467.1919.1859.146.156-.03.225-.107.274-.1539.206-.38.068-.3089.186-.249.129-.189.156-.136.166-.067.182.045.7931-.03.293-.127.416-.119.336-.051.101-.015.149-.023.139-.133.032-.189-.062-.107.04-.077.109.065.26.069.459.096.195-.026.1551-.036.334-.1242.2662-.166-.001-.107.11-.046.19.05.248.218.203.077.13-.039.171-.169.07-.1.141-.095.313-.127.354-.135.262-.026.359.1919.384-.0209.376-.0141,1.105-.019.3759.059.6241-.074.172-.039.164.188.455.209.738.056.294-.03.206-.281.1749-.233.073-.138-.124-.092.051-.107.217-.123.1761-.046.1749.13.2281.069.435-.146.187-.107.208.039.27.046.489-.092.813.124.29.134.139.438.166.329.083.087.271-.037.22-.158.109-.238.0949v.356l.203.3351.23.243.05.2189-.013.224-.161.188.221.407.1011.276-.1011.213-.144.32-.126.1531v.174l-.052.354-.012.347.042.2069,1.387.164.317.064.173.207-.025.26-.173.277-.111.521-.272.087-.272-.139-.295.048-.256.034-.368.015-.489.067-.2991-.077-.025.191.0871.3309.644.1041.606.192.182.351.247.398.252.247.012.403-.396.422-.049.299-.52.088-.148.1761-.074.583.062.46.198.159.136.301-.148.355-.35.245-.187.234.117.187.158.296.044.161.086.438.101.612-.0119.297-.093.222-.348.35-.235.162-.046.433-.018.3239.024.2931.151.234-.012.236-.207.05-.177.113-.173.418-.504.428-.177.192.012.329-.199.471-.167.411-.128.384.025.405.284.178.223.395.099.499-.173.575-.402.217-.2381.245-.0719.186.0629.6049-.017.285-.0629.268-.104.208-.2171.232-.384.203-.3259.14-.146.16-.171.353-.152.39.038.4829-.916.057-.062.36-.198.284-.0621.514.201.497.096.418-.164.505.06.52.018.4149.322.462.21.573.105.485.063.379.084.23.132.261.061.302.198.098.356-.282.251-.1909.175-.068.514.0449.31-.1779.14.0189.189.1.147.21.111.477.068.535-.087.547-.145.119-.049.157.049.335.161.2361-.003.338-.178.7689-.116.3171.206.3579.184.319.371.238.305.338.21.28-.05.38.147.115.567.008.847.013,1.324.019,1.292.019,1.467.027.695.306.629.277h.792l.791.328.587.2169.352.081.361.079.05.303-1.583-.43-.3551-.234-.301-.027-.578.292-.319.697-.1669.198-.401.188-.404.037-1.357.679-.483.058-.33.181-.322.26-.124.561.05.342-.367,1.229-.091.688-.002.351.105.575-.135.987-.244.216-.603.277-.41-.201-.702-.18-.5-.381-.643-.2689-.206-.1581-.568-.76-.061-.251-.041-.317.3-.451.161-.033.47.014.391-.073.25.242.069.528-.11.282-.1.174.031.133.281-.185.143-1.182.955-.586.313-.342.305-.526.047-.15.023-.197-.203-.162-.451-.215-1.432,1.103-.649.291-.418.317-.506.57-.096.169-.107.38-.051.419-.499-.1909-.762-.606-.153-.222.153-.31.232-.258.016-.863.059-.302.161-.241.292-.265.145-.0621.123.115.016.2021.4859-.0151.943-.7609.388-.018.512.17.578-.103.104-.077.12-.178-.431-.209-.413-.106-1.161-.073-.251.081-.344.401-.114-.1-.073-.203-.394-.143-.189.029-.181.193.029.301-.101.322-.365.32-.248.51.012.398-.02.2069-.091.11-.188.132-.605-.09-.342-.418-.133-.285-.387-.309.84-.383.295-.218.27-.485.201-.309-.143-.216-.168-.001.016.345-.185.2819-.387-.1339-.571.419-.351-.112-.572.123-.28-.226-.06-.2861.101-.2979-.105-.5041-.158-.122-.161.028-.072-.299-.174-.525-.077-.142-.083-.243.086-.06.197.069.172.158.262.02.577.342.24-.082.13-.078.0491-.284.0029-.269h.099l.3281.344.208-.0319.368.091.187-.037.345-.128.543-.378.282-.39.135-.053.167.05.112.112.002.271.127.252.173.205.048.252-.035.247-.309.3481-.058.1209.104.1291.128-.061.176-.172.1-.236.027-.123.011-.176-.013-.214-.251-.607-.032-.1371v-.2739l.286-.253.081-.196.013-.379-.148-.261-.614-.6-1.026-.6-.118.063-.08.109.095.078.136.04.914.495.238.287.156.077.185.19-.047.28-.921.274-.73.594-.546.361-.379-.132-.18-.366-.191-.473-.287-.2751-.163.0251-.131-.0511-.104-.146-.221.121-.486-.327-.141-.143.356-.46.392.177.095-1.287-.122-.291-.51-.3171-.25.0411-.342-.0431-.23-.145-.2619-.058-.222-.085-.29-.196-.35-.105-.473-.809-.203-.4229-.11-.462.724-.01.424-.075.103-.191-.149-.367-.208-.287.152-.271.217-.209.226.093.557.466.096.315.396.964.096.087.047.09.819.542.115-.008-.051-.454.236-.616.229-.203.115.002.012-.103-.223-.255.109-.341-.071-.011-.197.219-.396,1.072-.243.196-.333-.486-.189-.351-.093-.1241.033-.5479.66.111-.227-.18-.77-.315-.192-.153-.143-.057-.256-.37-.318-.313.548-.563.2821-.395.8819.21.171-.122-.148-.289-.174.088-.275-.18-.428-.538.015-.273.078-.502.17-.1061.36-.104.411.1631.179.132.155-.063-.157-.37-.268-.141-.299-.264.031-.292.096-.241.072-.263.05-.369-.027-.287.085-.132.132-.06.008-.107-.26.022-.094.362-.036.331-.185.2659-.079.3011-.047.36-.103.414-.225-.1581-.132-.1619-.051-.11.0231-.211-.061-1.3011-.0061-1.0819.115-.839.318-.333.145-.097.132.043.203-.003.134-.1209-.456-.2-.276.1141-.205.16-.369-.12-.07-.429-.218-.37-.038-.473.017-.682.517.059.421.133,1.113-.011.914.653.4031-.0869-.0191-.1321-.3089-.1649-.192-.365-.113-.106-.053-.219-.0181-.256-.2269-.936-.091.024-.087.32-.189.535-.2641.261-.4039.1049-.399.06-.347-.103-.081-.222.009-.257-.15-.126-.392-.11-.111-.063-.129-.2311.187-.351.153-.209.188.042.178.095.228.274.224.053.255-.219.05-.148-.16-.093-.146-.037-.227-.1161-.446-.419.223-.425.526-.486.161-.111-.139-.409.158-.446-.162-.367-.292-.395-.395-.087-.084.115-.014.162.063.122-.037.088-.09-.003-.501-.0869-.336-.263-.548-.2391-.071-.187-.06-.274.192-.4719-.097-.0071-.356.365-.538.191-.396.063-.174.148-.069.123.105.072.229.018.167.458-.042.1761-.082.1179-.186.023-.389-.3159-.205-.359.005-.284.139-.3871.617-.5189.171-.219.362-.242.483-.5461.422-.3029-.205-.25-.216-.376.022-.521.852-.206.3693.0932.471-.016.263-.124.191-.027.402-.143.173-.202.041-.154-.002-.134-.047-.166-.065-.428.066-.143.172-.17.226-.053.104.013.268.156-.054.222-.107.2671-.2189,1.065-.11.241-.173.209.115.437-.1731.307-.772.327-.1019.019.058.117.447-.028.346-.069.343-.276.108-.42.142-.817.186-.115.217-.026.113.192-.037.4311-.001.417-.288,1.241-.348.5-.039.132.014.156.276-.023.21-.269.152-.344.152-.478-.017-.345.046-.213.063-.697.105-.352-.007-.491-.19-.185-.266-.112-.067-.3.139-.591.508.015.481-.402.315-.146.179.03.629.388.125.005-.02-.14-.098-.099-.248-.131-.456-.416-.614-.068.113-.539.119-.4911.298-.068.5-.161.953-.734.166-.551.045-.618-.459-.161-.487-.403-.393-.214-.348-.269.068-.401.045-.652.437-.14.203-.892-.293-.681.07-.506.3819-.431.068-.298.105-.327.336-.0331.008-.1779-.03-.324-.221-.382-.009-.528.208-.623.3341.043.0639-.026-.237-.376-.1929-.413.0329-.165.185-.14.214-.078.232.211.332.674.05-.173-.134-.6859-.11-.8511-.35.1111-.321-.06-.121-.131-.12-.191.113-.233.113-.1729.235-.2181.488-.077.353-.273.118-.561-.116.055-.191.494-.322.167-.164-.025-.193-.092-.38-.43-.21-.1-.204-.011-.175.109-.446.758-.19.128-.785.061-.288-.0881-.312-.117.038-.187.095-.199.177-.103.003-.114-.244-.029-.281-.209-.125-.265-.059-.474-.252-.747-.05-.534.178-.38.382-1.486.117-.754.205-.6611-.004-.435.53-.3969.202-.237.45-1.331.066-.715-.714-2.157-.11-.41-.035-.509.17-.842.02-.3189-.146-.46-.407-.75-.008-.3821.171-.392-.166-.486.081-.3.089-.235.638.126.29-.06.155-.142.121-.397.061-.62.038-.267.055-.389.313-.156.108-.368.262-.512.27-1.426.267-.3511.27-.404-.103-.598.174-.276.16-.201.141-.364.192-.344.457-.493.116-.601.355-1.0349.07-.662.11-.447-.032-.4161.213-.505.205-.425.064-.236.467-.56.079-.447-.167-.303-.003-.468-.13-.647.301-.242.122-.177.392-1.03-.025-.403.113-.5-.258-.591-.036-1.324-.144-1.015-.238-1.069.022-.596-.145-.74-.009-.426.111-.964.755-.605.147-.677.09-.912-.031-.663-.074-.297-.372-.487-.094-.869.072-.227.308-.244.217-.338.112-.524.226-.412.089-.994.191-.789.095-.275.3-.345.056-.092.046-.263-.014-.62.046-.378.239-.743.028-.343.265-.762.06-.547.113-.288-.044-.324.075-.724-.18-.408-.04-.238.227-.739.154-.18.249-.343.105-.385.019-.244-.318-1.2131-.043-.413.078-.959.109-.618-.036-.492.036-.2529.055-.3171.218-.3839.05-.273-.077-.1141-.259-.1389-.214-.3481-.015-.343.069-.25.016-.353.318-.069.17-.196.161-.366.203-.885.087-1.095.121-.658.085-.325.072-.678.118-.443.021-.408-.023-.311-.305-1.577.01-.579.129-.8969-.002-1.261-.026-.294-.115-.2751-.034-.374-.184-.648-.166-1.299-.0029-.685-.072-.58-.159-.154.114-.035.267-.024.276-.0009.35-.123.373-.2281.243-.331.104-.302v-.265l-.109-.3369-.03-.238.129-.114.341-.044.276-.225.212-.196.044.332.385.446.125.502.087.063.529.2509.009.0591-.077.0939-.077.1221.054.171.096.235.032.218.059.225.058.3449.035.313.135.461.027.285.0021.172.105.168.205.202.277.203.22.237.168.1611.204.1309.157.121.062.083.021.067-.068.0641-.248.3129-.346.477.006.058.331.343.053.136-.004.192-.111.2311-.357.073-.08.0629-.01.074.082.098-.013.2281.129.252-.066.086-.132.116-.003.114.043.126.1391.103.55.354.043.049-.008.037-.213.237-.022.146.006.2411.03.156.069.065.276.073.341.542.328.5109-.0039.44.0339.514.2081.404.0289.323.07.368.2479.224.097.442.025.236-.015.1551.193.4819.022.415-.046.298.002.167.027.117.166.105.073.066.244.0289.357.0071.611-.11ZM.433,29.1138,0,29.2108l.014-.173.109-.15.32.086.15.0159Zm85.53,21.082-.503.072-.017-.021.029-.059.115-.103.14-.125.03-.0041.052.01.058.023.15.084.044.0579-.016.048Zm14.118,34.733-.211.081-.197.02-.2-.059-.35.005-.348-.15-.327-.2119-.091-.123.04-.176.235-.407.224-.768.149-1.097-.12-.415.015-.171.055-.207.027-.212-.017-.2139.028-.198.247-.417.037-.187.007-.2031.107-.419-.033-.1389-.091-.117.074-.1031.858.307.57.071.03.318.11.25.065.448.089.102-.046.321-.263.139.023.296.151.279-.22.1-.238.06-.055.078-.172.0609-.209.1551.063.138.263.3129.294.2181.161.326.209.341-.102.2169-.191.308-.305.205-.281.123.033.507Zm-2.512,1.009-.397.068-.09-.115.001-.098.068-.08.204-.053.133.066.07.094.022.086Zm2.408.849.059.191-.124.026-.198-.03-.096.151-.049.03-.455-.134-.071-.06.009-.199.485-.017.3089-.127.043.02Zm.211,2.21-.138.168-.218.03-.339.195-.036.169-.017.208.234.251.116.292.139.438.101.418-.009.1291.025.218.167.338.016.153-.019.152-.067.282-.053.038-.165.028-.013.171-.041.0561-.47.018-.232-.078.028-.5151-.297-.202-.204-.34-.23-.586-.193-.18-.225-.462-.334-.394.385-.25-.06-.4359.225-.149.338-.156.249.123.224-.0431.1-.104-.03-.4439.071-.349.247-.18.266-.021.1.197.1311.194.3219.153-.001.2Zm2.103,1.514-.68.315-.341-.106-.132-.232-.064-.195-.07-.33.116-.177.25-.2541.092-.164.045-.193-.016-.18.032-.172.147-.06.503.192.522.288.186.199.035.159-.228.351-.1459.289Zm-1.813.163-.092.045-.083-.0071-.085-.135-.028-.178-.183-.2659-.052-.125.004-.15.105-.215.156-.059.105.008.127.253.037.275.033.284Zm-3.958.271-.07.064-.087-.019-.072-.125-.05-.214.098-.081h.078l.087.114.045.1841Zm2.048,3.186-.156.178-.272.085-.27-.139-.326.065-.034-.305.122-.25.247-.297.179-.3969-.021-.56.147-.128.079-.197.313-.121.071.416-.084.744.211.44.03.147-.041.169Zm-2.244,8.767-.207.054-.024-.136-.187-.226.163-.149.318-.155.241.018.217.118.029.1389-.379.183-.093.101Zm1.529,3.168-.053.101-.346-.062-.599.106-.252-.384-.11-.609-.075-.125-.149-.347-.075-.2269-.152-.352-.059-.369-.038-.1111.137-.219.627-.216.223-.349.191.0461-.053.7119.115.24.213.2.04.082.036.253.107.393.138.185.036.114.006.097-.05.135Zm-2.646.727-.316.005-.079-.756.372-1.086.026-.413-.125-.311-.051-.255.031-.104.475-.215.148.228.177.605.336.87-.008.835-.187.206-.586.211Zm2.902,1.638.026.629-.047.633-.108.78.018.159.126.0381.034.098-.037.412-.067.317-.131.26-.076.312-.07.069-.305.055-.1669-.034-.134-.355-.0391-.218.008-.285-.165-.382-.005-.146.064-.251.133-.124.02-.386.067-.115.151-.159.023-.065-.014-.057-.056-.006-.607.476-.059.135-.027.1791-.007.632-.107.366-.097.07-.2829.016-.374-.037-.4241-.336-.277.093-.057-.408.139-.326.516.028.087-.5789-.164-.136-.182-.232-.108-.213.097-.158.299-.2291.16-.0239.148.128.367-.097-.021-.363-.327-.16.073-.275.413-.263.2471-.265.0109-.301-.1-.3.031-.117.206-.247.288-.1191.131.0171.267.174.238.021.0581.052.043.193Zm-1.769-1.328-.023.338-.415.652-.357.386-.326.306-.208-.003-.171-.147.192-.242.239-.241-.076-.312-.072-.09-.101-.0331-.173-.162.053-.241.101-.115.134-.088.125.052.542-.169.171-.137.33-.023Zm.145,6.298-.549.352-.161-.146-.396.002.104-.381.04-.2789.06-.108.022-.241.119-.4391.328.146.245.0431.332.1459.36.0931.105.382-.35.175Zm-.694,1.69-.08.408-.227-.035-.076-.104-.04-.259-.07-.125.098-.2589.064-.287-.022-.22.348.016.414.057.115.06-.127.194-.121.115-.25.0709Zm2.087,2.654-.006.375-.089.12-.078.036-.197-.114-.113-.013-.187.199-.157.101-.234-.026-.311-.135-.2771.566-.13.19-.271.265-.03-.311.172-.463.08-.315.158-.468.318.176.446-.173.406-.321.351-.002.115.171Zm-.742,1.586.12.879.086.123.286.065.311.448.014.123-.376.765-.08.545-.441-.039-.185-.541-.279-.521-.094-.608-.153-.521.273-.294.261.065.015-.398Zm1.911,1.361-.084.05-.312-.105-.156-.095-.238-.239-.038-.247-.107-.293.069-.0041.249.1161.102.0889.1359.188.4031.269.0509.079-.01.103Zm15.469,3.303-.005,1.375-.005,1.363-.004,1.283-.004,1.292-.004,1.256-.004,1.297-.022,1.464-.016,1.096h-.422l-.111.112-.668.161-1.136-.248-.284-.224-.381-.489-.136.132-.358.207-.368.164-.302.018-.28-.203-.06-.103-.064-.022-.604.281-.668-.287-.532-.175-.855-.099-.594-.36-1.096.031-.197-.119-.073-.352.058-.163.234-.099.065-.195.237.047.307.258.094-.009.203-.243.3-.215.107-.022.551.265.222-.03.318-.119.057-.104.051-.182.084-.106.283-.052.276.104.032.317-.038.34.359.092.436-.011.3.127.038-.2069-.479-.5411-.201-.335-.27-.197-.347-.101-.29-.626.018-.547-.031-.531.626-.291-.144-.452.216-.342.246-.131.248,1.26.178.444-.227.09-.475-.001.265.623.436.214.375.463.008.337.2081.152.502.01.346-.066.163-.225.188-.071.337.279.568.207.153.146.111.244.007.263.0289.14.1651-.068.2359-.357.116-.124.142-.061.09-.08.003-.104-.425-.252-2.224-1.175-.273-.467-.184-.586.0061-.603.1619-.186.397-.237.729-.3339.841-.479.1051-.092-.01-.299-.1051-.201-.334-.147-.349-.037-.333.015-.333.063-.607.317-.344-.02-.327-.171-.242-.342-.125-.461.001-.294.046-.27.148-.275.199-.12.178.016.168-.0641.1-.094.085-.1259-.025-.109-.065-.094-.271-.194-.1069-.187-.232-.301.127-.084.408-.047.285.2069.266.245.163-.0009.1459-.1031.336-.313.2811-.393.256-.4459.207-.2671.236-.024.6929.836.245.031.814-.45.091.024.276.2281Zm-16.153,1.249.046.042.111-.01.155.075.586.0919.524.2181.273.205.359.063.294.261.125.0659.151.021.394.483.022.055.447.382.022.061-.254.021-.515-.178-.257-.01-.186-.055-.043-.031-.037-.221-.059-.109-.495-.509-.206-.111-.357-.099-.406.069-.2739-.065-.0951.023-.4049-.403-.404-.34-.173-.403-.257-.309-.001-.09.118-.069.276.174.272.298.147.113Zm4.105,2.613.076.383.04.073.204-.062.348-.035.57.143.065.0511.242.419.186.179.284.389-.283.26-.167.374-.009.189-.111.11-.174.114-.259.219-.319.024-.314.116-.146.105-.086.007-.102-.057-.109-.108-.035-.125.215-.116.281-.413.05-.428-.303-.077-.181.059-.135-.002-.155-.131-.094.201-.035.193.041.295-.028.096-.11.054-.254-.112-.264-.199-.021-.115.054-.398-.005-.2069-.055-.298-.029-.031-.099.007-.311.057-.311-.381-.168-.402-.572-.115.446-.56.672-.079.228.283.748.195-.045-.3.0119-.107.103-.134.0581-.0109.088.094.144.04.066.092Zm4.301,2.611.622.381.412-.003-.002.2379.05.406-.0651.165-.1539.169-.097.24-.072.037-.453-.29-.473-.396-.238.069-.315-.097-.254.021-.158.224-.368.117-.067-.448-.334-.424-.333-.339.181-.519.216-.083.204-.1729.817.1829.424.1551Zm1.119,4.023.13.308.048.057.346.1209.156-.073.376-.0339.226-.1191.3291-.0609.377.767-.042.234-.298.254-.201.0561-.19-.0771.013-.129-.035-.112-.13-.146-.122.014-.197.108-.094-.014-.199-.119-.349-.0881-.069-.1079-.008-.16-.066-.08-.364-.257-.233-.219-.197-.029-.072.026-.073.104-.177.1-.051-.0171-.057-.083-.029-.12.075-.242.102-.023.497.048.305.112Zm3.617.248,2.251.481.694-.292.549.009.163.401-.557.4229-.042.134.078.108.572.068.145.136.133.176-.113.261-.011.1209.06.1171.429.3959.176.204.089.196.036.344-.008.276-.096.037-.209-.084-.204-.16-.179-.396-.125-.0789-.361-.08-.358-.1929-.279.0109-.257-.0819-.23.072-.082-.13-.099-.263-.002-.114.121-.414-.003-.108-.063-.013-.268.084-.108-.056-.292-.3-.118-.057-.293-.029-.166.53-.009.132.169.338.332.521-.168.01-.48-.16-.123-.1-.148-.263-.285-.152-.1-.094-.029-.11-.003-.341-.063-.05-.405.087-.083-.083-.034-.144-.059-.08-.261-.131-.023-.0819.116-.097.072-.243.102-.874Zm7.361,1.148-.083.188-.177.248-.238.192-.231.0529-.167-.1-.084-.1761-.039-.174-.057-.0949-.088-.021-.114.005-.14.065-.298.251-.128.065-.086.0159-.8479-.1879-.0831-.07-.1-.167-.11-.497-.356-.4421.545-.25.654.001,1.262.191.503.043.3869.42.0611.252Zm1.706.369-.224.215-.167-.014-.054-.078-.018-.098.033-.104.07-.095.164-.119.051-.019.246.118Zm-2.292,2.709-.103.039-.076-.094-.115-.066-.468-.139-.01-.084.049-.12.093-.107.18-.1061.145-.275.065.021.066.112.112.38.135.274-.014.095Zm-.803.562-.102.01-.248-.093-.371-.041-.042-.0381-.009-.073.044-.075.202-.057.609.049.078.034.021.058-.099.165Z" fill="url(#radial-gradient)"/></g></g></svg>