<svg xmlns="http://www.w3.org/2000/svg" xmlns:xlink="http://www.w3.org/1999/xlink" width="21.471" height="32.111" viewBox="0 0 21.471 32.111"><defs><radialGradient id="radial-gradient" cx="10.7355" cy="16.0555" r="13.6571" gradientUnits="userSpaceOnUse"><stop offset="0" stop-color="#ffd496"/><stop offset="1" stop-color="#f29d25"/></radialGradient></defs><title>CM</title><g id="Layer_2" data-name="Layer 2"><g id="Layer_1-2" data-name="Layer 1"><path id="CM" d="M19.497,15.749l-.283.466-.374.266-.11.161-.059.2-.08.201-.199.431-.145.352-.145.11-.34.532-.228.534-.046.138-.07.102-.111.083-.393.166-.133.082-.105.099-.096.112-.027.135.092.19.11.151.111.009.097-.007.061.09.051.053v1.036l-.094.156.002.07-.046.178-.014.199.03.079.079.065.109.139.059.318.133,1.118.062.177.11.124.346.241.363.317.115.206.066.338.139.265-.003.09-.057.035-.135.004-.091.019.076.193.187.336.312.349.338.377.275.308.344.356.268.278.277.286.209.068.155.02.067.056.082.131.141.146.156.19.053.193-.065.185.064.265.004.023.051.104-.018.093.032.351.082.306.133.261-.002.022-.017.16-.171.103-.1.171-.029.237.051.289.132.341.003.2-.046.028-.082.064-.087.042-.236-.234-.263-.158-.393-.274-.397-.099-.512-.018-.221.034-.158-.103-.222-.12-.122-.03-.17.092-.117.004-.144-.035-.292.004-.027-.16-.05-.03-.315.014-.097-.132-.042.015-.124-.041-.253-.188-.266.124-.553-.016-.709.004-.734.005-.672-.006-.673-.006-.067-.175-.139-.09-.251-.008-.739.035-.566-.028-.181-.023-.201-.045-.472-.041-.584.033-.133-.009-.467.006-1.068-.047-.591.007.014.107-.038.076-.031.186-.652-.001H4.061l-.308-.127-.093-.082-.019-.092-.011-.062-.072-.018.059-.656.129-.546.05-.507.177-.453-.094-.449-.109-.196-.573-.636.263-.24-.346.033-.074-.237-.168-.283.103-.046.099-.155.313.047-.01-.076-.27-.238.026-.12.111-.134L3.19,25.41l-.194.14-.14-.005-.108-.09-.08-.015.048.182-.109.163-.103.057-.176-.01-.144-.041L2.145,25.7l-.135-.069-.38-.121-.319-.142-.064-.388-.127-.167-.052-.189-.03-.216.044-.332L1,24.023l-.092-.018-.138.016-.127-.018-.152-.184-.133-.071.082.338-.094.095-.229-.027-.098-.128L0,23.93l.105-.408-.041-.009.082-.217.156-.264.211-.335.239-.422.164-.745.111-.465.101-.424.175-.383.177-.256.501-.496.378-.375.193-.151.134-.127.236-.145.241-.173.185-.331.151-.309.115-.067.151-.054.462-.332.293-.211.068.105.05.13.056.06.246.041.337-.002.194-.038.103-.11.105-.301.061-.057.079-.015.368.21.306.299.302.296.153.105.067.116.132.539.076.134.131.056.236-.036.245-.095.216-.138.213-.179.145-.161.063-.119.032-.441.048-.097.217-.176.364-.294.208-.169-.018-.06-.13-.18-.115-.198.117-.204.121-.157.459-.531.002-.176.024-.213.367-.604.211-.802.006-.155.219-.387.259-.496.503-.08.193-.124.223-.219.144-.204.068-.194.05-.375.089-.427.055-.375.151-.347.252-.175.438-.146.066-.068.063-.23.049-.478.014-.288.017-.125.056-.216.406-.383.18-.6.16-.629.461-.761.54-.758.25-.204.211-.094.244-.01.166-.056.581-.378.243-.128.179-.131.043-.115.018-.167-.056-.392.1-.287.059-.447.024-.348-.021-.121-.091-.167-.017-.036L16.8,2.231,16.509,2.1l-.4-.036-.212-.077-.035-.182-.02-.105-.021-.114-.029-.253L15.523,0l.508.004.608.159.153.12.081.456.22.259.387.212.241.439.094.664.213.397.049.063.241.573.06.176.018.345-.027.233.123.288-.186.492-.056.301-.016.423.109.746.178.575.193.465.211.361.347.398.371.363.345.229-.32.134-.62.017-.356-.077-.17-.004-.171.048-.662.069-.668-.032-.619-.091-.376.015-.29.221-.236.332-.22.263.077.291.166.161.32.354.286.343.147.23.572.504.552.45.108.075.155.081.096.033.301.258.416.423.382.662.271.672.264.653.116.11.184.07.022.14-.014.207-.057.169Z" fill="url(#radial-gradient)"/></g></g></svg>