<svg xmlns="http://www.w3.org/2000/svg" xmlns:xlink="http://www.w3.org/1999/xlink" width="171.6045" height="126.1205" viewBox="0 0 171.6045 126.1205"><defs><radialGradient id="radial-gradient" cx="85.8022" cy="63.0603" r="75.2948" gradientUnits="userSpaceOnUse"><stop offset="0" stop-color="#ffd496"/><stop offset="1" stop-color="#f29d25"/></radialGradient></defs><title>CN</title><g id="Layer_2" data-name="Layer 2"><g id="Layer_1-2" data-name="Layer 1"><path id="CN" d="M104.63,120.8845l.14.132.091.191.075.352.045.324-.2831.206-.254.083-.509.789-.106.249-.086.104-.027.108.01.108-.1321.378-.116.465-.074.19-.146.146-.185.074-.12.011-.109.04-.2689.253-.303.19.051.087.003.083-.133.092-.147-.018-.427.075-.156.142-.16.262-.0609.036-.258.061-.196.023-.335-.185-.1661-.0539-.442-.0751-.431-.125-.302-.143-.619-.35-.072-.633-.1061-.342-.007-.122.041-1.055.0431-.116.0789-.101.2731-.236.3129-.187.449-.392.326-.179.273-.258-.16.011-.1179-.033.116-.221.125-.118.145-.064.29.046.268-.046.198-.196.188-.042.716.064.496-.09.2479-.181.117-.007.3661.051.136.188-.0121-.126.016-.123.067.013.479.233.001-.285.027-.075.149-.119.075.002.186.23.181.134Zm-1.4129-3.281.104.1041.278-.073.051.1319-.002.0621-.099.152-.23-.117-.229.027-.166-.01-.045-.072.127-.148Zm6.339-1.638-.2751.063-.059-.013.096-.155.2491-.107Zm.411.114-.054.06-.082-.109-.023-.156-.059-.084.135-.106.06-.117.16.023.066.035-.141.122-.033.052Zm2.147-3.624.023.14-.219-.2131-.063-.012-.104-.08-.061-.134.17-.005.156.1589Zm12.988-5.155-.094.185-.166-.031-.005-.131-.034-.038.046-.122.03-.034.188.104Zm4.597-2.958-.209.143-.13-.068-.002-.1919.066-.173-.076-.125.0739-.1481.1551-.044.056.093.087.049.0269.051.001.097-.083.16.065.087Zm4.014-8.222-.245.076h-.092l.008-.23.2-.219.081.073.046.114Zm2.585-5.079-.01.06-.239-.209-.115-.034.055-.119.161-.03.128.262Zm.65-.686-.0269.149-.0751-.021-.1-.265.054-.065.142.016Zm-.3029-.229-.0411.063-.3469-.185-.376-.039-.13-.163-.023-.256.396.011.4879.231.105.118Zm-1.217-4.968-.23.094-.73-.281-.516-.309-.308-.375-.044-.155.359.026.3511.135.078.206.142.065.096.12.65.279.1.084ZM139.994.1315l.127.014.07-.001.135-.094.373.167.713.496.447.22.185-.054.2.137.219.328.271.193.488.089.484.358.195.02.068-.201.181-.115.292-.03.423.177.553.383.347.168.1409-.046.1481.0711.119.1789.011.2211-.0411.118.133.186h.1531l.25.089.1959.328.1761.152.123.131.0219.109.011.11-.036.085-.067.141-.021.151.085.17.311.123.105.127.0239.162.097.1789.212.207.08.1731-.049.139.063.116.104.091.022.329.009.189.171.212.0349.434.1191.479.401.655.133.354-.034.42.0579.197.183.095.087.177-.01.259.071.161.058.171-.039.266.0579.239.094.14.066.258.037.322.269.508.499.694.306.538.1111.382.0009.314-.109.246-.0059.1789.098.112.029.151-.039.1911.162.226.5479.392-.219.6-.058.421.029.442.136.311.2411.18.15.188.059.1961.29.213.52.231.667.0409.813-.151.497-.025.183.1.063.1521-.0591.203.138.133.334.0639.229.1271.126.1919.154.054.183-.083.178.012.1729.106.112-.037.0981-.116h.1569l.161.002.1.281.162.158.224.035.341.341.686.969.446.343.447.107.556.022.18.374-.146.395-.037.329.126.118.174.386.246.224.047.177.114.198-.048.365-.211.533.058.454.326.375.188.361.049.346.081.21.115.074.334-.026.555-.125.406.021.26.169.641.006,1.023-.156.646-.048.27.06.24-.223.211-.507.197-.238.185.03.292-.163.401-.357.348-.173.441.018.47.018.294-.15.276-.313.479-.277,1.021-.363.245-.057.117.02.34.057.302.142.285.285.044.183-.032.24-.063.139-.117.156-.11.253.071.197.165.421.136.304.15.358-.067.128-.091.248-.279.419-.152.16-.164.156-.283.038-.121.036-.137.066-.086.148-.098.104-.162.208-.013.179.073.266.036.272-.183.243-.142.373-.0431.112-.07.282-.021.098-.0449.592-.183.403-.255.468.057.279.045.258-.063.125-.016.109-.037.248-.08.095-.232.155-.139.187.029.283-.071.245-.106.216-.111.141-.16.09-.106.076-.08.274-.024.212-.075.211.046.215-.081.186-.228.13-.1291.077-.119.031-.228.202-.204.691-.046.401.047.356-.286.223-.212.177-.133-.064-.141-.06-.324-.077-.1619-.052-.326-.116-.522-.147-.51-.171-.32-.09-.252-.072-.191-.118-.161-.211-.16.085-.148.25-.247.148-.112.273-.099.209-.256.279-.114.115-.501.189-.113.063-.409.04-.1389.083-.144.176-.039.175.102.184.159.368.0739.251.108.497.363,1.553-.117.267-.109,1.157.026.208-.011.324.007.237.075.059.098.083.05.138-.013.212-.05.155-.077.307-.102.443-.113.17-.0739.1351-.063.0929-.008.313-.042.206-.177.073-.176.12-.209-.044-.184.024-.227.08-.407.093-.236.124-.113.09-.078.108-.014.104.054.055.229.0419.157.194.022.2121-.162.121-.08-.133-.135-.042-.251-.187-.184-.206-.1371-.228.006-.487-.023-.073-.25-.1-.074-.146-.119-.069-.169.044-.127-.046-.101-.08-.12-.009-.104.126-.056.271-.175.449-.016.271-.075.386-.075.489-.063.102-.195.015-.0671.032-.103.166-.123.028-.109-.097-.171-.097-.163-.013-.146.097-.172.211-.098.17-.035.16-.027.197-.174.188-.158.099-.327.277-.104.115-.2341.001-.255-.011-.344.0751-.56.038-.335-.0571-.414.0531-.323.09-.046.1351.012.2.0641.13.0789.087.134.268.141.259.213.167.089.18.004.167-.101.21-.153.2739-.143.1691-.107-.0061-.164-.098-.111-.1239-.265-.046-.6481.079-.3239-.055-.1551-.101-.271-.007-.419-.135-.2559-.043-.121-.086-.023-.198-.12-.136-.068-.163-.152-.205-.146-.103-.144-.043-.1569.124-.1681.112-.125-.025-.0609.031-.068.093-.27.19-.063.174-.1069.369-.0751.379-.064.134-.109.023-.111.114-.233.355-.211.327-.306.221-.145.202-.074.184-.218.257-.32.046-.255.075-.156.02-.112.104-.082.158-.039.063h-.145l-.144.134-.353.305-.2881.057-.36.203-.317.154-.132.087-.035.096-.046.122-.153.024-.148-.006-.33.279-.167.237-.649.504-.265.283-.068.366-.034-.027-.231.319-.454.303-.97.068-.307-.215-.111.148-.086.199-.255.066-.397.018-.223.131-.119.146-.545.047-.2.195-.34.069-1.417.85-.3091.357-.293.417-.205.209-.184.146-.167.06-.164.144-.166.018-.169-.066-.1891.023-.125.174.105.227-.058.096-.372.123-.554.081-.234.148-.082.084-.122.042-.118-.292-.042-.3859.229-.093.211-.049,1.169-.534-.1459-.4021.104-.1749.262-.285.17-.141-.092-.052-.767.094-.4391-.007-.226-.029.068-.244-.038-.244-.053-.091.391-.278.177-.068.135.004-.01-.168-.112-.253.121-.327.796-.385.191-.35.3189-.327.584-.814.035-.139.17-.383.03-.153-.27-.224-.107-.314-.79-.568-.067-.489-.074.021-.12.342-.103.11-.366.01-.173-.129-1.018-.084-.249.221-.232.341-.227.244-.228.125-.198.2219-.818,1.314-.3091.1-1.455.7909-.729.31-.5609.546-.193.33-.1711.366-.104.553-.518.671-.1779.144-.1811.058-.241-.021-.208.042-.354-.059-.434.212-.488.1831-.421-.461-.3011-.1141-.491.128-.228.205-.472,1.013-.177.579.012.237.275.718.311.401.697.457,1.482.314.3481-.112.3729-.001.3931.298.2459.492.022.335.008.116.09.099.053.169-.156.14-.12.07-.101.519-.006.573.127.19.319.267.493.22.456.047.8709-.1059.356-.345-.0209-.149.0089-.193.7671-.507.437-.45-.068-.119-.084-.079.077-.046.239-.032,1.066-.47.839.384.479.442.474.074.328.226.379.192.494.013.417.04.1271-.178.1309-.117.148.023.167.233.474.179.437-.009.3061-.065.182.083-.263.298.039.48-.201.152-.193.244.114.161.101.068-.01.195-.176.111-.326.29-.188-.005-.089-.056-.063-.104-.047-.167-.114-.11-.3159-.042-.328.04-.738.43-.721.342-.755.271-.253.171-.18.047-.313-.129-.189.008-.04.089.241.238.063.186-.025.143-.137.063-.199-.104-.182.149-.082.251-.004.597-.12.133-.333.073-.354.19-.126-.088-.05-.107.037-.274-.044-.134-.162.007-.244.082-.186.18-.064.1091.245.351.2329.036.0571.079-.185.171-.461.254-.0771.213-.137.204-.188.162-.128.171-.156.089-.255.1-.313.408-.229.381-.272.196-.215.642-.385.348-.142.556.1.341.4229-.003.211.12.438.448.524.292.544.164.667.413.184.175.157.355.289,1.02.208.504.014.263.312.495.333.85.384.734.073.577-.124.263.0009.341.383.313.852.363.136.107.167.176.008.547.132.174.111.106.516.2309.216.192.229.306.066.274.028.371-.288.013-.232-.042-.923-.482-.24-.013-.3389.067-.483-.089-.51-.535-.368-.162-.395-.082-.942.46-.24-.033-.069.052-.106.079.437.099.438-.151.42-.2229.6129.1189.1031.201.101.339.42.229.33.101.42.3.41.468.8691.542.3519.512.136.33.122.471-.304.152-.265.021-.415.074-.305.167-.306.292-.877.459-.166.287-.114.25-.214.123-.537-.117-.506.01-.573.337-.143.137.095-.027.09-.043.258.051.399-.18.39.549.761-.089.715-.456.277-.008.231.07.259.18.688.799.378.087.37.187.205.021.185.056-.498.292-.643.63-.286.15-.192.168.518-.084.3679-.301.186-.074.149.07.076.371-.142,1.138-.1811.02-.176-.309-.206-.098-.173.064-.343-.002-.131.14-.11.198.205.041.404.345.041.183-.108.119-.283-.051.344.257-.091.266-.111.105-.2.067-.1229.23.177.383.179.49.0219.236-.28-.102-.437.299-.23.025-.156-.394-.199.062-.133.114-.177.422-.216.381-.1859.104-.2231-.03-.184.011.045.103.194.125v.146l-.414.463-.067.179.01.152-.217.185.117.311-.061.219-.19.296-.2.195-.235.316-.298.183-.393.661-.116.33-.029.341-.123.118-.211.148-.24-.075-.0079-.227-.1041-.02-.059-.149-.018-.189.025-.153-.1.047-.062.177-.1581.144-.1649-.058-.178-.1181.005.17.095.1709.041.171.2459.037.165.196.13.301.026.113.101.134.014.115-.235.106-.294.198-.353.339-.291.226-.263.002-.159-.026-.227-.13-.261-.054.35.457.191.081.24-.017.2329-.17.331.018.083.263-.088.297-.181.385-.037.333.224.4761.01.143-.084.071-.263-.125-.217-.158-.219.042-.2269-.067-.233.056-.095.11.064.181.209.15.117.231-.14.081-.593-.054-.132.044-.177.254.115.376-.131.233-.244.055-.321.188-.198.044.01.082.145.082.077.111-.1749.383-.271.126-.4161-.063-.327.086-.283-.163-.302-.003-.205.206-.022.239-.199.024-.107-.018-.151.017.016.128.086.112.408.05.073.161.016.248-.427.427-.182.2879-.274-.0079-.2069.2309-.1111.313-.137-.062-.317.05-.093.149.074.062.007.107-.127.351-.138.099-.06-.144-.045-.223-.111-.017-.185.205-.216.147-.185.061-.14-.136-.343-.071-.14.589-.284.214-.133.067-.232.02.148.0809.0461.151-.083.15-.232.03-.1351.117-.052.525-.138.184-.3519.015-.263-.122-.084.096-.044.094-.138.095-.266.025-.591.235-.271-.068-.323-.089-.223.087-.074.18-.103.14h-.324l-.26-.173-.265-.125-.2931.108-.223.22-.274.0741-.051.1369-.119.068-.29-.029-.11-.34-.167-.05-.165.172-.059.134-.077.102.027.277-.1631.006-.213-.17-.224-.03-.209.1579-.106-.039-.112-.0329h-.183l-.07.042-.1339.0249-.09.086-.008.007-.236-.058-.289-.23-.207-.382-.263-.206-.116-.181-.045-.325-.0479-.155.016-.172.08-.153-.2831.077-.2089.143.043.18-.052.167-.312.087.019.07.021.074.244.228.05.191.099.102.1909.297-.005.574.105.162-.035.161-.0759.217-.0071.003-.056-.066-.092.013-.037.073-.0059.066-.016.003-.162.048-.136.041-.11.058-.173.171-.3289.042-.1691-.4-.2269.267-.068.545-.084.093-.141.078-.267-.19-.233.127-.182.129-.075.119-.134.129-.257-.125-.207-.187.052-.141-.029-.092-.093-.07-.103.01.051.183.034.35-.094.101-.145.078-.313-.064-.213-.13-.259-.11-.228-.02-.05.221-.148.178-.137.0221-.1371-.0281-.18.192-.085.14-.222.148-.59.072-.206.146-.276-.023-.214.035-.123-.008-.11-.079-.1241-.002-.057.244-.334.103-.3.028-.334.322-.238.195-.177.02-.13-.069-.065-.288-.066-.034-.038.271-.063.225-.122.123-.386.28-.111.278.0739.257.519.063.0641.141-.05.115-.1241.096-.0369.144.557.458.017.173-.086.099-.104.213-.294.18-.622.092-.519-.093-.157-.205.01-.146.129.042.146-.013-.044-.134-.062-.078-.239-.119-.194-.321.037-.267-.1049-.207-.1161-.173-.116-.104-.063-.129.118-.406-.065-.236.222-.29.055-.327.396-.117.0269-.312-.284-.009-.197-.229-.045.097-.158.01-.26-.442-.078-.056-.126-.008.063.466-.305.175-.25.077-.354.032-.202.054-.188-.044.046-.141.1-.168-.089-.141-.2-.108-.306.006-.211-.03-.21.012-.077-.063-.195-.221-.165-.137-.0739-.137.0739-.159-.062-.097-.3189-.0109.002.228.033.269.093.204-.066.114-.162.078-.1729-.216-.079-.053-.083.01-.063.215-.157.191-.282-.021-.22.118-.266.054-.1811-.158-.299-.254-.119-.029-.332.124-.477.046-.106-.132-.23.1-.2219-.305-.263-.02-.328-.2309-.118-.123-.037-.176-.1-.092-.128.012-.143-.094-.226-.093-.182-.055-.09.042-.095.022-.017-.118.007-.356-.017-.316-.05-.143-.122-.108-.11-.052-.049-.163.04-.32.09-.2171.142-.039.192-.156.098-.2219.123-.206-.438-.289-.23-.104-.255.044-.3171.092-.1649.018-.0831-.036-.1849-.26-.1-.0451-.224-.017-.189.0021-.108.113-.1681.038-.168.006-.17-.141-.2559-.184-.401-.13-.0491-.149-.1019-.179-.152-.166-.252-.22-.211-.114-.1031.07-.14.125-.542.263-.24.103-.128.073-.1069.11-.0331.271-.0529.302-.1561.153-.148.116-.155.012-.152-.005-.143.048-.4359.303-.2051-.024-.169-.171-.072-.124-.195.0281-.25.1449-.116.26-.061.243-.055.108-.084.031-.074.005-.7789-.701-.048-.036-.14.144-.127.372-.0911.071-.062-.029-.322-.476-.083-.045-.073.016-.097.154-.204.227-.156.138-.004.153-.17.135-.197.135-.066.014-.131-.054-.171-.179-.124-.187-.307-.186-.344-.157-.228-.123-.13-.03-.121.055-.061.075-.086.186-.206.304-.184.242-.171.155-.136.107-.102-.1-.188-.082h-.221l-.291.154-.229-.308-.06-.015-.088.026-.102.073-.07.172-.074.235-.146.154-.121.0679.035.132.069.143-.005.125.044.197.076.197.271.323.104.168.021.146.01.518-.011.216-.054.416-.004.24.1129.108.109.129-.005.07-.0479.025-.1551.143-.065.019-.102-.059-.132-.044-.105-.057-.117-.092-.2769.01-.4551.14-.094-.04-.065-.079-.036-.164.022-.192-.04-.123-.085-.073.061-.3429-.162-.136.023-.042-.054-.371.007-.092-.028-.031-.114-.029-.17.058-.517.244-.444.451-.203.1-.205.0409-.241-.078-.2671-.051-.381.1141-.1879-.053-.087-.0921-.077-.14.0469-.178-.0289-.131-.152-.066-.177-.057-.105-.171-.042-.187.041-.243.021-.261-.085-.12-.259-.065-.653-.119-.572-.065-.24.031-.196-.029-.113-.048-.055-.082-.0029-.118.093-.271.1049-.265.266-.386.016-.268-.0139-.309.132-.413.229-.309.113-.097-.027-.138-.092-.126-.131-.07-.217-.081-.338-.022-.464-.083-.537-.184.0621-.353-.009-.221-.066-.182-.109-.129-.062-.115.097-.316-.125-.346-.147-.138-.152-.179-.012-.193.069-.18.372-.387.003-.094-.092.008-.106.008-.508.141-.055-.089-.182-.051-.371-.01-.434.026-.549.138-.5041.242-.229.166-.195.103-.158.034-.183-.073.01-.237.344-.435.049-.299-.104-.257-.012-.206-.121-.131-.169-.064-.09-.146-.006-.428.151-.441.245-.139.149-.067.04-.086-.076-.31.012-.197.146-.381.146-.289.276.048.124-.072.1371-.103.1489-.174.1-.207.122-.48.083-.072.3481.08.104-.056.19-.282.18-.344.261-.106.1879-.011.087-.114-.005-.168-.179-.267-.075-.213.022-.13.2559-.079.063-.155-.038-.34.105-.409.063-.479.021-.358-.003-.273-.0251-.287-.036-.524-.117-.457.021-.172-.016-.555-.072-.474-.144-.083-.268-.154-.146-.03-.122.056-.046.165-.118.154-.145-.038-.069-.154-.093-.202-.311-.961-.034-.277-.0549-.276-.1041-.138-.11-.082-.248-.324-.13-.135-.063-.022-.136.023H67.81l-.109-.162-.1-.198-.1-.097-.1681-.0539-.172.021-.101.1709-.068.097-.13.228-.21.315-.096.116-.093-.06-.4051-.328-.195-.091-.2659.099-.415-.078-.16-.015-.346-.262-.141-.032-.491.171-.108.121-.063.002-.131-.061-.107-.081-.007-.051.133-.128.01-.09-.007-.091.191-.258.521-.5-.087-.21-.205-.414-.027-.201-.089-.091-.249.074-.518.3761-.071-.041.013-.13-.054-.379.164-.114.252-.1391.194-.155.045-.125-.053-.039-.286.0491-.113-.085-.187-.349-.137-.137-.1241-.074-.422.18-.49.247-.546.344.003.176-.065.045-.104.111-.102.153-.087.054-.1019.005-.208-.043-.3771-.174-.409-.1441-.088.016-.556-.102-.018-.082-.084-.161-.158-.146-.151-.049-.435.308-.491.229-.279.271-.23.2691-.264.052-.012.1659-.111.149-.2.184-.397.234-.269.126-.854.115-.305.078-.128.123-.137.312-.108.287-.236.237-.43.316-.505.256-.139.17-.025.101.063.037.062.0769v.116l-.065.1261-.33.22-.186.105-.185.0669-.207.012-.1989-.03-.055-.036-.079.046-.182.046-.158.015-.347.244-.191.002-.238-.053-.314-.042h-.227l-.007-.129.035-.387-.1031-.09-.314-.095-.354-.126-.17-.134-.095-.045-.1329.022-.2131.141-.202.166-.16.014-.164-.077-.156-.102-.536-.143-.24-.021-.429.024-.35-.03-.055-.044.001-.08.052-.155.03-.153-.0411-.087-.357-.107-.3259-.077-.347-.029-.233.054-.228.12-.188.216-.272.094-.325.161-.157.15-.238.322-.346.395-.314.385-.163.374-.216.235-.219.169-.158.465-.165-.147-.189-.211-.045-.289.2256-.7682.0529-.32-.057-.122-.07-.315-.133-.104-.38-.165-.1209-.005-.13.114-.127.072-.169.072-.424.135-.376.063-.09.05-.028.09.03.107-.242-.041-.253-.023-.2039.015-.4991.204-.169.02-.188-.021-.2559-.006-.487.006-.4191-.052-.341-.285-.241-.126-.257-.097-.259-.073-.086-.153-.0819-.077-.2131-.025-.169.056-.1049.385-.09.076-.214.034-.2249-.098-.311-.198-.122-.22-.104-.071-.164.097-.009.282-.032.189-.195.077-.113-.056-.091-.194-.229-.461-.227-.27-.229-.18-.7509.005-.557-.053-.2521-.074-.0949-.178.0919-.356.108-.278-.003-.065-.092-.033-.16-.022-.601.178-.164-.021-.104-.061-.1271-.052-.1049-.083-.073-.121-.52-.297-.153-.163-.2769-.204-.2341-.139-.148-.3981-.135-.3829-.074-.2041-.223-.108-.241-.082-.408.167-.335.127-.246.013-.355-.393-.285-.4249-.3369-.371-.224-.1871-.397-.018-.447-.209-.6-.476-.433-.355-.746-.395L24,89.6334l-.066-.141-.1019-.278-.1561-.264-.5289-.115-.5981-.082-.6309.162-.454.79-.219.172-.188.01-.154-.201-.127-.211-.069-.234-.314-.173-.355-.226-.182-.176-.205-.11-.191-.047-.368-.149-.417-.168-.196-.023-.0139-.12.059-.255-.036-.245-.126-.1-.19.026-.44-.348-.022-.018-.125-.099-.217-.142-.366.01-.277.0521-.203-.145-.294-.23-.0529-.051-.087-.0841-.298-.444-.352-.526-.178-.077-.0919.04-.104.2789-.078-.028-.131.019-.154.098-.148.025-.095-.029-.04-.069.042-.369-.09-.1149.08-.257.135-.222-.138-.165-.17-.236-.019-.214.092-.27.045-.231-.028-.085-.134-.129-.511-.636-.0269-.0669-.086-.2121-.04-.32-.066-.229-.078-.176.006-.083.059-.043.319-.043.295-.027.1939-.06.101.128.047.196.0511.103.187.186.228.178.221-.023.195-.076.169-.29.119-.071.139-.013v-.021l-.008-.187.049-.461-.017-.185-.063-.167.011-.186-.021-.27-.159-.185-.104-.071-.017-.1.054-.185.037-.213-.055-.157-.009-.024-.129-.081-.151-.137-.18-.185-.089-.134-.146-.148-.178-.23-.033-.505-.018-.532-.062-.265-.099-.423.015-.142.06-.108.502-.342.109-.133.018-.1011-.02-.15-.095-.1669-.2-.13-.286-.2121-.259-.221-.4359-.135-.529-.165-.127-.161-.128-.394-.218-.602-.232-.643-.1791-.397-.0089-.191.107-.488-.013-.104-.094-.036-.179.064-.143.077-.1221-.04-.1129-.082-.023-.028-.009-.011-.212.0531-.425.03-.1469-.005-.206-.007-.4261-.112-.575-.151-.593-.21-.314-.167-.11-.058-.269-.174-.191-.15-.034-.393-.1389.03-.326.142-.376.09-.208.0011-.084-.063-.125-.415-.091-.117-.169-.046-.184-.073-.093-.108-.021-.137.0819-.157.097-.121.017-.74-.063-.263-.0529-.221-.135-.275-.126-.17-.19-.1579-.295-.164-.263-.061-.318.12L5.1,67.4474l-.133-.508-.085-.104-.565-.2091-.256-.048-.295.065-.168.056-.135-.0929-.211-.1181-.207-.081-.257-.0029-.166.05-.042-.0289-.08-.093-.342-.281-.012-.0711.5239-.277.3091-.105.1619-.084.034.018.08.128.2039.084.144-.023.075-.064.2541-.153.198-.178.111-.146-.06-.23-.312-.279-.198-.149-.061-.101.051-.303.072-.301-.0479-.115-.059-.098-.026-.329-.136-.398-.148-.232-.0411-.314-.008-.294.1791-.462-.066-.2-.188-.178-.648-.322-.664-.213-.253.008-.157-.013-.186.1879-.111.246-.155.0221-.283-.1041-.1891-.1579-.1339-.3291-.104-.424-.0591-.133.03-.1149.065-.102.181-.096.03-.098-.0269-.121L.382,59.28l-.149-.216L0,58.6152l.045-.248L.082,58.01l-.014-.188.236-.049.301-.097.14-.161.0969-.164.021-.102-.091-.393-.12-.175-.012-.136.059-.104.079-.179.152-.368.148-.235.081-.059.181-.055.442-.065.475-.165.564-.494.188-.141.246-.071.176.005.032-.06-.114-.307.028-.111.067-.087.0851-.04.3909.162.2991-.017.364-.096.7849-.542.0981.008.0789.073.095.327.108.688.06.086.546.009.372-.25.163-.059.264.041.14-.117.146-.082.169.288.218-.138.235-.219.115-.227.159-.245.124-.311.05-.294.061-.138.132-.142.325-.607.234-.155.222-.055.549.105.285-.013.836.08.386-.117.27-.116.396.018.469-.092.625-.765.008-.163.038-.173.226-.171.2811-.157.56-.375,1.139-.595.408-.2391.17.0061.42-.15.736-.292.208-.364.194-.073.86-.065.054-.042.03-.062-.0479-.2641-.0561-.2269.0671-.067.072-.104-.011-.146-.139-.474-.074-.45-.049-.4071.009-.152.104-.263.135-.239.487-.223.323-.067.013-.146-.261-.091-.189-.146-.033-.083.009-.095.044-.087.328-.164.309-.163.377.099.074-.063.0219-.1629-.081-.164-.0759-.2691-.1741-.138-.007-.165.107-.285-.148-.528-.161-.467-.273-.802-.181-.232-.101-.371-.113-.195.01-.289.019-.203-.029-.403-.053-.438.053-.445.102-.294-.027-.113.054-.084.154-.0281.073-.121-.073-.124-.266-.096-.297-.149-.357.017-.366.026-.183-.11-.16-.141-.0089-.09.22-.238.3061-.247.4749-.1091.523-.1629.2651-.1181.353-.0849.408-.0361.205.024.525-.158.826-.306.75-.257.252-.153.188.153.087.3371.219.174.217.084.125-.004.374-.131.404-.096.159.052.205.172.23.154.12-.007.105-.119.106-.24.067-.306.014-.324-.04-.198-.081-.073-.368-.117-.351-.191-.04-.175.008-.125.0931-.306.229-.563.23-.779.122-.617.3851-.923.3029-.966.49-1.396.082-.277.045-.443.026-.183.171-.096.288.094.703.32.535.269.224.091.333.095.515.112.298-.033.261-.066.348-.006.543.083.1681.003.2089.011.1481.136.0739.307.112.138.203-.051.432-.271.276-.213.345-.309.342-.042.363-.069.1259-.153.134-.36.223-.272.037-.346-.078-.244-.155-.398.005-.2691-.075-.781-.1-.7049.102-.569.18-.638.07-.1961.114-.2569.161-.309.226-.097.635-.066.5881-.13.3-.134.3121-.081.1859-.098.32-.453.152-.261.112-.694-.082-.334.068-.296.1551-.174.218-.175.146-.03.311-.053.51.018.26.085.264.04.1669-.063.1111-.133.171-.042.257-.064.265-.08.146.015.03.197-.024.154.051.206.105.136-.034.147-.148.085-.146.115-.032.157.185.195.063.187.31.112.241.126.09.121-.027.136-.111.146-.107.157-.0139.094.0339.11.232.073.269.121.426.156.292.29.29.08.14.282.0251.409.297.208.439.289.223.053.149.164.215.198.191.062.227.029.374-.184.42-.018.229.105.218.396.154.125.091.111.147.106.149.016.222-.088.135-.175.1939.036.073.114.036.195.1031.242.2459.18.344.107.048.088.048.241.093.167.125.218.119.397.025.328.055.18.159.293.2541.468.202.396.234.077.199.125.114.292.211.549.034.358.018.267.069.121.015.151-.1761.573-.1489.258-.019.217.101.377.139.292.0139.279-.1179.204-.203.255-.0981.146-.158.128-.242.492-.109.543-.025.279.092.202.1539.222.0381.192.253.429.067.265.104.009.111-.087.271-.006.246.094.236.196.253.104.362-.026.193.105.208.086.431.03.323-.001.496.003.401.132.705.104.436-.008.586-.098.359.062,1.063.146.622.153.394.172.2769.272.3171.424.252.194.677.117.465.494.363.184.611.477.432.186.517.171.8431-.073.047.064-.065.258-.0511.353v.255l.087.13.322.077.152.125.116.24.067.1489.271.7341.4341,1.0809.05.4151.148.267.471.423.247.3129.368.328.1209.3031.027.3909.093.1011.673-.09.583-.063,1.046-.112,1.44.204,1.485.197,1.313.174.647.085,1.462.183.8129-.233.6351-.182.288.025,1.214.205.7119.11.896.138.622.0509.51-.0029.2349.058.227.089.151.13.466.656.261.289.5171.218,1.174.249.65.151.746.173.492.2609.5659.3031.733.392.803-.171.864-.185.542-.116v.818l.773.065.242-.009.342.18.192-.076.183-.177.229-.28.329-.123.5689-.314.139-.076.845-.447,1.262-.552.566-.268.169-.06.32-.137.216-.095.382-.076.518-.048.566-.104,1.28-.196.1611-.018.7189-.081.3061-.076.457.04.5969.028.396.05.5251-.039.7219-.053.584.008.29-.066.428-.207.287-.164.451-.199.56-.207.39-.188.258-.125.313-.118.0819-.152.09-.117.166-.195.299-.3641.228-.319.112-.1419.256-.3191.207-.2409.2639-.3251.222-.105.282-.089.741-.319.147-.069.123-.014.262-.258.222-.224.145-.167.301-.061.154-.121.027-.158-.031-.242-.145-.2479-.122-.2171-.43-.414-.228-.2569-.232-.331-.095-.311-.159-.198-.076-.176.024-.203.221-.362.07-.229.092-.405.207-.607.169-.285.195-.2781.413-.3739.378-.069.225.074h.503l.335.02.247.1871.273.3689.309.1351.962.289.411.061.294.013.435.095.146.021.223.065.184-.07.279-.2471.351-.277.1511-.064.2789-.12.14-.1131.245-.312.3179-.242.388-.364.191-.274.042-.177.042-.192.12-.101.236-.093.266-.025.506.1651.684-.047.153-.024.623-.095.281-.078.396-.075.304-.306.407-.365.296-.203.1971-.039.2459-.211.121-.227-.032-.2-.046-.1651.145-.307.262-.538.2441-.251.202-.203.129-.327.159-.094.195-.036.275-.2219.2021-.0451.336.106.497.027.317.011.181-.04.066-.119-.002-.184.101-.41.038-.135.091-.063.3061-.008.206.147.142.122.197.016.203-.08.271-.332.452-.193.24-.0491.4261-.157.2689.057.4941.046.1909-.04.208.04.1891-.225.15-.054.318.104.2.1741.374.2179.477.102.399-.052.41.092.242-.008.115-.086.336-.183.08-.248-.033-.239.039-.271-.099-.2-.208-.296-.081-.198-.0071-.259-.13-.247-.312-.298-.205-.138-.422-.516-.143-.121-.049-.085-.049-.173-.156-.083-.205-.135-.11-.138-.072-.24-.0431-.157-.181-.13-.181-.073-.204-.092-.338-.135-.195-.269-.344-.505-.195-.17-.7261-.065L125,24.5141l-.295.042-.176.081-.39-.0011-.202.05-.257.333-.341.432-.281.2631-.2.273-.093.098-.1821-.059-.25-.307-.3569-.275-.331-.125-.1421-.069-.395-.07-.305.022-.389.104-.38-.0191-.171-.066-.242.007-.438.286-.227.3251-.2689.1019-.243-.213-.28-.252-.268-.316-.1649-.293-.092-.778.321-.232.41-.261.031-.413-.015-.461.081-.514.374-.475.201-.394.0251-.246.18-.409.172-.432.235-.568.445-1.012.526-1.202.263-.602.5771.373.372.194.629.294.649.066.621.318.32.096h.171l.879-.774.743-.657.854-.514.628-.07.472-.15.314-.231.187-.386.057-.542-.126-.329-.3079-.114-.079-.115.148-.117.11-.227.0689-.338.178-.322.285-.304.158-.338.029-.372.172-.372.313-.371.172-.346.029-.32.159-.392.432-.695.28-.803.478-.552.7681-.568.479-.565.1909-.562-.015-.498-.222-.432-.043-.44.138-.449-.121-.336-.379-.223-.452-.055-.525.113-.295-.141-.065-.394.141-.319.3469-.244.57-.595.794-.95.79-.527,1.178-.152.95-.313.968-.318.699-.158.119.106.381.026.643-.054.597-.137.552-.221.437-.052.321.117Z" fill="url(#radial-gradient)"/></g></g></svg>