<svg xmlns="http://www.w3.org/2000/svg" xmlns:xlink="http://www.w3.org/1999/xlink" width="34.095" height="46.7609" viewBox="0 0 34.095 46.7609"><defs><radialGradient id="radial-gradient" cx="17.0475" cy="23.3805" r="20.4605" gradientUnits="userSpaceOnUse"><stop offset="0" stop-color="#ffd496"/><stop offset="1" stop-color="#f29d25"/></radialGradient></defs><title>CO</title><g id="Layer_2" data-name="Layer 2"><g id="Layer_1-2" data-name="Layer 1"><path id="CO" d="M21.6192,1.631l-.1011.035-.125.075-.381.141-.515.134-.67.172-.152.184-.663,1.153-.555.233-.202.172-.152.218-.331.401-.138.308-.365.669-.2.838-.076.47-.11.681-.162.342-.216.321-.233.313-.2.344-.17.269-.028.092.083.0741.403-.0741.159-.0809.22-.1041.138.056.138.296.156.037.147-.037.156.074.199.736.169.623.392.389.306.303.0741.268.0729.378.0191.185-.096.111-.1521.23-.0379.439-.0261.146-.028.407.02.25.082.195.136.112.276.0581.249.068.143.338.203.43.218.181.32.1189.229-.043.534-.0759.459.019.672.115.25-.004.323-.022.569-.233.207-.035.23.021.336.1189.182.094.233.097.34.069.219-.012.166-.004.096.044.535.667.464.578.404.485.437.523.034.031.197-.067.13.029.12.106.207-.044.294-.194.428-.039.563.116h.743l.922-.115.573-.125.224-.135.37.014.447.121.241.172.029.169.09.265-.097.268-.284.271-.158.347-.031.422-.147.312-.263.202-.103.294.058.386-.028.564-.115.742v.443l.115.145.053.208-.009.271.043.24.143.312.199.621.166.267.145.098.147.12.424.635.103.134-.031.117-.04.087-.049.056-.452.378-.898.822-.074.104.006.172.26-.111.279.093.136.018.062.068.081.222.093.037.136.092.2659.234.223.246.167.118.118.11.037.16-.049.16.14.371.095.115.05.141-.05.142.118.166.128.327.156.3989.019.222.0651.102.0769.296.1311.278-.031.19.0549.187-.531.125-.048-.02-.032-.069.015-.531-.005-.6-.082-.246-.243-.394-.322-.522-.088-.15-.136-.086-.161-.012-.118.037-.158.097-.149.106-.288.315-.29.368-.17.083-.17.034-.15-.011-.121-.099-.124-.201-.149-.267-.178-.087-.069.082-.059.157-.046.1561.12.198.103.153-.177-.005H27.238l-.209-.013-.213-.09-.204-.042-.108.007-.193.087-.251.013-.169.083-.136-.01-.002.46-.004.655-.004.695.152-.053.131.005.096.049.27-.04.149.021.142.018.131.002.081.055.108-.01.116-.061.139.0379.149.098.096.146.086.181.086.096-.005.173-.003.136-.03.113.038.073.028.078-.008.0451-.05.021-.109.015-.116.013-.081-.005-.063-.07-.061-.008-.088.01-.094-.042-.081-.088-.144-.088-.154.0379-.106.0451-.109.055-.099.058-.099-.015-.126.0419-.106.065-.142.0531-.154.0249-.177.025-.169.01-.192.0209-.0109.366-.022.719-.0151.4761.0011.4389.074.16.34.338.267.178.226.199.225.083.094.075.062.123.031.129.024.11-.024.117-.056.111.024.117.081.092.025.117.056.111.031.111.068.08.086.0549.1109.0921.012.086-.012.0979-.001.0741.106.169.031.1189-.049.141-.048.491-.122.559-.079.427-.127.695-.148.809-.181.986-.179.974-.172.943-.156.853-.172.941-.104.57-.05.099-.144-.207-.218-.195-.204-.117-.087-.154-.117-.314-.164-.107-.115-.083-.111.012-.118.086-.182.055-.123-.008-.495-.216-.081-.021.318-.494.569-.883.362-.562.401-.623.205-.318.027-.0539v-.082l-.087-.1211-.193-.0509-.224-.093-.141-.151-.195-.065-.152-.107-.277-.105-.166-.097-.203-.035-.161-.178-.587-.345-.151-.0321-.165.0531-.242.0549-.233.188-.291.061-.272-.002-.142-.112-.136-.041-.178-.153-.314-.118-.228-.082-.141.038-.181.171-.183.17-.145.106-.195-.006-.233.156-.229.056-.231.024-.266.055-.295-.094-.242-.083L17.96,41.5l-.098.026-.152.087-.272.037-.213.009-.151-.041-.136-.151-.22-.077-.242-.094-.051-.195.035-.146.094-.21-.052-.217-.102-.342-.043-.14-.076-.119-.119-.043-.233.032-.255-.129-.157-.124-.081-.151.086-.285-.076-.243-.152-.134-.098-.237-.152-.188-.2-.097-.201.011-.157-.059-.179-.2-.168-.075-.19-.194-.354-.086-.184-.076-.105-.12-.142-.214.016-.118-.069-.117-.061-.209-.121-.309-.133-.176-.137-.132-.116-.112-.172-.167-.211-.097-.179-.102-.07-.151-.06-.124-.101.009-.144-.0109-.158-.0321-.167-.09-.14-.1091-.235-.185-.128-.0239h-.114l-.168.181-.503-.19-.431-.2821-.447-.073-.289-.172-.267-.27L8.415,34.07l-.117-.09-.569-.2619-.113-.025-.217.122-.07.073-.013.209-.026.119-.189.072-.305-.016-.211-.076-.142-.011-.029.06-.08.025-.173-.017-.255-.058-.231-.077-.313-.164-.145.021-.356-.035L4.57,33.846,4.496,33.76l-.126-.59-.039-.041-.125-.025-.211-.082-.133-.095-.069-.164-.083-.155-.355.035-.582-.205-.403-.195-.369-.216-.56-.426-.213-.105-.264-.13-.156-.21-.257-.212-.086-.058-.081-.191L0,30.417l.19-.358.462-.27.606.209.074-.418-.219-.37.033-.699.071-.14.16-.187.208-.13.122-.037.208.064.131-.14.494.063.15-.059.103-.095.121-.0719.154-.168.089-.194.074-.076.171.027.016-.084.088-.1141.299-.255-.003-.113-.084-.246.021-.09.173-.031.205-.069.109-.235.135-.2049.154-.302.17-.0191.09-.353.229-.3089.466-.916-.141.02-.112.1229-.127-.015-.145-.072.042-.413-.083-.049-.225.318-.194-.324-.018-.197.082-.195-.012-.131-.314.098.015-.122.195-.125.089-.13.17-.142.071-.214.041-.333.077-.357-.057-.176-.092-.15-.077-.666.021-.388-.04-.305-.08-.258-.373-.339.589-.388.211-.293L4.715,18.2l-.35-.5091-.01-.3049.092.039.118-.009.107-.6441-.025-.199-.197-.322-.244-.0079-.214-.405-.123-.0911-.099-.255-.345-.497-.273-.259.205-.6.179-.115.058-.149-.07-.3689.02-.086.042-.037.042.002.072.056.134.159.112.197.09.06.136-.065.526-.393-.034-.122.048-.246.176-.201.1879-.069.056-.112-.045-.173-.198-.431-.176-.232L4.6,11.579l-.06-.213-.2-.201.084-.19.155-.222.053-.039.0841.061.232.403.3689.262.387.423.159.292.126.053.109.105-.048.079-.121.083-.035.169.079.095.0831.061.226-.039.124-.198-.083-.8689-.13-.435-.151-.135-.135-.172.091-.13.241-.059.316-.152,1.158-.831.397-.781.304-.283.343-.184.42.043.326-.098.101-.249-.089-.337-.125-.204.12-.295.125-.449-.009-.3771.161-.225-.056-.088-.2349.182-.186.082.105-.15.329-.372.171-.567.131-.236.464-.33.092-.159.351-.248.565-.532.216-.148,1.095.3429.348-.022-.062.063-.161.021-.232.093-.067.205.157.214.167.062.142-.138.141-.393.227-.435.053-.456.161-.157.235-.057.42.09.319.094.333.012,1.021-.069,1.66-1.185.771-.255.483-.25.308-.487.083-.366L19.563.56h.238L19.91.471l.034-.113.574-.317L20.847,0l.291.006.65.276.301.488.05.336-.412.365ZM2.5522,27.853l-.076.062-.145-.11-.049-.14.089-.104.114.034.052.085Z" fill="url(#radial-gradient)"/></g></g></svg>