<svg xmlns="http://www.w3.org/2000/svg" xmlns:xlink="http://www.w3.org/1999/xlink" width="9.386" height="8.821" viewBox="0 0 9.386 8.821"><defs><radialGradient id="radial-gradient" cx="4.693" cy="4.4105" r="4.5539" gradientUnits="userSpaceOnUse"><stop offset="0" stop-color="#ffd496"/><stop offset="1" stop-color="#f29d25"/></radialGradient></defs><title>CR</title><g id="Layer_2" data-name="Layer 2"><g id="Layer_1-2" data-name="Layer 1"><path id="CR" d="M6.359.773l.07.113.081.177.036.228.357.763.285.426.624.776.269.143.455.623.157.103.09.184.472.151.131.112-.016.052-.049.055-.069.055-.092.038-.222-.114-.219-.129-.12.059-.045.168-.081.086-.101.034-.042.056-.009.566.008.533.165.012.276.185.118.109.037.101-.034.049-.202.116-.197.147-.098.183.172.297.037.201-.006.211-.048.101-.381.241-.083.085.01.061.211.167.099.161.083.194.012.169-.191-.313-.264-.299-.23-.184-.018-.429-.092-.233-.346-.215-.296-.151-.22.031.135.247.347.317.023.121-.005.163-.239-.025-.212-.066-.257-.021-.171-.097-.363-.379.258-.322.08-.212-.007-.44-.059-.213-.28-.324L5.648,5.42l-.624-.291-.293-.235L4,4.714l-.278-.119-.217-.221-.032-.159L3.55,3.97l-.202-.311-.87-.613-.487-.225-.104-.133L1.81,2.647l.074.423.213.255.555.237.153.139.062.18-.322.344-.165.087L2.332,4.5l-.105.057-.111-.108-.45-.54L.795,3.65.637,3.491.313,2.997l-.149-.45.053-.301.358-.469.112-.204L.664,1.447l.011-.185L.542,1.133.211.964,0,.829.058.762.437.58.461.416.459.362.521.35.576.307.61.261.713.103.804.014.909,0l.127.065.478.171.532.189.757.268L3.117.521,3.387.39l.188.019.407.153.245.049.15-.016.26.225.142.169.024.112.079.061.203.013.496.114.303-.022.276-.121.152-.145Z" fill="url(#radial-gradient)"/></g></g></svg>