<svg xmlns="http://www.w3.org/2000/svg" xmlns:xlink="http://www.w3.org/1999/xlink" width="30.174" height="10.0078" viewBox="0 0 30.174 10.0078"><defs><radialGradient id="radial-gradient" cx="15.087" cy="5.0039" r="11.2396" gradientUnits="userSpaceOnUse"><stop offset="0" stop-color="#ffd496"/><stop offset="1" stop-color="#f29d25"/></radialGradient></defs><title>CU</title><g id="Layer_2" data-name="Layer 2"><g id="Layer_1-2" data-name="Layer 1"><path id="CU" d="M8.5681.0867l.735.141.594-.04.284-.083-.026.085.261.209.095.014.384-.106,1.003-.04.103.059.177.204.256.126.265.096.277.025.276-.043.259.021.324.198.102.023.29-.0539-.085.182.488.254.358.5.26.2049.275.184.232.125.26.06.789-.024.187.0151.167.071.159.028.092-.027,1.524.776.485.414.296.215.641.31.2569.068.1351-.041-.026-.068-.188-.172-.028-.063.2409.053.435.35.12.129.2171.12.2189.086-.104.138-.178.012-.341-.057.271.225.046.163.126.014.188-.179.119-.151.479.39.258.178-.066.1041-.021.1029.288-.096.109.011.105.055.115.167.269.037.271-.004.55.138.521.281.49.057.494.01.25.148.106.2-.12.141-.068.147.184.181-.401.077-.0571.109.021.117.08.064.229-.056.332.05.523.044.35-.036.712.123.216.066.422.231.195.152.419.41.361.161.313.039.109-.027.099.045.087.057.086.179-.048.188-.179.153-.099.111-.447.013-.625.051-.604.166-.295.132-.135.087-.318.081-.021-.069.006-.087-.083-.161-.072.145-.118.106-.199.09-.734.006-.2951-.122-.303-.0831-1.104-.087-.265.007-.737.091-.741.049-.31.056-.307.0841-.597-.003-.705.096-.707.018.453-.673.955-.649.18-.14.128-.179.03-.135-.042-.115-.228-.204-.046-.151-.068-.098-.331-.085-.3349-.051-.353-.001-.741-.07-.394-.005-.3341-.139-.554-.494-.259-.139-.133-.111-.104-.128-.13-.728-.11-.35-.168-.305-.256-.231-.268-.079-1.028.198-.239-.03-.233-.067-1.552-.473-.64-.26-.261-.129-.223-.184-.231-.302-.259-.27.001.109-.04.0711-1.299.032-.207-.062-.133-.074-.094-.1091-.07-.2189-.124-.184-.04.196-.064.181-.1739.101-.1991.017L9.674,3.05,8.621,3l-.093-.041-.346-.233-.295-.292.293-.103.606-.135.131-.09.076-.116-.055-.172-.121-.125L8.693,1.62l-.137-.046-.181-.02L6.032,1.5229l-.135.094-.21.1911-.416.2449-.274.254-.103.1311-.128.094-.288.157-.246.242-.298.108-.163-.066-.161.001-.117.06-.123.027-.601.029-.09.062-.086.173-.098.337-.092.111-.301.042-.287.092-.584.32-.151.047.033-.235L1.084,3.81.919,3.802.731,3.84l-.157.064-.29.171-.147.043L0,4.031l.028-.112.967-.412.108-.031.172.031.168-.014.131-.116-.159-.546.061-.372L1.7,2.171l.448-.437.216-.144L4.573.677,4.799.63,6.235.446,6.454.382,7.12.111,7.819,0Zm6.982,1.511.005.08-.491-.222-.211-.2309-.085-.053.138-.0051.553.379Zm2.019.338.385.064.134-.039.128-.011.135.027.189.2511-.166.031h-.132l-.097-.0451-.346-.0109-.228-.073-.125-.063-.061-.076Zm1.692.806-.057.05-.152-.112-.22-.049-.129-.175-.124-.067-.01-.064.204-.042.142.0191.158.133.091.246Zm.415.476-.092.008-.279-.125-.083-.105.098-.141.021-.153.038-.01.045.186.213.079.013.041.131.157Zm.591.528-.115.092-.126-.133-.08-.014-.111-.053L19.62,3.49l-.052-.153.179-.012.226.027.395.087-.035.173ZM6.5351,4.8877l-.261.159-.557.224-.299.008-.302-.084-.208-.187-.119-.185.01-.089.189.148.163.073.134-.049.095-.08-.306-.598.014-.126.243-.329.661.1.115.058.092.208.147.163.173.436Z" fill="url(#radial-gradient)"/></g></g></svg>