<svg xmlns="http://www.w3.org/2000/svg" xmlns:xlink="http://www.w3.org/1999/xlink" width="7.464" height="6.893" viewBox="0 0 7.464 6.893"><defs><radialGradient id="radial-gradient" cx="3.732" cy="3.4465" r="3.5921" gradientUnits="userSpaceOnUse"><stop offset="0" stop-color="#ffd496"/><stop offset="1" stop-color="#f29d25"/></radialGradient></defs><title>CV</title><g id="Layer_2" data-name="Layer 2"><g id="Layer_1-2" data-name="Layer 1"><path id="CV" d="M.482.721.209.781.093.752.055.52,0,.367.013.299.64,0,.861.05l.154.239L.91.421Zm.793.374-.23.07L.902,1.156.697,1.053.761.942.983.818,1.136.792l.125.221Zm5.61.464-.09.149-.11-.219-.06-.052-.029-.314.163-.094.079-.008.002.325Zm-3.366.106.116.085.038.062-.172.032-.418-.112L2.972,1.8l-.111.241-.213-.365.015-.134.045-.039.296.096Zm3.283,1.12.234.053.089-.019.149.012.16.152.03.162-.079.203-.31.167-.179-.02-.211-.152.121-.3ZM5.324,6.345l-.169.265-.372-.021L4.592,6.48l-.224-.333.007-.258.079-.224L4.44,5.471l.032-.051.115.034.019.131.338.32.125.062Zm.736-.372-.078.011-.117-.13.026-.18-.013-.047.104-.192.204.017.052.143.01.294Zm-3.16.81-.218.11-.153-.048-.145-.114-.07-.165.057-.142.294-.167.176.054.094.26Z" fill="url(#radial-gradient)"/></g></g></svg>