<svg xmlns="http://www.w3.org/2000/svg" xmlns:xlink="http://www.w3.org/1999/xlink" width="6.329" height="3.731" viewBox="0 0 6.329 3.731"><defs><radialGradient id="radial-gradient" cx="3.1645" cy="1.8655" r="2.5975" gradientUnits="userSpaceOnUse"><stop offset="0" stop-color="#ffd496"/><stop offset="1" stop-color="#f29d25"/></radialGradient></defs><title>CY</title><g id="Layer_2" data-name="Layer 2"><g id="Layer_1-2" data-name="Layer 1"><path id="CY" d="M6.068.235,4.605,1.269l-.095.307.065.212.206.257.054.067.074.195-.319.058-.32.019-.178-.026-.168.012-.519.557-.279.189-.332.112-.338.067-.17.009-.15.07-.105.129-.002.125-.045.103L1.798,3.71l-.077-.202-.132-.087-.329.045L1.1,3.46.574,3.268l-.159-.08L.316,3.023.045,2.427,0,1.984l.252.114L.488,1.96l.227-.225.271-.092.169.04.168.04.302-.072.13-.334L1.798.933l.51.11.518.057.423.019.418-.062L4.946.646,5.308.4,5.533.316,5.922.113,6.329,0Z" fill="url(#radial-gradient)"/></g></g></svg>