<svg xmlns="http://www.w3.org/2000/svg" xmlns:xlink="http://www.w3.org/1999/xlink" width="18.923" height="10.678" viewBox="0 0 18.923 10.678"><defs><radialGradient id="radial-gradient" cx="9.4615" cy="5.339" r="7.682" gradientUnits="userSpaceOnUse"><stop offset="0" stop-color="#9b0400"/><stop offset="1" stop-color="#4c0200"/></radialGradient></defs><title>CZ</title><g id="Layer_2" data-name="Layer 2"><g id="Layer_1-2" data-name="Layer 1"><path id="CZ" d="M7.633.794,7.875.783,8.12.672,8.14.491,8.124.153,8.15.104,8.521.2l.372.152.052.336.1.165.118.151.112.068.195.011.505.199.243.04.249.138.21.14.153.03.071.153.094.105.166-.081.606-.113.218.151.147.16.02.05-.077.141-.037.109-.063.073-.208.077-.117.124-.086.136.058.13.17.098.12.022.046.095.385.424.306.553.119.086.112.021.13-.081.15-.18.177-.129.15-.067.265-.153.011-.099-.222-.375-.127-.304.03-.055.283.048.48.166.739.541h.133l.258-.041.281-.088.134-.1.05.037.043.297-.074.163-.336.158.019.078.087.101.151.068.184.192.127.219.111.101.122.048.306-.117.086-.092.039-.065.059.014.107.108.033.063.297.122.172.15.109.07.121-.068.471.119.13.1.041.166-.023.101.072.26.596.623.062.318.009.127-.071.006-.161.066-.206.024-.223-.013-.174.115-.164.188-.17.13-.091.115-.052.12-.572.338-.08.141-.063.192-.027.258-.04.232-.099.122-.309.105-.077.056-.058.118-.173.181-.203.172-.374.197-.401.06-.521-.064-.305-.077-.147.085-.204.256-.218.44-.091.331-.07-.094-.125-.35-.141-.045-.193-.033-.145-.052-.314-.202L12.5,9.745l-.185-.016-.176.119-.134.14-.415-.002-.455-.065-.651-.466-.169-.004-.18.021L9.85,9.361l-.551-.302L9.04,8.988l-.163.043-.149.068-.107.008L8.56,9.008l-.205-.121-.206-.014-.059.073-.07.665-.069.24L7.668,9.84l-.101.112-.222.321-.043.307-.386-.059-.183-.052-.162.039-.178.17-.499-.01-.395-.101-.169-.381-.181-.152L4.921,9.9l-.079-.031-.126-.208-.239-.258-.385-.354-.3.018-.111-.094-.049-.13-.125-.225-.142-.156-.171-.061-.245-.2-.328-.436-.3-.302-.29.005L1.848,7.31,1.66,7.102l-.138-.201-.214-.49-.156-.28-.121-.173L.894,5.814l-.05-.115.168-.262.061-.13.072-.1.042-.106-.002-.079-.152-.26L.827,4.574l-.303-.19L.331,4.143l-.07-.22L.24,3.801.107,3.637,0,3.396V3.251L.027,3.21h.1l.112.099.158.19.13.278.079-.106.149-.296.264-.335.27-.192.243-.016.199-.053.165-.096.289.039.209.069.068-.043.085-.175.054-.151.462-.088.159-.292.089.001L3.414,2l.098-.111.094-.046.075.056.098.036.102-.07.152-.336.084-.052.406-.052.554-.198.28-.176L5.632.955,5.928.784,6.397.618,6.419.55,6.202.379,6.129.271,6.079.16,6.156.037,6.259,0l.133.051.393.073.108.071.039.173.1.161.08.018L7.083.809l.125.102L7.392.99,7.513.974,7.6.868Z" fill="url(#radial-gradient)"/></g></g></svg>