<svg xmlns="http://www.w3.org/2000/svg" xmlns:xlink="http://www.w3.org/1999/xlink" width="25.7091" height="34.8369" viewBox="0 0 25.7091 34.8369"><defs><radialGradient id="radial-gradient" cx="12.8546" cy="17.4184" r="15.3075" gradientUnits="userSpaceOnUse"><stop offset="0" stop-color="#9b0400"/><stop offset="1" stop-color="#4c0200"/></radialGradient></defs><title>DE</title><g id="Layer_2" data-name="Layer 2"><g id="Layer_1-2" data-name="Layer 1"><path id="DE" d="M6.876,1.325l-.065.096L6.842.734,7.149,0l.13.017L7.146.216,7.107.355,7.053.632l.024.144.701.04L7.696.944l-.711.086Zm4.019-.187.017.089.411.129.173.206.192.312.019.448-.246.322-.204.204.771-.077.077.184.117.199.415-.142,1.042.587.63-.286.161-.017.143.474-.157.476-.555.506.123.3121.178.069.523-.0661.829.3071.173-.0961.672-.709.269-.153.884-.109.161-.276.358-.277.23-.303.553-.579.572.104.334.111.366.056.333.617.844.679.775-.059.275.641.122.788.238.247.209.161.631.168.025.01.021.106.039.39.053.322.325,1.282-.006.312-.004.083-.119.437-.211.367-.279.207-.154.23-.028.253.351.443.731.633.295.54-.139.448-.042.328.054.208.117.167.18.126.072.194-.037.262.034.182.1351.129-.013.05-.065.182-.089.331-.0511.242-.206.328.063.279.161.328.123.165.039.156-.078.37.039.095.509.272.083.125.049.261.179.557-.148.704-.13.3851-.29.609-.0139.056-.0331.074-.0869.106-.121.0159-.183-.079-.125-.102.029-.2619-.081-.0181-.1-.161-.039-.173-.1079-.071-.393-.073-.134-.051-.103.037-.0771.123.049.111.073.108.2181.171-.022.068-.47.167-.295.17-.275.096-.28.176-.553.198-.406.052-.084.052-.151.335-.102.07-.099-.036-.074-.055-.0939.045-.0981.111-.103.043-.089-.001-.159.292-.462.088-.054.151-.085.175-.068.043-.208-.069-.289-.039-.166.096-.199.053-.243.016-.271.191-.264.335-.148.296-.08.106-.129-.2781-.158-.19-.112-.099h-.1l-.026.041v.145l.107.241.132.165.021.122.071.22.193.241.302.19.206.188.153.26.001.08-.042.106-.072.1-.061.13-.168.262.05.115.137.144.121.173.156.28.214.49.138.201.188.208.184.158.29-.005.3.302.328.436.245.199.171.061.142.157.125.225.049.13.1111.094.3-.018.386.354.238.258.126.208-.033.083-.016.259.004.274-.038.145-.172.191-.089.041-.048.041-.529-.249-.042.042-.033.031-.142.719-.097.138-.146.127-.302.124-.21.05-.164.063-.519.3-.233.18-.151.226-.001.13.252.381.291.394.0009.345-.128.258-.03.099.086.038.161.014.135.044.057.182-.017.315-.046.295-.048.124-.13.01-.25-.127-.195-.148-.075-.091-.004-.109.042-.069-.069-.134-.24-.125-.257.054-.189.083-.123-.005-.132-.12-.204-.092-.266-.061-.1659-.064-.0351.038.0191.259-.051.113-1.316.15-.401.14-.292.181-.216.078-.053.111-.214.146-.241.046-.059-.047-.155.0669-.264.0651-.171-.021-.081-.1181-.163-.181-.066-.125.007-.0809-.369-.016-.232-.096-.494.022-.122-.041-.025.043-.074.514-.098.21-.158.217-.203.121-.161.022.007-.158.041-.191-.117-.045-.175-.021-.084-.057.022-.146-.041-.085-.072-.102-.176-.131-.372-.194-.253-.097-.095.103-.181.103-.285-.034-.07.041-.489-.31-.469-.298h-.155l-.691.06-.02-.026-.121-.17-.106-.054-.064.028-.043.049-.074-.008-.31-.274-.127-.04-.176.037-.208.148-.091.181.028.104.107.045.283-.03.041.03.01.059-.031.057-.229.047-.0661.069-.0669.017-.043.011-.244-.072h-.363l-.293.127-.468.051-.643-.025-.231-.095-.141-.057-.102-.28.026-.415.153-.551.043-.405-.068-.258.091-.388.25-.518.167-.547.083-.578.121-.377.238-.265.565-.742.046-.056-.016-.371-.152-.053-.223-.107-.5669-.132-.5281-.085-.24-.105-.21-.281-.13-.004-.2551.101-.3179.068-.232-.059-.145.011-.081.052-.041-.046-.058-.241-.121-.063-.188-.056-.117.024-.081.12-.125.084-.114-.027-.359-.558-.092-.124-.0231-.114-.09-.208-.2139-.208-.2131-.066-.1059.023.012-.258.083-.375.08-.196.106-.16.113-.1119.025-.202-.018-.1911-.13-.03-.326-.1409-.193-.149-.143-.187-.188-.257-.08-.262-.004-.261.022-.117.014-.081.151-.408.532-.366-.059-.369-.008-.227-.129-.148-.258-.06-.068-.103-.029-.101.189-.227-.229-.179L.735,20.335l-.318-.234L.383,20.02l.153-.685-.117-.2-.145-.102-.169-.05-.078-.095L0,18.779l.03-.067.199.02.062-.071.474-.404.02-.078-.066-.044-.086-.023-.022-.085.003-.112.253-.585.075-.25.017-.177-.016-.175-.146-.275-.141-.22-.005-.175-.103-.092-.292-.471v-.182l.165-.142.231-.09.077-.075.138-.047.367.136.164.118.046-.024.148-.128.26.02.629-.258.094-.124.07-.132.006-.058-.244-.255L2.4,14.16l.032-.106.069-.084.144-.057.153-.112.343-.318.119-.276.037-.3.0069-.224L3.21,12.505l-.095-.115-.129.0181L2.735,12.399l-.2349-.1-.129-.1619-.032-.142.0589-.09.018-.11-.0379-.111.015-.093.106-.075.743.002.056-.082.05-.432.186-.659.1749-.368.029-.155-.003-.875.024-.445-.127-.209-.277-.229.059-.478.092-.374.279-.46.221-.126.965-.075,1.066.031.443.695-.164.356.259.1659L6.7,7.738l.095-.31.063-.344.091-.104.33.257.116.176.007.564.122-.765-.091-.537.062-.522.133-.272.122-.173.782.187.864-.096.327.202.739,1.007.247.165.3111.052-.429-.215-.896-1.226-.268-.152-.412-.046-.257-.12-.162-.186-.047-.167.009-1.245-.154-.186-.2-.064-.125.085-.256.001-.054-.283.063-.21.514-.144.339-.193L8.7,2.533l-.214-.269L8.23,1.77l-.301-.465L7.8951.763h.001l.524.01.128.021.794.254.194.178.244.008.44-.1659.329-.073.127.103.179.043h.04Zm-3.233.548-.109.119-.268-.014-.15-.112.049-.119.142-.091.118-.014.178.056ZM22.035,3.278l.07.323-.075.165-.315-.274-.317.004-.189.421-.141.018-.4891-.383L20.5,3.365l-.016-.156.07-.54-.013-.17.154-.186.024-.27.271-.284.242-.011.076.241.116.166.406.186.061.084.0369.117-.189.228-.064.117.06.187Zm-6.809-.169-.431.009-.165-.192-.165-.049.089-.237.116-.087.4169.155.1311.303Zm8.218,2.237-.037.149.043.229-.116-.017-.348.054-.344-.076L22.576,5.4l.055-.274-.138-.189-.127-.111-.019-.158.021-.165.593.442Z" fill="url(#radial-gradient)"/></g></g></svg>