<?xml version="1.0" encoding="utf-8"?>
<!-- Generator: Adobe Illustrator 22.1.0, SVG Export Plug-In . SVG Version: 6.00 Build 0)  -->
<svg version="1.1" id="Layer_1" xmlns="http://www.w3.org/2000/svg" xmlns:xlink="http://www.w3.org/1999/xlink" x="0px" y="0px"
	 width="25.8509px" height="34.8369px" viewBox="0 0 25.8509 34.8369" enable-background="new 0 0 25.8509 34.8369"
	 xml:space="preserve">
<radialGradient id="DE_1_" cx="12.8546" cy="17.4184" r="15.3075" gradientUnits="userSpaceOnUse">
	<stop  offset="0" style="stop-color:#FFD496"/>
	<stop  offset="1" style="stop-color:#F29D25"/>
</radialGradient>
<path id="DE" fill="url(#DE_1_)" d="M6.876,1.325L6.811,1.421l0.031-0.687L7.149,0l0.13,0.017L7.146,0.216L7.107,0.355L7.053,0.632
	l0.024,0.144l0.701,0.04L7.696,0.944L6.985,1.03L6.876,1.325z M10.895,1.138l0.017,0.089l0.411,0.129l0.173,0.206l0.192,0.312
	l0.019,0.448l-0.246,0.322l-0.204,0.204l0.771-0.077l0.077,0.184l0.117,0.199l0.415-0.142l1.042,0.587l0.63-0.286l0.161-0.017
	l0.143,0.474l-0.157,0.476l-0.555,0.506l0.123,0.312l0.178,0.069l0.523-0.066l0.829,0.307l0.173-0.096l0.672-0.709l0.269-0.153
	l0.884-0.109l0.161-0.276l0.358-0.277l0.23-0.303l0.553-0.579l0.572,0.104l0.334,0.111l0.366,0.056l0.333,0.617l0.844,0.679
	l0.775-0.059l0.275,0.641l0.122,0.788l0.238,0.247l0.209,0.161l0.631,0.168l0.025,0.01l0.021,0.106l0.039,0.39l0.053,0.322
	l0.325,1.282l-0.006,0.312l-0.004,0.083l-0.119,0.437l-0.211,0.367l-0.279,0.207l-0.154,0.23l-0.028,0.253l0.351,0.443l0.731,0.633
	l0.295,0.54l-0.139,0.448l-0.042,0.328l0.054,0.208l0.117,0.167l0.18,0.126l0.072,0.194l-0.037,0.262l0.034,0.182l0.135,0.129
	l-0.013,0.05l-0.065,0.182l-0.089,0.331l-0.051,0.242l-0.206,0.328l0.063,0.279l0.161,0.328l0.123,0.165l0.039,0.156l-0.078,0.37
	l0.039,0.095l0.509,0.272l0.083,0.125l0.049,0.261l0.179,0.557l-0.148,0.704l-0.13,0.385l-0.29,0.609l-0.014,0.056l-0.033,0.074
	l-0.087,0.106l-0.121,0.016l-0.183-0.079l-0.125-0.102l0.029-0.262l-0.081-0.018l-0.1-0.161l-0.039-0.173l-0.108-0.071l-0.393-0.073
	l-0.134-0.051l-0.103,0.037l-0.077,0.123l0.049,0.111l0.073,0.108l0.218,0.171l-0.022,0.068l-0.47,0.167l-0.295,0.17l-0.275,0.096
	l-0.28,0.176l-0.553,0.198l-0.406,0.052l-0.084,0.052l-0.151,0.335l-0.102,0.07l-0.099-0.036l-0.074-0.055l-0.094,0.045
	l-0.098,0.111l-0.103,0.043l-0.089-0.001l-0.159,0.292l-0.462,0.088l-0.054,0.151l-0.085,0.175l-0.068,0.043l-0.208-0.069
	l-0.289-0.039l-0.166,0.096l-0.199,0.053l-0.243,0.016l-0.271,0.191l-0.264,0.335l-0.148,0.296l-0.08,0.106l-0.129-0.278
	l-0.158-0.19l-0.112-0.099h-0.1l-0.026,0.041v0.145l0.107,0.241l0.132,0.165l0.021,0.122l0.071,0.22l0.193,0.241l0.302,0.19
	l0.206,0.188l0.153,0.26l0.001,0.08l-0.042,0.106l-0.072,0.1l-0.061,0.13l-0.168,0.262l0.05,0.115l0.137,0.144l0.121,0.173
	l0.156,0.28l0.214,0.49l0.138,0.201l0.188,0.208l0.184,0.158l0.29-0.005l0.3,0.302l0.328,0.436l0.245,0.199l0.171,0.061l0.142,0.157
	l0.125,0.225l0.049,0.13l0.111,0.094l0.3-0.018l0.386,0.354l0.238,0.258l0.126,0.208l-0.033,0.083l-0.016,0.259l0.004,0.274
	l-0.038,0.145l-0.172,0.191l-0.089,0.041l-0.048,0.041l-0.529-0.249l-0.042,0.042l-0.033,0.031l-0.142,0.719l-0.097,0.138
	l-0.146,0.127l-0.302,0.124l-0.21,0.05l-0.164,0.063l-0.519,0.3l-0.233,0.18l-0.151,0.226l-0.001,0.13l0.252,0.381l0.291,0.394
	l0.001,0.345l-0.128,0.258l-0.03,0.099l0.086,0.038l0.161,0.014l0.135,0.044l0.057,0.182l-0.017,0.315l-0.046,0.295l-0.048,0.124
	l-0.13,0.01l-0.25-0.127l-0.195-0.148l-0.075-0.091l-0.004-0.109l0.042-0.069l-0.069-0.134l-0.24-0.125l-0.257,0.054l-0.189,0.083
	l-0.123-0.005l-0.132-0.12l-0.204-0.092l-0.266-0.061l-0.166-0.064l-0.035,0.038l0.019,0.259l-0.051,0.113l-1.316,0.15l-0.401,0.14
	l-0.292,0.181l-0.216,0.078l-0.053,0.111l-0.214,0.146l-0.241,0.046l-0.059-0.047l-0.155,0.067l-0.264,0.065l-0.171-0.021
	l-0.081-0.118l-0.163-0.181l-0.066-0.125l0.007-0.081l-0.369-0.016l-0.232-0.096l-0.494,0.022l-0.122-0.041l-0.025,0.043
	l-0.074,0.514l-0.098,0.21l-0.158,0.217l-0.203,0.121l-0.161,0.022l0.007-0.158l0.041-0.191l-0.117-0.045l-0.175-0.021l-0.084-0.057
	l0.022-0.146l-0.041-0.085l-0.072-0.102l-0.176-0.131l-0.372-0.194l-0.253-0.097l-0.095,0.103l-0.181,0.103l-0.285-0.034
	l-0.07,0.041l-0.489-0.31l-0.469-0.298h-0.155l-0.691,0.06l-0.02-0.026l-0.121-0.17l-0.106-0.054l-0.064,0.028l-0.043,0.049
	l-0.074-0.008l-0.31-0.274l-0.127-0.04l-0.176,0.037l-0.208,0.148l-0.091,0.181l0.028,0.104l0.107,0.045l0.283-0.03l0.041,0.03
	l0.01,0.059l-0.031,0.057l-0.229,0.047l-0.066,0.069l-0.067,0.017l-0.043,0.011l-0.244-0.072h-0.363l-0.293,0.127l-0.468,0.051
	l-0.643-0.025l-0.231-0.095l-0.141-0.057l-0.102-0.28l0.026-0.415l0.153-0.551l0.043-0.405l-0.068-0.258l0.091-0.388l0.25-0.518
	l0.167-0.547l0.083-0.578l0.121-0.377l0.238-0.265l0.565-0.742l0.046-0.056l-0.016-0.371l-0.152-0.053l-0.223-0.107l-0.567-0.132
	l-0.528-0.085l-0.24-0.105l-0.21-0.281l-0.13-0.004l-0.255,0.101l-0.318,0.068l-0.232-0.059l-0.145,0.011l-0.081,0.052l-0.041-0.046
	l-0.058-0.241l-0.121-0.063l-0.188-0.056l-0.117,0.024l-0.081,0.12l-0.125,0.084l-0.114-0.027l-0.359-0.558l-0.092-0.124
	l-0.023-0.114l-0.09-0.208l-0.214-0.208l-0.213-0.066l-0.106,0.023l0.012-0.258l0.083-0.375l0.08-0.196l0.106-0.16l0.113-0.112
	l0.025-0.202l-0.018-0.191l-0.13-0.03l-0.326-0.141l-0.193-0.149l-0.143-0.187l-0.188-0.257l-0.08-0.262l-0.004-0.261l0.022-0.117
	l0.014-0.081l0.151-0.408l0.532-0.366l-0.059-0.369l-0.008-0.227l-0.129-0.148l-0.258-0.06l-0.068-0.103l-0.029-0.101l0.189-0.227
	l-0.229-0.179L0.735,20.335l-0.318-0.234L0.383,20.02l0.153-0.685l-0.117-0.2l-0.145-0.102l-0.169-0.05l-0.078-0.095L0,18.779
	l0.03-0.067l0.199,0.02l0.062-0.071l0.474-0.404l0.02-0.078l-0.066-0.044l-0.086-0.023l-0.022-0.085l0.003-0.112l0.253-0.585
	l0.075-0.25l0.017-0.177l-0.016-0.175l-0.146-0.275l-0.141-0.22l-0.005-0.175l-0.103-0.092l-0.292-0.471v-0.182l0.165-0.142
	l0.231-0.09l0.077-0.075l0.138-0.047l0.367,0.136l0.164,0.118l0.046-0.024l0.148-0.128l0.26,0.02l0.629-0.258l0.094-0.124
	l0.07-0.132l0.006-0.058l-0.244-0.255l-0.007-0.094l0.032-0.106l0.069-0.084l0.144-0.057l0.153-0.112l0.343-0.318l0.119-0.276
	l0.037-0.3l0.007-0.224l-0.094-0.178l-0.095-0.115l-0.129,0.018l-0.251-0.009l-0.235-0.1l-0.129-0.162l-0.032-0.142l0.059-0.09
	l0.018-0.11l-0.038-0.111l0.015-0.093l0.106-0.075l0.743,0.002l0.056-0.082l0.05-0.432l0.186-0.659l0.175-0.368l0.029-0.155
	l-0.003-0.875l0.024-0.445l-0.127-0.209l-0.277-0.229l0.059-0.478l0.092-0.374l0.279-0.46l0.221-0.126l0.965-0.075l1.066,0.031
	l0.443,0.695l-0.164,0.356l0.259,0.166L6.7,7.738l0.095-0.31l0.063-0.344L6.949,6.98l0.33,0.257l0.116,0.176l0.007,0.564
	l0.122-0.765L7.433,6.675l0.062-0.522l0.133-0.272L7.75,5.708l0.782,0.187l0.864-0.096l0.327,0.202l0.739,1.007l0.247,0.165
	l0.311,0.052l-0.429-0.215l-0.896-1.226l-0.268-0.152l-0.412-0.046l-0.257-0.12L8.5961,5.28l-0.047-0.167l0.009-1.245l-0.154-0.186
	l-0.2-0.064l-0.125,0.085l-0.256,0.001l-0.054-0.283l0.063-0.21l0.514-0.144l0.339-0.193l0.015-0.341l-0.214-0.269L8.2301,1.77
	l-0.301-0.465l-0.034-0.542h0.001l0.524,0.01l0.128,0.021l0.794,0.254l0.194,0.178l0.244,0.008l0.44-0.166l0.329-0.073l0.127,0.103
	l0.179,0.043h0.0399V1.138z M7.662,1.686L7.553,1.805L7.285,1.791l-0.15-0.112L7.184,1.56l0.142-0.091l0.118-0.014l0.178,0.056
	L7.662,1.686z M22.035,3.278l0.07,0.323L22.03,3.766l-0.315-0.274l-0.317,0.004l-0.189,0.421l-0.141,0.018l-0.489-0.383L20.5,3.365
	l-0.016-0.156l0.07-0.54l-0.013-0.17l0.154-0.186l0.024-0.27l0.271-0.284l0.242-0.011l0.076,0.241l0.116,0.166l0.406,0.186
	l0.061,0.084l0.037,0.117l-0.189,0.228l-0.064,0.117l0.06,0.187L22.035,3.278z M15.226,3.109l-0.431,0.009L14.63,2.926l-0.165-0.049
	l0.089-0.237l0.116-0.087l0.417,0.155l0.131,0.303L15.226,3.109z M23.444,5.346l-0.037,0.149l0.043,0.229l-0.116-0.017l-0.348,0.054
	l-0.344-0.076L22.576,5.4l0.055-0.274l-0.138-0.189l-0.127-0.111l-0.019-0.158l0.021-0.165l0.593,0.442L23.444,5.346z"/>
<g>
	<text transform="matrix(1 0 0 1 16.0793 14.8878)" fill="#770B00" font-family="'KornerDeliNF'" font-size="3.136px">Berlin</text>
	<g id="Layer_2_copy_2_5_" opacity="0.9">
		<path fill="#9B0F00" d="M21.6845,8.4918c-0.1402-0.0276-0.5271-0.0312-0.6406-0.0317V8.46c0,0-0.0057,0-0.0159,0
			c-0.0102,0-0.0159,0-0.0159,0v0.0001c-0.1135,0.0005-0.5004,0.0041-0.6406,0.0317c-1.6678,0.3283-1.1611,1.8331-0.8101,2.3402
			c0.2973,0.4295,1.3131,1.5778,1.3131,1.5778h0.3071c0,0,1.0158-1.1483,1.3131-1.5778
			C22.8456,10.3249,23.3523,8.8201,21.6845,8.4918z"/>
		<path fill="#770B00" d="M21.5483,8.4918c-0.1093-0.027-0.4066-0.0311-0.5045-0.0317V8.46c0,0-0.0057,0-0.0159,0
			c-0.0102,0-0.0159,0-0.0159,0v0.0001c-0.0979,0.0006-0.3952,0.0047-0.5045,0.0317c-1.3301,0.3283-0.926,1.8331-0.6461,2.3402
			c0.2371,0.4295,1.0472,1.5778,1.0472,1.5778h0.2385c0,0,0.8101-1.1483,1.0472-1.5778
			C22.4743,10.3249,22.8784,8.8201,21.5483,8.4918z"/>
		<path fill="#4C0700" d="M21.225,8.4918c-0.0377-0.0234-0.1316-0.0296-0.1812-0.0312l0-0.0006c0,0-0.006,0-0.0159,0.0002
			C21.018,8.46,21.012,8.46,21.012,8.46l0,0.0006c-0.0496,0.0016-0.1435,0.0078-0.1812,0.0312
			c-0.5282,0.3283-0.3677,1.8331-0.2566,2.3402c0.0942,0.4295,0.4159,1.5778,0.4159,1.5778h0.0756c0,0,0.3217-1.1483,0.4159-1.5778
			C21.5927,10.3249,21.7532,8.8201,21.225,8.4918z"/>
	</g>
</g>
</svg>
