<svg xmlns="http://www.w3.org/2000/svg" xmlns:xlink="http://www.w3.org/1999/xlink" width="4.616" height="5.036" viewBox="0 0 4.616 5.036"><defs><radialGradient id="radial-gradient" cx="2.308" cy="2.518" r="2.4153" gradientUnits="userSpaceOnUse"><stop offset="0" stop-color="#ffd496"/><stop offset="1" stop-color="#f29d25"/></radialGradient></defs><title>DJ</title><g id="Layer_2" data-name="Layer 2"><g id="Layer_1-2" data-name="Layer 1"><path id="DJ" d="M4.157,3.448l-.243.381-.311.488-.353.554-.221.004-.171-.032L2.74,4.749l-.242-.103-.273-.007-.26.096-.44.119-.398.039-.321.066-.265.077-.24-.042L.094,4.925l-.046-.59L0,3.695l.005-.501.073-.276L.143,2.81l.376-.381.13-.156.429-.632.369-.543L1.722.693l.085-.08L1.923.535l.082.023.536.391L2.635.938,2.814.817,2.976.399,3.09.246,3.139.25,3.483.133,3.794,0l.04.138L4.304.7l.155.276.157.506-.082.281-.123.184L4.23,2.11l-.629.401-.699.255-.446.511-.332-.035.051.193.123.022.194-.037.385-.148.341-.071.369-.005.334.064Z" fill="url(#radial-gradient)"/></g></g></svg>