<?xml version="1.0" encoding="utf-8"?>
<!-- Generator: Adobe Illustrator 22.1.0, SVG Export Plug-In . SVG Version: 6.00 Build 0)  -->
<svg version="1.1" id="Layer_1" xmlns="http://www.w3.org/2000/svg" xmlns:xlink="http://www.w3.org/1999/xlink" x="0px" y="0px"
	 width="19.691px" height="15.647px" viewBox="0 0 19.691 15.647" enable-background="new 0 0 19.691 15.647" xml:space="preserve">
<radialGradient id="DK_1_" cx="9.8455" cy="7.9565" r="8.8922" gradientTransform="matrix(1 0 0 -1 0 15.78)" gradientUnits="userSpaceOnUse">
	<stop  offset="0" style="stop-color:#FFD496"/>
	<stop  offset="1" style="stop-color:#F29D25"/>
</radialGradient>
<path id="DK" fill="url(#DK_1_)" d="M4.543,14.693H4.501L4.322,14.65l-0.127-0.103L3.866,14.62l-0.44,0.166l-0.244-0.008L2.988,14.6
	l-0.794-0.254l-0.128-0.021l-0.524-0.01H1.541l-0.025-0.402l-0.065-0.291l-0.184-0.434l0.272-0.105l-0.053-0.85l-0.099-0.441
	l-0.759-0.455L0.03,10.894l0.138-1.5l0.059-0.406L0,8.198l0.024-0.914L0.12,5.836l0.19-0.057l0.14,0.007l0.538,0.261l0.224,0.026
	l0.154,0.233l0.18,0.096l0.13-0.247l0.051-0.423l0.426-0.549L2.452,4.98l0.204-0.097l0.206,0.222l0.157,0.249l0.037-0.545
	l0.127-1.043L2.778,3.602L2.447,3.744L2.12,4.406L1.828,5.235L1.354,5.311L0.976,5.545L0.635,5.302l-0.22-0.214L0.41,4.775
	l0.05-0.189l0.401-0.678l0.538-0.653l0.542,0.006l0.395-0.209l0.236-0.025l0.737,0.045l0.378-0.144l0.339-0.3l0.732-1.277
	l0.413-0.535l0.833-0.188l0.77-0.62L6.989,0L6.627,0.462L6.569,0.641L6.525,0.914l0.259,0.592l-0.055,0.36l0.019,0.706L6.503,2.939
	L6.227,3.717L6.108,3.831L6.082,4.735L6.109,4.95l-0.04,0.818l0.283,0.334l0.299,0.174L7.649,6.27l0.104,0.146l0.122,0.251
	L7.786,7.093L7.679,7.414L7.39,7.684L7.019,7.885L6.788,7.894L6.474,7.512L6.325,7.636L6.171,7.831L5.912,8.873L5.789,9.574
	L5.723,9.631L5.577,9.527L5.325,9.519L5.006,9.685L5.17,9.833l0.173,0.257l-0.069,0.129l-0.281,0.139l-0.249,0.281L4.64,10.851
	l-0.313,0.251L4.129,11.42l0.097,0.393l0.041,0.345l0.086,0.38l-0.078,0.303l-0.389,0.434L3.743,13.65l0.333-0.005l0.205,0.086
	l0.12,0.111l0.124,0.157l-0.076,0.194L4.543,14.693z M8.226,2.52L8.112,2.641L7.726,2.47l0.17-0.24L8.32,2.119l0.249,0.037
	L8.295,2.394L8.226,2.52z M12.483,9.972l0.007,0.498l-0.073,0.145l-0.107,0.096l-0.28,0.101l-0.243,0.141L11.57,11.2l-0.08,0.353
	l0.169,0.258l0.308,0.141l0.079,0.49l-0.254,0.241l-0.652,0.24l-0.068,0.579l0.021,0.455l-0.012,0.33l-0.052,0.456l-0.527,0.207
	l-0.341-0.694l-0.003-0.279l-0.102-0.326l-0.019-0.278l-0.121-0.445l-0.499-0.121l-0.194-0.016l-0.271,0.083l-0.067-0.032
	l-0.325-0.61l0.054-0.676l-0.173-0.342l-0.024-0.155l0.004-0.172l-0.143-0.142L8.106,10.67l-0.084-0.383l0.198-0.093l0.491,0.045
	l0.144-0.026l0.131-0.08l0.397-0.632l-0.012-0.14L9.413,9.18l0.429-0.067l0.191,0.245L9.994,9.75l0.024,0.5l0.26,0.136l0.101,0.02
	l0.109-0.369l0.076-0.18l0.103-0.101l0.035-0.338l-0.061-0.207l-0.13-0.155l0.486-0.42L11.5,8.302l0.293-0.018l0.294,0.082
	l0.274,0.112l0.148,0.0969l0.083,0.156l-0.184,0.371l-0.051,0.202L12.483,9.972z M6.978,9.982L6.93,10.071L6.752,9.978L6.733,9.656
	L6.8,9.366l-0.079-0.26l0.087-0.167l0.25,0.389l0.071,0.183L7.032,9.729L6.978,9.982z M12.755,10.908l-0.264,0.211l-0.058-0.011
	l-0.086-0.289l0.14-0.176l0.082-0.149l0.059,0.004l0.08,0.162L12.755,10.908z M7.084,10.843l0.117,0.258l0.144,0.55l0.228,0.614
	l-0.095,0.256l0.065,0.328L7.478,13.19l-0.453,0.396l-0.508,0.018l-0.528-0.191l-0.746-0.369l-0.06-0.207l-0.104-0.115l-0.2-0.631
	l0.004-0.781l0.375-0.099l0.819-0.374l0.189,0.059l0.198,0.191l0.228,0.011l0.33-0.271L7.084,10.843z M19.552,13.736l-0.104,0.083
	l-0.464-0.137l-0.565-0.339l0.083-0.666l0.145-0.289l1.031,0.747l0.013,0.281L19.552,13.736z M7.334,15.056l-0.125,0.027L7.04,14.69
	l-0.022-0.124l0.199-0.252l0.128-0.286l0.333-0.44l0.191-0.517l0.073,0.008L7.857,13.54L7.42,14.819L7.334,15.056z M5.445,14.397
	l-0.292,0.067l-0.149-0.118L4.73,14.301L4.632,13.55l0.028-0.045l0.138,0.053l0.473,0.351l0.165,0.383L5.445,14.397z M12.428,14.01
	l-0.107,0.073L11.89,14.03l-0.486,0.338l-0.184-0.107l0.07-0.216l0.051-0.079l0.163-0.092l0.109-0.134l0.043-0.21l0.101,0.113
	l0.301,0.047l0.147,0.067l0.123,0.099L12.428,14.01z M6.633,14.585l-0.188,0.051L6.23,14.53l-0.351-0.399l-0.044-0.106l0.184,0.067
	l0.229,0.209l0.187,0.045l0.256,0.176L6.633,14.585z M9.094,14.371l0.497,0.302l0.336-0.018l0.229,0.125l0.055,0.193l0.02,0.428
	l-0.24,0.125l-0.265-0.042l-0.361,0.163l-1.184-0.699l0.017-0.585l0.047-0.23l0.561-0.055L9.094,14.371z"/>
<g>
	<text transform="matrix(1 0 0 1 7.4292 12.1206)" fill="#770B00" font-family="'KornerDeliNF'" font-size="1.6491px">Copenhagen</text>
	<g id="Layer_2_copy_2_6_" opacity="0.9">
		<path fill="#9B0F00" d="M12.6645,8.7574c-0.0737-0.0145-0.2772-0.0164-0.3369-0.0167l0,0c0,0-0.003,0-0.0084,0s-0.0084,0-0.0084,0
			l0,0c-0.0597,0.0002-0.2632,0.0022-0.3369,0.0167c-0.877,0.1726-0.6106,0.9639-0.426,1.2306
			c0.1563,0.2258,0.6905,0.8297,0.6905,0.8297h0.1615c0,0,0.5342-0.6038,0.6905-0.8297C13.275,9.7214,13.5415,8.9301,12.6645,8.7574
			z"/>
		<path fill="#770B00" d="M12.5929,8.7574c-0.0575-0.0142-0.2138-0.0163-0.2653-0.0167V8.7406c0,0-0.003,0-0.0084,0
			s-0.0084,0-0.0084,0v0.0001c-0.0515,0.0003-0.2078,0.0025-0.2653,0.0167C11.346,8.93,11.5585,9.7213,11.7058,9.988
			c0.1247,0.2258,0.5507,0.8297,0.5507,0.8297h0.1254c0,0,0.426-0.6038,0.5507-0.8297C13.0798,9.7214,13.2923,8.9301,12.5929,8.7574
			z"/>
		<path fill="#4C0700" d="M12.4229,8.7574c-0.0198-0.0123-0.0692-0.0156-0.0953-0.0164V8.7407c0,0-0.0031,0-0.0084,0.0001
			c-0.0052-0.0001-0.0084-0.0001-0.0084-0.0001V8.741c-0.0261,0.0008-0.0755,0.0041-0.0953,0.0164
			C11.9377,8.93,12.0221,9.7213,12.0806,9.988c0.0495,0.2258,0.2187,0.8297,0.2187,0.8297h0.0397c0,0,0.1692-0.6038,0.2187-0.8297
			C12.6162,9.7214,12.7006,8.9301,12.4229,8.7574z"/>
	</g>
</g>
</svg>
