<svg xmlns="http://www.w3.org/2000/svg" xmlns:xlink="http://www.w3.org/1999/xlink" width="19.691" height="15.6471" viewBox="0 0 19.691 15.6471"><defs><radialGradient id="radial-gradient" cx="9.8455" cy="7.8235" r="8.8922" gradientUnits="userSpaceOnUse"><stop offset="0" stop-color="#ffd496"/><stop offset="1" stop-color="#f29d25"/></radialGradient></defs><title>DK</title><g id="Layer_2" data-name="Layer 2"><g id="Layer_1-2" data-name="Layer 1"><path id="DK" d="M4.543,14.6931H4.501l-.179-.043-.127-.103-.329.073-.44.166-.244-.008L2.988,14.6l-.794-.254-.128-.021-.524-.01H1.541l-.025-.402-.065-.291-.184-.434.272-.105-.053-.85-.099-.441-.759-.455-.598-.443.138-1.5.059-.406L0,8.1981l.024-.914L.12,5.8361l.19-.057.14.0069.538.261.224.026.154.233.18.096.13-.247.051-.423.426-.549.299-.203.204-.097.206.222.157.249.037-.545.127-1.043-.405-.164-.331.142-.327.662-.292.829-.474.076-.378.234L.635,5.302l-.22-.214L.41,4.775l.05-.189.401-.678.538-.653.542.006.395-.209.236-.025.737.045.378-.144.339-.3.732-1.277L5.171.816,6.004.628l.77-.62L6.989,0,6.627.462,6.5689.641l-.044.273.259.592-.055.36.0191.706-.245.367-.276.778-.119.114-.026.904.027.215-.04.818.283.334.299.174.998-.006.104.146.122.251-.089.426-.107.321-.289.27-.371.201-.231.009-.314-.382-.149.124-.154.195L5.912,8.873l-.123.701-.066.057-.146-.104-.252-.008-.319.166.164.148.173.257-.069.129-.281.139-.249.281-.104.212-.313.251-.198.318.097.393.041.345.086.38-.078.303-.389.434-.143.375.333-.005.205.086.12.111.124.157-.076.194ZM8.226,2.52l-.114.121L7.726,2.47l.17-.24.424-.111.249.037-.274.238Zm4.257,7.452.007.498-.073.145-.107.096-.28.101-.243.141L11.57,11.2l-.08.353.169.258.308.141.079.49-.254.241-.652.24-.068.579.021.455-.012.33-.052.456-.527.207-.341-.694-.003-.279-.102-.326-.019-.278-.121-.445-.499-.121-.194-.016-.271.083-.067-.032-.325-.61.054-.676-.173-.342-.024-.155.004-.172-.143-.142-.172-.075-.084-.383.198-.093.491.045.144-.026.131-.08.397-.632-.012-.14.042-.181.429-.067.191.245-.039.392.024.5.26.1359.101.02.109-.369.076-.18.103-.1011.035-.338-.061-.207-.13-.155.486-.42.503-.334.293-.018.294.082.274.112.148.097.083.156-.184.371-.051.202Zm-5.505.01-.048.089-.178-.093-.0191-.322.067-.29-.079-.26.087-.167.25.389.071.183-.0969.218Zm5.777.926-.264.211-.058-.011-.086-.289.14-.176.082-.149.059.004.08.162Zm-5.671-.065.117.258.144.55.228.614-.095.256.065.328-.065.341-.453.396-.508.018-.528-.191-.746-.369-.06-.207-.104-.115-.2-.631.004-.781.375-.099.819-.374.189.059.198.191.228.011.33-.271Zm12.468,2.893-.104.083-.464-.137-.565-.339.083-.666.145-.289,1.031.747.013.281Zm-12.218,1.32-.125.027L7.04,14.69l-.022-.124.199-.252.128-.2861.333-.44.191-.517.073.008-.085.461L7.42,14.819Zm-1.889-.659-.292.067-.149-.1181-.274-.045-.098-.751.028-.045.138.053.473.351.165.383Zm6.983-.387-.107.073-.431-.053-.486.338-.184-.107.07-.216.051-.079.163-.092.109-.134.043-.21.101.113.301.047.147.0669.123.099Zm-5.795.575-.188.051L6.23,14.53l-.351-.399-.044-.106.184.067.229.209.187.045.256.176Zm2.461-.214.497.302.336-.018.229.125.055.193.02.428-.24.125-.265-.042-.361.163-1.184-.699.017-.585.047-.23.561-.055Z" fill="url(#radial-gradient)"/></g></g></svg>