<svg xmlns="http://www.w3.org/2000/svg" xmlns:xlink="http://www.w3.org/1999/xlink" width="10.276" height="6.714" viewBox="0 0 10.276 6.714"><defs><radialGradient id="radial-gradient" cx="5.138" cy="3.357" r="4.3398" gradientUnits="userSpaceOnUse"><stop offset="0" stop-color="#ffd496"/><stop offset="1" stop-color="#f29d25"/></radialGradient></defs><title>DO</title><g id="Layer_2" data-name="Layer 2"><g id="Layer_1-2" data-name="Layer 1"><path id="DO" d="M.652,5.532l.012-.484.075-.197L.67,4.644l-.311-.22L.169,4.14,0,3.889l.038-.036.338-.011.119-.093.227-.257.045-.207L.749,3.128.601,2.941.543,2.743l.182-.172.239-.252.033-.097L.992,2.126.713,1.861.694,1.746l.13-.288L.811,1.267.682.67.621.581.745.531.827.353.935.194,1.079.109,1.243.055,1.568.06l.45.138L2.146.196,2.578.07,2.936,0l.338.08.137.108.278.171.14.051.44-.003L4.39.424l.369.282L5.07.819l.181.005L5.575.715l.161.003L5.92.961l.036.345.154.314.236.201,1.163-.084.259.165-.088.136-.165.073-.553-.032-.241.016-.049.136-.001.126.323.03.317.063.324.102.328.069.37.045.365.073.608.247.671.56.18.128.119.175-.057.217-.24.354-.136.113-.198.07-.136.144-.131.247-.08.021-.094-.01-.161-.14L8.928,4.65l-.325-.202-.385.026L7.65,4.355l-.343.057-.344.014-.351-.061-.354-.021-.353.076-.342.129-.126.083-.22.201L5.1,4.908l-.833.101-.239-.148-.223-.202-.32-.027-.465.156-.29.057-.118.066-.035.077-.001.282-.065.171-.453.646-.255.456-.105.14-.122.031-.223-.262-.142-.094L1.035,6.31.96,6.171l.003-.198L.917,5.781.808,5.63Z" fill="url(#radial-gradient)"/></g></g></svg>