<svg xmlns="http://www.w3.org/2000/svg" xmlns:xlink="http://www.w3.org/1999/xlink" width="57.957" height="57.651" viewBox="0 0 57.957 57.651"><defs><radialGradient id="radial-gradient" cx="28.9785" cy="28.8255" r="28.9021" gradientUnits="userSpaceOnUse"><stop offset="0" stop-color="#ffd496"/><stop offset="1" stop-color="#f29d25"/></radialGradient></defs><title>DZ</title><g id="Layer_2" data-name="Layer 2"><g id="Layer_1-2" data-name="Layer 1"><path id="DZ" d="M48.44.543l.059.186.01.174-.266.162-.175.094-.21.447-.389.303-.065.092.003.083.264.137.088.13.041.174-.118.622-.074.476-.097.623.004.237.1.284.099.221.031.25-.035.615.121.355.097.327-.231.407-.099.359-.062.513-.025.323-.149.298-.194.279-.219.174-.27.15-.311.197-.252.527-.545.438-.114.15-.051.35.013.485.096.385.261.568.229.624.062.313.088.119.322.204.557.276.103.113.276.428.262.766.082.506.51.402.471.37.452.325.491.352.071.108.163.745.163.738.178.811.18.812.212.953.12.539.145.653.171.764-.275.162-.31.207.226.392.436.637.263.513.092.223.205.635.167.614.043.199.061.472-.075,1.296.12,1.639.162.814-.255.733-.218.699.014.351.12.547.118.404.16.212-.031.679-.067.246-.49.355-.543.325-.15.275-.043.306.072.249.373.55.561.823.617.904.051.227.025.64.257.803.278.35.104.261.197.187.196.137.122.016.693-.218,1.185.36,1.121.366.082.072.245.463.401.755.297.603.266.539-1.453.928-1.454.926-1.453.924-1.453.921-1.453.92-1.454.918-1.453.916-1.453.913-.964.605-.613.534-.769.667-.726.662-.571.521-.74.672-.373.339-.825.749-.248.133-1.093.221-1.003.202-.926.187-.633.128-.613.123-.891.174-.636.125-.686.134-.107.023-.124.005-.093-.005-.19-.074-.229-.175-.153-.09-.038-.138.089-.184.111-.165.042-.13.076-.099.098-.08.004-.113-.081-.186-.071-.257.003-.467.002-.156v-.056l-.205-.179-.387-.198-.356-.116-.162-.04-.393-.07-.543-.125-.191-.086-.352-.435-.173-.111-.815-.074-.271-.072-.222-.103-.19-.14-.107-.239-.032-.195L28.89,53l-.899-.472-.229-.16-.121-.149-.004-.221.024-.271-.038-.241-.038-.118-.411-.286-.919-.642-.919-.642-.919-.643-.919-.644-.919-.645-.919-.646-.919-.647-.919-.648-.919-.65-.92-.649-.918-.652-.919-.652-.919-.653-.92-.655-.919-.656-.919-.657-.777-.555-.857-.588-.637-.431-.632-.43-.68-.461-.442-.286-.527-.342-.528-.343-.528-.343-.528-.343-.528-.343-.528-.344-.527-.344-.528-.345-.528-.345-.527-.345-.528-.345-.528-.346-.528-.346-.528-.347-.528-.347L0,32.435V28.216l.014-.218.052-.093.285-.157.446-.358.165-.159.211-.161.747-.485.155-.136.726-.559.17-.082.39-.055.163-.105.219-.224.322-.256.209-.122.05-.022.134-.018.671.076.282.057.337.048.105-.033.09-.08.127-.179.027-.213.008-.186.02-.081.059-.037.147.014.196.025.401-.008.136-.026.455-.04.643-.121.51-.158.406-.125.435-.329.319-.347.331-.518.263-.45.533-.281.445-.171.255-.067.578-.238.489-.36.459-.338.351-.045.444-.056.099-.063.112-.12.006-.212-.134-.149-.162-.078-.115-.086-.114-.016-.061-.102.034-.188.017-.174.073-.174-.02-.246-.114-.246-.035-.177.008-.176.056-.137.164-.091.191-.035.268.044.463-.059,1.185-.426.082-.131.076-.295.085-.259.123-.087.067-.019.395-.07.559-.098.21-.014.61.028.444.021.718.034.51.017.444.015.566.02.139-.06v-.189l-.102-.352.062-.22.218-.204.272-.228-.127-.278-.217-.186-.303-.224-.157-.091-.275-.271-.168-.309-.114-.652-.209-.366-.152-.452.135-.831-.202-.503-.031-.218-.002-.257.062-.445-.04-.627-.238-.648.112-.221.052-.115-.017-.099-.217-.206-.092-.171.048-.16.113-.233-.01-.098-.351-.284-.592-.461-.166-.202-.081-.253.567.065L19,6.91l.672-.304.534-.411.415-.209.365-.451.331-.285.478-.308,1.379-.665.211-.005.454.151.395-.047.27-.233.291-.562.451-.343.569-.344.774-.329.507-.303.802-.263,2.013-.167,1.034-.149.703.034.71-.482.355-.159,1.537-.037.725-.353h2.748l.336.118.33.19.562.457.28.1.363-.095.844-.433L41.39.797l.518-.258.22-.377.446-.139.251.29.987.292.606-.084.266-.088L44.588,0l.641.115.492.209.515.418.334.083.608-.188Z" fill="url(#radial-gradient)"/></g></g></svg>