<svg xmlns="http://www.w3.org/2000/svg" xmlns:xlink="http://www.w3.org/1999/xlink" width="46.039" height="17.992" viewBox="0 0 46.039 17.992"><defs><radialGradient id="radial-gradient" cx="23.0195" cy="8.996" r="17.4761" gradientUnits="userSpaceOnUse"><stop offset="0" stop-color="#ffd496"/><stop offset="1" stop-color="#f29d25"/></radialGradient></defs><title>EC</title><g id="Layer_2" data-name="Layer 2"><g id="Layer_1-2" data-name="Layer 1"><path id="EC" d="M45.942,4.3591l-.157.1-.163.011-.217.031-.303-.096h-.119l-.017.0969.201.1181.195.135.07.205.116.243.279.272.174.136.011.0969-.055.178-.014.1481.096.683-.064.042-.103.003-.109-.003-.09-.074-.078-.044-.035.105-.081.3039-.182.684-.159.599-.2.212-.289.337-.396.461-.574.668-.424.31-.3341.244-.3909.282-.504.3641-.5661.204-.7879.284-.5581.201-.411.14-.428.146-.566.193-.218.182-.363.446-.169.215-.154.185-.032.084.021.054.074.09.007.093-.102.058-.088.009-.039-.046-.029-.102-.094-.104-.109-.03-.063.025-.005.095-.143.457-.005.222-.06.088.004.199-.144.185-.063.165-.044.14-.116.097-.042.152-.107.324-.125.254-.088.217-.016.163.067.115.023.093-.06.167-.033.125-.16.085-.332.202-.129.139-.051.157.033.134-.014.111-.158.042-.0559.0949-.107.171-.121.06-.31-.091L34.76,17.9l-.177-.083-.192-.246-.158-.207-.129-.268-.04-.367-.173-.108-.17-.128-.204.036-.242.024-.134-.085-.331-.155-.282-.176-.213-.088-.163.042-.098.106-.171.189-.253.131-.114-.006-.153-.087-.028-.102.125-.162.255-.356-.283-.009-.098-.111-.014-.129-.046-.139.056-.167.148-.088.223.069.153.005.102-.157.102-.069.102-.051.042-.079-.108-.251-.032-.137.033-.079-.005-.157-.004-.116-.065-.102-.005-.152-.056-.083-.019-.088-.004-.102-.07-.051-.074-.052.061-.036.402-.141.167-.141.207-.128.178-.197.117-.188.277-.875.261-.552-.044-.264-.216-.357-.049-.526.02-.16-.027-.121-.144.218.037.775-.127.349-.178.084-.116-.061.066-.566-.13.103-.208.384-.341.285-.019.095-.083.117-.263-.108-.201-.117-.659-.639-.433-.134-.261-.223-.055-.094-.031-.129.267-.134.273-.18.027-.396-.007-.311-.202-.532.095-.694-.052-.272-.231-.577.171-.291.611-.212.196-.142.137-.458.139-.274.272.11.213-.013-.288-.102-.234-.413-.039-.188.452-.564.237-.147.291-.298.245-.45.059-.71-.101-.507-.076-.537.146-.139.372-.071.302-.173.153-.16.359.024.415-.248.663-.125L35.79.695l.204-.25L35.902,0l.086.058.257.212.156.21.264.13.213.105.56.426.369.216.403.195.582.205.355-.035.083.155.069.164.133.095.211.082.125.025.039.041.126.59.074.086.291.094.356.035.145-.021.313.164.2309.077.255.058.1731.017.08-.025.029-.06.142.011.211.076.305.016.189-.072.026-.119.013-.209.07-.073.217-.122.113.025.569.262.117.09.1441.183.267.27.289.172.4469.073.431.282ZM35.769.57l-.158.021-.073-.133.192-.155.066-.03ZM1.072,3.9921l.174.18.095.512.563.54.07.302-.05.14.026.055.271.213.177.224-.297.525-.633.221-.675-.007L.66,6.84l-.181-.201-.033-.177.104-.171.349-.26.532-.232.066-.178-.213-.173-.147-.344-.336-.241-.167-.735-.112-.037-.228.101-.112-.089L.163,4.0562l.246-.167.051-.12.364-.058.156.096ZM3.032,4.994l-.13.0841-.529-.097-.165-.162.133-.221.112-.088.316.082.321.247ZM.641,5.347l-.282.0491L.122,5.3.021,5.152,0,4.929l.021-.074.523-.081.171.1871L.713,5.235Zm3.062.8661-.146.005-.435-.27.029-.265.174-.178.563-.091.236.168-.021.3169-.192.232-.152.042Zm2.571.389-.331.1149-.114-.052-.071-.057-.017-.069.183-.172.178-.093.16-.198.293-.118.086.027.058.041.022.066-.1.16-.178.112ZM3.453,7.7981l-.113.005-.155-.12.119-.218.127.053.093.063.055.084Zm28.886,4.556-.054.108-.267-.01-.077-.035.002-.123.063-.391.073-.164.219-.159.183-.077.234.014.248.145-.292.262-.163.04-.063.034Z" fill="url(#radial-gradient)"/></g></g></svg>