<svg xmlns="http://www.w3.org/2000/svg" xmlns:xlink="http://www.w3.org/1999/xlink" width="17.67" height="11.363" viewBox="0 0 17.67 11.363"><defs><radialGradient id="radial-gradient" cx="8.835" cy="5.6815" r="7.4275" gradientUnits="userSpaceOnUse"><stop offset="0" stop-color="#9b0400"/><stop offset="1" stop-color="#4c0200"/></radialGradient></defs><title>EE</title><g id="Layer_2" data-name="Layer 2"><g id="Layer_1-2" data-name="Layer 1"><path id="EE" d="M17.282.8559l.149.171.188.276.051.1581-.064.093-.188.0789-.0431.0851-.083.143-.22.026-.113.106-.135.465-.258.768-.381.582-.305.318-.136.244-.085.292-.02.293.292,1.6-.003.288-.069.295-.05.299.041.259.193.442.205.658.0831.419.1359.153.131.113.027.071-.004.073-.068.083-.591.219-.0771.185-.064.207-.258.305-.079.284-.049.325-.0059.116-.071.014-.392-.0671-.432-.211-.189-.159-.186.002-.225.1041-.806.3009-.198-.07-.46-.296-.233-.3229L11.718,10l-.042-.154-.068-.1229-.554-.16-.205-.2391-.17-.0329-.25-.12L9.78,8.66l-.161-.048-.039.086.011.121-.041.07-.083-.002-.15-.188-.18-.166-.561.312-.203.083-.178.019-.889.408-.271.22-.112-.023.026-.207.37-1.037.066-.827.135-.114.04-.115-.058-.265-.384-.17-.155.025-.14.285-.145.205-.339.125-.292-.216-.683-.289-.172-.386-.041-.389L4.79,5.801l-.15-.445.06-.311.328-.205.093-.178-.4131.028L4.624,4.647l-.018-.16-.183-.548.162-.216.0709-.21-.133-.179.035-.205.104-.207-.063-.481.41-.255.398-.18.845-.092-.083-.442.341-.02.575-.533.57.094L8.48.647l1.589.005.217-.212-.038-.213L10.2529,0l.299.063.5-.04,1.872.447h.461l.637.453.344.117h1.013l1.563.2.307-.306ZM3.001,4.4479l-.23.267-.137-.106L2.562,4.481l-.297.604-.334.103-.195-.119.018-.225-.19-.593-.2911-.174L.864,4.061.5679,3.816l1.141-.167.118-.284.232-.298.174-.032.148.069.028.231.037.092.5171.13.202.388.076.465Zm1.178,1.491-.233.056-.5529-.382.128-.259.158-.1019.47.1589.066.3931ZM2.141,5.558l.199.13.184-.041.187-.091.404.085.922.656.085.175-.551.08-.125.2-.132.14-.156.045-.266.281-.359.269-.0751.161-.651-.03L1.452,7.72l-.287.3-.118.578-.21.45L.623,9.21.4,9.235.347,9.067l.021-.168.469-.636.098-.207L.701,7.964.505,7.742l-.428-.26L0,7.273l.102-.016.094-.06L.31,7.021l.053-.202L.021,6.227l.174-.092.218.021.223.172.245-.202.104-.03.1711.072.1729-.392L1.74,5.647l.2039-.121Z" fill="url(#radial-gradient)"/></g></g></svg>