<svg xmlns="http://www.w3.org/2000/svg" xmlns:xlink="http://www.w3.org/1999/xlink" width="34.15" height="30.273" viewBox="0 0 34.15 30.273"><defs><radialGradient id="radial-gradient" cx="17.075" cy="15.1365" r="16.1349" gradientUnits="userSpaceOnUse"><stop offset="0" stop-color="#ffd496"/><stop offset="1" stop-color="#f29d25"/></radialGradient></defs><title>EG</title><g id="Layer_2" data-name="Layer 2"><g id="Layer_1-2" data-name="Layer 1"><path id="EG" d="M26.647,1.089l.041.099.092.274.233.696.204.544.249.752.078.288.033.199.362.824.215.675.157.548.222.798.096.278-.157.145-.314.517-.335,1.637-.479,1.273-.054.795-.077.286-.228.402-.276.393-.491-.203-.8-.692-.466-.658-.5-.426-.472-.565-.129-.407.005-.262L23.65,8.66l-.153-.303-.576-.681-.165-.364-.126-.161-.127-.23-.209-.889-.228-.566-.26.157.046.238-.227.329-.137.381.105.311.471.473.095.207.11.447-.018.607.076.205.353.45.126.267.076.23.117.208.35.39.503.742.477.5.345.241.146.241.033.621-.026.296.303.557.112.281.292.229.134.261.123.425.185,1.253.254.307.785,1.639.662,1.033.32.77.489.934.957,2.044.569.628.227.353.412.271.446.392-.425-.038-.108.023-.149.067-.071.238-.031.194.052,1.025.117.522.374.985.279.295.136.191.19.139.887.336.519.708,1.166.894.114.247.003.057-.921.001H29.546l-.922.001H23.1l-.921.001H18.891l.09-.268.055-.189-.062-.132-.179-.033-.117.042-.275.561-.144.022H14.715l-1.072-.001H9.355l-1.072-.001H2.922L1.849,30.27H.777V8.01L.753,7.876.597,7.387.456,6.765.302,5.999.282,5.75.024,4.958,0,4.733l.065-.16.424-.669.128-.326.107-.391L.76,2.869.635,2.381.489,1.942.44,1.492.419,1.049.636.746.896.462.993.288,1.147.092,1.255,0l.211.398.44.068L3.34.112,4.923.469l.873.136L7.142.908l.819.54.225.068.589-.011.386.319,1.536.153.82.351.465.28.279.086.247-.014.333-.105.421-.197.457-.274.949-.705.336-.124.219.033.267-.01.111-.191.141-.131L15.83.827l.144-.18.494-.05.989-.308-.111.146L16.445.78l.386.043.395-.118L17.677.63l.082-.147.059-.275.086-.039.312.052.927.424.231.008.653-.231.139-.049.212.128.482.527-.168-.011L20.176.565,20.13.791l-.294.396.367.171.299.064.16.221.101.196.295-.086.211-.267-.11-.149-.074-.154.096-.004.205.127.587.507.198.105.228-.018.477-.142.133.022.64-.187.075.137.106.136.516-.152.809.002.663-.165.768-.402Z" fill="url(#radial-gradient)"/></g></g></svg>