<svg xmlns="http://www.w3.org/2000/svg" xmlns:xlink="http://www.w3.org/1999/xlink" width="23.621" height="20.982" viewBox="0 0 23.621 20.982"><defs><radialGradient id="radial-gradient" cx="11.8105" cy="10.491" r="11.1702" gradientUnits="userSpaceOnUse"><stop offset="0" stop-color="#ffd496"/><stop offset="1" stop-color="#f29d25"/></radialGradient></defs><title>EH</title><g id="Layer_2" data-name="Layer 2"><g id="Layer_1-2" data-name="Layer 1"><path id="EH" d="M23.618,1.165l.001.523v.621l.001.619.001.704V5.195H14.264v7.438l-.02.331-.168.098-.401.176-.412.181-.523.083-.172.059-.334.238-.439.313-.38.271-.251.352-.091.193-.037.203.029.194.137.388.037.196.021.341.023.37.025.399.025.399.026.423.027.424.027.425.02.316.025.398-.425.001H10.39l-.644.001-.644.001-.643.001-.643.001-.644.001H6.528l-.643.001-.644.001-.643.001-.643.001-.644.001-.644.001H2.024l-.644.001-.643.001-.36.001-.116.559-.103.401-.06.327.044.276L0,20.831l.25-1.556.018-.131.204-1.439.385-.782.307-.345.476-.179.437-.788.153-.727.287-.335.09-.262-.113-.2.271-.393.328-.602.152-.387.383-.599.047-.133-.034-.15-.151.127-.161.222-.191.175.078-.215.15-.316.341-.332.538-.365L5.361,9.876l.42-.215.378-.525.135-.467.037-1.074.135-.568.246-.443.294-.809.224-.361.146-.74.159-.281.285-.135.404-.369.607-.229.719-.481.337-.288.225-.43.241-.858.431-.905.221-.684L23.239,0l.002.001V0h.377V1.165Z" fill="url(#radial-gradient)"/></g></g></svg>