<svg xmlns="http://www.w3.org/2000/svg" xmlns:xlink="http://www.w3.org/1999/xlink" width="18.7794" height="16.2771" viewBox="0 0 18.7794 16.2771"><defs><radialGradient id="radial-gradient" cx="9.3897" cy="8.1385" r="8.7864" gradientUnits="userSpaceOnUse"><stop offset="0" stop-color="#ffd496"/><stop offset="1" stop-color="#f29d25"/></radialGradient></defs><title>ER</title><g id="Layer_2" data-name="Layer 2"><g id="Layer_1-2" data-name="Layer 1"><path id="ER" d="M18.7794,15.3271l-.3121.133-.3439.117-.0491-.004-.114.153-.163.418-.179.122-.094.011-.535-.391-.083-.022-.116.077-.084.08-.249-.297-.182-.262-.2541-.313-.247-.141-.265-.177-.26-.411-.265-.453-.393-.371-.735-.535-.675-.678-.516-.7091-.333-.37L12.19,11.21l-.688-.232-.48-.3251-.37-.268-.227-.072-.22-.009-.469.0531-.39-.168h-.164l-.261-.0491-.2051-.06-.241.072-.494.12-.203-.026-.11-.167-.065-.128-.172-.1329h-.142L7.21,9.937l-.516.301-.863.167-.205-.012-.153-.121-.436-.517-.125-.084-.099-.008-.202-.061-.189-.099-.166-.212-.167-.121-.179.415-.3141.724-.168.388-.217.499-.068.015-.111-.036-.431-.622-.271-.234-.202.022-.147.115-.093.208-.1011.128-.109.05-.2349-.025-.3611-.099-.373.021-.3839.142-.0511.004-.09-.828-.06-.554L.06,8.916,0,8.361.267,8.02l.1241-.324L.709,6.642l.1271-.21.25-.565.0349-.164.247-.714-.023-.475-.05-.48L1.43,3.749l.12-.228-.0079-.192.054-.449.039-.112.1469-.007.303.058.223-.045h.2571l.198-.014.117-.137.161-.524.104-.105.081-.032.227-.097.1939-.153.1581-.109.059-.022.167-.014.167-.064.077-.074.211-.059.207.033.1389-.065.093-.042.105-.003.097-.061.039-.093.063-.06L5.39.943,5.464.844l.033-.1L5.53.665,5.601.531,5.883.195,6.126,0l.848,1.692.344.998.304,1.039.225,1.557.214.792.346.39.237.737.203.028.147.202.252.691.181.257.095-.221-.011-.127L9.44,7.822l.065-.274.141-.164.322.224.176.169.047.339.074.188.336.398.284.116.368.029.308.087.247.146.463.4039,1.059.3541.851,1.084.501.75,1.647,1.135.285.543.148.532.346-.025.594.581.1729.441.4861.16.083-.261.235.214Zm-8.532-9.715.094.28-.274-.107-.045-.058.12-.111.026-.068Zm.1809,1.12.1161.1539.081-.015.064-.051.045-.109.443.215-.0251.143-.265.007-.305-.061-.283.021-.337-.062-.078-.243.2151.117.111-.029.02-.031-.152-.164-.214-.033L9.88,6.462l.096-.051.059-.063-.123-.177.241.04.152.107.1.125Z" fill="url(#radial-gradient)"/></g></g></svg>