<?xml version="1.0" encoding="utf-8"?>
<!-- Generator: Adobe Illustrator 22.1.0, SVG Export Plug-In . SVG Version: 6.00 Build 0)  -->
<svg version="1.1" id="Layer_1" xmlns="http://www.w3.org/2000/svg" xmlns:xlink="http://www.w3.org/1999/xlink" x="0px" y="0px"
	 width="38.043px" height="28.241px" viewBox="0 0 38.043 28.241" enable-background="new 0 0 38.043 28.241" xml:space="preserve">
<radialGradient id="ES_1_" cx="19.0215" cy="14.1205" r="16.7512" gradientUnits="userSpaceOnUse">
	<stop  offset="0" style="stop-color:#FFD496"/>
	<stop  offset="1" style="stop-color:#F29D25"/>
</radialGradient>
<path id="ES" fill="url(#ES_1_)" d="M20.878,1.3689l0.004,0.134l0.11,0.184l0.114,0.068l0.24,0.094l0.185,0.013l0.252,0.044
	l0.171,0.106l0.01,0.165l-0.043,0.184l-0.104,0.169l-0.059,0.129l0.055,0.074l0.09,0.058L22,2.8069l0.066-0.019l0.05-0.102
	l0.095-0.125l0.053-0.016l-0.004,0.071l0.045,0.088l0.309,0.147l0.678,0.274l0.266,0.005l0.215,0.032l0.063,0.115l0.432,0.422
	l0.103-0.011l0.192,0.01l0.232-0.034l0.168-0.079l0.11,0.013l0.122,0.082l0.142,0.071l0.184,0.139l0.164,0.171l0.113,0.056
	l0.681-0.115l0.152,0.101l0.161-0.001l0.181-0.026l0.394,0.053l0.32-0.013l0.029-0.042l0.027-0.38l0.051-0.135l0.076-0.036
	l0.189,0.027l0.689,0.225l0.284,0.141l0.273,0.11l0.238,0.012l0.158,0.074l0.221,0.36l-0.038,0.181l0.02,0.067l0.023,0.125
	l-0.006,0.139l0.058,0.091l0.105,0.011l0.134-0.027l0.147-0.054l0.258-0.154l0.077-0.025l0.432,0.175l0.191,0.117l0.066,0.127
	l0.099,0.13l0.129,0.019l0.184-0.123l0.287-0.132l0.488,0.116l0.543,0.168l0.235,0.02l0.008-0.082l0.043-0.117l0.089-0.059
	l0.134-0.017l0.186-0.062l0.212-0.102l0.221-0.042l0.231,0.076l0.279,0.062l0.167-0.001l0.08,0.24l0.135,0.091l0.053,0.208
	l-0.248,0.108l-0.146,0.015l-0.045,0.355l0.07,0.1l0.139,0.094L35,6.419l0.028,0.52l-0.284,0.313l-0.398,0.351l-1.948,1.125
	l-0.464,0.543l-0.177,0.125l-1.448,0.341l-1.012,0.364l-0.485,0.132l-0.606,0.631l-0.287,0.254l0.229,0.07l0.267,0.301l-0.09,0.133
	l-0.389,0.206l-0.17,0.063l-0.092-0.033l-0.087,0.028l-0.652,1.085l-0.576,0.778l-0.324,0.338l-0.332,0.503l-0.707,1.293
	l-0.005,0.372l0.348,1.279l0.2,0.335l0.28,0.281l0.53,0.239l0.131,0.235l-0.183,0.224l-0.53,0.397l-0.922,0.536l-0.392,0.422
	l-0.083,0.406l-0.27,0.183l-0.102,0.567l-0.164,0.375l-0.031,0.127l-0.174,0.284l-0.023,0.207l0.285,0.284l-0.141,0.123
	l-0.141,0.054l-0.325,0.033l-1.093,0.036l-0.879,0.613l-0.439,0.542l-0.398,1.005l-0.483,0.591l-0.213,0.109l-0.331-0.259
	l-0.414-0.04l-0.401,0.086l-0.21,0.206l-0.328,0.115l-0.321-0.099l-0.694-0.054l-0.309,0.01l-0.483,0.167l-0.414-0.111l-0.699-0.057
	l-1.513,0.133l-0.191,0.062l-0.189,0.248L12.8,26.576l-0.733,0.015l-0.663,0.272l-0.166,0.174l-0.278,0.479l-0.087,0.349
	l-0.058,0.003l-0.072-0.086l-0.102,0.028l-0.053,0.266l-0.249,0.121l-0.208,0.044l-0.513-0.215L9.19,27.703L8.966,27.68
	l-0.364-0.504l-0.157-0.321l-0.111-0.348l0.023-0.133l-0.031-0.111l-0.323-0.141l-0.079-0.32l0.236-0.417l0.193-0.177l0.12-0.051
	l-0.292,0.018l-0.211,0.268l-0.27-0.43l-1.101-0.839l0.071-0.193l-0.012-0.104l-0.185,0.225l-0.126,0.058l-0.563-0.036l-0.648,0.103
	l-0.171-0.874l-0.081-0.336l-0.021-0.218l0.167-0.504l0.183-0.206l0.243-0.425l0.3-0.354l0.317-0.084l0.14-0.052l0.117-0.274
	l0.066-0.234l-0.048-0.023l-0.37,0.048l-0.664-0.985l0.021-0.157l0.083-0.233l0.055-0.295l0.014-0.233l0.173-0.201l0.265-0.202
	l0.223-0.288l0.112-0.281l0.023-0.256l-0.126-0.183l-0.363-0.101l-0.375-0.732l-0.083-0.459l-0.077-0.048l-0.231-0.209l-0.222-0.394
	l-0.032-0.062l0.229-0.069L5.947,15.3l0.197-0.087l0.03-0.03l0.172-0.307l0.18-0.505l0.042-0.309l-0.057-0.128l-0.313-0.313
	l-0.014-0.092l0.05-0.148l0.186-0.158l0.251-0.18l0.137-0.155l-0.033-0.122l-0.073-0.127L6.69,12.52l0.046-0.146l0.017-0.5
	l0.032-0.128L6.736,11.29l-0.061-0.373l-0.199-0.484l0.036-0.107l0.092-0.09l0.301-0.168l0.24-0.396l0.349-0.332l0.457-0.267
	l0.32-0.297l0.126-0.228l0.089-0.06L8.46,8.3821L8.4,8.2281l-0.182-0.151l-0.235-0.086l-0.261,0.004L7.56,7.9641l-0.047-0.118
	l0.018-0.32l-0.014-0.317l-0.05-0.146l-0.121-0.11l-0.239,0.029L6.9,6.8921l-0.157-0.021l-0.091,0.071l-0.463-0.021l-0.193-0.051
	l-0.135-0.063l-0.086,0.035l-0.049,0.062l-0.008,0.097l-0.032,0.128L5.52,7.2451l-0.379,0.115l-0.306-0.009l-0.281-0.082
	l-0.09-0.061l-0.135-0.054l-0.571,0.067l-0.069-0.049l-0.197,0.119l-0.29,0.142l-0.163,0.008l-0.059-0.03l-0.021-0.063l-0.122-0.221
	l0.032-0.117l0.234-0.343l-0.026-0.082l-0.096-0.111l-0.086-0.16L2.87,6.2311l-0.149-0.014l-0.159,0.084l-0.605,0.173l-0.145,0.063
	L1.55,6.7031l-0.265,0.254l-0.211,0.053l-0.073-0.075l-0.025-0.596l0.322-0.397l0.229-0.24L1.42,5.653L1.177,5.66l0.017-0.186
	l0.114-0.09l0.11-0.203L1.289,5.094L1.188,4.96l0.006-0.35l0.028-0.142L1.189,4.314L0.694,4.522L0.567,4.491l-0.005-0.26
	l0.274-0.397l0.028-0.122L0.543,3.653l-0.24-0.195L0.157,3.283L0.001,3.032L0,2.806l0.162-0.529l0.231-0.154l0.2-0.095l0.423-0.367
	l0.583,0.068L1.96,1.65l0.324-0.188L2.47,1.42l0.299-0.164l-0.01-0.222L2.656,0.869l0.09-0.155l0.335-0.19l0.372-0.252L3.88,0.223
	L4.314,0l0.291,0.144L4.86,0.095l0.293,0.171l0.385,0.391l0.564,0.157l0.45-0.123l0.795-0.026l0.397,0.052L8.45,0.62l0.404,0.035
	l0.655-0.194l0.507,0.242l0.983,0.113l0.59,0.198l1.634,0.332l0.59,0.004l0.835-0.187l0.354-0.14l0.324,0.083l0.475-0.161
	l0.228,0.033l0.297,0.229l1.045,0.309l0.274-0.262l0.204-0.057l0.752,0.16l0.758,0.326l0.394,0.023l0.576-0.089l0.457-0.214
	L20.878,1.3689z M37.963,14.7109l-0.051,0.042l-0.863-0.421l-0.282-0.047l-0.069-0.064l0.008-0.219l0.022-0.097l0.578-0.044
	l0.467,0.156l0.251,0.42l0.019,0.072L37.963,14.7109z M34.74,14.8989l0.269,0.121l0.284-0.109l0.151,0.034l0.149,0.059l0.036,0.23
	l-0.132,0.256l-0.185,0.26l-0.156,0.285l-0.136,0.327l-0.253,0.193l-0.229,0.116l-0.484-0.243l-0.282-0.061l-0.084-0.091
	l-0.067-0.362l-0.127-0.115l-0.187-0.051l-0.164,0.093l-0.214,0.191l-0.114-0.191l-0.181-0.036l-0.068-0.115l0.003-0.148
	l1.161-0.879l0.336-0.195l0.713-0.227l0.109,0.034l-0.093,0.134l0.007,0.061l0.089,0.065l-0.021,0.104l-0.09,0.09L34.74,14.8989z
	 M29.968,18.0489l-0.102,0.221l-0.427-0.078l-0.094-0.089l0.092-0.25l0.123-0.03l0.008-0.178l0.129-0.179l0.606-0.145l0.137,0.122
	l0.029,0.175l-0.362,0.382L29.968,18.0489z M30.386,18.9339l-0.063,0.047l-0.186-0.043h-0.279l-0.011-0.145l0.043-0.101l0.054-0.103
	l0.17,0.202l0.269,0.038L30.386,18.9339z"/>
<g>
	<text transform="matrix(1 0 0 1 9.9182 15.4163)" fill="#770B00" font-family="'KornerDeliNF'" font-size="3.136px">Madrid</text>
	<g id="Layer_2_copy_2_1_" opacity="0.9">
		<path fill="#9B0F00" d="M15.9531,9.0203c-0.1402-0.0276-0.5271-0.0312-0.6406-0.0317V8.9885c0,0-0.0057,0-0.0159,0
			c-0.0102,0-0.0159,0-0.0159,0l0,0.0001c-0.1135,0.0005-0.5004,0.0041-0.6406,0.0317c-1.6678,0.3283-1.1611,1.8331-0.8101,2.3402
			c0.2973,0.4295,1.3131,1.5778,1.3131,1.5778h0.3071c0,0,1.0158-1.1483,1.3131-1.5778
			C17.1142,10.8534,17.6209,9.3486,15.9531,9.0203z"/>
		<path fill="#770B00" d="M15.817,9.0203c-0.1093-0.027-0.4066-0.0311-0.5045-0.0317V8.9885c0,0-0.0057,0-0.0159,0
			c-0.0102,0-0.0159,0-0.0159,0l0,0.0001c-0.0979,0.0006-0.3952,0.0047-0.5045,0.0317c-1.3301,0.3283-0.926,1.8331-0.6461,2.3402
			c0.2371,0.4295,1.0472,1.5778,1.0472,1.5778h0.2385c0,0,0.8101-1.1483,1.0472-1.5778C16.743,10.8534,17.1471,9.3486,15.817,9.0203
			z"/>
		<path fill="#4C0700" d="M15.4937,9.0203c-0.0377-0.0234-0.1316-0.0296-0.1812-0.0312l0-0.0006c0,0-0.006,0-0.0159,0.0002
			c-0.0099-0.0002-0.0159-0.0002-0.0159-0.0002l0,0.0006c-0.0496,0.0016-0.1435,0.0078-0.1812,0.0312
			c-0.5282,0.3283-0.3677,1.8331-0.2566,2.3402c0.0942,0.4295,0.4159,1.5778,0.4159,1.5778h0.0756c0,0,0.3217-1.1483,0.4159-1.5778
			C15.8614,10.8534,16.0219,9.3486,15.4937,9.0203z"/>
	</g>
</g>
</svg>
