<svg xmlns="http://www.w3.org/2000/svg" xmlns:xlink="http://www.w3.org/1999/xlink" width="63.098" height="55.8289" viewBox="0 0 63.098 55.8289"><defs><radialGradient id="radial-gradient" cx="31.549" cy="27.9144" r="29.7872" gradientUnits="userSpaceOnUse"><stop offset="0" stop-color="#ffd496"/><stop offset="1" stop-color="#f29d25"/></radialGradient></defs><title>ES</title><g id="Layer_2" data-name="Layer 2"><g id="Layer_1-2" data-name="Layer 1"><path id="ES" d="M45.933,1.3689l.004.134.11.184.114.068.24.0939.185.013.252.0441.171.1059.01.165-.043.184-.104.169-.059.129.055.074.09.0581.097.016.066-.0191.05-.1019.095-.125.053-.016-.004.071.045.088.309.147.678.274.266.005.215.032.063.115.432.422.103-.011.192.01.232-.034.168-.079.11.013.122.082.142.071.184.139.164.171.113.056.681-.115.152.101.161-.001.181-.026.394.053.32-.013.029-.042.027-.38.051-.135.076-.036.189.027.689.225.284.141.273.11.238.012.158.074.221.36-.038.181.02.067.023.125-.006.139.058.091.105.011.134-.027.147-.054.258-.154.077-.025.432.175.191.117.066.127.099.13.129.019.184-.123.287-.132.488.116.543.168.235.02.008-.082.043-.117.089-.059.134-.017.186-.062.212-.102.221-.042.231.076.279.062.167-.001.08.24.135.091.053.208-.248.108-.146.0151-.045.355.07.1.139.094.038.109.028.52-.284.313-.398.351L57.453,8.728l-.464.543-.177.125-1.448.341-1.012.364-.485.132-.606.631-.2869.254.229.07.267.301-.09.133-.389.206-.17.063-.092-.033-.087.028-.652,1.085-.576.778-.324.338-.332.503-.707,1.293-.005.372.348,1.279.2.335.28.281.53.239.131.235-.183.224-.53.397-.922.536-.392.422-.083.406-.27.183-.102.567-.164.375-.031.127-.174.284-.023.207.285.284-.141.123-.141.054-.325.033-1.093.036-.879.613-.439.542-.398,1.005-.483.591-.213.109-.331-.259-.414-.04-.401.086-.21.206-.328.115-.321-.099-.694-.054-.309.01-.483.167-.414-.111-.699-.057-1.513.133-.191.062-.189.248-.482.427-.733.015-.663.272-.166.174-.278.479-.087.349-.058.003-.072-.086-.102.028-.053.266-.249.121-.208.044-.513-.215-.428-.323-.224-.023-.364-.504-.157-.321-.111-.348.023-.133-.031-.111-.323-.141-.079-.32.236-.417.193-.177.12-.051-.292.018-.211.2681-.27-.43-1.101-.839.071-.193-.012-.104-.185.225-.126.058-.563-.036-.648.103-.171-.874-.081-.336-.021-.218.167-.504.183-.206.243-.425.3-.354.317-.084.14-.052.117-.274.066-.234-.048-.023-.37.048-.664-.985.021-.157.083-.233.055-.295.014-.233.173-.201.265-.202.223-.288.112-.281.023-.256-.126-.183-.363-.101-.375-.732-.083-.459-.077-.0481-.231-.209-.2219-.394-.0321-.062.229-.069.944-.003.197-.087.03-.03.172-.307.18-.505.042-.309-.057-.128-.313-.313-.014-.092.05-.148.186-.158.251-.18.137-.155-.033-.122-.073-.127-.012-.119.046-.146.017-.5.032-.128-.049-.456-.061-.3729-.199-.4841.036-.107.092-.09.301-.168.24-.396.349-.332.457-.267.32-.297.126-.228.089-.06-.026-.106-.06-.154-.182-.151-.235-.086-.261.004-.1619-.031-.047-.118.018-.32-.014-.317-.05-.146-.121-.11-.2391.029-.207-.09-.157-.021-.091.071-.463-.021-.193-.051-.135-.063-.086.035-.049.062-.008.097-.032.128-.166.116-.379.115-.306-.009-.281-.082-.09-.061-.135-.054-.571.067-.069-.049-.197.119-.29.142-.163.008-.059-.03-.021-.063-.122-.221.032-.117.234-.343-.026-.082-.096-.111-.086-.16-.025-.083-.149-.014-.159.084-.605.173-.145.063-.262.166-.265.254-.211.053-.073-.075-.025-.596.322-.3971.229-.24-.107-.0491-.243.007.017-.186.114-.09.11-.203-.129-.087-.101-.134.006-.35.028-.142-.033-.154-.4949.208-.1271-.031-.005-.26.274-.397.028-.122-.321-.059-.24-.195-.146-.175-.156-.251-.001-.226.162-.529.231-.154.2-.095.423-.367.583.068.361-.079.324-.188.186-.042.299-.164-.01-.222L27.711.869l.09-.155.335-.19.372-.252.427-.049L29.369,0l.291.144.255-.049.293.171.385.391.564.157.45-.123.795-.026.397.052L33.505.62l.404.035.655-.194.507.242.983.113.59.198,1.634.332.59.004.835-.187.354-.14.324.083.475-.161.228.033.297.229,1.045.309.274-.262.204-.057.752.16.758.326.394.023.576-.089.457-.214Zm17.085,13.342-.051.042-.863-.421-.282-.047-.069-.064.008-.219.022-.097.578-.044.467.156.251.42.019.072Zm-3.223.188.269.121.284-.109.151.034.149.0589.036.23-.132.256-.185.26-.156.285-.136.327-.2529.193-.2291.116-.484-.243-.282-.061-.084-.0911-.067-.362-.127-.1149-.187-.051-.164.093-.214.191-.114-.191-.181-.0361-.068-.115.003-.148,1.161-.879.336-.195.713-.227.109.034-.093.134.007.061.089.0651-.021.104-.09.09Zm-4.772,3.15-.102.221-.427-.078-.094-.089.092-.25.123-.03.008-.178.129-.179.606-.145.137.122.029.175L55.162,18Zm.418.885-.063.047-.186-.043h-.279l-.011-.145.043-.101.054-.103.17.202.269.038ZM12.474,51.8189l-.191.21-.213-.076.102-.46.099-.137.388-.201.323-.081.095-.214.106-.083.114.127-.086.148-.068.462-.215.1481ZM.916,53.15l-.07.024-.064-.251-.333-.616.202-.275.368-.007.149.192.05.198-.07.114.021.231-.039.1489Zm10.208,1.027-.381.359-.381-.083-.065-.059.382-.091.3469-.273.223-.605.349-.67.07-.284.138-.111.19-.01.082.0209.0841.149-.0011.337-.0989.559-.1831.494ZM5.125,53.51l-.235.724-.219.2829-.13.095-.323.0791-.384-.449-.2-.457-.11-.1471.175-.1159.255.02.548-.0969.111-.039.557-.4621.548-.057.013.152Zm-2.386,1.133-.115.027-.136-.079-.144-.251.097-.186.089-.085.124.013.238.137.073.142.007.088Zm5.007-.397-.017.244.066.246-.017.373-.134.202-.344.2009-.271-.036-.153-.081-.272-.327-.006-.338.249-.22.107-.285.646.054.056-.055.048-.016ZM.765,55.3139l-.271.515-.342-.192-.083-.064L0,55.4669l.329-.021.333-.259Z" fill="url(#radial-gradient)"/></g></g></svg>