<svg xmlns="http://www.w3.org/2000/svg" xmlns:xlink="http://www.w3.org/1999/xlink" width="42.039" height="32.241" viewBox="0 0 42.039 32.241"><defs><radialGradient id="radial-gradient" cx="21.0195" cy="16.1205" r="18.7309" gradientUnits="userSpaceOnUse"><stop offset="0" stop-color="#ffd496"/><stop offset="1" stop-color="#f29d25"/></radialGradient></defs><title>ET</title><g id="Layer_2" data-name="Layer 2"><g id="Layer_1-2" data-name="Layer 1"><path id="ET" d="M15.246,1.221l.205.012.863-.167L16.83.765l.078-.119h.142l.172.133.065.128.11.168.203.026.493-.119L18.335.91l.204.059.261.049h.1641l.39.169.468-.054.221.009.227.072.369.268.4811.325.6879.232.142.094.332.37.516.709.675.678.736.535.3931.37.2649.453.26.411.265.177.246.14.255.313.182.262.248.297-.275.405-.369.543-.429.632-.13.156-.3761.381-.065.108-.073.276-.005.501.048.64.046.59.207.069.24.042.265-.077.321-.066.398-.039.44-.119.26-.096.273.007.242.103.118.094.171.032.221-.004-.047.111-.121.162-.149.162-.131.168-.291.47-.009.06.036.093.157.214.164.347.092.318.071.154.199.176.287.363.152.245.317.131.103.31.237.456.256.364.248.285.276.11.111.009.579.527.441.401.109.064.795.263.915.302.734.242.935.308.922.305.865.29,1.2141.408.9779.329.7721.26.164.081H42.039l-.692.669-.783.757-.822.794-.53.511-.839.811-.699.674-.719.736-.65.666-.8461.922-.548.596-.858.935-.539.586-.082.034-.771-.044-.75-.044-.958-.055-.11.002-.279.055-.169.054-.69.158-.127.041-.573.251-.585.296-.308.228-.238.33-.102.235-.107.103-.182.09-1.225.223-.356.03-.573.178-.306.298-.087.15-.411-.004-.718.044-.307.048-.15.008-.275-.001-.226-.054-.15-.081-.186-.183-.416-.371-.302-.232-.663.267-.597.265-.847.377-.483.27-.145.271-.373.493-.333.303-.125.037-.755-.063-.272-.062-.45-.055-.605-.107-.405-.115-.44-.014-.634-.039-.391-.083-.397-.274-.51-.329-.526-.339-.5421-.349-.64-.402-.699-.439-.16-.044-.07-.008-.759-.02-.789-.021-.533-.014-.168-.051-.122-.1-.165-.325-.208-.231-.232-.295-.019-.398.064-.435.06-.144-.034-.143.009-.197-.13-.183-.776-.21-.1259.016-.1291.079-.1469.056L6.423,26.85l-.065-.078-.002-.129.013-.096-.045-.053-.247-.196-.232-.258-.14-.285-.136-.234-.068-.523-.172-.322-.168-.394-.249-.751-.108-.259-.2019-.174-.2131-.161-.221-.333-.575-.294-.221-.229-.383-.397-.095-.201-.028-.199-.119-.187-.212-.211-.663-.454-.183-.054-.237-.049-.348-.045L.637,20.18l-.408-.178-.185-.126L0,19.789l.038-.146.148-.251.28-.593L.66,18.39l.1321-.116.3589-.029.382.012.279.03.3941.005.4719-.035.1871-.137.1479-.15.062-.105.02-.265-.0009-.213-.03-.817-.018-.5-.021-.572.003-.115.004-.147.115-.611.108-.35.074-.185.298-.584.056-.187.01-.171-.11-.785.191-.37.246-.366.215-.157.179-.106.084.045.206.169.27.167.126-.037.185-.146.138-.154-.018-.276.1241-.567-.0241-.328.133-.406.145-.573.065-.362.083-.195.393-.4.338-.566.215-.414.412-.676.208-.247.169-.106.252-.068.469-.062.337-.057.049-.088.029-.138.005-.303.065-.521.146-.509L9.19,4.16l.093-.176.111-.169.125-.287.158-.62-.009-.421.226-.772.05-.004.384-.142.373-.021.361.099.235.025.11-.05.101-.128.093-.208.148-.115.202-.022.27.234.431.621.111.037.069-.016.216-.499.169-.387.314-.724L13.71,0l.167.12.166.212.188.099.203.061L14.532.5l.125.084.436.517Z" fill="url(#radial-gradient)"/></g></g></svg>