<?xml version="1.0" encoding="utf-8"?>
<!-- Generator: Adobe Illustrator 22.1.0, SVG Export Plug-In . SVG Version: 6.00 Build 0)  -->
<svg version="1.1" id="Layer_1" xmlns="http://www.w3.org/2000/svg" xmlns:xlink="http://www.w3.org/1999/xlink" x="0px" y="0px"
	 width="30.6335px" height="70.2429px" viewBox="0 0 30.6335 70.2429" enable-background="new 0 0 30.6335 70.2429"
	 xml:space="preserve">
<radialGradient id="FI_1_" cx="15.3168" cy="34.383" r="26.6157" gradientUnits="userSpaceOnUse">
	<stop  offset="0" style="stop-color:#FFD496"/>
	<stop  offset="1" style="stop-color:#F29D25"/>
</radialGradient>
<path id="FI" fill="url(#FI_1_)" d="M23.4213,8.362l-0.188,0.097l-0.58,0.38l-0.354,0.256l-0.426,0.188l0.11,0.249l0.708,0.052
	l0.109,0.071l0.079,0.127l0.013,0.204l-0.071,0.329l-0.766,1.801l-0.024,0.377l0.25,1.044l0.351,1.224l1.061,0.541l0.788,0.421
	l0.506,0.994l0.835,1.301l0.442,0.484l0.025,0.15l-0.131,0.889l-0.535,0.886l-0.5,0.744l-0.518,0.892l-0.405,0.757l-0.439,0.903
	l-0.051,0.292l-0.008,0.275l0.076,0.303l0.562,1.093l0.219,0.555l0.261,0.598l0.225,0.65l0.13,0.581l0.225,0.563l0.14,0.287
	l0.232,0.402l0.28,0.596l0.093,0.471l0.423,1.624l0.043,0.411l-0.021,0.304l-0.186,0.074l-0.411,0.048l-0.446,0.199l-0.022,0.067
	l0.291,0.378l-0.257,0.645l-0.037,0.919l-0.274,0.48l-0.026,0.111l0.012,0.093l0.049,0.073l0.507,0.128l0.044,0.13l0.002,0.269
	l-0.045,0.248l-0.255,0.184l-0.273,0.271l-0.061,0.25l0.009,0.222l0.093,0.375l0.181,0.436l0.229,0.273l0.813,0.259l0.105,0.213
	l0.044,0.292l-0.017,0.285l-0.378,0.568l0.003,0.218l0.155,0.526l0.186,0.501l0.793,0.542l0.273,0.296l0.072,0.235l0.04,0.379
	l-0.005,0.41l-0.062,0.363l-0.249,0.467l-0.575,0.918l-0.579,0.355l-0.035,0.077l0.179,0.292l1.019,1.166l0.665,0.543l0.896,0.73
	l0.578,0.575l0.187,0.412l0.25,0.458l0.281,0.373l0.203,0.323l0.077,0.208l-0.007,0.223l-0.271,0.671l-0.154,0.517l-0.271,0.755
	l-0.278,0.524l-0.704,0.954l-1.039,1.18l-0.241,0.355l-0.486,0.617l-0.833,1.233l-0.215,0.271l-0.682,0.976l-0.311,0.31
	l-0.245,0.289l-0.675,0.915l-0.726,0.691l-0.712,0.64l-0.214,0.323l-0.266,0.247l-0.317,0.234l-0.133,0.131l-0.717,0.869
	l-0.995,1.198l-0.101,0.019l-0.259,0.193l-0.405,0.047l-0.176,0.147l-0.619-0.42l-0.103-0.027l-0.364,0.104l-0.349,0.305
	l-0.645,0.093l-0.32,0.099l-0.204,0.141l-0.042-0.333l0.088-0.423l0.142-0.283l0.013-0.184l-0.104,0.019l-0.207,0.415l-0.11,0.484
	l-0.221,0.243l-0.486,0.099l-0.473-0.388l-0.225,0.003l0.141,0.278l0.095,0.305l-0.012,0.17l-0.252-0.03l-0.281,0.182l-0.246,0.266
	l-0.12,0.001l-0.166-0.372l-0.304,0.174l-0.26,0.233l-0.527,0.072l-0.314,0.306l-0.556,0.207l-0.305-0.005l-0.697,0.248
	l-0.232,0.382l-0.203,0.14l-0.289-0.118l-0.891,0.186l-0.852,0.244l-0.362-0.014l-0.362-0.101l-0.384,0.338l-0.408,0.452
	l-0.449,0.161l-0.161-0.058l0.129-0.237l0.297-0.245l0.204-0.333l0.028-0.278l-0.14-0.109l-0.192-0.034l-0.241-0.288l-0.231-0.626
	l-0.125-0.035l-0.063,0.165l-0.071,0.479l-0.072,0.138l-0.122,0.11l-0.147,0.11l-0.144,0.054l-0.515-0.007l-0.068-0.242v-0.101
	l0.092-0.319l-0.08-0.056l0.076-0.25l0.121,0.014l0.144-0.038l0.072-0.128l-0.005-0.154l-0.2-0.04l-0.012-0.105l0.178-0.44
	l0.025-0.122l-0.069-0.025l-0.111,0.048l-0.737-0.138l-0.909-0.564l-0.224-0.029l-0.137-0.505l-0.219,0.064l-0.32,0.296l-0.24-0.225
	l-0.258-0.148l-0.071-0.231l0.004-0.342l-0.022-0.405l-0.07-0.475l-0.051-0.677l0.048-0.531l0.206-0.394l0.079-0.252l0.096-0.645
	l0.022-0.757l-0.055-0.258l0.014-0.172h0.164l-0.036-0.148l-0.072-0.081l-0.08-0.168l0.068-0.089l0.196-0.006l0.016-0.057
	l0.022-0.08l-0.152-0.444l-0.018-0.212l-0.21-0.645l-0.241-0.614l-0.361-0.445l0.128-0.735l0.146-0.667l-0.029-0.322L1.973,54.12
	L1.53,53.688l-0.065-0.61l-0.108-0.658l0.041-0.404l0.072-0.311l0.146-0.31l0.735-0.98l0.045-0.514l0.498-0.038l-0.231-0.46
	l-0.054-0.259l-0.012-0.303l0.716-0.208l0.268,0.171l0.63-0.211l0.56-0.413l-0.01-0.22l-0.086-0.197l-0.119-0.38l0.084-0.106
	l0.204,0.078l-0.094-0.189l0.017-0.2l0.223,0.083l0.363-0.559l0.013-0.428l0.628-0.224l0.725-0.878l0.334-0.274l0.323-0.199
	l0.688-0.883l0.294-0.041l0.151-0.598l0.585-0.799l0.178-0.102l0.273-0.724l0.719-0.84l0.456-1.077l0.251-0.384l0.078-0.41
	l0.28-0.035l0.252-0.302l0.546-0.21l0.54,0.058l0.225,0.144l0.207-0.045l-0.021-0.37l-0.148-0.229l0.121-0.221l0.285-0.167
	l-0.029-0.37l-0.062-0.223l-0.237-0.297l0.118-0.668l0.028-0.735l0.112-0.853l-0.297-0.453l-1.13-0.774l-0.21,0.027l-0.251-0.098
	l-0.262-0.589l0.117-0.51l0.014-0.188l-0.102,0.006l-0.166,0.249l-0.36,0.284l-0.468-0.218l-0.23,0.048l-0.299-1.267l-0.153-0.487
	l-0.245-0.608l-0.437-0.297l-0.086-0.169l-0.058-0.259l-0.019-0.36l-0.056-0.534l0.023-0.439l0.054-0.262l0.189-0.176l0.272-0.499
	l0.057-0.363l0.023-0.558l0.125-0.489l0.139-0.248l-0.035-0.198l-0.096-0.282l-0.204-0.402l-0.31-0.491l-0.229-0.471l-0.101-0.441
	l-0.052-0.396l0.008-0.36l0.086-0.246l0.292-0.31l0.039-0.132l-0.116-0.687l-0.204-0.125l-0.347-0.067l-0.194-0.006l-0.037-0.076
	l-0.01-0.138l0.04-0.283l0.109-0.325l0.091-0.208l0.012-0.176l-0.116-0.604l-0.035-0.743l0.04-0.584l0.368-0.432l0.017-0.158
	l-0.462-0.471l-0.333-0.535l-0.104-0.313l-0.381-0.047l-0.238-0.914l-0.344-0.446l-0.34-0.387l-0.201-0.18l-1.18-0.557l-0.468-0.106
	l-0.555-0.326l-0.413-0.41l-0.354-0.264l-0.303-0.327l-0.423-0.306l-0.121-0.262l-0.457-0.486L1.575,9.876L0.832,9.269l-0.027-0.24
	L0.8,8.797L0.766,8.7L0,8.254l0.151-0.256L0.75,7.982l0.495,0.233l0.109-0.1l0.065-0.207L1.208,7.076l0.038-0.218l0.218-0.262
	l0.346-0.209l0.545-0.03l0.372,0.031l0.079,0.023l0.555,0.918L3.838,8.22l0.253,0.378L4.71,9.666l0.232,0.615l0.079,0.439
	l0.252-0.002l0.871,0.192l0.732,0.162l0.204,0.245l0.504-0.049l0.389-0.221l0.686-0.279l0.184-0.344l0.229-0.369l0.402,0.058
	l0.44,0.291l0.499,0.382l0.445,0.176l0.597,0.276l0.278,0.356l0.39,0.102l0.408-0.356l0.241-0.971l0.214-0.435l0.303-0.319
	l0.347-0.141l0.265-0.051l0.201-0.249l0.285-0.554l0.056-0.674l-0.055-1.224l0.052-0.406l0.233-0.666l0.313-1.776l0.14-0.516
	l0.171-0.314l0.235-0.187l0.427-0.544l0.61-1.084l0.165-0.092l0.438-0.055l0.544,0.04l0.49,0.191l0.053-0.015l0.22-0.1l0.399-0.338
	l0.684-0.674L19.9999,0l0.398,0.026l0.441,0.738l0.623,0.819l0.4,0.396l1.091,0.741l0.958,0.485l0.538,1.594l-0.266,0.631
	l-0.132,0.217l-0.469,0.625l-0.501,0.878l-0.038,0.456l0.166,0.459L23.4213,8.362z M11.8653,37.366l-0.419,0.22l-0.337-0.137
	l-0.006-0.427l0.209-0.207l0.378-0.083l0.518,0.207l0.076,0.11l-0.297,0.083L11.8653,37.366z M1.6763,48.604l0.03,0.116l0.164-0.032
	l0.222-0.212l0.157,0.099l-0.018,0.302l-0.106-0.012l-0.029-0.05l-0.137,0.172l-0.024,0.104l-0.158,0.066l-0.292-0.295l-0.184-0.486
	l0.428-0.001l-0.041,0.116L1.6763,48.604z M2.3303,64.742l-0.039,0.265l-0.191-0.029l-0.194,0.048l-0.156-0.263l-0.083-0.444
	l0.029-0.096l0.122-0.101l0.093,0.244L2.3303,64.742z M3.8553,65.837l-0.205,0.025l-0.289-0.281l-0.036-0.11l0.113-0.064
	l-0.075-0.226l0.022-0.1l0.223,0.179l0.122,0.208l-0.119,0.048l0.202,0.215L3.8553,65.837z M4.3633,65.645l0.355,0.131l0.149-0.047
	l0.17,0.297l-0.288,0.188l-0.02,0.234l0.114,0.145l0.04,0.21h-0.287l-0.137-0.177l-0.06-0.225l-0.134-0.159l-0.178-0.121
	l0.087-0.162l0.05-0.232L4.3633,65.645z M3.4033,66.944l-0.281,0.193l-0.107-0.046l0.027-0.326l0.167-0.149l0.281-0.017
	L3.4033,66.944z M2.8283,67.128l-0.246,0.056l-0.153-0.163l0.058-0.121l0.171-0.135l0.186,0.019l0.04,0.158L2.8283,67.128z"/>
<g>
	<text transform="matrix(1 0 0 1 5.5854 69.2613)" fill="#770B00" font-family="'KornerDeliNF'" font-size="3.136px">Helsinki</text>
	<g id="Layer_2_copy_2_9_" opacity="0.9">
		<path fill="#9B0F00" d="M12.6486,62.8653c-0.1402-0.0276-0.5271-0.0312-0.6406-0.0317l0-0.0001c0,0-0.0057,0-0.0159,0
			c-0.0102,0-0.0159,0-0.0159,0l0,0.0001c-0.1135,0.0005-0.5004,0.0041-0.6406,0.0317c-1.6678,0.3283-1.1611,1.8331-0.8101,2.3402
			c0.2973,0.4295,1.3131,1.5778,1.3131,1.5778h0.3071c0,0,1.0158-1.1483,1.3131-1.5778
			C13.8097,64.6984,14.3164,63.1936,12.6486,62.8653z"/>
		<path fill="#770B00" d="M12.5125,62.8653c-0.1093-0.027-0.4066-0.0311-0.5045-0.0317l0-0.0001c0,0-0.0057,0-0.0159,0
			c-0.0102,0-0.0159,0-0.0159,0l0,0.0001c-0.0979,0.0006-0.3952,0.0047-0.5045,0.0317c-1.3301,0.3283-0.926,1.8331-0.6461,2.3402
			c0.2371,0.4295,1.0472,1.5778,1.0472,1.5778h0.2385c0,0,0.8101-1.1483,1.0472-1.5778
			C13.4385,64.6984,13.8426,63.1936,12.5125,62.8653z"/>
		<path fill="#4C0700" d="M12.1892,62.8653c-0.0377-0.0234-0.1316-0.0296-0.1812-0.0312l0-0.0006c0,0-0.006,0-0.0159,0.0002
			c-0.0099-0.0002-0.0159-0.0002-0.0159-0.0002l0,0.0006c-0.0496,0.0016-0.1435,0.0078-0.1812,0.0312
			c-0.5282,0.3283-0.3677,1.8331-0.2566,2.3402c0.0942,0.4295,0.4159,1.5778,0.4159,1.5778h0.0756c0,0,0.3217-1.1483,0.4159-1.5778
			C12.5569,64.6984,12.7174,63.1936,12.1892,62.8653z"/>
	</g>
</g>
</svg>
