<svg xmlns="http://www.w3.org/2000/svg" xmlns:xlink="http://www.w3.org/1999/xlink" width="30.6335" height="68.766" viewBox="0 0 30.6335 68.766"><defs><radialGradient id="radial-gradient" cx="15.3168" cy="34.383" r="26.6157" gradientUnits="userSpaceOnUse"><stop offset="0" stop-color="#9b0400"/><stop offset="1" stop-color="#4c0200"/></radialGradient></defs><title>FI</title><g id="Layer_2" data-name="Layer 2"><g id="Layer_1-2" data-name="Layer 1"><path id="FI" d="M23.4213,8.362l-.188.097-.58.38-.354.2559-.426.1881.11.2489.708.052.109.071.079.127.013.204-.071.329-.766,1.801-.024.377.25,1.044.351,1.224,1.061.541.788.421.506.994.835,1.301.442.484.0251.15-.131.889-.535.886-.5.744-.518.892-.405.757-.439.903-.0511.292-.008.275.076.303.562,1.093.219.555.261.598.225.65.13.581.225.563.14.287.232.402.28.596.093.471.423,1.624.043.411-.021.304-.1859.074-.4111.048-.4459.199-.022.067.291.378-.257.645-.037.919-.274.48-.026.111.012.093.049.073.5071.128.044.13.002.269-.045.248-.255.184-.273.271-.061.25.009.222.093.375.181.436.229.273.813.259.105.213.044.292-.017.285-.378.568.003.218.155.526.186.501.793.5421.273.296.072.235.04.379-.005.41-.062.363-.249.467-.575.918-.579.355-.035.077.179.292,1.019,1.166.665.543.896.73.578.575.187.412.25.4579.281.373.203.323.077.208-.007.223-.271.671-.154.517-.271.7551-.278.524-.704.9539-1.039,1.18-.241.355-.486.617-.833,1.233-.215.271-.682.976-.311.31-.245.289-.675.915-.726.691-.712.64-.214.323-.266.247-.317.234-.133.131-.717.869-.995,1.198-.101.019-.2589.193-.4051.047-.176.147-.619-.42-.103-.027-.3641.104-.349.305-.645.093-.32.099-.204.141-.042-.333.0881-.423.142-.283.013-.184-.104.019-.207.415-.11.484-.221.243-.486.099-.473-.388-.225.003.141.278.095.305-.0121.17-.252-.03-.281.182-.246.266-.12.001-.166-.372-.304.174-.26.233-.527.072-.314.306-.556.207-.305-.005-.697.248-.232.382-.203.14-.289-.118-.891.186L8.7,67.93l-.362-.014-.362-.101-.384.338-.408.452-.449.161-.161-.058.129-.237L7,68.226l.204-.333.028-.278-.14-.109L6.9,67.472l-.241-.288-.2311-.626-.125-.035-.0629.165-.071.479-.072.138-.1221.11-.1469.11-.144.054-.515-.007-.068-.242v-.101l.092-.319-.08-.056.076-.25.121.014.144-.038.072-.128-.005-.154-.2-.04-.012-.105.1779-.44.0251-.122-.069-.025-.111.048-.737-.138-.909-.564-.224-.029-.137-.505-.219.064-.32.296-.24-.225-.258-.148-.071-.231.004-.342-.022-.405-.07-.475-.051-.677.048-.531.206-.394.079-.252.096-.645.0219-.757-.055-.258.014-.172h.164l-.036-.148-.072-.081-.08-.168.068-.089.1959-.006.016-.057.022-.08-.152-.444-.018-.212-.21-.645-.241-.614-.361-.445.1279-.735.146-.667-.0289-.322L1.973,54.12l-.443-.432-.065-.61-.1079-.658.041-.404.072-.311.146-.31.735-.98.045-.514.4979-.038-.231-.46-.054-.259-.012-.303.716-.208.268.171.63-.211.56-.413-.01-.22-.086-.197-.119-.38.084-.106.2039.078-.094-.189.0171-.2.223.083.363-.559.013-.428.628-.224.7249-.878.334-.274.323-.199.688-.883.294-.041.151-.598.585-.799.178-.102.273-.724.719-.84.456-1.077.251-.384.078-.41.28-.035.252-.302.5461-.21.54.058.225.144.207-.045-.021-.37-.148-.229.1209-.221.285-.167-.029-.37-.062-.223-.237-.297.118-.668.028-.735.112-.853-.297-.453-1.13-.774-.21.0269-.251-.098-.262-.589.117-.51.014-.188-.102.006-.166.249-.36.284-.468-.218-.23.048-.299-1.267-.153-.487-.245-.608-.4371-.297-.086-.169-.0579-.259-.019-.36-.0561-.534.0231-.439.054-.262.189-.176.272-.499.057-.363.023-.558.125-.489.139-.248-.035-.198-.096-.282-.204-.4019-.31-.491-.229-.471-.101-.441-.052-.396.008-.36.086-.246.292-.31.039-.132-.116-.687-.204-.125-.347-.067-.194-.006-.037-.076-.01-.138.04-.283.109-.325.091-.208.012-.176-.116-.604-.035-.743.04-.584.368-.432.017-.158-.462-.471-.333-.535-.104-.313-.3809-.047-.238-.914-.344-.446-.34-.387-.201-.18-1.18-.557-.468-.106-.555-.326-.4131-.41-.354-.264L2.79,11.251l-.423-.306-.121-.262-.457-.486L1.575,9.876.832,9.269l-.027-.24L.8,8.797.766,8.7,0,8.254l.151-.256L.75,7.982l.495.233.109-.1.065-.207-.211-.832.038-.218.2181-.262.346-.209.5449-.03.3721.031.0789.023.555.918.477.891.253.378L4.71,9.666l.232.615.079.439.252-.002.871.192.732.162.204.245.504-.049.389-.221.6859-.279.1841-.344.229-.369.4019.058.44.291.4991.382.445.176.597.276.278.356.39.102.408-.356.241-.971.214-.435.303-.319.347-.141.265-.051.201-.249.285-.554.056-.674-.055-1.224.052-.406.233-.666.313-1.776.14-.516.171-.314.235-.187.427-.544.61-1.084.1649-.092.438-.055.544.04.49.191.053-.015.22-.1.399-.338.684-.674L20,0l.398.026.441.738.623.819.4.396,1.091.741.958.485.538,1.594-.266.631-.132.217-.469.625-.501.878-.038.456.166.459ZM11.8653,37.366l-.419.22-.337-.1369-.006-.4271.209-.207.378-.0829.518.207.076.11-.297.0829ZM1.6763,48.604l.03.116.164-.032.2219-.212.157.099-.018.302-.106-.012-.029-.05-.137.172-.024.104-.158.066-.292-.295-.184-.486.4279-.001-.041.116ZM2.33,64.742l-.039.265L2.1,64.978l-.1939.048-.156-.263-.083-.444.029-.096.122-.101.093.244Zm1.525,1.095-.205.025-.289-.281-.036-.11.113-.064-.075-.226.022-.1.223.179.122.208-.119.048.202.215Zm.508-.192.355.131.149-.047.17.297-.288.188-.02.234.1141.145.04.21H4.5963l-.1371-.177-.06-.225-.1339-.159-.178-.121.087-.162.05-.232Zm-.96,1.299-.281.193-.107-.046.027-.326.167-.149.281-.017Zm-.575.184-.246.056-.153-.163.058-.121.171-.135.186.019.04.158Z" fill="url(#radial-gradient)"/></g></g></svg>