<svg xmlns="http://www.w3.org/2000/svg" xmlns:xlink="http://www.w3.org/1999/xlink" width="20.098" height="26.966" viewBox="0 0 20.098 26.966"><defs><radialGradient id="radial-gradient" cx="10.049" cy="13.483" r="11.8906" gradientUnits="userSpaceOnUse"><stop offset="0" stop-color="#ffd496"/><stop offset="1" stop-color="#f29d25"/></radialGradient></defs><title>FJ</title><g id="Layer_2" data-name="Layer 2"><g id="Layer_1-2" data-name="Layer 1"><path id="FJ" d="M7.112.081,7.002.11,6.825.086,6.789.04,6.845.03,6.9611,0l.142.015.025.03Zm8.201,10.49-.123.056v-.045l.086-.078h.069Zm.075,1.027-.198.108v-.149l.158-.138.12-.029-.074.139Zm2.731,2.245-.071.1-.062-.036.079-.168.012-.072-.122-.088-.008-.062.036-.038.146.099.089.077.018.042-.027.075Zm1.979,1.99-.156.031-.142-.125.09-.132.126.031.072.128Zm-2.068.07-.0851.044-.059-.01-.0689-.047-.042-.083.088-.07.136.0789Zm.635.755-.033.054-.15-.088-.0579-.06.16-.046.078.015Zm-2.913,2.079.007.0869-.042-.005-.05-.0369-.0251.018-.018.0269-.0089.061-.0071.034-.039-.012-.007-.06.013-.042.019-.062.07-.0561Zm3.55.666-.031.027-.077-.03-.063-.041-.008-.042.026-.054.061-.028.031.011-.018.018-.037.019.006.0529.0479.032.046.009Zm-.496,4.457.006.008-.016-.001-.022-.01-.018-.02-.004-.0219.0089-.022.009.001.015.02.014.022ZM15.188,10.627l-.424.387-.152.2-.129.221-.3611.237-.1539.318.0109.321.362-.336.4031-.274.124-.056.127.003-.011.094-.058.093-.045.243.1061.226-.3011-.022-.2979.019-.3531.126-.347.056-.13.001-.124-.042-.081-.065-.063-.15-.064-.0221-.275.007-.412.294-.137.2521-.158.0109-.188-.052-.227.193-.271.069-.116-.164-.076-.2-.097-.147-.298-.037.046-.18.079-.074.072-.107.044-.122.143.077.146.05.1631-.091.17-.008.17-.266.2671-.167.367-.132.374-.094.193-.019.185-.054.325-.25.215-.1279.234-.077.224-.0451.207.04.167-.021.426-.178Zm.002,1.08-.036.003-.007-.056.043-.097Zm.391.431-.092.036-.299.248h0l-.193.263-.096.256.081.106.208-.109.07-.111.301-.217.128-.248ZM7.428,13.476l-.145.049.077-.232.081-.073.052-.015.083-.016-.032.164Zm6.141.642-.094.079-.044-.402.097.003.07.042.04.102Zm-3.205.015v.129l.082.056.082.009.202.248.315.213.192.163.011.139-.059.147.0819.2639.039.2731.14.434-.1971.083-.3109.01-.0721.078-.1049-.043-.258.033-.246.143-.234.194H9.756l-.305.04-.304-.0269-.214-.104-.377-.113-.503-.096-.208-.081-.174-.126-.162-.319-.024-.158.025-.151.147-.051.123-.076.017-.1.055-.07.07-.025.035-.048-.05-.162-.014-.1469.292-.27.317-.23.562-.212.343.02.526-.163.1691-.0769.1669.0469ZM11.9,15.177l-.145.052-.08-.179.11-.18.124-.016.061.183Zm1.464,1.095-.025.024-.243-.234.008-.093.043-.083.0981-.078.088.1329.0689.222Zm-2.417,2.565-.001.127-.361.084-.1209-.104-.0781-.019-.215.186-.063.076-.021.057-.056.029-.396.089-.174-.089.117-.06.145-.121.146.018.146-.113.146-.172.207-.0369.146-.066.241.048ZM.118,26.933l-.021.033-.081-.011L0,26.888l.047-.038.066.025Z" fill="url(#radial-gradient)"/></g></g></svg>