<svg xmlns="http://www.w3.org/2000/svg" xmlns:xlink="http://www.w3.org/1999/xlink" width="9.409" height="4.7019" viewBox="0 0 9.409 4.7019"><defs><radialGradient id="radial-gradient" cx="4.7045" cy="2.351" r="3.7188" gradientUnits="userSpaceOnUse"><stop offset="0" stop-color="#ffd496"/><stop offset="1" stop-color="#f29d25"/></radialGradient></defs><title>FK</title><g id="Layer_2" data-name="Layer 2"><g id="Layer_1-2" data-name="Layer 1"><path id="FK" d="M6.44,0l.429.263L7.406.171l.226.072.132.219L7.685.665,7.515.636,7.369.691l.0289.268.099.115.567.295.104.018-.019-.124L8.05,1.06,8.0129.842,8.097.6609l.148-.057.646-.091.151.086.32.514-.3.071-.126.223.264.097.209.143-.111.219-.02.11-.465.155-.412.1-.188.258-.332.188-.976.328.114.267.0151.128-.042.347-1.343-.415-.182.044.359.708-.266.131-.263-.085-.239.059-.152.513-.383-.328-.327-.466-.001-.26.316-.485-.096-.205.735-.657.1319-.195.229-.111.2381-.0381.101-.0839-.017-.16-.095-.272.008-.442L6.3351.4l-.086-.385ZM2.9.564H2.515L2.439.418,2.44.048,2.732.0161,3.017.17,2.998.3251ZM2.41.861l.406.085L3.189.63l.257-.101L3.658.597l.149.191.216-.03L4.634.563l.08.066L4.9319.402,5.119.507l.148.198L5.195.934l-.169.146-.107.2039-.125.164-.216.1531-.166.244-.398.573-.58.734-.192.066-.4.044L2.67,3.2109l-.147.0171-.118.398-.183.302-.086.063-.19.028-.09.046-.068.112-.5-.029L.935,3.962.517,3.55l.558-.504.481.023.397-.338.323-.171.128-.173.141-.133.001-.1729L2.438,2.004l-.146.008-.144.075-.338.0981-.231-.198.152-.074.171.004.523-.186.1-.078L2.364,1.39l-.315-.16L1.794.9622l-.047-.1L1.76.7032,1.619.3892l.148-.016.197.202ZM.354,2.321l.201.0621.2-.0231-.113.466L.554,3.05.317,3.032.082,2.7271,0,2.5651.262,2.449ZM7.595,3.343l.017.4-.225-.127-.08-.1939L7.432,3.29l.103.01ZM4.104,4.348l-.18.088-.05-.039-.057-.172-.003-.2219-.021-.1.112.032.203.177Z" fill="url(#radial-gradient)"/></g></g></svg>