<svg xmlns="http://www.w3.org/2000/svg" xmlns:xlink="http://www.w3.org/1999/xlink" width="69.969" height="12.137" viewBox="0 0 69.969 12.137"><defs><radialGradient id="radial-gradient" cx="34.9845" cy="6.0685" r="25.1072" gradientUnits="userSpaceOnUse"><stop offset="0" stop-color="#ffd496"/><stop offset="1" stop-color="#f29d25"/></radialGradient></defs><title>FM</title><g id="Layer_2" data-name="Layer 2"><g id="Layer_1-2" data-name="Layer 1"><path id="FM" d="M.227.261.014.491,0,.416.064.278l.09-.157L.238.027.347,0,.425.13.337.243ZM38.784,6.092l-.049.015-.022-.014.011-.072.016-.025.046-.002.08.02.006.018Zm-.656.241-.023.037-.171-.014-.024-.021.015-.016.082-.017.01-.051-.042-.011.036-.027.067-.005.038.032.021.046ZM56.839,7.829l-.163.063-.2051-.029-.0629-.229-.094-.061.021-.113.1439-.092.305.075.113.163-.072.108ZM69.94,12.001l.029.136-.179-.066-.024-.048.104-.048Z" fill="url(#radial-gradient)"/></g></g></svg>