<svg xmlns="http://www.w3.org/2000/svg" xmlns:xlink="http://www.w3.org/1999/xlink" width="2.853" height="5.599" viewBox="0 0 2.853 5.599"><defs><radialGradient id="radial-gradient" cx="1.4265" cy="2.7995" r="2.2217" gradientUnits="userSpaceOnUse"><stop offset="0" stop-color="#ffd496"/><stop offset="1" stop-color="#f29d25"/></radialGradient></defs><title>FO</title><g id="Layer_2" data-name="Layer 2"><g id="Layer_1-2" data-name="Layer 1"><path id="FO" d="M2.853.585l-.134.434L2.52.951,2.465.904,2.422.791,2.443.468,2.436,0l.229.385ZM2.222.77l-.07.806-.114-.004-.204-.223-.1531-.046-.048.119.008.143.079.09.244.538.022.157-.03.076-.237-.155-.572-.696L.7019.424l.6-.185.435.303Zm-1.56.532.252.232.089.164-.145.158-.175.041L.471,1.86.122,1.689,0,1.297l.241.009.285-.075ZM2.244,3.29l-.055.223-.077-.002-.264-.276-.21-.151-.07-.128-.059-.219L1.63,2.71l.144.05.361.2.102.208ZM2.029,5.421l.056.178-.065-.02-.189-.203-.33-.484-.115-.401L1.37,4.305l.082.021.068.165.313.108.083.082-.001.201.105.238Z" fill="url(#radial-gradient)"/></g></g></svg>