<?xml version="1.0" encoding="utf-8"?>
<!-- Generator: Adobe Illustrator 22.1.0, SVG Export Plug-In . SVG Version: 6.00 Build 0)  -->
<svg version="1.1" id="Layer_1" xmlns="http://www.w3.org/2000/svg" xmlns:xlink="http://www.w3.org/1999/xlink" x="0px" y="0px"
	 width="40.1889px" height="39.4268px" viewBox="0 0 40.1889 39.4268" enable-background="new 0 0 40.1889 39.4268"
	 xml:space="preserve">
<radialGradient id="FR_1_" cx="20.0945" cy="19.7134" r="19.9048" gradientUnits="userSpaceOnUse">
	<stop  offset="0" style="stop-color:#FFD496"/>
	<stop  offset="1" style="stop-color:#F29D25"/>
</radialGradient>
<path id="FR" fill="url(#FR_1_)" d="M21.4019,1.6838l0.167-0.049l0.283-0.176l0.236-0.056l0.135,0.135l0.076,0.077l0.148,0.304
	l0.042,0.316l0.066,0.263l0.12,0.106l0.451,0.035l0.333,0.097l0.088,0.088l0.114,0.582l0.062,0.082l0.083-0.068l0.082-0.096
	l0.114-0.015l0.195,0.037l0.257,0.012l0.265,0.064l0.366,0.328l-0.014,0.108l-0.071,0.189l-0.025,0.151l0.063,0.061l0.097,0.156
	l-0.023,0.18l-0.094,0.126l-0.038,0.104v0.067l0.035,0.056l0.075,0.049l0.541,0.066l0.495-0.066l0.312-0.184l0.053-0.194
	l0.088-0.218l0.186-0.184l0.128-0.062l0.118,0.075l-0.198,0.769l0.145,0.196l0.021,0.292l0.052,0.256l0.177-0.005l0.214,0.047
	l0.152,0.094l0.177,0.152l0.255,0.14l0.179,0.049l0.065,0.116l0.145,0.135l0.228,0.282l0.204,0.188h0.099l0.19-0.074l0.282-0.047
	l0.222,0.004l0.095,0.143l0.219,0.066l0.077,0.053l0.086,0.099l0.146,0.04l0.176-0.04l0.128-0.131l0.171-0.06l0.172,0.02
	l0.099,0.072l0.188,0.107l0.106-0.023l0.213,0.066l0.214,0.208l0.09,0.208l0.023,0.114l0.092,0.124l0.359,0.558l0.114,0.027
	l0.125-0.084l0.081-0.12l0.117-0.024l0.188,0.056l0.121,0.063l0.058,0.241l0.041,0.046l0.081-0.052l0.145-0.011l0.232,0.059
	l0.318-0.068l0.255-0.101l0.13,0.004l0.21,0.281l0.24,0.105l0.528,0.085l0.567,0.132l0.223,0.107l0.152,0.053l0.016,0.371
	l-0.046,0.056l-0.565,0.742l-0.238,0.265l-0.121,0.377l-0.083,0.578l-0.167,0.547l-0.25,0.518l-0.091,0.388l0.068,0.258
	l-0.043,0.405l-0.153,0.551l-0.026,0.415l0.102,0.28l0.141,0.057l-0.339,0.188l-0.077,0.165l-0.133,0.217l-0.216,0.091l-0.217,0.03
	l-0.176-0.028l-0.1-0.087l0.005-0.081l-0.093-0.069l-0.231,0.002l-0.239,0.149l-0.191,0.244l0.059,0.136l0.176,0.036l0.046,0.054
	v0.07l-0.062,0.084l-0.074,0.144l-0.369,0.428l-0.372,0.431l-0.06,0.13l-0.118,0.091l-0.473,0.23l-0.049,0.092l-0.027,0.383
	l-0.053,0.314l-0.351,0.295l-0.349,0.293l-0.087,0.179l-0.063,0.207l-0.109,0.234l-0.022,0.124l0.177,0.201l-0.021,0.166
	l-0.056,0.236l-0.167,0.167l-0.186,0.095l0.004,0.256l0.099,0.036l0.224-0.019l0.317-0.186l0.207-0.24l-0.122-0.227l-0.015-0.044
	l0.03-0.054l0.245-0.248l0.3-0.149l0.419-0.028l0.505,0.088l0.05,0.037l-0.024,0.152l0.047,0.224l0.091,0.157l-0.125,0.445
	l0.095,0.139l0.147,0.167l0.11,0.152l0.158,0.139l0.141,0.235l0.048,0.133l-0.226,0.23l-0.382,0.216l-0.043,0.139l0.005,0.157
	l0.043,0.124l0.211,0.159l0.227,0.359l0.144,0.32l0.315,0.306l0.077,0.091l-0.02,0.076l-0.083,0.13l-0.108,0.434l-0.129,0.068
	l-0.144,0.028l-0.39,0.317l-0.174-0.039l-0.247,0.004l-0.181,0.104l0.02,0.197l0.159,0.18l0.093,0.196l0.038,0.204l0.176,0.151
	l0.248,0.09l0.142,0.006l0.092,0.054l0.056,0.07l0.107,0.436l-0.064,0.109l-0.134,0.046l-0.08,0.179l-0.159,0.263l-0.09,0.211
	l0.1,0.186l0.042,0.138l-0.053,0.142l0.071,0.22l0.188,0.218l0.511,0.306l0.475,0.249l0.147,0.041l0.642-0.16l0.106,0.014
	l0.078,0.19l0.034,0.128l-0.072,0.192l-0.1767,0.2709l-0.188,0.211l-0.114,0.179l0.024,0.163l0.007,0.216l-0.153,0.064l-0.005-0.042
	l-0.063-0.037l-0.054,0.021l-0.042,0.047l-0.006,0.083l-0.326,0.138l-0.225,0.143l-0.889,0.852l-0.416,0.249l-0.082,0.15
	l-0.085,0.28l-0.244,0.24l-0.214,0.114l-0.529,0.117l-0.532,0.254l-0.24-0.11l-0.62,0.012l-0.387-0.306l-0.744-0.194l-0.242-0.447
	l-0.339-0.029l-0.222,0.014l-0.133-0.068l-0.034-0.153l-0.003-0.147l-0.235,0.068h-0.18l-0.107,0.059l-0.084,0.068l-0.1-0.043
	l-0.058,0.015l0.005,0.086l-0.216,0.022l-0.2351-0.053l-0.615-0.231l-0.094-0.036l-0.427-0.089l-0.172-0.093l-0.14-0.229
	l-0.106-0.072l-0.063-0.043l-0.398,0.116l-0.138,0.18l-0.215,0.211l-1.476,1.032l-0.27,0.431l-0.312,0.633l-0.024,0.295l0.134,0.94
	l0.3,0.492l0.038,0.114l-0.167,0.001l-0.279-0.062l-0.231-0.076l-0.221,0.042l-0.212,0.102l-0.186,0.062l-0.134,0.017l-0.089,0.059
	l-0.043,0.117l-0.008,0.082l-0.235-0.02l-0.543-0.168l-0.488-0.116l-0.287,0.132l-0.184,0.123l-0.129-0.019l-0.099-0.13
	l-0.066-0.127l-0.191-0.117l-0.432-0.175l0.022-0.084l0.074-0.118l-0.002-0.073l-0.083-0.108l-0.398-0.116l-0.188-0.029l-0.119,0.08
	l-0.086,0.098l-0.221-0.36l-0.158-0.074l-0.238-0.012l-0.273-0.11l-0.284-0.141l-0.689-0.225l-0.189-0.027l-0.076,0.036
	l-0.051,0.135l-0.027,0.38l-0.029,0.042l-0.32,0.013l-0.394-0.053l-0.181,0.026l-0.161,0.001l-0.152-0.101l-0.681,0.115
	l-0.113-0.056l-0.164-0.171l-0.184-0.139l-0.142-0.071l-0.122-0.082l-0.11-0.013l-0.168,0.079l-0.232,0.034l-0.192-0.01
	l-0.103,0.011l-0.432-0.422l-0.063-0.115l-0.215-0.032l-0.266-0.005l-0.678-0.274l-0.309-0.147l-0.045-0.088l0.004-0.071
	l-0.053,0.016l-0.095,0.125l-0.05,0.102l-0.066,0.019l-0.097-0.016l-0.09-0.058l-0.055-0.074l0.059-0.129l0.104-0.169l0.043-0.184
	l-0.01-0.165l-0.171-0.106l-0.252-0.044l-0.185-0.013l-0.24-0.094l-0.114-0.068l-0.11-0.184l-0.004-0.134l0.457-0.118l0.411-0.485
	l0.39-1.768l0.282-2.109l0.209-0.4l0.264-0.11l-0.213-0.292L10,26.6378l-0.056,0.157l-0.07,0.079l0.157-1.955l0.112-0.72
	l0.191-0.756l0.391,0.3l0.324,0.305l0.167,0.264l0.212,0.876l0.161,0.184l0.24,0.184l-0.095-0.201l-0.165-0.154l-0.258-1.169
	l-0.162-0.333l-0.252-0.28l-0.812-0.591l-0.073-0.115l-0.04-0.226l0.269,0.01l0.232,0.11l-0.027-0.126l-0.069-0.132l-0.108-0.481
	l-0.09-1.127l0.012-0.193l-0.04-0.238l-0.26-0.053l-0.208-0.009l-0.224-0.094l-1.106-0.668l-0.378-0.692l-0.387-0.512l-0.093-0.224
	l0.006-0.227l0.201-0.48l-0.177-0.304l-0.173-0.06l-0.15-0.151l0.136-0.251l0.113-0.161l0.227-0.043l0.297,0.053l0.282,0.146
	l0.221,0.039l-0.653-0.391l-1.06,0.132l-0.229-0.05l-0.192-0.087l-0.076-0.288l0.151-0.129l0.136-0.24l-0.154-0.168l-0.2-0.064
	l-0.314,0.003l-0.293,0.051l-0.074-0.097l0.179-0.268l-0.152-0.098l-0.203,0.046l-0.294,0.055l-0.281-0.084l-0.266-0.305
	l-0.176,0.002l-0.121,0.038l-0.179-0.118l-0.189-0.029l-0.135,0.039l-0.179-0.175l-1.104-0.352l-0.476-0.043l-0.437,0.159
	l-0.241-0.055l-0.177-0.228l-0.148-0.382l-0.704-0.295l0.139-0.194l0.328-0.046l0.377-0.134l0.136-0.173l-0.295-0.201l-0.218-0.05
	l-0.09-0.072l-0.092-0.181l0.13-0.083l0.092,0.044l0.266,0.026l0.454-0.044l-0.169-0.183l-0.176-0.041l-0.081-0.046l-0.37-0.02
	L0.5,11.8629l-0.378-0.024l-0.082-0.197L0,11.4719l0.117-0.378l0.532-0.339l1.326-0.371l0.57,0.054l0.395-0.067l0.474-0.234
	l0.209-0.201l0.674-0.118l0.64,0.213l0.59,0.804l0.282,0.272l0.691-0.472l1.029,0.014l0.212,0.266l0.086-0.224l0.189-0.263
	l0.151,0.12l0.077,0.163l1.086-0.046l0.171-0.047l-0.292-0.191l-0.238-0.458l-0.05-1.693l-0.301-0.475l-0.345-0.761l-0.159-0.453
	l-0.015-0.157l0.053-0.227l0.424,0.012l0.328,0.058l0.625-0.171l0.3,0.117L9.813,6.573l0.092,0.446l0.104,0.216l0.159,0.245
	l0.503-0.022l0.543,0.144l0.687,0.022l1.003,0.248l0.427-0.144l0.414-0.307l0.788-0.202l0.063-0.106l-0.454,0.042L13.726,6.96
	L13.67,6.749l0.048-0.19l0.169-0.438l1.206-0.693l0.864-0.205l0.902-0.383l0.454-0.393l0.3-0.509l0.097-0.112l0.125-0.094
	l-0.116-0.183l0.078-1.96l0.084-0.355l0.176-0.291l0.268-0.225l0.406-0.244l1.497-0.337L20.4501,0l0.031,0.212l0.109,0.271
	l0.075,0.148l-0.063,0.193l0.049,0.159l0.203,0.286l0.253,0.269l0.226,0.172L21.4019,1.6838z M10.0619,21.9498l-0.099,0.352
	l-0.188-0.324l-0.248-0.284l-0.057-0.263v-0.07l0.291,0.192L10.0619,21.9498z M39.9749,34.0748l-0.073,0.559l0.053,0.163
	l0.102,0.114l0.047,0.125l0.085,1.482l-0.016,0.118l-0.343,0.593l-0.077,0.173l-0.017,0.732l-0.058,0.196l-0.122,0.193l-0.217,0.624
	l-0.188,0.28l-0.514-0.342l-0.303-0.148l-0.148-0.159l-0.097-0.11l0.063-0.147l0.138-0.153l0.022-0.121l-0.325-0.136l-0.149-0.091
	l0.002-0.16l0.112-0.249l-0.051-0.206l-0.188,0.01l-0.146-0.031l-0.019-0.107l0.107-0.137l0.138-0.179l-0.004-0.198l-0.167-0.085
	l-0.151-0.161l-0.061-0.219l0.117-0.15l0.19-0.096l-0.14-0.225l-0.094-0.005l-0.075-0.049l0.062-0.104l0.147-0.156l0.205-0.467
	l0.285-0.221l0.506-0.142l0.137-0.063l0.125-0.165l0.139-0.106l0.169,0.014l0.156,0.063l0.096,0.068l0.072-0.071l0.07-0.205
	l-0.043-0.18l0.022-0.495l0.09-0.281l0.146-0.016l0.134,0.155l-0.006,0.137l0.05,0.324L39.9749,34.0748z"/>
<g>
	<text transform="matrix(1 0 0 1 15.7216 12.6496)" fill="#770B00" font-family="'KornerDeliNF'" font-size="3.136px">Paris</text>
	<g id="Layer_2_copy_2" opacity="0.9">
		<path fill="#9B0F00" d="M20.4924,6.2536c-0.1402-0.0276-0.5271-0.0312-0.6406-0.0317V6.2218c0,0-0.0057,0-0.0159,0
			c-0.0102,0-0.0159,0-0.0159,0v0.0001c-0.1135,0.0005-0.5004,0.0041-0.6406,0.0317c-1.6678,0.3283-1.1611,1.8331-0.8101,2.3402
			c0.2973,0.4295,1.3131,1.5778,1.3131,1.5778h0.3071c0,0,1.0158-1.1483,1.3131-1.5778
			C21.6535,8.0867,22.1602,6.5819,20.4924,6.2536z"/>
		<path fill="#770B00" d="M20.3562,6.2536c-0.1093-0.027-0.4066-0.0311-0.5045-0.0317V6.2218c0,0-0.0057,0-0.0159,0
			c-0.0102,0-0.0159,0-0.0159,0v0.0001c-0.0979,0.0006-0.3952,0.0047-0.5045,0.0317c-1.3301,0.3283-0.926,1.8331-0.6461,2.3402
			c0.2371,0.4295,1.0472,1.5778,1.0472,1.5778h0.2385c0,0,0.8101-1.1483,1.0472-1.5778
			C21.2823,8.0867,21.6864,6.5819,20.3562,6.2536z"/>
		<path fill="#4C0700" d="M20.0329,6.2536c-0.0377-0.0234-0.1316-0.0296-0.1812-0.0312l0-0.0006c0,0-0.006,0-0.0159,0.0002
			C19.8259,6.2218,19.82,6.2218,19.82,6.2218l0,0.0006c-0.0496,0.0016-0.1435,0.0078-0.1812,0.0312
			c-0.5282,0.3283-0.3677,1.8331-0.2566,2.3402c0.0942,0.4295,0.4159,1.5778,0.4159,1.5778h0.0756c0,0,0.3217-1.1483,0.4159-1.5778
			C20.4007,8.0867,20.5611,6.5819,20.0329,6.2536z"/>
	</g>
</g>
</svg>
