<svg xmlns="http://www.w3.org/2000/svg" xmlns:xlink="http://www.w3.org/1999/xlink" width="40.1889" height="39.4268" viewBox="0 0 40.1889 39.4268"><defs><radialGradient id="radial-gradient" cx="20.0945" cy="19.7134" r="19.9048" gradientUnits="userSpaceOnUse"><stop offset="0" stop-color="#9b0400"/><stop offset="1" stop-color="#4c0200"/></radialGradient></defs><title>FR</title><g id="Layer_2" data-name="Layer 2"><g id="Layer_1-2" data-name="Layer 1"><path id="FR" d="M21.4019,1.6838l.167-.049.283-.176.236-.056.135.135.076.077.148.304.042.316.066.263.12.106.451.035.333.097.088.088.114.582.062.082.083-.068.082-.096.1141-.015.195.037.2569.012.2651.064.366.328-.014.108L25,4.0468l-.025.151.063.061.097.156-.023.18-.094.126-.038.104v.067l.035.056.075.049.541.066.495-.066.312-.184.053-.194.088-.218.1861-.184.1279-.062.1181.075-.198.769.1449.1961.021.2919.052.2561.177-.005.214.047.152.0939.177.1521.2551.14.1789.049.065.116.145.135.228.282.204.188h.099l.19-.074.282-.047.222.004.095.143.219.066.077.053.086.099.146.04.176-.04.128-.131.171-.06.172.02.099.072.188.107.106-.023.213.066.214.208.09.208.023.114.092.124.359.558.114.027.125-.084.081-.12.117-.024.188.056.121.063.058.241.041.046.081-.052.145-.011.232.059.318-.068.255-.101.13.004.21.281.24.105.528.085.567.132.223.107.152.053.016.371-.046.056-.565.742-.238.265-.1211.377-.083.578-.167.547-.25.518-.091.388.068.258-.043.405-.153.551-.026.415.102.28.141.057-.339.188-.077.165-.133.217-.216.091-.217.03-.176-.028-.1-.087.005-.081-.093-.069-.231.002-.239.149-.191.244.059.136.176.036.046.054v.07l-.062.084-.074.144-.369.428-.372.431-.06.13-.118.091-.473.23-.049.092-.027.383-.0531.314-.351.295-.349.293-.087.179-.063.207-.109.234-.022.124.177.201-.021.1659-.056.236-.167.167-.186.095.004.256.099.036.224-.019.317-.186.207-.24-.122-.227-.015-.044.03-.0539.245-.248.3-.149.419-.028.505.088.05.037-.024.152.047.224.091.157-.125.445.095.139.147.167.11.152.158.139.141.235.048.133-.226.23-.382.216-.043.139.005.157.043.124.211.159.227.359.144.32.315.306.077.091-.02.076-.083.13-.108.434-.129.068-.144.028-.39.317-.174-.039-.247.004-.181.104.02.197.159.18.093.196.038.204.176.151.248.09.142.006.092.054.056.07.107.436-.064.109-.134.046-.08.179-.159.263-.09.211.1.186.042.138-.053.142.071.22.188.218.511.306.475.249.147.041.642-.16.106.014.078.19.034.128-.072.192-.1767.2708-.188.211-.114.179.024.163.007.216-.153.064-.005-.042-.063-.037-.054.021-.042.047-.006.083-.326.138-.225.143-.889.852-.416.249-.082.15-.085.28-.244.24-.214.114-.529.117-.532.254-.24-.11-.62.012-.387-.306-.7439-.194-.242-.447-.339-.0289-.222.014-.133-.068-.034-.153-.003-.1471-.235.068h-.18l-.107.059-.084.068-.1-.043-.058.015.005.086-.216.022-.2351-.053-.615-.231-.094-.036-.427-.089-.172-.0929-.14-.229-.106-.072-.063-.043-.398.116-.138.18-.215.211-1.476,1.032-.27.431-.312.633-.024.295.134.94.3.492.038.114-.167.001-.279-.062-.231-.076-.221.042-.212.102-.186.062-.134.017-.089.059-.043.117-.008.082-.2349-.02-.543-.168-.488-.116-.287.132-.184.123-.129-.019-.099-.13-.066-.1271-.191-.117-.432-.1749.022-.0841.074-.118-.0021-.073-.083-.108-.398-.116-.188-.029-.1189.08-.086.098-.2211-.36-.1579-.074-.2381-.012-.273-.11-.284-.1409-.689-.225-.1889-.0271-.076.0361-.051.135-.027.38-.029.042-.32.013-.3941-.053-.181.026-.161.001-.152-.1011-.681.115-.113-.056-.164-.171-.184-.139-.142-.071-.122-.082-.11-.013-.168.079-.232.034-.1919-.01-.103.011-.432-.422-.063-.115-.215-.032-.266-.005-.678-.274-.309-.147-.045-.088.004-.071-.053.016-.095.125-.05.102-.066.019-.097-.016-.09-.058-.055-.074.059-.129.104-.169.043-.184-.01-.165-.171-.106-.252-.044-.185-.013-.24-.094-.114-.068-.11-.184-.004-.134.457-.118.411-.485.39-1.768.282-2.109.209-.4.264-.11-.213-.292-.133.148-.056.157-.07.079.157-1.9549.112-.72.191-.7561.391.3.324.305.167.264.212.876.1611.184.24.184-.095-.201-.165-.154-.258-1.169-.162-.333-.252-.28-.812-.591-.073-.115-.04-.226.269.01.232.11-.027-.126-.069-.132-.108-.481-.09-1.127.012-.193-.04-.238-.26-.053-.208-.009-.224-.094-1.106-.668-.378-.692-.387-.512-.093-.224.006-.227.201-.48-.177-.304-.173-.06-.15-.151.136-.251.113-.161.227-.043.297.053.282.146.221.039-.653-.391-1.06.132-.229-.05-.192-.087-.076-.288.151-.129.136-.24-.154-.168-.2-.064-.314.003-.293.0509-.074-.0969.179-.268-.152-.098-.203.046-.294.0549-.281-.084-.266-.305-.176.0021-.121.0379-.179-.118-.189-.029-.135.039-.179-.1749-1.104-.352-.476-.043-.437.159-.241-.055-.177-.228-.148-.382-.704-.295.139-.194.328-.046.377-.134.136-.173L.922,12.45.704,12.4l-.09-.072-.092-.181.13-.083.092.044.266.026.454-.044-.169-.183-.176-.041-.081-.046-.37-.02-.168.063-.378-.024-.082-.197-.04-.17.117-.378.532-.339,1.326-.371.57.054.395-.067.474-.234.209-.201.674-.118.64.213.59.804.2821.272.691-.472,1.029.0141.212.2659.086-.224.189-.263.151.12.0769.163,1.086-.046.171-.0469-.292-.1911-.238-.458-.05-1.693-.301-.475-.345-.761-.159-.453L8.101,6.43l.0531-.227.424.012.328.058.625-.1709.3.117-.0181.354.0921.446.104.216.159.245.503-.022.543.144.687.022,1.003.248.427-.144.414-.307.788-.202.0629-.106-.454.042-.416-.195-.056-.211.048-.19.1691-.438,1.2059-.693.8641-.205.902-.383.454-.393.3-.509.097-.112.125-.094-.116-.183.078-1.96.084-.355.176-.291.268-.225.406-.244,1.497-.337L20.45,0l.031.212.109.271.075.148-.063.193.049.159.203.286.253.269.226.172ZM10.0619,21.95l-.099.352-.188-.324-.248-.284-.057-.263v-.07l.291.192Zm29.913,12.125-.073.559.053.163.102.114.047.125.085,1.482-.016.118-.343.593-.077.173-.017.732-.058.196-.122.193-.217.624-.188.28-.514-.342-.303-.148-.148-.159-.097-.11.063-.147.138-.153.022-.121-.325-.136-.149-.091.002-.16.112-.249-.051-.206-.188.01-.146-.031-.019-.107.107-.137.138-.179-.004-.198-.167-.0849-.151-.1611-.061-.2189.117-.15.19-.0961-.14-.225-.094-.005-.075-.049.062-.104.147-.156.205-.467.285-.221.506-.142.137-.063.125-.165.139-.106.169.014.156.063.096.068.072-.071.07-.205-.043-.18.022-.495.09-.281.146-.016.134.155-.006.137.05.324Z" fill="url(#radial-gradient)"/></g></g></svg>