<svg xmlns="http://www.w3.org/2000/svg" xmlns:xlink="http://www.w3.org/1999/xlink" width="16.214" height="17.346" viewBox="0 0 16.214 17.346"><defs><radialGradient id="radial-gradient" cx="8.107" cy="8.673" r="8.3948" gradientUnits="userSpaceOnUse"><stop offset="0" stop-color="#ffd496"/><stop offset="1" stop-color="#f29d25"/></radialGradient></defs><title>GA</title><g id="Layer_2" data-name="Layer 2"><g id="Layer_1-2" data-name="Layer 1"><path id="GA" d="M12.883.392l-.014.195-.223.478-.104.368-.026.391.061.316.107.224.069.245L12.7,2.78l-.108.073.074.086.162.02.276-.074.424-.131.555-.189.365-.101.603.064.322.072.165.132.178.562.088.086.146.239.122.287.026.146-.014.105-.122.155-.138.229-.049.138-.115.103-.146.101-.403.041-.062.06-.112.243-.213.206-.097.195-.085.26.017.321-.043.463-.043.314.106.11.482.076.093.062.128.194.164.183.44.115.171.139.139.153.018.125-.1.503-.096.483.038.368.035.351.053.511-.023.312-.125.191v.149l.057.18-.11.498-.071.084-.197.093L15.571,12l-.033.21-.106.288-.11.105v.134l.106.097-.002.15-.197.178-.118.136-.263.067-.3-.071-.07-.099.072-.154-.026-.124-.103-.13-.161-.334-.142-.071-.079.137-.244.254-.431.326-.302.026-.558-.099-.467-.156-.221-.382-.137-.316-.2-.366-.224-.174-.239-.112-.106-.007-.342.204-.103.081.001.171.032.16.053.077.044.103-.008.159-.061.213-.021.235-1.072.231-.185-.083-.135-.106-.162.019-.466.12-.171-.084-.169-.061-.078.051-.006.1.079.554-.026.211-.104.276-.055.187.285.052.102.087.1.139.137.13.009.079-.155.145-.053.178.074.139.193.146.283.151.138.099-.014.091-.131.192-.05.164-.09.147.019.136.127.127-.013.113-.087.086-.176-.018-.149.012-.133-.035-.418-.439-.092-.013-.606.338-.151.138-.125.2-.168.431-.275-.251-.238-.459-.277-.283-.583-.455-.156-.336-.667-.739-.958-.739-.693-.641-.105-.142.117.017.669.32.091-.036.077-.072-.288-.168-.276-.132-.259-.082-.259.007-.145-.135-.094-.206-.048-.176-.115-.185-.367-.38-.089-.147-.201-.2.122-.027.394.192.035-.077-.034-.112-.396-.182-.214-.012-.05-.128.029-.148-.283-.553-.294-.415-.046-.196.793.902.106.015.14-.008.328-.101-.063-.121-.148-.129-.143.06-.187.012-.098-.054-.044-.093.187-.438-.081.023-.059.077-.103.038-.158.022-.391-.234L.67,9.407l-.091-.13-.092-.22L.396,8.966,0,8.067l.151.067.181.26.351-.055.137-.15.119.005.123-.034.154-.142.45-.62.119-.816-.039-.485L1.68,5.615l.149-.154.059.102.029.171.07.127.16.113.298.03.46.179.164.113.045-.227.53-.193-.161-.069-.47.076-.646-.289-.215-.183-.2-.349L1.745,4.88l.014-.163.464-.151.123.017.049.18.125.074.047-.025.021-.153.001-.412-.141-.591.043-.114.127-.041.113-.078.079-.014.157.014.079.137.043.075.159.035.13.073.112-.02.093-.085.136-.018.423.002.383.001.762.002.763.003.763.002.574.002-.002-.337-.003-.521-.003-.616-.004-.591-.003-.546L7.369.376,7.4.19,7.438.114,7.424.007,8.015,0,9.083.047,9.55.041,9.683.05l.584-.033.472.041.201.045.181.023.566.028.739-.035.251.008.139.09Z" fill="url(#radial-gradient)"/></g></g></svg>