<?xml version="1.0" encoding="utf-8"?>
<!-- Generator: Adobe Illustrator 22.1.0, SVG Export Plug-In . SVG Version: 6.00 Build 0)  -->
<svg version="1.1" id="Layer_1" xmlns="http://www.w3.org/2000/svg" xmlns:xlink="http://www.w3.org/1999/xlink" x="0px" y="0px"
	 width="27.7649px" height="53.7701px" viewBox="0 0 27.7649 53.7701" enable-background="new 0 0 27.7649 53.7701"
	 xml:space="preserve">
<radialGradient id="GB_1_" cx="13.8825" cy="26.8851" r="21.3954" gradientUnits="userSpaceOnUse">
	<stop  offset="0" style="stop-color:#FFD496"/>
	<stop  offset="1" style="stop-color:#F29D25"/>
</radialGradient>
<path id="GB" fill="url(#GB_1_)" d="M19.871,50.835l-0.235,0.152l-0.074,0.179l-0.057,0.07l-0.155,0.046l-0.154,0.001l-0.586-0.358
	l-0.135,0.016l0.134-0.164l0.364-0.134l0.205-0.177l0.473,0.171L19.871,50.835z M11.083,38.865l0.118,0.087l0.296-0.014
	l-0.098,0.194l-0.326,0.216l-0.219,0.213l-0.265,0.178l-0.128-0.205l-0.149,0.008l-0.228-0.394l-0.041-0.59l0.298-0.154l0.412,0.009
	L11.083,38.865z M4.97,29.653l0.396,0.123l0.295-0.002l0.262,0.357l0.14,0.562l0.327,0.554l0.428,0.48l0.017,0.293l-0.153,0.157
	l-0.319,0.195l0.001,0.209l0.211-0.105l0.182-0.048l0.438,0.046l0.153,0.212l0.106,0.317l0.056,0.26l-0.038,0.282l-0.118-0.09
	l-0.12-0.252l-0.133-0.116l-0.155-0.063l0.07,0.347l-0.028,0.463l0.067,0.043l0.208,0.008l-0.137,0.472l-0.285,0.128L6.51,34.533
	l-0.08,0.167l-0.06,0.215l-0.173,0.32l-0.228,0.181l-0.282-0.037l-0.276-0.143L5.17,35.207l-0.168,0.085l-0.109,0.079l-0.106-0.014
	l-0.303,0.03l-0.285-0.006l-0.041-0.125l0.049-0.376l-0.064-0.102l-0.272-0.052l-0.101-0.09l-0.157-0.26l-0.031-0.122L3.56,34.086
	l-0.166-0.217l-0.201-0.156l-0.118-0.008l-0.235,0.254l-0.194,0.257l0.068,0.129l0.063,0.169l-0.105,0.122l-0.319,0.278l-0.05,0.108
	l-0.086,0.059l-0.152-0.077l-0.379,0.018l-0.174-0.049l-0.203-0.205l-0.495-0.137l-0.083-0.329L0.636,34.24l-0.561-0.565L0,33.486
	l0.073-0.113l0.209-0.171l0.703-0.284l0.111-0.114l0.023-0.101l-0.207-0.115L0.726,32.46l-0.063-0.083l-0.005-0.073l0.106-0.095
	l0.212-0.007l0.168,0.043l0.133-0.085l0.234-0.086l0.157-0.108l0.135-0.279l0.143-0.251l0.015-0.136l0.125-0.479l0.069-0.119
	l0.444-0.314l0.112,0.172l0.219,0.042l0.196-0.158l0.235-0.499l0.163-0.031l0.18,0.041l0.354-0.063l0.628-0.233L4.97,29.653z
	 M8.533,28.633l-0.354,0.004l-0.128-0.043l-0.153-0.12l-0.172-0.68l0.062-0.241l0.07-0.118l0.078-0.092l0.187-0.038l0.186,0.129
	l0.07,0.12l0.156,0.46l0.029,0.394L8.533,28.633z M5.661,26.239l0.101,0.641l0.099,0.396l0.007,0.135l-0.093,0.188l-0.463,0.25
	L5.166,27.85L5.16,27.789l0.104-0.254l-0.09-0.289l0.044-0.22l-0.043-0.04l-0.09,0.031l-0.332,0.349L4.642,27.4L4.63,27.329
	l0.082-0.286l0.01-0.196l0.049-0.12l0.09-0.111l0.107-0.083l0.087-0.012l0.092,0.086l0.268-0.24L5.661,26.239z M6.107,26.819
	l-0.059,0.053l-0.142-0.015l-0.053-0.081l-0.029-0.124l-0.003-0.227l0.086-0.163l0.364-0.246l-0.165-0.087L6.1,25.867l0.094-0.205
	l0.391-0.319l0.105-0.058l0.104,0.009L6.592,25.86L6.107,26.819z M6.646,24.16l-1.118,0.281l-0.385-0.025l-0.035-0.138l0.077-0.092
	l0.319-0.089l0.129-0.677l-0.482-0.313L5.126,23.02l0.038-0.149l0.056-0.067l0.292-0.158l0.123-0.035l0.1,0.021l0.206,0.183
	l0.232,0.383l0.311,0.061l0.211,0.162L6.646,24.16z M4.317,22.94l-0.159,0.028l-0.012-0.072l0.277-0.344l0.179-0.057l0.063,0.034
	l-0.13,0.2L4.317,22.94z M2.046,20.995l-0.247,0.07l-0.091-0.041l-0.016-0.065l0.056-0.177l0.189-0.063l0.137,0.096l0.022,0.087
	L2.046,20.995z M5.24,20.999l-0.083,0.066l-0.105-0.013l-0.104-0.085L4.81,20.725l0.31-0.168l0.124,0.099l0.047,0.113l0.002,0.125
	L5.24,20.999z M2.515,20.223l-0.119,0.029l-0.155-0.028l-0.096-0.08l-0.097-0.317L2.03,19.635l0.043-0.358l-0.01-0.429l0.32-0.013
	l0.083,0.062l0.055,1.271L2.515,20.223z M5.617,18.203l-0.004,0.23l-0.05,0.271l0.064,0.287l0.015,0.205l0.118,0.065l0.072,0.094
	l0.526,0.105l0.489-0.03l0.094,0.084l0.011,0.134l-0.077,0.147l-0.279,0.268l-0.332,0.433l-0.099,0.09L6.058,20.59l-0.077-0.039
	l-0.055-0.77l-0.36,0.099l-0.29-0.011l-0.159-0.094l-0.111-0.181l-0.225-0.466l-0.654-0.184l-0.185-0.258l-0.056-0.156l0.023-0.086
	l0.136-0.192l0.17,0.068l0.105-0.042l0.064-0.086l-0.001-0.071l-0.089-0.167l-0.004-0.052l0.669-0.212l0.059-0.332l0.145-0.027
	l0.166,0.109l0.227,0.345L5.617,18.203z M2.639,17.273l0.317,0.294l-0.252,0.488l-0.387-0.002l-0.545-0.356L1.77,17.624l0.045-0.107
	l0.082-0.085l0.085-0.02l0.135,0.058l0.188-0.094l0.15,0.03L2.639,17.273z M5.465,13.674l-0.357,0.929l-0.14,0.023l-0.123,0.232
	l-0.38,0.255l0.332,0.005l0.093,0.085l0.002,0.183l-0.063,0.106l-0.429,0.422l-0.295,0.16l-0.318,0.44l-0.161,0.005l-0.159,0.279
	l-0.13,0.123H3.263l-0.084-0.062l-0.197-0.273l0.358-0.269l0.033-0.151l0.245-0.158l-0.021-0.049l-0.389-0.222l-0.153-0.149
	l0.014-0.078l0.187-0.172l-0.088-0.022l-0.06-0.093L3,15.187l-0.033-0.086l-0.02-0.228l0.029-0.233l0.113-0.103l0.046-0.11
	l0.046-0.034l0.175,0.059l0.178,0.187l0.208-0.072l0.241,0.035l0.005-0.043L3.811,14.1l0.032-0.094l0.096-0.107l0.556-0.329
	l0.693-0.554l0.168-0.087l0.051,0.076l0.07,0.287L5.465,13.674z M14.134,12.859l0.024,0.438l-0.033,0.133l-0.067,0.164l-0.212,0.305
	l-0.558,0.435l-1.021,0.996l-0.604,0.492l-0.083,0.236l-0.045,0.328l0.361,0.065l0.14,0.111l-0.086,0.166l-0.535,0.577l-0.157,0.52
	l0.41-0.019l0.338-0.1l0.673-0.324l0.633-0.241l0.304-0.01l0.591,0.192l0.134,0.006l0.251-0.089l0.254-0.016l1.718,0.06l0.478-0.113
	l0.316,0.135l0.264,0.336l0.251,0.619l-0.008,0.103l-0.152,0.281l-0.28,0.352l-0.241,0.484l-0.07,0.26l-0.047,0.285l-0.076,0.263
	l-0.479,1.23l-0.467,0.678l-0.208,0.48l-0.257,0.381l-0.248,0.24l-0.264,0.16l-0.764,0.17l-0.214,0.122l-0.255,0.209l-0.268,0.104
	l0.314-0.013l0.311-0.116l0.567-0.042l0.652,0.4l-0.061,0.327l-0.262,0.258L14.5,24.918l-0.557,0.573l-0.251,0.176l-0.266,0.087
	l-0.332-0.026l-0.603-0.153l-0.264-0.16l0.238,0.261l0.271,0.136l1.569,0.321l0.095-0.034l0.5-0.338l0.667-0.005l1.269,0.622
	l0.365,0.475l0.524,0.677l0.285,0.264l0.206,0.239l0.127,0.357l0.246,1.176l0.281,1.142l0.367,1.23l0.167,0.34l0.219,0.238
	l1.108,0.546l0.247,0.181l0.43,0.524l0.415,0.557l0.386,0.427l0.417,0.345l-0.202,0.179l-0.138,0.281l0.104,0.381l0.169,0.363
	l0.333,0.58l0.294,0.631l-0.108-0.095l-0.114-0.052l-0.156,0.016l-0.152-0.03l-0.281-0.198l-0.27-0.243l-0.537,0.098l-0.298-0.044
	l-0.259,0.007l0.491,0.14l0.537,0.01l1.184,1.057l0.4,0.624l0.238,0.821l-0.162,0.368l-0.252,0.238l-0.235,0.271l-0.221,0.307
	l0.657,0.449l0.142-0.013l0.145-0.063l0.14-0.153l0.235-0.373l0.121-0.132l0.409-0.048l0.343,0.029l0.341,0.083l0.301-0.026
	l0.605,0.16l0.311,0.144l0.771,0.647l0.167,0.354l0.077,0.456l0.009,0.504l-0.13,0.459l-0.149,0.414l-0.092,0.533l-0.065,0.192
	l-0.091,0.15l-0.408,0.419l-0.271,0.172l-0.114-0.075l-0.123,0.01l-0.013,0.101l0.129,0.213l0.001,0.257l-0.241,0.19l-0.245,0.081
	l-0.41-0.101l-0.569,0.354l0.409,0.182l0.083,0.193l-0.102,0.339l-0.257,0.151l-0.286,0.067l-0.292,0.016l-0.242,0.083l-0.232,0.16
	l0.291-0.084l0.202,0.074l0.127,0.284l0.115,0.082l0.57,0.121l0.352-0.001l0.68-0.069l0.327,0.001l0.116,0.052l0.002,0.235
	l-0.05,0.576l-0.09,0.119l-0.901,0.482l-0.185,0.336l-0.051,0.203l-0.527-0.036l-0.247,0.215l-0.427,0.143l-0.33,0.151l-0.323,0.191
	l-0.266,0.057l-1.147-0.227L21.6,50.308l-0.939,0.198l-0.242-0.033l-0.362-0.189l-0.372-0.128L19.258,50.1l-0.369-0.176l0.23,0.337
	l-0.511,0.325l-0.236,0.064l-0.245-0.01l-0.5,0.088l-0.465-0.048l0.07,0.23l0.124,0.201l-0.101,0.087l-0.106,0.022l-0.882-0.151
	l-0.125,0.028l-0.109,0.14l-0.321-0.075L15.4,50.927l-0.331-0.159l-0.348-0.075l-0.276,0.026l-1.137,0.372l-0.227,0.372
	l-0.114,0.527l-0.164,0.467l-0.268,0.359l-0.319,0.047l-0.3-0.249l-0.57-0.274l-0.194-0.186l-0.062-0.011l-0.064,0.066l-0.224,0.084
	l-0.231,0.004l-0.357,0.074l-0.621,0.223l-0.251,0.151l-0.539,0.417l-0.11,0.115l-0.196,0.419l-0.299,0.074l-0.274-0.268
	l-0.312-0.094l-0.329,0.091l-0.199,0.143l-0.093-0.116l-0.003-0.238l0.24-0.284l0.641-0.215l0.563-0.559l0.276-0.341l0.11-0.193
	l0.135-0.123l0.176-0.046l0.091-0.213l0.781-0.858l0.064-0.197l0.039-0.354l0.064-0.341l0.636-0.221l0.304-0.719l0.084-0.057
	l0.887-0.132l0.658,0.011l0.654,0.141l0.335,0.013l0.336-0.049l0.264-0.195l0.451-0.704l0.254-0.311l0.291-0.281l0.272-0.321
	l0.441-0.596l-0.298,0.206l-0.36,0.326l-0.209,0.189l-0.664,0.19l-0.286,0.194l-0.501,0.437l-0.096,0.036l-0.756-0.105l-0.562-0.567
	l-0.359-0.232l-0.148-0.027l-0.154,0.069l-0.328,0.071l-0.334-0.012l0.171-0.263l0.232-0.147l-0.52-0.102l-0.145-0.08l-0.165-0.185
	l-0.408-0.031l-0.194,0.047l-0.328,0.244l-0.518,0.259l-0.625-0.359l-0.122-0.157l0.003-0.305l-0.094-0.242l-0.173-0.085
	l0.221-0.315l0.268-0.21l0.588-0.209l0.891-0.497l0.5-0.212l0.464-0.366l0.192-0.224l0.139-0.307l0.138-0.376l0.197-0.307
	l-0.191-0.073l-0.086-0.231l0.023-0.235l0.088-0.209l-0.079-0.262l-0.141-0.274l0.008-0.214l0.038-0.229l-0.358,0.012l-0.357,0.072
	l-0.324,0.162l-0.314,0.22l-0.279,0.041l0.004-0.176l0.121-0.218l0.316-0.312l0.338-0.259l0.12-0.197l0.095-0.229l0.168-0.184
	l0.442-0.348l0.847-0.392l0.126-0.023l0.332,0.046l0.327-0.06l0.286-0.141l0.285-0.03l0.642,0.407l-0.191-0.63l0.283-0.151
	l0.41,0.57l0.152,0.06l0.322-0.083l-0.124-0.096l-0.145-0.006l-0.19-0.086l-0.16-0.183l-0.266-0.582l0.015-0.346l0.179-0.36
	l0.198-0.332l-0.166-0.066l-0.133-0.127l-0.038-0.333l0.052-0.295l0.356-0.26l0.105-0.396l0.044-0.437l-0.059-0.201l-0.354,0.032
	l-0.172,0.082l-0.154,0.129l-0.158-0.008l-0.437-0.484l-0.249-0.367l-0.447-0.778l-0.063-0.467l0.357-1.01l0.552-0.649l0.65-0.227
	l-0.126-0.043l-0.991-0.009l-0.327,0.08l-0.303,0.266l-0.171,0.082l-0.18,0.03l-0.164,0.132l-0.16,0.183l-0.167,0.118l-0.331-0.031
	l-0.16,0.039l-0.115-0.106l-0.097-0.175l-0.126-0.047l-0.141,0.054l-0.298,0.236l-0.302,0.139l-0.365-0.149l-0.479-0.278
	l-0.094,0.102l-0.106,0.258l-0.061,0.401l-0.34-0.349l-0.289-0.467l-0.098-0.294L8.34,30.906l0.157-0.129l0.171,0.118l0.254-0.789
	l0.506-1.032l0.179-0.303l0.125-0.397l-0.021-0.26l-0.111-0.22l-0.471-0.5l0.006-0.409l0.05-0.462l0.128-0.278l0.054-0.053
	l0.625,0.007l-0.244-0.144l-0.486-0.419l0.009-0.149l0.114-0.389l-0.053,0.039l-0.104,0.18l-0.199,0.435l-0.121,0.101l-0.344,0.103
	l-0.063,0.213l-0.055,0.056l-0.171,0.024l-0.053,0.199l-0.038,0.013l-0.049-0.214l-0.005-0.356l0.068-0.328l0.13-0.257l0.504-0.585
	l-0.245,0.181l-0.556,0.541l-0.284,0.355l-0.076,0.12l-0.023,0.101l0.001,0.116l0.127,0.621l-0.037,0.287l-0.479,1.885l-0.091,0.188
	l-0.083,0.098l-0.079,0.023l-0.236-0.036l-0.105-0.141l0.001-0.159l0.044-0.239l0.199-0.893l0.086-0.249l0.128-0.232l0.282-0.406
	l-0.007-0.027l-0.188,0.08l-0.08-0.026l-0.058-0.081l0.037-1.211l0.153-0.4l0.057-0.583l0.132-0.501l0.153-0.366l0.117-0.469
	l0.175-0.209l0.047-0.32l0.197-0.347l0.152-0.363l-0.082,0.036l-0.973,0.944l-0.248,0.171l-0.338-0.046l-0.258-0.106l-0.202-0.223
	l-0.09-0.429l-0.249-0.011l-0.213-0.074l0.002-0.058l0.275-0.234l0.441-0.08l0.413-0.376l-0.367-0.254l0.031-0.081l0.32-0.217
	l0.407-0.729l0.082-0.673l-0.194-0.317l-0.07-0.208l-0.389-0.232l-0.065-0.297l0.045-0.167l0.127-0.163l0.191-0.126l0.3-0.122
	l-0.272-0.13l-0.102-0.154l-0.077-0.223l-0.007-0.129l0.141-0.576l0.082-0.238l0.161-0.304l0.728,0.017l0.084-0.134l0.083-0.005
	l0.372,0.123l-0.055-0.132l-0.609-0.725l-0.055-0.138l0.174-0.392l0.012-0.175l-0.025-0.187l0.05-0.143l0.193-0.067l0.588,0.006
	l0.145-0.066l-0.066-0.19l-0.137-0.25l-0.027-0.21l0.032-0.186l0.007-0.375l0.027-0.166l0.14-0.249l0.115-0.074l0.143-0.043
	l0.323,0.083l0.123,0.1l0.142,0.237l0.104-0.019l0.402-0.258l0.121-0.037l0.165,0.299l0.687-0.238l0.923-0.106l0.555-0.157
	l0.584-0.057l0.545-0.179l0.578,0.082l0.02,0.104l-0.03,0.144L14.134,12.859z M14.641,11.642l-0.027,0.016l-0.103-0.099
	l-0.168-0.355l0.265-0.071l0.125,0.044l-0.047,0.151L14.641,11.642z M13.979,11.358l-0.161,0.072l-0.159-0.005l-0.248-0.313
	l-0.094-0.228l0.017-0.151l0.104-0.051l0.24,0.074l0.124,0.261l0.016,0.169l0.029,0.066l0.149,0.067L13.979,11.358z M14.281,10.081
	l-0.038,0.134l0.213-0.003l0.309,0.114l0.187,0.014l0.156,0.142l-0.086,0.265l-0.093,0.075l-0.105,0.015l-0.368-0.265l-0.482,0.11
	l-0.096-0.034l-0.063-0.073l-0.026-0.091v-0.186l-0.026-0.055l-0.175,0.176l-0.076-0.021l-0.043-0.084L13.45,10.14l0.019-0.251
	l0.103-0.359l0.173-0.072l0.258,0.042l0.296,0.203l0.089,0.125l-0.002,0.1L14.281,10.081z M15.708,8.979l-0.317,0.006l0.164-0.324
	l0.191-0.082l0.361,0.036l-0.064,0.146L15.708,8.979z M15.202,9.223l-0.241,0.136l-0.103-0.112l-0.027-0.352l-0.287-0.151
	l-0.14-0.094l-0.108-0.178l0.027-0.055l0.187-0.073l0.32,0.323l0.131,0.26l0.237,0.077l0.03,0.04L15.202,9.223z M19.19,1.685
	l0.058,0.401l0.145-0.104l0.219,0.384h0.112l0.184-0.152l-0.037,0.357L19.68,3.558l-0.054,0.167L19.59,4.024l-0.038,0.059
	l-0.056,0.603l-0.129,0.198l-0.108,0.472l-0.044,0.046l-0.158-0.181L19.215,4.5l0.065-0.42l-0.042-0.218l-0.089-0.197l-0.242-0.006
	L18.703,3.75L18.66,3.634l-0.006-0.156l-0.049-0.052l-0.271,0.011l-0.08-0.043L18.201,3.25l-0.01-0.115l0.245-0.09l0.23,0.034
	l0.336-0.229l-0.21-0.769l-0.279-0.073l-0.064-0.075l0.054-0.131l0.153-0.071l0.235-0.393l0.141-0.062l0.175,0.011L19.19,1.685z
	 M19.936,1.82l-0.071,0.065l-0.274-0.579l0.203-0.665l0.246,0.021l0.039,0.174l-0.024,0.161L19.93,1.011L19.919,1.06l0.039,0.309
	l0.002,0.358L19.936,1.82z M20.688,0.114V0.18l-0.146,0.484l0.002,0.185l-0.235-0.018l-0.037-0.059l-0.044-0.277l0.03-0.295
	l0.033-0.077l0.068-0.031l0.074,0.058L20.55,0l0.061,0.003L20.688,0.114z"/>
<text transform="matrix(1 0 0 1 17.0916 49.8616)" fill="#770B00" font-family="'KornerDeliNF'" font-size="3.2418px">London</text>
<g id="Layer_2_copy_2" opacity="0.9">
	<path fill="#9B0F00" d="M23.0076,43.2502c-0.1449-0.0285-0.5449-0.0323-0.6623-0.0328v-0.0001c0,0-0.0059,0-0.0164,0
		c-0.0106,0-0.0164,0-0.0164,0v0.0001c-0.1174,0.0005-0.5173,0.0042-0.6623,0.0328c-1.7241,0.3393-1.2003,1.8949-0.8374,2.4192
		c0.3073,0.444,1.3574,1.631,1.3574,1.631h0.3174c0,0,1.0501-1.187,1.3574-1.631C24.2079,45.1451,24.7317,43.5895,23.0076,43.2502z"
		/>
	<path fill="#770B00" d="M22.8669,43.2502c-0.113-0.0279-0.4203-0.0321-0.5215-0.0327v-0.0001c0,0-0.0059,0-0.0164,0
		c-0.0105,0-0.0164,0-0.0164,0v0.0001c-0.1012,0.0006-0.4085,0.0048-0.5215,0.0327c-1.375,0.3393-0.9573,1.8949-0.6679,2.4192
		c0.2451,0.444,1.0825,1.631,1.0825,1.631h0.2465c0,0,0.8375-1.187,1.0825-1.631C23.8242,45.1451,24.2419,43.5895,22.8669,43.2502z"
		/>
	<path fill="#4C0700" d="M22.5327,43.2502c-0.039-0.0242-0.1361-0.0306-0.1873-0.0322l0-0.0006c0,0-0.0062,0-0.0164,0.0002
		c-0.0103-0.0002-0.0164-0.0002-0.0164-0.0002l0,0.0006c-0.0512,0.0017-0.1483,0.008-0.1873,0.0322
		c-0.546,0.3393-0.3801,1.8949-0.2652,2.4192c0.0973,0.444,0.4299,1.631,0.4299,1.631h0.0781c0,0,0.3326-1.187,0.4299-1.631
		C22.9128,45.1451,23.0787,43.5895,22.5327,43.2502z"/>
</g>
</svg>
