<svg xmlns="http://www.w3.org/2000/svg" xmlns:xlink="http://www.w3.org/1999/xlink" width="27.7649" height="53.7701" viewBox="0 0 27.7649 53.7701"><defs><radialGradient id="radial-gradient" cx="13.8825" cy="26.8851" r="21.3954" gradientUnits="userSpaceOnUse"><stop offset="0" stop-color="#ffd496"/><stop offset="1" stop-color="#f29d25"/></radialGradient></defs><title>GB</title><g id="Layer_2" data-name="Layer 2"><g id="Layer_1-2" data-name="Layer 1"><path id="GB" d="M19.871,50.835l-.235.152-.074.179-.057.07-.155.046-.154.001-.586-.358-.135.016.134-.164.3641-.134.2049-.177.473.171Zm-8.788-11.97.118.087.296-.014-.098.194-.326.216-.219.213-.265.178-.128-.205-.149.008-.228-.394-.0409-.59.298-.154.412.009ZM4.97,29.653l.396.123.295-.002.262.357.14.562.327.554.4281.48.017.293-.1531.157-.319.195.001.209.211-.105.182-.048.438.046.1531.212.1059.317.056.26-.038.282-.118-.09-.12-.252-.133-.116-.155-.063.07.347-.0281.463.067.043.208.008-.137.472-.285.128-.331.048-.08.167-.06.215-.173.32-.228.181-.2821-.037-.276-.143-.241-.029-.168.085-.109.079-.106-.014-.303.03-.285-.006-.0409-.125.049-.376-.064-.102-.272-.052-.101-.09-.1571-.26-.031-.122-.022-.168-.166-.217-.2009-.156-.1181-.008-.2349.254-.194.257.068.129.0629.169-.105.122-.319.278-.05.108-.086.059-.152-.077-.379.018-.174-.049-.203-.205-.495-.137-.083-.329L.636,34.24l-.561-.565L0,33.486l.073-.113.209-.171.703-.284.111-.114.023-.101-.207-.115L.726,32.46l-.063-.083-.005-.073.106-.095.212-.007.168.043.133-.085.234-.086.157-.108.135-.279.143-.251.0151-.136.125-.479.069-.119.444-.314.112.172.219.042.196-.158.235-.499.1629-.031.18.041.354-.063.628-.233Zm3.563-1.02-.354.004-.128-.043-.153-.12-.172-.68.062-.241.07-.118.078-.092.187-.038.1861.129.07.12.156.46.029.394ZM5.661,26.239l.101.641.099.396.007.135-.093.188-.463.25-.146.001-.006-.061.104-.254-.09-.289.044-.22-.043-.04-.09.031-.332.349-.111.034-.012-.071.082-.286.01-.196.0491-.12.09-.111.1069-.083.0871-.012.092.086.268-.24Zm.446.58-.059.053-.142-.015-.053-.081-.029-.124-.003-.227.086-.163.3641-.246-.1651-.087L6.1,25.867l.094-.205.391-.319.105-.058.104.009-.202.566Zm.539-2.659-1.118.281-.385-.025-.035-.138.077-.092.319-.089.129-.677-.482-.313-.025-.087.038-.149.056-.0669.292-.158.123-.035.1.021.206.183.232.383.311.061.211.162ZM4.317,22.94l-.159.028-.012-.072.277-.344.179-.057.063.034-.13.2ZM2.046,20.995l-.247.07-.091-.041-.016-.065.056-.177.189-.063.137.096.022.0871Zm3.194.004-.083.066-.105-.013-.104-.085-.138-.242.31-.168.124.099.047.113.002.125Zm-2.725-.776-.119.029-.155-.028-.096-.08-.097-.317-.018-.192.043-.358-.01-.429.32-.013.083.062.055,1.271Zm3.102-2.02-.004.23-.05.271.064.287.015.205.118.065.072.094.526.105.489-.03.094.084.011.134-.077.147-.279.268-.332.433-.099.09-.107.004-.077-.039-.0549-.77-.36.099-.29-.011-.159-.094-.111-.181-.225-.466-.654-.184-.185-.258-.056-.156.023-.086.136-.192.17.068.105-.042.064-.086-.001-.071-.089-.167-.004-.052.669-.212.059-.332.145-.027.166.109.227.345Zm-2.978-.93.317.294-.252.488-.387-.002-.545-.356-.002-.073.045-.107.082-.0849.085-.02.135.058.188-.094.15.03Zm2.826-3.599-.357.929-.14.023-.123.232-.38.255.332.005.093.085.002.183-.063.106L4.4,15.914l-.2951.16-.318.44-.161.005-.159.279-.13.123H3.263l-.084-.062-.197-.273.358-.269.033-.151.245-.158-.021-.049-.389-.222-.153-.149.014-.078.187-.172-.088-.022-.06-.093L3,15.187l-.033-.086-.02-.228.029-.233.113-.103.046-.11.046-.034.175.059.178.187.208-.072.241.035.005-.043L3.811,14.1l.032-.094.096-.107.556-.329.693-.554.168-.087.051.076.07.287Zm8.669-.815.024.438-.033.133-.067.164-.212.305-.558.435-1.021.996-.604.492-.083.236-.045.328.361.065.14.111-.086.166-.535.577-.157.52.41-.019.338-.1.673-.324.633-.241.304-.01.591.192.134.006.251-.089.254-.0159,1.718.06.478-.1131.316.1351.264.336.251.6189-.008.103-.152.281-.28.352-.241.484-.07.26-.047.285-.076.263-.479,1.23-.467.678-.208.48-.257.381-.248.24-.264.16-.764.17-.214.122-.255.209-.268.104.314-.013.311-.116.567-.042.652.4-.061.327-.262.258-.596.041-.557.573-.251.176-.266.087-.332-.026-.603-.153-.264-.16.238.261.271.136,1.569.321.095-.034.5-.338.667-.005,1.269.622.365.475.5239.677.285.264.206.239.1271.357.246,1.176.281,1.142.367,1.23.167.34.219.238,1.108.546.247.181.43.524.415.557.386.427.4169.345-.2019.179-.1381.281.1041.381.169.363.333.58.294.631-.108-.095-.114-.052-.156.016-.1521-.03-.281-.198-.27-.243-.5369.098-.298-.044-.259.007.491.14.5369.01,1.184,1.057.4.624.238.821-.162.368-.252.238-.235.271-.221.307.657.449.142-.013.145-.063.14-.153.2349-.373.121-.132.409-.048.343.029.341.083.301-.026.605.16.311.1441.771.647.167.354.077.456.009.504-.13.459-.149.414-.092.533-.065.1919-.091.15-.408.419-.271.172-.114-.075-.123.01-.013.1011.129.213.001.257-.241.19-.245.0809-.41-.101-.569.354.409.182.083.193-.1019.339-.257.151-.286.067-.292.016-.242.083-.232.16.2909-.084.202.074.1271.284.1149.082.57.121.3519-.001.68-.069.327.001.116.052.002.235-.05.576-.09.119-.901.482-.185.336-.051.203-.527-.036-.2471.215-.427.143-.33.151-.323.191-.266.057-1.147-.227-.693.019-.939.198-.242-.033-.362-.189-.372-.128-.427-.056-.369-.176.23.337-.511.325-.236.064-.245-.01-.5.088-.465-.048.07.23.124.201-.101.087-.106.022-.882-.151-.125.028-.109.14-.321-.075-.312-.235-.331-.1589-.348-.0751-.276.026-1.137.372-.227.3721-.114.527-.164.467-.268.359-.319.047-.3-.249-.57-.274-.194-.186-.062-.011-.064.066-.224.084-.231.004-.357.074-.621.223-.251.151-.539.417-.11.115-.196.419-.299.074-.274-.268-.312-.094-.329.091-.199.143-.093-.116-.003-.238.24-.284.641-.215.563-.559.276-.341.11-.1929.135-.123.176-.046.091-.213.781-.858.064-.197.039-.354.064-.341.636-.221.3039-.719.0841-.057.8869-.132.658.011.654.1409.335.013.336-.049.264-.195.451-.704.254-.311.291-.281.272-.321.441-.596-.298.206-.36.326-.209.189-.664.19-.286.194-.501.437-.096.036-.756-.105-.562-.567-.3591-.232-.148-.027-.154.069-.328.071-.334-.012.171-.263.232-.147-.52-.102-.145-.08-.165-.185-.408-.031-.194.047-.328.244-.518.259-.625-.359-.122-.157.003-.305-.094-.242-.173-.085.221-.315.268-.21.588-.209.891-.497.5-.212.464-.366.192-.224.139-.307.138-.376.197-.307-.191-.073-.086-.231.023-.235.088-.209-.079-.262-.141-.274.008-.214.038-.229-.358.012-.357.072-.324.162-.314.22-.279.041.004-.176.121-.218.316-.312.338-.259.12-.197.095-.229.168-.184.442-.348.847-.392.126-.023.332.046.327-.06.286-.141.285-.03.642.407-.191-.63.283-.151.41.57.152.06.322-.083-.124-.096-.145-.006-.19-.086-.16-.1831-.266-.582.015-.346.179-.36.198-.332-.166-.0661-.133-.127-.038-.333.0521-.295.3559-.26.1051-.396.044-.437-.059-.201-.354.032-.172.082-.154.129-.158-.008-.437-.484-.249-.367-.447-.778-.063-.467.357-1.01.552-.649.65-.227-.126-.043-.991-.009-.327.08-.303.266-.171.082-.18.03-.164.132-.16.183-.167.118-.331-.031-.16.039-.115-.106-.097-.175-.126-.047-.141.054-.298.236-.302.139-.365-.149-.479-.278-.094.102-.106.258-.061.401-.34-.349-.289-.467-.0979-.294-.007-.332.157-.129.171.118.254-.789.506-1.032.179-.303.125-.3971-.021-.26-.111-.22-.471-.5.006-.409.05-.462.128-.278.0539-.053.625.007-.2439-.144-.486-.419.009-.149.114-.389-.053.039-.104.18-.199.435-.121.101-.344.103-.063.213-.055.056-.171.024-.053.199-.038.013-.049-.214-.005-.356.068-.328.13-.257.504-.585-.245.181-.556.541-.284.355-.076.12-.023.101.001.116.127.621-.037.287-.479,1.885-.091.188-.083.098-.079.023-.236-.036-.105-.141.001-.159.044-.239.199-.893.086-.249.128-.232.282-.406-.007-.027-.188.08-.08-.026-.058-.081.037-1.211.153-.4.057-.583.132-.501.153-.366.117-.469.175-.209.047-.32.197-.347.152-.363-.082.036-.973.944L6.99,23.21l-.3381-.046-.258-.106-.202-.223-.09-.429-.249-.011-.2131-.074.0021-.058.275-.234.441-.08.413-.376-.367-.254.031-.081.32-.217.407-.729.082-.673-.194-.317-.07-.208-.389-.232-.065-.297.045-.167.127-.163.191-.126.3-.122-.272-.13-.102-.154-.077-.223-.007-.129.141-.576.082-.238.161-.3039.728.017.084-.134.083-.0051.372.123-.055-.132-.609-.725-.055-.138.1741-.392.012-.1749-.025-.1871.05-.143.193-.067.5881.0061L8.8,14.215l-.066-.19-.137-.25-.027-.21.032-.186.007-.375.027-.166.14-.249.1149-.074.143-.043.323.083.123.1.142.237.104-.019.402-.258.121-.037.1651.299.687-.238.923-.106.555-.157.584-.057.545-.179.578.082.02.104-.03.144Zm.507-1.217-.027.016-.103-.099-.168-.355.265-.071.125.044-.047.151Zm-.662-.284-.161.072-.159-.005-.248-.313-.094-.228.017-.151.104-.051.24.074.124.261.016.169.029.066.149.067Zm.302-1.277-.038.134.213-.003.309.114.187.014.156.142-.086.2651-.093.075-.105.015-.368-.265-.482.11-.096-.034-.063-.073-.026-.091V10.298l-.026-.0549-.175.176-.0759-.021-.043-.0841L13.45,10.14l.0191-.251.103-.359.173-.072.258.042.2959.203.089.125-.002.1Zm1.427-1.102-.317.006.164-.324.191-.082.361.036-.064.146Zm-.506.244-.241.136-.103-.112-.027-.352-.287-.151-.14-.094-.108-.178.027-.055.187-.073.32.323.1311.26.237.077.03.04ZM19.19,1.685l.058.401.145-.104.219.384h.112l.184-.152-.037.357-.191.987-.054.167-.036.299-.038.059-.056.603-.129.198-.108.472-.044.046-.158-.181.158-.721.065-.42-.042-.218-.089-.197-.242-.006-.204.091-.043-.116-.006-.156-.049-.052-.271.011-.08-.043-.053-.144-.01-.115.245-.09.23.034.336-.229-.21-.769-.279-.073-.064-.075.054-.131.153-.071.235-.393.141-.062.175.011Zm.746.135-.071.065-.274-.579.203-.665.246.021.039.174-.024.161-.125.014-.011.049.039.309.0021.358ZM20.688.114V.18l-.146.484.002.185L20.3091.831l-.037-.059-.044-.277.03-.295L20.291.123l.068-.031.074.058L20.55,0l.0611.003Z" fill="url(#radial-gradient)"/></g></g></svg>