<svg xmlns="http://www.w3.org/2000/svg" xmlns:xlink="http://www.w3.org/1999/xlink" width="18.788" height="9.454" viewBox="0 0 18.788 9.454"><defs><radialGradient id="radial-gradient" cx="9.394" cy="4.727" r="7.4361" gradientUnits="userSpaceOnUse"><stop offset="0" stop-color="#ffd496"/><stop offset="1" stop-color="#f29d25"/></radialGradient></defs><title>GE</title><g id="Layer_2" data-name="Layer 2"><g id="Layer_1-2" data-name="Layer 1"><path id="GE" d="M18.106,6.392l-.068.134-.161.243-.128.124-.142.02-.141.057-.049.13-.006.168.024.121.036.045.144.04.142.353.223.178.348.202.309.231.151.212-.029.154-.101.318-.258.265-.215.067-.076-.025-.14-.082-.283-.205-.307-.162-.236.053-.155.061-.307-.072-.363-.14-.189-.138-.083-.102.056-.181-.823-.327-.397-.091-.179.099-.605.492-.072.05-.462.068-.001.04.105.106-.02.033-.775.011-.258.064-.69-.083-.227.037-.194.077-.472.088-.326.103-.416.054-.429.005-.147.031.006-.071-.023-.109L9.61,9.059l-.122-.05-.224.019-.207-.053L8.91,8.837l-.034-.106.085-.086-.062-.071-.258-.17-.422-.425L7.98,7.884l-.095-.267L7.79,7.56l-.201-.025-.212.026-.046.03-.065.043L7.1,7.967l-.117.113-.286-.053L6.46,7.949l-.193-.044-.375-.028-.426-.006-.287.237-.124-.031-.218-.116-.352-.096L4.299,7.79l.538-.703.16-.419.005-.254.007-.32-.28-.666-.24-.948-.25-.992L4.044,3.19l-.815-.345L3.04,2.453l-.631-.507-.877-.221-.174-.094L.596.991,0,.578.128.328.298.064.482,0l.539.104.497.119L1.88.138l.431.208.394.238.396.168.772.159.288.219.336.219,1.317.111.106-.034.097-.032.442-.079.391.014.413.266.264-.016.282-.04.363.142.285.158.024.159.25.232.726.353.589.2.183.14.448.231.045.073-.009.095-.128.173-.032.153.06.089.186.084.368.019.133-.11.275-.079.273-.142.364-.189.495-.172h.198l.19.053.133.095.223.353.223-.494.057-.037.204.1.359.137.249.073.135.102.38.45.615-.023.26.069.14.074.062.087-.11.446-.152.464.013.111.246.175.336.184.18.148.123.133.265.101.313.062.148.008.155.112.403.209Z" fill="url(#radial-gradient)"/></g></g></svg>