<svg xmlns="http://www.w3.org/2000/svg" xmlns:xlink="http://www.w3.org/1999/xlink" width="8.317" height="10.233" viewBox="0 0 8.317 10.233"><defs><radialGradient id="radial-gradient" cx="4.1585" cy="5.1165" r="4.6622" gradientUnits="userSpaceOnUse"><stop offset="0" stop-color="#ffd496"/><stop offset="1" stop-color="#f29d25"/></radialGradient></defs><title>GF</title><g id="Layer_2" data-name="Layer 2"><g id="Layer_1-2" data-name="Layer 1"><path id="GF" d="M8.317,4.816l-.087.06-.234.132-.107.175-.063.169-.145.114-.139.145-.044.116-.129.093-.025.154-.327.544-.131.244-.188.26-.117.097-.159.154-.081.179v.185l-.111.221-.062.191-.105.111-.277.604-.014.208-.066.123-.197.288-.133.173-.233.13-.244.141-.092.154-.173.078-.126.005-.203-.056L4.03,9.981l-.139.018-.063-.076-.094-.175-.137-.125-.088.043-.185.125-.217.074L2.953,9.84l-.336-.086L2.474,9.71l-.043-.074-.05-.055-.074.024-.099.093-.132.096-.196.128-.403.229-.113.082-.104-.045-.171-.045-.182-.002L.514,9.992l-.23-.106-.1-.133L.068,9.696,0,9.659l.032-.025.102-.019.091-.002L.367,9.41l.234-.127.408-.703.172-.291.021-.159.048-.332-.091-.404.043-.113.35-.487.151-.266.009-.229.044-.165-.043-.086-.08-.025-.134-.214-.086-.177L1.175,5.45l-.163-.186L.745,4.836l.024-.24L.693,4.51.611,4.421l.006-.108-.056-.27L.493,3.791l-.026-.16.067-.274-.04-.304-.087-.16L.383,2.648.401,2.43l.074-.124L.46,2.153l.338-.487.257-.282.236-.198.199-.148.269-.74.195-.26L2.158,0,3.26.613,3.777.67l1.041.331.377.424.873.706.459.222.004.185-.1.294.294-.257.454.407.129.199.141.368L7.4,3.786l-.063.122-.003.095.135-.131.076-.103.023-.247.11-.306.148-.006.118.183.244.793.092.162.035.252-.013.112Z" fill="url(#radial-gradient)"/></g></g></svg>