<svg xmlns="http://www.w3.org/2000/svg" xmlns:xlink="http://www.w3.org/1999/xlink" width="12.436" height="18.039" viewBox="0 0 12.436 18.039"><defs><radialGradient id="radial-gradient" cx="6.218" cy="9.0195" r="7.7464" gradientUnits="userSpaceOnUse"><stop offset="0" stop-color="#ffd496"/><stop offset="1" stop-color="#f29d25"/></radialGradient></defs><title>GH</title><g id="Layer_2" data-name="Layer 2"><g id="Layer_1-2" data-name="Layer 1"><path id="GH" d="M8.911.145,9.09.316l.04.098L9.065.783l-.132.257-.083.242.012.12.08.121.273.189.139.123.166.186.19.182.325.237.138.043-.007.066-.045.091-.03.882-.025.228-.023.115-.031.329-.034.047-.061-.004L9.86,4.25l-.014.065.023.068.196.047-.043.05-.145.045-.068.099.03.113-.081.091.023.061.052.044.083-.016.229-.152.096-.016.119.031.219.232.009.113-.089.387-.087.299-.016.399.092.223-.013.123-.1.106-.226.154.017.105.103.196.191.218.373.27.196.351.005.143-.114.143-.135.124-.044.179.061,1.176-.295.51-.003.146.03.168.078.103.15.028.123.098-.043.358-.065.364-.011.177-.036.084-.117.068-.042.115.03.142-.022.105.062.136.135.169.216.42.082.033.038.089-.024.085.084.186.24.186.252.162.204.023.048.145.134.185.097.081.155.053.127.028.007.156-.23.106-.155.161-.118.245-.164.27-.564.14-.216.001-1.157.007-1.083.53-.624.189-.384.298-.516.212-.36.258-.749.123-1.227.404-.384.161-.388.281-.631.329-.249-.004-.494-.308-.372-.154-.91-.236-.679-.092-.328-.101-.09-.017.077-.111.19-.007.198.033.151-.084.221-.011.058-.089.018-.222-.002-.18.077-.08.02-.212-.109-.469-.077-.054L.79,15.575l-.03-.094-.071-.098-.076-.242-.086-.36-.139-.447-.267-.736-.066-.261L.01,13.072,0,12.755l.055-.118-.008-.164-.025-.164.188-.375.368-.46.077-.166.069-.115.01-.166.065-.536.176-.648.111-.245.075-.133.09-.216.023-.101.339-.255.156-.068.035-.101-.053-.109.023-.075.081-.037.125-.03.091-.105-.143-.801-.116-.799L1.805,6.7l-.068-.11-.068-.33-.115-.194-.16-.056.001-.182.161-.309.042-.18-.077-.054L1.51,5.144l.055-.227-.027-.14-.03-.148-.167-.351L1.3,4.029l.086-.145-.003-.318-.09-.491-.015-.31.062-.129-.03-.124-.122-.117-.009-.113.104-.111L1.27,2.085l-.129-.063L1.026,1.87.923,1.631l.021-.385L1.137.538,1.161.479,1.38.483l.001.03L2.062.506,2.84.498,3.769.489,4.614.481,4.651.449,4.791.41l.853.072L6.178.446l.226.023L6.57.517,6.938.488l.197.018.148.176.06-.001L7.426.606,7.573.52l.15-.067L7.831.314,7.896.209,7.993.23l.14-.006L8.226.136,8.263,0Z" fill="url(#radial-gradient)"/></g></g></svg>