<svg xmlns="http://www.w3.org/2000/svg" xmlns:xlink="http://www.w3.org/1999/xlink" width="8.414" height="2.145" viewBox="0 0 8.414 2.145"><defs><radialGradient id="radial-gradient" cx="4.207" cy="1.0725" r="3.0699" gradientUnits="userSpaceOnUse"><stop offset="0" stop-color="#ffd496"/><stop offset="1" stop-color="#f29d25"/></radialGradient></defs><title>GM</title><g id="Layer_2" data-name="Layer 2"><g id="Layer_1-2" data-name="Layer 1"><path id="GM" d="M.172,2.145.156,1.903,0,1.351.209,1.11.436.967l.153.114.046.225.118.154.402.096.397-.069.243.032-.007-.125.082-.166.483-.071.51-.047.525-.1.411.004L3.921.987,3.892.944,3.523.896l-.787.114-.801.034-.607.301-.249-.028L.827,1.016.737.645,1.448.618,2.31.63l.939.012.442.006L3.923.244,4.365.066,4.817,0l.236.017.248.06L5.778.41l.297.077.251.075.179.162L6.79.885l.224.043L7.147.904,7.369.842l.146-.05L7.991.771l.35.186.073.203-.058.208-.47.111-.651.174-.538-.095-.655-.237-.383-.17L5.5,1.082,5.261.974,5.052.858,4.851.782,4.697.734,4.583.795,4.526.939l-.091.16-.117.095-.549.056-.493.059-.264.05-.177.038L2.78,1.88l-.558-.005-.548-.006-.569.009-.611.009-.157.099Z" fill="url(#radial-gradient)"/></g></g></svg>