<svg xmlns="http://www.w3.org/2000/svg" xmlns:xlink="http://www.w3.org/1999/xlink" width="20.685" height="15.456" viewBox="0 0 20.685 15.456"><defs><radialGradient id="radial-gradient" cx="10.3425" cy="7.728" r="9.1293" gradientUnits="userSpaceOnUse"><stop offset="0" stop-color="#ffd496"/><stop offset="1" stop-color="#f29d25"/></radialGradient></defs><title>GN</title><g id="Layer_2" data-name="Layer 2"><g id="Layer_1-2" data-name="Layer 1"><path id="GN" d="M10.277.769l-.08.077-.083.167-.076.206-.077.138.027.09.219.18.307.252.125.033.143-.06.225-.2.179-.216.171-.105.201.007.16.152.195.336.178.305.023.031.072.05.09-.002.094-.074.069-.045.083-.14.347-.423.261-.116.093-.031.182-.064.303.1.439.174.533.211.187.036.11-.036.159-.286.198-.113.283-.132.23-.067.131-.009.05-.078L16.053,1,16.026.879,15.878.662,15.874.598l.085-.042.182-.032.237.022.267.094.217.135.124.161.135.344.104.334.268.53-.005.329-.006.381.12.072.13.03.061.056.13.293.123.085.147.02.276.187.177.074.025.056-.006.078-.069.098-.107.068-.159.128-.132.167-.272.401-.008.075.058.054.112.01.12-.028.25-.146.196.052.189.112.069.116.018.152-.043.197-.007.219.063.374.099.374.098.136.629.329.061.123.031.139-.045.189-.065.106-.18.165-.165.127-.052.139.026.259v.585l.025.507.136.183.162.094.192-.018.186-.034-.011.303-.05.339.22.105.112.103.061.097-.349.18-.101.105-.047.283.011.262.469.186.181.219.08.227.028.429-.042.098-.121.001-.136-.132-.101-.128h-.127l-.237-.029-.269-.05-.333.014-.118.021-.076.077-.02.135-.034.435.109.095.215.108.141.046.117-.013.09.07.019.187-.061.137-.118.128-.149.328.025.124.007.177-.255.48-.072.094-.337-.095-.219-.031-.159.121-.1-.076-.118-.111-.041-.146-.08-.031-.147-.001-.136.083-.06.151-.009.174-.021.134-.081.081-.165.211-.077.194-.096.169-.137-.01-.063-.024-.044.045-.213.094-.183.026-.048-.097-.107-.078-.119-.155-.135-.124-.258-.088-.102.04-.122-.011-.08-.049.011-.075.135-.189.077-.174.043-.19-.001-.182-.072-.255-.116-.203-.029-.117.014-.168-.027-.156-.038-.081-.018-.154-.036-.141-.069-.054-.038-.236.011-.243-.1-.091-.158-.067-.093-.096-.057-.105-.057-.031-.049.007-.044.065-.052.014-.092-.227-.038-.009-.064.052-.729.252-.032-.098-.061-.116-.14-.039-.241.087-.14.01-.216-.029-.096.041-.287.335-.172.131-.13-.011-.136-.03-.096.024-.071-.038.028-.082.07-.102.137-.365.352-.367.007-.078-.144-.214-.151-.293v-.314l-.029-.227-.311-.064-.057-.038-.008-.077.08-.203.095-.189.014-.079-.022-.071-.191-.2-.298-.371-.276-.411-.237-.352-.192-.161-.183-.233-.069-.148-.191-.053-.556.003-.669.004-.564.002-.033.2-.616.133-.38-.153-.422.09-.206.101-.064.212-.094.233-.09.096L6.87,8.64l-.052.095-.083.11-.092.219-.201.313-.211.202-.358.109-.112.329-.082.123-.138.095-.148.063-.136-.038L5.1,10.234l-.164.059-.028-.082.093-.261-.074-.135-.281-.271-.027-.13-.086-.169-.371-.349-.345.022.096-.292-.004-.388-.118-.212.03-.216-.064.013-.115.149-.186-.048-.378-.231L2.889,7.47l-.022-.191-.043-.074-.115.04-.236-.004-.721-.34L1.24,6.047l-.011-.193.073-.332-.017-.09-.235.22-.045-.148-.18-.343L.773,4.963.601,4.875.462,4.86l-.107.066-.141.401L.109,5.325,0,5.239l.023-.3.124-.148L.3,4.564l.464-.948.165-.217.105-.076.219-.009.428-.127.35-.209.175-.085.401.022.475-.036.619-.203.011-.28-.005-.358-.021-.142-.22-.128-.128-.111-.11-.141-.134-.101.005-.105.168-.091.106-.046.252.002.083-.052.063-.091L3.842.801,3.867.558,3.701.231,3.71,0l.909.033.092.025.406.04h.252l.155.017.065.053L5.577.265,5.533.393l.052.132L5.724.56,5.797.52,5.868.456,5.952.405l.119.034.255.195.237.053.258.106.243.059L7.28.844l.164.109.303.035.39-.139L8.445.788,8.876.773l.227.045L9.76.707l.328.025Z" fill="url(#radial-gradient)"/></g></g></svg>