<svg xmlns="http://www.w3.org/2000/svg" xmlns:xlink="http://www.w3.org/1999/xlink" width="1.743" height="1.802" viewBox="0 0 1.743 1.802"><defs><radialGradient id="radial-gradient" cx="0.8715" cy="0.901" r="0.8864" gradientUnits="userSpaceOnUse"><stop offset="0" stop-color="#ffd496"/><stop offset="1" stop-color="#f29d25"/></radialGradient></defs><title>GP</title><g id="Layer_2" data-name="Layer 2"><g id="Layer_1-2" data-name="Layer 1"><path id="GP" d="M1.309.802.979.834.762.809.712.601.823.425.743.211.794.084.905,0l.182.112.029.16L1.23.418,1.743.73Zm-.736.649-.227.13-.111-.04-.138-.25L0,.597.075.482.129.439.428.524.553.622.678.684.615.811l.031.521Zm1.008.34-.156.011-.069-.025-.021-.174.121-.12.071-.029.105.135.025.112Z" fill="url(#radial-gradient)"/></g></g></svg>