<svg xmlns="http://www.w3.org/2000/svg" xmlns:xlink="http://www.w3.org/1999/xlink" width="8.1419" height="7.8109" viewBox="0 0 8.1419 7.8109"><defs><radialGradient id="radial-gradient" cx="4.071" cy="3.9055" r="3.9891" gradientUnits="userSpaceOnUse"><stop offset="0" stop-color="#ffd496"/><stop offset="1" stop-color="#f29d25"/></radialGradient></defs><title>GQ</title><g id="Layer_2" data-name="Layer 2"><g id="Layer_1-2" data-name="Layer 1"><path id="GQ" d="M.847,0,.916.011,1.336,0,1.45.148,1.437.365,1.005.999l-.081.267-.167.227-.145.018L.114,1.378.03,1.297,0,1.189.049.936.086.859.325.811.402.77.53.498.572.2491.679.0611ZM8.1249,4.441l.003.646.003.546.003.591.003.616.003.521.002.337-.575-.002-.763-.002-.763-.002L5.2789,7.69l-.383-.001-.422-.001-.137.018-.093.085-.112.02-.13-.073-.159-.035-.042-.075-.079-.137-.157-.015-.079.015-.113.078-.127.041.024-.063-.251-.168-.181-.017-.167-.052.135-.438.169-.387.252-.293.134-.07.043-.145.2-.478.248-.387-.077-.392.059-.659.072.0191.011.062.019.092.093.082.308.127h3.135Z" fill="url(#radial-gradient)"/></g></g></svg>