<svg xmlns="http://www.w3.org/2000/svg" xmlns:xlink="http://www.w3.org/1999/xlink" width="24.0951" height="24.3091" viewBox="0 0 24.0951 24.3091"><defs><radialGradient id="radial-gradient" cx="12.0475" cy="12.1546" r="12.1012" gradientUnits="userSpaceOnUse"><stop offset="0" stop-color="#9b0400"/><stop offset="1" stop-color="#4c0200"/></radialGradient></defs><title>GR</title><g id="Layer_2" data-name="Layer 2"><g id="Layer_1-2" data-name="Layer 1"><path id="GR" d="M18.732.1141l.251.076.146.1229.091.1131.1389.0969.1041.022.08.3331.042.4119-.063.178-.185.041-.578.388-.014.355.008.171.012.122.061.102v.147l-.064.158-.2521.264-.1749.209-.196.284-.11.035-.087.05-.079-.156-.435-.277-1.007-.162-.481-.205-.211.038-.409-.229-.28.1011-.594.407-.321-.044-.343-.245-.223-.045-.2621.1289-.419.468-.427.229-.382-.0889-.514.002-.055.261.099.181.281.308-.132.231.098.2309.183.047.277-.013.511.299.224.315.143.344-.312-.247-.207-.238-.289-.086-.401-.203-.252-.034-.268.141-.021.159.289.297.264.183.14.148.093.329-.053.111-.098.104-.313-.207-.479-.737-.668-.147-.112.154.132.39.095.151.581.42-.046.089-.0851.0379-.65-.24-.189-.365-.045-.463-.6-.322-.566-.3511-.127-.333.117-.124.083-.2449-.3109.045-.195.155-.315.15-.013.246.05.228-.104.331-.102.575.0641.301.684.861.234.6239.168.236.35.26.365.483.154.2511.11.411-.307.254-.178.01-.099-.112.138-.28L9.87,9.15l-.474-.265-.2.089-.2311.172.1321.32.148.211.075.29.284-.025-.382.325-.359.166-.3531.01-.2249.03-.0781.083.183.06.149.006.243.175.691.209.33.265.324.024.325.485.563.129.321.489.426.096.368.18.107.171.054.31.024.655.08.486.003.153-.02.229-.1.112-.135.004-.2651-.357-.405-.376-.428-.448-.122-.079-.1-.007-.229.151-.636.117-.298.164-.112.036-.031.086.14.089.171.205v.279l.142.339.183.087.238-.007.137.063.035.135.139.157.091.117-.003.083-.665.221-.139.101-.117.052-.1729-.105-.01-.27-.2281-.145-.209-.125-.2509-.053-.213-.187-.139.151.111.524.241.36.404.964.183.567.037.274-.091.4549.199.3371.1359.346-.1489-.013-.13-.122-.2181-.1441-.422-.553L8.8,17.918l-.1761-.027-.306.05-.334.737.001.421-.173-.1-.148-.131.018-.461-.015-.194-.406-.63-.186-.071-.0869-.213-.15-.228-.193.043-.158.092-.043.344-.016.308-.118.231-.433-.439-.4359-.762L5.43,16.47l.3189-.383-.038-.274-.302-.542-.436-.349-.244-.104-.115-.372-.2329-.192-.1891-.09-.037-.132.0571-.098.458-.383.268-.602.133-.028.2739.143.308-.037.252-.353.214-.1919.3611.0249.815.4711.8759.269.437.235.248.233.131.048.208.033-.0089-.1741-.066-.154.1729-.084.469.004.0851-.082.0869-.132-.0969-.151-.1551-.072-.166-.02-.109-.048-.177.048-.275-.117-.143-.0961-.083-.099-.479-.1969-.454-.3341-.1031.189-.184.102-.261.015-.734-.212-.451.162-.2459.042-.188.004-.231.072-.2671.043L4.9,12.197l-.097-.239-.068-.045-.0029.225-.074.18-.339.101-.195-.14-.15-.423-.1891-.539-.333-.436-.271-.1141-.023-.24.024-.1919.325-.048.508.2009.105-.04.114-.093-.022-.2049-.0739-.1831-.14-.0079L3.9008,9.98l-.313-.0379-.401.1019-.186-.096-.062-.117-.336-.289-.29-.388-.47-.259-.307-.792-.258-.346-.275-.248.06-.004.104.042.2.136.212.029.116-.09.067-.083.0431-.136.018-.159.0349-.053.1631.019.052-.04-.002-.143-.105-.178-.092-.219v-.104l.077-.042.127-.095.068-.118.135-.059.199-.011.222-.052.144-.127.021-.125.09-.346.059-.17.095-.155.051-.209.102-.197.212-.083.192-.097.145-.254.082-.217v-.133l-.122-.218-.09-.212.0239-.276.381-.023.133-.026.495-.015.226-.148.156.014.326.128.146-.1011.426-.2.4211-.582.179-.087.409-.036.128-.067.149.013.458.118.26.018.309-.0809.34-.142.085-.499.081-.072.211-.02.16.004.308.04.366.013.235-.234.371-.017.172-.034.287.047.279-.002.357-.098.333-.161.26.014.106-.029.06-.034.065-.217L12.8739.8l.166.021.273.006.284-.119.085.01.1431.318.075.092.154.085.3439.238.0621-.063.1439-.08.412.109.393.183.33.2691.367-.078.4069-.132.2651-.038.288-.019.171-.057.389.069.401-.145.193-.13.056-.184L18.244.832,18.153.508l-.096-.12L18.026.264l.055-.116.062-.08L18.405,0Zm-4.3409,4.091-.36.131-.3661-.249.003-.148.193-.301.106-.089.269.024.153.207.036.098-.05.166Zm2.5589.694-.318.096-.35-.303L16.62,4.57l.1569.088.112.104Zm-.6969,1.622-.1061.1229-.0789.212-.042.3031-.164.0069-.099-.061L15.73,6.99l-.0059-.145-.0721.006-.0579.157-.0511.071-.1649.015-.1811-.097.009-.209-.036-.243.016-.085.495-.021.145.179.175-.104.072-.112.212-.07ZM1.211,8.5221l.061.203-.35-.126-.255-.181-.211-.449-.449-.511L0,7.3091l.171-.113.369-.08.149.083.096.086.03.098-.209.196-.0431.089.1611.176-.0021.071.0671.341.0789.128.203.103Zm17.771.373-.049.214.388.355.132.225.049.218-.033.063-.147-.118-.121-.038.0411.156.124.134-.22.077-.22-.004-.6439-.187-.148-.1991.385-.299.078-.121-.272.012-.291.355-.466-.156-.143-.143-.032-.077.184-.316.328.011.173-.071.215-.1.002-.15.5121-.034Zm-7.0779.618-.131.042.131-.288.2319-.149-.0869.242Zm-.3041.158-.125.122-.1939-.053-.203-.408Zm-1.022.56.159.39.149.131.312.155.147.02.533.28.619.056.08.081.076.215.126.169.032.131-.066.146.091.445.156.422.235.204.293.062.279-.009.07.084-.028.368-.118.1441-.096.035-.083-.038-.076-.086-.082-.041-.16-.007-.117-.148-.297-.203-.055-.122-.01-.187-.126-.138-.116-.262-.11-.073-.061-.132-.005-.056-.432-.039-.357-.001-.303-.149-.094-.391-.18-.105-.135-.111-.112-.154-.284-.283-.314-.237-.304-.157-.322-.103-.2621.121-.153-.028-.031-.082.326-.163.448-.312.315-.103.153-.013Zm3.534.537-.296.087-.079-.014.066-.11.005-.046-.296-.202.0349-.262.035-.067.22.137.048.228Zm-11.192.718-.109.028-.094-.019-.085.016-.083.068.009-.283.097-.353.1179-.206.167-.096.071.162-.013.576Zm15.175,1.393-.268.2009-.299-.2909-.049-.094.22-.118.109-.181-.088-.223-.305-.33-.015-.234.4669-.099.2751.204.14.014-.054.195.024.063.0209.59-.13.083-.021.162Zm-14.974-.396-.1389.039-.1761-.341-.064-.236.074-.013.07.027.074.089v.091l.03.098.077.117Zm-.41-.192.035.412.198.077.263.37-.022.189-.055.065-.436-.175-.104.079-.127-.032-.079-.205.009-.072-.071-.123-.06-.055-.171.163-.108.03v-.149l.159-.41.074-.069.13.135.107-.05.081-.222.005-.221.037-.065Zm8.247,1.626-.111.087L10.722,14l-.089-.032-.044-.07.055-.033.065-.141.06-.038.089.018.055.057Zm4.043.588-.083.237-.219-.276-.24-.189-.09-.166-.146-.1-.04-.223.177-.091.076-.009.182.271.284.031-.0219.167.09.215Zm-11.515-.161.296.344-.239-.085-.254.238-.322-.278-.193-.282-.043-.113.202-.264.188.2709.228.043Zm16.659-.022.345.117.096-.013.163.042.0431.214-.2161.031-.374.197-.159-.043-.19-.171-.302-.018-.089-.047.162-.202.294-.102Zm-6.928.828-.1879.171-.032-.257.1209-.271.165-.017.061.119Zm2.526-.08-.104.228-.1749-.035-.2931-.245-.1-.111-.0549-.109.12-.013.147.116.375.061Zm2.17.248-.131.014.04-.141.251-.245.352-.012.32-.123.072-.004L18.664,15l-.258.18Zm-1.758.388-.269.022.016-.269.1-.07.322.134-.016.084Zm-1.29-.262-.014.365-.074-.003-.043-.056-.002-.14.0319-.22Zm-1.4241.525-.16.107.0529-.244-.0789-.127.07-.108.103-.087.048.09.092.146Zm.246.77-.104.053-.173-.077.0461-.192.12-.082.1271.063.0189.087Zm2.87.552-.25.132-.171-.191-.095-.301.458-.442.11.04.066.114-.01.397Zm-.749-.353-.223.27-.186-.029-.078-.124.115-.254.2491-.144.1129.038-.011.188Zm4.8851.382-.28.048.05-.278-.137-.219.218.1229.139.1481.068.028-.016.089Zm-6.4511.132-.051.015-.074-.147-.015-.137.029-.081.097-.008.132.261Zm3.194.457-.248.0289-.0789-.026.151-.06.105-.064.051-.077.251-.136.1649-.178.179.121-.224.081Zm3.06.221-.0869.004.104-.168.296-.231.431-.204.143-.022.243.126-.446.209-.119.11-.329.024Zm-4.4.185-.049.055-.212-.22-.081-.128.101-.107.3121.25Zm-2.374-.313.0051.205-.02.073-.5739.099.0529-.235.035-.074.19.109.07-.056.028-.064Zm9.33.731-.061.055-.141-.159-.007-.083.144-.0951.072-.022.021.065-.002.1391Zm-3.928-.109-.222.083-.141.175-.1719-.124V18.59l.1879.052.1321-.095-.04-.107.144.05Zm-2.745.67-.13.183-.184-.065.075-.069.044-.09.005-.13-.05-.08.034-.029.164.134Zm6.6241,1.603-.2021.073-.07-.009-.084-.16.117-.386-.1079-.249-.0071-.105.164-.146.1141-.219.278-.237.721-.281.169-.026-.005.22-.241.556-.214.278.057.222-.343.062Zm-13.44-.9-.033.15-.289-.103-.08-.155-.015-.344.076-.168.05-.053.133.194.279.283Zm11.569,2.497-.107.193-.109-.163.047-.188-.126-.297.239-.442.0051-.215.1829-.11-.0449.365-.14.292.1451.243.0689.276Zm-9.328-.241.192.025.26-.004.0591-.021.166-.201.204-.004.0889.198-.2069.091-.042.052.04.042.155.083.216-.031.006.156.048.127.106.076.116.015.255-.022.251-.05.259-.1.265-.051.791.051.284.216.541.026.502.114.264-.075.451-.07.072.076-.058.487.028.142.13.068.128-.033.158-.16.378-.123h.3921l.331-.324.0969-.019-.0609.159-.05.374-.07.219-.032.172-.221.089-.333.015L17.3552,24l-.6141.061-1.137.164-1.139.084-.153-.055-.003-.217-.0239-.15-.074-.105-.352-.09-.336-.154-1.317-.21-.311-.083-.504.043-.185-.006-.127-.075-.0881-.13-.04-.413.063-.409.109-.108.05.123.129.057.12-.124-.001-.188.061-.174.0949.073.063.268Z" fill="url(#radial-gradient)"/></g></g></svg>