<svg xmlns="http://www.w3.org/2000/svg" xmlns:xlink="http://www.w3.org/1999/xlink" width="32.997" height="22.751" viewBox="0 0 32.997 22.751"><defs><radialGradient id="radial-gradient" cx="16.4985" cy="11.3755" r="14.1704" gradientUnits="userSpaceOnUse"><stop offset="0" stop-color="#ffd496"/><stop offset="1" stop-color="#f29d25"/></radialGradient></defs><title>GS</title><g id="Layer_2" data-name="Layer 2"><g id="Layer_1-2" data-name="Layer 1"><path id="GS" d="M2.564.3881,2.837.62,3.054.462l.225.019.123.078.126.03L3.686.59l.272.3921-.114.3469.298-.068.259.289.118-.023.059-.117.167-.1339.115.18L5,1.801l.177.105.156.365.123.462.112.066L5.76,2.8l.195-.063-.074.4.023.354.322.255-.192.141-.202.2039-.411.157-.107-.066L4.955,3.827l-.167-.4181-.377-.596-.074-.175-.097-.112-.341-.072-.3-.143-.25-.3-.078-.184-.096-.128-.339.007-.214-.141-.211-.192L1.458.8189l-.374.056L.912.7189.921.442,1.118.277.293.214,0,.115.202.055,1.352.046,1.783,0l.038.119.381.245ZM32.985,22.445l.012.306-.436-.28-.101-.132.14-.171.274-.006.0669.104Z" fill="url(#radial-gradient)"/></g></g></svg>