<svg xmlns="http://www.w3.org/2000/svg" xmlns:xlink="http://www.w3.org/1999/xlink" width="11.245" height="11.828" viewBox="0 0 11.245 11.828"><defs><radialGradient id="radial-gradient" cx="5.6225" cy="5.914" r="5.7701" gradientUnits="userSpaceOnUse"><stop offset="0" stop-color="#ffd496"/><stop offset="1" stop-color="#f29d25"/></radialGradient></defs><title>GT</title><g id="Layer_2" data-name="Layer 2"><g id="Layer_1-2" data-name="Layer 1"><path id="GT" d="M8.626.005l-.027.71-.031.822-.023.603-.031.804-.031.821L8.44,4.882l-.027.72.013.017.335-.035.495.032.121-.002.151.062.117.019.252.162.295.123.189-.248-.099-.149-.075-.076.012-.067,1.026.642-.121.099-.261.228-.474.391-.424.349-.409.316-.367.285-.044.028-.466.204-.078.093-.1.402-.046.1L8.54,8.8l.084.344-.027.181-.322.221-.148.199-.065.129-.058-.033-.1-.01-.23.05-.112.011-.092.057-.01.124.062.201.022.103-.065.048-.284.121-.112.119-.107.184-.124.078-.13-.014-.092.027-.197.139-.296.268-.158.199-.004.148.031.134-1.078-.472-.358-.081-1.514.01-.649-.186-.739-.358-.501-.326L0,9.502l.073-.074.062-.17.076-.176L.164,8.879.136,8.715l.087-.24L.215,8.296l.04-.111.128-.072L.45,7.976.086,7.504l.001-.108.048-.133.294-.505L.78,6.157l.386-.664.233-.4.849-.001.562-.001h.714l.775-.001h.509l.21-.005-.036-.26.028-.288.092-.261V4.161L4.95,4.019l-.293-.082-.164-.125-.001-.158-.071-.191-.143-.225-.295-.23-.449-.236-.382-.316-.315-.397-.266-.255-.206-.107-.048-.056.601.004.568.005.004-.57L3.493.574,3.497,0l1.03.001L5.758.002,7.034.004,8.036.005Z" fill="url(#radial-gradient)"/></g></g></svg>