<svg xmlns="http://www.w3.org/2000/svg" xmlns:xlink="http://www.w3.org/1999/xlink" width="8.528" height="4.959" viewBox="0 0 8.528 4.959"><defs><radialGradient id="radial-gradient" cx="4.264" cy="2.4795" r="3.4878" gradientUnits="userSpaceOnUse"><stop offset="0" stop-color="#ffd496"/><stop offset="1" stop-color="#f29d25"/></radialGradient></defs><title>GW</title><g id="Layer_2" data-name="Layer 2"><g id="Layer_1-2" data-name="Layer 1"><path id="GW" d="M8.3711.02l-.009.231L8.528.578,8.5041.821l-.072.23-.063.091-.083.053-.252-.002-.106.046-.168.09-.004.106.134.101L8,1.677l.128.111.22.128.0209.142.0061.358-.012.28-.619.203-.475.036-.402-.022-.175.085-.35.209-.427.127-.219.009-.105.076-.166.217-.463.948-.153.227-.124.148-.142-.201.11-.372-.1189.005-.236.301-.115.009.015-.356-.131-.013-.152.025-.212-.186-.021-.139.017-.194.129-.124L3.81,3.662l-.125-.015-.14.033-.086-.059.142-.252.496-.211.249-.022.2561-.048-.14-.1821L4.159,2.834l-.242.05-.121.1311-.149.022-.25-.309.004-.155.093-.184.145-.083.575.002.218-.104.088-.019.083-.094-.018-.063-.094-.003-.215.123-.692-.046-.221.074-.385.283-.474.156L2.16,2.549l.11-.379-.049-.051-.108-.063-.504.121-.381-.173-.151-.209.026-.263.18-.178.028-.089-.19-.017-.35.111L0,.929.154.902l.38.045L.829.893,1.037.802,1.32.677,1.593.636l.855.056.743-.15L3.743.26l.51-.26.661.003.708.003L6.6291.01l.798.003ZM2.0371,2.28l-.146.349-.18-.039-.126-.208-.014-.0881.366-.028Zm1.215.982-.026.066-.16-.056.233-.24.152-.042-.005.184-.117.039Zm-.978.203-.132.089-.136-.042-.073-.08.011-.143.154-.202.138.026Zm.496.712v.117l-.119-.022-.035-.035.071-.211.104-.094.128.015.038.028-.025.081-.056.067Zm-1.092.444-.225.042-.102-.141-.015-.055.117-.047.053-.002.089-.103.11-.068.0491-.022.057.005.041.226-.054.095Zm.613-.066-.026.079L2.1,4.622l.037-.08L2.101,4.519l.047-.24.025-.037.08.089.011.037Z" fill="url(#radial-gradient)"/></g></g></svg>