<svg xmlns="http://www.w3.org/2000/svg" xmlns:xlink="http://www.w3.org/1999/xlink" width="13.774" height="20.573" viewBox="0 0 13.774 20.573"><defs><radialGradient id="radial-gradient" cx="6.887" cy="10.2865" r="8.7534" gradientUnits="userSpaceOnUse"><stop offset="0" stop-color="#ffd496"/><stop offset="1" stop-color="#f29d25"/></radialGradient></defs><title>GY</title><g id="Layer_2" data-name="Layer 2"><g id="Layer_1-2" data-name="Layer 1"><path id="GY" d="M11.776,8.431l-.149.176L11.6,8.72l-.096.199-.075.108.109.248.124.011.048.032.031.048-.007.053-.048.047-.119.06-.113.143.011.158-.071.082-.228.044H10.72l-.218.011-.175.027-.115.102-.146.072-.115.016L9.85,10.3l-.101.168.034.116.104.153.061.157-.08.255-.088.197-.052.15-.071.288-.171.318-.122.18v.197l.062.278.349.406.116.194.095.311.315.245.199.198-.019.261.027.082.123.066.15.05.165-.004.148-.022.034-.037.342-.005.039.066.02.376.014.153.081.061.049.094.003.084.015.211.051.111-.008.224.035.083.095.056.119.161.045.02.023.057.102.229.052.069.036.01.016.08.074.214.05.053.095.157.039.172.126.194.129.136.058.141.165.311.16.219.216.057.181.031.113.084.111.091-.119.042-.107.056-.149-.043-.206.023-.214.062-.198.03-.373-.098-.113-.014-.078-.042-.154-.193-.074-.023-.198.09-.241.063-.118-.012-.139.065-.129.087-.246.377-.127.133-.136.061-.273-.002-.292.014-.219.091-.204.046-.102.006-.035.207-.047.096-.064.055L9.26,19.7l-.143-.007-.086-.086-.161-.043-.143-.031-.092-.049-.075.012-.062.086-.049.074-.043.136-.217.043-.093.077.054.253-.025.099-.045.077-.262.015-.223-.005-.128.093-.16.109-.097.02-.115-.006-.151-.127-.146-.155-.37-.109-.367-.09-.241-.247-.057-.121-.113-.054-.286-.293-.158-.188-.171-.051-.196-.078.008-.137-.013-.131-.085-.054-.118-.035-.043-.074.012-.172.023-.445-.033-.425-.263-.147-.114-.101-.2-.629-.094-.283-.004-.211.066-.628.075-.272.204-.545.117-.185.007-.138-.012-.177-.06-.35.344-.221.148-.093.025-.148.184-.187.082-.178.068-.14-.019-.074-.08-.043-.095-.133-.199-.384-.072-.078-.061-.108.031-.169.078-.185-.01-.077-.119-.099-.246-.166-.204-.012-.158-.06-.232-.008-.185-.018-.106-.062.022-.102.046-.078.156-.194.104-.206.014-.202.032-.265.045-.231.024-.26-.245-.171-.078-.141-.101-.125H3.393l-.168-.053-.262.164-.207-.03-.142.062-.328-.013-.211-.08L1.821,9.4l-.595-.659L.628,8.078.039,7.426,0,7.337l.246-.311.22-.223.183-.127.087-.111-.067-.48.004-.172L.587,5.725l-.061-.21.073-.176.089-.122.115-.048.274-.042.194-.018.069-.07.112-.081L1.6,4.953l.288.057.132-.106.239-.144.536-.247.12-.162.084-.25L2.99,3.982l-.055-.044-.133-.041-.204-.006-.163.065L2.266,3.92l-.14-.154-.008-.128.083-.18-.048-.12-.268-.38.001-.105.195-.171.11-.145.151-.348.12-.116.373-.041.095-.074.19-.184.284-.21.408-.168.117-.305.073-.084.325-.16L4.384.761,4.376.685,3.854,0l.104.046.404.448.224.097.047.002L4.635.477l.206.048.53.307.777.505,1.091.954.31.363.209.171.324.416.095.202-.009.809-.288.546-.07.411-.015.547-.167.313.221-.17.069-.493.189-.3.245-.329.327-.079.352.14.284.025.25.097.532.526.52.416.19.333.551.167.326.263.105.228.064.594-.106.898Z" fill="url(#radial-gradient)"/></g></g></svg>