<svg xmlns="http://www.w3.org/2000/svg" xmlns:xlink="http://www.w3.org/1999/xlink" width="1.3931" height="1.116" viewBox="0 0 1.3931 1.116"><defs><radialGradient id="radial-gradient" cx="0.6965" cy="0.558" r="0.6311" gradientUnits="userSpaceOnUse"><stop offset="0" stop-color="#ffd496"/><stop offset="1" stop-color="#f29d25"/></radialGradient></defs><title>HK</title><g id="Layer_2" data-name="Layer 2"><g id="Layer_1-2" data-name="Layer 1"><path id="HK" d="M1.199.072l.01.013L1.27.198,1.251.324l.1141.061.028.125-.126.067L1.26.723,1.204.813.842.653.5441.57.2751.603.1771.509.16.412.47.244.494.16.502.153.592.067.726.042.796,0H.979l.112.033ZM.446,1.07H.108L.036,1.04,0,.976.12.86.576.7.462.868Zm.657,0-.0689.046L.842.896.83.824.978.811l.167.1-.01.091Z" fill="url(#radial-gradient)"/></g></g></svg>