<svg xmlns="http://www.w3.org/2000/svg" xmlns:xlink="http://www.w3.org/1999/xlink" width="17.4109" height="10.1941" viewBox="0 0 17.4109 10.1941"><defs><radialGradient id="radial-gradient" cx="8.7055" cy="5.097" r="7.1332" gradientUnits="userSpaceOnUse"><stop offset="0" stop-color="#ffd496"/><stop offset="1" stop-color="#f29d25"/></radialGradient></defs><title>HN</title><g id="Layer_2" data-name="Layer 2"><g id="Layer_1-2" data-name="Layer 1"><path id="HN" d="M9.7959.153l-.214.168L9.5429.245l.103-.156L9.7749,0,9.9.009,9.87.076ZM8.2549.395l-.45.2269L7.6639.618,7.87.443l.333-.15.282-.074.231.032Zm9.156,4.013-.723-.043-.341.0889-.149.201-.128.09-.107-.021-.217.079-.327.1781-.294.0669-.263-.043-.076.043-.021.059-.04.057-.102.03-.117-.016-.131-.0629-.069.027-.008.116-.071.031-.134-.055-.151.042-.168.139-.236.029-.304-.08-.235-.151-.167-.222-.2-.056-.35.165-.146.193-.032.118.034.107-.064.071-.163.036-.1239.131-.084.2261-.017.1749.051.123-.081.09-.213.058-.251.195-.29.332-.288.231-.287.131-.138.146.01.16-.018.05-.055.019-.093.0221-.553-.348L9.321,7.123l-.137.037-.174.123-.245.273-.262.372-.127.042-.655-.056-.346.033-.071.049-.032.136.02.182.095.654.053.269-.052.083-.176.013-.229.038-.125.123-.03.127-.012.177-.072.183-.141.1311-.14.047-.781.035.014-.302-.225-.123-.128-.252-.112-.17.037-.1019-.011-.121L4.939,9.03l-.297.073-.171-.048-.126-.064.217-.149.015-.091-.07-.065-.071-.044.021-.169.044-.2.122-.467-.045-.082-.199-.141-.252-.014-.278.044-.134-.072L3.598,7.38,3.4,7.303l-.351.128-.372.193-.114.07-.094-.009L2.427,7.54l-.019-.171-.023-.0419-.198-.061L1.956,7.222l-.118-.047-.111-.1159-.277-.151-.063-.112L1.017,6.54.942,6.413.857,6.32.679,6.202.54,6.23.071,6.083,0,6.07l.065-.129.148-.199L.535,5.52l.027-.18-.084-.344-.085-.223.046-.1.101-.402.078-.093.466-.204.043-.0281.368-.285.408-.316.424-.349.474-.391.261-.229.121-.099.273.081.215-.185.124-.062.291-.221.09-.048.486-.091.235.002.206.225.163.123.307-.105.257-.023,1.063.209.422-.092.775-.02.349.052.492-.295.316-.06.371-.138-.049-.142L9.48,1.423l.566.062.843.3.898-.054.324-.162.209-.046.92.3081.242.237.189.023.147-.054.04-.049-.181-.052-.083-.074.725.146,1.364,1.117.028.091-.583-.33-.308.025-.081.053.018.18.028.084.132.01.098-.049.241.059.16.12.193.184.116.199.125.003.123-.12.232-.0151.15.1341.107-.008-.149-.2081-.351-.207.083-.009.778.371.22.4661.183.105Z" fill="url(#radial-gradient)"/></g></g></svg>