<svg xmlns="http://www.w3.org/2000/svg" xmlns:xlink="http://www.w3.org/1999/xlink" width="16.5197" height="16.0881" viewBox="0 0 16.5197 16.0881"><defs><radialGradient id="radial-gradient" cx="8.2599" cy="8.0441" r="8.1527" gradientUnits="userSpaceOnUse"><stop offset="0" stop-color="#ffd496"/><stop offset="1" stop-color="#f29d25"/></radialGradient></defs><title>HR</title><g id="Layer_2" data-name="Layer 2"><g id="Layer_1-2" data-name="Layer 1"><path id="HR" d="M8.4237.1371l.151.061.5.278.346.313.192.347.26.268.328.19.26.257.192.324.269.182.3449.039.218.111.092.183.188.165.283.148.4391.081.8419.02.075.004.19.046.2219-.058.271-.115.087-.069.284-.378.157.033.312-.046.189-.084h.014l-.012.097-.021.169-.153.119.155.2749.148.4461-.083.22.101.171.284.1229.026.049-.087.051-.072.145-.008.264.248.25.504.234.161.0391.0621.09.0839.059.05.072.003.093-.037.064-.239.022-.272-.002-.1939-.113-.018.083-.003.094-.188.057.104.647-.042.186-.069.063-.064-.026-.079-.007-.039.061.033.138-.185.016-.294-.071-.135-.125-.023-.127-.002-.119-.094-.195-.234-.202-.489-.033-.181-.064-.1871-.073-.2039-.055-.188.005-.227.054-.396-.089-.134.119-.208.137-.173-.003-.344-.318-.103-.02-.301.162-.123.009-.094-.051-.407-.122-.184-.026-.135.058-.239-.062-.58-.417-.359.317-.73-.079-.217.217-.248.411-.201.196-.175-.07-.2069-.181L7.05,5.404l-.183-.084-.21-.02-.183.052-.098.094-.0751.679-.0659.597-.0041.357.402.33.475.567.152.065.076.185.111.4769.125.535.241.354.217.2521.265.2219.333.347.272.381.072.14.529.502.513.511.458.1789.072.094.0041.392.05.147.3061.41.625.599.072.138.021.102-.04.078-.164.082-.134-.091-.5819-.584-.563-.369-.635-.696-.85-.276-.579-.306-.351.046-.387.096-.239.003-.17-.055-.12-.19.018-.147-.021-.191-.339-.307-.463-.292-.438-.378-.88-1.024-.177-.331.173-.063.131.0061.148-.068L5.2,8.95l.2839.0669-.2509-.22-.313-.216-.81-.86L3.868,7.313l-.028-.44.06-.604-.146-.434-.625-.563L2.9,4.975l-.461-.177-.207.017-.124.22-.09.488-.409.642-.1359.278-.214.361-.186.025L.964,6.797.632,6.189.315,5.727.271,5.508l-.029-.27L0,4.241l.17-.14.105.16.739.1929.16-.0849.0969-.1311v-.083l.063-.0239.26.126.212-.029.342-.006.244.021.162-.097.218-.357.081-.2.098-.048.0641.0239.047.165.1149.154.2361.251.167.1211.151.043.148-.1011.153-.029.438.1961.37.0369L5.113,4.3l-.036-.141-.1-.157L4.956,3.85l.018-.1319.188-.1311-.009-.058-.227-.231.011-.06.497-.2609.479-.146L5.99,2.718l.044-.17.021-.319-.026-.2609-.194-.245-.012-.124.046-.129.076-.117.192-.05.225-.084L6.54,1.122l.24-.08L6.9691.93l.185-.267.112-.044L7.605.657,7.678.591,7.631.207,7.692.109l.12-.055L7.868,0l.2991.042Zm-4.787,6.104-.346.085-.165-.152-.043-.125-.285-.04-.172-.173-.0349-.077.244-.191.13-.309.165.186.2.349.107.097Zm-.905,1.25-.022.152L2.54,7.45l-.086-.346-.215-.561-.028-.158.111-.156-.006-.159-.1519-.494.127-.081.076-.01.031.343.0689.197.207.242-.042.399.042.567.042.126Zm.964-.389.071.174-.264-.157-.237-.06-.05-.118.034-.097.051-.094.179.013.027.092Zm1.002,1.661-.072.104-.182-.191-.167-.136-.119-.162-.2341-.202-.0789-.231-.349-.472-.052-.1279.174.191.145.12.12.029.304.3009.299.386.356.335-.0739.01Zm.001,1.611.04.057-.004.039-.146-.055-.039.018-.687-.849-.074-.166.246.198Zm.118-.544.044.137-.35-.258-.133-.173-.0239-.078Zm.394.344.185.289-.177-.06-.184-.178-.108-.194Zm3.968,2.716-.443.01-.385-.07-.188-.119.014-.101.058-.168.429.02.653.119.16.139-.05.064Zm1.147.556-.196.04-1.249-.03-.363-.08-.404-.205-.082-.063.406-.06.378.06.1161.149,1.021.119Zm1.329.875.204-.07.173.051.11.218.2169.144.3531.252.223.193.505.346.12.048.252.103.005.14.108.159.114.183-.518-.36-.483-.403-.945-.622-.67-.151-.917-.501-.5969-.178.228-.041.262-.001,1.414.669Zm-2.853-.38.519.107.38-.049.344.066.214.121.051.06-.277.008-.314-.0491-.356.123-.3141-.065-.119-.081-.084-.1Zm2.686.868.383.261-1.123-.343.1271-.031.119-.007Z" fill="url(#radial-gradient)"/></g></g></svg>