<svg xmlns="http://www.w3.org/2000/svg" xmlns:xlink="http://www.w3.org/1999/xlink" width="7.95" height="6.064" viewBox="0 0 7.95 6.064"><defs><radialGradient id="radial-gradient" cx="3.975" cy="3.032" r="3.5351" gradientUnits="userSpaceOnUse"><stop offset="0" stop-color="#ffd496"/><stop offset="1" stop-color="#f29d25"/></radialGradient></defs><title>HT</title><g id="Layer_2" data-name="Layer 2"><g id="Layer_1-2" data-name="Layer 1"><path id="HT" d="M5.09.167l.114.069L5.161.32,4.878.268,4.585.173,4.489.196,4.43.184,4.259.093l.15-.07L4.564,0l.17.005Zm2.483.947.062.088.129.597.013.191-.13.288.019.114.279.266.005.096-.033.097-.238.252-.183.172.058.198.148.188.019.157-.045.207-.227.257-.119.092-.338.011-.038.037.168.251.19.284.311.22.069.207-.075.196-.013.484-.238-.235-.261-.196-.157-.076-.163-.049L5.54,5.533l-.14.034-.108.063-.116.031-.342.059-.34.013-.795-.158-.315-.082-.317-.052-.364.017-.362.048-.29.114-.217.201-.041.187-.128.048-.293-.297-.27-.211L.795,5.389.166,5.162.051,5.024,0,4.857l.254-.514.289-.094.159-.018.357.063.349.117.318.076.493.03.268.126,1.893.196.359.062.14-.021.122-.077.102-.139L5.22,4.56l.561-.023.118-.047.082-.145-.002-.151-.33-.202-.5159-.444L4.679,3.025l.1961-.177L4.8,2.525l.0741-.299.108-.293-.45-.251L4,1.431l-.737-.079-.227-.063-.118-.188L3.024.849l.239-.14L3.537.623l.281-.06L4.495.491l.672.081.581.26.59.204.745.068.335.074ZM4.696,3.893l-.0491.208L3.929,3.854l-.582-.312.0249-.169.297-.039.285.104.421.208Z" fill="url(#radial-gradient)"/></g></g></svg>