<svg xmlns="http://www.w3.org/2000/svg" xmlns:xlink="http://www.w3.org/1999/xlink" width="19.038" height="11.525" viewBox="0 0 19.038 11.525"><defs><radialGradient id="radial-gradient" cx="9.519" cy="5.7625" r="7.8682" gradientUnits="userSpaceOnUse"><stop offset="0" stop-color="#9b0400"/><stop offset="1" stop-color="#4c0200"/></radialGradient></defs><title>HU</title><g id="Layer_2" data-name="Layer 2"><g id="Layer_1-2" data-name="Layer 1"><path id="HU" d="M16.949.625l.267-.034.011.005.063.02.045.196.007.013.065.129.06.171.094.129.207.053.27.159.175.3.263.124.019.003.052-.014.19-.011.037.06.151.147.059.128-.03.136.027.154.057.054-.069.103-.491.516-.193.136-.127.028-.201-.054-.207.041-.185.11-.171.035-.129.131-.167.28-.206.236-.207.147-.108.131-.012.452-.115.13-.154.131-.085.115-.235.686-.178.219-.17.168-.028.153.003.176-.192.35-.252.362-.048.149.056.2-.242.23-.139.111-.116.052-.072.144-.118.351.031.156.003.144-.204.084-.06.158-.052.196-.085.088-.229.163-.57-.071-.215.055-.064.116-.013.093-.072.088-.129.109-.133.049-.297-.135-.637.138-.11.098-.089-.071-.137-.063-.637-.08-.252.063-.337-.024-.311-.07-.233.057-.205.274-.102.092-.08.059-.175.086-.147.103-.195.074-.175-.01-.165-.118-.059.027-.052.109-.09.092-.247.114-.063-.002H7.879l-.189.084-.312.047-.157-.033-.284.378-.087.069-.271.115-.221.058-.19-.046-.075-.004-.842-.019-.44-.081-.282-.148-.188-.165-.092-.183-.218-.11-.345-.039-.268-.182-.193-.324-.259-.257-.329-.19-.26-.268-.192-.347-.346-.313-.5-.278L1.188,8.51l-.03-.09L.914,8.074.809,7.946l.01-.172L.77,7.676.681,7.608.633,7.359.605,7.173l-.07-.12L0,7.028l.448-.444L.671,6.46l.258.021.083-.04.022-.065.044-.145L1.1,6.094l.022-.13-.028-.072L.969,5.869.909,5.55l.064-.121.064-.084L.958,4.956l.024-.133.202-.021.167-.083.137-.094.038-.121.112-.246-.103-.302L.952,3.759l-.03-.075.135-.086.145-.122.084-.096.112-.013.158.049.282.219.107.032.104-.064.111-.014.311.008.262-.051-.059-.233.001-.17L2.63,3.007l.028-.149.106-.117.032-.262.163-.177.077-.026.288.033.068.046.044.01.459.431.434.324.355.166.522.013.555.015.928-.057.696-.042.046-.081.105-.193-.084-.166.005-.195.117-.254.344-.212.985-.093.566-.158.086-.215.187-.213.172-.043.235.098.283.187.249.1.145-.064.5-.316.576-.31.396-.84.043-.135L12.77.016l.627.017.322.11.242.058.362-.02L14.845,0l.193.005.15.128.164.111.111.135.084.191.045.071.073.098.132.134.127.035.967-.233Z" fill="url(#radial-gradient)"/></g></g></svg>