<svg xmlns="http://www.w3.org/2000/svg" xmlns:xlink="http://www.w3.org/1999/xlink" width="128.4501" height="47.098" viewBox="0 0 128.4501 47.098"><defs><radialGradient id="radial-gradient" cx="64.2251" cy="23.549" r="48.3705" gradientUnits="userSpaceOnUse"><stop offset="0" stop-color="#ffd496"/><stop offset="1" stop-color="#f29d25"/></radialGradient></defs><title>ID</title><g id="Layer_2" data-name="Layer 2"><g id="Layer_1-2" data-name="Layer 1"><path id="ID" d="M77.8572,47.097l-.261.001-.084-.03-.021-.25.077-.14.605-.18.236-.166.336-.345.208-.09.053-.039.036.007.0331.263.0839.156.0151.082-.302.133-.27.306-.588.2Zm-2.9911-.905-.14.034-.301-.082-.061-.05.258-.137.198-.194.231-.017.1371.04-.047.231Zm4.3021-.816-.253.099-.001-.208.195-.263.178-.089.099.105.0089.048-.258.094ZM69.6161,42.75l.1271.127.4589.245.0751.103.029.17.0919.126.207.02.221-.026.169.081.146.127.216.247.19.273.236.1531.1351.228-.079.2009-.299.2781-.161.06-.2211.022-.344.1659-.1259-.086-.39-.06-.311-.12-.261-.219-.15-.235-.19-.208-.331-.139-.594-.408-.367-.037-.15.03-.151.002-.7781-.183-.1209-.107-.095-.137-.087-.135-.053-.151.1-.134.104-.09.433-.158.31-.048.359.007.535-.049.507.079.156-.059.256-.164.089.057Zm13.82-.907.103.031.356-.17.067.032.069.077.001.227-.1371.189-.346.015-.049.053-.004.115.027.112.08.09.103.158.097.368-.196.151-.099.284-.34.267-.374.437-.3.223-.263.264-.226.177-.2831.06-.4229.038-.575.316-.318.138-.31.01-.29-.103-.11-.116.026-.156.096-.134.117-.11.074-.142-.328-.18-.028-.137.13-.365.085-.375.122-.256.47-.457.281-.227.166-.088.046.096.105.116.071.019.054-.026.414.04.104-.04.158-.181.104-.101.07-.214.018-.1359.368-.099.197-.1091.175-.155.51-.264.0911-.073-.02.2511ZM57.26,41.042l-.078.097-.228-.173-.058-.078.169-.112.059-.016.146.122Zm20.677-.633-.09.166-.161-.047.044-.16.082-.095.218-.138.222-.024.136.048.043.053-.346.054Zm-9.86.552-.109.027-.11-.041.0449-.251-.063-.171.1141-.134.029-.237.046-.072.067.075.031.0491.058.023.126.004.028.103-.005.0969-.054.102-.15.109-.1079.123Zm10.8141-1.089-.057.124-.764-.008.021-.163.212-.178.0709-.059.2341-.052.3339.094Zm-18.737.73-.355.584.127.094.076.089-.588.121-.245-.064-.142.017-.597-.11-.427-.134-.049-.106.034-.127.1259.043.329.02.126-.057.003-.376-.046-.491.445-.4.237-.162.2719-.095.688.221.114.06.0881.09.043.144Zm21.4579-.801-.171.174-.116.303-.106.092-.227.057-.1371-.304-.2509.0141.123-.2681.1179-.1.154-.002.076.108.041.023.362-.453.073-.005.061.02.049.057Zm-1.016-.161-.396.077-.242.352-.192-.005-.105.156-.024.067.014.0629-.021.06-.076.0621-.18-.097-.1539.124-.065.03-.227-.1441-.2151.0091-.065-.0221.2671-.2579.364-.241.06-.089-.143-.024-.0851-.036L79.1,39.667l.23-.038.159-.005.121.074h.077l.492-.284.195.064.1421.073Zm42.0141.328-.139.037-.706-.085-.075-.116-.011-.06.161-.115.156-.195.242-.073h.094l.284.462Zm-59.8871-.06-.0629.002-.1221-.055.0441-.117-.066-.191.023-.157.156-.089.333-.01.012.115Zm4.2591-.363-.123.003-.025-.113.044-.118.118-.05.054-.003.085.107.019.056-.079.074Zm15.44-.276.067.171.217-.095.212-.024.482.018.354.038.209.071.02.343-.098.074-1.831.259-.179-.083-.07-.082.197-.254-.091-.121.104-.197.219-.134Zm9.116-.118.4911.113.281-.012.058.101-.269.239-.569-.1839-.097-.197ZM77.3912,40.597l-.396.1-.246.095-.235.126-.148.026-.269.01-.381-.023-.257.041-.717.326-.2819.028-.2441.08-.0839-.127-.104-.094-.238-.023-.238.0069-.242.288-.386-.061-.149.025-.145.061-.143.027-.15-.02-.563-.224-.646-.133-.648.052-.558-.123-.306.094-.2881.134-.085-.141-.105-.124-.0939-.186-.003-.211.031-.147.083-.135.052-.14.024-.15.122.071.127-.027.38-.163.371-.247.3449-.09.199-.025.17.049.173-.018.177-.055.279.189.117.039.378.015.3439.109.308.164.444.153.268.206.204.076.151.021.139-.028.176-.138.205-.057.178.002.325-.036.138-.033.153-.076.15.047.1321.07.55.361.169.01.31-.078.0931-.097.0479-.149.0851-.124.1179-.1069.134-.0821.411-.139.281-.137.193-.2319-.451-.102.095-.167.15-.094.199.035.173.13.077.499-.142.07-.09.076-.06.1-.256.183.101.229-.075.095Zm22.675-.827-.2441.088.1631-.223.524-.506.1879.094.25.018-.3729.229-.38.095Zm-35.4181-.002.141.111.128-.01.268-.17.161-.062.173-.0021.167.0281.165.121.06.197.062.061.097-.236.129-.071.145-.0361.227.013.173.1131.157.3349-.005.293.057.11.1079.08.08.113-.071.118-.071.057-.203.054-.098-.023-.091-.08-.1011-.029-.23.027-.212.0661.029.1069.174.0481.052.0509-.011.069-.068.0141-.226-.093-.152.019-.548.126-.145-.003-.0819-.119.0059-.31-.059-.082-.407.376-.1229.092-.1641.043-.171-.015-.588.228-.185-.032h-.179l-.628.247-.337.069-.1729.005-.172-.021-.154.022-.138.1-.28.084-.289-.064-.244-.0849-.232-.112-.058-.1441.0121-.172.098-.2349-.066-.413.051-.188.095-.185.144-.068.188-.014.311-.166.284-.218.164.021.374.152.219.018.372-.024.153.093.061.214.083.078.109.055.264.362.245-.019.2139.066.378-.219.286.006.081-.17-.171-.182-.206-.147-.111-.031-.121.009-.1079-.023-.461-.33-.1371-.178-.078-.209.047-.155.317-.137.1481-.033.551.094.094.078.146.33Zm-7.8429-.458.2849.149.397.438.037.123-.12.116-.284.186-.635.2869-.109.1351-.134.265-.031.113-.045.062-.073.045-.138.039-.15-.056.136-.17.005-.203-.101-.19-.143-.159-.288-.216-.3091-.191-.312-.098-.331-.044-.119-.093-.194-.238-.0629-.13-.032-.136.021-.132.0819-.008.324.031.598.155.2961.013.168-.036.438-.306.104.005.419.135Zm40.389-.565-.1661.259-.187-.017L96.5,38.64l.02-.242.0281-.079.1309-.024.441.07.086.196Zm-8.527-.807.038.137-.005.06-.336.044-.324.152-.166.175-.13.227-.446-.092-.398-.0151-.176-.08-.191.005-.248.07-.353.192-.078.015.028-.292.098-.18.371-.431.309.095.359.027.409-.084.291-.194.411-.102.3281.254Zm1.737-.126-.1811.066.0561-.208-.012-.168.293.051-.003.134-.028.052ZM121.6,39.643l-.6711.371-.88-.065-.312-.006-.517.09-.104-.072.098-.349.413-.929.4911-.818.2089-.212.2911-.199.309-.16.697-.166.634.03.091.068.273.272.177.215.074.304-.27.523-.301.499-.488.392Zm-20.2341-.772-.046.032-.349-.036-.1989-.001.026-.213-.1031-.16.141-.235.003-.272.146-.037.021-.155.176-.411.104-.091.146-.036.174-.24.099-.07.1031-.182.1469-.084-.012-.156.083-.082.232-.064.161.077.099.159-.2589.196.133.483-.188.527-.123.158-.23.136-.069.129-.271.26-.0819.2219-.0121.094Zm1.842-2.243-.0349.139-.12-.074-.118-.162-.173-.023-.128-.043-.075-.076.481-.035ZM53.9,36.435l-.0419.112-.1431-.028-.135-.185.065-.048.0751-.02.098.021Zm40.014.141-.126.071-.21-.147-.058-.061.133-.144.1421-.041.086.063.042.063-.018.069Zm-22.16-.181-.2861.016-.0889-.025-.021-.274.314.118.102.008Zm-19.448-.038-.0541.041-.477-.023-.307.229-.213.07h-.764l-.091-.031h-.0679l-.0411.046-.2429-.035-.776-.203-.1061-.188.12-.201.279-.285.559-.056,2.547-.02.277.245.026.083-.555.167Zm4.301-.379-.229.048-.212-.099.006-.133.052-.124.317-.064.17.004.182.085.127.089.062.104-.343.005Zm54.157-.62-.047.043-.073-.091-.0071-.057.097-.155.096-.09.107-.007-.0269.127Zm-82.571-.307-.175.062-.134-.055-.06-.079.198-.194.094-.046.099-.015.047.105Zm82.688-.255-.1551.026-.076-.229.128-.059.139.14Zm.29-.324-.068.023.001-.138.0771-.122.0809-.07.0961-.003Zm-.7929.023-.046.198-.0461.221-.257.248-.159.379-.093.095-.345.169-.307-.211-.089-.181.135-.836.1321.028.086-.006.028-.055-.197-.094-.037-.48.01-.181.149-.041.1859.141.234.251.2731.198Zm-76.232-1.219.283.32.247.171.292.093.307.009.302.041.352.122.361.056.1681-.021.16-.063.113-.004.099.059.25.271.271.248.063.126.184.598.208.172.286.05h.336l.334.025.774.14.307-.02.272-.14.242.091.657.168.323.038.367-.048.3679-.01.1761.0491.169.073.145.026.15-.0011.266-.14.176-.257.143-.324.1111-.338.075-.145.102-.128.133-.083.142-.052.386.032.08.0821.432.5729.076.05.45.036.125-.019.274-.115.157-.01.289.142.125.121.14.089.708.091.273.246.139.033.492-.03.341.024.296.066.135.349.109.358.063.122.29.123.118.111-.031.357.032.34.6149.296.6581.17.7.016.701-.059.361-.073.452-.126.094.002.875.389.075.06.098.291-.0029.307-.1631.729-.011.2.016.2.174.435.0931.125.317.229.013.12-.044.12-.35-.082-.213-.099-.123-.164-.176-.093-.329.034-.615-.164-.695-.254-1.232-.539-.336.004-.322.069-.34.137-.3541.098-.26.037-.2609-.027-.6581-.129-.663-.084-1.699-.053-.48-.123-.795-.062-.632-.106-.626-.148-1.596-.729-.5223-.1829L39.5,38.042l-.247-.028-.581.026-.366-.102-.322-.002-.479.113-.147.081-.186.171-.326-.008-.323-.033-.851-.164-.317-.101-.305-.149-.274-.194-.144-.069-.7349-.198-.6-.068-1.234-.09-.27-.06-.225-.072-.123-.16.016-.204.088-.176.121-.177.0789-.169-.9019-.354-.712-.193-.308-.037h-.309l-.348.04-.344-.019-.162-.058-.165-.02-.166.042-.133-.016-.034-.161.085-.137.174-.155.1-.027.045.243.05.048.154.053.067-.015.272-.31.0759-.153.1321-.413.1439.08.144-.049.083-.066.229-.955.19-.279.26-.231.13-.057.255.142.517.054.307.094.308.012.301.0459.419.168.148-.018.15-.052.225-.183.098-.292.324.148.477.059Zm46.805-.095-.0251.134-.103-.154-.094-.076.01-.166.133.062Zm-9.8871.911-.1149.467-.0541-.165-.021-.427-.0709-.208.0449-.239-.015-.613.087-.283.16.36.042.183Zm-21.916-1.367-.06.1-.27-.008-.045-.112.1761-.204.116-.013.104.075Zm56.3761.111-.1711.27-.116-.095-.065-.001-.04-.159.04-.328-.144-.369.1891.005.0529.11.06.037.1871.356Zm5.4439-.403-.0219.108-.002.199.0469.185-.12.188.112.281.017.14-.007.198-.031.089-.0851.26-.085.093-.064.026-.065.079-.552-.085-.238-.181-.213-.195-.045-.082-.25-.228-.058-.077-.005-.122.2021-.031.216.004-.01-.109.125-.386-.328-.248-.0579-.104.117-.07.2639.086.323-.435.095-.091.046-.242.1811-.031.1279.031.0831.151.033.131-.035.118.155.061Zm-5.109.547-.229.241.2151-.568.0449-.288.2-.171.297-.87.066.02.097.085-.149.638-.417.448ZM20.0952,31.794l-.2291.014-.4219-.344-.069-.106.119-.102.127.007.486.217.095.107Zm59.664-.58-.011.284-.112-.016-.092-.1-.025-.094.005-.076.05-.06Zm-4.4441.466-.179.075-.337-.32-.143-.264.034-.149.101-.13.048-.033-.021-.136.133-.066.146.009.096.183.115.05.059.175Zm1.6891-.472-.0721.186-.155.145-.124.011-.13-.03-.229-.126-.0591.133-.181-.006-.066-.172.1291-.509.188-.19-.0181-.2-.156-.425.097-.222.437-.168.381-.205.117-.042.106.158.057.724-.4089.573Zm1.5009-2.01.065.602-.021.158-.158-.231-.057-.046-.044.046-.056.025-.08-.002-.1041.233-.01.22-.0789.147-.0411.491.026.132.1221-.065.075-.017.276.189.146.138-.0411.1669-.187.168-.2169.073-.162-.0719-.048.034-.096.086-.072.114.021.117-.185.333-.107.094-.222-.102-.137.087-.11-.008-.169-.333.005-.156.156-.175.001-.126.077-.141.172-.193.099-.146.003-.092.073-.35.028-.146.05-.155.078-.317.011-.596.263-.491.257-.134.102-.022-.016.131Zm29.1621-.853.144.149-.334-.117-.4781-.245-.033-.164.402.248ZM78.68,27.973l-.274.336-.191-.017-.229-.221-.066-.242-.006-.088.1561-.137.525.046.099.122Zm14.9319-1.474-.479.146.103-.272.065-.072.237.074Zm-.8059.249-.0721.102-.163.067-.136-.007.044-.098-.034-.057-.101.025-.165.079-.208.158-.122-.078-.026-.122.007-.056.2491-.219.289-.038.4069-.21.1821.01-.0431.133-.063.095-.038.1Zm1.2539-.357-.006.118-.02.037-.153-.041-.109.002-.097-.213.027-.049.201.062.075.021Zm-34.5149-.23-.1031.481-.171-.273.192-.323.089-.065Zm31.383-.417.064.124-.275-.078-.122-.12.12-.075.0671-.02Zm-31.721,1.545-.589.52-.0981-.132.0511-.529-.164-.329.011-.244.116-.432.151-.331.342-.221.085-.026-.021.401.068.151.024.129-.036.111.064.514.038.125-.083.162ZM88.8361,25.11l.462.218.104.142.083.169.091.093.108.076.18.147.047.224-.041.452-.209.04-.196.066-.404.262-.199.051-.213.018-.151.069-.151.027-.393-.145-.38-.17-.552-.295-.102-.072-.089-.158-.253-.284-.063-.182-.021-.518.066-.119.106-.063.3691.12.2429-.125.698-.106.711.011Zm3.163-.423-.1409.233-.2471-.01-.043-.033.292-.146Zm-59.221.192-.047.056-.155-.03-.113-.078-.07-.074-.018-.077.151-.095.319.098Zm1.6471-.295-.113.072-.066-.069-.02-.077.048-.097.154-.009.0709.029Zm62.532-.094.645.309.334.045.562-.04.2119.03.5361.395.156.271.0449.234.0831.222.132.056.155.021.202.32.04.104-.153.803-.631-.304-.609-.345-.263-.128-.702-.292-.107-.1-.079-.132-.306-.18-.61-.028-.229.005-.093.027.0239.097.003.197-.151.054-.379-.124-.338-.045-.294-.122-.393-.064-.044-.061.034-.091-.018-.085-.091-.033-.177.016-.1711.086-.142.097-.208.268-.106.103-.344.044-.143-.026-.131-.066-.391-.49-.132-.106-.147-.086-.136-.04-.141.075-.073.152-.033.181-.039.104-.169.29-.14.172-.05-.027.071-.276v-.156l-.086-.165-.055-.168.661-.803.239-.191,1.042-.0661.619.041.3381-.02.226-.0589.187.028.047.158.117.117.163-.01.296-.124.2571-.191.1569-.0831.16-.014.165.013.161.044Zm-82.313.885.112.407-.334-.277.007-.196-.046-.128-.202-.157-.1561-.197-.07-.465.0541-.097.132-.006.5869.61.04.103-.013.218-.085.068Zm21.841-.517-.044.294-.068.111-.234.146-.08.089-.219-.014-.028-.154-.073-.104-.232-.12-.0609.029-.042.179-.455.125-.1271.011.063-.236-.1179-.186-.009-.228-.022-.1-.057-.0581.116-.159-.02-.177.123-.19.068-.461.481-.101.104.083.561.104.396.279.211.371Zm-22.461-.717-.2.225-.33-.005-.065-.139.0151-.336-.081-.11.0029-.044.053-.191.067-.042.5331.473Zm95.8979-1.722-.082.042-.028-.121.044-.163.053-.026.061.008.079.059Zm-96.9109.612.0139.074-.4569-.245-.22-.068-.195-.268.061-.128.008-.18.029-.071.14-.026.182.131.136.319.227.297Zm73.5639.302-.0479.051-.169-.151-.113-.426-.097-.113-.113-.405.029-.115.14-.17.112.002.083.101-.046.436.251.552ZM80.3812,21.95l.05.112-.1761-.003-.073-.211.018-.113Zm6.107-.463.8629.093-.122.101-.931.161-.33-.029-1.01.095-.131-.006-.019-.156-.108-.109.161-.095.214-.022.56.036Zm-8.06.075-.206.23-.022-.123.042-.112.058-.079.0869-.039Zm20.2089-.351.034.166.167.153-.0579.238-.066.036.0349.108.0721.083-.13.057-.095-.028-.153.077-.102.107-.321.045-.113-.099-.58-.117-.371-.256-.047-.077.719-.301.3141-.08.2639.005.332-.112Zm-15.109.041.263.099h.092l.087-.116.054-.019.118.057.027.188.17-.026.132.064.042.045-.018.187-.503.033-.359.151-.483-.136-.548.233-.333.081-.289-.005-.247-.408.144-.478.104-.079.184-.042.508-.023Zm29.4811-.317,1.1079.14.3-.018.633.054.528.186.923.034.275.056.213.128-.517.105-.243.099-.452.049-.378-.05-.275.059-.1-.096-.402-.098-.515-.201-1.062-.233-.05-.146Zm-74.4311.078-.322.117-.097-.262.206-.078.224.068Zm-8.16.139.0969.192.1321.173.0969.187.133.897.44.771,1.271.303-.208.125-.106.112-.078.128-.187.535.018.114.11.181.026.197-.159-.001-.179-.044-.143-.074-.133-.097-.144-.077-.156-.05-.258-.153-.349-.108-.356-.085-.173-.227-.082-.28.088-.418-.0889-.116-.1271-.102-.156-.3009-.059-.352-.226-.136-.298-.083-.131-.067-.5889.129-.1421-.03-.125-.098-.321-.103.013-.195.149-.156.351-.157.165-.132.032-.174-.062-.127.024-.133.111-.129.131-.1011.354-.134.154.233.076.1951.094.1409.15-.202-.096-.3479.269-.078.2639-.003.199.096.13.15Zm49.2589.097-.193.018-.129-.082.012-.409.117-.089.057.015.035.122.059.109.096.102Zm12.7851-.122-.172.113-.086.031-.414-.076-.484.016-.5041.105-.291-.089-.185-.145.009-.153.173-.379.379-.287.154-.052.271.078.455.22.358.258.325.201ZM78.5961,19.763l.062.174-.1019.151.111.283.283-.377.27-.048.153.063.105.075.058.143-.1.307-.177.144-.229.023-.108-.179-.15-.017-.105.39-.047.06-.1339.0491-.1191-.107-.0209-.06.169-.177-.092-.525-.127.099-.339.477-.264.213-.09-.108-.134-.324.061-.416.213-.281.181.019.521-.088Zm-37.893.026-.56.285-.132-.015-.1-.101.062-.55.0721-.164.39-.018.237.079.124.089.048.184-.027.111Zm70.8791-.18-.1351.051-.156-.056-.148-.214.053-.164.173-.113.145.113.045.144.11.01ZM11.1052,21.455l-.259.015-.554-.334-.131-.15-.032-.2-.531-.772-.071-.177.209-.634.541-.153.179.107.063.285.31.514.102.277.077.123.032.096-.027.066.224.326.16.191.012.309Zm89.352-1.29-.099.078-.341-.073-.1771-.172-.12-.231-.0771-.19-.021-.151-.102-.185.014-.067.629-.195.1191.071.263.0061.114.141-.078.613Zm-.27-1.5-.072.142-.133.096-1.207.17.1041-.102.051-.101.076-.052.119.014.06-.031.061-.012.067.013.117-.042.2459.03.2541-.0239-.019-.136Zm12.5661-.352.597.109.218-.006.213.123.259-.058.146.04.491.423.242.28.358.241.26.082-.195.22-.396.116-.152.006-.303-.131-.245.024-.214-.164-.037-.254-.221-.572-.284.164-.3419-.264-.0931-.0061-.021.044-.145-.0889-.124-.178ZM90.07,18.675l-.032.057-.293-.073-.079-.04.147-.395.138.012.121.376Zm9.3351-.703-.1611.003-.291-.121.169-.105.107-.022.094-.063.052-.003.115.054.076.091Zm-24.592-.34.119.124-.071.143-.097-.036-.255.002-.096.011-.115.084-.072.003.049-.132.216-.2.135.03Zm32.579.89.7039.042.355-.028.349.036.142.071.243.215-.069.141-.0419.292.124.28.202.281.166.3.034.146-.063.31-.057.153-.201.256-.11.279.0709.344.039.347-.007.318.036.313.109.3179.47.87.274.59.088-.33-.022-.3659.0981-.132.137-.07.171.073.048.148.013.324.148.636.19.0289.206-.0969.034.194-.008.36.096.2861.085.112.338.232.153.043.4471.056.3369.018.323-.0831.208-.213.188-.231.649-.532.188-.255.181-.39.063-.083.646-.422.074-.15.092-.29.141-.28.1049-.145.6241-.137.6469-.074.643-.258.277-.222.014-.146-.141-.256-.006-.113.148-.108.573-.325.662-.334.532-.23.294.002.271.203.289.166,1.513.488.242.152.211.202.303.14.338.067.307.131.291.168.644.314.864.381.221.022.804-.018.139.072.132.102.1221.023.921.071.141.073.1339.101.0751.276.635.007v1.108l.0009.567v1.136l.001.568v2.2719l.001.569v2.276l.001.57v1.3831l-.087.298-.194.446-.034.361.16.281.156.183v1.041l.001.572v2.289l.001.573v1.72l.0009.037-.146-.095-.387-.314-.351-.358-.227-.3341-.256-.3039-1.09-.901-.276-.296-.056-.082.026-.077.1259-.156.2231-.451-.233.279-.277.221-.404.014-.396.054-.367.133-.373.046-.187-.065-.112-.166-.059-.17-.026-.181-.157.292-.308.16-.421.337-.12-.07-.072-.128-.024-.133.081-.142.058-.15.085-.361.188-.213.12-.411.078-.146.04-.146-.109-.166-.185-.056-.127-.101-.146-.279-.092-.094-.167-.115-.128-.133.142-.101.187-.041.1531.006.276.063.125.003.3209-.103-.181.032-.179-.004-.57-.18-.353-.187-.333-.375-.0041-.072.235-.068.507-.079-.1569-.191-.2291-.167-.08-.296L121.9,34.827l-.338-.299-.2329-.31-.1971-.63-.202-.476.05-.172.17-.123-.258-.014-.233-.088.124-.231.27-.137-.246.035-.24.067-.109.013-.113-.021-.06-.093-.008-.132.035-.233-.041-.226-.213-.105-.177-.161-.1-.06-.13.004-.127-.108-.102-.156-1.27-.677-.0751-.193-.1179.084-.117.042-.146-.111-.153-.074-.167.012-.154-.06-.162-.034-.169-.005-.667-.208-.632-.329-.5151-.142-.317-.185-.33-.15-.738-.146-.7479-.099-.271-.003-.227.032-.2181-.007-1.2379-.714-.209-.325.02-.19.056-.157.505-.045-.3549-.046-.146.021-.2931.129-.158.009-.224-.086-.214-.108-.351.1-.179-.164-.062-.173-.094-.079-.132.008-.178.0629-.177-.0109-.114-.119-.082-.155-.121-.111-.146-.085-.24-.201-.125-.275.015-.475.038-.17.237-.277.168-.263-.208-.029-.188.121-.079.124-.0319.15-.021.499-.151.145-.2281-.012.0671.292-.0931.277-.265.326-.021.148.042.161-.06.158-.428.456-.143.022-.3159-.003-.3271.072-.1519-.106-.1241-.138-.093-.164-.13-.337-.104-.348.325-.426-.112-.385-.22-.331-.556-.458-.576-.435-.262-.088-.429-.039-.136-.042-.133-.163-.099-.188.269-.081.459-.221.261.011.708.12.2169.109.2021.064.4829-.365.383-.477.2391-.104.203-.035.2069.046.411.166.323.078.23.015.12.149.136.0669.031-.225.118-.26.229-.081.121-.019.0759-.067-.017-.241-.303-.03.165-.207.147-.101.051-.101.003-.126-.593.243-.625.102-.369-.028-.368-.003-.736.162-.279-.006-.651-.066-.36-.079-.278.061-.269.005-.281-.186-.239-.232-.119-.165-.1581-.12-.07-.161-.175-.606-.016-.434-.283-.008-.275-.043-1.229-.412-.148.101-.173.052-.173.019-.171-.021-.171-.064.015-.114.126-.278.125-.103.172-.08.109-.148.178-.443.014-.151-.02-.154.0151-.117.11-.061.463-.144.962-.218.243-.13.201-.208.234-.126.107-.128.124-.103.744-.275.321-.022.328.032.649.163.619.263.537.346Zm-81.384-1.091.263.271.063.097-.13.15-.104.212-.06.045-.201-.081-.1421.208L25.6031,18l-.2039-.211.127-.216.046-.016.062.007.064.057Zm64.81-.044.324.417-.2181.395.15.221.409.014.0939.083.0721.1.047.136-.1061.109-.228.1-.263-.144-.0689-.134-.0541-.05-.354.102-.099.01-.068-.187.0851-.268-.247-.121-.227-.277-.008-.111.091-.193-.0121-.154.1291-.012.236.208.102-.196.101-.082Zm-.89.491-.1761.072-.1909-.001-.042-.297.063-.377.1779-.064.281.08-.104.095.0771.202Zm-65.99-.41-.365.097-.407-.07.05-.167.196-.195.174.008.317.128.112.1149Zm75.99-.959.486.119.11-.019.705.306.111.152-.039.103.104.138-.23.21-.111.023-.112-.079-.225-.044-.26.086-.165-.065-.14-.192-.248-.117-.351-.406-.172.015.045.159.149.105.196.309.113.03.116-.011.157.129-.008.199-.41.078-.142-.146-.031-.265-.23.089-.089.092-.067.013-.153-.276-.438-.015-.291-.146.1439-.153.021-.148.1891-.08.1909.071.193-.107.1371.027.101-.068.388-.043ZM9.1271,17.976l-.167.129-.2529-.125.085-.179.041-.247.152-.196.051-.23-.292-.629.145-.021.115.068.193.418.168.251-.067.34Zm17.7361-.988.081.046.1-.145.185.198.114.099.156.099-.153.004-.063.091-.04.018-.595-.319-.381.103-.261-.093-.0739-.064.14-.175.129-.401.261.101.063.124-.016.037.171.075Zm69.5169.031-.122.008-.102-.163-.278-.181-.172-.312.654.515Zm-5.881-.505-.0139.086-.087-.12-.059-.029.063-.3.033-.051.051.205Zm-63.887-.183.024.069-.132-.078-.08-.047-.054-.043-.292-.381.125.024.325.335Zm-3.943-1.344-.315.016-.092-.036.039-.262.0961-.158.143.003.159.236Zm67.7361-.28-.1011.031-.029-.011-.03-.112.056-.19.118-.002.05.031.01.14Zm-.133-.416-.0961.092-.091-.031-.0549-.118.018-.085.0759-.055.095.041Zm-67.138.354-.058.038-.239-.354.06-.204.0579-.052.1321.125.104.13.076.155Zm1.0629-.38.0151.08-.2571-.161-.007-.117.033-.054.1531.125Zm1.152-.093-.176.082-.221-.255.008-.059.021-.045.041-.029.134.132.159.047Zm-3.401.244-.053.107-.104-.079-.5479-.12-.185-.013-.474-.132-.144-.07-.103-.092.0349-.169.07-.102.042-.284.12-.116.235.211.261.182.151.083.461.186.163.093Zm1.112-.841.017.153-.187-.037-.135-.18.111-.128.07-.046.07.17Zm-.7229.497-.082.08-.142-.019-.149-.094-.194-.169-.218-.151-.276-.095-.1731-.029-.0689-.035.066-.293.182-.018.588.272.19.148Zm2.41-.866.178.122.146-.08-.006.104-.029.1-.172.287-.288-.066-.066-.093-.021-.069.042-.043.023-.141h.1241Zm1.573-.099.0171.209.16.102.041.154-.028.247-.15.285-.067.075-.199-.058-.066-.095-.026-.074.0281-.053-.147-.067.0949-.109-.065-.153-.4069.096-.118.003-.021-.174.017-.07.313-.22.187-.041.201.044Zm-6.057.63-.13.084-.156-.132-.128-.191-.067-.199-.061-.326-.016-.234.078-.137.057.005.23.139.152.236.084.074.017.217-.056.248Zm-13.88-1.324.6079.784.2471.105.328.356.08.124-.083.25-.0721.714-.1569.178-.383-.088-.0041-.125-.221-.538-.4-.3-.157-.016-.103-.307-.202-.363-.61-.664.463.005.225-.162.052-.129.037-.033Zm14.0619.016.021.358-.209-.094-.163-.142-.261-.105-.3159-.034-.232-.093-.162-.166-.0071-.077.016-.062.052-.049,1.199.322Zm62.856,1.294-.5349.473-.1631.229-.143.246-.211.273-.242.241-.1209.071-.299.13-.172.05-.324.017-.976.192-.32.022-.319-.008-.604-.048-.126-.025-.241-.248-.272-.196-.24-.021-.245.021-1.765.014-.617.037-.614.087-.335-.04-.331-.098-.25-.035-.252.01-1.1581.148-.2919-.014-.586-.189-.34-.038-.335.051-.311.17-.1179.114-.3221.39-.182.284-.139.354-.1179.3609-.063.296-.0041.31.0561.348.087.344.0969.263.402.608.082.086.437.171.259.22.245.61.176.312.171.004.192-.022.334.04.33.08.3221-.187.18-.354.1811-.263.434-.5.247-.231.157-.076.161.033.136.132.158.105.324.057.327-.035.348-.163.125-.1.104-.126.295-.103.701-.001.361.037.646-.041-.0089-.092-.125-.098-.032-.079.12-.051.416-.114.424-.081.309.058.275.159.1061.164.047.197-.1061.511-.052.119-.22.061-.207-.068-.205-.264-.29-.097-.411.08-.142.0759-.126.1051-.232.2739-.193.309-.419.481-.483.418-.234.16-.262.107-.839.277-.221.206-.172.267-.19.091-.22.029-.165-.05-.3339-.151-.11.124-.019.189.164.067.266.209.205.295.131.063.293.096.123.092.22.253.3469.588.118.318.193.26.586.4411.033.125-.036.1459.045.132.21.253.05.164-.229.208-.013.3-.141.404-.031.136.004.124.099.115.115.091.1581.048.138.079.2659.315.139.083.088.115-.0089.171.1209.1.1111.179.171.043.079-.051.055-.077.14.029.0819.125.048.16.016.176-.007.334-.07.12-.153-.006-.2751-.138-.013.1.019.096-.14.032-.16-.014-.4019.013-.7421.208-.26.123-.169.223-.012.155.065.325-.099.114-.34.043-.475-.087-.287-.087-.16-.073-.208-.219-.0789-.28.154-.833.043-.107.075-.095.079-.151.019-.178-.227-.217-.342-.086-.289-.181-1.118-1.016-.063-.098-.002-.168.045-.157.367-.555.047-.106.045-.438-.011-.361-.041-.361-.174-.227-.311-.069-.321-.0109-.313.072-.308.182-.568.3819-.226.223-.02.289.13.283.168.258.09.283.124,1.003-.004.113-.146.292-.058.652.063.921.1.565-.043.307-.266.66-.081.362-.006.149.313.69.0721.273.038.283-.333-.139-.154.007-.157.042-.347.045-.353.006-.123.052-.25.184-.152.074-.132.014-.448-.23-.265-.25-.244-.271-.045-.31.085-.318.121-.34.241-.565-.012-.379.083-.311.138-.301.05-.278.033-1.088-.034-.097-.331-.646-.038-.108-.002-.174.036-.167.007-.149-.076-.115-.134-.105-.1619-.046-.3431.045-.688.174-.203-.153-.1519-.236-.099-.33-.057-.345.026-.3241.102-.3129-.082-.219-.127-.238-.001-.123.072-.107.124-.09.152-.052.142-.095.3771-.319.12-.281.0089-.346.096-.33.1921-.305.228-.282.073-.291-.111-.462.044-.21-.0381-.247-.004-.244.141-.459.418-.939.408-.499.162-.131.212.232.161.273.003-.247-.0485-.237-.1619-.565L68.8,16.743l.039-.104.143.017.146-.097.076-.173-.151-.409-.0071-.145.292-.575.238-.209.104-.129.06-.351.124-.132.156-.095.206-.243.1111-.306.068-.023.08-.011.124.267.139.108.282.087.241-.103.067-.134.091-.115.146-.12.123-.137.137-.317.181-.289.1241-.101.1489-.063.1661-.039.16-.005.355.181.206.036.211-.013.133.03.101.082.092.164.113.142.105.07.1149.033.7731-.058.676.16.922.036.316.094.304.123.3709.216.136.048.152-.012.189-.204.148-.044.15-.008.594.038,1.596.25.236-.034.962-.479.386-.454.3449-.126.1161-.206.07-.246.122-.066.289-.07.114-.073.205-.303.242-.268.119-.081.342.043.151.117.192.394-.033.066-.227.196-.066.083-.2509.554-.172.272ZM18.2462,10.702l.151.229.0319.148-.111.17-.041.261-.327.205-.286-.049-.0931-.073-.181-.396.018-.336.113-.128.266.02.27-.184Zm73.0369,3.431.204.062.212-.017.105-.125.029-.162.107-.301.247-.204.1729-.032.123-.086-.021-.223.013-.219.183-.234.565-.326.323-.116.419-.037.047.125-.0479.178.0809.2691-.04.728-.096.103-.433.251-.473.2009-.133.0841-.117.2.01.199.3859.265.599.248.123.116.08.195.022.218.145.104.203.05.134.103.102.145-1.008-.339-.264-.149-.318-.018-.315-.045-.3209-.13-.345-.0311-.165.094-.064.184-.039.206.076.256-.0071.156-.065.281.25.831.313.66.461.6871.2281.2359.255.2131-.414-.063-.125-.229-.524-.228-.101-.136-.342-.652-.1-.122-.315-.222-.139-.163-.047-.22.035-.231-.018-.32.012-.318.065-.388-.113-.1371-.1469-.128-.171-.297-.0511-.338.014-.194.07-.172.095-.149.021-.146-.246-.211-.258-.602-.023-.312.328-.601-.007-.292.065-.173.035-.184.172-.4.279-.341.474-.478.18-.104.203-.068.0181.117-.032.104-.35.486-.047.11-.009.204.167.121.182.247.035.328.007.35-.04.352L92,12.905l-.287.354-.653.415-.056.103.005.1141.12.138ZM5.9692,10.71l-.016.063-.29-.293-.328-.163.136-.042.271.045.108.042.104.146Zm87.3379.066-.4439.048-.1011-.133-.117-.6.315-.48.397-.282.271-.071.095-.004.242.346-.184.695-.212.355Zm-8.55-1.673-.029.062-.104-.327.087-.164.125.06.031.058-.119.156Zm-81.23.813-.1761.026-.17-.06-.141-.16-.7541-.464-.234-.007-.164-.119-.2-.041-.212-.31-.0449-.1659.1539-.081.097-.17.251.0751.286.3.291.112.079.0571.142.1659.665.408.072.139.0461.139Zm34.867-1.522-.1371.146-.146-.091.2261-.296.0529-.02Zm-8.776.119-.117.011-.035-.083.005-.143-.01-.114-.034-.085V7.956l.108.071.083.067.096.048.078.032.041.022-.077.202ZM31.09,7.692l-.004.192-.1939-.113-.0381-.213.0641-.069.1329.0369Zm31.9191-.345-.035.092-.24-.225-.063-.163.029-.127.249-.011.124.08ZM85.46,6.913l-.07.085-.341-.156.0171-.247L85.02,6.473l-.0919-.128-.037-.125.038-.137.21.175.118.278.162.264Zm3.3511-.929-.0461.032-.101-.075-.063-.083.0041-.083.072-.042.146.127.003.07Zm-.3721-.296.0071.118-.17-.268-.066-.317.135.113.151.234ZM63.6442,4.817l.094.267.0139.102-.521.14-.314-.328.067-.133.271.006ZM36.7911,6.204l-.3839.103-.222-.144.24-.177.085-.012.056-.035.02-.072-.434-.117-.124-.103-.118-.262.003-.167.558-.441.13-.047.021.183.385.462.017.308-.015.111Zm23.117-1.873.1011.06.14-.002.166-.044.408.042.722.009.497.105.486.297.242.06.104.002-.023.023-.192.081-.091.16.265.245.018.163.205.146.251.227.01.074.085.102.0431.125-.177.124-.237.023-.1761-.117-.161-.146-.042.181-.125.104-.4559-.03-.326.001-.324.045.162.028.1469.058.5051.462.1079.171-.177.34.086.139.195.08.238.169.169.017.122.096.005.166.071.15-.192.061.19.04.17.077-.093.078-.0721.095.078.051.233.087.102.081.053.217.228.355.416.458.091.167-.0009.154-.069.132-.237.154-.189.204-.0231.074-.2579.094.1179.069.094.094.179.283.427.46.2151.172.883.624.47.272.6.622.311.144.061.173-.26.266-.378.133-.625.071-.6271-.093-.3239-.076-.282-.153-.222-.307-.294-.166.113.186.071.19-.037.207-.115.162-.198.119-.212.097-.09.068-.538,1.083-.087.293-.164,1.216-.003.344.242.643.021.337.048.146-.032.121-.114.072-.462.196-.326.163-.265.232-.214.289-.188.209-.25.1-.182-.015-.146-.096-.103-.186-.059-.203-.0381.15.0071.147.086.157.033.166-.05.169-.107.135-.29.147-.16.126-.031.223-.077.125-.111.097-.409.222-.092.089-.067.113.218-.018.2.018.015.221.063.165-.08.361-.308.244.154.051.139.08.309.059.104.256-.046.31-.056.2781-.222.077-.138-.051-.137.005-.1011.084-.026.144.191-.071-.011.36-.052.351-.063.194-.117.158-.177.051-.167-.119-.034.138.0511.116.2379.282-.1459.062-.1061.096-.0479.14-.259.321-.115.236-.049.252-.121.2-1.959.8721-1.585.734-.114-.05-.077-.112-.054-1.141-.196-.583-.029-.329-.224.293-.137-.03-.1481-.075-.111-.0961-.0089-.126.12-.362-.145.199-.158.1531-.164-.019-.142-.076-.052-.118-.075-.0181-.347.322-.457.173-.255-.003-.2-.0989.01-.2461-.021-.24-.056-.141-.123-.051-.113.018-.328.125-.117-.015-.067.063-.868-.874-.175.708-.6.376-.442.219-.439-.082-.445-.14-.444.169-.482.414-.133.0629-.1389-.001-.102-.0539.0349-.314.0041-.314-.036-.699-.0381-.138-.1389-.192-.1841-.139-.102.101-.093.139-.366-.006-.357-.111-.304.063-.604.277-.32.043-.172-.063-.11-.149.063-.137.133-.105-.248.083-.211.14-.092.09-.099-.045-.264-.316-.552.118-.0739.036-.136.108-.131-.054-.065-.115-.023-.66-.281-1.269-.0771-.648-.062-.153-.322-.233.011-.334.168-.28.035-.326-.048-.354-.101-.346-.127-.261-.182-.223-.241-.25-.297-.187-.64-.21-.337.019-.126-.083-.084-.107.034-.21.114-.144.153-.036.019-.082-.325-.169-.271-.23-.085-.138-.026-.152.002-.351.078-.222.043-.12.0831-.371.177-.113-.0281-.068-.076-.051-.11-.122-.091-.14-.207-.238-.365-.2861-.062-.4939-.047-.728.03-.331.117-.619.203-.195.161-.054.121-.083-.1-.012-.086.031-.154.021.1271-.554.057-.16.255-.31.299-.274.126-.323.17-.283.703-.292-.2529.366.028.133.062.118.182.083.052.451.229.256.23.234.17.115.187.167.1309.155.1381.13.208.127.5629.541.235.159.175.159.124.056.307-.045.907-.388.1631-.025.2949-.067.521.021.5511.132.179.004.17-.079.236.023.22.041.11-.034.32-.283.436-.084.141-.28.109-.264.052-.281.182-.113.255-.098.378-.124,1.311-.022.127.054.027.144-.027.109.052.065.174.006.161.066.6531.226.278.07.155-.018.306.202.167-.069.221-.142.21-.191.188-.151.273-.059.3541.008.418-.052.315-.081.352.134.094-.042.0609-.131.182-.287.081-.1929.07-.37.049-.0881.1339-.0509.1371-.07.036-.1109.05-.129-.0411-.108-.078-.0911-.0819-.3089.026-.141.051-.105.141-.0531.372-.2269.33-.266.181-.13.079-.0841.005-.122-.144-.127-.138-.061-.01-.147.005-.102.042-.096-.021-.093-.0009-.139.088-.15.203-.222.16-.144.178.089.207-.041.197-.072.109-.2619.0171-.125-.026-.1.0679-.3729.0171-.054.129-.235.013-.158-.073-.367.046-.278.021-.575.077-.103.089-.298.144-.311.291-.169.152-.222.067-.042.1-.002.352.162.316-.18.286-.021.236.0239.133.0741.131.053.282-.175Zm28.803.913-.113.058-.182-.021-.02-.142.185-.255.122-.269-.13-.067-.127-.172-.005-.2.104-.37.154.03.148.16.061.3.097.228-.206.31ZM3.6082,1.899l.3439.025.639-.152.351.015.331.11.294.063.732-.081.138.021.1321.063.112.1.335.364.566.448.163.287.093.323.059.075.64.617.069.258-.09.357.1859.284.62.267.3661.194.078.1189.054.142.203.21.254.137.7931.361,1.04.754.591.358.489.544.177.26.146.281.297.409.505.505.128.154.136.223.157.207.188.19.224.146.229.047.369.365.199.114-.031-.286-.168-.25.0029-.15.029-.135.1371-.113.1649-.032.31.104.503.433.212.252.159.348.134.361.2.18.276.063.307.026.282.111.66.5.219.235.1661.276.114.327.071.343.044.079.424.414.223.175.272.0849.7949.093.279.143.232.238.097.242-.165.214-.6209.328-.6631.227.6451-.078.326-.095.3-.148.297-.189.472-.264.175-.054.206.019.187.0751.28.259.264.2739.197.319.123.3551-.226.186-.328.1369-.451.343-.0479.136.093.087-.11.252.253.156.038.132-.219.189.021.117.264.5.126.1141.403.2539.614.257.34.118.386.0911.165-.0021.289-.042.059.1.124.492.06.312.089.663.112.275-.007.336.147.286.3029.183.321.149.152.146-.002.22-.052.174-.108.135-.334.287-.06.124-.047.316.057.145.134.008.104-.076.4-.424.108-.074.151-.06.154-.038.731-.003.311.067.275.138.243.173.891,1.105.407.61.032.152.007.158-.069.122-.37.417-.047.1149-.115.4541.021.327.123.1369.099.149-.008.135-.244.672-.025.115.154,1.093.0109.296-.031.375.022.604-.2,1.868-.037.111-.153.286-.201-.002-.163-.05-.113-.109-.063-.135-.092-.111-.486-.345-.127.057-.494.428-.131.063-.165-.052-.26-.128-.815-.45-.05.144-.011.195.162.49.023.214-.148.042-.083-.009-.339-.284-.313-.315-.3549-.426-.26-.202-.2341-.226-.66-.858-.172-.131-1.023-.605-.206-.144-.2621-.25-.281-.223-.617-.351-1.07-.89-.465-.5109-.517-.8241-.169-.21-.8691-.6181-.474-.3739-.1979-.215-.461-.749-.1351-.2521-.17-.2229-.279-.181-.246-.212-.488-.677-.154-.27-.116-.292.021-.585-1.035-1.771-.26-.552-.241-.766-.053-.077-.565-.686-.199-.22-.242-.206-.197-.241-.39-.783-.145-.217-.203-.16-.738-.296-.275-.165-.217-.234-.133-.299-.146-.634-.349-.963-.39-1.29-.264-.578-.301-.454-.088-.105-1.34-.817-.229-.121-.2429-.072-.347-.052-.265-.211-.108-.379-.061-.5079-.066-.3031-.073-.172-.56-.359-.22-.284L5.73,7.6028l-.167-.2421-.616-.836-.211-.2189-.261-.1531-.773-.1619-.227-.1391L3.1,5.3767l-.227-.242-.68-.533L1.044,3.4868.809,3.2087l-.176-.29L.49,2.6077,0,1.7457l.04-.174.073-.181-.011-.15-.054-.148L.059.96.205.8807.532.78l.339.012.314.043.304.083.292.181.522.458.297.159.33.077ZM.4351.266.38.345.2131.304.0291.049.0971,0,.21.026l.216.059L.4451.18Z" fill="url(#radial-gradient)"/></g></g></svg>