<?xml version="1.0" encoding="utf-8"?>
<!-- Generator: Adobe Illustrator 22.1.0, SVG Export Plug-In . SVG Version: 6.00 Build 0)  -->
<svg version="1.1" id="Layer_1" xmlns="http://www.w3.org/2000/svg" xmlns:xlink="http://www.w3.org/1999/xlink" x="0px" y="0px"
	 width="15.0556px" height="18.304px" viewBox="0 0 15.0556 18.304" enable-background="new 0 0 15.0556 18.304"
	 xml:space="preserve">
<radialGradient id="IE_1_" cx="6.1215" cy="9.152" r="7.7856" gradientUnits="userSpaceOnUse">
	<stop  offset="0" style="stop-color:#FFD496"/>
	<stop  offset="1" style="stop-color:#F29D25"/>
</radialGradient>
<path id="IE" fill="url(#IE_1_)" d="M8.897,1.3449l-0.444,0.314l-0.069,0.119l-0.125,0.479l-0.015,0.136l-0.143,0.251l-0.135,0.279
	l-0.157,0.108l-0.234,0.086l-0.133,0.085l-0.168-0.043l-0.212,0.007l-0.106,0.095l0.005,0.073l0.063,0.083l0.186,0.128l0.207,0.115
	l-0.023,0.101l-0.111,0.114L6.58,4.1588l-0.209,0.171l-0.073,0.113l0.075,0.189l0.561,0.565l0.095,0.062l0.083,0.329l0.495,0.137
	l0.203,0.205l0.174,0.049l0.379-0.018l0.152,0.077l0.086-0.059l0.05-0.108l0.319-0.278l0.105-0.122l-0.063-0.169l-0.068-0.129
	l0.194-0.257l0.235-0.254l0.118,0.008l0.201,0.156l0.166,0.217l0.022,0.168l0.031,0.122l0.157,0.26l0.101,0.09l0.272,0.052
	l0.064,0.102l-0.049,0.376l0.041,0.125l0.285,0.006l0.303-0.03l0.106,0.014l0.109-0.079l0.168-0.085l0.241,0.029l0.118,0.168
	l0.053,0.173l-0.207,0.065l-0.216-0.035l-0.105,0.113l-0.007,0.218l0.073,0.281l0.145,0.199l0.115,0.448l0.096,0.496l0.148,0.299
	l0.031,0.37l-0.022,0.182l0.027,0.327l-0.063,0.115l0.047,0.306l0.175,0.631l0.077,0.351l0.049,0.764l-0.124,0.285l-0.166,0.271
	l-0.109,0.32l-0.083,0.345l-0.051,0.555l-0.36,0.648l-0.153,0.161l-0.178,0.099l0.388,0.452l-0.317,0.201l-0.345,0.063l-0.382-0.113
	l-0.238,0.014l-0.218,0.146l-0.085,0.088l-0.069-0.042l-0.143-0.37l-0.105,0.382l-0.22,0.122l-0.377-0.026l-0.63,0.102l-0.243,0.108
	l-0.101,0.17l-0.075,0.196l-0.099,0.115l-0.111,0.061l-0.487,0.144l-0.096,0.058L6.84,16.534l-0.295,0.182L6.3,16.771l-0.217-0.183
	l-0.089-0.11l-0.101-0.056l-0.334,0.009l0.105,0.057l0.068,0.129l0.033,0.248l-0.038,0.243l-0.165,0.123l-0.196,0.023l-0.31,0.251
	l-0.41,0.068l-0.222,0.231l-1.356,0.39l-0.077,0.004l-0.187-0.099l-0.203-0.044l-0.202,0.031l-0.568,0.218l-0.275-0.043l0.351-0.542
	l0.471-0.274l0.049-0.075l-0.154-0.037l-0.896,0.19l-0.311,0.162l-0.311,0.047l0.144-0.248L1.3,17.145l0.215-0.16l0.131-0.064
	l0.15-0.2l0.423-0.227l-1.362,0.468l-0.358-0.057l-0.084-0.13l-0.278,0.062L0.031,16.52l0.413-0.479l0.241-0.207l0.286-0.112
	l0.275-0.161l0.102-0.196l-0.129-0.063l-0.824,0.05L0,15.31l0.021-0.156l0.073-0.173l0.409-0.296l0.222-0.047l0.197,0.028
	l0.192,0.076l0.157,0.099l0.464-0.057l-0.194-0.189L1.507,14.21l-0.148-0.129l0.189-0.179l0.217-0.108l0.362-0.371l0.129-0.057
	l0.716-0.09l0.772-0.195l0.765-0.27L4.116,12.66l-0.188-0.2l-0.302,0.403l-0.218,0.154L2.794,13.1L2.6,13.055L2.326,12.93
	l-0.085,0.047l-0.079,0.096L1.755,13.27l-0.427,0.047l0.497-0.362l0.631-0.615l0.14-0.194l0.2-0.339l-0.062-0.151l-0.13-0.086
	l0.457-0.7l0.161-0.127l0.292-0.021l0.215-0.111h0.095l0.085-0.042l0.188-0.21l-0.29-0.134l-0.3-0.069L2.58,10.229l-0.122-0.016
	l-0.115-0.065l-0.075-0.093L2.212,9.816L2.144,9.762H1.935L1.728,9.835L1.584,9.828L1.443,9.723l0.226-0.245L1.378,9.42L1.084,9.468
	L0.839,9.393L0.832,9.239l0.111-0.154L0.797,8.939l-0.03-0.185l0.155-0.091l0.169,0.03l0.345-0.137L1.879,8.49l-0.38-0.135
	L1.348,8.239L1.341,8.062l0.03-0.152L1.81,7.653L2.278,7.54L2.243,7.371l0.033-0.184L1.803,7.134L1.336,7.263l0.05-0.351
	l0.112-0.318l0.022-0.209l-0.022-0.225L1.279,6.256L1.254,5.939L1.16,5.722l-0.325,0.15l0.008-0.288l0.094-0.201l0.169-0.087
	l0.168,0.038l0.313-0.003l0.302-0.152l0.435-0.039l0.692,0.047l0.476,0.427l0.123-0.076l0.19-0.27l0.089-0.03l0.718,0.118
	l0.445,0.155l0.119-0.048l-0.064-0.299l-0.153-0.208l0.192-0.272l0.234-0.185l0.157-0.092l0.361-0.115l0.158-0.108l0.105-0.352
	l0.167-0.293l-0.907,0.152l-0.863-0.348l0.137-0.246l0.182-0.14l0.314-0.107l0.03-0.129l0.159-0.107l0.263-0.282l-0.097-0.369
	l0.052-0.27l0.189-0.176l0.059-0.253l0.084-0.187l0.384-0.067l0.369-0.173l0.133,0.017l0.437-0.04l0.147,0.07l-0.034-0.307
	l0.268-0.04l0.104,0.061l0.046,0.218l0.122,0.139l0.038,0.241l-0.082,0.186l-0.137,0.143l0.125,0.146l-0.193,0.265l0.208-0.113
	l0.297-0.259l-0.016-0.211l-0.05-0.267l-0.083-0.241l0.038-0.266l0.167-0.166l0.439-0.084l-0.18-0.302L8.6419,0l0.174,0.063
	l0.256,0.235l0.267,0.185l0.276,0.146l-0.266,0.292l-0.327,0.203L8.897,1.3449z M1.237,7.0299l-0.012,0.136l-0.208-0.171
	l-0.101-0.187l-0.57-0.085l0.237-0.187l0.116,0.055l0.403,0.008l0.113,0.078L1.237,7.0299z"/>
<g>
	<text transform="matrix(1 0 0 1 9.1298 11.264)" fill="#770B00" font-family="'KornerDeliNF'" font-size="1.5467px">Dublin</text>
	<g id="Layer_2_copy_2" opacity="0.9">
		<path fill="#9B0F00" d="M11.6978,8.1099c-0.0692-0.0136-0.26-0.0154-0.316-0.0156v0c0,0-0.0028,0-0.0078,0
			c-0.005,0-0.0078,0-0.0078,0v0c-0.056,0.0002-0.2468,0.002-0.316,0.0156c-0.8226,0.1619-0.5727,0.9041-0.3995,1.1542
			c0.1466,0.2118,0.6476,0.7782,0.6476,0.7782h0.1515c0,0,0.501-0.5663,0.6476-0.7782C12.2704,9.014,12.5203,8.2718,11.6978,8.1099z
			"/>
		<path fill="#770B00" d="M11.6306,8.1099c-0.0539-0.0133-0.2005-0.0153-0.2488-0.0156V8.0942c0,0-0.0028,0-0.0078,0
			c-0.005,0-0.0078,0-0.0078,0v0.0001c-0.0483,0.0003-0.1949,0.0023-0.2488,0.0156c-0.656,0.1619-0.4567,0.9041-0.3186,1.1542
			c0.1169,0.2118,0.5165,0.7782,0.5165,0.7782h0.1176c0,0,0.3996-0.5663,0.5165-0.7782C12.0873,9.014,12.2866,8.2718,11.6306,8.1099
			z"/>
		<path fill="#4C0700" d="M11.4712,8.1099c-0.0186-0.0116-0.0649-0.0146-0.0894-0.0154l0-0.0003c0,0-0.0029,0-0.0078,0.0001
			c-0.0049-0.0001-0.0078-0.0001-0.0078-0.0001l0,0.0003c-0.0244,0.0008-0.0708,0.0038-0.0894,0.0154
			c-0.2605,0.1619-0.1814,0.9041-0.1265,1.1542c0.0464,0.2118,0.2051,0.7782,0.2051,0.7782h0.0373c0,0,0.1587-0.5663,0.2051-0.7782
			C11.6525,9.014,11.7317,8.2718,11.4712,8.1099z"/>
	</g>
</g>
</svg>
