<svg xmlns="http://www.w3.org/2000/svg" xmlns:xlink="http://www.w3.org/1999/xlink" width="12.243" height="18.304" viewBox="0 0 12.243 18.304"><defs><radialGradient id="radial-gradient" cx="6.1215" cy="9.152" r="7.7856" gradientUnits="userSpaceOnUse"><stop offset="0" stop-color="#ffd496"/><stop offset="1" stop-color="#f29d25"/></radialGradient></defs><title>IE</title><g id="Layer_2" data-name="Layer 2"><g id="Layer_1-2" data-name="Layer 1"><path id="IE" d="M8.897,1.3449l-.444.314-.069.119-.125.479-.015.136-.143.251-.135.279-.157.108-.234.086-.133.0849-.168-.043-.212.007-.106.095.005.073.063.083.186.128.207.115-.023.101-.111.114-.703.284-.209.171-.073.113.075.189.561.565.095.0621.083.329.495.137L7.81,5.93l.174.0491.379-.0181.152.077.086-.0589.05-.1081.319-.278.105-.122-.063-.169-.068-.129.194-.257.235-.254.118.008.201.156.166.217.022.168.031.1221.157.26.101.09.272.052.064.102-.049.376.041.125.285.006.303-.03.106.014.109-.079.168-.085.241.029.118.168.053.173-.207.065-.216-.035-.105.113-.007.218.073.281.145.199.115.448.096.496.148.299.031.37-.022.182.027.327-.0629.115.0469.306.175.631.077.351.049.764-.124.285-.1659.271-.109.32-.0831.345-.0509.555-.36.648-.153.161-.1781.099.388.452-.3169.201-.345.063-.382-.113-.238.014-.218.146-.085.088-.069-.042-.143-.37-.105.382-.22.122-.377-.026-.63.102-.243.108-.101.17-.075.196-.099.115-.111.061-.487.144-.096.0581-.226.315-.295.182-.245.055-.217-.183-.089-.11-.101-.056-.334.009.105.057.068.129.033.248-.038.243-.165.123-.1961.023-.31.251-.41.068-.2219.231-1.356.39-.077.004-.187-.099-.203-.044-.202.031-.568.218-.275-.043.351-.542.471-.274.049-.075-.154-.037-.896.19-.311.162-.311.047.144-.248.401-.339.215-.16.131-.064.15-.2.423-.227-1.362.468-.358-.057-.084-.13-.278.062L.031,16.52l.413-.479.241-.207.286-.112.275-.161.102-.196-.129-.063-.824.05L0,15.31l.021-.156.073-.173.409-.296.222-.047.197.028.192.076.157.099.464-.057-.194-.189-.034-.385-.1481-.129.189-.179.2171-.108.362-.371.129-.057.716-.09.772-.195.765-.27-.393-.151-.188-.2-.302.403-.218.154-.614.083L2.6,13.055l-.274-.125-.085.047-.079.096-.407.197-.427.047.497-.362.631-.615.14-.194.2-.339-.062-.151-.13-.086.457-.7.161-.127.292-.021.215-.111h.095l.085-.042.188-.21-.29-.134-.3-.069-.927.073-.122-.016-.115-.065-.075-.093-.056-.239-.068-.054H1.935l-.207.073-.144-.007-.141-.105.226-.245L1.378,9.42l-.294.048L.839,9.393.832,9.239l.111-.154L.797,8.939l-.03-.185.155-.091.169.03.345-.137.443-.066-.38-.135-.151-.116-.007-.177.03-.152.439-.257.468-.113-.035-.169.033-.184-.473-.053-.467.129.05-.351.112-.318.022-.2091L1.498,6.16l-.219.0961-.025-.317L1.16,5.722l-.325.15L.843,5.584l.094-.201.169-.087.168.038.3129-.003.302-.152.435-.039.692.047.476.427.123-.076.19-.27.089-.03.718.118.445.155.119-.048-.064-.299-.153-.208.192-.272.234-.185.157-.092.361-.115.158-.108.105-.352.167-.293-.907.152-.863-.348L4.7,3.097l.182-.14.314-.107.03-.129.159-.107.263-.282-.097-.369.052-.27.189-.176.059-.253.084-.187.384-.067.369-.173.133.017.437-.04.147.07L7.3709.577l.268-.04.104.061.046.218.122.139.038.241-.082.186-.137.143.125.146-.193.265.208-.113.297-.259-.016-.211-.05-.267L8.0179.845l.038-.266.167-.166.439-.084-.18-.302L8.6419,0l.174.063.256.235.267.185.276.146-.266.292-.327.203ZM1.237,7.03l-.012.136-.208-.171-.101-.187-.57-.085.237-.187.116.055.403.0079.113.078Z" fill="url(#radial-gradient)"/></g></g></svg>