<svg xmlns="http://www.w3.org/2000/svg" xmlns:xlink="http://www.w3.org/1999/xlink" width="4.681" height="12.952" viewBox="0 0 4.681 12.952"><defs><radialGradient id="radial-gradient" cx="2.3405" cy="6.476" r="4.8691" gradientUnits="userSpaceOnUse"><stop offset="0" stop-color="#ffd496"/><stop offset="1" stop-color="#f29d25"/></radialGradient></defs><title>IL</title><g id="Layer_2" data-name="Layer 2"><g id="Layer_1-2" data-name="Layer 1"><path id="IL" d="M4.327,2.324l-.148.02-.346.155-.0471.047-.0609.09-.011.069-.049.744-.188-.021-.229-.162-.045-.14-.069-.048L2.97,3.06l-.31-.071-.36.245-.153.404-.031.189-.122.396.043.244.021.315.031.257-.032.155-.069.082.02.059.062.022.197-.07.207.07.199.133.016.086-.141.051-.333.201-.235.233-.061.215L1.76,6.734l.0221.094.077.055.542-.049.493-.185.371-.197.117.012-.078.504.002.002-.064.308.025.052.084.268-.159.489-.176.398-.062.188-.172.419-.176.485-.094.334.021.118-.043.611.025.173-.206.529-.041.261-.083.353-.142.746-.194.25-.096-.278-.222-.798-.157-.548-.215-.675L.797,9.829.764,9.63.686,9.342.437,8.59.233,8.046,0,7.35l.289-.276.005-.228.4919-.534L.782,6.26.651,6.118.67,6.094l.545-.997.352-.99.3309-1.383.2361-.705.2-.468.088-.388.322-.027.24.041.288.013.23-.146.11-.437L3.743.536,3.81.64,3.878.525,4.179.332,4.328.208,4.477.055,4.557,0l-.05.205-.04.134V.514L4.528.61,4.611.8l.051.19-.108.157.01.164.029.138.088.161-.1581.29-.1559.266Z" fill="url(#radial-gradient)"/></g></g></svg>