<svg xmlns="http://www.w3.org/2000/svg" xmlns:xlink="http://www.w3.org/1999/xlink" width="81.8815" height="87.2003" viewBox="0 0 81.8815 87.2003"><defs><radialGradient id="radial-gradient" cx="40.9408" cy="43.6001" r="42.2914" gradientUnits="userSpaceOnUse"><stop offset="0" stop-color="#ffd496"/><stop offset="1" stop-color="#f29d25"/></radialGradient></defs><title>IN</title><g id="Layer_2" data-name="Layer 2"><g id="Layer_1-2" data-name="Layer 1"><path id="IN" d="M72.19,86.9693l-.172.231-.336-.708-.144-.043-.005-.337.078-.133L72,85.83l.102.083.198.656Zm-.439-1.477-.267.266-.116-.16.048-.111.1129-.061.1061-.086Zm-.817-1.466-.218.003-.064-.121-.092-.125.07-.121.115-.031.163.196.0381.139Zm.265-.503-.132.104-.033-.014-.019-.08-.005-.056-.024-.101-.013-.178.105-.149.105.031-.057.152Zm-57.447-.599-.04.035-.041.013-.028-.004-.015-.035.008-.026.036.03.048-.028.054-.089.013-.029.011.016-.011.051Zm56.335.055.084.105-.155-.018-.144-.159.038-.149.0541-.061Zm-.992-2.502-.1229.016-.076-.096-.009-.112.07-.073.066-.038.066.01.0659.189Zm-.798-4.013-.085.097-.289-.076.021-.292-.068-.286.05-.12.217-.205.176-.09.122.277.057.271Zm-55.351-1.839-.021.018-.002-.052.026-.083.03-.055.009.006-.008.054-.015.073Zm55.885-.509-.137.057-.137-.071.107-.115.018-.234.14.13-.008.148Zm.91-1.867.125.392-.226-.171-.073-.123.113-.083Zm-.842-2.364-.089.186-.018-.398.042-.05.045-.014.057.037Zm.015,3.791-.062.067-.091-.075-.261-.511-.045-.328-.072-.114.092-.163.115-.054.068-.184.024-.28.101-.229.051-.064.21-.002.053-.029-.029-.219-.122-.095-.043-.061.005-.525.032-.212.0759-.153-.054-.316.036-.118.151-.166.0671-.354-.0621-.106.144-.546-.008-.366.188-.366.294-.167.093-.004.0121.313.028.103-.17.185.162.241-.021.087-.065.191-.107.188-.149.077-.116.25-.066.094.221.263.071.892-.162.244-.193.049.045.594-.035.133-.191.291-.036.127-.107.12.045.149.093.065.002.122-.0859.313-.0071.3569Zm-39.3-61.555-.007-.011-.165-.245.172.256-.092.27.019.214.17.236.138.165-.135.222-.08.257.09.115-.042.3689.04.069.095.029.148-.025.113.18-.102-.162-.0121-.018.154-.098.131-.019.078.028.104-.2789.092-.04.178.077.352.526.2979.444.063.061.023.0231.053.051.294.23.203.145.277-.052.366-.01.217.142.125.099.006.014.017.003h0l.44.348.19-.026.126.1.036.245-.059.255.014.12.196.023.4169.168.368.149.191.047.205.11.182.176.355.226.314.173.069.234-.124-.05-.164.026-.167.104-.079.0661-.381.403-.2.124-.179.181-.413.545-.239.508-.174.477.0029.337-.064.395-.178.225-.109.076-.129.3389-.093.395.054.128.222.172.216.168.275.182.264.173.17.022.047-.098.062-.094.194.05.236.169.154.135.068.0451.408.227.338.187.428.237.104.145.092.1539.202.2041.491.3609.42.259.342.21.268.147.124-.023.136-.079.119-.045.139.042.21.112.493.342.46.267.501-.048.133.043.094.242.063.245.56.162.3679.073.4211.133.213.099.224-.124.041-.109.177-.064.294.028.548.19.229.057.192-.18.357-.083.187-.094.39.2.704.25.363.156.086.1531.039.1449-.003.352.089.159.706.357.2329.151.188.049.106.006.073.0451.063.203.05.047.136.05.148.029.459-.176.314-.133.224.034.145.1481.021.216.084.228.16.1109.172.012.426-.154.343.1181.3141.043.35.074.136.056.362.188.443.19.171-.021.713-.354.061.043.145.338.217.121.339.106.354-.195.279.0559.338.0181.324-.094.281-.024.409.17.09-.039.078-.109.159-.488.141-.432-.013-.258-.129-.379-.331-.494-.024-.15.111-.863.123-.499.105-.236.116-.337.021-.156-.012-.141-.113-.086-.03-.107.028-.09.09-.05.376-.063.424-.135.169-.072.127-.072.13-.114.121.005.38.165.133.104.07.315.057.1221-.0495.32-.228.774.045.289.189.211.165.147-.027.059-.34.249-.061.133.075.13.135.11.061.105.063.326.173.092.3419.21.3011.153.517-.102.146.069.254.072.198.022.115.054.064.052-.0089.066.011.068.283.018.149.039.5029-.07.5051-.096.2319-.291.1031-.021.29-.113.286.124.314.169.17.051.335.027.326-.019.78-.081.429.042.394-.242.081.001.173.187.433.017.23-.09.248-.069.158-.022.1271-.002.153.018.145-.062.066-.125-.015-.189-.104-.206-.091-.121-.0181-.064.0281-.149.08-.21.147-.24-.108-.233-.1511-.267-.111-.026-.28.062-.303-.012-.239-.161-.178-.202-.043-.169.052-.207.0789-.19.0171-.071h.227l.314.042.238.053.1909-.002.347-.244.1581-.015.182-.046.0789-.046.055.036.199.03.207-.012.185-.067.1859-.105.33-.22.065-.126v-.116l-.062-.077-.063-.037.025-.101.139-.17.505-.256.43-.316.236-.237.108-.287.137-.312.128-.123.305-.078.854-.115.269-.126.3969-.234.2-.184.1111-.149.012-.166.264-.052.23-.269.279-.271.4911-.229.435-.308.151.049.158.146.084.161.018.082.556.102L75.3,21l.409.144.377.174.208.043.102-.005.087-.054.102-.153.104-.111.065-.045-.003-.176.546-.344.49-.247.422-.18.124.074.1371.137.187.349.1129.085.2861-.049.0529.039-.0449.125-.194.155-.252.139-.164.114.054.379-.013.13.071.041.518-.376.249-.074.089.091.027.201.205.414.087.21-.521.5-.191.258.007.091-.01.09-.133.128.007.051.107.081.131.061.063-.002.1079-.1211.4911-.1709.141.032.346.262.16.015.415.078.266-.099.195.091.4051.328.093.06-.034.199-.021.219.103.174.012.154-.023.141-.081.097-.2249.054-.191.168-.304.243-.2441.194-.177.172-.064.18.02.2269.0511.237.5659.8681-.005.15-.179.042-.238-.098-.205-.14-.231-.372-.186-.111-.185-.024-1.1.1911-.233.0539-.363.139-.254.279-.185.255-.19.103-.278.198-.771.608-.445.262-.2911.096-.2039.138-.11.224-.083.1611-.024.3949.051.486.11.31.059.065.009.091-.111.167-.146.143-.071.088-.065.442-.129.217-.238.319-.211.241-.331.1871-.126.151-.121.2789-.0709.236-.0041.085.0381.075.138.083.1669.08.08.125.0109.151-.124.363-.223.503-.255.398-.263.379-.063.124-.236.465-.206.639-.139.429-.12.294-.148.013-.179-.094-.437-.125-.279-.101-.203-.091-.141.004-.194.059-.197.041-.117-.044-.271-.265-.083.03-.053.129.183.756.119.281-.02.469-.047.575-.07.627-.047.145-.116.166-.153.045-.139-.065-.111.015-.037.105.032.271-.136.31-.1.265.026.257.048.261.159.564.0009.206-.031.185-.083.077-.143-.013-.078.076-.059.116-.161.427-.154.045-.155-.064-.232-.285-.1421-.083-.09.005-.04.075-.063.17-.0629.114-.1551.1-.038-.21-.083-1.092-.063-.348-.051-.483-.075-.148-.096-.265-.1059-.2289-.089-.097-.057-.427-.021-.523.001-.248-.125-.513-.122-.582-.165.024-.098-.141-.071.003-.232.131-.185-.043-.137.018-.001.268.023.285-.052.103-.362.334-.101.224.01.235.045.314-.064.16-.157.147-.211.077-.186-.036-.119-.128-.111-.326-.099-.178-.104-.042-.081.048-.011.205.006.169-.026.019-.058-.026-.066-.083-.1729-.818-.2471-.631-.015-.242.09-.312.111-.481.293-.3.038-.127.048-.101.071-.02.376.028.1259-.048.1111-.142.162-.114.1619-.046.1291-.017.2069.108.086-.062.063-.2.09-.198.0579-.096.139-.043.177-.01.059-.037.048-.067.044-.263.226-.589.08-.262.0121-.046-.007-.292.064-.0419.375.143.164-.0021.089-.0589.029-.107-.048-.125-.267-.219-.474-.295-.435-.181-.8041.027-.796.057-.2329-.029-.2911-.082-.715.012-.864.045-.329-.025-.162.003-.325.027-.53-.084-.367-.108-.325-.119-.386-.107-.093.001-.054-.039-.037-.095-.013-.123.08-.57-.071-.866.065-.316-.316-.7121-.108-.132-.1459-.006-.0931.092-.037.167.053.187-.116.208-.233.067-.2719-.07-.2261-.098-.291-.212-.219-.299-.019-.331-.0989-.213-.1351-.104-.099-.029-.0889.023-.0781.116.068.115.0931.162-.031.11-.0831.017-.124-.047-.192.025-.186-.0841-.111-.0069-.11-.0311-.007-.191-.169-.242-.286-.271-.281-.168-.135.023-.068.185.016.069.099.034.142.107.03.112-.021.098-.175.179-.124.17-.277.247-.236.283-.062.214-.089.192-.035.211.0621.146.114.092.296.067.31.284.25.383.141.116.256.129.4929.015.073.105.07.281.097.099.251.132.021.097-.061.112-.111.088-.205.056-.195.022-.196-.036-.291-.022-.33-.002-.234.699-.167.245h-.095l-.255-.119-.109.019-.294.62-.041.149-.02.112.156.239.1871.197.223.077.175-.059.142.079.166.198.285.131.403.063.229.156.028.135-.02.137-.036.356-.039.205-.217.538-.155.463.08.22.058.09.055.069.174.173.121.171-.104.437.057.115.2329.077.251.059.088.072-.218.4429.046.3081.092.289.066.4719.01.05-.018.118.143.366.221.7131.017.2659-.013.2811-.065.4689-.221-.002.197.313.063.225.027.314-.237.039-.168-.035-.14-.275-.065.25-.25.231-.09-.113-.052-.121-.01-.214.138-.817-.028-.092-.062-.061-.137-.033-.0511-.166-.2089.8721.0919.3559-.042.162-.39.136-.395-.327-.05-.105-.023.184-.071.224-.37-.041-.1829-.175.119-.298.229-.72.043-.321-.307-.236-.26-.145-.149-.328.057.36.139.128.202.09.214.184-.154.224-.15.139-.287.528-.35.295-.408.222-1.34.326-.281.132-.411.406-.266.385-.049.39.15.421.122.658.102.134-.143.24-.2491.255-.2059.343.0189.188-.0529.127-.706.421-.148.246-.194.244-.232-.14-.136.0021.187.194-.024.1279-.0659.0751-.178.07-1.02.309-.78.293-.219-.012.04-.089.137-.079-.0139-.336-.1431-.062-.124-.024-.594.41-.24.405.05.077.135-.019.399-.2291.186.065.013.09-.606.35-1.275,1.1319-.06.223-.1661.252-.229.237-.411.573-.788.8511-.219.3169-1.262.654-.23.194-.518.636-.532.52-.621.431-1.077.549-.655.519-.205.345-.013.123.07.167.12.156.027.124-.0591.222-.032.123-.192.304-.3289.217-1.065.453-.141-.014-.8691-.09-.325.082-.1339.212-.2991.877-.286.233-.103.211-.041.146-.172-.004-.148-.065-.108.047-.124-.294-.208-.06-.172-.021-.734.296-.257.238-.54,1.121-.134.722.127.796.188.635.037.287-.023.372-.096.181-.068.214.09.441.227.577.055.244.005.251.171.5759-.115-.104-.091-.243-.216-.31-.265.309.146.222.494.264.146.216-.318,1.921-.241.681-.296.446-.157.172-.3506.7084-.244.851-.049.327.11.366-.125.216-.156.165.297-.074.1019.198.0381.205.004,1.216-.033,1.266-.229.052-.251.013-.222-.036-.159-.049-.396.067-.213.14-.171.232.012.396-.734.996-.158.332-.058.319.095.167.188.1709.245.069.473.069.227.0911.154.169-.557-.18-.6551-.036-1.566.462-.4119.324-.23.281-.158.642-.027.429-.186.357-.813.548-.514.169-.195.146-.606-.189-.661-.48-.278-.258-.981-1.24-.179-.157-.198-.5311-.0311-.198-.0549-.079-.0931-.0539-.0449-.082-.2211-.6081-.09-.634-.141-.709.118.049.164.233.082.339.01.474.123.055.11-.045-.315-1.092-.274-.271-.072-.018-.0771-.175-.008-.22.024-.104-.219-.358-.077-.213-.486-1.083-.219-.777-.339-.865-.219-.303-.341-.668-.286-.311-.303-.417-.238-.185-.093-.097-.705-1.447-.217-.801-.184-.378-.091-.288-.247-1.231-.002-.22-.03-.241-.176-.522-.309-.565-.089-.352.001-.1369-.196-.55-.042-.251-.132-.232-.154-.213-.16-.171-.377-.5581-.135-.1359-.257-.362-.183-.669-.234-.262h.368l-.225-.248-.106-.162-.118-.1.171-.25-.28.007-.148-.15-.203-.47-.3691-.532-.0629-.284-.326-.895-.276-2.153-.253-.961.02-.276-.306-.8341-.149-.56-.061-.4751-.081-.312-.073-.62-.117-.196-.013-.118.078-.283.219-.437.081-.277-.095-.39-.1989.41-.186.115-.089-.306-.001-.412-.023-.099.049-.138.492.063-.56-.253-.066-.148-.021-.111.12-.205-.2039-.173-.082-.53-.06-.121-.023-.098.116-.733.482-1.443.036-.327-.042-.465-.107-.37-.046-.392-.029-.101-.175-.036-.166-.145-.192-.582.176-.191.136-.105-.187.044-.154-.018.292-.269.261-.206.595-.239.2529-.153-.374.138-.392.052-.832-.0281.139-.544.145-.182.157-.102-.231.031-.268-.043.086-.553.211-.12.227-.023.2819-.079-.302-.091-.3129-.044-.3771.091-.346-.067-.421.001.168.074.18.168-.09.3-.085.187-.231.129-.1891.195-.0529.171-.107.12.185.085.19.061.11.139.13.201-.0071.391-.4979.919-.172.205-1.247.554-.4891.301-1.044.391-.406.073-.45-.078-.658-.297-1.004-.761-.261-.251-.803-.979-.579-.519-.439-.483-.544-.458-.513-.6181-.109-.282.038-.287.191-.156.224.063.177.242.125.108.105.044.766-.371.297.0151.203-.186.257.0409.524-.29.22-.018.2621-.058.422-.735.3159-.468.2051-.098L6.577,40l-.057-.149-.153.038-.107.142-.079.172-.08.103-.248-.095-.167.016-.206.056-.7529.274-.31.246-.21.049-1.203-.271-1.176-.622-.495-.414-.313-.529-.313-.631L.81,38.208l.486-.38.42-.299-.377.133-.4081.185-.202.129L.5,38.247l-.304.061-.12-.402L0,37.514l.194-.132.136-.083.276-.07.302-.05.2739.002.3871.006.011-.92.0319-.081.055-.047.063-.02.053.014.079.138.099-.008.105-.08.234.06.188-.0409.19.0539.3239.001.5851-.022.325.007.21.146.23.161.249.0231.361-.0191.245-.062.124-.15.0931-.144.5349-.21.562-.171.162-.019.051.1-.025.167.065.159L7,36.324l.159.025.143-.023.1061-.051.228-.25.118-.057.153.004.172-.12.003-.092-.109-.044L7.88,35.584l.018-.107-.0269-.152.019-.144.073-.108.1279-.104-.0759-.215-.196-.412-.205-.528-.217-.44-.2751-.386-.142-.284.015-.627-.024-.127-.0949-.078-.127-.043-.1791.064-.161.012-.346-.014-.17-.064-.4619-.631-.061-.248-.002-.255.153-.444.047-.414.021-.386-.025-.109-.0931-.13-.155-.096-.415-.0231L4.408,28.963l-.3791-.2251L3.765,28.602l-.071-.089-.032-.104.069-.469.119-.529.087-.162.15-.168.111-.114.178-.151.481-.506.431-.697.2671-.487.1389-.145.1421-.124.2069-.15.24-.137.238.006.226.125.168.146.057.323.1191.209.128.126.17.061.217-.015.869-.37.2961-.075.71-.046.487-.143.431-.15.053-.269.166-.411.506-.536.143-.239.153-.458.163-.418.141-.174.796-.46.779-.423.128-.192.5041-.88.288-.599.075-.193.167-.521.181-.52.24-.121.535-.198.424-.194.218-.222.131-.194-.024-.192-.117-.228.024-.136.021-.134.309-.273.579-.809.348-.405h.115l.363-.216.3449-.2439-.02-.111-.043-.1441-.198-.0639-.063-.1731.049-.2479.166-.667-.034-.192-.202-.62.045-.171.083-.176.226-.234.291-.195.932-.462.1891-.051.323-.117.198-.247.0239-.211-.0869-.131-.193-.176-.363-.159-.328-.139-.557.015-.289-.119-.079-.083-.04-.294.0561-.498-.087-.044-.124.059-.294-.059-.3611.007-.138-.139.068-.167-.021-.223-.054-.212-.056-.044-.173-.051-.269-.184-.217-.227-.127-.154-.039-.106.0121-.07.158-.197.188-.277.0689-.238.021-.173-.053-.127-.1729-.156-.185-.137-.074-.119-.003-.18.069-.225.217-.17.385-.161.1-.2-.013-.1481L16.96,5.075l-.271-.001-.456-.051-.0771-.082-.052-.11-.0009-.1091.097-.1239.116-.1571-.021-.153-.134-.173-.321-.126-.044-.179.05-.149.106-.213.093-.148.219-.422.266-.092.326-.137.36-.151.555.113.27.056.546.129.458.108.4681.031.1939-.008.214.128.529.219.43.115.291-.001.429-.194.214-.178.2881-.195.369.008.7979-.301.149.052.237.017.286-.174.147-.206.023-.104.071-.076.306-.131.307-.182.0831-.24.051-.163.336-.21.35-.219.366-.229.416-.261.352-.221L27.0374,0l.032.039.113.082.122.04.143-.077.179-.064.094.036.013.104-.107.488.009.1911.179.397.232.643.218.6019.128.3941.127.161.529.165.436.135.2589.221.2861.212.2.13.0949.167.02.15-.018.101-.1091.133-.502.342-.06.108-.015.142.099.423.062.265.018.532.0331.5051.1779.23.146.148.089.134.18.185.151.137.129.081.063.181-.037.213-.054.185.0171.1.104.071.159.185.021.27-.011.186.063.167.017.185-.049.461.008.208-.139.013-.119.071-.169.29-.195.076-.2211.023-.228-.178-.187-.186-.051-.103-.047-.196-.101-.128-.194.06-.295.027-.3189.043-.0591.043-.0059.083.078.176.0659.229.04.32.086.212.027.067.511.636.1339.129.0281.085Z" fill="url(#radial-gradient)"/></g></g></svg>