<svg xmlns="http://www.w3.org/2000/svg" xmlns:xlink="http://www.w3.org/1999/xlink" width="27.428" height="27.786" viewBox="0 0 27.428 27.786"><defs><radialGradient id="radial-gradient" cx="13.714" cy="13.893" r="13.8038" gradientUnits="userSpaceOnUse"><stop offset="0" stop-color="#ffd496"/><stop offset="1" stop-color="#f29d25"/></radialGradient></defs><title>IQ</title><g id="Layer_2" data-name="Layer 2"><g id="Layer_1-2" data-name="Layer 1"><path id="IQ" d="M16.816.805V.831l.093.249.231.925.132.117.15.098.106.137.0419.138-.013.214.0051.248.062.19.086.144.08.072.12.007.144.035.097.143.309,1.043.029.136.13.044.213-.02.219.108.234.168.22.317.1481.051.4639-.047.6341.051.297.163-.03.101-.2289.112-.403.132-.119.223-.067.289.012.162.099.178.284.354.016.128.051.178.053.122-.0591.235-.258.163-.3389.176-.681.784-.051.169.004.462-.068.132-.215-.002L18.88,9.636l-.0089.161-.107.216-.0611.187.25.441.0451.234-.04.213-.2319.366-.137.246.0329.055.1811.098.562.803.181.282.238-.074.089.005.069.045.043.095v.12l-.06.18.303.073.109.182.3529.622-.013.185-.1689.293-.002.194.036.174.055.061.521.025.221.07.5409.316.6161.485.503.397.429.337.46-.024.125.061.116.105.132.277.263.625.224.207.345.499.324.467-.213.634-.209.658v1.3l.44.019.489.022.004.541.0039.543.0041.618.144.026.228.133.0979.2.1221.109.1489.018.1461.098.145.179.053.134-.039.093.031.162.101.232.123.109.191.134-.2591.077-.28-.059-.597-.271-.194-.008-.253.103-.011.092-.6311-.303-.2269-.061-.082-.006-.362.003-.515.055-.303.123-.21.13-.096.128-.034.069-.164.377-.19.483-.197.434-.3831.61-.2119.281-.4551.522-.492.105L20.14,27.683l-1.265-.115-1.259-.113-.937-.085-.072-.028-.927-.746-.732-.591-.915-.739-.934-.757-.948-.769-.689-.56-.836-.722-.761-.659-.601-.522-.771-.456-.602-.358-.878-.521-.701-.417-.601-.358-.9251-.552-.307-.15L3.52,18.28l-.909-.156-.941-.162-.6261-.108.4131-.394-.127-.354-.301.065-.277.084-.168-.551.214-.069L.6,15.914.397,15.17l-.196-.721L0,13.71l.795-.475.594-.355.831-.498.801-.481.763-.459.841-.507.752-.454.689-.185.146-.143.314-.622.269-.532.013-.123.001-.757.047-.891.0889-.477L7.1,6.328l.1419-.309L7.257,5.73l-.019-.294-.1471-.445L6.938,4.526l.017-.448.028-.24.096-.385.164-.282.1759-.174.6541-.18.389-.107.52-.5.309-.298.43-.472.3171-.348.025-.121V.924l.272-.071L10.838.43l.2969-.395L11.2289,0l.2651.129.19.036.437-.15.26.079.219.1.122.007.587.246.147.03.302.03.451.014L14.5.36l.205-.155.144.004.14.037.118.066.099.116.047.166-.0191.529.0441.139.08.1.101.019.123-.115.214-.167L16.06.917,16.256.75l.113-.063.177.009.173.029Z" fill="url(#radial-gradient)"/></g></g></svg>