<svg xmlns="http://www.w3.org/2000/svg" xmlns:xlink="http://www.w3.org/1999/xlink" width="54.105" height="48.7868" viewBox="0 0 54.105 48.7868"><defs><radialGradient id="radial-gradient" cx="27.0525" cy="24.3934" r="25.7573" gradientUnits="userSpaceOnUse"><stop offset="0" stop-color="#ffd496"/><stop offset="1" stop-color="#f29d25"/></radialGradient></defs><title>IR</title><g id="Layer_2" data-name="Layer 2"><g id="Layer_1-2" data-name="Layer 1"><path id="IR" d="M2.2166.4366l.059.078.455.745.2.219.117.186.079.207.139.14.184.076.223.2.151.156.253.323.268.12.973.233.541.108.156.031.414-.156.485.021.18.008.641-.658.195-.22.382-.114.2151-.263.3449-.318.4211-.3.387-.27.296-.1629.536-.382.335-.132.2911.004.4359.448.367.407.113.178-.182.16-.34.154-.065.113-.023.145.013.138.046.113.417.261.047.144.003.146-.047.091-.093.053-.29.073-.2491.085-.0859.083-.0751.099.011.11.075.125.509.34.058.125.101.168.125.103.212.028.102.069.492.626.12.044.575-.138.08.006.005.153.086.886.066.457.099.443.155.404.184.383.2541.236.564.284.274.082.721.057.712.125.42.133.1291.094.106.144.348.668.548.475,1.106.711.536.236,1.806.446,1.2021-.025,3.322-.861,1.104-.215h.415l-.247.171-.415.098.25.121.387.02.179-.02.13-.109.021-.181-.019-.179-.1829-.803-.1061-.568.779.039.303-.074.446-.19.338-.115.17-.016.168-.089.129-.112.29-.779.145-.196.4921-.44.418-.279.438-.248.555-.173.737.018.5869.0611.34-.003.161.018.1209-.025.07-.051.0759-.342.12-.112.207-.096h.29l.354-.025.294.023.37.131.483.011.322-.023.187.131.135.175.065.146.015.2-.003.152.0511.059.1959.091.273.068.5311.082.499.158.259.107.36.1669.4291.4151.1589.065L40.3,7.65l.137-.0109.322-.175.28.129.1421-.017.322-.096.342.12.852.454.094-.01.077.046.071.104.05.1279.0629.39.246.285.301.259.3511.142.7329.339.32.2749.324.4661.4.613.058.056,1.028-.0191,1.156.0011.141.2449-.026.485.041.497.104.343.001.316-.083.16-.065.1831-.019.08.148.1141.13.262.019.3649-.064.193.009.16.065.136.056.227-.01.137-.093.136-.0561.17-.0739.215-.027.17-.14.079-.111.057.0189.215.0561.181.065.214-.074.147-.047.169-.103.271.028.225-.111.191-.14.169-.093.1351-.019.191-.1019.067-.195.157-.12.112-.177.034-.037.09.028.0889.074.056.1149.194.24.3341-.692.042-.203.295-.237.422.116.852-.116.437.07.245.177.169.227.094.426.006.282.066.028.113-.1619.165-.259.309-.138.135-.441.62.004.264.041.213.19.667.186.645.333,1.16-.006.269-.104.596-.007.362.047.469-.0349.242.0819.542.093.039.721.105.6611.097.8809.128.2671.317.166.695-.01.519-.075.265-.63.755-.64.764-.6389.761-.662.787-.069.083.535.628.331.388.467.545.059.131-.0041.214.4791.828.169.431.1519.253.3791.395.37.385.401.176.2739.039.6241.203.228.162.366.408.43-.056h.089l.024.029.013.131-.063.633.119.637.083.957-.031.165-.103.276-.005.177-.027.109.028.048.1371.065.2919.035.7051-.107.0819.027.169.113.1271.177.0109.084-.1779.1471-.029.2489.0529.373-.0239.045-.156.0841-.0511.538-.028.049-.182.055-.86-.037-.098.015-.323.142-.554.102-.152.058-.204.162-.1469.197-.0281.182-.0289.038-.3171-.037-.104.158-.615.236-.0759.051-.0911.1879-.0819.5271-.074.4729-.047.069-.194.162-.0189.055.026.183-.0881.333-.0689.923-.0771.258-.153.021-.12.129-.22.159-.475-.123-.377-.1289-1.248-.3031-.137-.147-.078-.259-.216-.073-.31.388L44.9,47.9168l-.3579.069-.221-.121-.568-.007-.448-.242-.643.166-.508.032-.697-.424-.7491-.117-.6079.036-.313-.033-.507-.152-.24-.157-.3951.12-.1779-.223-1.117-.207-.207-.395-.155-.367-.0121-.378-.2719-.6619-.091-.9631-.1011-.377-.151-.328-.2009-.279-.2731-.299-.2379-.119-1.044-.228-.201.03-.467.149-.497.331-.816.188-.164.142-.205.32-.266.186-.364-.048-.392.189-.727.527-.383.161-.321-.012-.345-.25-.771-.336-.499-.112-.692.077-.328-.056-.557-.395-.146-.2869-.318-.192-1.008-.431-.816-.57-.15-.216-.1-.319-.355-.388-.797-.317-.452-.338-.53-.076-.493.011-.217-.061-.197-.145-.673-.7-.008-.2771-.415-.686-.0969-.245-.089-.681-.115-.178-.433-.281-.067-.184.092-.245v-.186l-.225-.1749-.338-.093-.082-.21.062-.409-.051-.257-.298-.411-.44-.421-.439-.624-.172-.156-.112-.409-.161-.486-.248-.035-1.202.583-.351-.328-1.0541-.57-.073-.086-.0739-.131.133-.076.132-.031.265.102.159-.12-.063-.194-.265-.12-.36.009.099.182-.337.172-.072.225.049.279.029.39-.137.188-.106.087-.453.023-.212.172-.137.041-.191-.134-.123-.109-.101-.232-.031-.162.039-.092-.053-.135-.145-.179-.146-.098-.148-.018-.123-.109-.098-.2-.229-.132-.144-.026-.004-.619-.0041-.543-.004-.541-.489-.022-.44-.019v-1.301l.209-.658.213-.634-.324-.467-.345-.499-.224-.208-.263-.625-.131-.277-.116-.105-.125-.061-.459.024-.429-.337-.503-.396-.615-.485-.542-.317-.221-.07-.521-.024-.0549-.061-.0361-.174.001-.194.169-.293.013-.185-.353-.622-.109-.182-.302-.073.06-.18v-.12l-.043-.095-.07-.045-.0889-.005-.237.074-.1811-.282-.563-.8031-.181-.0979-.033-.055.137-.247.232-.366.04-.2121-.044-.234-.25-.441.061-.187.1069-.215.009-.162.168.024.2151.002.068-.132-.0041-.462.0511-.169.682-.784.339-.176.258-.1619.059-.236-.053-.122-.051-.1781-.016-.1279-.284-.354-.099-.1781-.012-.163.067-.2879.119-.224.403-.132.229-.112.031-.101-.297-.163-.6339-.051-.464.047-.148-.051-.22-.316-.234-.168-.219-.108-.213.02-.1291-.043-.03-.1359-.308-1.043-.097-.143L3.1782,11.94l-.121-.0069-.08-.072-.086-.144-.062-.189-.0041-.249.013-.214-.042-.138L2.69,10.79l-.15-.099-.132-.116-.231-.925-.0931-.249v-.026l.0041-.049-.023-.213.107-.185-.0071-.073-.2219-.234-.3121-.234-.0839-.041-.0021-.25.011-.189-.028-.171-.06-.098-.002-.077.125-.184-.081-.121-.459-.299-.172-.15-.318-.03-.033-.099.05-.209.109-.254.172-.25.055-.132.067-.225.023-.16.193-.225.001-.059-.054-.081L.99,5.0379l-.158-.019-.0591-.041L.752,4.8569l.02-.492-.05-.296-.065-.215.041-.485-.11-.098-.173-.255L.3411,2.8l.04-.081.037-.142L.442,2.39l-.007-.132-.159-.129L.158,1.993l-.014-.15L.097,1.659.03,1.513,0,1.418l.058-.056.225-.044.327.031.267.002.151-.094L1.215.37,1.386.136,1.584,0l.3871.316.16.111Zm31.9119,42.701-.262.375-.395.313-.168-.097-.131.004-.282.12-.203.021-.369.213-.336.107-.233-.008-.081-.022-.046-.145.004-.058.1421.03.5189-.194.647-.318.062-.142-.104-.231.028-.052.42.118.469-.23.392-.063.1841.16Z" fill="url(#radial-gradient)"/></g></g></svg>