<svg xmlns="http://www.w3.org/2000/svg" xmlns:xlink="http://www.w3.org/1999/xlink" width="30.645" height="20.69" viewBox="0 0 30.645 20.69"><defs><radialGradient id="radial-gradient" cx="15.3225" cy="10.345" r="13.0728" gradientUnits="userSpaceOnUse"><stop offset="0" stop-color="#9b0400"/><stop offset="1" stop-color="#4c0200"/></radialGradient></defs><title>IS</title><g id="Layer_2" data-name="Layer 2"><g id="Layer_1-2" data-name="Layer 1"><path id="IS" d="M25.069,2.082l.322.026.526-.239.22-.157.541-.545.319-.152.493.038.237-.038.006.053-.303.221-.242.076-.348.329-.331.74-.245.362.002.161.298.285.327.161.3-.146.131.057.118.211.067.209.015.207-.054.432-.18.433-.244.362.034.114.196.058.929-.234.097.017.053.117.011.216.051.195.092.175-.029.178-.407.563.481-.354.379-.1.65.178.266.204.155.359.225-.119.098.007.147.204.005.218-.108.309-.037.286-.113.117-.211.085-.06.095.093.217.137.212.194.009.035.098.004.117-.026.138-.063.094-.101.052-.133.151.488.33.062.123.007.179-.038.197-.083.214-.147.126-.352.021-.216.139.074.23-.006.291-.065.343-.277.517-.26.275-.255.178-.454-.063-.247-.137.027.445-.252.273.047.228.088.116-.043.292-.12.289-.201.312-.228.195-.453.235-.387.389-.264.154-.658-.007-.671.25-.948.526-.639.42-.493.475-.651.772-.483.324-.279.087-.543.069-.455.209-1.511.39-.511.213-.066.193-.212.291-.013.105.092.081.018.105-.187.343-.374.247-.176-.004-.214-.213-.093.008-.037.033-.002.066.123.256-.226.118-.984.298-1.675-.22-.663-.229-.819-.366-.487-.097-.691-.024-.568-.512-.263-.317-.021-.132.03-.151.059-.103.088-.055.187-.006.025-.045-.143-.255-.137.083-.365.36-.163-.013-.214-.18-.008-.175-.417-.067-.363-.219-.361-.315-.054-.12.174-.177-.034-.034-.131-.03-.263.058-.397.399-.171.092-2.593.093-.658.041-.127.061-.114-.259-.102-.58-.038-.383.026-.186.091-.223.141.038.134.177.122.251.139.122.905-.306.368-.206.156-.195.184-.334.195-.171.093-.161.183-.513.126-.238.152-.177.176-.114.4-.081-.263-.121H7.939l-.854.543H6.798l.012-.085.121-.153.294-.265-.202-.02-.077-.12-.009-.253.15-.409.696-.54.241-.08.073-.107-.091-.087-.146-.053-.7.557-.51.192-.151-.037-.264-.215-.085-.097-.114-.247.014-.149.242-.438-.039-.085-.167-.043-.449-.404-.71.041-1.759-.235-.364.1-.599.347-.362.114-.167-.075-.152-.184-.138-.247-.124-.313.053-.217.232-.124.17-.059.479.075.584-.219.372-.046.107-.035.219-.233.108-.059.168.082.082.158.587-.246.202-.123.023-.077.088-.088.292.133.237.004.295-.092.522-.04,1.169-.021L7.426,9.9l.082-.178.103-.453-.046-.093-.729.417-.167-.007-.845-.221-.305-.25.1-.201.448-.434.462-.348.68-.378.159-.147.017-.175-.454-.311-.857.086-.22-.369-.713-.219-.474.137-.252-.224-.616.31-1.354.447-.539.309-.29.103-.334-.252L.706,7.164.058,7.075,0,6.907l.378-.515.259-.094.26.048.497.359.343.113-.43-.528.011-.203-.033-.305-.132-.131-.132-.338.054-.114.169-.041.346.115.823.586.404-.104.221-.216.303-.16-.086-.083-.711-.01-.381-.12-.192-.172-.167-.293.059-.135.198-.108.607.032-.4-.511L1.99,3.685l-.03-.142.019-.178.037-.12.057-.06.696.3.153.012-.141-.193-.306-.285-.013-.107.129-.087.063-.163.006-.134.211-.116.214-.005.215.106.666.556.095.156.032.205-.033.255.028.102.26-.087.208.107.103-.029.259-.383.178.091.107.179.034.162.016.222-.046.462.012.065L5.4,4.315l.308-.02.04-.131.009-.486-.025-.412-.034-.084L4.684,2.61l-.176-.136-.221-.282.045-.142.198-.127.297-.051.691.007.07-.06L5.454,1.67l-.319-.096L5.06,1.487l-.038-.166-.379.091-.423.004-.407-.102-.008-.129.16-.19L4.298.68,4.452.601l.465.055L5.378.567l.374.108.297.312.421.548.57.349.053.11.303.285L8,3.045l.613.443.028.113-.101.132-.236.155.054.085.308.113.222.298.015.13-.201.92-.107.195-.122.103-.566-.173.134.292.405.31.091.173-.06.17.044.039.148-.091.062.096-.026.283-.063.235-.101.186.03.081.158-.025.148.048.232.257.188.783.093.252.068-.224.084-.571.079-.292.075-.013.064-.096.054-.18.11-.636.38-.483.181-.149.171-.032.082.06.285.507.173.085.088-.027.122-.345.154-.662.035-.742-.083-.823.048-.59.181-.353.237-.109.295.136.215.216.424.82.343.429.294.458.152.149.292.075.078-.03.052-.105.027-.182-.063-1.171.082-.365.124-.261.526-.153.287-.164.279-.269.231-.145.184-.019.191.105.201.229.312.446.393.737.5.548.261.868.056.146.062.017.066-.113.042-.159.012-.386-.14-.512-.467-1.297-.008-.247.059-.198.329-.022.766.12.244.202.521.794.146.192.089.048.033-.096.202-.147.139-.178.233-.438.509-.79.106-.023.148.062.261.207.124.166.245.126.251-.044.347-.277.393-.17.134-.393.025-.18L22.269.558l.133-.242.685-.293L23.686,0l.142.081.377.575.256.288.129.231.031.509.155.187Z" fill="url(#radial-gradient)"/></g></g></svg>