<svg xmlns="http://www.w3.org/2000/svg" xmlns:xlink="http://www.w3.org/1999/xlink" width="33.2788" height="39.162" viewBox="0 0 33.2788 39.162"><defs><radialGradient id="radial-gradient" cx="16.6394" cy="19.581" r="18.1698" gradientUnits="userSpaceOnUse"><stop offset="0" stop-color="#9b0400"/><stop offset="1" stop-color="#4c0200"/></radialGradient></defs><title>IT</title><g id="Layer_2" data-name="Layer 2"><g id="Layer_1-2" data-name="Layer 1"><path id="IT" d="M19.8449,2.283l-.057.233-.119.058-.208.136-.238.186-.222.209-.06.227.061.148.06.051.081-.045.118.028.148.081.247.079.007.078-.052.1-.192.177-.173.2-.017.122.021.089.06.054.256-.024.038.073-.125.513.039.087.225.082.164.123.307.324.122.262-.084.088-.193.043-.157-.022.178-.158-.435-.5759-.197.001-.261.2439-.726-.247-.139.1-.103.1951-.252.242L17.61,5.95l-.398.266-.419.188-.32.142-.184-.025.292-.307-.124-.006-.388.217-.223.183-.072.308-.065.5061.17.134.298.6659.367.284-.071.271-.097.214-.222.185-.184-.137-.113.003-.085.433.159,1.151.2561.804.2539.35.573.543.606.286,1.09.9111.5981.2879.1569.1561.362.699.313.8049.337,1.258.24.617.484.6961,1.004.992.9131.723.85.446.6631.078L26.2,20.18l.273.042.29.12.069.309-.106.208-.33.216-.336.299-.0369.407.314.286,1.514.757,1.5479.631.482.321.559.499,1.349.684.2281.332.82.713.371.549.0709.425-.177.431-.0819.303-.139.299-.349-.113-.397-.308-.598-1.254-1.091-.127-.226-.093-.388-.216-.023-.143-.096-.178-.099-.06-.417-.04-.289.204-.34.483-.3859.693-.3921,1.013-.0219.408.213.395.636.22.491.351.324.366.023.881.145.499-.213.283-.4131-.073-.55.18-.39.322-.1619.306.0419.792-.08.301-.739.568-.388.58-.097.24-.148.272-.933.01-.221-.337-.008-.501.16-.309.343-.145.231-.644-.073-.466.1351-.207.127-.146.261-.086.369-.082.037-.653-.2881-.297-.101-.417-.1339-.772-.475-.989-.2541-.885-.1989-.438-.302-.229-.545.003-.271-.065-.964-.618-.067-.094.006-.165.16-.249-.1079-.337-.114-.319-.1891-.272-.2069-.142-.4341.087-.1519.067-.274-.023-.2151.121-.12.004.338-.479-.091-.113-.334-.197-.454-.03-.126-.024-.074.123-.088-.067.009-.214-.527-.962-.354-.393-.179-.07-.323.083-.541-.172-.323-.038-.178.042-.266.125-.1339-.083-.047-.129-.491-.401-.613-.227-1.193-1.283-.366-.481-.753-.531-.476-.776-.39-.285-.5669-.229-.1311.029-.17.086-.134.012-.106-.101.108-.104.121-.047-.0469-.298-.646-.774-.378-.25-.107-.154-.079-.211-.081-.139-.179-.08-.153.014-.211-.053.007-.374.0419-.287-.032-.244-.206-.643-.3559-.546-.21-1.311-.162-.371-.394-.281-.889-.316L7.47,11.063l-.262-.015-.7449-.332-.4621-.057-.6.298-.729.818-.591.8469-.215.164-.763.288-.674.137-.007-.216-.024-.163.1141-.1789.188-.211.173-.266.0719-.192-.034-.128-.078-.19-.1059-.014-.642.16-.147-.041-.475-.249-.511-.306-.188-.218-.071-.22.053-.142-.042-.138-.1-.186.09-.211.159-.263.08-.179.134-.046.064-.109-.107-.436-.056-.07L.8759,8.944l-.142-.006L.486,8.848.31,8.697.272,8.493.179,8.297.02,8.117,0,7.92l.181-.104.247-.004.174.039.39-.317.144-.028.129-.068.108-.434.0831-.13.02-.076-.077-.091-.315-.306L.94,6.081.713,5.722.502,5.563.459,5.439.454,5.282l.043-.139.382-.216.226-.23.097.088.206.094.559-.128.347-.129.244-.136.151.024.548.203.181-.103.395-.275.059-.145.312-.44.006-.107-.128-.277.04-.061.382-.284.187-.252L4.894,2.6l.146-.004.04.058.017.118-.013.486.056.149.3.348.214.198.497.136.023.065-.137.261.301.312.054.228.139.128.196-.063.064-.121-.077-.211-.057-.221.011-.128.054-.147.137-.206.372-.472.134-.273.024-.423.001-.34.124-.083.267.061.08-.007.036.209.114.333.134.172.143.041.168.001.416-.203.271-.088.154.024.091.138.194.363.111.041.134-.042.047-.062-.043-.14-.057-.303-.078-.235-.102-.11-.021-.143.064-.258.073-.216.142-.059.163-.027.2149.229.2551.072.19-.012.0329-.133-.0119-.146-.1131-.188.022-.285L10.736.89l.075.041.282.005.307.03.198.217.194.074.276.023.185-.03.09-.082L12.45.914l.198-.315.31-.162.53-.03.265-.059.275.003L14.235.4l.214-.006.544-.22L15.554,0l.078.029.012.058-.101.134-.098.178.066.203.319.407.174.311.164.233.255.123.335.075.284.027.297.0881,1.019.217.513.06.389.009Zm-3.409,10.401.0831-.2-.0311-.143-.1759.029-.124.186.083.157Zm-.129,7.648-.002-.03-.021.003-.009.018.009.012Zm-5.736-3.634.093.148.011.086-.063.098.026.22-.235-.183-.355.092-.218-.02-.06-.164.05-.096.338-.021.105-.047.206.022Zm-2.143,7.421.141.236.315.966.03.208-.063.213-.08.151-.313.484.046.399.116.247.017.273-.058.338-.194,2.069-.094.365-.059.315-.214.096-.276-.101L7.394,30.2l-.1611.011-.1619.061-.133-.052-.1271-.101-.095.706-.157.286-.239.183-.225.011-.232-.061h-.196l-.149-.135L5.4,30.871l-.188-.289-.191-.343L5,29.928l-.033-.687.055-.15.08-.144.039-.3081-.027-.269.056-.096.111.096.083-.036-.005-.139.025-.253-.146-.212-.247-.072-.024-.222.026-.217.13-.146.044-.194.001-.593-.174-.2189-.067-.332-.09-.2121-.162-.2139-.184-.1741-.113-.168-.025-.44.064-.368.058-.158.059.0231.182.183.149.041.295.044.29-.059.3559-.167.343-.202.497-.595.306-.121.157-.157.054-.212.13-.055.1531.206.19.022.293.17.126.162.108.195.104.086.111.049.016.046-.0881.046-.101.223.057.064Zm-3.777-.584-.0929.169-.132-.012.052-.125.122-.251.148-.084.066.075-.07.144Zm15.863,1.236-.125.032-.073-.044-.04-.056.049-.139.255.083-.003.078ZM5.1929,30.739l-.162.356-.169-.252-.007-.216.0231-.0621.208.091Zm19.919,3.032-.19.404-.093.155-.677.985-.078.227-.048.247-.07.216-.094.203-.089.258.017.292.032.143.082.094.134.088.103.136-.158.1229.173.2471.148.146.02.146-.003.1459-.307.274-.12.151-.074.183-.032.188.0331.17-.01.169-.309-.021-.316-.104-.3189.045-.454-.196-.165-.035-.15-.077-.377-.608-.304-.257-.326-.201-.333-.012-.333.023-.294-.124-.599-.415-.6351-.333-.2689-.216-.123-.146-.144-.097-.363-.096-.327-.226-.148-.016-.319.027-.164-.016-.165-.08-.318-.265-.204-.368-.053-.163.144-.421.171-.405.151-.113.176-.082.106-.12.09-.147.327.424.146.103.1479-.023.2621-.152.0219-.167.29-.211.368-.004.17.039.089.191.14.059.162.025.534.363.15.059.151.01.415-.152.318-.058.667.084.36-.091.2521-.011.367-.14.2819-.233.147-.058.158-.017.3821.015.3839.053.161-.055.135-.153.1561-.069.171.046.443-.262.196-.018.1859.101Zm-9.894,5.154-.135.039-.176-.12-.012-.168.032-.05.214.077.067.156Z" fill="url(#radial-gradient)"/></g></g></svg>