<svg xmlns="http://www.w3.org/2000/svg" xmlns:xlink="http://www.w3.org/1999/xlink" width="5.974" height="2.37" viewBox="0 0 5.974 2.37"><defs><radialGradient id="radial-gradient" cx="2.987" cy="1.185" r="2.2723" gradientUnits="userSpaceOnUse"><stop offset="0" stop-color="#ffd496"/><stop offset="1" stop-color="#f29d25"/></radialGradient></defs><title>JM</title><g id="Layer_2" data-name="Layer 2"><g id="Layer_1-2" data-name="Layer 1"><path id="JM" d="M3.025.191l.342.105.354.055.152.003.143.034.323.253.26.138.985.309.328.533.062.167-.254.098-.321.035-.306.005L4.81,1.825l-.123-.078-.295-.038.074-.072-.131-.033-.164.007-.121.205-.134.162-.258-.016-.099-.138-.135.062-.11.102-.13.382-.211-.19-.229-.158-.287-.066-.58-.011-.274-.051-.228-.323-.09-.092-.229-.084L.828,1.024.746.973.127.894,0,.691.038.507.244.282.345.218l.342.01L1.014.16,1.158.064,1.308,0,2.492.163l.273.001Z" fill="url(#radial-gradient)"/></g></g></svg>