<svg xmlns="http://www.w3.org/2000/svg" xmlns:xlink="http://www.w3.org/1999/xlink" width="12.185" height="13.67" viewBox="0 0 12.185 13.67"><defs><radialGradient id="radial-gradient" cx="6.0925" cy="6.835" r="6.4744" gradientUnits="userSpaceOnUse"><stop offset="0" stop-color="#ffd496"/><stop offset="1" stop-color="#f29d25"/></radialGradient></defs><title>JO</title><g id="Layer_2" data-name="Layer 2"><g id="Layer_1-2" data-name="Layer 1"><path id="JO" d="M11.772,4.144l-.416.385-.098.042-.541.159-1.106.326-.741.218-.948.278-.787.232-.779.228-.722.212.412.446.629.681.42.453.495.582.442.519.469.549-.329.186-.542.306-.055.056-.047.057-.224.545-.176.429-.061.053-.756.158-.765.158-.482.101-.145.11-.314.533-.325.548-.542.448-.602.496-.149.032-.435-.076-.744-.13-.719-.126-.492-.085L0,13.148l.087-.419-.024-.227.142-.746.083-.353.041-.261.206-.529L.51,10.44l.043-.611L.532,9.711l.094-.334.176-.485.172-.419.062-.188.176-.398.159-.489L1.287,7.13l-.025-.052.064-.308-.002-.002.078-.504.042-.272.095-.361.168-.306-.078-.721.009-.39.105-.444-.058-.521.049-.744.011-.069.061-.09.047-.047.346-.155.148-.02.302.07.173.156.289.441.45.128.181.125.246.233.301.085.952.145L6,3.017l.642-.415.729-.472.496-.322.846-.549L9.271.912l.733-.459L10.728,0l.201.739.196.721.203.744.198.721-.214.069.168.551.277-.084.301-.065.127.354Z" fill="url(#radial-gradient)"/></g></g></svg>