<svg xmlns="http://www.w3.org/2000/svg" xmlns:xlink="http://www.w3.org/1999/xlink" width="62.1719" height="73.1942" viewBox="0 0 62.1719 73.1942"><defs><radialGradient id="radial-gradient" cx="31.086" cy="36.5971" r="33.9535" gradientUnits="userSpaceOnUse"><stop offset="0" stop-color="#ffd496"/><stop offset="1" stop-color="#f29d25"/></radialGradient></defs><title>JP</title><g id="Layer_2" data-name="Layer 2"><g id="Layer_1-2" data-name="Layer 1"><path id="JP" d="M56.535,5.49l.352.02.1569-.0181.269.059,1.067.591.3221.0751.333.009.234-.048.206-.162.644-.717.6779-.655.075.025V4.85l-.05.2009-.3.599-.333.804-.071.406.108.395.2089.326.165.445.19.617.268.078.146.009.268-.185.253-.235.218-.029.229.04-.301.164-.284.2-.244.378-.091.071-.281-.023-.161.014-.329.158-.289.1789-.276.219-.301.117-.321.0281-.495.1789-.321.013-.603-.156-.2931.042-.6389.352-.582.508-.509.569-.425.682-.171.354-.103.396-.014.262-.038.251-.098.175-.118.142-.351-.083-.576-.362-1.117-.527-1.18-.809-.664-.407-1.248.122-1.181.776-.105-.066-.451-.532-.219-.211-.261-.06-.1939.007-.188.039-.2671.274-.098.197-.076.224-.023.1579.032.155.253.35.312.26.141.049.299-.018.139.027.501.521.549.488.1209.161-.203.169-.222.084-.2589-.021-.256-.064-.438-.207-.188.176-.292.361-.161.392-.131.179-.322.236-.341.122-.179-.04-.136-.148-.077-.177-.039-.206.072-.446.177-.4031.068-.4119-.145-.581-.092-.122-.362-.341-.168-.3331-.04-.415.021-.229.088-.507.088-.256.166-.084.182-.051.279-.184.307-.238.294-.272.2911-.333.151-.366-.2491-.45-.052-.268.037-.253.266-.135.273.102.551.372.107.037.378.017.518.081.3-.02.145-.056.2181-.307.107-.392-.039-.505-.0021-.502.138-.41.432-.6611.1241-.39.045-.952.156-.42.125-.437.06-.918-.177-.886-.178-.436-.204-.415.03-.397L50.44.641,50.444.53l.039-.099.3091-.07.145-.079L51.076.104,51.241,0l.121.104.1.182.4359.447.6871.796.809,1.209.507.587.534.531.599.542.627.465.4.22.2931.35ZM48.812.7032l-.108.2521L48.558.58l-.029-.405.084.002.154.061.037.197Zm.625.848-.194.0281-.227-.166-.028-.208.164-.166.163.061.163.214.054.112Zm-5.0911,11.738-.064.02-.066-.032-.065-.285.0561-.15.181-.105.176-.029-.149.524Zm4.9061,2.6531.11.07.524-.189-.1.571-.056.575.038.952.047.428.091.414.224.296.292.21.423.669.227.82.16.397.12.416.037.19.0029.19-.036.26.04.21-.046.658-.189.759-.024.387-.165.077-.1.179-.085.083-.095.064-.137.016-.099.073-.039.2049-.063.189-.12.175-.094.192-.077.468-.028.479-.115.334-.279.087-.319-.005-.409.154-.088.091-.323.582-.093.341-.003.366.09.45.1221.439.0919.815-.0969,1.238-.094.395-.2051.267-.156.124-.1339.152-.174.401-.2881.798-.023.2.001.207-.078.27-.05.265.047.3081.089.2879.386.737.151.218.17.198-.659.219-.118.101-.392.418-.125.396.01.438-.065.157-.107.136-.112.09-.438.2-.28.199-.2781.311-.11.162-.215-.052-.126-.144.1241-.18-.0381-.213.061-.547-.069-.22.224-.167.1061-.266.232-.213.167-.189.0289-.154-.1489-.166-.1581-.12h-.218l-.21.0351-.137.1579-.045.215.011.1-.018.087-.33.2941.043.307.097.156.124.074-.037.105-.157.247-.109.024-.201-.346-.252-.189-.312.001-.32.069-.243.23-.08.191-.052.197.018.479-.101.4-.198.351-.092.128-.241.238-.167.031-.118-.108-.096-.164.122-.6-.005-.338.282-.172-.231-.24-.284-.097-.399.128-.113.145-.077.194-.215.246-.2361.229-.269.392-.18.463-.59-.151-.321-.034-.325.012-.576-.057-.632.095-.72.182.043-.131.592-.279.021-.082-.057-.153-.147-.007-.354.053-.1811-.023-.073-.164-.12-.07-.08.067.026.318-.0869.042-.117-.082.0369-.248-.0789-.363-.01-.226.124-.194-.127-.082-.134.031-.17.0929-.15.132-.317.663-.123.378.232.303.634.423.1079.104.002.18-.077.191-.172.083-.695.141-.603.2731-.174.276-.548,1.066-.439.727-.62.25-.68-.223-.165-.253-.133-.313-.253-.283-.229-.309-.133-.367.021-.592-.099-.357.089-.095.375-.218.123-.122.212-.284.076-.158.0109-.239-.17-.125-.44.004-.4391.075-.313-.104-.4069-.29-.126-.062-.438-.018-.313.054-.307.105-.325.034-.108.055-.375.355-.299.223-.258.111-.557.0289-.279.072-.292.117-.082-.01-.3079.162-.354.14-.188.14-.347-.092-.686.251-.332.0311-.3419-.1391-.318-.225-.305.097-.209.331-.102.658-.119.296-.036.355-.158-.056-.9181-.639-.063-.023-.742.11-.191.053-.239.129-.253.058-.23-.093-.221-.151-.212.045-.217.106-.084-.966.043-.127.133-.169.147-.145.359-.05.363.047.26-.066.22-.192.231-.272.261-.222.354-.175.342-.201.301-.282.285-.309.262-.2269.285-.19.434-.458.575-.515.221-.382.137-.105.495-.213.657-.164.31.008.306.335.165-.046.168-.087.3381-.048.348.056.34.001.34-.042.652-.11.344-.133.336-.172,1.196-.121.819-.289.13.021.1259.066.01.214-.104.233.1011.141.166.087.771.027.22.05.3221-.159.304-.197.317-.26.222-.293-.205-.367-.045-.402.172-.437.249-.368.296-.223.273-.257.552-.73.399-.592.144-.73-.084-.866.349-.646.334-.111.663-.295.348-.086.052.129-.01.169-.521.542-.299.223-.1779.069-.164.098-.0671.191.266.318.067.2349-.017.2251.012.203.3.22.345.073.144-.0021.126-.058.3939-.539.088-.094,1.12-.396.5511-.303.305-.079.286-.158.642-.61.236-.282.2151-.312.1719-.363.136-.393.186-.245,1.017-.585.3271-.319.104-.155.1259-.449.087-.467.123-.367.167-.344.223-.351.251-.327.148-.335.216-.803.094-.446.074-.161.1079-.135.094-.172.0721-.192.033-.19.046-.582-.028-.454-.168-.385-.139-.1091-.151-.006-.228.033-.193-.157.04-.139.1971-.026.1339-.072.097-.131.181-.421.108-.452.01-.2-.142-.365-.112-.439-.003-.237.123-.274.176-.223.157-.052.17-.016.155-.086.144-.125.081-.138.126-.376.049-.214-.08-.5759.0819-.158.1161-.098.155.074.16.015.1859-.023.178.061.033.148.112.972.0641.131.13.102.146-.015.1259-.151.0851-.201.168-.042.513.216.182-.154.118-.239.103-.423-.05-.382-.123-.142-.127.025-.112.105-.126.057-.757.201.0041-.426.1619-.64.089-.203.128-.096.318.112.155.074ZM41.154,28.8272l-.267.009-.066-.035.161-.088.015-.147.097-.262-.002-.075-.212-.014.011-.297.158-.294.435-.463.119-.087.018.203-.132.479-.026.173.342.036-.22.573Zm-13.958,5.664-.128.129-.24-.042-.139-.187.046-.211.251-.162.24.3251Zm17.08,5.069-.03.16-.149-.035-.071-.104.009-.187.157-.001ZM16.012,40.8242l-.057.163-.19-.1149-.087-.1041.177-.513-.021-.195.011-.095.351-.269.061.051.021.075-.0311.115.0181.254-.264.42Zm15.569.2211-.304.288-.264-.02-.132-.129-.044-.159.251-.25.216-.354.1959-.157.1581-.0881.124.003-.278.494Zm-1.631-.6611-.0521.067-.05-.018-.1791.155-.038-.149-.141-.099-.017-.078.403-.051.13.041Zm.015.7691.3889.141.397-.04-.006.617.057.207.1111.185-.057.2691.18.092-.5339.306-.4811.406-.198.273-.179.293-.104.31-.067.333-.161-.132-.464-.541-.294-.148-.473-.079-.15.018-.9719.505-.1291.369-.265.555-.126.183-.14.053-.099.095-.1079.472-.3011.29-.185.009-.314-.08-.142.045.188-.465-.3-.057-.301.01-.0071-.303-.182-.172.135-.224.0041-.183.0789-.101.027-.147-.011-.126-.185-.038-.1129-.089.021-.332-.1061-.012-.2639.058-.548.256h-.149l.229-.183.487-.25.219-.144.478-.404.3011-.191.156-.339.049-.206.102-.182.09-.291.154-.0969.269-.25.154.0239.172.3071.231.2349.166-.02.297-.121.144-.027.343.0151.309-.149.126-.176.047-.22-.115-.369.148.037.143-.015.335-.235.345-.14.357-.0351.402.133Zm-14.25.449-.183.137-.078-.2091.08-.594.343.1221-.006.182Zm9.258.0279-.081.1351-.2491-.041.1-.117.076-.142.056-.029.047.154Zm-.8771.573.1371.124.325-.05.04.035-.095.112-.144.1109-.26-.083-.164-.004-.023-.185.021-.0669Zm-3.0619,1.151.377.1.16.006.147-.045.226-.1311.235-.0969.169.049.1489.117.0781.165-.0381.172-.267.37-.22.394.5041.074.504-.008-.117.243-.02.212.154.101.1309.136-.034.123-.075.121.275.182-.018.122-.0709.128-.6871.834-.202.421-.14.463-.129.338-.094.351-.071.378-.128.39.043.345-.043.354-.345.872-.2459-.016-.3091-.105-.1929.016-.1.193.177.397-.55.471-.608.316-.004-.144.058-.113.087-.0911.0629-.11.089-.37-.044-.373-.184-.468-.013-.168.127-.068.085-.02.0461-.065.002-.155-.058-.115-.174-.037-.166-.002-.117.174-.1611.335-.078.339.034.185.071.166.221.277-.064.164-.092.127-.78-.289-.169-.021-.14-.061-.15-.381.3179-.092.094-.046.035-.122.043-.372-.148-.312-.1259-.111-.102-.127.064-.263-.042-.332-.004-.464.055-.08.2949-.094.2131-.249.1879-.284.2751-.5.226-.541-.217-.023-.184-.102.2-.256-.062-.324-.3-.398-.165-.47-.265-.208-.14-.076-.171.11-.14.132.13.306-.016.271.021.268.132.015.163-.067.13.047.076.141.021.181-.058.179-.119.089-.146-.007-.147-.097-.115-.138-.275-.076-.29.163-.275.332-.235.168.11-.246.053-.266-.114-.187-.27-.311-.063-.18-.016-.218.0479-.216.276.248.1421.309.204.136.255.001-.196-.454-.07-.115-.274-.204-.376-.343-.238-.166.084-.359.141-.071.118.017.398.127.037-.179-.059-.096-.03-.111.263-.155.4291-.128.088-.06.076-.129.1049-.067.3.002.253-.124.209-.3349.05-.184.074-.154.521-.272.129-.042.349.034.318.154.157.324.138.346Zm-3.87-.4909-.1939.139-.146-.108.071-.3.0479-.1.166.099ZM16.31,44.6252l-.197.1571H15.97l.13-.184.018-.087.109-.247.213-.0881.09-.0109-.174.256Zm-1.164,1.2741-.07.036-.09-.3-.063-.107.105-.057.211-.545.038.216.0819.214.082.034-.08.156-.117.058Zm30.21-.7181-.0491.035-.135-.109-.02-.0969.024-.06.088-.013.182.1189Zm-31.365.906.109.09.159-.0509.127-.012.091.043.115.2309.042.137-.205.0191-.087.032-.112.167-.161-.0621-.101-.079-.022-.111Zm3.977,1.835-.222.1181-.028-.1131-.094-.052.161-.159-.006-.0719-.102-.107.118-.406-.032-.175.443-.065.081.165.008.5Zm.838-.641-.248.0151-.103-.039-.0411-.105.3481-.2131.27.038-.12.192Zm-1.86,2.5261-.088.057.056-.258.226-.2261.019.146Zm3.484,4.1069-.246.034-.005-.1879.195-.4241.021-.312.182-.394.0771-.086.0579-.031.063.123-.07.482-.183.365Zm-.945.4331-.321.07-.176-.075-.162-.399.307-.25.41.248.084.071ZM16.201,60.92l-.242.2569-.257-.2319-.31-.155.1469-.042.086-.063.009-.098.201-.146.398-.113.127-.007.143-.106.047-.096.059-.046.2571-.132.07.152-.012.119-.193.066-.188.159-.175.198-.156.084-.05.056Zm-.361.33.0189.074-.275-.062-.112-.289.183.052.056.099Zm-.915,1.2131-.118.058-.157-.08-.049-.362.07-.176.123-.039.107.313.074.129ZM12.85,65.8152l-.271.1441-.1.1709-.25.0581-.243.24-.236.043.006.1929.101.163-.157.029-.165.199-.013.145.0591.116-.008.059-.208.172-.2151.008-.0089-.186.0139-.139.203-.338.005-.393.188-.045.068-.055.297-.28L11.971,66l-.154-.116.012-.137.035-.058.244.044.099.102.049.011.143-.076.0671-.136.266-.268L12.84,65.1l.2151.218-.058.286Zm39.093.1141-.052.002-.176-.331.051-.016.103.052.113.191ZM4.951,71.7313l-.237.08-.254-.0469.041-.429.088.06.055.146.189.086Zm-3.231.698-.165.484-.137.07-.14-.039-.144-.27.101-.104.14.055.113-.021.257-.394.062.064Zm-1.134.7219-.177.043-.213-.053-.194-.015L0,73.0352l.203-.094.004-.131.05-.071.459.161-.02.118Z" fill="url(#radial-gradient)"/></g></g></svg>