<svg xmlns="http://www.w3.org/2000/svg" xmlns:xlink="http://www.w3.org/1999/xlink" width="22.4134" height="28.4339" viewBox="0 0 22.4134 28.4339"><defs><radialGradient id="radial-gradient" cx="11.2067" cy="14.2169" r="12.8006" gradientUnits="userSpaceOnUse"><stop offset="0" stop-color="#ffd496"/><stop offset="1" stop-color="#f29d25"/></radialGradient></defs><title>KE</title><g id="Layer_2" data-name="Layer 2"><g id="Layer_1-2" data-name="Layer 1"><path id="KE" d="M22.4134,4.2418l-.345.492-.414.59-.763,1.085-.58.571-.438.432-.041.078.002.481.005,1.176.009,2.351.009,2.35.0089,2.35.0041,1.175.002.395.385.494.376.483.497.638.267.342.044.114-.014.229-.409.479-.335.218-.451.104-.135-.02-.177-.068-.069.115-.052.179-.1-.038-.075-.053.0449.318.0461.157-.0691.21-.219.185-.02.157-.474.41-.6729.045-.354.204-.157.167-.12.365.042.559-.188.43-.035.216-.348.279-.154.256-.114.261-.099.114-.118.584-.162.355-.044.118-.04.106-.125.208-.0819.144-.059.094-.41.91-.32.4111-.251-.047-.167.159-.018.075-.089-.042-.209-.151-.431-.309-.431-.309-.4311-.309-.431-.309-.431-.309-.4311-.309-.431-.309-.431-.3089-.253-.181-.111-.107-.088-.2131-.042-.053-.115-.067-.135-.015-.039-.041.0009-.1029.0461-.1481.159-.2829.017-.167-.031-.189-.049-.303-.0431-.069-.286-.159-.598-.332-.598-.332-.598-.332-.599-.332-.5981-.332-.598-.332-.598-.332-.598-.332-.599-.332-.598-.332-.599-.332-.5981-.332-.598-.3321-.598-.332-.598-.332-.599-.332-.225-.125-.202-.105H.009L0,17.6539l.068-1.209L.06,15.3829l.061-.532.2639-.337.1221-.245.0869-.342.138-.279.313-.227.0561-.125.3319-.379.199-.487.15-.166.188-.153.132-.081.218-.081.1711-.046.031-.039.015-.079-.057-.302.073-.099.116-.202.133-.188.12-.12.067-.123.031-.212.005-.151-.001-.246-.038-.559L2.845,9.115l-.0869-.524.064-.172-.111-.307-.055-.017-.09-.067-.116-.29-.087-.264-.054-.066-.376-.231-.187-.545-.21-.121-.114-.542L1.4,5.815l.119-.541L1.507,5.15l-.126-.114-.353-.117L.742,4.696l.037-.078L.8,4.537.649,4.483.211,3.558l.563-.556.571-.563.729-.713.669-.655L3.321.505,3.837,0,3.824.096l.002.128L3.89.302l.106.054L4.143.299,4.272.22,4.398.203l.775.21.13.183L5.2941.793l.034.143-.06.144-.0641.434.02.398.231.295.208.231.165.325.122.1.168.052.533.014.789.021.759.02.069.008.161.044.699.438.64.402.542.349.526.339.5109.33.396.273.391.083.635.04.4391.014.406.115.604.107.45.055.272.062.755.063.125-.037.333-.303.373-.493.146-.271.482-.27.8469-.376.597-.266.664-.267.302.231.416.371.186.183.149.081.226.054.275.001.15-.008.307-.048.718-.044Zm-2.497,17.116-.104.024.054-.16.308-.205.125.046.024.046-.0071.043-.052.042Z" fill="url(#radial-gradient)"/></g></g></svg>