<svg xmlns="http://www.w3.org/2000/svg" xmlns:xlink="http://www.w3.org/1999/xlink" width="30.9189" height="14.9991" viewBox="0 0 30.9189 14.9991"><defs><radialGradient id="radial-gradient" cx="15.4595" cy="7.4996" r="12.1499" gradientUnits="userSpaceOnUse"><stop offset="0" stop-color="#ffd496"/><stop offset="1" stop-color="#f29d25"/></radialGradient></defs><title>KG</title><g id="Layer_2" data-name="Layer 2"><g id="Layer_1-2" data-name="Layer 1"><path id="KG" d="M30.8149,3.9951l.0561.227.0479.264-.03.062-.054.042-.86.065-.194.073-.208.364-.736.292-.42.15-.17-.006-.408.239L26.7,6.3621l-.56.375-.2811.157-.226.171-.038.173-.008.163-.625.765-.469.092-.396-.018-.27.116-.386.117-.836-.08-.285.013-.549-.105-.2219.055-.2341.155-.325.607-.132.142-.061.138-.05.294-.124.311-.159.245-.115.227-.2349.219-.2181.138-.169-.288-.146.082-.14.117-.264-.041-.163.059-.372.25-.546-.009-.06-.086-.108-.688-.095-.327-.0789-.073-.0981-.008-.7849.542-.364.096-.2991.017-.3909-.162-.0851.04-.067.0871-.028.1109.114.3071-.032.06-.176-.0051-.246.0711-.188.141-.564.4939-.475.165-.442.0651-.181.0549-.081.059-.148.235-.152.368-.079.179-.059.104.012.136.12.175.091.393-.021.102-.0969.164-.14.161-.301.097-.236.049-.157-.032-.295-.011-.2329.064-.144.11-.284.137-.353.046-.449.018-.216-.012-.652-.092-.215.032-.205.071-.3721.075-.198.228-.104.209-.056.03-.232-.192-.177-.18-.116-.15-.146.004-.519.272-.077-.009-.148-.104.027-.257-.01-.164-.167-.087-.354-.022-.12-.0929.007-.1391.032-.133-.04-.1029-.092-.0781-.186.021-.213.106-.156.121-.196.057-.238.022-.148.073-.169.2951-.577.062-.186-.067-.152-.209-.1989-.338-.1111-.042-.1879-.042-.307.02-.4131.142-.1-.117-.107-.034-.097.0969L2.449,13.72l-.408.027-.5171-.013-.295-.066-.1909.0039-.38.1511-.201-.0011-.264.0271-.049-.511L0,12.9922l.044-.24.096-.33.08-.186.1631.079.187.136.124-.036.033-.112-.048-.147-.007-.11.07-.145.1031-.135.66-.222.565-.162.294.108.569.248.293.128.204.075.179.363.117-.017.118-.073.07-.089.057-.309.265-.174.5831-.206.041-.121-.009-.067.092-.059.292-.06.59-.057.2.043.229.122.177.121.168-.004.139-.0249.06.034.044.1069.072.0961.2261-.1311.2039-.169.161-.024.1481-.0639.043-.1131.116-.1879.333-.3591.173-.058H8.43l.006.058.054.0531.291.083.089-.095.047-.131-.102-.2081-.002-.087.038-.08.054-.0481.4651.198.103-.004.212-.1109.1939-.1951.07-.1539.951-.5.067-.091-.013-.0661-.3989-.117-.18.065h-.166l-.1011-.074-.484-.028-.106-.052-.321-.362-.221-.138-.178-.091-.193.013-.23.095-.071-.043-.02-.152.0009-.191-.047-.205-.137-.048-.177.081-.264-.083-.2249-.03-.058-.433-.091-.185-.093-.194-.0981-.056-.16-.097-.01-.229-.034-.065-.057-.031-.0771.026-.099.116.049.253-.038.253-.058.127-.112.094-.128.002-.2219-.128-.035.766-.043.047L5.8063,7.88l-.2119.046-.316-.047-.237-.126-.178-.035-.287-.107-.219-.14-.135-.514-.128-.184-.121-.039-.489.178-.179-.138-.33-.176-.25-.066-.067-.095.011-.117.77-.5751.303-.3959.19-.168.2719-.111.212-.065.108-.365.041-.042.151-.027.342-.15.551-.321.011-.0881-.056-.0759-.231-.1651-.264-.131-.16.068-.091.067-.151-.17V3.43l.167-.3.14-.15.059-.29.198-.194.207-.308.251-.252.464-.189.2589.062.243-.044.376-.153.072-.01.158-.002.968.234.32.011.75.3039.3449.0661.244.086.11.131.1761.161.942.13.2589.086.0931.141.2689.179.229.0409-.2-.7.08-.417L12.1442.91,12.3.737l.299-.153.47-.171.178-.239.385.024.167-.021.115-.043L13.9772,0l.434.233.726.472.548.299.646.282.894.257.7559.085.13-.061.303-.391.143-.017.258.034.802.018.817.019.3851-.038.836-.163.1229-.008.194.011.5.222.374.031L23.1,1.284l.148.018.31-.008.503.026.622.144.749-.026.24-.027.417.026.331.137.419.145.263.061.176.031.314.011.188-.045.107.063.106.354.26.232.203.219.17.242.173.099.305.003.575.069.33.096.422.417Zm-25.267,8.517.026-.052-.103-.267.139-.25-.2751-.042-.141-.074-.158-.253-.052-.012-.0819.069-.0441.166.0391.179.112.121.0739.04.011.008-.003.059-.09.296.147.038.258.005Zm1.609-.21.028-.165-.068.008-.081.045-.155.045-.034.082.104.104.132.038Zm-3.025.455-.01-.075-.096-.035-.272-.04L3.56,12.549l-.042-.001.018.072.0831.127.114.136.1469.015Z" fill="url(#radial-gradient)"/></g></g></svg>