<svg xmlns="http://www.w3.org/2000/svg" xmlns:xlink="http://www.w3.org/1999/xlink" width="14.8348" height="12.2709" viewBox="0 0 14.8348 12.2709"><defs><radialGradient id="radial-gradient" cx="7.4174" cy="6.1354" r="6.8067" gradientUnits="userSpaceOnUse"><stop offset="0" stop-color="#ffd496"/><stop offset="1" stop-color="#f29d25"/></radialGradient></defs><title>KH</title><g id="Layer_2" data-name="Layer 2"><g id="Layer_1-2" data-name="Layer 1"><path id="KH" d="M5.9111,12.2709l-.46-.369-.913-.129-.099-.163-.088-.032-.084.212-.502.203-.21-.123-.1531-.148.022-.182.146-.148.249-.106.115-.374-.19-.479-.166-.14-.176-.11-.185.178-.155.305-.162.157-.229.035-.3351-.013-.13-.455L2.1629,10l.046-.446L2.26,9.29l-.322-.364-.019-.347L1.7639,8.4l-.046.091.004.1-.044-.072-.51-1.02-.085-.473.088-.365.051-.122L1.075,6.347.869,6.129.504,5.843.48,5.39.398,4.856.289,4.675.122,4.3459l-.091-.273L0,3.351l.047-.0581.259-.021L.6379,3.22l.053-.116L.6319,3.007l.212-.164.305-.3591.235-.375.17-.237.101-.2349.342-.333.473-.23L2.79,1.02,3.1238.942,3.4428.83l.152-.011.396.135.215.034.226-.002.233.015.203-.014.486-.094.517.075.461-.059L6.9019.8l.28.069.255.109.035.221.06.101.085.078H7.73l.146-.154.1209-.159.04-.029.006.078.061.172.1079.169.11.112.183.149.119.007.391-.141.584.205.068.103.189.208.204.149.456.01.162-.368L10.6,1.665l-.26-.391-.071-.231.083-.041.44-.044.071-.045L10.96.66l.12.029.244.033.258-.173.153-.182.083.083.092.128.1.074.186.11L12.4.916l.127.151.103.059.2621-.042.07.006.151-.184.106-.1.091.028.132-.002.272-.234L13.87.384l.086-.059L14.2.432l.098-.022L14.44.116,14.5917,0l.045.159-.118.301-.1259.272-.235.238-.012.175-.081.521.031.166.055.142.077.076.204.51.187.463.184.38.032.24-.169.609-.196.559.017.278.085.278.09.371.033.474-.049.309-.089.192-.17.196-.147.101-.1779-.167L13.92,6.836l-.189.05-.149.077-.304.289-.337.281-.466.072-.181.208-.194.029-.368.011-.241.048.011.105-.02.494.005.116-.037.031-.167.015-.282-.076-.382-.122-.272-.019-.14.215-.083.084-.104.013-.107.038-.036.096-.009.12.052.205.02.326-.0139.222.1.141.584.472.172.118.02.07-.1019.257.091.361-.183-.007-.3061-.155-.146-.095-.177.076-.062-.0141-.119-.178-.156-.181-.161-.012-.34.0711-.3481.05-.132-.001-.055.033-.201.27-.085-.046-.351-.103-.319-.039-.065.069.039.22.07.214-.0419.091-.1761.113-.231.203-.143.158-.099.039-.353-.007-.352.021-.142.149-.1321.116ZM2.0352,9.79l-.05.027-.048-.001-.048-.042.005-.164.035-.1.082-.0191Zm.7639,1.609-.103.11-.163-.227.001-.063Z" fill="url(#radial-gradient)"/></g></g></svg>