<svg xmlns="http://www.w3.org/2000/svg" xmlns:xlink="http://www.w3.org/1999/xlink" width="977.578" height="43.102" viewBox="0 0 977.578 43.102"><defs><radialGradient id="radial-gradient" cx="488.789" cy="21.551" r="345.9618" gradientUnits="userSpaceOnUse"><stop offset="0" stop-color="#ffd496"/><stop offset="1" stop-color="#f29d25"/></radialGradient></defs><title>KI</title><g id="Layer_2" data-name="Layer 2"><g id="Layer_1-2" data-name="Layer 1"><path id="KI" d="M975.847,18.661l.092.053.07.072.034.1-.002.025-.054-.001-.065-.031-.047-.042-.024-.011-.006-.009.056.006.0641.042.0479.019-.004-.049-.058-.085-.034-.029-.044-.025-.05-.017-.034.0151-.0189.0069-.008-.02.007-.018.018-.018Zm1.719,1.031-.013.021-.02-.018.014-.033.012-.028.019.015Zm-.416,3.71-.027.013-.032-.004-.0209-.019v-.03l.026-.021.0369.007.021.027Zm-2.754.133.018.019.041-.005.036-.003-.022.019-.0739.008-.036-.048.0449-.037.04-.006.004.01-.002.011h-.019l-.03.009v.023Zm-6.45.459.033.037v.018l-.0159-.003-.048-.011-.016-.022.035.015.015-.003-.032-.033-.028-.024-.021-.01v-.012l.026.0061ZM.196,0,.42.236.377.355.215.344.141.302.267.281.288.237.23.168.153.12H.1L.087.215,0,.141.051.067.113.018Zm932.62,2.219-.178.093-.054-.015.211-.132-.0009.016Zm-.352.217-.208.108L932.2,2.486l.075-.002.14-.104.169-.008-.02.058ZM5.8,5.773l.467.323-.198.023-.488-.156-.446-.319.133-.069.065.115.203.107.12-.225.079-.051-.356-.232.141.012.337.158ZM932.953,5.8l.014.064-.16-.175-.095-.113.006-.049.043.031.053.055.035.044Zm.031.358-.102.012.076-.04.021-.055-.012-.173.04.014.014.071.007.104Zm.024,1.047-.075.01.049-.057.321-.063.028-.018.052.035-.001.033-.023.017-.159.001-.125.03Zm-.016.917.151.11-.02.076-.0511.087-.197.222-.06-.021.192-.201.074-.133-.11-.102-.044.022h-.018l-.038-.095h.038Zm4.143,5.06-.091.076-.035-.069.045-.085-.076-.353-.126-.048-.075-.106h.036l.126.097.101.044.059.232Zm-13.913.2-.026.006-.053-.029.0071-.036.037-.016.047.027Zm14.655.943.017.144-.064-.019-.021-.056-.021-.145-.067-.142.076.038.063.111ZM12.496,22.352l-.008.017-.034-.022-.066-.041-.056-.045-.001-.019.079-.027.101-.021.022.029-.019.0409ZM9.949,26.657l-.065.015H9.808l-.038-.037-.002-.03h.026l.024.005.108.0051.028.022Zm11.454,16.4-.023.045-.044-.016-.026-.057-.009-.062.017-.05.029.002.033.062Z" fill="url(#radial-gradient)"/></g></g></svg>