<svg xmlns="http://www.w3.org/2000/svg" xmlns:xlink="http://www.w3.org/1999/xlink" width="3.647" height="2.849" viewBox="0 0 3.647 2.849"><defs><radialGradient id="radial-gradient" cx="1.8235" cy="1.4245" r="1.6362" gradientUnits="userSpaceOnUse"><stop offset="0" stop-color="#ffd496"/><stop offset="1" stop-color="#f29d25"/></radialGradient></defs><title>KM</title><g id="Layer_2" data-name="Layer 2"><g id="Layer_1-2" data-name="Layer 1"><path id="KM" d="M.67,1.517l-.053.038L.361,1.392.215,1.354,0,1.091.083.181.152.064.204.017.323,0,.468.114.43.699l.191.394.123.313Zm2.836.514.141.394-.001.297-.06.094L3.46,2.754l-.232-.236-.441-.23L2.99,2.269l.1179.023.125-.021.078-.13.016-.077.11-.062Zm-1.93.643.197.175-.548-.072-.086-.158-.004-.116.205.025Z" fill="url(#radial-gradient)"/></g></g></svg>