<svg xmlns="http://www.w3.org/2000/svg" xmlns:xlink="http://www.w3.org/1999/xlink" width="17.7897" height="19.386" viewBox="0 0 17.7897 19.386"><defs><radialGradient id="radial-gradient" cx="8.8949" cy="9.693" r="9.3025" gradientUnits="userSpaceOnUse"><stop offset="0" stop-color="#ffd496"/><stop offset="1" stop-color="#f29d25"/></radialGradient></defs><title>KP</title><g id="Layer_2" data-name="Layer 2"><g id="Layer_1-2" data-name="Layer 1"><path id="KP" d="M17.3388,1.766l.076.23.18.224.094.163.019.169.0819.095-.143.105-.188-.064-.3129-.038-.401.331-.222.116-.156.325-.313.193-.171.205-.222.355-.146.342-.337.35-.197.439-.011.376.215.384.02.326-.15.67.083.709-.093.277-1.032.484-.27.241-.379.625-.462.232-.287.254-.397.15-.254.438-.279.248-.332.151-.249.194-.556.012-.393.135-.279.363-.839.415-.114.313.056.482.005.369-.073.303-.184-.085-.099.099-.109.28.031.318.288.103.235.13.331.066.245.147.521.67.425.292.11.108.244.147.225.23.127.206-.099.056-.169.301-.158.381-.152.206-.175.114-.189.067-.375.029-.339-.026-.109-.041-.466.024-.1321.027-.669-.029-.35.031-.2231.074-.2269.154-.1951.231-.172.247-.35.451-.245.219L6.5058,19l-.006.096-.086.067-.029-.029-.142-.023-.569-.289-.469.176-.1179.229-.1241.074-.187-.449-.305-.014-.484-.396-.208.081-.053.159-.266.364-.3709.3-.12.04-.1371-.021.02-.083-.151-.337-.586-.136-.211-.144-.107-.031.5739-.377.15-.067-.112-.088-.124-.043-.4711.056-.2459-.124-.358.04-.249-.098.516-.371.023-.219-.006-.167.261-.494.263-.273.681-.389.296-.054.2151.016.176-.036-.185-.149-.181-.068-.352.014-.365-.224-.032-.237.708-1.501.01-.137-.11-.367-.036-.358-.508-.206-.225-.025-.651-.4049-.26-.205-.103.061-.019.324-.093.072-.171.063-.086-.37L.586,11.96.154,11.687,0,11.537l.074-.3259-.036-.029.068-.366.265-.283.649-.504.167-.237.33-.279.148.006.153-.024.046-.122.035-.096.132-.087.317-.154.36-.203.288-.057.3531-.305.1439-.134h.1451l.039-.063.0819-.158.112-.104.156-.02.255-.075.32-.046.218-.257L4.894,7.43l.1451-.202.306-.221.211-.327.233-.355.111-.114.109-.023.064-.134.075-.379.107-.369.063-.174.27-.19.068-.093.061-.031.125.025.168-.112.157-.124.144.043.146.103.152.205.068.163.12.136.023.198.1209.086.256.043.419.135.271.007.1551.101.3239.055.648-.079.2651.046.111.124.164.0979.107.0061.143-.169.153-.274.101-.21-.004-.167-.089-.18-.213-.167-.141-.259-.134-.268-.079-.087-.064-.13-.012-.2.046-.135.323-.09.414-.0531.335.0571.56-.038.344-.0751.255.011.234-.001.104-.115.3271-.277.158-.099.174-.188.027-.1969.0349-.16.0981-.17.172-.211.146-.0969.163.013.171.0969.109.097.123-.028.103-.166.067-.032.195-.015.063-.102.075-.489.0751-.386.016-.271.1749-.449.0561-.271L15.5693,0l.12.009.101.08.127.046.169-.044.119.069.074.146.25.1.023.073-.006.487.137.228.1841.206.2509.187.1351.042ZM1.5618,12.886l-.157.104-.0089-.186.122-.1571.127-.021Z" fill="url(#radial-gradient)"/></g></g></svg>