<svg xmlns="http://www.w3.org/2000/svg" xmlns:xlink="http://www.w3.org/1999/xlink" width="13.827" height="18.721" viewBox="0 0 13.827 18.721"><defs><radialGradient id="radial-gradient" cx="6.9135" cy="9.3605" r="8.2285" gradientUnits="userSpaceOnUse"><stop offset="0" stop-color="#ffd496"/><stop offset="1" stop-color="#f29d25"/></radialGradient></defs><title>KR</title><g id="Layer_2" data-name="Layer 2"><g id="Layer_1-2" data-name="Layer 1"><path id="KR" d="M1.758,2.995l.086-.067.006-.096.001-.316.2449-.219.35-.451.172-.247.195-.231.227-.154.223-.074.35-.031.669.029.132-.027.466-.024.1091.041.3389.026.375-.029.1891-.067L6.067.944,6.2189.738,6.377.357,6.546.056,6.645,0l.6859,1.595L7.986,2.621l.559.74L9.341,4.78l.233.756.0219.467.133.641-.1129.367.033.577-.05.296-.098.218-.003.418.031.223.003.296.063.115.091.042.145-.107.177-.0451-.031.3551-.214.897-.186.651-.253.566-.322.517-.386.202-.271.072-.518.026-.43-.087-.369.0629-.148.107-.11.184.081.285-.011.21-.158-.016-.313-.122-.347-.017-.162-.061-.164-.301-.1669.011-.29.179-.444.04-.156.097-.056.125.064.158.224.207-.075.209-.232.104-.188-.257-.117-.252-.131-.014-.204.072-.041.272.095.185.156.215-.219.247-.058.176-.157.126-.424-.281.061-.2.184-.192.022-.2-.061-.118-.606.504-.374.57-.2-.042-.083-.146-.117-.06-.404.367-.074.291-.148.011-.065-.123-.005-.264-.069-.222-.419-.324-.19-.284.103-.159.35.086.277-.011-.055-.135-.091-.064.185-.076.154-.155-.128-.042-.194.09-.162-.044-.064-.373-.197-.383-.1031-.372.195-.214.099-.334.1821-.484.091-.157.2509-.114.089-.125-.138-.064-.22-.057.005-.14.15-.0759.168-.155.324-.188.101-.355-.094-.09-.203-.0841.046-.18.084-.137-.032-.082-.239-.232-.158-.211.047-.241-.036-.365.021-.307-.011-.167-.117-.375-.053-.377-.153.055-.124.094-.443-.133-.141-.008-.057-.28.159-.345.377-.305.217-.038.163-.134.255-.042.306.208.274.042.152.357.094.076.02-.131.222-.154.053-.116-.048-.064-.255-.063-.229-.444-.032-.195-.083-.124.123-.356-.265-.407-.1291-.128.019-.367-.138-.233L1.615,3.45l-.047-.222.04-.1.12-.038Zm-.318.159-.013.467-.155-.02-.105-.047-.045-.091L1.016,3.03l.119-.179.229.142Zm12.336.912-.128.104-.151-.104-.019-.111.079-.096.184-.058.086.084ZM1.15,7.514l-.0381.225L.926,7.591.8719,7.097l.191.144ZM7.672,13.34l-.265.21-.357-.282-.085-.155.271-.229.23-.261.151-.016Zm-1.896-.025-.031.333-.198.017-.118-.214-.126.104-.065.002-.1-.267-.0171-.208.233-.159.142.095.2021.049Zm-5.314.254-.037.082-.122-.024-.126-.234-.052-.186L0,13.105l.199-.161.253.29Zm4.566.394-.032.105-.142-.159.141-.174Zm-4.393.829-.18.052-.101-.117-.07-.031.04-.153.292-.301.058-.104.2709.063.1011.16-.1241.242Zm1.458.09.047.161-.227-.03-.12-.155.016-.133.135-.019ZM.896,18.647l-.126.074-.117-.044-.031-.035L.48,18.451l-.036-.098.0949-.188.388-.309,1.0041-.298.181-.013.396.128.085.239-.073.206-.091.138-.459.232-.3579.111Z" fill="url(#radial-gradient)"/></g></g></svg>