<svg xmlns="http://www.w3.org/2000/svg" xmlns:xlink="http://www.w3.org/1999/xlink" width="5.363" height="5.009" viewBox="0 0 5.363 5.009"><defs><radialGradient id="radial-gradient" cx="2.6815" cy="2.5045" r="2.5945" gradientUnits="userSpaceOnUse"><stop offset="0" stop-color="#ffd496"/><stop offset="1" stop-color="#f29d25"/></radialGradient></defs><title>KW</title><g id="Layer_2" data-name="Layer 2"><g id="Layer_1-2" data-name="Layer 1"><path id="KW" d="M4.06.368,4.046.4869l.09.355.201.387.165.313.021.147-.151-.021-.115-.059-.221-.062-.427.415-.258.2261-.007.077.344.087L3.941,2.35l.176-.061.149.097.098.256.039.208.234.7391.194.249.242.44.09.228.052.191.148.282-.4879.007-.615.01-.4991.006-.5629.007L2.95,4.708l-.083-.33-.09-.339L2.53,3.555l-.826-.117-.439-.063L.542,3.283,0,3.214l.456-.522.212-.281.383-.609.197-.435.19-.483L1.602.508,1.636.439,1.731.311,1.941.18,2.244.057,2.759.003,3.121,0l.0819.006L3.431.067Zm.833,1.1529-.161.072-.108-.031-.104-.173-.171-.43.093-.161L4.439.7289l.019-.052.053-.033.055-.203L4.64.3789l.12.137.3381.495-.0021.202-.02.081Z" fill="url(#radial-gradient)"/></g></g></svg>