<svg xmlns="http://www.w3.org/2000/svg" xmlns:xlink="http://www.w3.org/1999/xlink" width="4.706" height="1.4599" viewBox="0 0 4.706 1.4599"><defs><radialGradient id="radial-gradient" cx="2.353" cy="0.73" r="1.742" gradientUnits="userSpaceOnUse"><stop offset="0" stop-color="#ffd496"/><stop offset="1" stop-color="#f29d25"/></radialGradient></defs><title>KY</title><g id="Layer_2" data-name="Layer 2"><g id="Layer_1-2" data-name="Layer 1"><path id="KY" d="M4.479.16,4.348.205,4.246.187l.23-.123L4.535.022,4.586,0h.053l.067.025V.044ZM4.043.171,4.015.188,3.925.175,3.719.296,3.63.289,3.657.247,3.7.207,3.748.178,3.793.166,3.937.142,4.005.139l.047.027ZM.14,1.2339l.091.0571.114-.035.033-.063.433.046.065.1229-.33.003-.148.079L.324,1.46l-.283-.019L0,1.1559l.079-.03Z" fill="url(#radial-gradient)"/></g></g></svg>