<svg xmlns="http://www.w3.org/2000/svg" xmlns:xlink="http://www.w3.org/1999/xlink" width="114.2589" height="62.4153" viewBox="0 0 114.2589 62.4153"><defs><radialGradient id="radial-gradient" cx="57.1295" cy="31.2076" r="46.0309" gradientUnits="userSpaceOnUse"><stop offset="0" stop-color="#ffd496"/><stop offset="1" stop-color="#f29d25"/></radialGradient></defs><title>KZ</title><g id="Layer_2" data-name="Layer 2"><g id="Layer_1-2" data-name="Layer 1"><path id="KZ" d="M114.2589,28.883l-.26-.085-.51-.018-.311.053-.146.03-.218.175-.155.174-.068.296.082.334-.112.694-.152.261-.32.453-.186.098-.312.081-.3.134-.588.13-.635.066-.226.097-.1611.3089-.114.257-.07.1961-.18.638-.102.569.1.7049.075.781-.005.2691.1551.398.078.244-.037.346-.2231.272-.1339.36-.126.153-.363.069-.342.042-.3449.3089-.276.2131-.432.271-.203.051-.112-.138-.074-.3071-.148-.1359-.209-.011-.168-.003-.5431-.083-.348.006-.261.066-.2979.033-.5151-.112-.333-.095-.224-.091-.5349-.269-.703-.32-.2881-.094-.171.096-.026.183-.045.443-.0819.277-.49,1.396-.303.966-.385.923-.122.617-.23.779-.229.563-.093.306-.008.125.04.175.3511.191.3679.117.081.073.04.198-.014.324-.067.306-.106.24-.105.119-.12.0069-.23-.1539-.205-.172-.159-.052-.404.096-.374.131-.125.004-.217-.084-.219-.1741-.0869-.337-.188-.153-.252.153-.75.257-.826.306-.525.158-.2051-.024-.407.0361-.353.085-.2651.118-.523.163-.4749.109-.3061.247-.22.238.0089.09.16.141.183.11.366-.026.357-.017.297.149.266.096.073.124-.073.121-.154.028-.054.084.027.113-.102.294-.053.445.053.438.029.403-.019.203-.01.289.113.195.101.371.181.232.273.802.161.467.148.5281-.107.285.0071.165.174.138.076.269.081.164-.022.163-.074.063-.377-.099-.309.163-.328.164-.044.087-.009.095.033.083.189.146.261.091-.013.146-.323.067-.487.2229-.135.2391-.104.263-.009.152.049.407.074.45.139.474.011.146-.072.104-.0671.067-.387-.427-.422-.417-.33-.096-.575-.069-.305-.003-.173-.099-.17-.242-.203-.219-.26-.232-.106-.354-.107-.063-.188.045-.314-.011-.176-.031-.263-.061-.419-.145-.331-.137-.417-.026-.24.027-.749.026-.622-.144-.503-.026-.31.008-.148-.018-.2541.001-.374-.031-.5-.222-.194-.011-.1229.008-.836.163-.385.038-.8171-.019-.802-.018-.258-.034-.143.017-.3029.391-.13.061-.7559-.085-.894-.257-.646-.282-.548-.299-.726-.472-.434-.233-.063.134-.115.043-.167.021-.385-.024-.178.239-.47.171-.2991.1531-.156.173-.2979,1.143-.08.417.2.7-.229-.041-.269-.179-.093-.141-.259-.086-.942-.13-.1761-.161-.11-.131-.2441-.086-.3449-.066-.75-.304-.32-.011-.9681-.234-.158.002-.072.01-.376.153-.243.044-.2589-.062-.464.189-.251.252-.207.308-.198.194-.059.29-.14.15-.167.3v.175l.151.17-.242.1571-.269.049-.139.096-.148.231-.138.198-.081.07-.124-.013-.144-.154-.205.007-.244.19-.29.309-.365.471-.381.25-.4819.212-.349.094-.276.161-.461.326-.092.1919-.334.1131-.269.13-.249.217-.061.383-.158.22-.381.301-.32.3039-.209.2981-.221.315-.069.173-.008.237.104.199.02.189-.079.137-.216.052-.226-.04-.347-.135-.369-.242-.135-.119-.1811-.204.026-.189.093-.369.063-.2529-.15-.121-.111-.13-.079-.125-.156-.2471-.196.061-.17.0611-.197-.0871-.581.038-.438.0281-.412.026-.5219.034-.63.0409-.1811-.0539-.1129-.082-.1141-.3411-.0659-.29-.122-.543-.082-.421-.097-.502-.064-.556-.046-.396-.477-.013-.381-.01-.515-.014.004-.316.006-.399.007-.455.096-.598.036-.502.045-.615.028-.407.032-.449-.266.139-.293.153-.275.1431-.1891-.3631-.184-.354-.279-.539-.209-.404-.3629-.237-.271-.1749-.279-.2951-.2411-.307-.229-.292-.2739-.2529-.2631.08-.2969.159-.2861.152-.3029.162-.148.079-.352-.03-.307-.026-.5491-.0469-.463-.04-.473-.0409-.659-.0571-.668-.057-.446.076-.566.095-.594.1-.491.083-.622.1041-.465.078-.229-.011-.2881-.328L42.408,50.7l-.279-.32-.274-.3139-.396-.453-.318-.344-.311-.336-.179-.311-.089-.392-.162-.1781-.36-.24-.388-.258-.388-.258-.388-.258-.388-.259L38.1,46.52l-.388-.259-.388-.26-.388-.26-.388-.26-.388-.261-.3791-.2582-.388-.261-.388-.262-.388-.262-.388-.262-.388-.262-.319-.191-.297.05-.444.134-.466.14-.461.139-.8259.248-.5311.16-.4149.134-.442.143-.58.187-.486.157-.569.184-.505.163-.424.136-.442.143-.35.112V47.5l.001.899v1.788l.001.888v2.644l.001.875v1.741l.0009.865v1.721l.001.856-.12-.007-.269.05-.45.119-.374.06-.1639-.037-.147-.089-.129-.188-.1921-.229-.197-.186-.245-.381-.17-.293-.419-.642-.059-.203-.078-.207-.14-.173-.494-.425-.575-.384-.5641-.377-.1589-.092-.264-.117-.325-.0021-.222.023-.676.125-.519.146-.703.198-.545.219-.122.064-.398.264-.487.438-.569.616-.074-.396-.025-.611.01-.197.155-.515.157-.354.126-.369.057-.483-.117-.778-.131-.173-.157-.056-.168-.016-.309.032-.144.063-.251-.263-.303-.042-.16.073-.162.038-.176-.073-.152-.156-.093-.168-.0721-.19-.2379-.382-.2361-.208-.286-.046-.4669.012-.147-.026-.008-.217.059-.48.001-.251-.033-.237-.078-.195-.099-.169-.2781-.278-.21-.392-.351-.809-.307-.912-.135-.138-.274-.145-.599-.116-.395-.12-.155-.116-.065-.201.002-.216.032-.255.0919-.216.3141-.167.6829-.037.583.018.529.386.173.088.188.025.374-.122.186-.035.468.04-.14-.183-.176-.096-.182.008-.157-.075-.259-.354-.449-.404-.104-.167-.0319-.268.0869-.231.318-.237.271-.323.123-.429.111-.198.23-.311.348.06.542-.225.887.044,1.0621-.064.292.023.677.22.3889.095.4731.048.341-.0969-.321-.3-.697-.356-.1791-.304.319-.828.432-.757.264-.902-.074-.9-.126-.249.0411-.293.15-.248.106-.247-.092-.298-.19-.466-.098-.151-.333-.252-.669-.011-.546-.138-.177.111-.1.17-.125.112-.425.226-.142.045-.148-.045-.209-.254-.186.028-.563-.159-.265-.346-.099-.048-.91-.277-.316-.053-.7249.285-.5251.365-.148.053-.271.231L11,38.133l-.157-.04-.149.014-.317.346-.5739.402-.285.253-.318.157-.354.099-.361.016-.133.091-.4131.032-.252.074-.0089.137.05.306-.2139-.108-.225.208.074.196-.1351-.047-.632-.3779-.519-.2681-.461-.238-.067-.043-.1259-.116-.09-.181-.019-.198.045-.146.112-.0929.132-.036.117.03.13.0889.2319.108.3011.02.188-.083.025-.199-.358-.738-.33-.597-.319-.666-.135-.242-.391-.56-.386-.553-.305-.494-.16-.152-.492-.063-.938-.122-.332-.058-.266.147-.267.115-.253-.214-.2-.352-.105-.296.051-.303.021-.448-.153-.4419-.169-.219-.424-.165-.54-.373L0,31.0591l.262-.982.422-.698.307-.293.146-.2561.048-.2219-.037-.212L.966,28.17l-.282-.22-.143-.271L.6,27.097l.187-.841.2881-.6749.386-.375.333-.2691.1309-.251.0071-.357-.008-.337.089-.245.14-.195.148-.175.208-.196.27-.048.297.156.404.419.592.8251.338.539.122.1659.309.32.279.129.465-.2.446-.233.144-.148.092-.221-.071-.378-.093-.247-.099-.315-.137-.549-.097-.864-.115-.275.084-.032.224.057.2069.025.2961-.191.406-.36.743-.557.1569-.368.127-.41.206-.2521.4731-.083.438-.132.309-.2919.484-.257.398-.156.175-.1441.125-.216.456-.61.3579-.376.315-.388.105-.244.2491.045.38.169.408.154.299.239.059.244.029.192.121.099.145.019.218-.048.381-.009.467-.316.65-.534.595-.166.313.127.2589.393.205.369.211.137.131.004.048.006.262-.084.02.001.2391.015.23.125.381.014.531-.095.0561-.039.255.051.31.17.241.202.432.662.248.17.506.235.237.205.276.332.1439.201.3.363.347.593.062.471.079.397.129.188.106.023.1141-.065.112-.181.039-.302-.034-.535-.089-.438-.114-.139-.055-.154.075-.196.193-.095.24.06.395.252.412.317.507.5539.465.3511.509.28.404.083.313-.0841.369-.2279.338-.2641.154-.277.11-.303.51-.405.466-.371.212.067.149.105.478-.226.166-.062.455-.088.47.13.375.398.363.256.325-.03.269-.131.1779-.248.135-.293.18-.188.027-.012.579.102.363-.015.039-.042.479.08.529.413.328.457.42.581.195.189.284.081.223.035.299.09.79.121.12.071.081.095-.073.316.07.08.641-.225.172-.168.211-.478.189-.482.141-.179.149-.047.15.072.21.285.284.29.384.11.234.044.363.024.854-.141.799-.351.456-.382.2119-.574.133-.654.204-.414-.085-.424-.402-.404-.136-.122-.978-.227-.06-.164-.056-.038-.964-.36-.464-.154-.131-.238-.086-.312-.301-.279-.598-.254-.104-.194.099-.196.4719-.218.5391-.46.2069-.095.479-.021.444-.377.306-.216.16-.257-.042-.266-.444-.805-.132-.489.079-.319.255-.345.145-.189.174-.34.114-.182.448-.077.5431-.032.373.081.521.042.4749.063.24.056.177-.104.128-.183-.004-.242-.187-.235-.697-.309-.2991-.255-.234.028-.392-.08-.354-.167-.313-.056L40.84,9.87l.064-.326.121-.187.231-.093.251.047.273-.1359.079-.08.023-.103-.044-.147-.127-.121-.18-.032-.207.103-.248.0669-.419-.151-.3339-.182.017-.168.247-.251.111-.204v-.612l.086-.387.245-.265.288-.142.742.259.928.231.159-.038.047-.122.106-.108,1.2881-.05.25-.149.125-.119L46.2,6.2329l.147-.163.182-.152.285.003.339-.061.473-.186.335-.102.056-.008.354.041.4391-.147.0949-.061.071-.111.383-.214.735-.176.179.105.351.0481.4471-.0791.33-.135.192.134.261.138.195-.117.097-.369.126-.361.221-.1709.1749-.063.1581-.139.119-.145.647.022.5789-.361.1141.164.752-.038.934-.233.559-.109.965-.244.446-.198.639-.125.586-.087.383-.347.309-.049.376-.029.23-.083.15-.128.097-.241-.053-.308-.054-.224.269-.125L61.2568.96l.242-.051.5281-.51.364-.245L62.7679,0l.757.084.691.077.693.244.364.304.313.229.296.109.268.07.311-.104.22-.14.128-.201.194-.144L67.71.416l.146.217.336.653.229.867.377,1.145.166.561-.073.293.001.401-.021.44-.278.497.1129.231.683.257.956-.094.59-.208.3289.076.172-.125.1111-.368.2269-.083.233.257.169.4339.162.279-.012.332.06.425.119.107.234-.161.156-.096.037-.129-.066-.159-.031-.162.052-.149.111-.061.333.047.485.082.576.604.311.109.131.011.292-.035.351-.173.236-.218.079-.107.136.019.129.1011.009.22-.1031.318-.35.2909-.435.27-.264.494-.056.514.115.261.099.174.028.244.098.032.178-.1.485-.506.247-.125.3579-.08.589.04.396.165.189.229.2081.189.1439-.079.074-.218.004-.25.061-.206.644-.5069.429-.3381.147-.04.287.07.178-.036.471-.318.44-.363.043-.246.017-.223.109-.101.6161-.078.1019-.042.526-.254.7291-.434.354-.256.645-.114.12-.074.214-.173.404-.24.2189-.026-.1359.58-.2411.668-.136.178-.6539-.03.0009.182.1031.278.0739.156.079.14.176.242.688.569.875.7219.945.8081.66.562.267.29.17.226.486.814.462.769.779,1.348.689,1.294.76,1.415.4391.814.898,1.693.24.517.455.976.401.911.355.802.224.072.018-.217.04-.145.114-.082.262-.237.141-.057.21.024.22-.121.081-.228-.053-.423-.034-.195.075-.21.12-.082.167-.066.154-.034.126-.237.2379-.072.219.044.18.009.159.173.089.237.172.019.281-.024.039.198-.08.331-.099.256-.017.205.149.1.546-.089.193.044.062.208.078.172.038.21-.057.232.098.139.471.003.332-.112.51-.009.461.246.319-.038.321-.1.471.063.331-.194.228-.243.071-.191.119-.106.444.001.28-.019.207-.281.189-.127.318-.024h.234l.629.261.383.216.398.307.239.192.161.433.271.318.216.371.0521.365.1779.655.1841.215h.218l.275.089.304.071.65.485.239.014.1841.116.028.223-.068.258.071.247.213.315.168.307.207.372.063.212.166.07.224-.105.356.08,1.071.211.149.026.114.22.155-.018.178-.009.247.026.172-.203.141-.178.353-.22.2931-.2991.2459-.266.184-.035.149.124.006.23-.184.168-.144.2031.034.203.247.018.274.305.396.713.134.149.196.14.2169.063.24.1019.178.293ZM10.3869,45.78l-.097.054-.059-.2521.108-.212.154-.028-.053.335Zm-.356.464-.101.111-.15-.017-.281-.419.079-.426.102-.087.142-.06.019.094-.199.191-.0189.241.167.267Z" fill="url(#radial-gradient)"/></g></g></svg>