<svg xmlns="http://www.w3.org/2000/svg" xmlns:xlink="http://www.w3.org/1999/xlink" width="21.156" height="25.208" viewBox="0 0 21.156 25.208"><defs><radialGradient id="radial-gradient" cx="10.578" cy="12.604" r="11.6352" gradientUnits="userSpaceOnUse"><stop offset="0" stop-color="#ffd496"/><stop offset="1" stop-color="#f29d25"/></radialGradient></defs><title>LA</title><g id="Layer_2" data-name="Layer 2"><g id="Layer_1-2" data-name="Layer 1"><path id="LA" d="M5.6479.351,5.804.638l.332.319.396.455.126.209.267.16.076.158.061.242.027.18.0589.106.0941.042.121-.047.091-.096.076-.265.05-.028.082.218.087.037.117.029.089.094.027.166-.03.169-.109.19-.062.2-.043.307-.058.214.09.189.62.93.298.152.709.182.256.125.226.122.222-.059.214-.277.257-.155.478-.238.137-.013.264.095.434.277.313.26.194.137.148.123-.023.138-.1191.136-.1509.075-.199.131-.113.132.069.049.292.033.345.117.105.137.015.117.042.191.061.058.319-.034.099.043.115.098.114.257-.003.192-.231.211-.086.128-.038.201-.164.241-.436.404-.117.024-.803-.222-.373.014-.18.007-.087.01-.052.084.107.244.032.242-.1.184-.267.16-.101.077L10.6,9.53l.075.108.246.111.287.104.946.625.202.147.268.217.29.168.776.222.343.145.088.082-.003.101-.09.129-.074.226-.004.136.081.131.137.196.308.303.169.135.187.03.164.074.169.225.196.275.026.192.084.246.179.282.247.274.346.339.199.239.092.093.738.579.18.214.26.412.11.06.104.081.066.226.022.162.035.496.134.147.123.181.052.132.112.098.122.018.145-.109.115-.105.053.031.116.346.107.126.2.121.19.093.415.416.221.152.152.048.129.071.039.132-.051.133-.088.087-.483.241-.064.105.066.16.121.2.132.172.1659.169.3391.274.294.214.161.237.089.158-.055.189-.124.207-.096.177-.165.103-.045.119.068.185.056.127-.03.158.015.323-.152.116-.142.294-.097.022-.245-.107-.086.059-.156.214-.272.233-.132.003-.091-.028-.106.099-.152.184-.07-.006-.262.042-.102-.059-.127-.151-.204-.154-.186-.11-.099-.074-.092-.128-.083-.083-.154.182-.257.174-.245-.033-.12-.029-.0959.253-.072.046-.44.044-.083.04.071.231.26.391.078.224-.162.368-.456-.01-.204-.149-.19-.209-.0681-.103-.5839-.205-.391.141-.119-.007-.182-.149-.111-.112-.108-.17-.061-.172-.005-.078.168-.062.277-.141.226-.158.149-.168.06-.175.008-.203.065-.526.066-.256-.037-.316-.121-.248v-.373l.044-.182.02-.12.17-.151.117-.217.066-.283.006-.204-.053-.126-.168-.12-.281-.113-.178-.144-.072-.173.007-.152.086-.132-.212-.146-.511-.161-.285-.194-.06-.226-.213-.296-.366-.367-.193-.528-.02-.69.043-.562.16-.651-.214-.472-.235-.249-.327-.183-.312-.262-.297-.343-.354-.506-.414-.67-.278-.3-.143.07-.299-.063-.456-.194-.397-.105-.34-.015-.221.044-.102.103-.008.101.086.1-.047.078-.178.056-.143.11-.162.246.004-.01-.006.013.002-.003-.111.322-.169.124-.26.027-.255.092-.252.156-.12.119.014.081-.055.018-.123-.045-.058-.106.007-.168-.129-.112-.263-.058-.3-.179-.338-.303-.234-.161-.131-.02-.187.12-.246.26-.202.102-.159-.053-.123.091-.086.237-.159.185-.348.203-.023.024-.398.273-.319.275-.371.369-.175.057-.167-.09-.252-.09-.133-.125.254-.625.321-.693.086-.32.013-.234-.031-.19-.126-.199-.118-.154-.011-.103.038-.108.129-.161.166-.25.154-.513.185-.544-.018-.33L3.12,9.806l-.082-.344.065-.469L3.079,8.81l-.161-.092L2.39,8.625l-.17.016-.134.06-.145.128-.176.08-.332.045-.314-.159-.263-.27-.063-.33.193-.394.135-.319.08-.274-.009-.13-.056-.135-.079-.019L.889,6.756.725,6.46.569,6.324l-.145.025-.135.113L.166,6.66l-.097.082L0,6.705.021,6.53l.02-.166.152-.646.184-.42.216-.195L.821,5.02l.24.031.203-.036.162-.103-.0151-.059L1.219,4.838l-.077-.112.041-.211.084-.137.132-.063.128-.212L1.65,3.74l.151-.183.176-.005.303-.155.429-.307.165-.297.1619.136-.0609.344.085.072.04.123-.022.192.036.163.066.079.0929.04.4551-.14.278-.01.117.092.105.057.132.044.102.059.065-.019.156-.143.047-.025.005-.07-.109-.129L4.513,3.55l.004-.24.053-.416.011-.216-.01-.517-.02-.146-.104-.168-.271-.323L4.1,1.327,4.056,1.13l.004-.125L3.991.862,3.956.729,4.077.661,4.224.507,4.298.272,4.368.1,4.47.027,4.558,0l.059.015.23.308L5.138.169l.22.001.189.081Z" fill="url(#radial-gradient)"/></g></g></svg>