<svg xmlns="http://www.w3.org/2000/svg" xmlns:xlink="http://www.w3.org/1999/xlink" width="4.144" height="5.394" viewBox="0 0 4.144 5.394"><defs><radialGradient id="radial-gradient" cx="2.072" cy="2.697" r="2.4049" gradientUnits="userSpaceOnUse"><stop offset="0" stop-color="#ffd496"/><stop offset="1" stop-color="#f29d25"/></radialGradient></defs><title>LB</title><g id="Layer_2" data-name="Layer 2"><g id="Layer_1-2" data-name="Layer 1"><path id="LB" d="M2.135,4.204l-.08.055-.149.153-.149.124-.301.193-.068.115L1.321,4.74l-.131.071-.11.437-.23.146L.562,5.381.322,5.34,0,5.367l.131-.254.136-.331.134-.446.237-.371.491-1.264.284-.513.101-.73L1.953.819l.328-.19L2.44.446,2.436.168l.49.002L3.242.156,3.333,0,3.58.071l.137.15L3.593.38,3.418.561l.01.047.131.015.222.098.136.115.227.714-.14.293-.218.262-.097.023-.191.13-.16.178-.056.112.012.105.226.131.007.053-.047.042L3.297,2.85l-.236-.014-.139.001-.161.026-.206.16-.092.106-.049.068-.074.217.083.149.154.085.022.043-.035.075-.153.094-.115.115-.033.117Z" fill="url(#radial-gradient)"/></g></g></svg>