<svg xmlns="http://www.w3.org/2000/svg" xmlns:xlink="http://www.w3.org/1999/xlink" width="6.087" height="10.878" viewBox="0 0 6.087 10.878"><defs><radialGradient id="radial-gradient" cx="3.0435" cy="5.439" r="4.4071" gradientUnits="userSpaceOnUse"><stop offset="0" stop-color="#ffd496"/><stop offset="1" stop-color="#f29d25"/></radialGradient></defs><title>LK</title><g id="Layer_2" data-name="Layer 2"><g id="Layer_1-2" data-name="Layer 1"><path id="LK" d="M.7681,0l.27.015L1.3262.008l.201.039.346.436.94.78.513.792.046.173.071.15.123.041.104.068.511.764.06.151-.0089.167.03.124.134.062.166.032.109.115.139.609v.19l.039.081.644.947.037.115-.0071.086.019.075.125.167.194.451.1.103.1179.394.008.753-.044.334-.12.408-.143.398-.154.288-.211.243-.723.517-.207.104-.94.324-.6929.306-.641.083-.6421-.169-.482-.402L.84,9.714.67,9.096.425,8.409.236,6.285l-.09-.594L0,4.933l.015-.329.104-.315L.118,4.98l.0961.086L.285,4.977l.0641-.716L.402,3.958l.256-.79.005-.14L.619,2.731l.002-.149.3821-.554.098-.323.053-.33-.021-.357L1.0651.666,1.373.778l.17.123.173.083.14-.042.17-.001L1.905.75,1.5471.573.9521.464.7661.324.6951.202.7311.06ZM.7321.515.5561.546.4171.358.3841.278.4211.222.4591.194l.045.009L.57.378ZM.4661,2.154l.081.213-.231-.146-.152-.122-.055-.098.315.11Z" fill="url(#radial-gradient)"/></g></g></svg>