<svg xmlns="http://www.w3.org/2000/svg" xmlns:xlink="http://www.w3.org/1999/xlink" width="11.528" height="11.748" viewBox="0 0 11.528 11.748"><defs><radialGradient id="radial-gradient" cx="5.764" cy="5.874" r="5.8193" gradientUnits="userSpaceOnUse"><stop offset="0" stop-color="#ffd496"/><stop offset="1" stop-color="#f29d25"/></radialGradient></defs><title>LR</title><g id="Layer_2" data-name="Layer 2"><g id="Layer_1-2" data-name="Layer 1"><path id="LR" d="M8.478,2.757l.055.033.084.086.08.294.314.949-.016.262-.062.171-.002.167-.021.166-.192.27-.568.554.044.049.135.063.139.032.113-.017.142.138.153.174.162.091.234.079.204.009.174-.031.245.035.261.144.093.237.063.207.09.105.013.179.185.157.265.032.343.184.087-.01.038-.023.042.035.086.532.067.282-.036.115-.045.089-.003.43-.156.246-.025.271-.043.087-.166.078-.001.208-.045.251-.017.266.046.698.009.519.075.098-.323-.043-.95-.397-.731-.227-2.451-1.3-.68-.522L5.2,8.482,3.455,6.915l-.398-.251-.502-.122-.31-.134-.219-.145-.178-.434L1.411,5.57.606,5.202,0,4.59l.149-.126.218-.403.306-.387.285-.23.226-.237.24-.181.342-.212.525-.557.122-.065.084-.386.132-.491.152-.153.357-.091L3.221.986,3.347.639,3.429.236,3.436.148l.14-.01L3.817.051l.14.039.061.116L4.05.304,4.779.052,4.843,0l.038.009.092.227L5.025.222,5.069.157,5.118.15l.057.031.057.105.093.096.158.067.1.091L5.572.783l.038.236.069.054.036.141.018.154.038.081.027.156-.014.168.029.117.116.203.072.255.001.182-.043.19-.077.174-.135.189-.011.075.08.049.122.011.102-.04.258.088.135.124.119.155.107.078.048.097.183-.026L7.103,3.6l.044-.045.063.024.137.01.096-.169.077-.194.165-.211.081-.081L7.787,2.8l.009-.174.06-.151.136-.083.147.001.08.031.041.146.118.111Z" fill="url(#radial-gradient)"/></g></g></svg>