<svg xmlns="http://www.w3.org/2000/svg" xmlns:xlink="http://www.w3.org/1999/xlink" width="6.564" height="6.619" viewBox="0 0 6.564 6.619"><defs><radialGradient id="radial-gradient" cx="3.282" cy="3.3095" r="3.2958" gradientUnits="userSpaceOnUse"><stop offset="0" stop-color="#ffd496"/><stop offset="1" stop-color="#f29d25"/></radialGradient></defs><title>LS</title><g id="Layer_2" data-name="Layer 2"><g id="Layer_1-2" data-name="Layer 1"><path id="LS" d="M4.729,4.87l-.252.08-.035.006-.163-.018-.216.019-.169.044-.132.017-.215.229-.392.618-.104.13-.028.244-.091.193-.112.15-.108.037-.326-.06-.418-.077-.243-.187-.216-.246L1.396,5.87l-.12-.098-.041-.055-.169-.082-.064-.043L.945,5.561.877,5.443.836,5.34l.016-.287-.12-.171L.527,4.591.398,4.352.221,4.026.112,3.748,0,3.46l.015-.124.107-.084.315-.145.244-.112L.856,2.79l.191-.306.093-.183.093-.084.101-.129.177-.287.197-.318.211-.341.266-.099L2.548.929l.35-.298.416-.25L3.985.109,4.298.04,4.418,0l.075.052.08.155.114.131.265.226.112.055.274.336.292.23.337.266.229.132.118.037.096.236.099.175.055.164-.011.16-.106.392-.155.401-.125.166-.152.106-.148.159-.057.322-.067.379-.194.156-.15.103-.209.126Z" fill="url(#radial-gradient)"/></g></g></svg>