<svg xmlns="http://www.w3.org/2000/svg" xmlns:xlink="http://www.w3.org/1999/xlink" width="16.491" height="12.3449" viewBox="0 0 16.491 12.3449"><defs><radialGradient id="radial-gradient" cx="8.2455" cy="6.1725" r="7.2831" gradientUnits="userSpaceOnUse"><stop offset="0" stop-color="#9b0400"/><stop offset="1" stop-color="#4c0200"/></radialGradient></defs><title>LT</title><g id="Layer_2" data-name="Layer 2"><g id="Layer_1-2" data-name="Layer 1"><path id="LT" d="M15.98,3.7269l-.007.223-.068.377-.133.486-.139.376-.034.145.105.121.522.057.2219.064.0431.1-.1161.129-.167.107-.0739.102-.133.363-.868-.046-.115.074-.055.168-.043.194-.114.23-.23.2-.361.074-.295.136-.22.418-.164.56.004.396.021.2211-.0189.126-.1111.137-.182.363-.148.401-.057.217.028.102.167.003.241.082.128.16.047.185v.198l-.045.109-.1929.079-.302.003-.1761-.094-.036-.075.084-.1911-.061-.239-.125-.133-.254.199h-.244l-.292.1781-.191.2839-.183.1041-.4959-.0581-.123.125-.1031.576-.059.112-.414-.024-.399.229-.451.185-.228-.128-.127-.1449-.246.026-.268.064-.18-.035-.202.0159-.39.111-.49-.036-.209-.095-.02-.091.015-.224-.005-.348-.078-.308-.235-.272-.246-.191-.314-.197-.232-.086-.127-.022-.029-.114-.046-.099-.109-.086-.232-.116-.197-.025-.161.187-.118-.234-.125-.421.013-.337.071-.337.341-.999-.018-.16-.248-.28-.3061-.204-.169-.432-.62-.025-.585.024-.184-.021-.557-.181-.537-.292-.359-.171-.302-.192-.163-.202-.257.054-.1741.002.0021-.035-.099-.357.104-.548-.188-.806-.307-.973-.022-1.047-.022-.236.754-.5939L2.1119.49l.216-.0581L3.2039.054l.117-.03.79.07.62.09.523-.011.287-.097.26.081L6.01.442l.216-.034.213-.184,1.17.168.264-.004L8.17.415l.5479.171.316.157.694-.095.297-.005L10.18.581l.479-.43.207-.074.19-.077.174.065.114.367.354.631.385.111,1.063.242.217.127.598.554.359.271.2281.216.348.423.201.307.336.232.398.156ZM.163,5.6469,0,5.6089.321,5.041l.123-.37.085-.526.075-.166.002.239-.033.398L.37,5.293Z" fill="url(#radial-gradient)"/></g></g></svg>