<svg xmlns="http://www.w3.org/2000/svg" xmlns:xlink="http://www.w3.org/1999/xlink" width="2.157" height="3.13" viewBox="0 0 2.157 3.13"><defs><radialGradient id="radial-gradient" cx="1.0785" cy="1.565" r="1.344" gradientUnits="userSpaceOnUse"><stop offset="0" stop-color="#9b0400"/><stop offset="1" stop-color="#4c0200"/></radialGradient></defs><title>LU</title><g id="Layer_2" data-name="Layer 2"><g id="Layer_1-2" data-name="Layer 1"><path id="LU" d="M1.098.202,1.076.319,1.08.58l.079.261.188.258.143.186.193.149.326.141.13.03.018.191-.025.202-.113.111-.106.161-.08.195L1.75,2.84l-.012.259L1.55,2.992l-.099-.073-.172-.02-.171.06L.98,3.09l-.177.04L.658,3.09.572,2.992.495,2.939.276,2.873.181,2.73l.073-.067.062-.106.053-.149.067-.137L.221,1.892.176,1.776,0,1.563l.002-.109.042-.103L.028,1.27l.025-.191L.177.898.259.674.398.368.705,0l.22.057L1.022.055,1.08.19Z" fill="url(#radial-gradient)"/></g></g></svg>