<svg xmlns="http://www.w3.org/2000/svg" xmlns:xlink="http://www.w3.org/1999/xlink" width="20.17" height="12.282" viewBox="0 0 20.17 12.282"><defs><radialGradient id="radial-gradient" cx="10.085" cy="6.141" r="8.3492" gradientUnits="userSpaceOnUse"><stop offset="0" stop-color="#ffd496"/><stop offset="1" stop-color="#f29d25"/></radialGradient></defs><title>LV</title><g id="Layer_2" data-name="Layer 2"><g id="Layer_1-2" data-name="Layer 1"><path id="LV" d="M17.784,2.814l.3311.021.1159.083.078.408.376.321.348.265.089.123.027.236-.022.276-.044.142-.146.164-.127.415-.018.394-.2.68.045.012.422-.122.119.07.093.149.03.425.138.191.141.298.044.231.269.275.021.179.164.627.063.36.029.279-.08.353-.072.238-.084-.015-.241.063-.381.287-.567.675-.146.149-.148.511-.036.052-.33-.023-.09-.012-.33.01-.721-.133-.279.088-.366.516-.143.076-.425.071-.075.06-.142-.024-.398-.156-.336-.232-.202-.307-.348-.423-.228-.216-.359-.271-.598-.555-.217-.127-1.064-.242-.384-.111-.354-.631-.114-.368-.174-.065-.191.077-.206.074-.479.43-.155.061-.297.005-.694.095L8.4,9.139l-.5479-.171L7.554,8.941l-.264.004L6.12,8.777l-.213.184-.216.033-.209-.285-.261-.081-.287.097-.523.011-.62-.09-.789-.07-.117.03-.877.379-.216.057-.951.637-.754.594L0,9.323.046,7.409l.112-.955L.68,5.895l.262-.436.152-.584.046-.542.106-.449L2.0031,2.59l.599-.14.8119-.361.907-.301.175.383.089.292L5.677,3.522l.278.355.422,1.21,1.012.612.795-.193.346-.297.637-.548.284-.402.058-.388-.113-1.67-.172-.728.058-.454.112.023.271-.22.889-.408.178-.019.203-.083L11.495,0l.181.166.15.188.082.002.041-.07L11.938.165l.0391-.086.1609.048.649.511.249.12.171.033.204.239.554.159.068.123.042.154.519.644.233.323.46.296.198.07.806-.302.224-.104.186-.002.189.159.432.211.391.067Z" fill="url(#radial-gradient)"/></g></g></svg>