<svg xmlns="http://www.w3.org/2000/svg" xmlns:xlink="http://www.w3.org/1999/xlink" width="44.455" height="42.78" viewBox="0 0 44.455 42.78"><defs><radialGradient id="radial-gradient" cx="22.2275" cy="21.39" r="21.8128" gradientUnits="userSpaceOnUse"><stop offset="0" stop-color="#ffd496"/><stop offset="1" stop-color="#f29d25"/></radialGradient></defs><title>LY</title><g id="Layer_2" data-name="Layer 2"><g id="Layer_1-2" data-name="Layer 1"><path id="LY" d="M44.455,5.053l-.108.092-.154.196-.097.174-.26.284-.217.303.021.443.049.45.146.439.125.488-.036.318-.107.391-.128.326-.424.669-.065.16.024.225.258.792.02.249.154.766.141.622.156.489.024.134V36.82l-.001,1.492v1.487l-.001,1.482-.009.004-.008.006-.009.005-.009.006-.692-.001H41.863l-.692-.001v1.48l-1.345-.701-1.344-.701-1.345-.703-1.344-.704-1.345-.705-1.344-.706-1.345-.707-1.344-.708-1.345-.71-1.344-.711-1.345-.711L25.037,34.3l-1.345-.715-1.344-.716-1.345-.716-1.345-.718-.928-.497-1.002.485-.785.38-1.034.499h0l-1.188.647-.912.496-.043-.004-.041-.012-.949-.842-.741-.659-.329-.185-1.397-.337L8.92,31.071l-1.462-.354-.266-.539-.297-.603-.401-.755-.245-.463-.082-.072-1.121-.366-1.185-.36-.693.218-.122-.016-.196-.137-.197-.187-.104-.261-.278-.35-.257-.803-.025-.64-.051-.227-.617-.904L.76,23.429l-.373-.55L.315,22.63l.043-.306.15-.275.543-.325.49-.355.067-.246.031-.679-.16-.212-.118-.404-.12-.547-.014-.351.218-.699.255-.733-.162-.814-.12-1.639.075-1.296-.061-.472-.043-.199-.167-.614-.205-.635-.092-.223-.263-.513-.436-.637L0,10.064l.31-.207.275-.162L.92,9.524l.475-.194.246-.146.105-.123.357-.502.186-.278L2.543,7.9l.111-.266.003-.246L2.618,7.09,2.42,6.376,2.258,5.68l.126-.269.101-.128.221-.328.088-.066.477-.102.19-.218.146-.274.037-.144L3.852,4l.249-.151.153-.196.502-.304.458-.277.533-.292.412-.226.087-.198L6.24,2.185l-.224-.39V1.333L6.031.949,6.053.722,6.152.089,6.158,0l.428.211.439.084,1.309.783.413.098.916.093,1.079-.32L11.15.891l.71.301.313.085.526.023.899.272.229.095.524.434.251.13,1.861.397.254.263.259.501.011.622.143.45.231.583.279.412.309.343.355.214.816.316.92.121.928.041,1.593.435,1.351.501.333.247.677.242,1.345,1.174.749.405.525.078.471-.071.837-.406.346-.242.842-1.014.277-.53.11-.375-.027-.381-.105-.343-.236-.36-.165-.476-.097-.859.132-.597.161-.358.254-.366.699-.701.703-.495,1.239-.648.719-.007.298-.072.592-.459.24-.017.332.112.976-.032.43.128.513.286.648.177.457.177.487.227.11.565-.054.168-.012.219.505.388,1.435.182.283.104.395.297.254.091.983.042.573-.063.546.104.202.1.209.232.253.562Z" fill="url(#radial-gradient)"/></g></g></svg>