<svg xmlns="http://www.w3.org/2000/svg" xmlns:xlink="http://www.w3.org/1999/xlink" width="33.992" height="27.243" viewBox="0 0 33.992 27.243"><defs><radialGradient id="radial-gradient" cx="16.996" cy="13.6215" r="15.4014" gradientUnits="userSpaceOnUse"><stop offset="0" stop-color="#ffd496"/><stop offset="1" stop-color="#f29d25"/></radialGradient></defs><title>MA</title><g id="Layer_2" data-name="Layer 2"><g id="Layer_1-2" data-name="Layer 1"><path id="MA" d="M30.753,2.835l.081.253L31,3.29l.592.461.351.284.01.098-.113.233-.048.16.092.171.217.206.017.099-.052.115-.112.221.238.648.04.627-.062.445.002.257.031.218.202.503-.135.831.152.452.209.366.114.652.168.309.275.271.157.091.303.224.217.186.127.278-.272.228-.218.204-.062.22.102.352v.189l-.139.06-.566-.02-.444-.015-.51-.017-.718-.034-.444-.021-.61-.028-.21.014-.559.098-.395.07-.067.019-.123.087-.085.259-.076.295-.082.131-1.185.426-.463.059-.268-.044-.191.035-.164.091-.056.137-.008.176.035.177.114.246.02.246-.073.174-.017.174-.034.188.061.102.114.016.115.086.162.078.134.149-.006.212-.112.12-.099.063-.444.056-.351.045-.459.338-.489.36-.578.238-.255.067-.445.171-.533.281-.263.45-.331.518-.319.347-.435.329-.406.125-.51.158-.643.121-.455.04-.136.026-.401.008-.196-.025-.147-.014-.059.037-.02.081-.008.186-.027.213-.127.179-.09.08-.105.033-.337-.048-.282-.057-.671-.076-.134.018-.05.022-.209.122-.322.256-.219.224-.163.105-.39.055-.17.082-.726.559-.155.136-.747.485-.211.161-.165.159-.446.358-.285.157-.052.093-.014.218v3.054h-.377v.001l-.002-.001L0,27.243l.004-.012.38-.36.257-.456.436-.203.912-.098,1.355-.379,1.216-.573.344-.228.368-.458.612-.597,1.143-.718.526-.402.802-1.009.533-.837.443-.54.306-.48.215-.487.121-.786-.081-.308-.338-.504-.226-.135-.061-.238.121-.42-.002-.724.068-1.16.376-.939.919-1.235.171-.509.105-.81.009-.287,1.15-1.156.673-.889.234-.218.594-.407,2.074-.891,1.172-.639.684-.466.408-.553,1.13-2.179L20.262.857l.093-.36.496-.104.351-.045.283-.114L21.835,0l.336.094-.168.159V.637l.238.449.414.504.752.639.586.256.837.154.976-.28.546-.005.265-.121.289.177.549.057.53-.093.401-.268.255-.309.04.152.012.164.078.096.158.392.083.153.305-.025.265.077.598-.037Z" fill="url(#radial-gradient)"/></g></g></svg>