<svg xmlns="http://www.w3.org/2000/svg" xmlns:xlink="http://www.w3.org/1999/xlink" width="9.857" height="12.415" viewBox="0 0 9.857 12.415"><defs><radialGradient id="radial-gradient" cx="4.9285" cy="6.2075" r="5.6046" gradientUnits="userSpaceOnUse"><stop offset="0" stop-color="#9b0400"/><stop offset="1" stop-color="#4c0200"/></radialGradient></defs><title>MD</title><g id="Layer_2" data-name="Layer 2"><g id="Layer_1-2" data-name="Layer 1"><path id="MD" d="M4.472,12.415l-.14-.253L4.19,11.941l-.1039-.119.0439-.055.1131-.063.081-.075-.0091-.264-.06-.304L4.2,10.914l-.0051-.231-.039-.36.0551-.67.226-.844.125-.421-.061-.231.047-.54L4.45,7.35,4.297,7l-.2191-.763L3.804,5.971l-.3381-.293L3.322,5.457l-.097-.244L3.024,4.97l-.231-.223-.276-.559-.143-.253L2.33,3.868l-.315-.36L1.85,3.183l-.084-.268-.048-.247-.222-.491-.201-.369-.1911-.264L1.016,1.357.792,1.122.473.934.266.902,0,.917.061.773.64.382.791.446l.303.015L1.711.448,2.015.19l.1879.072L2.356.146,2.611,0l.0369.031L2.68.054l.394.065.297.14.198.215.205.133.21.052L4.101.767l.023.162.198.08.371-.002.157.107-.0561.217.0381.071.132-.074.1.064.052.16.06.076.189-.251.2.025.4831.104.258.519.161.186.141.076.1779-.081L6.944,2.11l.09.045.196.343.045.448-.001.18-.069.304-.099.322-.078.21.033.168.07.141.114.046.374.284.14.198.203.146.154.008.08.081.028.1-.0211.252-.086.236.0111.152.136.18.015.208.009.134.072.103.3429.229.4431.221.113.19.0689.24-.0219.403-.029.35.58.47-.066.088-.09.096-.554.071-.113.039-.241-.353-.127-.045-.118.13-.14.072-.167-.036-.18-.109L7.97,8.378l-.073-.009-.112.077-.149-.033-.098-.087-.141.3-.086.063L7.257,8.68l-.011-.51-.041-.077L7.093,8.08l-.27.122-.257.157-.0871.139.0091.251.037.299.175.453-.0961.197-.068.314-.2749.287-.312.167-.026.342-.173.233-.296.233-.198.281.05.191.012.182-.034.123-.007.095-.078.042-.4521.035-.1279.059Z" fill="url(#radial-gradient)"/></g></g></svg>