<svg xmlns="http://www.w3.org/2000/svg" xmlns:xlink="http://www.w3.org/1999/xlink" width="5.364" height="6.369" viewBox="0 0 5.364 6.369"><defs><radialGradient id="radial-gradient" cx="2.682" cy="3.1845" r="2.944" gradientUnits="userSpaceOnUse"><stop offset="0" stop-color="#ffd496"/><stop offset="1" stop-color="#f29d25"/></radialGradient></defs><title>ME</title><g id="Layer_2" data-name="Layer 2"><g id="Layer_1-2" data-name="Layer 1"><path id="ME" d="M2.127.036,2.12.083l.013.139.063.135.223.138.327.274.384.502.176.148.159.037.309.207.2161.051.2409.057.628.433.283.126.2.163.022.153-.009.095-.363.11-.063.169L4.753,3,4.54,2.999l-.069.107.102.176.066.206-.053.283-.018.037-.051-.01-.3.164-.222.077-.201.039-.095-.079-.047-.107.009-.31-.037-.105-.068-.051-.138.073-.159.241-.149.278-.223.29-.184.278-.198.351-.135.289.14.164.086.226-.026.17.025.099-.044.297-.008.187L2.105,6.07l-.18-.421-.64-.713L.552,4.45.513,4.373l.04-.094.035-.074L.435,4.199l-.106.06L.2271,4.242.113,4.059.005,3.901,0,3.761l.049-.018.073-.056.155-.155L.308,3.45.3,3.326.083,2.934.052,2.679.021,2.204l.046-.112.079-.055.379-.059L.52,1.607l.023-.112.076-.154L.667,1.2.878.997,1.164.756,1.289.748l.109.034L1.522.99,1.657.963l.028-.25L1.508.386,1.414.177,1.443.061,1.509,0l.153.038.145.058L1.898.057l.145-.03Z" fill="url(#radial-gradient)"/></g></g></svg>