<svg xmlns="http://www.w3.org/2000/svg" xmlns:xlink="http://www.w3.org/1999/xlink" width="20.2781" height="39.87" viewBox="0 0 20.2781 39.87"><defs><radialGradient id="radial-gradient" cx="10.139" cy="19.935" r="15.8146" gradientUnits="userSpaceOnUse"><stop offset="0" stop-color="#ffd496"/><stop offset="1" stop-color="#f29d25"/></radialGradient></defs><title>MG</title><g id="Layer_2" data-name="Layer 2"><g id="Layer_1-2" data-name="Layer 1"><path id="MG" d="M17.628.9971l.129.299.15.287.469.694.201.267.171.284.0831.567.299.8819.281,1.328.086,1.365.0869.627.219.591.359.6141.1161.683-.22.705-.317.665-.082.125-.149.171-.067-.007-.254-.172-.208-.281-.263-.661-.096-.335-.11-.053-.308.029-.223.208-.041.131.0479.373.0851.3349.0369.3411.0071.4289.083.13.122.1091.127.281.022.67-.078.339-.217.292.013.161.081.1659-.077.1-.289.126-.1171.112-.156.297-.2529.6059-.034.31.158.944-.044.67-.3221,1.285-.1859.611-.263.731-.402.965-.398,1.2151-.338,1.253-.25.755-.284.745-.389,1.3189-.33,1.343-.491,1.482-.678,1.659-.073.217-.141.851-.152.74-.182.734-.38,1.216-.043.375-.086.3611-.3661.7659-.155.285-.109.303-.062.385-.109.372-.268.685-.399.59-.272.2151-.588.312-.298.063-.661.007-.64.178-.667.3419-.642.393-.246.1871-.271.107-.848.0219-.254-.085-.849-.646-.329-.106-.623-.088-.188-.055-.171-.084-.252-.337-.5-.284-.12-.089L2.107,37.9l-.052-.211-.13-.2361-.096-.4489-.163-.313-.46-.553-.049-.177-.037-.586.015-.396-.0449-.724.0529-.34.162-.3061-.0659-.331-.172-.348-.0641-.359L.877,32.244l-.482-.588-.113-.289-.078-.299-.182-.9311L0,29.813l.027-.6841.067-.352.117-.2449.029-.183.076-.157.114-.125.077-.149.18-.87.228-.193.3381-.111.2709-.227.1561-.306.156-.631.426-.625.152-.328.344-.496.304-.696.092-.328.0659-.335.0771-.735.0579-.365-.012-.362-.174-.3709-.415-.673-.013-.125.033-.5-.0349-.361-.153-.36-.196-.338-.193-.6321-.094-1.043.02-.376-.057-.3339-.14-.318.1-.555,1.241-2.01.041-.236-.05-.611.026-.355.043-.132.095-.077.212-.037,1.003-.087.129-.062.25-.168.344-.326.158-.094.136.035.087.139.112.076.405-.147.155-.004.159.024.074-.136.044-.182.059-.128.108-.073.521-.04.333-.052.43-.127.092.025.347.458.105.039.135.019.1179-.083-.2819-.239-.042-.135.015-.154.151-.329.252-.2511.56-.381.582-.44.169-.03.143.069.11.52-.014.085.093.012.108-.064.096-.209.005-.174-.078-.167-.038-.141-.003-.13.295-.307.232-.292.1069-.349.0931-.161.245-.181.072.028.057.147.032.156-.063.155-.089.153-.036.204.138.04.13-.049.19-.369.217-.349.129-.182.163-.126.271.025.263.078-.429-.368-.107-.504.51-.871.005-.181.074-.056.035-.07-.264-.293-.05-.146.035-.221.126-.196.1149-.137.1631-.053.129.075.284.241.191.037.231-.231.189-.289.284-.198.323-.123.491-.455.32-.95.0251-.277-.071-.335-.113-.319-.189-.398.049-.088.269.053.09-.056.292-.352L16.6992,0l.158.001.136.125.0511.185.096.136.325.32ZM14.27,3.6631l.004.104-.369-.043-.058-.359.181-.011.04-.147.11-.018.119.319ZM18.745,13.89l-.315.536.089-.447.365-.644.104-.049Z" fill="url(#radial-gradient)"/></g></g></svg>