<svg xmlns="http://www.w3.org/2000/svg" xmlns:xlink="http://www.w3.org/1999/xlink" width="13.7839" height="15.139" viewBox="0 0 13.7839 15.139"><defs><radialGradient id="radial-gradient" cx="6.892" cy="7.5695" r="7.2387" gradientUnits="userSpaceOnUse"><stop offset="0" stop-color="#ffd496"/><stop offset="1" stop-color="#f29d25"/></radialGradient></defs><title>MH</title><g id="Layer_2" data-name="Layer 2"><g id="Layer_1-2" data-name="Layer 1"><path id="MH" d="M.128.043.055.063,0,.043.04.006.1219,0,.153.01ZM5.573,10.904l-.041.043-.271-.026-.124-.054.012-.041.214.0391Zm6.375.48.352.144.468-.067-.075.043-.175.04-.116.035h-.078l-.093-.014-.3-.1-.1681-.132.0411-.044Zm1.334.253.104.061.207-.004.1909.155-.073-.01-.104-.066-.0949-.028-.128.008-.06-.025ZM7.831,15.055l-.056.084-.069-.006.061-.063.042-.088.067-.25.139-.089.096-.104-.023.108-.15.113Z" fill="url(#radial-gradient)"/></g></g></svg>