<svg xmlns="http://www.w3.org/2000/svg" xmlns:xlink="http://www.w3.org/1999/xlink" width="7.177" height="5.64" viewBox="0 0 7.177 5.64"><defs><radialGradient id="radial-gradient" cx="3.5885" cy="2.82" r="3.2272" gradientUnits="userSpaceOnUse"><stop offset="0" stop-color="#ffd496"/><stop offset="1" stop-color="#f29d25"/></radialGradient></defs><title>MK</title><g id="Layer_2" data-name="Layer 2"><g id="Layer_1-2" data-name="Layer 1"><path id="MK" d="M5.32.167l.433.562L5.99.957l.279.172.319.126.115.12.203.595.097.226.135.067.033.065.006.086-.152.417-.062.931-.038.074-.159-.004-.212.02-.08.072-.085.499-.341.142-.309.08-.26-.018-.458-.118-.149-.013-.128.067-.409.036-.179.087-.421.582-.426.201-.146.101-.325-.128-.156-.014-.226.148-.494.015-.133.026-.381.023-.016-.08-.071-.117-.178-.055L.82,5.435.732,5.35l-.15-.494L.466,4.777.335,4.611.114,4.073.108,3.837.123,3.63,0,3.146l.076-.123L.19,2.946.191,2.75.159,2.453l.135-.584L.33,1.826l.035.028.326.047.085-.074L.83,1.711l.017-.429.078-.198.79-.378L1.948.692l.178.174.141.111L2.352.973,2.383.862,2.479.646,2.641.523,3.122.418h.004l.157.021L3.622.342,3.834.208l.108-.02L4.085.137l.206.007L4.5.202,4.766.125,5.027,0l.105.032.113.106Z" fill="url(#radial-gradient)"/></g></g></svg>