<svg xmlns="http://www.w3.org/2000/svg" xmlns:xlink="http://www.w3.org/1999/xlink" width="46.35" height="43.604" viewBox="0 0 46.35 43.604"><defs><radialGradient id="radial-gradient" cx="23.175" cy="21.802" r="22.499" gradientUnits="userSpaceOnUse"><stop offset="0" stop-color="#ffd496"/><stop offset="1" stop-color="#f29d25"/></radialGradient></defs><title>ML</title><g id="Layer_2" data-name="Layer 2"><g id="Layer_1-2" data-name="Layer 1"><path id="ML" d="M46.33,17.632l.002.516.002.777.003.865.002.796.003.906.003.727.002.859.003.853-.089.098-.033.479-.025.63-.171.652-.299.48-.108.456-.082.261-.112.142-.026.17-.059.24-.095.155-.074.08-.301.094-.53.459-.046.367-.604-.101-.642-.104-.086.007-.054.048-.026.194-.874.032-.754.028-.934.032-.642.022-.814.044-.755.041-.502.422-.453.402-.036.014-.642.079-.801-.07-.412-.004-.162.048-.031.151-.59-.212-.682-.215-.476.135-.076-.046-.062-.09-.23-.052-.365.023-.264.064-.414.318-.312.277-.085.063-.436.168-.81.39-.46.287-.106.052-.204.065-.314.013-.262.072-.236.754-.157.075-.966-.304-.195.045-.168.089-.539.442-.267.354-.146.47.021.145.004.164-.095.089-.13.032-.117-.005-.448-.097-.14.042-.061.232.009.506-.098.344-.266.106-.206.136-.162.039-.135-.033-.779-.514-.263-.082-.292.057-.28.218-.127.143-.175.169-.197.225.052.19.139.221.099.274-.005.245-.711.348.058.119.107.14.001.253-.02.443-.144.16-.186.158-.115.203-.113.1-.202.125L21,38.237l-.48.11-.384.074-.145.072-.204.148-.163.178-.039.192.033.22.057.18.071.123.043.155-.058.417-.139.483-.134.215-.215.118-.186.132.061.316.032.453-.052.362-.009.223-.079.232-.046.163-.093-.04-.386.019-.42.124-.147.099-.032.135-.093.091-.134.102-.129.125-.232-.02-.224-.086-.117-.083-.007-.05.073-.122.063-.133.006-.088-.076-.216-.062-.232.025-.111-.055-.342-.03-.017-.294.088-.107.022-.061.038-.02.065.071.217-.046.037-.165-.005-.23-.072-.251-.199-.063.065-.027.158-.017.187.064.34-.067.121-.168-.022-.226.001-.197.033-.131.008-.081.121-.035.136.079.15-.012.064-.061.058-.077.035-.064-.004-.182-.167-.218-.062-.507-.096-.061-.228-.084-.004-.117-.12-.116-.159-.098.008-.082.045-.278-.018-.247.241-.183.3-.196.144-.216.063-.083.002.045-.189-.031-.139-.061-.123-.629-.329-.098-.136-.099-.374-.063-.374.007-.219.043-.197-.018-.152-.069-.116-.189-.112-.196-.052-.25.146-.12.028-.112-.01-.058-.054.008-.075.272-.401.132-.167.159-.128.107-.068.069-.098.006-.078-.025-.056-.177-.074-.276-.187-.147-.02-.123-.085-.13-.293-.061-.056-.13-.03-.12-.072.006-.381.005-.329-.268-.53-.104-.334-.135-.344-.124-.161-.217-.135-.267-.094-.237-.022-.182.032-.085.042.004.064.148.217.027.121-.025.117-.05.078-.131.009-.23.067-.283.132-.198.113-.159.286-.11.036-.187-.036-.533-.211-.439-.174-.303-.1-.182.064-.093.031-.261.116-.347.423-.083.14-.069.045-.094.074-.09.002-.072-.05-.023-.031-.178-.305-.195-.336-.16-.152-.201-.007-.171.105-.179.216-.225.2-.143.06-.125-.033-.307-.252-.219-.18-.027-.09.077-.138.076-.206.083-.167.08-.077.02-.213-.186-.151-.006-.073.019-.2.083-.423-.008-.161.075-.315-.122-.142-.028-.105-.137-.168-.157-.238-.036-.191-.055-.152-.151-.229-.11-.036-.236-.035-.039.079-.087.114-.08.033-.129-.14-.049-.12.001-.109-.175-.191-.272-.35.028-.289.168-.156.05-.118.015-.132-.076-.16-.09-.126.025-.279L.734,32.01l-.138-.194-.125-.142-.175-.153-.149-.236.06-.324.057-.223L0,30.275l.494.183.065-.06.168-.112.227-.236.19-.313.086-.387.038-.334.085-.283.108-.24.236-.25.222-.177.264-.184.134.033.251.257.551.515.455.392.166.208.147.002.226-.38.234-.327.099-.08.308-.036.262-.014.229.006.42.063.192.058.18.035.528.029.523-.08.497-.103.368-.061.019-.155-.021-.183.059-.139.116-.129.098-.029.042.44.117.066.328.019H18.995l.16-.849.146-.779.122-.654-.42-.462-.334-.368-.078-.702-.079-.725-.08-.726-.081-.727-.079-.728-.08-.729-.08-.73-.08-.731-.08-.732-.08-.734-.08-.734-.08-.735-.08-.737-.079-.738-.08-.739-.081-.741-.079-.741-.08-.743-.08-.744-.08-.745-.08-.747-.08-.747-.08-.75-.08-.75-.08-.752-.079-.753-.08-.755-.08-.756-.08-.758-.08-.759-.08-.76-.08-.762-.08-.764L15.959.002h.862L17.74.001h.895L19.948,0h.983l.857.588.777.555.919.657.919.656.92.655.919.653.919.652.918.652.92.649.919.65.919.648.919.647.919.646.919.645.919.644.919.643.919.642.919.642.411.286.038.118.038.241-.024.271.004.221.121.149.229.16.899.472.071.093.032.195.107.239.19.14.222.103.271.072.815.074.173.111.352.435.191.086.543.125.393.07.162.04.356.116.387.198.205.179v.056l-.002.156-.003.467.071.257.081.186-.004.113-.098.08-.076.099-.042.13-.111.165-.089.184.038.138.153.09.229.175.19.074.093.005.124-.005.107-.023.686-.134.636-.125Z" fill="url(#radial-gradient)"/></g></g></svg>