<svg xmlns="http://www.w3.org/2000/svg" xmlns:xlink="http://www.w3.org/1999/xlink" width="25.164" height="55.3759" viewBox="0 0 25.164 55.3759"><defs><radialGradient id="radial-gradient" cx="12.582" cy="27.688" r="21.505" gradientUnits="userSpaceOnUse"><stop offset="0" stop-color="#ffd496"/><stop offset="1" stop-color="#f29d25"/></radialGradient></defs><title>MM</title><g id="Layer_2" data-name="Layer 2"><g id="Layer_1-2" data-name="Layer 1"><path id="MM" d="M25.142,21.4289l-.1649.296-.4291.307-.3029.156-.177.004-.15.184-.123.362-.1279.212-.1321.063-.085.137-.04.21.076.112.192.015.0151.059-.162.103-.2021.036-.24-.031-.2291.083-.216.195-.184.421-.152.646-.02.166-.334-.188-.1389-.106-.1791-.027-.184.119-.146.129-.149.047-.229.015-.3-.067-.204-.06-.031.033.111.272.039.217-.044.113-.097.094-.146.074-.172.043-.152-.004-.243-.103-.1859-.004-.159.051-.097.076-.054.095-.094.536-.082.167-.115.095-.115.01-.158-.026-.165.022-.749.207-.109.02-.234.016-.218.006-.153-.01-.359-.212-.1741-.022-.096.06-.0659.284-.21.181-.28.393-.064.574.028.4-.251.396-.023.191.135.916-.022.096-.052.047-.1569.032-.2651.096-.1749.091-.084.01-.247-.068-.0641-.001.019.07.197.396.204.188.213-.021.092.037-.027.095.082.248.19.4.058.3-.116.298.021.107.0629.063.18.277.383.433.375.468.313.39.229.27.512.501.0911.235.02.474.1259.274.1171.196.0809.164.188.536.08.072.41-.326.095.068.054.123v.156l-.064.177-.133.164-.634.378-.052.325-.044.493-.011.605.031.452-.023.104-.056.049-.239-.02-.344.228-.122.02-.151.087-.115.108-.037.164.068.496.123.465.241.341.191.27.267.375.21.326.425.357.596.534.2281.295.2009.357.1421.305.054.404.044.226.013.756-.109.172-.084.199.047.208.139.199v.227l.13.407.218.249.21.167.093.132-.03.212.062.225.046.245.0851.339.169.287.257.879-.006.09-.111.178-.162.161-.104.052-.099.166-.235.469-.474.808-.462.526-.3889.374-.281.227-.0831.135v.106l.0511.188-.02.358-.06.227-.08.24-.0449.214-.125.0321-.2681.4079-.116-.2049-.068-.2131.073-.483-.163-.915.102-.122.097-.062.178-.351.215-.348.021-.416.174-.305-.041-.255.0089-.299.037-.245-.0139-.201.138-.208.239-.156-.1-.056-.1-.114-.313.173-.16-.057-.032-.18.04-.193.016-.117.125-.132-.0089-.258-.063-.227.091-.281-.185-.001-.085-.057.0529-.156.1681-.138-.153-.264.1129-.283-.004-.35-.077-.309.004-.222-.118-.394-.054-.504-.249-.375-.185-.547-.494-.716.0089-.307-.026-.27-.1079-.131-.143.955-.109-.188-.035-.533-.071-.253.077-.503-.286-.5-.061-.363-.1879-.551.0549-.124.251.124-.231-.321-.188.072-.16-.347-.0349-.941-.157-.352.086-.359-.179-1.288-.354-.418.07-.36.088-.32-.02-.592.0869-.183.172-.14-.161.049-.137.042-.321.035-.363.007-.1259-.433-.178-.208-.156-.435-.094-.495.061-.097-.28-.202-.072-.124-.293-.322-.333-.245.0739.172.09.109-.166.298.1619.502-.142.32-.133.416-.127.198-.401.426-.325.144-.212.027-.188-.045-.23-.22-.0561-.184-.037-.309-.081-.044-.0869.0361.136.3989-.0021.186.245.358-.0869.1-.444.196-.151-.032-.107.039-.029.161-.056.09-.699.246-.146.277-.09.281-.3481.403-.466.333-.1149-.019-.1321-.078.018-.36.16-.305-.051-.326-.039.187-.301.454-.1371.1481-.276-.039-.382.061-.144-.466.003-.171-.028-.145.044-.153-.014-.1221-.0919.2331-.035.2019-.14.18-.383.193-.016-.245-.013-.221.082-.199-.0121-.315.122-.456-.01-.156-.037-.173-.0679.251-.039.26-.0771.079-.141.059-.258.298-.151.267-.4.2521-.211-.026-.027-.32.16-1.135.157-.16.073-.197.131-.665.1469-.251.058-.528.06-.091.197-.415.068-.762-.081-.379-.185-.368-.1779-1.106-.464-.898-.038-.3-.229-.363.211-.026-.4341-.318-.06-.13-.0869-.746.017-.417-.063.055-.059.257-.17.105.076.445-.02.108-.09.173-.362-.18-.266-.196-.301-.477-.295-.535.104-.083.136-.01.419.398.271.083.172-.099.213-.17.102-.33-.104-.121-.205-.066-.135-.089-.196-.224-.024-.114-.0609-.146-.198-.103-.16-.131.135-.231.133-.172-.352.008-.4-.296-.083-.086-.133-.059-.315-.035-.2621.087.1191.423-.023.14-.172-.0209-.358-.6441.108-.163.1539-.153L2.494,25.55l-.149.01.146-.572-.089-.0849-.046.1789-.079.172-.305.404-.151-.076-.104-.101.146-.212.079-.057.0549-.114-.1129-.222-.18-.162-.144-.279-.075-.004.066.329-.027.47-.322-.519-.6451-.738-.1519-.222-.034-.217-.072-.2-.05-.219-.011-.169-.14-.153-.063-.268L0,22.2529l.08-.194.201-.209.143-.037.118.092.278.138.188.129.083.169.088-.021.089-.108-.018-.133-.09-.35-.0251-.425-.004-.996-.022-.114.1551-.1.063-.114.063-.17.04-.075.09-.005.142.083.232.285.155.064.154-.045.161-.4271.059-.1159.078-.076.143.013.0831-.077.031-.185-.001-.206-.159-.564-.048-.261-.026-.257.1-.265.136-.31-.032-.271.037-.105.111-.015.139.065.153-.045.116-.166.047-.145.07-.627.047-.575.02-.469-.119-.281-.183-.7561.053-.1289.083-.03.271.265.117.044.197-.041.194-.059.141-.004.203.091.279.101.437.125.179.094.148-.013.12-.294.139-.429.206-.639.236-.465.063-.124.263-.379.255-.398.223-.503.1241-.363-.011-.151-.08-.125-.167-.08-.138-.083-.0381-.075.0041-.085.071-.236.1209-.279.126-.151.331-.187.211-.241.238-.319.129-.217.065-.442.071-.088.146-.143.111-.167-.009-.091-.059-.065-.11-.31-.051-.486.024-.395.083-.161.11-.224.204-.138.291-.096.445-.262.771-.608.278-.198.19-.103.185-.255.254-.279.363-.139.233-.054,1.1-.191.1849.024.186.111.231.372.2051.14.2379.098.179-.042.0051-.15-.566-.868L13.201,3.17l-.02-.227.0641-.18.177-.172.244-.194.304-.243.191-.168.2249-.054.081-.0969.0231-.141L14.478,1.54l-.103-.174.021-.219L14.43.948l.096-.116.21-.315.13-.228.068-.097.101-.171L15.207,0l.1681.054.1.097.1.198.109.162h.134l.136-.0231.063.022.13.1351.248.324.11.082.104.138.055.276.034.277.311.961.093.202.069.154.145.038.118-.154.046-.165.122-.056.146.03.268.1539.144.0831.072.474.016.5549-.021.172.117.457.036.524.0251.287.003.273-.021.358-.063.479-.105.409.038.34-.063.155-.256.079-.0219.13.075.2131.179.2669.005.168-.087.1141-.188.0109-.2609.106-.18.344-.19.282-.104.056-.3481-.08-.083.0719-.122.48-.1.207-.1489.174-.1371.103-.124.072-.276-.048-.146.289-.146.381-.012.197.076.31-.04.086-.149.0669-.245.139-.151.4411.006.428.09.146.169.064.121.131.012.206.104.257-.049.299-.344.435-.01.237.183.073.158-.034.195-.103.229-.166.5041-.242.549-.138.434-.026.371.01.182.051.055.089.508-.141.106-.008.092-.008-.003.094-.372.387-.069.18.012.193.152.1789.147.138.125.3461-.097.316.062.115.109.129.066.182.009.221-.0621.353.537.184.464.083.338.022.217.081.131.07.092.126.0269.138-.1129.097-.229.3089-.132.413.0139.309-.016.268-.266.386-.1049.265-.0931.271.003.118.055.082.113.0481.196.0289.24-.031.572.065.653.119.259.065.085.12-.021.261-.041.243.042.187.105.171.177.057.152.066.0289.1311-.047.178.0771.14.0869.092.188.053.381-.114.267.051.2411.078.205-.041.203-.1.444-.451.517-.244.17-.058.114.029.028.031-.007.092.054.371ZM2.3281,26.3329l.037.2821L2.23,26.499l-.176-.392.005-.257.126.12Zm1.352.093.0609.409-.192-.153-.071-.211-.019-.216Zm.6259.991.321.245.128-.017.199.155.005.061-.038.126-.09.099-.2429.099-.167-.08-.066-.268-.196-.126-.051-.107.124-.146Zm-.0669,2.58-.047.025-.292-.247-.231-.318.367-.063.354.069.002.169-.076.272Zm10.901,7.11-.106.038-.159-.19-.032-.452.133-.104.071-.025.104.056.04.073.018.091-.028.093Zm-8.695.892-.183.283-.067-.423.297-.235.1469-.225.1551-.153.049.187-.147.354Zm.9209.367-.058.074-.1149-.053-.027-.032.265-.319.028.119Zm9.852,7.836-.018.47-.141-.227-.023-.259.011-.241.03-.039.009.037.084.108Zm.276,1.433.063.079.09-.002-.025.279-.22.343-.1309.05h-.058l.049-.501-.081-.286.027-.19.236.088Zm-.9759.594-.0171.104-.1619.2131-.1431-.124-.036-.067.1451-.137.1539.02.0411-.031Zm.198.684-.0331.016-.046-.009-.093-.046-.107-.194.057-.136.039-.0329.094.0109.05.026.017.05-.0269.107.004.092Zm1.065.699-.117.016-.0561-.461.0331-.066.166.226.236.138-.093.09Zm-1.237.606.0219.158-.1749-.168-.03-.468.138.295.06.067Zm1.3419-.15-.0709.587-.178-.081h-.085l-.1061-.332.008-.0889-.064-.218.413-.038Zm-.932.76-.016.064-.0189-.002-.063-.045.039-.27.106-.221.109-.324.061-.07.022.171-.0671.367-.057.2Zm.899,1.468-.064.006-.059-.014-.058-.044.138-.305Zm-.932.025.234.491-.025.076-.036.038-.056-.013-.094-.265-.1761-.171-.211.032.175-.217.069-.049Zm-.076,2.89-.136.165-.046-.0069.063-.274.226-.2.199-.018-.022.1239-.146.1521Z" fill="url(#radial-gradient)"/></g></g></svg>