<svg xmlns="http://www.w3.org/2000/svg" xmlns:xlink="http://www.w3.org/1999/xlink" width="90.241" height="43.247" viewBox="0 0 90.241 43.247"><defs><radialGradient id="radial-gradient" cx="45.1205" cy="21.6235" r="35.3796" gradientUnits="userSpaceOnUse"><stop offset="0" stop-color="#ffd496"/><stop offset="1" stop-color="#f29d25"/></radialGradient></defs><title>MN</title><g id="Layer_2" data-name="Layer 2"><g id="Layer_1-2" data-name="Layer 1"><path id="MN" d="M81.22,10.197l-.263.602-.526,1.202-.445,1.012-.236.568-.172.432-.179.409-.026.245-.201.394-.374.475-.081.514.015.461-.032.412-.41.261-.321.232.092.778.165.293.267.316.281.253.243.213.268-.102.227-.325.438-.286.243-.007.17.066.38.019.389-.104.305-.022.394.07.142.068.331.126.357.275.25.307.182.059.093-.098.2-.273.281-.263.341-.432.257-.332.202-.051.39.001.175-.08.295-.042.261.123.726.065.195.17.344.505.195.269.338.135.204.093.181.072.18.13.043.157.073.24.11.138.205.136.156.082.049.173.049.085.143.121.421.516.205.138.312.298.13.247.007.259.081.197.208.296.098.2-.039.271.034.24-.081.247-.335.183-.116.087-.242.008-.41-.092-.399.052-.477-.102-.374-.217-.2-.175-.319-.103-.15.054-.189.225-.208-.04-.192.04-.494-.046-.269-.057-.425.157-.241.049-.452.192-.271.333-.203.079-.198-.016-.141-.122-.206-.147-.306.008-.091.063-.038.135-.1.41.002.184-.067.119-.181.039-.317-.011-.497-.027-.336-.106-.202.045-.275.222-.196.036-.159.094-.129.327-.202.203-.244.252-.262.537-.144.307.046.165.032.2-.121.227-.246.211-.198.039-.296.203-.407.365-.304.306-.396.074-.281.078-.623.095-.154.024-.683.047-.506-.164-.266.025-.236.093-.12.101-.042.192-.042.177-.192.275-.387.364-.319.241-.245.312-.139.113-.28.119-.151.064-.351.277-.279.247-.184.069-.222-.065-.147-.021-.434-.095-.294-.012-.411-.061-.962-.289-.309-.135-.273-.368-.247-.187-.335-.02h-.503l-.225-.073-.378.069-.413.374-.195.278-.169.285-.207.607-.092.405-.07.228-.221.363-.024.203.076.176.159.198.095.311.232.33.228.257.429.414.122.217.145.248.031.242-.027.158-.154.121-.301.061-.145.167-.221.224-.262.258-.123.014-.148.069-.741.319-.282.089-.222.106-.263.324-.207.241-.256.32-.113.141-.227.319-.299.364-.166.195-.09.116-.082.153-.313.117-.258.125-.39.188-.559.206-.452.2-.287.164-.427.207-.29.066-.584-.008-.722.053-.526.04-.395-.05-.597-.029-.457-.04-.305.077-.719.081-.161.018-1.281.196-.566.104-.518.048-.381.076-.216.096-.32.136-.169.06-.567.268-1.262.552-.844.447-.139.076-.569.315-.329.123-.229.28-.183.177-.192.076-.342-.18-.242.01-.773-.066v-.818l-.542.115-.865.185-.802.171-.734-.392-.566-.303-.492-.261-.746-.173-.651-.151-1.174-.249-.516-.218-.261-.289-.466-.656-.151-.13-.227-.09-.235-.057-.51.003-.622-.051-.896-.138-.712-.111-1.214-.205-.288-.025-.635.182-.814.233L31.443,39.4l-.648-.085-1.313-.174-1.486-.197-1.44-.204-1.046.112-.583.063-.673.09-.093-.101-.027-.391-.121-.303-.368-.328-.247-.312-.471-.423-.148-.267-.05-.414-.434-1.081-.27-.735-.068-.149-.116-.24-.152-.125-.323-.077-.087-.13v-.255l.051-.353.066-.258-.047-.065-.843.073-.517-.171-.431-.186-.612-.476-.363-.184-.465-.494-.676-.117-.252-.194-.318-.424-.277-.273-.394-.172-.622-.153-1.062-.146-.36-.062-.586.098-.435.008-.705-.104-.402-.131-.496-.004-.323.002-.431-.03-.208-.086-.193-.105-.362.026-.253-.105-.236-.196-.247-.093-.27.006-.111.087-.104-.008-.067-.265-.253-.429-.038-.193-.155-.222-.091-.202.025-.279.109-.543.243-.492.158-.128.097-.146.204-.255.118-.204-.014-.28-.139-.292-.1-.377.018-.217.15-.258.176-.573-.015-.151-.069-.12-.018-.267L9.1,23.133l-.211-.549-.114-.292-.2-.126-.234-.076-.202-.396-.254-.468-.159-.294-.055-.18-.025-.327-.119-.397-.125-.218-.093-.168-.048-.241-.048-.088-.344-.107-.246-.18-.102-.242-.036-.196-.074-.114-.194-.036-.135.176-.221.088-.15-.016-.147-.106-.091-.111-.154-.125-.218-.397-.229-.105-.42.018-.374.184-.226-.029-.192-.062-.214-.198-.15-.164-.223-.053-.439-.289-.297-.208-.025-.409-.14-.282-.29-.08-.292-.29-.426-.156-.268-.121L.663,15.63l-.034-.11.014-.094.107-.157.112-.147.027-.136-.09-.12L.558,14.74l-.31-.113L.185,14.44,0,14.245l.032-.157.147-.115.148-.085.035-.148-.106-.136-.051-.206.025-.154-.031-.197.011.001.327-.011.15-.095L.8,12.801l.245-.157.052-.18.004-.357.16-.302.407-.09.156-.044.166.044.258-.043.249-.015.139.093.184.078.235-.009.08-.142.01-.199.101-.052.127.138.072.103.105.047.284-.123.198-.133.065-.274.115-.135.154.069.271-.002.223-.212.293-.169.21-.077.042-.143-.098-.316.027-.346.281-.196.376-.023.279-.135.077-.37.138-.106.139-.042.339-.058.244-.151.151-.069L7.784,8.5l.388-.039.166-.162.13-.204.218-.078.221-.177L9.2,7.615l.116-.032.48-.131.188-.048.113-.029.208.009.088-.239.211-.175.212-.059.103-.175.203-.223.275-.123.427-.019.414.025.249-.038.204-.33.039-.163.047-.167.166-.064.2.271.169.168.259.175.134.164.154.023.161-.123.114-.299.216-.046.238.048.063.147.02.144.109.256.262.223.335-.011.135-.04.326.031.321.048.35.053.102.008.375.027.545.039.241-.018.492.073.1.198.091.468.077.445.023.357.128.185.163.06.108.144.19.196.14.28.171-.019.119-.066.262-.021.334.019.233.154.087.204.189.113.153-.036.458-.001.158.012.158.112.227.019.125-.142.395-.097.228-.202.176-.002.133.098.102.132.151-.059.082-.109h.132l.129.071.331.123.24.23.185.023.24-.068.11-.031.105.114.155.061.117-.084.201-.06.769.125.177.23.137.108.11.187.201.134.424-.046.165-.137.343-.304.137-.297.173-.095.195-.049.183.001.191-.01.233-.218.188-.076.279-.277.052-.125.136-.324.084-.205.141-.328.076-.529.043-.281-.037-.203-.166-.106-.211-.05-.186-.155-.138-.181-.081-.253-.109-.297.006-.215-.031-.166-.093-.142-.179-.249-.087-.186.029-.296.211-.506.02-.236.026-.146L28.57,3.78l.066-.305.119-.128.136-.327.183-.151.23-.01.099-.089.048-.328.111-.253.074-.179.14-.196.807-.378.335-.471.119-.238.13-.512L31.292,0l.182.071.214.302.16.003.238.163.649.343.351.107.226.033.299.095.192.2.375.326.317.083.55.033.669.017.19.057.489.234.542.259.51.231.386.178.229.174.215.099.233-.085.299.019.702.208.444.174.371.129.124.178.012.237-.05.2.028.484.119.254.044.339.045.324-.032.319.057.169.116.1.113.222-.037.234-.05.136.008.219.134.18.199.035.174.047.216.283.385.326.23.09.265.146.505.144.343.042.202.117.198.279L44,8.615l.21.097.384.115.254-.066.223-.098.149.019.288.063.337.014.283-.067.226-.197.263-.266.316-.135.365-.048.25-.108.818-.18.33-.032.256-.173.227-.136.328-.059.443.143.424.119.513.039.341.164.241.155.38.123.422-.057.579-.049.383.071.4.282.246.225.277.482.29.232.252.19.32.013.797.015.437.1.364.054.087.1-.036.329.011.469-.005.215.08.162.124.029.068.229.18.135.323.163.544.553.325.236.255.08.335-.055.525.002.889.001.609.166.211.113.622.132.684.144.578.151.34-.195.299-.018.285.141.286.212.22-.023.331-.099,1.057-.592.371-.222.26.057.232-.078.177-.067.451-.092.275-.025.283-.053.408-.036.829-.389.336-.076.568.108.306-.071.305-.196.394-.203.103-.33.202-.454.436-.334.354-.293.361-.284.444-.238.418-.172.532-.453.424-.23.211-.075.251.083.469.061.34-.018.192.052.382.222.348.194.266.346.495.481.254.161.18.067.446.045.364.024.218-.11.367-.201.585-.256.23.007.377.136.562.251.225.188Z" fill="url(#radial-gradient)"/></g></g></svg>