<svg xmlns="http://www.w3.org/2000/svg" xmlns:xlink="http://www.w3.org/1999/xlink" width="1.9191" height="13.661" viewBox="0 0 1.9191 13.661"><defs><radialGradient id="radial-gradient" cx="0.9595" cy="6.8305" r="4.8773" gradientUnits="userSpaceOnUse"><stop offset="0" stop-color="#ffd496"/><stop offset="1" stop-color="#f29d25"/></radialGradient></defs><title>MP</title><g id="Layer_2" data-name="Layer 2"><g id="Layer_1-2" data-name="Layer 1"><path id="MP" d="M1.563.131l-.0859.11L1.4061.16,1.386,0l.125.015.0461.033Zm.193,2.01L1.62,2.205l.169-.289.051-.05.079.105Zm-.183,5.08-.062.02-.089-.01-.063-.046-.014-.077.1811-.004.067.058Zm.112,3.495-.008.075-.144-.018-.039-.034.081-.261.206-.12.1-.024-.094.124-.018.139Zm-.252.47-.116.147-.082-.229-.0139-.092.106-.084.063.001ZM.318,13.527l-.14.134-.1-.027-.063-.046L0,13.511l.226-.074.092.026Z" fill="url(#radial-gradient)"/></g></g></svg>