<svg xmlns="http://www.w3.org/2000/svg" xmlns:xlink="http://www.w3.org/1999/xlink" width="34.3494" height="37.5769" viewBox="0 0 34.3494 37.5769"><defs><radialGradient id="radial-gradient" cx="17.1747" cy="18.7885" r="17.9997" gradientUnits="userSpaceOnUse"><stop offset="0" stop-color="#ffd496"/><stop offset="1" stop-color="#f29d25"/></radialGradient></defs><title>MR</title><g id="Layer_2" data-name="Layer 2"><g id="Layer_1-2" data-name="Layer 1"><path id="MR" d="M34.3494,7.12h-.983l-1.313.001h-2.675l.075.701.08.764.08.762.08.761.08.759.08.758.08.756.08.754.08.753.08.751.08.75.08.75.08.748.08.747.08.746.08.744.08.743.08.742.08.74.08.739.08.738.08.737.08.735.08.734.08.733.08.732.08.731.08.73.08.729.08.728.08.727.08.726.08.725.078.702.334.368.42.462-.123.654-.146.779-.16.849H22.1342l-.328-.02-.117-.066-.042-.439-.098.028-.116.129-.06.14.021.183-.019.155-.368.061-.497.104-.523.08-.5281-.029-.18-.036-.191-.058-.42-.063-.229-.005-.262.014-.309.035-.099.081-.233.327-.226.379-.147-.0021-.166-.208-.455-.392-.551-.516-.251-.256-.133-.033-.264.184-.2219.177-.236.25-.107.24-.085.283-.038.333-.086.388-.191.313-.226.236-.168.111-.065.061-.494-.184-.062-.023-.298-.208-.1441-.247-.2349-.186-.326-.125-.212-.142-.099-.16-.12-.106-.127-.055-.012-.057.03-.079-.03-.146-.191-.326-.1781-.15-.152.024-.086-.04-.052-.072-.021-.105-.104-.091-.18-.04-.1449-.242-.1091-.445-.142-.347-.174-.249-.125-.093-.092-.017-.031-.039-.025-.072-.136-.026-.191.075-.172-.025-.084-.122-.117-.011-.149.1-.165-.029-.18-.159-.1-.1579-.019-.1571-.311-.313-.602-.47-.656-.22-.71.029-.398-.022-.087-.074-.087.006-.088.086-.093.0191-.099-.0481-.062.0361-.024.12-.25.062-.475.001-.384.074-.292.146-.414.063-.536-.02-.323-.054-.11-.086-.154-.021-.198.046-.178.233-.157.419-.129.239-.103.059-.11.312-.062.522-.093.229-.001-1.302.153-.487.05-.428.328-.947.391-.776.361-1.032.136-1.002-.046-.983-.107-.876-.183-.58-.177-.841-.261-.444-.478-.388-.107-.227.111-.085.291-.058.185-.303-.392.117.453-.93.141-.634-.022-.417.086-.258-.346-.559-.2691-.705-.139-.111-.144-.059-.013.166-.078.148-.168-.089-.297-.513-.415-.8359-.146-.086-.121.1149-.076.11-.14.698L0,19.537l.061-.326.103-.402L.28,18.25H.64l.644-.001.644-.001h.644l.644-.001.644-.001.6431-.001h.644l.644-.001.644-.001h.644l.644-.001.644-.001H9.01l.644-.001.6441-.001h1.0679l-.0249-.3981-.02-.316-.027-.425-.027-.423-.0261-.424-.0249-.399-.025-.3989-.023-.37-.021-.34-.037-.196-.137-.3891-.029-.193.037-.204.091-.1919.251-.352.38-.271.438-.313.334-.239.171-.059.523-.083.412-.181.401-.176.168-.098.02-.331V4.031h9.3571V3.168l-.001-.7V1.764l-.001-.62V.523L23.5243,0l.528.347L24.58.694l.528.347.528.346.528.346.528.345.527.345.528.345.5281.345.528.344.528.344.528.343.528.3429.528.343.528.343.5271.342.4419.286.679.461.633.429ZM1.9324,23.0849l-.18.288-.08-.11-.031-.189.16-.271.076-.14.139-.051Z" fill="url(#radial-gradient)"/></g></g></svg>