<svg xmlns="http://www.w3.org/2000/svg" xmlns:xlink="http://www.w3.org/1999/xlink" width="9.0442" height="22.187" viewBox="0 0 9.0442 22.187"><defs><radialGradient id="radial-gradient" cx="4.5221" cy="11.0935" r="8.471" gradientUnits="userSpaceOnUse"><stop offset="0" stop-color="#ffd496"/><stop offset="1" stop-color="#f29d25"/></radialGradient></defs><title>MW</title><g id="Layer_2" data-name="Layer 2"><g id="Layer_1-2" data-name="Layer 1"><path id="MW" d="M6.4252,6.193l-.373-.007-.469.037-.115.09-.035.199-.1469.41-.082.151-.173.276-.244.389-.051.127.008.131.1439.529.151.556.048.218.107.74.06.524.009.308.051.412.134.223.141.14.53.084.158.103.3.263.656.728.36.465.317.409.566.761.44.592.055.556.073.081-.148.413-.097.667.07.443-.029.757-.081.807-.101.289-.13.109-.308.087-.676.101-.101.095-.087.157-.137.373-.161.376-.0511.161.031.038.1451.192.1439.491.026.843-.05.063-.2.037-.215-.011-.089-.048-.08-.094-.058-.18.141-.125.05-.22-.09-.188-.181-.042-.23-.173-.49-.563-.41-.395-.238-.327-.2429-.13-.07-.08-.059-.138-.001-.199.022-.146-.076-.165L4.54,18.709l-.112-.141-.006-.168.104-.162.21-.198.159-.401.057-.259.297-.521.041-.452.006-.3609-.018-.27-.076-.553-.053-.382-.366-.5-.119-.047-.347.044-.3.073-.147.104-.223.005-.585.087-.184.037-.106.09-.0621.019-.3679-.386-.323-.417-.411-.708-.1171-.085-.15-.208-.125.052-.172.146-.093.04-.048-.004-.031-.037-.038-.093-.133-.267-.149-.191-.158-.074-.129-.088.057-.085.06-.061-.026-.063-.072-.092-.28-.133L0,11.9421l.247-.115.156-.137.106-.131.134-.287.109-.286.082-.093.028-.189-.019-.213.055-.272.026-.257-.083-.1-.07-.173.083-.294.13-.203.623-.211.434-.191.092-.083.147-.163.0819-.159-.059-.047-.341-.004-.084-.061-.2459-.559.1359-.64.0121-.251-.003-.312-.0431-.227-.1079-.095-.066-.122.018-.333.1-.04.216-.44.096-.259-.115-.207L1.748,4.493,1.69,4.3051,1.658,4.243l.088-.116.146-.112.164-.031.173-.053.545-.546.007-.1059L2.682,3.096,2.478,2.82l-.045-.112-.0239-.332-.081-.099-.299-.223-.23-.2349.072-.238.039-.26-.114-.143-.169-.148L1.5221.814,1.4741.653,1.3411.589,1.2181.587l-.09.1L1.0311.678.9131.643.8741.504.8671.354.7861.252.7081.11.6981.035.7471.013.85,0l.439.285.266.013.296.053.253.251.131.033L2.4022.6,2.88.574l.192.036.247.147.097.02.155.006.027-.04.016-.087L3.5872.48l.035-.095.094-.103.261.12.652.548.02.071.416.544.135.23v.1221l.128.476.028.223-.029.17.005.136.05.194-.017.082.148.285.071.24.015.234-.042.229-.131.333-.022.134.029.122.085.133.141.143.1061.172.072.203.061.092.0759-.002.14.031.112.119.13.199.043.229Zm-.892,1.242-.056.151-.1161-.002-.109-.134.035-.104.105-.032.092.039Zm.218.276-.099.023L5.59,7.683l.0151-.152.0349-.11.0981-.017.068.029.0469.05.001.081-.029.083Z" fill="url(#radial-gradient)"/></g></g></svg>