<svg xmlns="http://www.w3.org/2000/svg" xmlns:xlink="http://www.w3.org/1999/xlink" width="88.98" height="55.6802" viewBox="0 0 88.98 55.6802"><defs><radialGradient id="radial-gradient" cx="44.49" cy="27.8401" r="37.1109" gradientUnits="userSpaceOnUse"><stop offset="0" stop-color="#ffd496"/><stop offset="1" stop-color="#f29d25"/></radialGradient></defs><title>MX</title><g id="Layer_2" data-name="Layer 2"><g id="Layer_1-2" data-name="Layer 1"><path id="MX" d="M59.652,21.6562l-.051.641-.17.524-.559,1.089-.233.674-.451,1.918-.139,1.252-.033.588-.039.083.042.086-.108,1.297.058,1.104-.037.171-.164.332-.115.459.045.204-.002.141.168.697.054.523.501.894.281.312.349.27.128.152-.063.379-.142.191-.061.304-.07-.251.027-.326.111-.175.004-.128-.205-.1369-.375-.449-.458-.796.326,1.271.112.203.087.084.146.089.038.138.001.102.402.88.455.9079.024.248.182.305,1.159,1.27.709.946.246.896.148.279.073.382.464.428.142.276.249.153.201.462.378.27-.09.005-.331-.136.022.09.278.1911.545.1879h.136l-.215-.098-.182-.1319.064-.0191.381.164,1.065.054.469.383.608.165.327.4891.38.51.243.0239.189.0021.57-.086.886-.3211.305-.157.595-.213.911-.039.282.06.681-.133.325-.163.113-.148.053-.109.631-.156.125-.031.639-.028.309-.058.363-.034.262.23v.112l-.175.106.082.103.311.17.57.069.185-.027.263-.251.463-.243-.01-.283-.083-.155-.134-.01-.032-.087.094-.2081-.024-.07-.288.2h-.066l.032-.0929.06-.074.844-.436.216-.179.292-.158.605-.593.129-1.118.121-.196.401-.344.043-.104.026-.234-.011-.589.022-.464-.017-.525.072-.469.065-.131.23-.752.478-.333.829-.395.19-.065,2.641-.418.371-.102.454-.271.332-.092.605.007.186-.0361.037-.0369.001-.037.112-.037.35.036.654.164.238.041.585.19.644.076.092-.033.085-.058.065-.111-.067-.097-.063.007-.109.052-.13.005-.255-.08.051-.067.26.006.167-.032.247-.117.263.088.346.388.246.123.02.562.037.103.09.148-.123.435-.138.359-.173.294-.374.4631-.454.37-.562.8211-.128.384.003.308.095.297-.027.11-.069.111-.114-.01-.222.142-.286.422-.0059.128.125.118.1629-.057.2121-.005.119-.035.125.009-.028.242-.134.172-.0851.054-.1519.029-.17.098-.0871.09.008.279.094.022.2-.208.116.01.023.088-.259.713-.167.731-.226.423-.08.615-.119.262-.138.259-.081-.014-.218-.491-.223-.126-.049-.119.127-.596-.058-.33-.118.013-.148.181-.197.157.004.227-.226.377-.056.124-.215-.029-.25.016-.173.091-.177.457-.442.643-.176.311-.144.107-.113.042-.126-.073-.302-.176-.233.084-.081.202.003.255h-.59l-1.002-.001-1.276-.001-1.23-.001-1.03-.001-.004.573-.003.507-.003.57-.568-.005-.601-.005.048.057.206.107.267.255.315.397.382.316.449.235.295.23.143.225.072.191v.158l.164.125.293.083.152.141v.115l-.093.261-.027.288.036.26-.21.004H77.73l-.775.001H75.68l-.849.001-.233.4-.387.664-.351.601-.294.505-.048.133v.108l.364.472-.067.137-.127.072-.041.111.008.18-.086.239.028.165.046.203-.076.176-.062.17-.073.074-.083-.064-.748-.784-.78-.863-.307-.282-.297-.214-.4-.398-1.05-.875-.542-.4-.51-.479-.458-.266-.451-.173-.201-.1-.176-.131-.098-.008-.049.178.158.089.189.076.149.005.157.063.463.243.076.125-1.317-.486-.536-.045-.058-.076.267-.254-.0829-.092-.095-.013-.287.176-.1061.012-.0189-.116.013-.109-.185-.16-.1171.006-.0959.112-.25.211.008.083.49.09.169.051-.039.056-.42-.001-.52.096-.926.587-.862.252-1.24.564-.547.029-.287.09-.834-.216-1.057-.53-1.6-.167-1.078-.695-1.07-.286-.679-.668-.409-.029-.263-.107-.972-.242-.961-.16-.937-.585-.613-.186-.53-.233-1.167-.398-.433-.2211-.409-.342-.667-.354-.285-.296-.318-.1059-.455-.5581-.237-.2349-.201-.11-.215-.038-.621.045-.927-.247-.428-.063-.895-.364-1.188-.407-.389-.468-.333-.437-.6-.576-.374-.246-.649-.292-.36-.237-.555-.182-.942-.462-.299-.396-.175-.352-.501-.428-.549-.799-.142-.295-.106-.4531-.127-.263-.15-.2059.077-.15.279-.185.464-.042.328-.2.043-.1651-.021-.1019-.21-.2521-.261-.0669-.203-.004-.052-.096.153-.1051.175-.246.258-.3.182-.2771.034-.3909-.023-.391.069-.331-.625-.382-.073-.163-.197-.439-.341-.51.01-1.021-.411-.908-.425-.452-.22-.158-.597-.703-.471-.409-.461-.771-.456-.491-.58-.825-.419-.412-1.909-1.395h.107l.56.343.094-.028.013-.167-.064-.2-.104-.048-.149.045-.201-.042-.101-.066-.301-.042-.377-.233-.162-.242-.018-.276-.541-.589-.205-.329.105.024.144.132.146.038.17.001.123-.053-.044-.098-.116-.082-.788-.311-.26-.218-.646-.364-.153-.128-.102-.352-.158-.017-.139.098-.381.096-.097-.112-.014-.108.269-.114.247-.333-.005-.116-.136.134-.206.149-.212.083-.315.069-.162-.05-.141-.075-.227-.291-.114-.948.2-.329.234-.326.199-.193.115.146.118.018-.083-.165-.196-.154-.069-.154-.007-.141-.093-.262-.58-.551-.542.042-.221-.019-.207-.21-.176-.354-.086-.297-.011-.158-.052-.159-.935-.26-.281-.223-.282-.281-.117-.229-.11-.169-.09-.296-.064-.345.104-.447.136-.216-.643-.161-.251-.007-.203.091-.183-.117-.38-.13-.452-.469-.531-.852-.584-.274-.188-.297-.239-.268-.209-.332-.032-.145-.063-.081-.292-.232-.328-.393-.085-.316-.088-.484-.219-.171-.215-.079-.042-.231.013-.129-.073-.245L16.36,9.79l-.225-.484-.124-.151-.116-.221-.059-.453-.184-.564-.356-.679-.297-.458-.148-.462.066-.471-.05-.291-.038-.068.03-.095.099.053.083-.085-.01-.301-.104-.091-.288-.094-.127-.065-.7-.1229-.401-.171-.026-.398-.188-.1831-.167-.113-.528-.235-.083.12-.071.222-.22.048-.192.01-.322-.1539-.799-.5871-.169-.0939-.249-.05-.125-.0981-.54-.31.108.165.156.171.139.497-.163.358-.095,1.248.104.248.234.397.162.629.05.468.146.371-.046.87.056.2641.223.433.413.406.086.213.542.309.33.401.654.546.206.23.59.849.019.252.109.309.331-.064.148.235-.017.108.04.083.173-.018.149.064.314.913.168.125.216.053.241.101.016.233-.009.186.204.269-.035.364.165.308-.025.298.068.235.509.532.627.422.131.553.256.5051.262.127.264.209-.033.218.019.133.354.397.057.505.305.331.086.026.067-.052-.222-.332-.107-.216-.014-.34.075-.045.633.5379.067.401.212.227.016.306.129.182.039.264.204.435.005.603.108.439.399.673.323.141.058.33.336.852.388.461.193.391.026.243-.145.36-.016.25.211.762.315.39.353.094.061.056-.028.104.118.093.133-.119.065-.169-.067-.197-.012-.143.06-.103.115-.015.674.52.113.2.25.233.23.287.099.226.184.187.095.434.469.194.249.358.017.227-.121.58-.105.167-.378.247-.275.293-.266.181-.282.11-.232-.025-.224-.337-.266-1.021-.178-.215-.125-.321-.208-.266-.75-.4031-.378-.4259-.367-.2851-.395-.4129-1.076-.685-.446-.349-.294-.3461L18.662,26l-.146.036-.056-.095-.008-.18-.065-.117-.629-.522-.13-.289-.027-.336.142-.866.063-.508-.04-.262-.066-.036-.06-.142-.014-.419-.152-.456-.571-.937-.417-.185-.371-.1351L15.098,19.72l-.276-.416-.067-.237-.035-.482-.14.279-.187.207-.431-.015-.484.233-.288-.219-.156-.249-.237-.299-.266-.059-.17-.008-.319-.371-.258-.118-.369-.046-.314-.188-.097-.206-.052-.291-.117-.172-.493-.341-.401-.377-.378-.242-.111-.198-.009-.136.598.038.711.145.341-.041.212-.14.203-.101.032.109-.037.198.195.182.268.147.19-.014-.185-.161-.113-.328.051-.118-.003-.1641-.265.037-.037-.083.227-.25.26-.658.124-.65-.272-.57-.459-.396-.996-1.163-.595-.599-.172-.2229-.158-.1051-.485-.1369-.407-.336-.713-.4761-.305-.246-.21-.577L7.276,9.01l.053-.4-.073-.709-.12-.182-.386-.177-.092-.483-.019-.46-.075-.321-.657-.541-.037-.262v-.249l-.067-.247-.351-.517L5.028,4.01l-.148-.216-.018-.438-.15-.118.057-.03.139.011.079-.058.009-.306-.638-.481-.184-.663-.34-.352-.08-.127L3.571.6041l.803-.071.803-.071L5.98.3911,6.783.32l.803-.071L8.389.178,9.192.107,9.9949.036,10.3159,0,10.138.5l-.134.187,1.3309.49,1.331.489,1.331.488,1.331.487,1.331.487,1.331.486,1.331.485,1.331.484.992-.002.992-.002.992-.002.992-.002.992-.0021.992-.002.992-.002.992-.002.002-.368.001-.368.002-.369.002-.369.617.004.617.004.6171.003.617.004.617.003.617.004.617.004.617.004.022.006.026.013.25.281.256.44.302.307.348.174.593.512.838.849.668.564.499.282.334.242.171.203.23.44.434,1.013v.464l.166.439L39,9.92l.29.334.248.101.271.201.294.301.339.202.384.103.53.27.676.436.464.222.251.01.22-.14.188-.289.185-.186.182-.083.074-.133-.034-.184.123-.412.28-.642.334-.348.389-.054.254-.121.12-.188.208-.02.297.147.483.095.669.042.395-.014.121-.072.063.004.005.079.099.034.193-.012.168.11.216.349.742.558h.001l.063.191.258.275.476.423.269.3641.063.306.243.483.423.659.188.355-.046.051.033.185.113.319.209.27.307.2211.31.396.313.571.38.434.446.2959.2519.276.0591.2551-.004.2179-.068.181.029.172.125.163.042.2-.049.277.003.0781h0l.036.0629.396.4761.204.384.162.612.001.005.18.366.26.1489.399.056.303.1271.207.199.262.12.315.0409.302.132.29.221.54.145.79.07.601.18.413.29.181.059.049.004.023-.044.031-.082.16-.094ZM10.404,3.3362l-.093.014-.174-.151.013-.139.038-.014.174.122.059.107Zm4.318,8.59-.02.056-.287-.198-.65-.674-.236-.338-.039-.159.02-.354.223.0419.258.237.112.22.005.2511.482.1189.068.543Zm2.673.15-.211.752-.216-.012-.446-.237-.047-.148.171-.874.13-.115.389-.118.061.108.041.258Zm-16.95.202-.12.122-.322-.666L0,11.5732l.094-.08.156.015v.167l.131.141.051.138ZM9.067,15.05l-.038.102-.474-.211.26-.369-.038-.388.113-.081.103.128.136.494Zm11.423,6.422.035.112-.019.032-.115-.078-.194.464-.057.042.117-.6351.123-.091.136-.018Zm-2.686,4.553-.057.034-.24-.355-.036-.244-.098-.103-.242-.082.209-.497.177-1.031.078.189-.187,1.044.009.1359.087.1271.094.215.011.232.165.216Zm4.182-1.407.08.344-.144-.051-.188-.187-.129-.239.012-.107.025-.02.267.141Zm-3.176,1.874-.038.145-.845-.573.203-.054.236.04Zm5.315.742-.061.01-.144-.162-.063-.399.029-.042.271.494-.005.061Zm9.269,7.695-.082.247-.212-.099-.076-.155-.015-.254.118-.043.171.108.035.072Zm55.536,1.114.05.145-.049-.017-.064-.109-.046-.136.039-.003.034.047Zm-.633,2.793-.146.093-.079-.328.116-.32.141-.184.278-.021.184-.061.023.081-.151.2479Zm-67.286,4.623-.169.062-.249-.181.066-.143.142-.097.133.181Zm53.972.189-.316.068-.056-.064.637-.301.109.013.038.041-.33.143Z" fill="url(#radial-gradient)"/></g></g></svg>