<svg xmlns="http://www.w3.org/2000/svg" xmlns:xlink="http://www.w3.org/1999/xlink" width="55.0596" height="18.1509" viewBox="0 0 55.0596 18.1509"><defs><radialGradient id="radial-gradient" cx="27.5298" cy="9.0755" r="20.497" gradientUnits="userSpaceOnUse"><stop offset="0" stop-color="#ffd496"/><stop offset="1" stop-color="#f29d25"/></radialGradient></defs><title>MY</title><g id="Layer_2" data-name="Layer 2"><g id="Layer_1-2" data-name="Layer 1"><path id="MY" d="M49.1.516l-.171.148L48.871.485l.0121-.23.231-.214L49.4431,0l.047.171L49.451.367l-.077.101Zm1.2151,8.3989-.104-.002-.242-.06-.4861-.297-.497-.105-.722-.009L47.856,8.4l-.166.044-.14.0021-.101-.06-.107-.03-.282.1749-.131-.053-.133-.074L46.56,8.38l-.286.021-.316.18-.352-.162-.1.0021-.067.042-.152.2219-.291.169-.1439.311-.089.2981-.0771.1029-.021.5751-.046.278.073.367-.013.158-.129.235-.017.0539-.068.373.026.1-.0171.125-.109.262-.197.072-.207.041-.1779-.089-.16.144-.203.222-.088.15.0009.139.021.093-.0419.096-.0051.102.01.147.138.061.1439.127-.005.122-.0789.084-.1811.13-.33.266-.372.227-.141.053-.051.105-.026.141.0819.309.0781.091.041.108-.05.129-.036.111-.1371.07-.1339.051-.049.088-.07.37-.081.193-.182.287-.061.131-.094.042-.352-.134-.315.081-.418.052-.354-.008-.273.059-.188.151-.21.191-.221.142-.167.069-.306-.202-.155.018-.278-.07-.6531-.226-.161-.066-.174-.006-.052-.065.027-.109-.027-.144-.127-.054-1.311.022-.378.124-.255.098-.182.113-.052.281-.109.264-.141.28-.4359.084-.32.283-.11.034-.22-.041-.236-.023-.17.079-.179-.004-.5511-.132-.5209-.021-.295.067-.1631.025-.9069.388-.307.045-.1241-.056-.175-.159-.2349-.159-.563-.541-.208-.127-.138-.13-.131-.155-.187-.167-.17-.115-.23-.234-.229-.256-.052-.451-.182-.083-.062-.118-.028-.133.253-.366.184.387.07.086.408.261.336.13.363.053.37.011.146-.018.144-.052.1409.056.7731.423.3.076.3171-.032.1259.042.445.325.131.039.219-.025-.279-.148-.184-.105-.083-.198.051-.211.178-.141.124-.1531.044-.4559.079-.231.148-.219.049-.212-.167-.162-.0369-.278.036-.23.0949-.1571.15.104.156.0961.153-.01.106-.038.019-.1189-.028-.207.008-.38.1939-.304.311-.209.293-.1L35,12.4248l1.736-.435.514-.168.189-.087.159-.121.269-.386.505-.609.354-.5.7459-.729.595-.676.08-.127.099-.369.008-.174-.018-.176.079-.082.116-.049h.028l.0881.077.2069.107.154.138.104.178.074.166.006.142.094.116.263.02.085.146.183.251.168.181.103.07.128-.038.199-.165.144-.202.097-.273-.076-.04.1339-.206.0251-.108-.062-.099-.079-.099-.03-.249-.055-.317-.037-.144.105-.103.226-.131.226-.152.229-.122.006.22-.006.363.069.304.156.538.1779.073.214.048.124-.0151.08-.036.021-.043-.133-.211-.035-.497-.109-.326-.167-.325-.079-.092.659-.092.147-.102.259-.223.098-.125.077-.282-.323-.167-.127-.214-.008-.231.386-.43.134-.1029.0579.153.17.039.156.006.157-.009.226-.217.116-.312.396-.4411.141-.338.08-.354,1-1.1.122-.171.594-1.107.0739-.037.159.107.047.352-.021.153-.097.228-.0549.2381.0679-.0051.2831-.1449.2949-.387.167-.335.1421-.146.2849.082.063.058-.02.241.027.14.109.299.242.182.334.114.31.166.102.109.066.131.0679.215.0051.218-.224.213.0949.345-.015.201-.076.172-.326.157.889-.156.219-.089.304-.2269.162.196.152.339-.122.0849-.3871.125-.0189.051.128.176.161-.017.3189-.118.2931-.186.142.002.15.038.289.12.162.097.138.125.089.259.334.094.684.363.127.031.133.007.36-.044.127.051.09.131.03.162-.01.174-.037.132-.084.109-.245.166-.617.217-.675.165-.339-.011-.476-.141-.173.018-.168.065-.21.449.389.447.669.465.0919.116-.0239.143-.1061.085-.142.047-.376.074-.38.055-.313.08-.307.104-.315-.036-.434-.208-.125-.015-.132.107-.129.292ZM6.889,3.115l.485.109.186.088.545.868.718.61.305.228.235.108.321.326.28.41.614,1.153.106.506.042.772-.135,1.164-.165.58.032.274.226.42-.068.397.044.33-.016.914.128.27.146.172.771.542.057.2009.38.69.704,1.5021.196.675-.022.182-.085.075-.207.066-.1729-.132-.058-.094.018-.118-.068-.116-.169-.138-.097-.124.027.205.001.266-.2151.023-.275-.083-.344.075-.406.326-.195.009-.148-.28-.076-.19-.121-.134-1.291-.687-.477-.176-.502-.521-1.13-.575-.718-.561-.305-.3461-.734-.307-.316-.362-.156-.071-.156-.129.165-.352-.068-.367-.085-.31-.5181-.611-.254-.426-.487-.4249-.195-.245L3,9.487l.1161-.1.1079-.06-.099-.207-.279-.359-.13-.413v-.78L2.32,6.471,1.981,4.95l.0609-.533L1.955,3.839,1.73,3.283l-.294-.397-.11-.33.053-.131.065-.429.044-.085.111-.041.126.011.235.373.6129.231.185.055.2411-.092.109.058.11.095.0629.266.1611.242.322-.035.114.035.067.007.063.214.029.372-.03.216-.232.309-.031.21.122.13.158.139.091.107.095-.018.12-.072.11-.182.076-.1561.4131-.174.427-.157.0579.016.069.069.136.228.08.048.115.023.2-.024.232-.129.122-.241.054-.19.334-.329.037-.247ZM.566,2.4879l.198.301-.099.134-.05.039L.496,2.9179l-.114.115-.109.023-.109-.208-.135-.083L0,2.6209l.181-.025.108.05.203-.1ZM1.803,5.77l-.07.078-.2039-.0451.036-.459.116-.059.182.0831.08.078ZM51.1851,8.8709l-.391.054-.271-.006.05-.098-.013-.129.129-.034.149.028Zm-46.492,3.345-.1421.051-.008-.073.0251-.102.104-.0969.0479.055Zm8.1469.7171-.136.0289-.0739-.019-.05-.109.114-.25.042-.042.108.272Zm20.117.8829-.086.037-.133-.099-.031-.8469.093-.076.061.0109.065.154-.006.371.0121.328Z" fill="url(#radial-gradient)"/></g></g></svg>