<svg xmlns="http://www.w3.org/2000/svg" xmlns:xlink="http://www.w3.org/1999/xlink" width="29.8151" height="48.4891" viewBox="0 0 29.8151 48.4891"><defs><radialGradient id="radial-gradient" cx="14.9075" cy="24.2446" r="20.125" gradientUnits="userSpaceOnUse"><stop offset="0" stop-color="#ffd496"/><stop offset="1" stop-color="#f29d25"/></radialGradient></defs><title>MZ</title><g id="Layer_2" data-name="Layer 2"><g id="Layer_1-2" data-name="Layer 1"><path id="MZ" d="M7.4739,48.4511l-.3079.005-.527.0151-.312.0089-.349.009-.432-.088-.243.019-.02-.999-.079-.219-.083-.32-.02-.205.052-.206.025-.3259-.023-.2861-.258-.143-.057-.0449-.0561-.224L4.762,45.101l.181-.439-.015-.843.021-.296-.003-.585-.004-.707-.003-.633.007-.545-.054-.258-.045-.142-.12-.288-.14-.599-.165-.4521L4.21,39.016l-.067-.157-.068-.209-.201-.37-.164-.215-.045-.172.006-.445-.183-.797-.133-.58-.2-.628-.1339-.419-.02-.0721-.015-.159.398-.3109.398-.438.466-.512.4161-.457.366-.401.501-.548.495-.541.116-.069.049-.044-.214-.48.344-.557.019-.362-.015-.346.042-.159.104-.139.4019-.289.3041-.46.249-.43.346-.69.034-.163.005-.167-.0942-.2349-.23-.377-.167-.326-.1489-.5009.15-.435.053-.263v-.1421l-.066-.1339-.168-.102L7,24.6492l-.047-.18-.0009-.213.063-.118.372-.191.0839-.104.0441-.116.004-.165.115-.413.142-.392.01-.138-.05-.121-.039-.221-.025-.333-.002-.931.073-.959-.032-.543-.238-.624-.023-.45.173-.314.028-.185-.126-.024-.26-.019-.192-.058-.297-.257-.516-.214-.586-.195-.852-.058-.708-.624-.555-.1-.179-.08-.533-.374L2.012,15.9l-.8661-.037-.54-.011-.08-.05-.031-.515L.489,14.83l-.0461-.397-.0819-.452-.126-.176L.085,13.5l-.076-.336L0,13.0012l.028-.058.601-.239.257-.118.381-.137.678-.189.605-.169.555-.164.588-.174.239-.117.297-.117.711-.235.203-.081.408-.131.205-.051.787-.269.902-.308.316-.108.603-.206.117.0849.411.7081.323.4169.368.386.062-.019.106-.09.1841-.037.585-.087.223-.005.147-.104.3-.073.3469-.044.1191.047.366.5.053.382.076.553.018.27-.006.361-.041.452-.297.521-.057.259-.159.401-.21.198-.104.162.006.168.112.141.246.254.076.165-.022.146.001.199.059.138.07.08.243.13.238.327.41.395.49.5629.23.173.181.042.09.188-.05.22-.141.125.058.18.08.094.089.048.215.011.2-.037.05-.063-.026-.843-.144-.491-.145-.1919-.031-.038.051-.161.161-.3761.1371-.3729.0869-.1571.1011-.095.676-.101.308-.087.13-.109.101-.289.081-.807.029-.757-.07-.443.0969-.667.1481-.413-.073-.081-.055-.556-.44-.592-.566-.7609-.317-.409-.36-.465-.656-.728-.3-.263-.158-.103-.53-.0841-.141-.14-.1339-.223-.0511-.4119-.0089-.3081-.06-.5239-.107-.74-.048-.218-.151-.556-.144-.529-.008-.131.0511-.127.244-.389.1729-.276.082-.151.147-.41.035-.199.115-.09.4689-.0369.373.0069.626-.009.661.024.093.018.149.043.1681-.007.187-.058.2069-.142.227-.226.354.005.479.235.2621.205.044.175.3209.102.5981.028.435-.091.273-.21.286-.111.298-.013.2249.072.1531.156.293.112.434.068.474-.101.514-.269.293-.281.072-.292.0851-.178.098-.063.272-.036.447-.01.3889.092.496.2909.313-.1929.537-.331.541-.175.515-.001.423-.126.33-.25.349-.159.368-.067.344-.121.481-.26.499-.378.508-.386L28.7451,0l.149.292.267.267-.159.155L28.81.853l.31.186-.227.281-.028.195.058.077.05.114-.149.322-.198.247-.051.189.175.333-.09.592.169.533.047.273.0591.1831-.084.3269.0219.552.039.228-.101.284.172.098.091.312L29.05,6.53l-.0529.189-.2961.229-.0349.0889.004.1351.37.004.013.209-.024.165.014.31-.049.201.086.23-.105.255.036.197.005.255.086.645.015.798.019.128.132.09.185.045-.007.219-.206.286-.012.178.03.25.226-.34.136.001.121.133-.017.196.042.097-.0181.19.0671.241-.026.21-.1661.147-.211.252L29.374,13l.02.155-.146.049L29.18,13.3l.099.223-.006.197-.258.614-.688.841-.297.299-.278.325v.134l-.027.116-.324.465-.348.076-.193.125.151.41-.225.095-.391.323-1.075.621-.17.144-.273.381-.36.0921-.2.108-.357.039-.125-.027-.122.014-.103.082-.709.268-.662.212-.163.097-.108.1319-.586.21-.918.5191-.751.4959-.544.496-.144.075-.168.172-.057.254-.055.144-.403.524-.606.62-.118.169-.241.345-.023.226-.2151.069-.18-.216-.077.4169-.147.03-.163-.086-.407.2069-.354.2391-.568.5029-.8029.9761-1.1711.9439-.16.027-.108-.004-.369-.329-.201-.024.18.195.119.163-.03.319.014.479-.1451.933.02.204.1669.265.315.324.295.404.38,1.162.029.6.3921.7671.015.333.159.8289-.011.672-.028.412.189.174.07-.1569-.02-.261.05-.4181.1049-.1859.105.026.031.197.071.175.029.164.005.223-.145.849.043.346.195.579-.228.673-.33,1.59-.019.276.08.12.177.041.065-.204.104.002.055.12-.147.7361-.145.323-.515.793-.277.34-.46.335-1.08.524-2.165.759-.858.373-.513.223-1.0839.709-.474.476-.195.547-.1871.25-.184.318.16.273.157.207.186.1389.096.12.1259.083.126-.43.063-.134.108-.01-.06.524-.125,1.804Zm5.145-43.767.075-.0629.029-.0831-.001-.0809-.047-.05-.068-.029-.098.017-.035.11-.015.152.062.051Zm-.218-.276-.049-.083-.092-.039-.1049.032-.035.104.109.1341.116.002Z" fill="url(#radial-gradient)"/></g></g></svg>