<svg xmlns="http://www.w3.org/2000/svg" xmlns:xlink="http://www.w3.org/1999/xlink" width="37.992" height="36.369" viewBox="0 0 37.992 36.369"><defs><radialGradient id="radial-gradient" cx="18.996" cy="18.1845" r="18.5947" gradientUnits="userSpaceOnUse"><stop offset="0" stop-color="#ffd496"/><stop offset="1" stop-color="#f29d25"/></radialGradient></defs><title>NA</title><g id="Layer_2" data-name="Layer 2"><g id="Layer_1-2" data-name="Layer 1"><path id="NA" d="M32.721,1.965l.601-.12.574-.115.667-.115.534-.092.134-.024,1.285.107.56.075.195.074.253.192.468.467-.12-.018-.862.099-.328.127-.734.551-.156-.071-.176-.114-.149-.033-.323.132-.322.159-.355.225-.293.22-.096.119-.459.455-.15.073-.133.032-.054-.021-.057-.196-.282-.456-.452-.598-.132-.058-.091-.023-.335.029-.974.169-.822.142-1.259.244-1.352.196-.833.121-.726.036.001.592.001,1.203.002,1.204.002,1.208.002,1.21.001,1.214.002,1.217.002,1.221.002,1.224v.535l-.024.115H23.17l.001.73.001.865v.867l.001.869.001.87.001.873.001.874.001.877.001.878V34.817l-.288-.006-.579.173-.369.225-.16.277-.212.168-.266.06-.117.141.032.224-.103.171-.235.119-.381-.035-.526-.188-.669-.044-.812.099-.585-.046-.355-.193-.377-.109-.399-.028-.232-.08-.474-.143-.09-.246-.056-.185-.135-.195-.015-.158.106-.12.015-.192-.075-.266-.131-.129-.186.007-.116-.102-.046-.21-.109-.159-.261-.162-.345.122-.163.185-.096.288-.087.145-.044.241-.02.171-.088.183-.092.074-.095-.034-.177.074-.391.269-.111.142-.315-.257-.92-.967-.327-.251-.482-.591-1.06-1.826-.151-.351-.202-.878-.232-.649-.026-.374.111-.212-.068-.287-.119-.257-.361-.336-.103-1.118-.242-.721.053-.595-.116-.541-.011-.346.052-.658-.194-.755-.393-.736-.355-1.06-.051-.464.038-1.243-.069-.507.004-.594-.14-.615-.058-.335.099-.265.058.084.102.04.069-.352.016-.311-.177-.766-.395-.782-.979-1.27-.239-.484-.136-.4L4.852,11.649l-.466-1.171L4.06,9.468l-.354-.465L2.067,5.744l-.363-.518L1.05,4.607.897,4.401.645,3.812.153,3.024l-.12-.735L0,1.457.06.821.508.755.821.585,1.102.574,1.38.707l.295.01L1.79.695l.53.019L2.624.562,2.985.41,3.193.276,3.485.139,3.872,0l.22.011.27.052.359.054L4.924.21l.24.296.373.269.274.161.315.211.094.082.139.045.085.014.585-.033.529-.029.571.001,1.073.001,1.074.002,1.074.001,1.074.002,1.074.002,1.073.002,1.074.001,1.074.002.439.001.767.009.808.01.089.017.09.056.074.054.285.372.364.39.304.184.362.11.34.041.318-.027.526.05.736.126.765.037.793-.051.557.069.322.191.33.13.338.068.456-.04.576-.148.49.021.227.107.135.003.846-.155.68-.124,1.021-.199.841-.164,1.246-.242Z" fill="url(#radial-gradient)"/></g></g></svg>