<svg xmlns="http://www.w3.org/2000/svg" xmlns:xlink="http://www.w3.org/1999/xlink" width="23.0439" height="10.5921" viewBox="0 0 23.0439 10.5921"><defs><radialGradient id="radial-gradient" cx="11.522" cy="5.2961" r="8.9667" gradientUnits="userSpaceOnUse"><stop offset="0" stop-color="#ffd496"/><stop offset="1" stop-color="#f29d25"/></radialGradient></defs><title>NC</title><g id="Layer_2" data-name="Layer 2"><g id="Layer_1-2" data-name="Layer 1"><path id="NC" d="M.066.582.022.645,0,.176.089,0,.132.365Zm11.928,2.77.3159.187.34-.08.427.2941,1.088.8939.382.1891.225.072.17.146.1519.2069.207.146.09.136.022.1841.075.1129.379.297.2261.261.314.133.135.156.176.076.18.16.304.125.6891.46.5319.437.266.271.286.241.3661.193.344.22.1729.516-.0949.185-.1971.092-.1829.007-.1711.062-.5709-.333-.136-.049-.152.021-.085-.074-.06-.106-.349-.124-.324-.198-.094-.1351-.055-.168-.078-.096-.457-.146-.3079-.163-.224-.229-.347-.16-.541-.328-.277-.105-.243-.164-.65-.5949-.232-.1111-.2021-.2639-.5609-.6271-.271-.257-.294-.229-.225-.268-.173-.318-.402-.455-.049-.194.0171-.1989-.097-.128-.164-.078-.078-.134.0089-.181.0541-.0931ZM18.574,4.7l-.149.029.18-.273.006-.167.072-.33-.009-.11.119.0139.1291.095-.1481.082-.05.143.0059.178.057.033-.0949.195Zm2.3969,1.38-.153.024-.205-.216-.391-.108-.172-.189-.112-.2231.222-.055.218-.3L20.23,4.902l-.256-.02.029-.117.416-.139.183.081.081.095-.012.475.188.151.195.338v.095Zm1.7131.8059.1309.0561.229-.01-.052.512-.3209.082-.11-.0041-.072-.1079-.1841-.071.009-.175-.178-.393.31-.06.176-.105-.01.096.027.111Zm-1.31,3.5921-.089.114-.11-.023-.084-.043-.061-.062.061-.233.241.114Z" fill="url(#radial-gradient)"/></g></g></svg>