<svg xmlns="http://www.w3.org/2000/svg" xmlns:xlink="http://www.w3.org/1999/xlink" width="44.341" height="34.671" viewBox="0 0 44.341 34.671"><defs><radialGradient id="radial-gradient" cx="22.1705" cy="17.3355" r="19.9004" gradientUnits="userSpaceOnUse"><stop offset="0" stop-color="#ffd496"/><stop offset="1" stop-color="#f29d25"/></radialGradient></defs><title>NE</title><g id="Layer_2" data-name="Layer 2"><g id="Layer_1-2" data-name="Layer 1"><path id="NE" d="M41.579,1.585l.308,1.748.234,1.495.016.95.011.248.096.167.218.168.88,1.368-.188.237.132.423.228.181.732.812.095.16-.04.128-.513.953-.087.233-.102,1.211-.072.853-.1,1.168-.118,1.395-.095,1.173-.126,1.548-.119,1.46-.736.8L40.927,21.88l-1.063,1.15-.533.769L38.29,25.298l-.462.968-.362.505-.183.215.162.708.282,1.236-.504.008-.289.088-.365.281-.408.111-.496.245-.314.196-.295.155-.406.379-.132.288-.404.057-.565-.047L33.19,30.4l-.832-.303-.54-.123-.25-.037-1.271-.052-1.356.119-.691.141-.126.031-.392.183-.325.203-.879.929-1.164-.031-.684-.103-.581-.145-.827-.434-1.013-.663-.391-.09-.351-.052-.117.009-1.21.66-.233-.014-.285.074-.188.164-.139.082-.145.014-.191-.036-.186-.101-.186-.184-.499-.735-.103-.129-.213-.218-.358-.34-.243-.158-.148-.041-.176.027-.972-.292-.971-.309-.214.04-.152.064-.336.228-.396.042-.503-.018-.276-.031-.444.076-.296.091-.388.155-.503.421-.144.054-.122.07-.168,1.152-.137.346-.255.457-.501.436-.344.264-.008.356-.027.582-.005.399.023.26-.058.124-.023.113.018.169.082.081.048.106-.032.086-.162.102-.179-.26-.23-.183-.252-.082-.171-.133-.088-.184-.331-.36-.762-.713-.078-.017-.127-.028-.215.085-.132.117-.093.046-.14.007-.362.09-.29.116-.008.096.139.539-.066.292-.129-.139-.418-.544-.289-.403-.051-.09-.041-.139.028-.06.115-.042.265-.053.049-.042.013-.111-.041-.207-.145-.28-.155-.186-.086-.036-.159-.006-.172.025-.323.227-.143.042-.334-.019-.297-.044-.181-.117-.538-.452-.595-.477-.25-.068-.058-.049-.039-.367.01-.442.033-.116.248.069.264.032.085-.08L2.7,29.768l-.303-.159-.113-.241-.087-.084-.136-.086-.157-.044-.157-.068-.108-.07-.177-.032-.186-.051-.269-.391-.262-.381-.154-.3-.055-.18.078-.307-.078-.121-.292-.312L0,26.651l.06-.449.05-.375.002-.237.039-.134.031-.151.162-.048.412.004.801.07.642-.079.036-.014.453-.402.502-.422.755-.041.814-.044.642-.022.934-.032.754-.028.874-.032.026-.194.054-.048.086-.007.642.104.604.101.046-.367.53-.459.301-.094.074-.08.095-.155.059-.24.026-.17.112-.142.082-.261.108-.456.299-.48.171-.652.025-.63.033-.479.089-.098-.003-.853-.002-.859-.003-.727-.003-.906-.002-.796-.003-.865-.002-.777-.002-.516.613-.123.633-.128.926-.187,1.003-.202,1.093-.221.248-.133.825-.749.373-.339.74-.672.571-.521.726-.662.769-.667.613-.534.964-.605,1.453-.913,1.453-.916,1.454-.918,1.453-.92,1.453-.921,1.453-.924L31.675.928,33.128,0,34.59.354l1.389.335,1.397.337.329.185.741.659.949.842.041.012.043.004.912-.496Z" fill="url(#radial-gradient)"/></g></g></svg>