<svg xmlns="http://www.w3.org/2000/svg" xmlns:xlink="http://www.w3.org/1999/xlink" width="33.51" height="27.1269" viewBox="0 0 33.51 27.1269"><defs><radialGradient id="radial-gradient" cx="16.755" cy="13.5635" r="15.243" gradientUnits="userSpaceOnUse"><stop offset="0" stop-color="#ffd496"/><stop offset="1" stop-color="#f29d25"/></radialGradient></defs><title>NG</title><g id="Layer_2" data-name="Layer 2"><g id="Layer_1-2" data-name="Layer 1"><path id="NG" d="M30.643.4839l.441.617.474.663.369.515.27,1.333.029.253.021.114.021.105.035.181.212.078.4.036.291.131.174.2171.017.036.092.167.021.121-.025.348-.059.4469-.1.288.056.392-.018.167-.044.114-.179.1311-.243.1279-.581.378-.166.056-.243.01-.211.094-.25.2041-.54.7579-.461.761-.16.629-.18.6-.406.383-.057.215-.0171.125-.0139.289-.0491.478-.0629.23-.065.068-.438.146-.252.175-.151.347-.055.375-.0881.427-.05.375-.068.194-.144.204-.223.219-.193.124-.503.081-.259.496-.219.387-.006.155-.211.802-.367.604-.024.213-.001.175-.459.531-.122.157-.1171.205.116.198.129.18.0191.061-.2081.169-.364.294-.217.176-.048.096-.032.441-.063.119-.145.162-.213.178-.216.138-.245.096-.235.036-.132-.056-.075-.134-.132-.54-.0669-.116-.1531-.105-.302-.296-.306-.299-.3689-.21-.0791.015-.061.057-.105.301-.103.11-.194.038-.337.002-.246-.042-.056-.06-.05-.13-.068-.104-.294.211-.462.332-.15.054-.115.067-.152.309-.185.331-.241.173-.2349.146-.1351.127-.1929.15-.378.375-.501.496-.177.256-.175.383-.102.424-.111.464-.163.746-.24.422-.21.335-.156.263-.082.217-.034-.007-.082.093-.234-.061-.105-.189-.145-.031-.25-.277-.053.046.264.704-.098.275-.743.006-.639.092-.439-.008-.22-.1-.098-.264-.038.027-.022.141-.139.111-.493.021-.218-.18-.176-.202L12.32,25.9l.029.084.217.197-.026.283-.397.328-.253.019-.155-.141-.081-.23-.041-.34-.104-.222h-.056l.052.203.017.166.002.345.189.268-.29.083-.118.003-.23.006-.044-.1-.044-.222-.061-.058-.071.376-.153.026-.106-.003-.456.082-.102-.0159-.021-.07.054-.104-.012-.169-.158.13-.025.261-.09.042-.271-.037-.297-.134-.181-.137-.302-.191-.592-.535-.096-.241-.169-.295-.126-.3-.182-.512.056-.037.137.0441.0669-.077-.246-.056-.0509-.06-.017-.18.0109-.22.2-.077.173-.038.087-.133.05-.134-.459.203-.431-.23-.093-.139.047-.107.206-.016.294.008.176-.104-.108-.037-.19.004-.07-.069.006-.167-.062.037-.082.148-.29.109-.17-.109-.017-.242-.037-.109-.143-.085-.508-.641-.638-.535-.567-.369-.857-.176-1.794.007-.101-.051.11-.084.157-.057.577-.299-.097-.04-.6.187-.205.018-.266.359-1.58.06L.06,21.27l.004-.164.077-.472.0509-.186.059-.14L.19,20.14l-.06-.228-.029-.358.074-.111L.2,19.308l-.018-.212v-.708l.043-.077.051-.059.003-.094-.096-.183-.089-.209.003-.301-.036-.291L0,17.041l.046-.496.026-.628-.024-.279.058-.197.031-.485-.005-.475L.25,13.73l.346-.036.412-.063.184-.295.106-.374-.034-.37.08-.122.165-.201.298-.287-.012-.315.082-.097.141-.073L2.22,11.46l.226-.1571.125-.275.123-.44L2.5,10.281l.003-.068.074-.165.119-.165L2.79,9.83l.22.042.038-.014.034-.052.142-.487-.013-.131-.205-.326L2.972,8.63l-.03-.345-.05-.306-.059-.116-.109-.097-.049-.063-.424-.622.007-.295.178-.377.116-.183.162-.102.032-.087-.048-.106-.082-.08-.019-.17.023-.113.058-.124-.023-.26.005-.399.027-.582.008-.356.344-.264.501-.437.255-.457.137-.346L4.1,1.191l.122-.07.144-.054.503-.42L5.256.491l.296-.09L5.997.325l.276.031.503.019L7.172.333,7.508.104,7.66.04,7.874,0l.9719.309L9.817.601,9.993.574l.148.041.243.1579.358.339.213.219.103.128.499.735.186.185.187.101.19.036.146-.014.138-.083.188-.164.286-.075.233.015,1.209-.661.117-.009.352.052.391.091,1.013.663.827.434.581.145.685.103,1.163.031.879-.929.325-.203.392-.183.126-.031.691-.141,1.355-.119,1.271.052.25.037.54.123.832.303.359.291.564.048.404-.058.132-.288.406-.379.295-.154.313-.197.496-.245.408-.11L29.852.58l.289-.089ZM12.946,26.7329l-.271.085-.178-.021.244-.37.124.08.159.033Z" fill="url(#radial-gradient)"/></g></g></svg>