<svg xmlns="http://www.w3.org/2000/svg" xmlns:xlink="http://www.w3.org/1999/xlink" width="12.665" height="12.225" viewBox="0 0 12.665 12.225"><defs><radialGradient id="radial-gradient" cx="6.3325" cy="6.1125" r="6.2235" gradientUnits="userSpaceOnUse"><stop offset="0" stop-color="#ffd496"/><stop offset="1" stop-color="#f29d25"/></radialGradient></defs><title>NI</title><g id="Layer_2" data-name="Layer 2"><g id="Layer_1-2" data-name="Layer 1"><path id="NI" d="M12.665.043l-.078.106-.086.07-.179.345L12.26.595,12.247.34,12.14.306l-.125.091-.069.131.109.17.096.003.116.047.313,1.178-.067.21-.194.327-.184.277-.185.174-.229.74-.206,1.201.148,1.077-.075.995.066.234.019.292-.152.053-.086-.009-.088-.179.01-.158.091-.185.037-.251-.043-.131-.09.286-.158.128-.103.045-.1.144.106.272.137.199.046.142-.051.17-.031.58-.049-.016-.05-.078-.145-.006-.017.234.011.13-.123.101-.044.1.101.072.111.042.137-.01.112.287.036.233-.262.215-.088.178-.148.216-.084.212-.025.152.102.482.179.342.151.217.202.047-.047.228-.152.145-.276.121-.303.022-.496-.114-.203-.013-.079-.061-.024-.112-.142-.169-.26-.225-.15.016-.245-.049-.407-.153-.188-.019-.27.131-.314.172-.757-.268-.532-.189-.478-.171-.127-.065-.105.014-.091.089-.103.158-.034.046-.055.043-.062.012-.002-.075-.234-.314-.372-.377L3.372,9.374l-.524-.693-.281-.499L2.3,7.922,1.53,7.39l-.178-.212L.59,6.466.008,6.048,0,5.87l.239-.222.117.011.128.158.206.181.097.001.144-.084.003-.084.781-.034.14-.047.141-.131.073-.184.012-.176.03-.127.125-.123.229-.038.176-.013.052-.083L2.64,4.606l-.095-.654-.02-.183.032-.136.072-.049.346-.033.655.055.127-.041.262-.372.244-.273.174-.123.138-.037.158.243.553.348.094-.022.054-.019.018-.05-.01-.16.138-.146.287-.131.288-.231.29-.332.252-.195.212-.058.082-.09L6.94,1.794l.017-.175.084-.226.124-.131.162-.036.065-.071-.034-.107L7.389.931,7.536.738l.35-.165.2.055L8.252.85l.236.151.304.08.236-.029L9.196.913,9.347.871l.134.055L9.552.894,9.56.778,9.629.751l.132.063L9.877.83,9.979.8l.04-.057L10.04.684l.076-.043.263.043.294-.067L11,.438,11.217.36l.107.02.128-.09.149-.2L11.942,0Z" fill="url(#radial-gradient)"/></g></g></svg>