<svg xmlns="http://www.w3.org/2000/svg" xmlns:xlink="http://www.w3.org/1999/xlink" width="10.795" height="13.135" viewBox="0 0 10.795 13.135"><defs><radialGradient id="radial-gradient" cx="5.3975" cy="6.5675" r="6.011" gradientUnits="userSpaceOnUse"><stop offset="0" stop-color="#ffd496"/><stop offset="1" stop-color="#f29d25"/></radialGradient></defs><title>NL</title><g id="Layer_2" data-name="Layer 2"><g id="Layer_1-2" data-name="Layer 1"><path id="NL" d="M5.281,1.166l-.119-.065L5.793.914,6.192.857l.071.025-.721.246ZM6.682.862,7.236.785,7.233.756,7.087.709,6.615.717,6.464.75l.031.055ZM8.37.541,8.251.521l-.346.1L7.881.667l.096.034Zm-3.437.952-.229-.01-.334.299.044.055ZM9.682,0h-.13L9.311.094,9.236.219l.26-.016ZM1.853,10.259l-.358.186-.468-.065-.356-.136-.459.026L0,10.341l.084.388.064.123.083.08.11.016.127-.096.177-.101.285.047.207.093.074.0969.137.0921.2.022.387-.176.372-.269.109-.1871.041-.169-.322.116Zm8.942-8.645-.391-.085-.252-.125-.157-.226L9.725.869,9.016.901,8.426.99l-.817.038-.529.15-.958.5-.241.255-.246.549-.834.632-.486.243-.137-.093-.197-.061-.157.321-.097.289L3.401,5.506l-.222.612-.299.514-.47.628-.216.214-.132.081-.165.302-.132.362-.09.169.527.622.066.178.069.1041-.499.065.212.2009.267.1441.179.069.098.1449-.192.067-.181.004-.716-.533-.398-.098-.548.0311-.138.056L.279,9.605l.201.246.186.145.299.019.36.1821.518-.1521.372.1871.245.0669.22.112.194.024.085-.05-.054-.271.158-.1449.175-.067.079.118.161.12.126.001.342-.312.08.062.074.111.016.089.013.094.077.039.269-.02.137-.169.107-.106.08.072.039.208.074.271.321.302.271.086.333-.059.132-.054.089.045.089.16.192.183.403.129.124.073.086.123-.025.175-.192.435-.025.128.026.043-.038.08-.25.291-.022.103.083.1669.069.138h0l.15.067.141.022.267.009.285.009.153-.685-.117-.2-.145-.102-.169-.05-.078-.095-.027-.1091.03-.0669.199.02.062-.071.474-.404.02-.078-.066-.044-.086-.023-.022-.085.003-.112.253-.585.075-.25.017-.177-.016-.175-.146-.2749-.141-.22-.005-.175-.103-.092L7.294,8.61V8.428l.165-.142.231-.09.077-.075.138-.047.367.136.164.118.046-.024.148-.1279.26.02.629-.258.094-.1239.07-.132.0061-.058-.244-.2551-.007-.0939.032-.106.069-.084.144-.0571.153-.112.343-.3179.119-.276.037-.3.007-.224-.094-.178-.095-.115-.129.018-.251-.009-.235-.1-.129-.162-.032-.142.059-.09.018-.11-.038-.111.015-.093.106-.075.743.002.056-.082.05-.432.186-.659.175-.368.029-.155-.003-.875ZM1.069,8.988l.245-.071.371.302.348-.098-.021-.084-.059-.079-.274-.247L1.23,8.68l-.254.076.001.0889ZM4.031,2.932l.278-.33V2.077l-.411.429-.086.258.049.077Z" fill="url(#radial-gradient)"/></g></g></svg>