<?xml version="1.0" encoding="utf-8"?>
<!-- Generator: Adobe Illustrator 22.1.0, SVG Export Plug-In . SVG Version: 6.00 Build 0)  -->
<svg version="1.1" id="Layer_1" xmlns="http://www.w3.org/2000/svg" xmlns:xlink="http://www.w3.org/1999/xlink" x="0px" y="0px"
	 width="10.795px" height="13.135px" viewBox="0 0 10.795 13.135" enable-background="new 0 0 10.795 13.135" xml:space="preserve">
<radialGradient id="NL_1_" cx="5.3975" cy="6.5675" r="6.011" gradientUnits="userSpaceOnUse">
	<stop  offset="0" style="stop-color:#FFD496"/>
	<stop  offset="1" style="stop-color:#F29D25"/>
</radialGradient>
<path id="NL" fill="url(#NL_1_)" d="M5.281,1.166L5.162,1.101l0.631-0.187l0.399-0.057l0.071,0.025L5.542,1.128L5.281,1.166z
	 M6.682,0.862l0.554-0.077L7.233,0.756L7.087,0.709L6.615,0.717L6.464,0.75l0.031,0.055L6.682,0.862z M8.37,0.541l-0.119-0.02
	l-0.346,0.1L7.881,0.667l0.096,0.034L8.37,0.541z M4.933,1.493l-0.229-0.01L4.37,1.782l0.044,0.055L4.933,1.493z M9.682,0h-0.13
	L9.311,0.094L9.236,0.219l0.26-0.016L9.682,0z M1.853,10.259l-0.358,0.186L1.027,10.38l-0.356-0.136L0.212,10.27L0,10.341
	l0.084,0.388l0.064,0.123l0.083,0.08l0.11,0.016l0.127-0.096l0.177-0.101l0.285,0.047l0.207,0.093l0.074,0.097l0.137,0.092
	l0.2,0.022l0.387-0.176l0.372-0.269l0.109-0.187l0.041-0.169l-0.322,0.116L1.853,10.259z M10.795,1.614l-0.391-0.085l-0.252-0.125
	L9.995,1.178l-0.27-0.309L9.016,0.901L8.426,0.99L7.609,1.028L7.08,1.178l-0.958,0.5L5.881,1.933L5.635,2.482L4.801,3.114
	L4.315,3.357L4.178,3.264L3.981,3.203L3.824,3.524L3.727,3.813L3.401,5.506L3.179,6.118L2.88,6.632L2.41,7.26L2.194,7.474
	L2.062,7.555L1.897,7.857L1.765,8.219l-0.09,0.169L2.202,9.01l0.066,0.178l0.069,0.104l-0.499,0.065L2.05,9.558l0.267,0.144
	l0.179,0.069l0.098,0.145L2.402,9.983L2.221,9.987L1.505,9.454L1.107,9.356l-0.548,0.031l-0.138,0.056L0.279,9.605L0.48,9.851
	l0.186,0.145l0.299,0.019l0.36,0.182l0.518-0.152l0.372,0.187l0.245,0.067l0.22,0.112l0.194,0.024l0.085-0.05l-0.054-0.271
	l0.158-0.145l0.175-0.067l0.079,0.118l0.161,0.12l0.126,0.001l0.342-0.312l0.08,0.062l0.074,0.111l0.016,0.089l0.013,0.094
	l0.077,0.039l0.269-0.02l0.137-0.169l0.107-0.106l0.08,0.072l0.039,0.208l0.074,0.271l0.321,0.302l0.271,0.086l0.333-0.059
	l0.132-0.054l0.089,0.045l0.089,0.16l0.192,0.183l0.403,0.129l0.124,0.073l0.086,0.123l-0.025,0.175l-0.192,0.435l-0.025,0.128
	l0.026,0.043l-0.038,0.08l-0.25,0.291l-0.022,0.103l0.083,0.167l0.069,0.138l0,0l0.15,0.067l0.141,0.022l0.267,0.009l0.285,0.009
	l0.153-0.685l-0.117-0.2l-0.145-0.102l-0.169-0.05l-0.078-0.095l-0.027-0.109l0.03-0.067l0.199,0.02l0.062-0.071l0.474-0.404
	l0.02-0.078L7.757,11.25l-0.086-0.023l-0.022-0.085l0.003-0.112l0.253-0.585l0.075-0.25l0.017-0.177L7.981,9.843l-0.146-0.275
	l-0.141-0.22l-0.005-0.175l-0.103-0.092L7.294,8.61V8.428l0.165-0.142l0.231-0.09l0.077-0.075l0.138-0.047L8.272,8.21l0.164,0.118
	l0.046-0.024l0.148-0.128l0.26,0.02l0.629-0.258l0.094-0.124l0.07-0.132l0.006-0.058l-0.244-0.255l-0.007-0.094l0.032-0.106
	l0.069-0.084l0.144-0.057l0.153-0.112l0.343-0.318l0.119-0.276l0.037-0.3l0.007-0.224l-0.094-0.178l-0.095-0.115l-0.129,0.018
	l-0.251-0.009l-0.235-0.1l-0.129-0.162l-0.032-0.142l0.059-0.09l0.018-0.11l-0.038-0.111l0.015-0.093l0.106-0.075l0.743,0.002
	l0.056-0.082l0.05-0.432l0.186-0.659l0.175-0.368l0.029-0.155l-0.003-0.875L10.795,1.614z M1.069,8.988l0.245-0.071l0.371,0.302
	l0.348-0.098L2.012,9.037L1.953,8.958L1.679,8.711L1.23,8.68L0.976,8.756l0.001,0.089L1.069,8.988z M4.031,2.932l0.278-0.33V2.077
	L3.898,2.506L3.812,2.764l0.049,0.077L4.031,2.932z"/>
<g>
	<text transform="matrix(1 0 0 1 1.3501 7.0169)" fill="#770B00" font-family="'KornerDeliNF'" font-size="0.9937px">Amsterdam</text>
	<g id="Layer_2_copy_2_4_" opacity="0.9">
		<path fill="#9B0F00" d="M4.3935,4.9903c-0.0444-0.0087-0.167-0.0099-0.203-0.01v0c0,0-0.0018,0-0.005,0c-0.0032,0-0.005,0-0.005,0
			l0,0c-0.036,0.0001-0.1586,0.0013-0.203,0.01C3.449,5.0943,3.6096,5.5711,3.7208,5.7318C3.815,5.8679,4.1369,6.2318,4.1369,6.2318
			h0.0973c0,0,0.3219-0.3638,0.4161-0.4999C4.7614,5.5711,4.922,5.0943,4.3935,4.9903z"/>
		<path fill="#770B00" d="M4.3504,4.9903c-0.0346-0.0085-0.1288-0.0098-0.1599-0.01v0c0,0-0.0018,0-0.005,0
			c-0.0032,0-0.005,0-0.005,0l0,0c-0.031,0.0002-0.1252,0.0015-0.1599,0.01c-0.4215,0.104-0.2934,0.5808-0.2047,0.7415
			C3.891,5.8679,4.1477,6.2318,4.1477,6.2318h0.0756c0,0,0.2567-0.3638,0.3318-0.4999C4.6438,5.5711,4.7719,5.0943,4.3504,4.9903z"
			/>
		<path fill="#4C0700" d="M4.248,4.9903C4.236,4.9829,4.2062,4.9809,4.1905,4.9804l0-0.0002c0,0-0.0019,0-0.005,0.0001
			c-0.0031-0.0001-0.005-0.0001-0.005-0.0001l0,0.0002C4.1648,4.9809,4.135,4.9829,4.1231,4.9903
			c-0.1674,0.104-0.1165,0.5808-0.0813,0.7415c0.0298,0.1361,0.1318,0.4999,0.1318,0.4999h0.0239c0,0,0.1019-0.3638,0.1318-0.4999
			C4.3645,5.5711,4.4153,5.0943,4.248,4.9903z"/>
	</g>
</g>
</svg>
