<?xml version="1.0" encoding="utf-8"?>
<!-- Generator: Adobe Illustrator 22.1.0, SVG Export Plug-In . SVG Version: 6.00 Build 0)  -->
<svg version="1.1" id="Layer_1" xmlns="http://www.w3.org/2000/svg" xmlns:xlink="http://www.w3.org/1999/xlink" x="0px" y="0px"
	 width="73.4271px" height="87.608px" viewBox="0 0 73.4271 87.608" enable-background="new 0 0 73.4271 87.608"
	 xml:space="preserve">
<radialGradient id="NO_1_" cx="36.7135" cy="43.804" r="40.4146" gradientUnits="userSpaceOnUse">
	<stop  offset="0" style="stop-color:#FFD496"/>
	<stop  offset="1" style="stop-color:#F29D25"/>
</radialGradient>
<path id="NO" fill="url(#NO_1_)" d="M58.34,0l0.75,0.332l0.256-0.007l0.373,0.619l0.194-0.055l-0.037,0.376L59.5,1.444l-0.585,0.108
	l-0.087,0.075l-0.5-0.06l-0.281-0.506l-0.469-0.125l0.001-0.163l0.304-0.384L58.34,0z M73.168,11.398l0.153,1.065l-0.005,0.37
	l-0.072,0.358l-0.101,0.183l-0.201,0.08l-0.487-0.032l-0.661-0.419l-0.427-0.395l-0.133-0.017l-0.058,0.048l0.104,0.396
	l-0.028,0.304l-0.064,0.33l-0.09,0.299l-0.125,0.25l-0.262,0.322l-0.453,0.254l-1.247,0.495l-0.099,0.218l-0.402,1.37l-0.109,0.2
	l-0.147,0.169l-0.429,0.219l-0.208-0.302l-0.166-0.459l0.038-0.456l0.501-0.878l0.469-0.625l0.132-0.217l0.266-0.631l-0.538-1.594
	l-0.958-0.485l-1.091-0.741l-0.4-0.396l-0.623-0.819l-0.441-0.738l-0.398-0.026l-0.438,0.186l-0.684,0.674l-0.399,0.338l-0.22,0.1
	l-0.053,0.015l-0.49-0.191l-0.544-0.04l-0.438,0.055l-0.165,0.092l-0.61,1.084l-0.427,0.544l-0.235,0.187l-0.171,0.314l-0.14,0.516
	l-0.313,1.776l-0.233,0.666l-0.052,0.406l0.055,1.224l-0.056,0.674l-0.285,0.554l-0.201,0.249l-0.265,0.051l-0.347,0.141
	l-0.303,0.319l-0.214,0.435l-0.241,0.971l-0.408,0.356l-0.39-0.102l-0.278-0.356l-0.597-0.276l-0.445-0.176l-0.499-0.382
	l-0.44-0.291l-0.402-0.058l-0.229,0.369l-0.184,0.344l-0.686,0.279l-0.389,0.221l-0.504,0.049l-0.204-0.245l-0.732-0.162
	l-0.871-0.192l-0.252,0.002l-0.079-0.439l-0.232-0.615l-0.619-1.068l-0.253-0.378l-0.477-0.891l-0.555-0.918l-0.079-0.023
	l-0.372-0.031l-0.545,0.03l-0.346,0.209l-0.218,0.262l-0.038,0.218l0.211,0.832l-0.065,0.207l-0.109,0.1l-0.495-0.233l-0.599,0.016
	l-0.151,0.256l-0.365,0.028l-1.053,0.097l0.465,0.676l0.154,0.271l0.031,0.396l-0.081,0.734l-0.223,0.625l-0.26,0.507l-0.501,0.501
	l0.761,0.494l-0.517,0.665l-0.242,0.258l-0.28-0.044l-0.501-0.229l-1.213-0.556l-0.579-0.209l-0.518-0.064l-0.276,0.008
	l-1.098-0.478l-0.212,0.053l-0.394,0.207l-0.044,0.464l0.025,1.149l0.058,0.88L37.4,24.291l-0.145,0.343l-0.439,0.921l-0.988-0.626
	l-0.674-0.416l-0.433,0.553l-1.085,1.01l-0.556,1.976l-0.032,0.064l-0.329,0.499l-0.421,0.229l-0.319,0.113l-0.186,0.581
	l0.433,0.829l0.222,0.436l0.207,0.702l-0.038,0.445l-0.048,0.276l-0.465,0.564l-0.992,1.481l-0.918,1.534l-0.376,0.438l0.17,1.288
	l-0.305,0.376l-0.622,0.424l-0.318,0.163l-0.342,0.096l-1.052,0.169l0.187,1.36l0.071,0.599l-0.001,0.354l-0.109,0.345l-0.13,0.657
	l-0.196,2.33l-0.15,0.249l-0.207,0.625l-0.666,1.493l-0.534,0.986l-0.771,1.411l0.627,0.443l0.572,0.323l0.119,0.495l0.079,0.824
	l-0.019,0.559l-0.219,0.501l-0.17,0.351l-0.119,0.171l-0.813-0.17l-1.042-0.219l-0.27-0.002l-0.606,0.158l-0.547,0.323l-0.288,0.272
	l-0.077,0.108l-0.364,0.618l-0.648,1.092l-0.355,0.475l0.104,0.653l-0.596,1.255l0.39,1.258l0.017,0.042l0.207,0.506l-0.216,0.326
	l-0.091,0.175l0.031,0.575l0.057,0.641l-0.05,0.375l-0.021,0.415l0.53,1.855l-0.006,0.432l-0.026,0.278l-0.164,1.141l-0.22,1.521
	l0.384,0.397l0.546,0.474l0.307,0.187l0.453,0.562l0.346,0.547l-0.048,0.362l-0.1,0.399l-0.145,0.278l-0.137,0.381l-0.061,0.281
	l-0.064,0.075l-0.605,0.031l-0.319,0.106l-0.167,0.119l0.057,0.638l0.367,1.163l0.305,0.822l0.098,0.54l-0.1,0.546l-0.104,0.279
	L21.659,75.5l-0.08,0.744l-0.236,0.375l-0.309,0.408l-0.344,0.304l-0.273,0.085l-0.234,0.035l-0.158,0.154l-0.143,0.453
	l-0.132,0.474l-0.431,0.582l0.012,0.202l0.164,0.686l0.154,0.778l-0.13,0.725l-0.111,0.757l-0.195,0.503l-0.278,0.18l-0.204-0.09
	l-0.231-0.69l-0.012-0.163l-0.057-0.212l-0.656-0.211l-0.116,0.007l-0.258-0.124l-0.151-0.035l-0.31-0.071l-0.258-0.614
	l-0.273-0.512l-0.04-0.214l0.01-0.963l-0.084-0.43l-0.026-0.47l-0.172,0.382l0.1,0.603l-0.212,0.252l-0.269,0.123l0.025,0.351
	l0.11,0.067l0.023,0.363l-0.065,0.538l-0.528,1.189l-0.106,0.127l-0.073,0.16l-0.27-0.106l-0.347,0.33l-0.329,0.053l-0.119-0.373
	l-0.463-0.495l-0.218,0.028l0.196,0.244l0.194,0.317l-0.11,0.209l-0.108,0.137l-0.189,0.071l-0.677,0.413l0.241,0.277l-0.205,0.314
	l-0.236,0.046l-0.126,0.146l-0.044,0.198l-0.701,0.565l-1.142,1.441l-0.587,0.406l-0.41,0.42l-0.361-0.01l-0.454,0.357l-1.15,0.312
	l-0.763-0.141l-0.531,0.124l-0.285-0.245l-0.037-0.168l0.014-0.098l0.047-0.118L5.833,86.923l-0.208-0.02l-0.089,0.118L5.524,87.29
	l-0.099,0.07l-0.396-0.154l-0.1-0.138l0.142-0.281l0.244-0.253l-0.044-0.052l-0.047-0.154l-0.119-0.02l-0.354,0.038l-0.288-0.046
	l-0.938-0.571l-0.219-0.306l-0.757-0.489l-0.339-0.52l-0.193-0.572l0.015-0.52l0.093-0.827l0.159-0.205l0.679,0.291l0.687,0.484
	l0.107-0.024l0.216-0.38l0.418-0.306l-0.119-0.084l-0.622,0.351l-0.231-0.194l-0.359-0.396v-0.205l0.167-0.205l0.056-0.277
	l-0.087-0.262l0.041-0.357l0.277-0.379l0.416-0.385l0.3-0.373l0.308-0.229l-0.032-0.077l-0.352,0.146l-0.337,0.248l-0.396,0.415
	l-0.483,0.335l-0.357,0.13l-0.17,0.108l-0.262,0.104l-0.271,0.479l-0.296,0.205l-0.53,0.021l-0.117-0.35l0.15-1.248l0.16-0.611
	l0.176-0.433l0.276-0.073l0.194-0.318h0.161l0.14,0.147l0.541,0.142L3,78.3251l0.347-0.06l0.633-0.41l-0.013-0.075l-0.428,0.09
	l-0.26,0.013l-0.372,0.103l-0.198-0.074l-0.093-0.307l0.149-0.278l0.597-0.665l0.207-0.292l0.117-0.273l-0.019-0.186l0.1-0.386
	l0.584-0.675l0.476-0.31l0.156,0.266l-0.133,0.831l0.001,0.342l0.376-1.21l0.166-0.289l0.188-0.204l0.456-0.137l0.129-0.192
	l-0.532,0.063l-1.289,0.464l-0.543,0.413l-0.145,0.317l-0.377,0.478l-0.177,0.309l-0.078,0.454l-0.212,0.246l-0.287,0.091
	l-0.398,0.572l-0.176,0.459l-0.396,0.364l-0.251,0.28l-0.083,0.1l-0.136,0.274l-0.113,0.02l-0.098-0.161l-0.017-0.354l0.04-0.568
	l0.191-0.41l0.091-0.401l-0.126-0.375l0.088-0.238l0.167,0.009l0.312,0.108l0.331-0.017l0.545-0.297l-0.087-0.174l-0.235-0.025
	l-0.439,0.025l-0.369-0.291l-0.287-0.58l-0.13-0.778l0.087-0.223l1.062-0.796l0.286-0.363l-0.166-0.036l-0.399,0.44l-0.57,0.272
	l-0.36-0.379l-0.187-0.409l-0.108-0.867l0.039-0.447l-0.045-0.589l0.244-0.192l0.272,0.102l0.269,0.038l0.609-0.052l1.344-0.355
	l0.866,0.211l0.352-0.019l0.539-0.306l0.471-0.031l0.353,0.233l0.193,0.268l0.024,0.357l0.163,0.238l0.11-0.078l-0.088-0.283
	l-0.018-0.439l1.417-0.499l0.167-0.194l-0.563-0.068l-0.161-0.457l0.297-0.694l-0.028-0.09l-0.313,0.367l-0.154,0.514l0.062,0.41
	l-0.062,0.19l-0.288,0.087l-0.648,0.032l-0.416-0.174l-0.385-0.094l-0.131-0.131l0.044-0.293l-0.073-0.061l-0.16,0.263l-0.142,0.523
	l-0.306,0.121l-0.845-0.194l-1.223,0.114l-0.549,0.262l-0.355-0.034l-0.612-0.46l-0.238-0.367l-0.089-0.742l0.036-0.327l0.476-0.138
	l0.241,0.009l0.226-0.176l-0.2-0.115l-0.281-0.226l-0.191-0.452l-0.289-0.148l-0.193-0.387l-0.049-0.585l0.055-0.408l0.154-0.131
	l0.371,0.089l0.978-0.069l0.92,0.416l0.625,0.234l1.265-0.118l0.741-0.371l-0.136-0.102l-0.804,0.214l-0.743-0.009l-1.31-0.419
	l-0.537-0.135l-0.579,0.06l-0.301-0.127l-0.177-0.416l0.131-0.798l0.274-0.172l0.148,0.208l0.179,0.013l0.182-0.334l0.173-0.191
	l0.138-0.432l0.519-0.411l0.219-0.035l0.314-0.189l0.201,0.054l0.128,0.19l0.163,0.157l0.352-0.019l1.042-0.33l0.112-0.097
	l0.203-0.271l-0.66,0.121l-0.548,0.192l-0.353,0.054l-0.05-0.241l0.13-0.213l0.204-0.228l0.099-0.389l0.225-0.166l0.243,0.009
	l0.502-0.071l0.354-0.101l0.607,0.067l0.906,0.149l0.583,0.362l0.22-0.033l0.233-0.096l0.106-0.131l-0.458-0.15l-0.026-0.215
	l0.057-0.162l0.748-0.299l0.816-0.066l-0.14-0.241l-1.788,0.364l-0.467-0.249l-0.369,0.002l-0.241,0.142l-0.688,0.172l-0.126-0.122
	l0.131-0.422l0.412-0.694l0.034-0.17l0.191-0.168l1.068-0.405l0.513-0.472l0.231-0.06l0.229,0.033l0.349-0.055l0.674,0.135
	l0.311,0.59l0.279,0.185l0.877,0.734l-0.039-0.21l-0.76-0.997l-0.29-0.248l-0.217-0.492l0.074-0.466l0.244-0.312l0.867-0.167
	l0.155-0.181l0.016-0.311l-0.133-0.213l-0.319,0.012l-0.263-0.132l-0.072-0.336l0.105-0.228l0.5-0.417l0.273-0.135l0.474-0.146
	l0.823,0.33l0.063,0.172l-0.231,0.414l0.023,0.232l0.202,0.025l0.47-0.698l0.553-0.097l0.229-0.15l0.266-0.095l0.379,0.632
	l0.167,0.202l0.125,0.083l0.121,0.524l0.117,0.028l0.167-0.262l0.303-0.139l0.425-0.091l0.704,0.139l0.319-0.103l0.156,0.015
	l-0.15-0.471l-0.093-0.137l0.145-0.422l0.151-0.165l0.486-0.297l0.464-0.133l0.303-0.282l0.407-0.261l-0.064-0.208l-0.113-0.242
	l-0.264-0.015l-0.107-0.132l0.334-0.314l0.458-0.35l-0.08-0.138l-0.344-0.156l-0.261,0.117l-0.388,0.271l-0.452,0.428l0.147,0.125
	l0.226,0.359l-0.315,0.476l-1.672,1.259l-0.797,0.367l-0.368-0.057l-0.088-0.343l-0.169-0.253l-0.182-0.525l-0.31,0.014
	l-0.176,0.116l-0.076-0.172l0.133-0.562l0.262-0.445l0.439-0.337l0.211-0.408l0.198-0.649l0.635-0.62l0.924-1.542l0.753-0.495
	l0.276-0.543l0.444-0.24l0.379-0.425l0.297-0.042l0.54-0.384l0.306-0.458l-0.2-0.028l-0.475,0.297l-0.269,0.12l0.019-0.491
	l0.13-0.505l0.391-0.463l1.881-1.351l0.188,0.224l0.225,0.396l0.566-0.089l0.646-0.767l0.497-0.837l-0.269,0.146l-0.293,0.343
	l-0.571,0.475l-0.264,0.075l-0.151-0.062l-0.084-0.317l-0.198-0.103l-0.179,0.071l-0.185-0.226l-0.033-0.559l0.236-0.835
	l0.187-0.554l0.202-0.421l0.794-1.2l0.171-0.658l0.359-0.348l0.466,0.077l0.141-0.101l-0.16-0.434l-0.508-0.344l-0.031-0.217
	l1.693-0.571l0.806,0.019l0.239-0.285l0.438-0.184l0.332-0.35l-0.171-0.155l-0.819,0.322l-0.512,0.151l-0.231-0.005l-0.181,0.11
	l-0.654,0.042l-0.143-1.397l0.103-0.763l0.244,0.016l0.056-0.731l0.282-0.433l0.389-0.097l0.196-0.185l0.283-0.378l0.468,0.087
	l0.481-0.084l-0.12-0.179l-0.597-0.23l-0.147-0.396l0.21-0.222l0.229-0.163l0.202-0.029l0.399-0.777l0.243-0.333l0.271,0.058
	l0.378-0.344l0.372,0.117l0.359-0.225l0.491-0.149l1.797-0.057l0.053-0.321l-0.378-0.074l-1.335-0.083l-0.682,0.007l-0.287,0.083
	l-0.105-0.112l0.019-0.192l0.248-0.305l0.117-0.337l0.496-0.826l0.581-0.552l0.445,0.141l0.473,0.527l0.337,0.066l0.157,0.17
	l0.246,0.724l0.117,0.023l-0.053-0.695l0.325-0.568l-0.084-0.157l-0.488,0.206l-0.374-0.214l-0.295-0.428l-0.084-0.392l0.184-0.388
	l0.173-0.196l-0.117-0.229l-0.738,0.611l-0.522,0.143l-0.206-0.085l0.111-0.554l-0.062-0.441l0.7-1.09l0.241-0.126l0.393,0.088
	l0.355,0.308l0.297-0.049l0.322-0.165l-0.044-0.296l-0.698-0.118l-0.18-0.246l0.065-0.243l0.479-0.256l0.477-0.463l0.546-0.135
	l0.439-0.351l0.085,0.08l0.074,0.138l0.158,1.298l0.393,1.052l0.145,0.038l-0.151-0.894l0.141-0.258l0.178-0.196l0.056-0.224
	l-0.204-0.076l-0.167-0.322l-0.238-1.033l0.082-0.27l0.517-0.554l0.648-0.127l0.69,0.388l0.243,0.004l0.4-0.104l0.679-0.32
	l0.4-0.122h0.208l0.051-0.162l-0.193-0.104l-0.062-0.101l-0.151-0.058l-0.628,0.173l-1.733-0.055l-0.167-0.185l-0.031-0.321
	l0.184-0.46l0.202-0.255l0.654-0.459l0.691-0.062l0.729-0.819l0.278-0.616l0.158-0.955l0.444-0.776l1.114-0.443l0.045-0.196
	l-0.118-0.407l0.01-0.734l0.305-0.859l0.203-0.299l0.094-0.036l0.24,0.282l0.292,0.598l0.457,0.342l0.599,0.059l0.16-0.168
	l-0.465-0.34l-0.353-0.446l-0.028-0.449l0.167-0.238l0.26,0.026l0.326-0.05l0.304-0.303l0.044-0.213l0.013-0.29l0.076-0.295
	l0.446-0.707l1.374-0.461l0.1,0.188l-0.074,1.363l-0.158,0.876l0.005,0.638l0.268-0.638l0.358-1.757l0.27-0.832l0.304-0.479
	l0.217-0.108l0.215-0.249l0.284-0.148l0.087,0.191l0.09,0.443l-0.153,1.546l0.015,0.486l-0.171,0.649l-0.655,1.439l0.03,0.183
	l0.148-0.068l0.253-0.236l0.812-1.368l0.709,0.173l0.009-0.112l-0.228-0.403l-0.277-0.387l-0.084-0.48l0.037-1.288l0.214-0.513
	l0.612,0.054l0.367-0.071l0.171,0.233l0.367-0.017l0.254-0.93l0.503-0.082l0.442,0.616l0.531,0.413l0.427,0.592l0.121-0.162
	l-0.23-1.386l-0.252-0.508l-0.547-0.265l-0.583-0.629l-0.151-0.28l0.026-0.208l0.514-0.201l0.678,0.231l0.604-0.527l0.165,0.145
	l0.463-0.276l0.288,0.372l0.177-0.11l0.102-0.499l0.739-0.31l0.469,0.287l0.251,0.295l0.117,0.567l0.179,1.115l0.366,0.599
	l0.228,0.293l0.269,0.081l0.13-0.298l-0.252-0.36l-0.068-0.34l0.121-0.846l0.141-0.333l0.791-1.269l0.662-0.662l0.396-0.056
	l0.694-1.493l0.196-0.273l0.181-0.063l-0.046-0.368l-0.379-0.233l-0.013-0.458l0.5-0.558l0.607-0.941l0.299-0.063l0.188,0.262
	l0.591,0.425l0.362,0.485l0.262,0.244l0.17-0.051l0.141-0.364l0.17-0.171l0.375,0.096l0.224,0.234l0.175,0.031l0.158,0.142
	l0.037,0.311l-0.325,0.339l-0.554,0.893l-0.546,1.01l-0.18,0.53l-0.177,1.383l-0.427,0.879l-0.033,0.614l0.172,0.288l0.471-0.226
	l0.581-0.819l0.145-0.874l1.453-2.391l0.682-1.334l0.774-1.113l0.434-0.231l0.204,0.739l-0.164,0.96l-0.329,0.609l0.243,0.279
	l-0.046,0.72l-0.076,0.399l-0.048,0.417l0.003,0.366l0.228-0.098l0.907-0.752l0.23-0.818l0.213-0.616l0.102-0.533l0.353-0.507
	l0.666-0.004l0.026-0.2L63.063,2.002l-0.095-0.319l0.271-0.426l0.745-0.816l0.383,0.09l0.229,0.186l0.917,0.142l0.704,0.583
	L66.19,2.351l-0.157,0.378l-0.154,0.232l-0.901,0.684L64.83,3.982l0.283,0.116l0.608-0.34l0.158,0.309l-0.194,0.77l-0.033,1.149
	l-0.07,0.667v0.606l0.076,0.325l0.245-1.29l0.083-0.333l0.358-0.489l0.133-0.989l0.35-1.195l0.395-0.698l0.229-0.191l0.76,0.027
	l0.326,0.263l0.288,0.583l0.215,0.233l0.678,0.247l0.232,0.309l0.043,0.184l0.166,0.037l0.458-0.439l0.297-0.073l0.484,0.684
	l-0.097,0.505l0.028,0.16l0.586-0.032l0.488,0.198l0.927,1.028l0.097,0.478l-0.046,0.578L72.043,8.002l-0.578,0.604l-0.946,0.232
	l-3.212-0.404l0.065,0.437l2.237,0.951l0.128,0.271l-0.072,0.568l-0.001,0.455l0.042,0.31l0.165,0.288l0.273,0.135l0.557-0.071
	l0.274,0.155l0.188-0.229l0.07-0.773l0.162-0.171l0.312,0.225l0.136,0.826l0.087,0.085l0.157-0.588l0.309,0.042l0.337-0.049
	L73.168,11.398z M52.318,2.808l-0.055,0.268l-0.095,0.26l-0.23,0.274l-0.666,1.081l-0.391,0.173l-0.124,0.169l-0.156,0.101
	l-0.486-0.147l-0.142,0.218l-0.134,0.146l-0.352,0.056L49.28,5.36l-0.533-0.398L48.43,4.53l-0.172-0.37l0.493,0.007l0.175-0.09
	l0.331,0.078l0.199-0.381l0.42,0.046l0.807-0.265l0.296,0.148l0.677-0.889l0.212,0.023l0.324-0.255L52.318,2.808z M53.937,4.915
	l-0.535,0.336l-0.31-0.289l-0.13-0.297l-0.019-0.661l0.072-0.404l0.251-0.209l0.163,0.153l0.043,0.128l0.292,0.125l0.343,0.416
	L53.937,4.915z M52.809,5.067l0.052,0.394l0.02,0.324l-0.262,0.467l-0.604,0.611l0.035,0.164l-0.209,0.157l-0.313,0.115
	l-0.165-0.111l0.022-0.523l-0.05-0.156l-0.237,0.208L50.851,6.45V6.182l0.065-0.233l0.229-0.355l0.381-0.245l0.251,0.092
	l0.838-0.943l0.09,0.198L52.809,5.067z M42.01,7.845l0.143,0.097l0.142-0.06l0.117,0.085l0.235,0.436L42.9,8.574l0.012,0.218
	l-0.231,0.212l-0.305,0.064l-0.327-0.074l-0.096-0.272l-0.101-0.453l-0.273-0.445l-0.041-0.391l0.238-0.062L42.01,7.845z
	 M40.572,9.086l0.249,0.447l0.221-0.043l0.066-0.168l0.15-0.084l0.304,0.237l-0.043,0.401l-0.421,0.505l-0.302,0.718l-0.386,0.166
	l-0.186-0.086l-0.346,0.413l-0.276,0.428l-0.287,0.54l-0.018,0.278l-0.045,0.212l-1.051,0.21l-0.382,0.139l-0.405-0.179
	l-0.192-0.356l0.062-0.193l0.404-0.077l0.013-0.331l0.103-0.202l0.131-0.111l0.096-0.424l0.16-0.111l0.298,0.104l0.201-0.308
	l0.113-0.053l0.139,0.255l0.067-0.351l-0.067-0.321l0.035-0.217l0.385-0.565l0.167-0.413l0.24-0.267l0.231,0.042l0.067-0.394
	l-0.067-0.404l0.025-0.264l0.204-0.642l0.224-0.027l0.103,0.571L40.572,9.086z M44.849,8.894l-0.151,0.191l-0.232,0.078
	l-0.125-0.118l-0.178-0.078l-0.198,0.035l-0.166-0.351l0.019-0.295l0.227-0.4L44.5,7.728l0.368,0.094l0.094,0.117L44.849,8.894z
	 M70.604,11.29l-0.533,0.237l-0.062-0.195l0.117-0.304l0.14-0.624l0.219,0.025l0.222,0.238l0.174,0.284L70.604,11.29z M35.655,12.91
	l0.337,0.459l0.151-0.14l0.299-0.053l0.222,0.162l0.182,0.291l0.215,0.013l0.135,0.38l0.069,0.493l-0.156,0.367l-0.222,0.167
	l-0.06,0.431l0.084,0.603l-0.498,0.206l-0.576,0.092l-0.226-0.288l-0.46,0.526l-0.457,0.817l-0.22,0.096l-0.016-0.258l-0.328-0.179
	l-0.42-0.01l0.014-0.192l0.077-0.135l0.362-0.201l0.072-0.416l-0.066-0.744l0.064-0.363l0.014-0.25l0.228-0.294l0.78,0.138
	l0.095-0.281l-0.059-0.177l-0.403-0.31l0.062-0.209l0.291-0.187l0.275-0.025l0.083-0.316l0.014-0.139L35.655,12.91z M30.764,21.04
	l0.034,0.054l0.382-0.74l0.424-0.231l0.026-0.259l0.164-0.25l-0.019-0.41l0.083-0.333l0.216-0.089l0.135-0.113l0.149-0.063
	l0.271,0.271l0.152,0.3l0.19,0.668l-0.079,0.644l-0.509,0.501l-0.404,0.225l-0.409,0.572l-0.205,0.467l-0.177,0.101l-0.111-0.038
	l-0.099-0.112h-0.207l-0.228,0.404l-0.688,0.328l-0.27-0.095l-0.012-0.402l-0.161,0.033l-0.258,0.482l-0.252,0.161l-0.169,0.049
	l-0.311-0.181l-0.836,0.818l-0.784,0.152l-0.258-0.094l-0.001-0.5l0.507-0.642l0.415-0.447l1.43-0.313l0.891-1.336l0.215-1.463
	l0.21-0.532l-0.099-0.301l-0.239-0.053l-0.015-0.464l0.125-0.508l0.467-0.7l0.26-0.299l0.423-0.849l0.204-0.191h0.232l0.229,0.223
	l-0.041,0.455l-0.343,0.818l-0.508,0.694l0.062,0.497l0.202,0.407l0.05,0.694l0.013,0.666l-0.385,0.896L30.764,21.04z
	 M29.211,18.085l0.365,0.784l0.167,0.457l-0.135,0.859l-0.355,0.432l-0.547,0.077l-0.384-0.036L28.08,20.45l-0.03-0.233l-0.14-0.069
	l-0.369,0.3l-0.256,0.04l-0.326-0.232l-0.088-0.372l0.346-0.467l0.16-0.364l0.383,0.032l0.096,0.113l0.217,0.071l0.132-0.439
	l-0.03-0.304l0.097-0.212l0.463,0.153l0.001-0.83l0.18-0.058l0.074,0.032l0.133,0.175L29.211,18.085z M25.467,23.294l0.167,0.129
	l0.436-0.038l0.088,0.048l-0.063,0.213l-0.189,0.234l-0.397,0.144l-0.179,0.357l-0.128,0.121l-0.343,0.001l-0.203,0.083
	l-0.249,0.316l-0.199-0.233l-0.056,0.166l-0.036,0.296l-0.111,0.086l-0.344,0.107l-0.083-0.689l0.158-0.25l0.124-0.3l0.19-0.046
	l0.17,0.025l0.307-0.648l0.42-0.185l0.271-0.021L25.467,23.294z M22.937,26.232l-0.415,0.393l0.151-0.718l0.224-0.73l0.31-0.419
	l0.154,0.164l-0.071,0.351l0.001,0.346l-0.066,0.163L22.937,26.232z M21.389,39.353l-0.26,0.045l0.043-0.305l0.21-0.29l0.081-0.198
	l0.042-0.234l0.186-0.177l0.262,0.227l0.005,0.384l-0.13,0.35L21.389,39.353z M21.641,40.326l-0.225,0.02l0.002-0.281l0.129-0.256
	l0.204-0.171l0.263-0.045l0.294-0.02l0.089,0.136L22.228,39.9L21.641,40.326z M20.121,42.207l-0.186,0.209l-0.347-0.06l-0.037-0.18
	l0.099-0.36l0.211-0.149l0.272,0.029l0.087,0.15L20.121,42.207z M18.054,47.299l-0.147,0.184l-0.327-0.147l-0.645,0.114l-0.26-0.179
	l0.207-0.35l0.583-0.368l0.313,0.017l0.319,0.452L18.054,47.299z M10.306,55.04l-0.322,0.015L9.79,54.913l0.461-0.282l0.723-0.27
	l0.069-0.171l0.087-0.021l0.125,0.21l0.016,0.288l-0.08,0.143L10.306,55.04z M9.272,57.11l-0.275,0.004L8.67,57.018l-0.205-0.205
	l-0.032-0.181l0.377-0.225l0.379-0.132l0.176,0.248l0.013,0.406L9.272,57.11z M0.449,70.66L0.2,70.733L0,70.67l0.071-0.554
	l0.104-0.09l0.151-0.032l0.163,0.297L0.449,70.66z M0.806,75.108l0.009,0.671l-0.258-0.051l-0.116-0.257l-0.034-0.165l0.021-0.389
	L0.37,74.515l0.076-0.2l0.094-0.027l0.167,0.358L0.806,75.108z"/>
<g>
	<text transform="matrix(1 0 0 1 10.4036 82.3825)" fill="#770B00" font-family="'KornerDeliNF'" font-size="5.6244px">Oslo</text>
	<g id="Layer_2_copy_2_7_" opacity="0.9">
		<path fill="#9B0F00" d="M17.6774,70.9111c-0.2515-0.0495-0.9454-0.056-1.149-0.0569v-0.0001c0,0-0.0102,0-0.0285,0
			c-0.0183,0-0.0285,0-0.0285,0l0,0.0001c-0.2036,0.0008-0.8975,0.0074-1.149,0.0569c-2.9911,0.5887-2.0824,3.2876-1.4528,4.1971
			c0.5332,0.7703,2.3549,2.8297,2.3549,2.8297h0.5508c0,0,1.8218-2.0595,2.3549-2.8297
			C19.7598,74.1986,20.6686,71.4998,17.6774,70.9111z"/>
		<path fill="#770B00" d="M17.4333,70.9111c-0.196-0.0484-0.7292-0.0557-0.9048-0.0568v-0.0002c0,0-0.0102,0-0.0285,0.0001
			c-0.0183-0.0001-0.0285-0.0001-0.0285-0.0001l0,0.0002c-0.1756,0.0011-0.7088,0.0084-0.9048,0.0568
			c-2.3855,0.5887-1.6608,3.2876-1.1587,4.1971c0.4252,0.7703,1.8781,2.8297,1.8781,2.8297h0.4277c0,0,1.4529-2.0595,1.8781-2.8297
			C19.0941,74.1986,19.8188,71.4998,17.4333,70.9111z"/>
		<path fill="#4C0700" d="M16.8534,70.9111c-0.0676-0.042-0.2361-0.0531-0.325-0.0559l0-0.001c0,0-0.0107,0-0.0285,0.0003
			c-0.0178-0.0003-0.0285-0.0003-0.0285-0.0003l0,0.001c-0.0889,0.0029-0.2574,0.0139-0.325,0.0559
			c-0.9473,0.5887-0.6595,3.2876-0.4601,4.1971c0.1689,0.7703,0.7458,2.8297,0.7458,2.8297h0.1355c0,0,0.577-2.0595,0.7458-2.8297
			C17.5129,74.1986,17.8008,71.4998,16.8534,70.9111z"/>
	</g>
</g>
</svg>
