<svg xmlns="http://www.w3.org/2000/svg" xmlns:xlink="http://www.w3.org/1999/xlink" width="73.4271" height="87.608" viewBox="0 0 73.4271 87.608"><defs><radialGradient id="radial-gradient" cx="36.7135" cy="43.804" r="40.4146" gradientUnits="userSpaceOnUse"><stop offset="0" stop-color="#9b0400"/><stop offset="1" stop-color="#4c0200"/></radialGradient></defs><title>NO</title><g id="Layer_2" data-name="Layer 2"><g id="Layer_1-2" data-name="Layer 1"><path id="NO" d="M58.34,0l.75.332.256-.007.373.619.194-.055-.037.376-.376.179-.585.108-.087.075-.5-.06-.281-.506L57.578.936l.001-.163.304-.384ZM73.168,11.398l.153,1.065-.005.37-.072.358-.101.183-.201.08-.487-.032-.661-.419-.427-.395-.133-.017-.058.048.104.396-.028.304-.064.33-.09.299-.125.25-.2621.322-.453.254-1.247.495-.099.218-.402,1.37-.109.2-.1469.169-.429.219-.2081-.302-.166-.459.0381-.456.5009-.878.469-.625.132-.217.266-.631-.538-1.594-.958-.485-1.091-.741-.4-.396-.623-.819-.441-.738-.398-.026-.438.186-.684.674-.399.338-.22.1-.0529.015-.49-.191-.544-.04-.438.055-.165.092-.61,1.084-.427.544-.235.187-.171.314-.14.516-.313,1.776-.233.666-.052.406.055,1.224-.056.674-.285.554-.201.249-.265.051-.347.141-.303.319-.2139.435-.2411.971-.408.356-.39-.102-.278-.356-.597-.276-.445-.176-.499-.382-.44-.291-.402-.058-.229.369-.184.344-.686.279-.389.221-.504.049-.204-.245-.732-.162-.871-.192-.252.002-.079-.439-.232-.615-.619-1.068-.253-.378-.477-.891-.5549-.918-.079-.023-.372-.031-.545.03-.346.209-.218.262-.0381.218.211.832-.065.207-.109.1-.495-.233-.599.016-.151.256-.365.028-1.0529.097.465.676.154.271.031.396-.081.734-.223.625-.26.507-.5009.501.761.494-.5171.665-.242.258-.28-.044-.501-.2291-1.213-.556-.579-.209-.518-.0639-.276.0079-1.098-.4779-.212.0529-.394.207-.044.4641.0251,1.149.0579.88-.145.506-.145.343-.439.921-.988-.626-.674-.416-.433.5529-1.085,1.01-.556,1.976-.032.064-.329.499-.421.229-.319.113-.186.581.433.829.222.436.207.702-.0381.445-.0479.276-.4651.564-.992,1.481-.918,1.534-.376.438.17,1.288-.305.376-.622.424-.318.163-.342.096-1.052.169.187,1.36.071.599-.0009.354-.1091.345-.13.657-.1959,2.33-.15.249-.2069.625-.6661,1.493-.5339.986-.771,1.411.627.443.572.323.119.495.079.824-.019.559-.219.501-.17.351-.119.171-.813-.17-1.042-.219-.27-.002-.606.158-.547.323-.288.272-.077.108-.364.618-.648,1.092-.355.475.104.653-.596,1.255.39,1.258.017.042.207.506-.216.326-.091.175.031.575.057.641-.05.375-.021.415.53,1.855-.006.432-.026.278-.164,1.141-.22,1.521.384.397.546.474.307.187.453.562.346.547-.048.362-.1.399-.145.278-.137.381-.061.281-.064.075-.605.031-.319.106-.167.119.057.638.367,1.163.305.822.098.54-.1.546-.104.2791-.003.375-.08.744-.236.375-.309.408-.344.304-.273.085-.234.035-.158.154-.143.453-.132.474-.431.582.012.202.164.686.154.778-.13.725-.111.757-.195.503-.278.18-.204-.09-.231-.69-.012-.163-.057-.212-.656-.211-.116.007-.258-.124-.151-.035-.31-.071-.258-.614-.273-.512-.04-.214.01-.963-.084-.43-.026-.47-.172.382.1.603-.212.252-.269.123.025.351.11.067.023.363-.065.538-.5281,1.189-.1059.127-.073.16-.27-.106-.347.33-.329.053-.119-.373-.463-.495-.218.028.196.244.194.317-.11.209-.108.137-.189.071-.677.413.241.277-.205.314-.236.046-.126.146-.044.198-.701.565-1.142,1.441-.587.406-.41.42-.361-.01-.454.357-1.15.312-.763-.1409-.531.1239-.285-.2449-.037-.168.014-.098.047-.118-.099-.0391-.208-.02-.089.118-.012.269-.099.07-.396-.154-.1-.138.142-.281.244-.253-.044-.052-.047-.154-.119-.02-.354.038L4.463,86.3l-.938-.5711-.219-.306-.757-.489-.3389-.52-.193-.5719.015-.52.093-.827.159-.205.6789.291.6871.484.1069-.024.2161-.38.418-.306-.119-.084-.622.351-.231-.194-.359-.396v-.205l.167-.205.056-.277-.0871-.262.041-.357.277-.379.416-.385.3-.373.308-.229-.032-.077-.352.146-.337.248-.396.415-.483.335-.357.13-.17.108-.262.104-.271.479-.296.205-.53.021-.117-.35.15-1.248.16-.611.176-.433.276-.073.194-.318h.161l.14.147.541.142L3,78.3251l.347-.06.633-.41-.013-.075-.428.09-.26.013-.372.103-.198-.074-.093-.307.149-.278.597-.665.207-.292.117-.273-.019-.186.1-.386.584-.675.476-.31.156.266-.133.831.001.342.376-1.21.166-.289.188-.204.456-.137.129-.192-.532.063-1.289.464-.543.413-.145.317-.377.478-.177.309-.078.454-.212.246-.287.091-.398.572-.176.459-.396.364-.251.28-.083.1-.136.274-.113.02L.875,78.69l-.017-.354.04-.568.191-.41.091-.401-.126-.375.088-.238.167.009.312.108.331-.017.545-.297-.087-.174-.235-.025-.439.025-.369-.291-.287-.58-.13-.778.087-.223,1.0621-.796.286-.363-.166-.036-.399.44-.57.272-.36-.379-.187-.409-.108-.867.039-.447-.045-.589.244-.192.272.102.269.038.609-.052,1.344-.355.866.211.352-.019.539-.306.471-.031.353.233.193.268.024.357.163.238.11-.078-.088-.283-.018-.439,1.417-.499.167-.194-.563-.068-.161-.457.297-.694-.028-.09-.313.367-.154.514.062.41-.062.19-.288.0871-.648.0319-.416-.1739-.385-.094-.131-.131.044-.293-.073-.061-.16.263-.142.523-.306.121-.845-.194-1.223.114-.549.2619-.355-.034-.612-.46-.238-.367L.538,68.95l.036-.327.476-.138.241.009.226-.176-.2-.115-.281-.226-.191-.452-.289-.1479L.363,66.99l-.049-.585.055-.4081.154-.131.371.0891.978-.069.92.416.625.2339,1.265-.1179.741-.3711-.136-.102-.804.214L3.74,66.15l-1.31-.419-.537-.135-.579.06-.301-.127-.177-.416.131-.798.274-.172.148.208.179.013.182-.334.173-.191.138-.432.519-.411.219-.035.314-.189.201.054.128.19.163.157.352-.019,1.042-.33.112-.097.203-.271-.66.121-.548.192-.353.0541-.05-.241.13-.213.204-.228.099-.389.225-.166.243.009.502-.071.3541-.101.6069.067.9061.149.583.362.22-.033.233-.096.106-.131-.4581-.15-.026-.215.057-.162.748-.299.816-.066-.14-.241-1.788.364-.467-.249-.369.002-.241.142-.6879.172-.1261-.122.1311-.422.4119-.694.034-.17.191-.168,1.068-.405.513-.472.231-.06.229.033.349-.055.674.135.311.59.279.185.8771.734-.039-.21-.76-.997-.29-.248-.217-.492.074-.466.244-.312.867-.167.155-.181.016-.311-.133-.213-.319.012-.263-.132-.072-.336.105-.228.5-.417.273-.135.474-.146.823.33.063.172-.231.414.0231.232.202.025.47-.698.553-.097.229-.15.266-.095.379.632.1669.202.125.083.121.524.1171.028.1669-.262.3031-.139.4249-.091.7041.139.319-.103.156.015-.15-.471-.093-.137.145-.422.151-.165.486-.297.4639-.133.3031-.282.407-.261-.064-.208-.113-.242L18,53.6972l-.107-.132.334-.314.458-.35-.08-.138-.344-.156-.261.117-.388.271-.452.428.147.125.226.359-.315.476-1.672,1.259-.797.367-.368-.057-.088-.343-.169-.253-.182-.525-.31.014-.176.116-.076-.172.133-.562.262-.445.439-.337.211-.408.198-.649.635-.62.924-1.542.753-.495.276-.543.444-.24.379-.425.297-.042.54-.384.306-.458-.2-.028-.475.297-.269.12.019-.491.13-.505.391-.463,1.881-1.351.188.224.225.396.566-.0891.646-.767.497-.837-.269.146-.293.343-.571.475-.264.075-.151-.062-.084-.317-.198-.103-.179.071-.185-.226-.033-.559.236-.835.187-.554.202-.421.794-1.2.171-.658.359-.348.466.077.141-.101-.16-.434-.508-.344-.031-.217,1.693-.571.8061.019.239-.285.438-.184.3319-.35-.171-.155-.819.322-.512.151-.231-.005-.181.11-.654.042-.143-1.397.103-.763.244.016.056-.731.282-.433.389-.097.196-.185.283-.378.468.087.481-.084-.12-.179-.5969-.23-.147-.396.21-.222.229-.163.202-.029.399-.777.243-.333.271.058.378-.344.372.1171.359-.2251.491-.149,1.797-.057.053-.321-.378-.074-1.335-.083-.682.007-.287.083-.105-.112.019-.192.248-.305.117-.337.496-.826.581-.552.445.141.473.527.337.066.157.17.2459.724.117.023-.053-.695.3251-.568-.084-.157-.488.206-.374-.214-.295-.428-.084-.392.184-.388.173-.196-.117-.229-.738.611-.5219.143-.206-.085.111-.554-.062-.441.7-1.09.241-.126.393.088.355.308.297-.049.322-.165-.044-.296-.698-.118-.18-.246.065-.243.479-.256.477-.463.546-.135.4391-.351.085.08.074.138.158,1.298.393,1.052.145.038-.151-.894.141-.258.178-.196.056-.224-.204-.076-.167-.322-.2379-1.033.0819-.27.5171-.554.648-.127.69.388.2429.004.4-.104.679-.32.4-.122h.208l.051-.162-.1929-.104-.0621-.101-.151-.058-.628.173-1.7329-.055-.167-.185-.031-.321.184-.46.202-.255.654-.459.691-.062.729-.819.278-.616.158-.955.444-.776,1.114-.443.045-.196-.118-.407.01-.734.305-.859.203-.299.094-.036.24.282.292.5981.457.3419.599.0591.16-.168-.465-.34-.353-.446-.028-.449.167-.2381.26.026.326-.05.304-.3029.044-.213.013-.29.076-.295.446-.707,1.374-.461.1.188-.074,1.363-.158.876.005.638.268-.638.3579-1.757.27-.832.304-.479.217-.108.215-.249.284-.148.087.191.09.443-.153,1.546.015.486-.171.649-.6551,1.439.03.183.148-.068.253-.236.812-1.368.709.173.0089-.112-.228-.403-.277-.387-.084-.48.037-1.288.214-.513.612.054.367-.071.171.233.3671-.017.254-.93.503-.082.442.616.531.413.427.592.121-.162-.23-1.386-.252-.508-.547-.265-.583-.629-.151-.28.026-.208.5139-.201.678.231.604-.527.165.145.463-.276.288.372.177-.11.102-.499.739-.31.469.287.251.295.117.567.179,1.115.3661.599.228.293.269.081.13-.298-.252-.36-.068-.34.1209-.846.141-.333.7911-1.269.6619-.662.396-.056.694-1.493.196-.273.181-.063-.046-.368-.379-.233-.013-.4579.5-.558.607-.941.299-.063.188.2619.591.4251.362.485.262.244.17-.051.141-.364.17-.171.375.096.224.2339.175.031.1581.142.0369.3111-.325.339-.554.893-.546,1.01-.18.53-.177,1.383-.427.8789-.033.614.172.288L57.29,8.5l.581-.819.145-.8739,1.453-2.3911.682-1.334.774-1.113.434-.231.204.739-.164.96-.329.609.243.279-.046.72-.076.399-.048.4171.003.3659.228-.098.907-.752.23-.818.213-.6159.102-.5331.353-.507.666-.004.026-.2L63.063,2.002l-.095-.319.271-.426.745-.816.383.09.229.186.917.142.704.583-.027.909-.157.378-.154.232-.901.684-.148.337.283.116.608-.34.158.309-.1939.77L65.652,5.986l-.07.667v.606l.076.325.245-1.29.083-.333.358-.489.133-.989.35-1.195.395-.698.229-.191.76.027.326.263.288.583.215.233.678.247.232.309.043.184.1661.037.458-.439.297-.0729.484.684-.097.505.028.16.586-.032.488.198.927,1.028.097.478-.0461.578-1.338.6329-.578.604-.946.232-3.2119-.404.065.437,2.237.951.128.271-.0721.568-.0009.455.042.31.1649.288.273.135.557-.071.274.155.188-.229.07-.773.162-.171.312.225.136.826.087.085.157-.588.309.042.337-.049Zm-20.85-8.59-.055.268-.095.26-.23.274-.666,1.081-.391.173-.124.169-.156.101-.486-.147-.142.218-.134.146-.352.056L49.28,5.36l-.533-.398L48.43,4.53l-.172-.37.493.007.175-.09.331.078.1989-.381.42.046.807-.265.296.148.677-.889.212.023.324-.255Zm1.619,2.107-.535.336-.31-.289-.13-.297-.0189-.661.072-.404.251-.209.163.153.043.128.292.125.343.416Zm-1.128.152.052.394.02.324-.262.467-.604.611.035.164-.209.157-.313.115-.165-.111.022-.523-.05-.156-.237.208-.247-.267V6.182l.065-.233.229-.355.381-.245.251.092.838-.943.09.198ZM42.01,7.845l.143.097.142-.06.117.085.235.436.253.171.012.218-.231.212-.305.064-.327-.074-.096-.272-.101-.453-.273-.445-.041-.391.2379-.062ZM40.572,9.086l.249.447.2211-.043.0659-.168.15-.084.304.237-.0431.401-.421.505-.302.718-.386.166-.1859-.086-.346.413-.276.428-.287.54-.018.278-.045.212-1.0511.21-.382.139-.405-.179-.192-.356.062-.193.404-.077.013-.331.103-.202.131-.111.096-.424.16-.1109.298.104.2009-.308.113-.053.139.255.067-.351-.067-.321.035-.217.385-.565.167-.413.24-.267.231.042.067-.394L40,8.5231l.025-.264.204-.642.224-.027.103.571Zm4.277-.192-.151.191-.232.078-.125-.118-.178-.078-.198.035-.166-.351.019-.295.227-.4.455-.228.368.094.094.117ZM70.604,11.29l-.533.237-.062-.195.117-.304.14-.624.219.025.222.238.174.284ZM35.655,12.91l.337.459.151-.14.299-.053.222.162.182.291.215.013.135.38.069.493-.156.367-.222.167-.06.431.084.603-.498.206-.576.092-.226-.288-.46.526-.457.817-.22.096-.016-.258-.328-.179-.42-.01.014-.192.077-.135.362-.201.072-.416-.066-.744.0641-.363.0139-.25.2281-.294.78.138.095-.281-.0591-.177-.403-.31.062-.209.291-.187.2751-.025.083-.316.014-.139Zm-4.891,8.13.034.054.3821-.74.424-.231.026-.259.164-.25-.019-.41.083-.333.216-.089.135-.113.149-.063.271.271.152.3.19.668-.079.644-.509.501-.404.225-.409.572-.205.467-.177.101-.111-.038-.099-.112h-.207l-.228.404-.688.328-.27-.095-.012-.402-.1611.033-.2579.482-.2521.161-.169.049-.3109-.181-.836.818-.784.152-.258-.094-.001-.5.507-.642.415-.447,1.43-.313.891-1.336.215-1.463.21-.532-.099-.301-.239-.053-.015-.464.125-.508.467-.7.26-.299.423-.849.2039-.191h.232l.229.223-.041.455-.343.818-.508.694.062.497.202.407.05.694.013.666-.385.896Zm-1.553-2.955.365.784.167.457-.135.859-.355.432-.547.077-.384-.036-.242-.208-.03-.233-.14-.069-.369.3-.256.04-.326-.232-.088-.372.346-.467.16-.364.3829.032.0961.113.2169.071.1321-.439-.03-.304.097-.212.463.153.001-.83.18-.058.074.032.133.175Zm-3.744,5.209.167.129.4359-.038.0881.048-.063.213-.1891.234-.3969.144-.179.357-.128.121-.3431.001-.203.083-.249.316-.199-.233-.056.166-.036.296-.111.086-.344.107-.083-.689.158-.25.124-.3.19-.046.17.025.307-.648.42-.185.271-.021Zm-2.53,2.938-.415.393.151-.718.224-.73.31-.419.154.164-.071.351.001.346-.066.163ZM21.389,39.353l-.26.045.043-.305.21-.29.081-.198.042-.234.186-.177.262.227.005.384-.13.35Zm.252.973-.225.02.002-.281.129-.256.204-.171.263-.045.294-.02.089.136-.169.191Zm-1.52,1.881-.186.209-.347-.06-.037-.18.099-.36.211-.149.272.029.087.15Zm-2.067,5.092-.147.184-.327-.147-.645.114-.26-.179.207-.35.583-.368.313.017.319.452ZM10.306,55.04l-.322.015-.194-.142.461-.282.723-.27.069-.171.087-.021.125.21.016.288-.08.143ZM9.272,57.11l-.275.004-.327-.096-.205-.205-.032-.181.377-.225.379-.132.176.248.013.406ZM.449,70.66.2,70.733,0,70.67l.071-.554.104-.09.151-.032.163.297Zm.357,4.448.009.671-.258-.051-.116-.257-.034-.165.021-.389L.37,74.515l.076-.2.094-.027.167.358Z" fill="url(#radial-gradient)"/></g></g></svg>