<svg xmlns="http://www.w3.org/2000/svg" xmlns:xlink="http://www.w3.org/1999/xlink" width="22.761" height="12.784" viewBox="0 0 22.761 12.784"><defs><radialGradient id="radial-gradient" cx="11.3805" cy="6.392" r="9.2297" gradientUnits="userSpaceOnUse"><stop offset="0" stop-color="#ffd496"/><stop offset="1" stop-color="#f29d25"/></radialGradient></defs><title>NP</title><g id="Layer_2" data-name="Layer 2"><g id="Layer_1-2" data-name="Layer 1"><path id="NP" d="M22.616,8.047l.113.086.012.141-.021.156-.116.337-.106.236-.123.499-.111.863.024.151.331.493.129.38.013.257-.141.433-.159.487-.078.11-.09.039-.409-.17-.281.024-.3239.094-.3381-.019-.28-.056-.353.196-.339-.106-.217-.121-.144-.339-.061-.043-.713.354-.171.022-.443-.19-.362-.189-.136-.056-.35-.074-.314-.043-.343-.117-.426.154-.172-.013-.16-.111-.084-.227-.0209-.216-.1451-.148-.223-.034-.315.133-.459.176-.148-.03-.136-.05-.05-.047-.063-.203-.0729-.045-.1071-.007-.188-.049-.234-.151-.706-.357-.089-.159.003-.352-.039-.145-.086-.153-.363-.156-.7039-.25-.39-.2-.186.094-.358.083-.192.181-.23-.058-.547-.19L9.53,9.324l-.177.065-.041.108-.224.124-.213-.099L8.454,9.39l-.368-.073-.559-.162-.064-.244-.094-.242-.132-.043-.501.048-.46-.267-.493-.343-.21-.112-.139-.041-.119.045-.136.079-.1239.023L4.787,7.91,4.446,7.7l-.42-.259L3.534,7.08l-.202-.205-.091-.153-.105-.145L2.708,6.34,2.37,6.153l-.408-.226-.068-.045L1.74,5.747l-.237-.169-.1941-.05-.062.094L1.2,5.72l-.169-.023L.767,5.524.491,5.343.276,5.175.054,5.002,0,4.874l.093-.395L.222,4.14l.109-.076.178-.225.065-.395L.571,3.106l.173-.477.24-.508.413-.545.178-.181.201-.124L2.157.868,2.236.802,2.403.698,2.567.672l.124.05.1271.211.1539.201.187-.01L3.3781.952,3.832.162,4.463,0l.598.082L5.59.197l.156.264L5.848.74l.066.141.174.166.746.394.433.355.599.476.448.209.397.018.224.186.337.371.285.425.355.393.246-.013.335-.127.409-.167.241.082.223.109.074.203.135.384.148.398.234.139.278.204.153.162.52.298.073.121.105.082.127.052.1051.061.1639.021.6-.178.16.022.092.033.003.065-.108.278-.092.356.095.178.252.074.556.053.751-.005.229.18.226.27.229.461.091.195.113.056.195-.077.033-.189.008-.282.164-.097.105.072.122.22.31.198.225.097.2141-.034.09-.076.105-.385.169-.056.213.025.0821.077.0859.154.259.073.257.096.241.126.341.285.419.053.487-.007.256.007.188.021.1691-.02.4989-.204.204-.015.253.023Z" fill="url(#radial-gradient)"/></g></g></svg>