<svg xmlns="http://www.w3.org/2000/svg" xmlns:xlink="http://www.w3.org/1999/xlink" width="50.483" height="70.782" viewBox="0 0 50.483 70.782"><defs><radialGradient id="radial-gradient" cx="25.2415" cy="35.391" r="30.7381" gradientUnits="userSpaceOnUse"><stop offset="0" stop-color="#ffd496"/><stop offset="1" stop-color="#f29d25"/></radialGradient></defs><title>NZ</title><g id="Layer_2" data-name="Layer 2"><g id="Layer_1-2" data-name="Layer 1"><path id="NZ" d="M50.3279,33.617l-.101.101-.172-.005-.301.395.019-.295-.09-.1149-.258.0269-.049.065.1729.078.0381.0431-.165.171.172.367.15-.013.146.287-.001.09-.334.111-.176.1551-.157-.006-.074-.03-.088-.277-.007-.1161.193-.203.109-.2069-.088-.19-.223-.123-.486.056-.112-.041.2429-.256.264.028.284-.184Zm.0031,2.262-.124.034.018-.223-.042-.144.21-.047.09.171ZM20.712,1.7191l.042.156.155-.1111.116-.1749.187-.178-.025.287.096.0629.62.2.128.167.132.0479.074-.094.088-.051.224.105.506.292.042.101-.026.15.025.159.069.127.168.029.224-.188.105-.023.148.267.056.151-.023-.005.097.15.128.148.221.439-.033.154-.065.139.203.407-.133.028-.399-.069.013.082.233.299.196.423.1569.255.5541.793-.0831.282.013.187-.0709.161.189.422-.118.131-.078.433-.086.0759.011.1581.224.042.135.067.116.129.0721-.155.098-.042.267.207.556.2069.153.077.0751.167.057.404.1079.178.213.034.2291-.054.072-.147-.046-.396-.165-.632-.001-.205.023-.206-.038-.204-.083-.192-.089-.147-.114-.124.04-.193.171-.087.104.1631.085.197.431.584.255-.0411.023.2421.173.2459.096.289.126.865.193.817.35.3561.041.171-.213-.088-.065.051.0219.086.1971.157.232.077.146-.011.137.057.907.534.4359.208,1.1.341.314.027.1741-.009.3289-.118.295-.2119.255-.317.22-.3611.239-.175.271-.138.137-.1279.144-.0911.737.042.249.182.323.146.169.1141-.057.232-.193.3419-.148.375-.132.854-.089.8661-.134.383-.244.2949-.27.216-.305.102-.124.495-.061.581.018.146.098.116.04.173-.16.35-.093-.051-.132-.292-.119-.122-.366-.091-.373-.042-.323.026-.312.125-.471.253-.146.128-.128.163-.216.364-.052.446.01.234.077.181.401.247-.398.864-.353.902-.2.258-.23.239-.217.545-.379.47-.256.36-.2.374-.175.398-.373.563-.165.373-.216.3109-.402.397-.4279.341-.6741.472-.1879.156-.198.115-.246-.135-.049-.147-.0592-.323-.054-.118-.313-.098-.415.156-.069-.033-.018-.074v-.469l.07-.132-.097-.073-.096.029-.033.12.061.104-.236.129-.246.003-.074-.051-.021-.086.06-.142.079-.125.457-.59.4749-.7811.409-.8339.1061-.428.15-.792-.123-.33-.152-.309-.411-.594-.549-.3351-.355-.047-.336-.125-.316-.283-.288-.333-.571-.273-.602-.214-.343-.302-.0819-.179-.0541-.208.008-.193.0431-.196.068-.15.1069-.109.6371-.389.675-.216.124.004.119-.0349.169-.1321.302-.302.088-.203.06-.644.097-.632.175-.723.264-.447.086-.274-.107-.451.099-.165.12-.1.136-.058-.23-.422-.271-.6371-.057-.197.041-.195.066-.191L24.75,9.991l-.0981-.183-.2429-.615.0659-.098.141.0659.209.443.034-.228.16-.141.17-.073.182-.016-.412-.494-.138.02-.182.079-.187.048-.183-.043-.171-.109L24.01,8.4388,23.903,8.04l-.0671-.147-.542-.813.159-.026.438.407.0851-.13.0629-.187-.021-.208-.104-.1581-.155-.102-.003-.185.118-.169-.007-.1179-.251-.2411-.1-.026-.045.112.0721.167-.067.019-.6091-.438-.1879-.352-.154-.386-.016.157.023.221.241.443.391.496.067.132-.058.171-.136.049-.12-.1079-.1791-.425-.129-.212-1.495-2.184.191-.287.296-.242.068-.107.045-.131-.125-.022-.112.06-.128.1111-.117.1259-.148.2811-.07.065-.175-.1951-.067-.12.003-.144-.047-.091-.13-.029-.191-.286-.121-.146.202-.279.005-.367-.206-.384-.2459-.353L19.5671.69l-.435-.601.471-.076L20.0811,0l-.225.36.102.208.152.176.328.54.028.156.166.158ZM27.092,6.34l.022.1891-.2151-.0671-.084-.143-.241-.148-.035-.044L26.512,5.84l.127-.139.021-.059.056-.023.099.151.191.215ZM20.279,24.28l.323.018.301-.2719.308-.221.323-.183.492-.419.129-.062.319-.08.139-.099.155-.023-.14.248-.176.083-.028.089.0989.144-.153.201.006.251-.182.297.278-.1221.1031-.1929-.053-.1091.12-.216.187-.103-.074-.163.005-.129.229.0479.113-.005.09-.051.165-.02.033.144.222-.018-.081.182-.169.211-.04.128-.271.213-.181.091.279.023.408-.285.242-.251-.007.3141-.197.2819-.1681.178-.19.056-.189.1451-.092.237.011.158.054.125.193.211-.217.408.2421-.051.132.077.1859.235-.112.272-.078.1389-.4719.5751-.206.2919-.2411.1871.003.307-.138.224-.704.7689-.1229.167-.555,1.229-.354.518-.203.177-.2151.1431-.515.2449-.228.282-.251.234-.265.053.008.104.17.058.133.154-.099.173-.189.1079-.196.031-.1.1111.468-.079.132.09.024.191.05.172.113.228.394.146.354.068.0689.106.053.365-.064.179-.079.118-.119.042-.288.023-.289-.083-.191-.221-.547.071-.146.047-.075-.04.303-.232-.1581-.132-.132-.049-.143.077-.096.122-.028.2-.099.1161-.15.033-.213-.167-.211-.238-.31-.24.0479.148.238.363.119.241-.277.193-.29.15-.244.088-.23.138-.271.215-.149.076-.396.005-.212.068-.07.284-.148.181-.348.036.126.057.077.091-.23.858-.05.357-.043.612-.145.57-.4131-.003.066.101.313.161-.059.243-.344.445-.144.257-.14.626-.21.579-.321.66-.003.119.113.169.137.146.008.206-.042.109-.153.028-.134.071-.716.182-.234.204-.193.366-.226.316-.752.702-.442.59-.089.169-.119.123-.967.28-.684.042-.3721-.0721-.359-.142-.1989-.048-.38.087-.1661.095-.2979-.094-.2361.071-.07-.069-.088-.173.049-.23-.065-.17-.15-.115-.101-.134L6.4555,44l-.314-.037-.496.06-.164-.0059-.337-.563-.111-.138-.401-.1791-.137.0251-.215.3-.1271.051-.754.032-.756-.097-.278-.112-.055-.259.574-.711-.17.095-.354.289-.226-.044.217-.315.019-.141-.045-.156-.295.265-.336.035-.043-.246.03-.285.068-.081.907-.149.327-.0969.143-.1531-.543-.052-.034-.214.078-.171.464-.284-.342.0721-.379-.0251.025-.3.099-.234.397-.007-.1241-.161-.0189-.224.11-.015.4031.302.291.11-.123-.227.017-.143.077-.064.238-.045-.066-.04-.223-.058-.266-.172-.028-.182.01-.21.286-.289.169.172.2-.047L3.69,38.74l-.093-.2021.063-.1329.607-.535.155.515.036-.171.009-.162-.073-.141.011-.142.07-.122.26-.121.338-.392.25-.1821.203.1171.139.1569-.021-.156-.099-.129-.027-.359.454-.556.499-.5281.479-.552.255-.2.5431-.227.348.095.089-.018.516-.396.214-.103.195.141.12.051-.121-.362.095-.166.431-.292.54-.301.41-.125.3021-.204.182-.005-.027-.154.031-.147.156.01.048-.058-.138-.08.445-.294.242-.325.126-.067.1149-.098.1421-.224.168-.074.156.035.113.11-.062-.183-.2-.104.215-.1581.2235-.11.217.079.213.128-.213-.196-.035-.121.259-.14.14-.043.196.262-.028-.208.046-.184.277-.301.3629-.496.1161.173.0189.209-.018.2529.0751-.0869.025-.229-.0561-.4031.454-.7429.09-.083.1-.05.158-.02-.049-.112-.1229-.108.124-.376.0739-.429.105-.412.169-.402.185-.67.141-.14.381-.0479.167-.094.278-.2411.329-.4359.176-.3511.231-.905.13-.943.3741-.697.549-.503.4829-.382.198-.08.334-.024.318.105-.592.0919-.0609.227-.019.23.068.206.106.184.287.173.336.103.15.39.027.4631.046.398Zm2.243-1.541-.376.215.016-.1489.073-.3251.171-.164.084-.0109.172-.123-.019.2719ZM3.058,39.258l.121.477-.2571-.091-.107-.145.196-.2391Zm-.654,1.898-.015.197-.033.099-.0981.001-.146-.022-.143-.091-.0919.026-.076-.033.099-.222.333-.118.128.095Zm3.925,4.881.002.1631-.293-.058.0059.183.2311.097.085.132.24-.038.054.197-.056.177-.16.129-.474.065-.308.257-.266-.039-.072.023-.305.276-.341.0851-.093-.021.047-.246.254-.233.005-.224.065-.179.243-.126.004-.232.164-.2069-.1-.445.053-.399.482-.022ZM.93,62.618l.061.373-.154.001-.321-.104-.101-.159L.347,62.69l-.117.185-.188.009L0,62.822l.074-.1971.443-.372.083-.467-.006-.15.348-.0349.082.057.037.064-.022.082-.141.1539-.005.178.036.186-.115.09.06.16Zm8.2989,7.828.1551.2341-.298.1019-.145-.085-.102-.107-.051-.151.161.016.139-.063Z" fill="url(#radial-gradient)"/></g></g></svg>