<svg xmlns="http://www.w3.org/2000/svg" xmlns:xlink="http://www.w3.org/1999/xlink" width="22.061" height="29.159" viewBox="0 0 22.061 29.159"><defs><radialGradient id="radial-gradient" cx="11.0305" cy="14.5795" r="12.9274" gradientUnits="userSpaceOnUse"><stop offset="0" stop-color="#ffd496"/><stop offset="1" stop-color="#f29d25"/></radialGradient></defs><title>OM</title><g id="Layer_2" data-name="Layer 2"><g id="Layer_1-2" data-name="Layer 1"><path id="OM" d="M12.1243,2.192l-.055.071-.081.007-.186-.061-.109-.141.021-.172.006-.318.053-.3L11.7582.96,11.6143.896l-.1011.018.235-.449.093-.069.087.029.217-.048.114-.244L12.35,0l.097.016.047.075L12.46.462l-.004.309-.12.944-.124.163-.063.132Zm-.046,1.2829-.116.0831-.083-.0141.017-.165.05-.115.12.009.029.069ZM3.1093,29.159l-.17-.384-.17-.384-.171-.384-.17-.3851-.119-.27-.2-.095-.122-.285-.124-.292-.124-.292-.1241-.292-.124-.292-.125-.293-.124-.293-.124-.293-.1241-.293-.125-.293-.124-.293-.124-.294-.124-.294L.373,23.164.248,22.87l-.124-.294L0,22.282l.396-.1391.482-.169.483-.169.482-.169.4829-.169.482-.169.482-.17.483-.169.482-.169.483-.17.4819-.17.482-.169.483-.17.482-.17.482-.17.483-.17.482-.17.299-.105.124-.396.103-.329.1031-.329.103-.33.104-.33.103-.33.103-.33.1031-.331.104-.331.103-.331.103-.331.1031-.332.103-.332.104-.332.103-.332.103-.333.1031-.333.0949-.305-.1779-.294-.238-.396-.25-.414-.234-.39-.171-.284-.206-.343.0219-.441-.005-.221.021-.339.197-.471.233-.6.17-.399.147-.348.118-.279.065-.288-.035-.203-.077-.074-.065-.096.223-.154.418-.1.231.021.322-.074.256-.067.02-.09-.0721-.152-.106-.222-.361-.023-.109-.062.126-.328-.005-.104-.048-.123-.053-.206.026-.266.074-.181.001-.146-.035-.3.011-.267.076-.133.135-.124.127-.063.132.004.105.053.045.14-.0281.097-.075.013-.026.041.107.187.1551.183.12-.031.1339-.144.1421-.116.177-.103.129-.199.11-.129.098-.018.286.808.424.755.374.416.389.564.591.518.271.177,1.099.363.601.136.828.13.573.282.192.018.3-.084.219.007.548.384.161.364.228.192.201.302.131.316.463.481.326.541.332.4.297.2489.45.098.358.112.04.267-.037.348-.0679.257-.334.5-.08.308-.378.508-.41.851-.188.19-.661.438-.486.527-.576.914-.438.904-.168.289-.3531.06-.231-.025-.16-.085.063-.247.0381-.275-.2131.029-.187.057-.437.675-.24.296-.051.375-.116.484-.171.445-.076.374.003.212.1279.517.009.529.074.317.06.38-.205.117-.1761.058-.6959.042-.7051.122-.616.22-.368.219-.479.489-.293,1.2391-.469.522-.318.109-.765.046-1.077.144-.378.125-.628.754-.049.237.121.171.04.189-.057.177-.2849.4769-.308.3461-.82.217-.3011-.129-.275-.065-.532-.007-.866.082-.319.256-.503.181-.4639.279-.876.106Zm15.818-10.5-.177.045-.051-.021.001-.376.4119-.474.271-.548.1871.49-.3251.274-.176.4679Z" fill="url(#radial-gradient)"/></g></g></svg>