<svg xmlns="http://www.w3.org/2000/svg" xmlns:xlink="http://www.w3.org/1999/xlink" width="16.362" height="6.698" viewBox="0 0 16.362 6.698"><defs><radialGradient id="radial-gradient" cx="8.181" cy="3.349" r="6.2508" gradientUnits="userSpaceOnUse"><stop offset="0" stop-color="#ffd496"/><stop offset="1" stop-color="#f29d25"/></radialGradient></defs><title>PA</title><g id="Layer_2" data-name="Layer 2"><g id="Layer_1-2" data-name="Layer 1"><path id="PA" d="M15.862,2.6471l-.053.039-.155.222-.0841.19.2.201.06.213.113.231.176.232.198.431.045.173-.056.112-.188.069-.176.201-.048.246.034.122-.526.393-.136.065-.09-.06-.112-.197-.134-.159-.072-.056-.042-.002-.042.037-.02.086.07.369-.058.149-.179.115-.205.6-.08-.076-.675-.808-.584-1.001-.122-.4541.151-.027.146.01.079-.07.091-.1319-.074-.3071.284-.233.1069-.157.0791.018.186.268.27.1531.3309.2229.205.051-.259-.234-.448-.308-.125-.202-.118-.281-.175.122-.081.103-.091.058-.079-.07-.014-.091-.264-.018-.068-.083-.07-.046.032.176.052.108-.028.131-.086.009-.073-.135-.094-.123-.125-.512-.3-.2409-.138-.081-.113-.03-.167-.164-.22-.087-.3-.2551-.368-.183-.45-.064-.547.04-.184.102-.125.129-.058.06-.323.147-.122.213-.077.18-.161.204.184.123L8.14,3.517l-.208.101-.473.0711-.109.074L7.206,3.9l-.02.208.022.177.137.137.123.086.293.4119.521.52.099.189.081.281-.157.132-.122.056-.496.022-.171.112-.069.171-.185.14-.639.139-.502.016-.156-.16-.038-.451-.338-.77-.081-.531-.084.0661-.179.062-.061.132-.045.3909-.066.134-.138-.013-.284-.14-.378-.129L3.792,4.46,3.74,4.304l-.094-.187-.372-.079-.317-.14-.346-.021-.177.079-.181-.1-.031-.228-.363.102-.466-.036L.976,3.597l-.285.052-.239.162.033.413-.07.082L.404,4.137.321,3.943l-.1-.161-.21-.167L0,3.554.083,3.47l.381-.242.047-.101.006-.21L.48,2.7159.308,2.42l.098-.1831L.603,2.09l.202-.116.034-.049-.037-.101-.118-.109L.408,1.53l-.166-.012L.235.9849.243.4189.285.3629.386.3289.467.2429.512.0749l.121-.06.218.129.223.114L1.166.22l.069-.056.049-.055L1.3.0569l.178.151L1.841.476l.021.131L1.828.733l.1.362.188.052.19-.07.047.067-.035.0669-.098.075-.024.3111.311.1449.156.1271.516-.06.19.034.13-.037-.144-.25-.193-.185.016-.083.146.062.112.126.254.156.467.542.536.131.424-.017.395-.073.629-.21.456-.38.363-.169,1.178-.361L8.556.717,8.733.668,8.901.621l.37-.286L9.47.112,9.68,0l.623.081.404.105.279-.014.268.075.117.162.122.069L12.152.46l.54.08,1.183.48.708.475.375.504ZM2.224.6071l-.031.132L1.976.5021l.129-.039.046.005Zm9.36,3.122-.056.119-.131-.266.021-.068-.009-.24.125-.0629.092-.0051.076.034.048.283-.04.128Zm-.469.057-.126.125-.048-.118.088-.123.031-.001ZM3.993,6.3791l-.154.015-.314-.121-.23-.233-.019-.075.005-.078.125-.238.168-.082.066.001.161.275-.109.106.044.17.228.126Z" fill="url(#radial-gradient)"/></g></g></svg>