<svg xmlns="http://www.w3.org/2000/svg" xmlns:xlink="http://www.w3.org/1999/xlink" width="35.507" height="51.934" viewBox="0 0 35.507 51.934"><defs><radialGradient id="radial-gradient" cx="17.7535" cy="25.967" r="22.2427" gradientUnits="userSpaceOnUse"><stop offset="0" stop-color="#ffd496"/><stop offset="1" stop-color="#f29d25"/></radialGradient></defs><title>PE</title><g id="Layer_2" data-name="Layer 2"><g id="Layer_1-2" data-name="Layer 1"><path id="PE" d="M31.912,11.703l-.017.182-.09.073-.138.016-.212-.13-.155.033-.155.008-.218-.151-.075-.149-.171-.122-.354.049-.292.003-.244-.028-.219.041-.186.157-.139.184-.163.154-.479.103-.255.003-.229.101-.341.037-.233.09-.413.049-.495.047-.276.137-.11.06-.281.189-.489.298-.27.104-.326.323-.391.303-.254.161-.373.074-.155.082-.057.097.033.114-.064.292-.114.539-.031.265-.028.126-.247.434-.266.403-.131.267-.073.196.082.162.108.293.091.234.026.159-.032.182-.112.167-.177.109-.238.03-.49.293-.546.434-.179.202-.051.191-.079.298.033.155.097.106.098.253.008.131-.081.073-.155.016L21,20.43l-.106.065-.106-.016-.097.032v.107l.032.122-.016.131-.065.081-.057.057.057.082.097.074.147.122.204.237.155.041.13.082.016.13-.049.131-.114.057-.008.115.155.139.106.098.106.147.098.205v.13l.106.164.065.139v.131l.171.13.147.099.105.09.106.057.025.098-.014.149.152.246.279.184.226.267.146.194.271.312.01.358-.335.411-.336.412.549-.011.56.008.586.118.395.113.241.051.171.132.081.205.065.168.017.242.244.197-.017.188-.007.265.108.004.717.001.784.001.754-.049.285-.064.344-.322.207-.095.199-.15.242-.274.192-.123.162-.152.241-.152.1-.112.082-.041.187-.074-.081.148-.063.151-.019.218.089.238-.074.178-.121.159-.002.419-.002.594-.003.509-.003.638-.003.723-.002.481.128-.095.178-.085.231.221.165.096.141.023.145-.007.197-.047.432-.185.296-.149.339.01.465.058.268-.006.351.616.257.452.293.515.235.415.358.63.309.545.33.581.375.661-.121.168-.098.134.011.227-.148.121-.157.073-.185.192-.126.165-.006.237.024,1.202-.031.327-.096.281-.099.142-.06.112.143.279.137.562.104.112.128.229.058.217-.026.083-.257.103-.092.088-.024.323-.111.116-.188.152-.121.174-.102.121-.1.07-.049.213-.067.216-.234.143-.04.265-.003.219.124.219.403.461.041.11-.23.278-.133.193-.328.59-.006.108.081.279.489,1.196.083.097.151.114.247-.013.373.129.181.148.017.073-.042.049-.197.099-.219.13-.076.123-.015.195.05.289-.095.094-.219.112-.189.162-.189.269-.321.41-.111.112-.048.142-.183.047-.341.279-.058.141.055.134.175.113.117.163.031.209v.134l-.212.196-.276.225-.34.044-.129.113.029.239.11.337-.001.264-.104.302-.243.331-.372.228-.351.122-.276.001-.267.024-.114.035-.206-.2-.915-.661-.348-.353-.323-.165-.787-.566-.078-.181-.097-.581-.102-.163-.271-.21-.679-.279-.264-.139-.276-.254-.406-.18-.442-.369-.263-.294-.295-.195-.916-.272-.459-.273-.859-.385-.383-.245-.919-.298-.273-.142-.904-.697-.634-.228-.511-.391-1.542-.831-.242-.266-.236-.41-.342-.244-.385-.561-.572-.33-.551-.437-.203-.397-.366-.505-.108-.269-.32-.27-.022-.531-.223-.244.16-.121.169-.053.211-.825-.111-.413-.572-.749-.21-.359-.149-.46-.229-.273-.34-.575-.208-.509-.454-.369-.124-.133-.069-.188-.253-.133-.013-.39-.176-.74-.252-.373-.907-.696-.015-.268-.072-.487-.202-.527L9.096,28.643l-.253-.486-.252-.789-.227-.447-.25-.796-.377-.605-.238-.524-.252-.651-.022-.348-.458-.598-.243-.548-.427-.459-.417-.349-.181-.247-.594-1.172-.081-.347-.404-.644-.401-.462-.253-.373-.324-.335L1.474,17.432l-.693-.428L.547,16.8l-.108-.321.045-.188.203-.176.281.136.172-.057.134-.229.003-.347-.172-.447-.631-.863.048-.183.119-.207-.243-.415L.133,13.17,0,12.915l.15-.971.144-.246.954-.985.262-.421.41-.26.418-.397.503-.302.073.052.07.051.004.102.019.088.056.083.005.152.065.102.004.115.005.157-.033.079.032.136.108.252-.042.078-.102.051-.102.07-.102.157-.154-.005-.222-.069-.149.087-.055.167.046.139.014.129.097.111.283.009-.255.356-.125.162.027.102.153.087.114.006.253-.13.172-.19.097-.106.163-.042.213.088.283.176.33.155.135.085.242-.024.203-.036.171.128.173.108.04.367.129.268.158.206.192.246.177.083.228.002.31.091.121-.06.106-.172.056-.097.158-.042.014-.11-.033-.135.052-.157.129-.139.332-.202.16-.085.033-.124.06-.167-.023-.092-.067-.115.016-.163.088-.217.125-.254.108-.324.041-.152.116-.097.044-.14.063-.165.143-.185-.004-.199.06-.088.005-.222.143-.456.005-.095.063-.025.109.029.094.104.029.102.039.046.089-.009.102-.058-.007-.092-.074-.09-.021-.054.032-.085.155-.185.169-.215.363-.447.219-.182.565-.193.429-.147.41-.14.558-.201.788-.284.565-.204.505-.364.391-.282.334-.243.424-.31.574-.668.396-.461.288-.337.2-.213.159-.599.182-.683.08-.304.035-.106.078.045.09.074.109.003.103-.003.065-.042-.096-.682.014-.149.054-.178-.011-.096-.174-.136-.279-.273L16.476.78l-.07-.204L16.211.441,16.01.323l.017-.097h.119l.302.095.218-.03L16.828.28l.158-.1L17.154,0h.113l.129.024.235.185.139.109.168.09.158.032.144.01.101-.008L18.4.565l.07.151.179.102.212.097.171.167.116.112.137.132.133.176.12.309.061.21.069.116-.016.118.142.215.105.119.184.076.355.086.19.194.168.075.178.2.158.059.2-.011.2.097.152.189.098.237.152.134.075.243-.086.285.081.151.157.124.255.129.233-.032.119.043.076.118.043.141.102.342.053.217-.095.21-.035.146.052.194.242.095.22.077.136.151.152.041.213-.009.272-.037.152-.087.097-.026.109.038.242.083.294.094.267-.054.231-.025.229-.055.232-.157.196.006.145-.106.183-.17.181-.171.141-.038.228.082.314.118.178.153.136.04.142.113.272.002.291-.061.233-.188.241-.055.165-.053.152.032.587.345.161.178.202.035.166.097.277.105.152.108.194.065.142.15.223.093.194.051.087.122v.081l-.026.054-.205.318-.402.623-.362.561-.569.884-.317.494.081.021.495.216.123.008.181-.055.118-.086.111-.012.116.083.163.107.117.315.087.154.204.117.218.195Z" fill="url(#radial-gradient)"/></g></g></svg>