<svg xmlns="http://www.w3.org/2000/svg" xmlns:xlink="http://www.w3.org/1999/xlink" width="42.71" height="34.967" viewBox="0 0 42.71 34.967"><defs><radialGradient id="radial-gradient" cx="21.355" cy="17.4835" r="19.5155" gradientUnits="userSpaceOnUse"><stop offset="0" stop-color="#ffd496"/><stop offset="1" stop-color="#f29d25"/></radialGradient></defs><title>PF</title><g id="Layer_2" data-name="Layer 2"><g id="Layer_1-2" data-name="Layer 1"><path id="PF" d="M32.105.363,31.83.429,31.699.417,31.6.187l.036-.142L31.68,0l.468.056.04.104-.007.099Zm1.45.084-.182.022-.03-.14.056-.074L33.477.22l.139.043.073.061-.004.052ZM32.097,1.819l-.061.052-.114-.169-.018-.071.206-.088.112.046Zm2.951.761.42.147.132-.016-.134.145-.419.079-.139.07-.169-.045-.091-.168Zm-.1.669-.208.221V3.235l.075-.031h.068Zm1.147,1.654-.103.048-.007-.303.133.058.052.049-.022.083ZM18.133,20.206l-.018.131-.053-.126-.173-.202-.064-.09.077.014Zm7.127.697-.05.031.064-.23.072-.029Zm-8.349.678.013.05-.058-.003-.104-.147-.037-.127-.066-.145-.091-.105-.01-.097-.003-.153.103.234.098.188.071.154ZM.128,22.535l-.051.022-.054-.053L0,22.423l.019-.131.136.086.054.058Zm22.159-.067-.111.017-.271-.173h.104l.155.108Zm.366-.043.153.143-.203-.098-.258-.042.098-.026.143.004ZM.288,23.176l-.111.004-.101-.045.025-.3.027-.062.156.101.131.262Zm4.48,1.949-.088.076-.117-.054-.052-.073-.019-.078.027-.093.262.013.074.041Zm1.38.424.404.136.075.221-.086.1469-.204-.036-.101-.081-.142-.2639-.395.06-.273-.052-.151-.344-.006-.156.066-.095.29-.104.362.076.138.195Zm23.89.488.014.056-.102-.007-.03-.019.002-.104.074-.1259.058-.1061.118-.099.211-.0989.102-.042.033.0229-.039.015-.349.208-.109.146-.048.102.009.032Zm-.058.976.02.081-.105-.054-.099-.149-.177-.185-.042-.076.136.0721.089.1079Zm10.828.449.001.055-.27-.281.106.022Zm-10.422.111.038.107-.068-.05-.217-.104-.024-.0869Zm12.324.484-.057.0641-.005-.062-.079-.03-.109-.063-.148-.072-.08-.012-.04-.042.056-.022.091.033.128.066.148.066Zm-6.207,6.854-.082.056.03-.076-.063-.166-.062-.024.062-.047.088.125Z" fill="url(#radial-gradient)"/></g></g></svg>