<svg xmlns="http://www.w3.org/2000/svg" xmlns:xlink="http://www.w3.org/1999/xlink" width="42.3641" height="28.877" viewBox="0 0 42.3641 28.877"><defs><radialGradient id="radial-gradient" cx="21.182" cy="14.4385" r="18.1266" gradientUnits="userSpaceOnUse"><stop offset="0" stop-color="#ffd496"/><stop offset="1" stop-color="#f29d25"/></radialGradient></defs><title>PG</title><g id="Layer_2" data-name="Layer 2"><g id="Layer_1-2" data-name="Layer 1"><path id="PG" d="M35.5681,28.437l.4689.149.159.165-.169.075-.41.051-.096-.101-.394-.102-.063-.184-.196.063.1-.129-.247-.146-.0771-.195-.01-.079.29.091Zm2.09-.326-.041.155-.1031-.052-.305.08-.16-.018-.092-.139-.022-.064.265.05-.044-.154.382.079Zm-9.492-2.261-.04.222-.23-.066-.047-.048.038-.14.204-.006Zm.511-1.545h.119l.199-.211.1729-.064.113.096-.184.674-.155-.102-.607-.188-.019-.267-.158-.086-.0981-.26-.201-.288-.038-.185.114.076.128.188.531.386-.021.125ZM27.1261,22.4l.396.231.217-.067.118.038.254.268.014.196.041.168-.013.074-.141.1.013-.114-.108-.022-.369.005-.286-.071-.394-.019.166-.178.037-.073-.207-.286-.0089-.136.017-.075.173-.041Zm-.513.416-.039.07-.164-.051-.458-.391.071-.29.206-.15.313.164.104.24.031.134Zm6.415-1.51.163.042.339-.021.112.162.155.056.134.073.119.106-.001.065-.028.056-.072.051.021.114-.124-.017-.154.06-.304-.133-.11-.03-.033-.114-.1971-.191-.3449-.137.174-.112Zm-25.373-.919.051.124-.408-.169-.39-.283-.197-.077-.1321-.187.242.139.422.13Zm21.095.282.0479.202-.219-.216.0981-.244.017-.132-.011-.074-.219-.126.116-.206.123-.07.0771-.02-.0041.291.063.13Zm-21.105-.71-.122.009-.495-.191-.126-.139.579.031.149.035.031.195Zm12.458-7.462-.113.021-.049-.127-.263-.11-.262-.342.004-.293.034-.084.146-.004.584.338.061.108-.0441.321Zm22.261,2.413-.068.263-.052.045-.064-.099-.2441.096-.116.109-.124.08-.286-.02-.271-.072-.263-.133-.233-.1709-.234-.2691-.146-.278.072-.323-.091-.292-.442-.207-.097-.0669-.196-.29-.195-.126-.249-.254-.063-.11-.106-.322-.034-.194.09-.565-.033-.2821.121.0271.129.1109.146.077.355.052.271.2251.261.4389.031.1441.083.104.268.187.14.12.265.479.146.102.174.0409.161.069.269.21.248.238.167.25.128.2681Zm-24.645-3.518-.157.016-.256-.266-.065-.099.025-.139.326-.186.211.17.044.364Zm20.967.002-.056.022-.122-.354-.021-.262-.037-.193-.0641-.115.1841-.212.076-.059.1389.112.021.249.106.211-.0809.461ZM14.472,9.417l-.1879.083-.1351-.063-.0579-.184.046-.177.165-.14.104-.042.117.095.045.188ZM31.02,8.216l.146.056.42-.292.2249.204.287.099.298.056-.118.42.035.194.077.193-.01.285-.137.254-.263.371-.118.068-.138.04-.43.03-.083.197.028.209.232.274.186.308-.185.283-.305.198-.289.101-.479-.06-.505.025-.095.108-.002.179-.071.136-.092.124-.2559.257-.287.227-.391.215-.131.051-.347.034-.311.124-.1389.121-.151.098-.33.1069-.3209.2121-.1271.036-.667.037-.9539.01-.282.022-.274-.029-.151-.083-.324-.381-.282-.1311-.3079.004-.41.135-.077-.03-.818-.563-.248-.138-.265-.102-.323-.072-.305-.113-.18-.268.021-.349.245-.205.373.101.143-.001.14-.058.165.019.166.051.605-.076.35.106.341.142.318.03.3271-.03.4379-.16.139.021.422.001.369-.214.138-.863.094-.294.126-.064.09.018.135.147-.1729.183-.076.141-.025.344.0949.334.216.265.324.034.297-.175.323-.037.298.17.306-.029.14-.111.163-.048.162-.018.147-.066.195-.2891.13-.325.194-.256.529-.427.153-.053.165-.029.372.019.277-.152.0209-.342-.04-.347-.316-.815-.021-.129.045-.145.092-.13.3109-.002.324.047.128.123Zm4.893-.552-.025.066-.165-.076.136-.143.065-.01Zm-2.774-2.698-.068.245-.172-.144-.117-.207.074-.092.193-.055Zm-1.604-.519-.03.141-.088-.008-.2411-.276-.047-.072.057-.069.28.203Zm-.398-.328H31.07l-.01-.223.046-.117.156.082.026.199ZM9.1471,6.87l.354.008.355-.043.146.019.144.044.1309.084.066.161.221.224.312.101.297.2031.2671.242.1959.2439.2231.206.3369.087.355.0141,1.214,1.225.059.189.014.8039-.134.628.302.193.412.072.578.134.5561.2,1.771.848.2429.072.357.028.36-.012.129.043.27.154.135.101.242.274.216.298.093.085.109.066.063.162.084.5-.025.312-.099.116-.2831.056-.992.053-.664-.058-.465.315-.013.138.033.128.404.669.238.594.197.241.295.196.263.232.242.267.503.465.273.173.321.106.534.361.071.159.1519.502.066.341.01.141.0381.126.47.31.104.086.209.688.161.32.271.113.315-.007.857-.205.124-.007.159.047.139.112.046.31-.135.326-.037.313.1691.257.437.2.16.055.786.064.3091.054.3029.087.1041.078-.073.138-.1581.068-.18.027-.289.1.005.178.1631.185.149.223.125.081.1359.055.34.077.331.106.218.105.225.076.49.048.36.143.5121-.06-.443.232-.1531.057-.5349-.087-.101.09.221.246.327.165.117.096-.082.112-.381.225-.1589.033-.297.018-.498-.097-.3531-.124-.099-.169-.094-.099-.3179-.238-.227-.13-.2881-.044-.301.002-.538-.138-1.167-.098-.278-.06-.35-.19-.165-.027-.177.06-.451.037-.132-.017-.322-.162-.331-.06-.139.049-.14.011-.453-.116-.341-.049-.28-.162-.152-.151-.172-.134-.159-.345-.247-.327-.308-.269-.658-.434-.132-.108-.258-.397.014-.264.0939-.266-.142.091-.16-.012-.448-.176-.1849-.209-.2991-.568-.1909-.3-.4471-.53-.129-.314-.188-.275-.115-.102-.096-.118-.085-.153-.127-.106-.624-.235-.109-.074-.121-.039-.464-.0239-.269-.039-.506-.193-.262-.0581-.314-.0369-.305-.073-.148-.072-.1-.121-.059-.287-.256.031-.25-.05-.242-.101-.247-.061-.169.087-.052.229-.078.012-.145-.047-.0721.028-.1569.105-.125.143-.232-.022-.475-.144-.212-.09-.18-.163-.154-.185-.156-.146-.192-.106.244.252.563,1.1091-.141.021-.145-.0281.133.213-.153.0321-.152-.0021-.32-.092-.318-.031-.094.045.067.08.112.236.089.247-.46.111-.472.068-.525.133-.531.009-.272-.076-.279-.043-.264.043-.255.097-.215-.016-.136-.174-.063-.131-.081-.114-.201.018-.1939.062.3319.007.1.146.086.176.235.16.283-.095.623.026.605.279.144.032.132.055.312.275.235.25.198.286.042.112-.014.3-.06.149-.391.211-.417.16-.615.311-.5949.354-.313-.069-.282-.188-.109-.051-.291-.102-.177-.037-.704.08-.705.041-.298-.003-.288-.06-.3171-.111-.314.049-.215.13-.235.02-.44-.29-.001-.037v-1.72l-.0009-.573v-2.289L.316,16.56V15.5191l-.156-.183L0,15.0551l.034-.361.194-.446.0869-.298v-1.383l-.0009-.57V9.7211l-.001-.569V6.88l-.001-.568V5.1761l-.001-.567V3.5012l.084.001.284.003.228.0459,1.406.606.42.243.144.0571.141.002.135.028.634.335.947.338,1,.324.31.068.321.028.696.112.367.1.537.397.271.123.254.224.359.241.142.061Zm24.82,2.631-.208.213-.129-.199-.166-.174-.131-.178-.167-.384-.008-.193.044-.205.01-.207-.08-.42-.196-.383-.681-.913-.214-.239-.245-.214-.157-.052-.317-.051-.141-.043-.262-.149-.243-.173-.603-.515-.318-.146-.168-.18-.949-.58-.277-.137h-.338l-.285-.114.2261-.072.0469-.194-.05-.197.4769.322.503.281.146.227.248.014.451.188.31.169.292.195.329.279.634.219.09.08.321.364.421.309.144.17,1.7849,1.463.302.41.0231.28-.0591.11-.188.237.003.28-.063.251ZM26.8691,3.649l-.56.038-.201-.042-.18-.161-.163-.251-.164-.059-.066-.049.396-.192.351-.058.567.24.058.12.005.078-.016.255Zm-7.184-1.056-.091.147-.212-.013-.094-.043.153-.028.062-.121.066-.043Zm-2.272-.901.936.181.062-.002L18.4,1.806l.016-.018.056.047-.018.1319L18.3071,2l-.138-.013-.0981.0691-.268.255-.18-.042-.22.057-.386.005-.501-.112-.138.095L16.2,2.288l-.177.104-.073-.005-.043-.152.003-.078.21-.065-.031-.239.169-.12.292.01.272-.081ZM24.9861.556l-.007.101L24.777.606l-.056.016L24.369.33l.006-.178L24.468,0l.146.024.259.191Z" fill="url(#radial-gradient)"/></g></g></svg>