<svg xmlns="http://www.w3.org/2000/svg" xmlns:xlink="http://www.w3.org/1999/xlink" width="27.0109" height="45.318" viewBox="0 0 27.0109 45.318"><defs><radialGradient id="radial-gradient" cx="13.5055" cy="22.659" r="18.6524" gradientUnits="userSpaceOnUse"><stop offset="0" stop-color="#ffd496"/><stop offset="1" stop-color="#f29d25"/></radialGradient></defs><title>PH</title><g id="Layer_2" data-name="Layer 2"><g id="Layer_1-2" data-name="Layer 1"><path id="PH" d="M13.777.177,13.641.42,13.532.418l.016-.136L13.693,0l.054.006Zm.23,1.24-.052.036-.0771-.017.076-.281.141-.077.112.03ZM12.7739,4.395l.029.268-.166-.006-.25-.163-.023-.083.004-.069.044-.059ZM12.02,5.22l-.016.199-.1421-.105-.031-.149.014-.111.065-.132.089.12Zm1.8789.554-.178.212-.093-.059.1-.206-.003-.072.082-.161.152-.056.125.159Zm-2.302.823.43.153.95.55.347.136.362.102.285.03.256-.126.107-.128.1959-.338.209-.042.1241.1229.0969.1651.0431.242-.06.2529-.199.227-.122.272-.08.9021.004.27.064.26.173.412.09.116.262.147.071.111.015.2.0411.176.17.067.144.088-.054.195-.09.198-.118.488-.562,1.128-.032.243-.222.4841-.451.078-.521.234-.29.182-.253.236-.096.309.0819.141.053.151-.006.1629-.078.1351-.2509.329-.1061.269-.112.121-.055.146.019.167.101.146.3061.627.328.605.07.07.027.081-.193.16.004.29.058.288.29.712.041.19.096.156.148.146.163.123.472.21.182.042.189.007.047-.142.165-.048-.036-.139-.202-.193-.008-.104.106-.078.126-.0451.284-.21.301-.168.383.014.375.094.267.0979.22.18.226.312.158.3451-.001.164-.038.165.008.163.118.1109.363.008.185-.256.023-.288-.13-.111.06-.142.111-.1059.161.095.153.1789.563.1951.144.004.117.0369.252.135.118.108-.145.224-.5591.05-.1619.168.1649.337.268.277.172.224.152.241-.007.223-.089.232.246-.018.231.049.32.194.1.02.106-.031-.015.7-.218.641-.2751-.08-.2349-.271.0479-.33.15-.319-.086-.067-.151.026-.173.072-.187.025-.307-.042-.63-.347-.256-.032-.058-.157.014-.3331-.251-.396-.04-.142-.08-.1109-.749-.431-.092-.073-.23-.344-.522-.49-.146-.05-.159-.014-.052.124.0721.191.029.164-.011.172.021.133.247.272.037.128.1649.349.02.408-.211.169-.237-.188-.008-.154-.041-.143-.2551-.371-.0859-.08-.48-.366-.372-.402-.8271-.429-.099-.023-.1439.032-.1351.053-.4.212-.141.147-.013.227-.287.18-.395.025-.303-.113-.2509-.226-.207-.011-.257-.353-.313-.045-.259.276-.055-.548-.002-.554.072-.162.1291-.135.655-.582.083-.187-.028-.25-.149-.204-.235-.124-.271-.052-.195-.114-.153-.188-.104.333.101.494.017.321-.093.121-.168.003-.16-.038-.119-.115-.087-.332L9.3,18.043l-.093-.314-.104-.045-.213.024-.157-.146-.104-.367-.022-.394-.089-.332-.128-.3211-.075-.2619L8.2,14.7079l-.028-.108L8.11,14.511l-.145-.134-.109-.164-.021-.1351.03-.581.05-.14.113-.067.155.1141.124.141.154.0679.136.089.254.344.1.054.313-.011.185-.043.089-.125.057-.149.001-.176-.1811-.52-.055-.375-.0029-.3381.047-.3389.247-.564.031-.392-.023-.525.043-.313-.007-.18-.147-.283-.039-.302.412-1.537.129-.298.094-.308.043-.409.308-.112.293-.169.151.013.1611.041.354-.084Zm2.617,10.522.0511.101-.0571-.005-.04.019-.1321.208.144.385-.089.28-.16.018-.063-.03.033-.139.034-.063-.032-.183-.095-.115-.0759-.223-.117-.134.0549-.215.37-.0239Zm.3971,2.755-.009.117-.605-.426-.028-.073-.001-.068.037-.068Zm6.1129,1.196-.0739.186-.092-.066-.13.011-.204.158-.332-.212-.051-.166.237-.365-.002-.543.087-.134.091-.096.1079-.052.234.375.08.046.226.172-.059.347.021.203ZM9.267,20.73l.004.194-.473-.286-.014-.099.012-.074.049-.044.2541.107Zm4.6129.604.1741.008.054-.027.333.24-.02.122.042.16-.19.276-.0339.093-.105.09-.3611-.22-.132-.134-.039-.274.144-.407Zm-3.3969.174.143.024.449-.086.184.043.123.165.153.051.1209.084.2261-.146.229.167.203.312.239.221.227.164.044.121-.137.199-.042.251.0139.271.1711.569-.06.154-.172.218-.1291.242.0171.098-.0511.08-.016.171-.1049-.036-.097.027-.094.077-.146.165-.229-.05-.107-.049-.026-.143-.0681-.101-.098-.06-.241-.247-.113-.186-.002-.198-.063-.185-.125-.165-.165-.127-.055-.122-.021-.1441-.015-.3689-.2329-.46-.082-.11-.219-.114-.183-.147-.077-.146-.071-.236-.049-.034-.142.011-.138-.031.04-.173.1371-.1261L9.82,21.386l.52.071Zm7.2329,1.793.2391.437-.261-.298-.303-.203-.314-.336-.227-.118-.069-.068.024-.139.167-.026.074.008.4569.595Zm1.386,1.142.01.25-.1049-.092-.339-.491-.094-.179.096-.119.245.183Zm-4.719.283-.226.711-.15-.245.061-.154-.13-.128-.034-.117.05-.154.1359-.143.034-.466.287-.149.115-.006-.041.114.004.215Zm.6081-.497-.087.087-.053-.014-.036-.154.084-.103.027.01Zm3.945.69.538.337.371.577.043.442-.028.168-.177-.189-.379-.27-.263-.06-.081-.049.03-.146-.172-.135-.02-.055-.156-.06-.2281-.303-.161-.057-.153.064-.354.45-.379.316-.005-.121.153-.395.098-.632.062-.192-.077-.284-.01-.2529.283.117.354.118.27.161.044.108Zm4.2749-.687.198.233.049.168-.0209.187.09.083.159.022.203.094.152.173-.091.158.028.231-.159.291.021.516.0919.165.009.166-.023.174.039.143.245.472.045.157-.075.124-.024.118.151.012.215.196.127.259-.038.068-.172-.203-.13-.032-.551.055-.338-.0841-.219-.0079-.219-.347-.19-.058-.15-.1531-.25-.393-.079-.225.174-.228.055-.182-.01-.178-.1661.029-.145-.059-.177-.219-.071-.126-.129-.105-.205-.25-.295-.098-.12-.068-.233-.21-.171-.26-.166-.456-.087-.473.761.123.77-.024.87-.108Zm-7.255.625-.1439.067-.292-.28-.17-.131-.044-.073.137-.105.37.001.196.192.0269.12Zm-7.169.403.153.043.1091-.042.0969-.151.091.223.2281.183-.076.186-.199.021-.195-.042-.207.074-.251-.042-.15-.174-.171-.313-.085-.058.011-.128.063-.081-.0331-.021.016-.057.031-.039.055-.016.134.1391.318.207Zm-.172,1.324-.21.097-.054-.061-.037-.141.003-.097-.201-.512.154-.078.114.06.115.081.107.042.098.162-.023.112.03.108Zm6.896.251.3271.145.3179-.125.3141.035.261.189-.0851.12-.018.131.584-.285.156.017-.005.265-.035.225-.068.218-.124.255-.166.229-.218.166-.259.101-.123.092-.037.139.0051.174-.06.159-.271.065-.4241.309-.911.196-.25.135-.159.1741-.1779.1579-.097.039-.044-.075-.013-.064.13-.411-.021-.171-.063-.166.04-.325.158-.305.084-.336.025-.648.123-.903-.007-.108-.096-.122-.354-.099-.14-.093.07-.181.134-.123.184.005.162.115.572.237.3041.199Zm6.619.058-.052.146-.0819-.041-.071-.066-.105-.221-.036-.162.162.091.093.161Zm-.6909.292-.351.018-.1531-.13-.1909-.382.216-.083.206.022.151.135.161.256Zm-.0951.424.195.1.225-.04.272-.226.306.082.179.333.092.125.05.217-.013.521-.074.472.058.097.141.085.122.104.103.134.066.149.026.362.177.305.023.1189-.042.125-.2949-.0239-.0231.105.0071.13-.104-.082-.173-.298-.158-.125.049.483.052.231.009.233-.2731-.1781-.3259-.11-.09-.095.03-.302-.006-.15-.146-.318.171-.688-.004-.141-.029-.141-.135-.279-.214-.234h-.131l-.317.164-.161-.054-.095-.645-.128-.626-.099-.16-.063-.168.063-.139.122.057.174.165.21.095.1049.083ZM8.1169,27.09l.061.15-.079.226-.067.049-.09-.094-.192-.066-.013-.122.101.003.184-.119ZM.96,35.828l-.26.204.028-.252.076-.237.2639-.487.191-.15.314-.383.178-.186.426-.367.3921-.402.132-.03.145-.006.114-.046.256-.217.643-.724.532-.54.545-.683.26-.199.069-.073.502-.63.157-.0921.1779-.066.12-.085.106-.107.177-.2739.0721-.3211-.045-.181-.1-.267.125-.3649.099-.168.35-.742.101-.15.146.094.02.1329-.072.313-.006.1571.083.1589-.1.263.251.698.192.4411.0071.146-.258.264-.1531.08-.331.0711-.1489.077-.237.2139-.148.2821-.037.146-.076.112-.682.191-.32.125-.146.094-.0771.153.0541.27-.573.973-.183.254-.195.217-.24.154-.337.0939-.268.188-.182.333-.224.3-.283.223-.3061.196-.28.143-.303.1011-.091.131-.064.162-.134.0759-.159.043Zm18.09-8.049.164.377-.222-.002-.081-.274.095-.089ZM17.965,32.977l-.108.075-.044-.187.031-.252.215-.88-.049-.22.359-.491.221-.46.333-.484.042-.251.295-.479.275-.661-.015-.219.071-.1091.04-.1659.008-.141.202-.246.053.16-.06.314.01.151.035.071.002.292-.072.448.0659.517-.13.526-.148.236-.219.167-.239.104-.248.262-.16.306-.026.2789-.394.94Zm-.672,1.089-.186.03-.196-.016-.132-.139-.228-.598-.2651-.146-.3029-.11-.152-.093-.134-.112-.426-.5969-.032-.365.073-.207.129-.185.146-.05.351-.007.1821-.024.4-.274.028-.108.003-.451-.04-.315-.1-.308.108-.141.142-.139.147-.272.028-.191.003-.2.038-.143.115-.072.554-.218.0981-.015.713.202.146.304.014.1-.1111.337-.099.226-.24.35-.179.378-.133.569-.084.185-.224.356-.0679.195.002.423-.0381.156.0021.15.4439.705.038.111-.004.126-.076.157-.182.271-.102.095Zm-1.351-3.985-.078.039-.069-.005-.165.102-.061-.191.0591-.326.2479-.249.063-.078.067-.046.081-.005.078.097.022.147-.157.444Zm4.6779-.378-.078.013.13-.298.1031.043.031.033-.003.134Zm-12.349.34-.346.087-.08-.273.245-.251.275.101.164.098-.077.089ZM24.475,31.662l-.049.079-.0671-.163-.163-.153-.157-.26-.111-.081.076-.206.007-.335.156-.153.0721-.045.1179-.163.053-.009.05.136-.106.4159.159.492-.054.3071.023.069Zm-3.0761.36-.027.104-.221-.008-.0789.016-.208.266-.1221.067-.666.087-.524-.07-.18-.146-.117-.241-.036-.159.1321-.174.1259-.115.424-.228.096-.173.222-.209.457-.07.044.052.061.033.092.009.227.172.254.11-.062.417.076.141Zm1.9281-.552.0189.14-.36-.369-.073-.261.12.011.154.1Zm2.1839.612-.0349.015-.1561-.22.021-.25.211-.374.156.327-.002.148-.0219.073.146.185-.1011.091Zm-.149,1.258.229.17.297-.045-.004.429.048.125.269.363.042.303-.159.284-.1191.135-.2219.194-.005.089.0939.101.3071.058.2319.156.0411.443.222.349-.006.152-.088.624.028.266.166.213.14.09.072.134.065.367-.012.623-.021.218-.098.202-.303.459-.406.365-.217-.024-.069.108.1351.333-.0541.703-.0889.487-.1321-.247-.0919-.258-.0831-.684-.104-.308-.163-.282-.065-.252-.169-.235-.216-.608-.143.031-.237.167-.053.114-.028.173-.055.156-.276.249-.218.296-.179.324-.057.297.146.232.15.094.219.208.067.095.23.675-.008.691-.168.304-.427.577-.308.183-.164-.093-.132-.35-.021-.144.0889-.329.01-.301-.104-.102-.113.02-.048.043-.275.395-.114.1-.169.014-.134-.027-.816-.345-.667-.34-.522-.318-.3779-.48-.079-.359-.005-.376-.169-.551-.02-.188.0121-.18.169-.338.203-.171.114-.123.091-.136.063-.182-.018-.181-.068-.113-.321-.397-.279-.244-.571-.219-.133-.121-.146-.091-.159-.039-.156-.001-.169.068-.044.145.012.13-.015.126-.239.725-.306-.159-.292-.184-.077-.129-.0331-.154-.05-.104-.068-.094-.134.242-.167.191-.204.044-.207.003-.0679-.083-.0751-.461-.219-.146-.2739.031-.332.254-.065.095-.073.219-.361.622-.191.478-.212.466-.094.1531-.125.101-.197-.042-.179-.111-.168-.3.057-.349.1879-.223.157-.238.1891-.833.015-.296.033-.127.313-.379.264-.235.1389-.049.569-.134.234-.112.369-.002.3-.064.239-.181.018-.187-.011-.195.053-.119.092-.1.128-.132.144-.099.409-.072.136-.082.109-.127.1519-.248.1811.062.182.096.327.076.289.206.186.324.031.16.048.527-.067.123-.282.245.13.026.37-.223.185-.086.456-.12.107-.079.0789-.118.161-.323.117-.345.0931-.144.1309-.114.131-.0191.479.236.307-.114.086-.358.07-.52L22,34.459l.1761-.1359.21.044.288.187.266.062.099-.15.094-.296.107.001.358.098.346-.065.098-.356-.065-.381-.271-1.112.161-.248.14-.007.341.296.657.4.219.244Zm-.1-.77-.0511.072-.085-.151.074-.333.054-.056.07.211Zm-6.3791,1.007.024.293-.258.085-.2069-.075-.133-.176.0009-.066.1161.005.255-.154.081-.03Zm3.1131.267-.08.168-.315-.139-.0751-.121.04-.143.154-.049h.08l.15.15ZM1.084,36.461l-.191.066-.042-.176.024-.173.137.019.067.054Zm-.773.933-.146.214L0,37.362l.018-.343.051-.095.233-.052Zm16.438,1.335.031.065-.013.07-.292.13-.098-.004-.0231-.217.0721-.099.138.088.122-.102Zm7.992,1.254-.044.16-.173-.377-.068-.093.088-.315.193.154ZM14.38,41.483l-.284.039-.091-.003-.223-.286-.021-.126-.179-.143.065-.142.232-.034.402-.181.645.286.1.103-.201.063-.143.271Zm-2.6209.989.153.202.192-.053.306.057.065.105-.01.069-.327.195-.215-.204-.3791.139-.181-.084-.247.075-.152-.158.062-.152.3921-.25Zm-2.55,2.295-.076.169-.089.079-.116-.044-.089-.087-.05.13-.245.05-.155.2-.226.054-.1581-.026.0171-.178.437-.267.272-.099.239-.193.12-.021.0609.157Z" fill="url(#radial-gradient)"/></g></g></svg>