<svg xmlns="http://www.w3.org/2000/svg" xmlns:xlink="http://www.w3.org/1999/xlink" width="47.587" height="43.169" viewBox="0 0 47.587 43.169"><defs><radialGradient id="radial-gradient" cx="23.7935" cy="21.5845" r="22.7159" gradientUnits="userSpaceOnUse"><stop offset="0" stop-color="#ffd496"/><stop offset="1" stop-color="#f29d25"/></radialGradient></defs><title>PK</title><g id="Layer_2" data-name="Layer 2"><g id="Layer_1-2" data-name="Layer 1"><path id="PK" d="M39.284.201l.135.093.168-.055.295-.066.256.049.565.209.085.104.133.507.101.046L41.34.969l.263.06.295.164.19.158.126.17.135.276.052.22.064.263-.017.74-.096.121-.082.157.02.137.093.108.183.074.169.046.091.117.125.414.084.064.208-.002.376-.09.326-.142.139-.03.034.393.192.15.268.175.111.058.314.166.593.211.575.151.426.112.206.007.147.005.425-.03.212-.052-.288.18-.352.222-.416.26-.366.23-.35.219-.335.21-.051.163-.083.239-.307.182-.306.131-.071.077-.023.103-.148.206-.286.174-.237-.017-.15-.052-.797.3-.37-.007-.288.194-.214.178-.428.194-.291.001L41,8.612l-.529-.22-.214-.127-.194.007-.468-.03-.458-.109-.546-.129-.27-.055-.554-.114-.361.152-.326.136-.265.093-.219.422-.093.149-.106.212-.05.15.044.179.321.126.134.174.02.153-.116.157-.097.124.001.109.052.11.077.082.456.051.271.001.105.044.013.149-.1.2-.384.161-.217.17-.07.225.003.179.075.119.184.137.173.156.053.127-.022.174-.069.238-.189.277-.158.197-.011.07.039.106.127.154.216.227.269.183.173.051.055.045.054.212.021.223-.069.168.138.138.361-.007.294.059.124-.059.087.044-.055.498.04.294.079.083.289.12.556-.015.329.139.363.159.193.176.087.131-.024.211-.199.247-.323.118-.189.051-.932.462-.291.195-.226.234-.083.176-.044.171.202.62.034.192-.166.667-.049.247.063.173.198.064.043.145.019.111-.344.244-.364.216-.115-.001-.348.405-.579.809-.308.274-.022.133-.024.136.117.228.024.193-.13.193-.218.223-.424.193-.535.199-.24.12-.181.52-.167.521-.075.193-.288.599-.504.88-.128.192-.78.423-.795.46-.141.174-.163.418-.153.458-.143.239-.506.536-.166.411-.053.268-.43.15-.488.143-.71.046-.295.075-.87.369-.216.016-.17-.061-.128-.126-.119-.21-.057-.323-.168-.146-.226-.125-.238-.005-.24.137-.207.15-.142.124-.138.145-.267.486-.431.697-.481.506-.178.151-.111.115-.151.168-.087.162-.119.529-.069.468.032.105.072.089.263.135.379.226.493.128.415.022.156.096.092.13.026.109-.022.386-.047.414-.153.444.002.254.061.249.461.63.17.065.346.014.161-.013.179-.064.127.044.095.077.024.128-.015.627.142.284.275.386.217.441.205.527.197.412.076.215-.128.104-.073.108-.019.144.027.152-.017.107.093.132.109.044-.003.092-.172.119-.153-.004-.118.058-.228.25-.106.05-.143.023-.159-.025-.226-.101-.065-.159.025-.167-.051-.1-.162.019-.561.171-.535.211-.093.144-.124.149-.245.062-.362.019-.249-.023-.23-.161-.21-.146-.325-.007-.585.022-.324-.002-.191-.054-.188.041-.235-.06-.105.08-.099.008-.079-.138-.053-.015-.062.02-.055.047-.032.081-.011.92-.386-.006-.275-.002-.302.05-.276.07-.136.084-.194.131-.046.184-.093.134-.134-.198-.086-.092-.1.068-.142-.008-.256-.226-.114.228-.423.052-.053-.172-.01-.16-.233.116-.167-.178-.075-.239-.064-.066-.073-.076-.176-.082-.156-.254-.015-.27-.044-.321-.328-1.192-.199-.11-1.117-.212-.057-.209.077-.562-.031-.355-.362-.469-.101-.328-.295-.281-.293-.082-.296.037-.159.111-.087.188.632-.044.142.069.17.123-.181-.005-.21-.058-.263.004-.985.138-.572.199-.767-.059-.968.196-.8.011-.33.381-.183-.069-.14-.093-1.1-.299-.076-.125-.184-.09-.202.16-.145.026-.603-.133-.461.101-.171.172-.012.267-.576-.052-.326-.084-.434.093-.984-.123-.258.03-.359.178-.15.138-.213.054-.188-.192-.14-.085-.13.056-.176.158-.51.074-.461-.021-.496-.148.059-.05.077-.258.069-.923.088-.334-.026-.182.018-.055.195-.162.047-.068.074-.474.082-.526.091-.189.076-.051.615-.237.105-.157.317.037.029-.038.029-.182.147-.197.204-.162.153-.057.553-.102.324-.142.097-.015.861.036.181-.054.028-.05.051-.538.157-.084.024-.045-.053-.373.03-.249.177-.148-.011-.084-.126-.177-.169-.113-.082-.027-.706.107-.292-.035-.136-.065-.029-.048.028-.109.005-.177.102-.276.031-.165-.083-.957-.119-.637.064-.633-.013-.131-.024-.03H5.26l-.43.056-.366-.408-.228-.161-.624-.203-.274-.04-.401-.176-.371-.385-.378-.395-.153-.253-.169-.431-.478-.827.004-.214-.059-.131-.467-.545-.331-.388L0,24.06l1.069.352.833.269,1.347.434,1.045.337.289.055,3.063-.288,1.131.218.359.122.054-.071.152-.148.264-.15.358-.119.357-.065.512-.009.348.01.257.036.496-.021.238-.058.815-.238.548-.16.829-.249.605-.183.151-.097.156-.174.075-.157-.186-.242-.024-.213.122-.271.066-.413-.013-.589-.04-.34.169-.633.141-.356.281-.17.196-.104.081-.077.08-.085.3-.484.275-.226.266-.137.292.018.247.187.48.082.465-.055.403-.141.183-.115.214-.101-.012-.116-.243-.1-.139-.142-.054-.174.136-.106.318-.031.778-.425.317-.28.086-.131.15-.014.296.13.347.043.217-.13.216-.029.212.142.114.17.192.202.243.04.293-.108.308-.234.292-.328.259-.324-.064-1.03-.043-.609.137-.322.195-.197.129-.307-.003-.271.137-.228.136-.623.185-.147.382-.102.608-.059.477-.285.48-.304.064-.268-.18-.286-.241-.556-.217-.333-.53-.598.061-.369.295-.151.726.256.202.05.253.036.669-.006.546-.1.57-.228.112-.238-.007-.283.01-.234.009-.325-.205-.209-.124-.187-.037-.15.143-.082.139-.153.133-.278.316-.333.191-.3.18-.142.272-.196.174-.287.08-.172.157-.168.053-.11-.043-.099-.078-.124-.089-.14V5.913l.074-.143.081-.129-.038-.181-.043-.295-.148-.174-.1-.403-.157-.41-.084-.16-.154-.202-.344-.214-.099-.143.134-.276.225-.171.423-.423.231-.292.209-.204.27.034.158-.018.139-.189.276-.167.491-.346.172-.234.261-.118.217-.027.292-.082L32.802.82l.257-.096.402-.02L34.1.647l.344-.06.827-.046.9-.021.104-.002.39.124.264.104.104-.009L37.47.489l.664-.304L38.443.05,38.609,0l.257.003.207.08Z" fill="url(#radial-gradient)"/></g></g></svg>