<svg xmlns="http://www.w3.org/2000/svg" xmlns:xlink="http://www.w3.org/1999/xlink" width="28" height="26.458" viewBox="0 0 28 26.458"><defs><radialGradient id="radial-gradient" cx="14" cy="13.229" r="13.62" gradientUnits="userSpaceOnUse"><stop offset="0" stop-color="#9b0400"/><stop offset="1" stop-color="#4c0200"/></radialGradient></defs><title>PL</title><g id="Layer_2" data-name="Layer 2"><g id="Layer_1-2" data-name="Layer 1"><path id="PL" d="M15.367,1.835l.112.058.786.063.797.063,1.281.069,1.335.07,1.386.075,1.499.079,1.581.047.097-.032.161-.187.197.025.233.116.108.086.046.099.029.114.127.022.233.087.314.197.246.191.235.272.078.308.004.349-.015.224.02.091.321,1.613.534,1.543.196.742.078.394.063.57.019.4-.002.224-.04.308-.158.182-1.025.52-.193.162-.302.404-.279.415-.064.142-.017.093.062.136.365.221.368.178.12.133.272.17.099.153.054.132-.004.307-.122.423.051.319-.125.213-.102.236-.015.412.184.454.151.31.058.243-.061.19.018.19.135.202.424.62.209.595.134.232.309.3.028.123-.124.113-.1.015-.081.03-.052.105.081.113.109.165.136.467-.013.382-.105.097-.134.226-.09.207-.733.143-.176.221-.401.425-.273.245-.405.441-.64.756-.236.316-.173.261-.518.692-.159.29.031.238.167.559.035.252-.03.232-.055.207.01.092.153.15.243.235.014.079-.034.102-.084.077-.305-.082-.34-.159-.116.02-.184-.038-.759-.307-.512-.241-.051-.157L22,25.267l-.218-.191-.5-.165-.203-.129-.812-.072-.352-.003-.249.053-.16-.005-.219.337-.151.098-.221.01-.194-.06-.198-.177-.316-.094-.229.045-.169-.038-.145-.01-.051.036-.117-.005-.169.085-.186.119-.204.092-.158.196-.14.383-.397-.172-.132.075-.188.05-.128-.052.03-.132.058-.149-.003-.208-.036-.231-.123-.075-.185-.027-.095-.046-.01-.076-.095-.098-.164-.248-.154-.31-.107-.091-.155.147-.235.167-.147.058-.283.48-.508.016-.031-.224-.054-.216-.297-.053-.009-.127-.062-.318-.596-.623-.072-.26.023-.101-.041-.166-.13-.1-.471-.119-.121.068-.109-.07-.172-.15-.297-.122-.033-.063-.107-.108-.059-.014-.039.065-.086.092-.306.117-.122-.048-.111-.101-.127-.219-.184-.192-.151-.068-.087-.101-.019-.078.336-.158.074-.163-.043-.297-.05-.037-.134.1-.281.088-.258.041H9.223l-.739-.541-.48-.166-.283-.048-.03.055.127.304.222.375-.011.099-.265.153-.15.067-.177.129-.15.18-.13.081-.112-.021-.119-.086-.306-.553-.385-.424-.046-.095-.12-.022-.17-.098-.058-.13.086-.136.117-.124.208-.077.063-.073.037-.109.077-.141-.02-.05-.147-.16-.218-.151-.606.113-.166.081-.094-.105-.071-.153-.153-.03-.21-.14-.249-.138-.243-.04-.505-.199-.195-.011-.112-.068-.118-.151-.1-.165-.052-.336-.372-.152-.371-.096-.026.049.016.338-.02.181-.245.111-.242.011.013-.056.29-.609.13-.385.149-.703-.179-.557-.049-.262-.083-.125-.509-.273-.039-.094.078-.37-.038-.156-.123-.165-.161-.328-.062-.279.205-.328.051-.242.089-.331.066-.182.013-.05-.135-.129-.034-.182.036-.262L1.546,12.2l-.18-.126-.117-.168-.054-.208.042-.328.14-.447-.296-.54L.35,9.75,0,9.307l.028-.254.154-.23.279-.206L.673,8.25l.119-.437L.795,7.73l.007-.312L.477,6.136.424,5.814l-.039-.39-.02-.106.642.273.269.154-.034-.173-.054-.149.036-.218-.018-.33L.623,4.706.238,4.649l-.043-.23L.231,4.27l.107.088.378.034.931-.445,1.607-.581,1.717-.545.401-.06.402-.115.149-.205.149-.137.233-.362.517-.564.914-.206L8.078.904,8.793.528l1.63-.423.682-.094L11.772,0l.594.334.629.412.113.247-.34-.154L12.272.47,12.088.454l.424,1.121.232.396.467.294.393.1,1.21-.179.429-.234Z" fill="url(#radial-gradient)"/></g></g></svg>