<svg xmlns="http://www.w3.org/2000/svg" xmlns:xlink="http://www.w3.org/1999/xlink" width="7.415" height="1.6889" viewBox="0 0 7.415 1.6889"><defs><radialGradient id="radial-gradient" cx="3.7075" cy="0.8445" r="2.6887" gradientUnits="userSpaceOnUse"><stop offset="0" stop-color="#ffd496"/><stop offset="1" stop-color="#f29d25"/></radialGradient></defs><title>PR</title><g id="Layer_2" data-name="Layer 2"><g id="Layer_1-2" data-name="Layer 1"><path id="PR" d="M5.073.2269l.086.058.084-.008L5.175.1559h.063L5.776.23l.346.125.356.059L6.5.8229l-.274.164-.179.17-.146.209-.384.243-.462.073-.308.007-.115-.008-.112-.042-.232.04-.287-.107-.246.027-.488-.025-.183.092-.175.021L2.738,1.67l-.146-.042-.362.003L2.077,1.55l.063-.465.005-.21L2.056.701,1.958.592,1.888.463,2.03.378,2.147.254,2.184.067,2.312.021,2.462,0l.692.087L4.906.136l.1.015Zm1.975.996-.22.018-.143-.024L6.637,1.13l.267-.082.311.012.178.049.022.033Zm-6.867.134L.155,1.36l-.026-.003-.012-.008-.018-.027-.08-.044L0,1.2369l.018-.042.033-.017.162-.004.017.004.032.03.001.021L.247,1.25l-.029.051-.012.013-.009.013L.193,1.35Z" fill="url(#radial-gradient)"/></g></g></svg>