<svg xmlns="http://www.w3.org/2000/svg" xmlns:xlink="http://www.w3.org/1999/xlink" width="3.8549" height="4.3579" viewBox="0 0 3.8549 4.3579"><defs><radialGradient id="radial-gradient" cx="1.9275" cy="2.179" r="2.0571" gradientUnits="userSpaceOnUse"><stop offset="0" stop-color="#ffd496"/><stop offset="1" stop-color="#f29d25"/></radialGradient></defs><title>PS</title><g id="Layer_2" data-name="Layer 2"><g id="Layer_1-2" data-name="Layer 1"><path id="PS" d="M.422,4.0819l-.289.276-.092-.274L0,3.9849l.531-.527.253-.332.131.142.004.053-.492.533Zm3.32-2.27.077.722-.167.306-.0949.361-.042.272-.117-.012-.371.197-.493.186-.542.048-.077-.055-.022-.094.159-.458.061-.215.235-.232.333-.201.141-.051L2.8061,2.5l-.199-.133-.208-.069-.197.069-.062-.021-.021-.0589.0689-.0831L2.22,2.05l-.031-.258-.021-.314-.043-.244L2.248.838,2.279.649,2.432.245,2.791,0l.311.071.164.018.069.048L3.38.277l.229.162.188.021.058.521-.105.445Z" fill="url(#radial-gradient)"/></g></g></svg>