<?xml version="1.0" encoding="utf-8"?>
<!-- Generator: Adobe Illustrator 22.1.0, SVG Export Plug-In . SVG Version: 6.00 Build 0)  -->
<svg version="1.1" id="Layer_1" xmlns="http://www.w3.org/2000/svg" xmlns:xlink="http://www.w3.org/1999/xlink" x="0px" y="0px"
	 width="11.4467px" height="18.626px" viewBox="0 0 11.4467 18.626" enable-background="new 0 0 11.4467 18.626"
	 xml:space="preserve">
<radialGradient id="PT_1_" cx="6.8617" cy="9.313" r="7.3401" gradientUnits="userSpaceOnUse">
	<stop  offset="0" style="stop-color:#FFD496"/>
	<stop  offset="1" style="stop-color:#F29D25"/>
</radialGradient>
<path id="PT" fill="url(#PT_1_)" d="M5.9407,1.201l0.059,0.03l0.163-0.008l0.29-0.142l0.197-0.119l0.069,0.049l0.571-0.067
	l0.135,0.054l0.09,0.061l0.281,0.082l0.306,0.009l0.379-0.115l0.166-0.116l0.032-0.128l0.008-0.097l0.049-0.062l0.086-0.035
	l0.135,0.063l0.193,0.051l0.463,0.021l0.091-0.071l0.157,0.021l0.207,0.09l0.239-0.029l0.121,0.11l0.05,0.146l0.014,0.317
	l-0.018,0.32l0.047,0.118l0.162,0.031l0.261-0.004l0.235,0.086l0.182,0.151l0.06,0.154l0.026,0.106l-0.089,0.06l-0.126,0.228
	l-0.32,0.297l-0.457,0.267l-0.349,0.332l-0.24,0.396l-0.301,0.168l-0.092,0.09l-0.036,0.107l0.199,0.484l0.061,0.373l0.049,0.456
	l-0.032,0.128l-0.017,0.5l-0.046,0.146l0.012,0.119l0.073,0.127l0.033,0.122l-0.137,0.155l-0.251,0.18l-0.186,0.158l-0.05,0.148
	l0.014,0.092l0.313,0.313l0.057,0.128l-0.042,0.309l-0.18,0.505l-0.172,0.307l-0.03,0.03l-0.197,0.087l-0.944,0.003l-0.229,0.069
	l0.032,0.062l0.222,0.394l0.231,0.209l0.077,0.048l0.083,0.459l0.375,0.732l0.363,0.101l0.126,0.183l-0.023,0.256l-0.112,0.281
	l-0.223,0.288l-0.265,0.202l-0.173,0.201l-0.014,0.233l-0.055,0.295l-0.083,0.233l-0.021,0.157l0.664,0.985l0.37-0.048l0.048,0.023
	l-0.066,0.234l-0.117,0.274l-0.14,0.052L8.7167,15.1l-0.3,0.354l-0.243,0.425l-0.183,0.206l-0.167,0.504l0.021,0.218l0.081,0.336
	l0.171,0.874l-0.246,0.039l-0.956,0.569l-0.296,0.001l-0.553-0.25l-0.976-0.081l-0.318-0.075l-0.397,0.164l-0.307-0.004
	l-0.244,0.209l-0.175-0.057l0.201-0.469l0.315-0.93l-0.013-0.569l0.075-0.496l-0.086-0.492l-0.158-0.308l0.215-0.799l-0.024-0.413
	l-0.197-0.524l0.597,0.08l-0.185-0.208l-0.182-0.127l-0.176,0.029l-0.149-0.008l-0.508,0.203l-0.255,0.061l-0.074-0.036l0.028-0.324
	l-0.132-0.421l0.204-0.111l0.237-0.032l0.202-0.18l0.125-0.201l-0.066-0.359l0.175-0.341l0.411-0.289l-0.213,0.044l-0.244,0.18
	l-0.384,0.652l-0.125,0.33l-0.327,0.107l-0.293,0.053l-0.15-0.035l-0.18-0.083l-0.016-0.243l0.014-0.194l0.122-0.386l0.048-0.546
	l0.173-0.49l-0.013-0.131l-0.049-0.195l0.154-0.191l0.191-0.126l0.29-0.422l0.405-1.009l0.467-1.077l-0.038-0.132l-0.099-0.102
	l0.04-0.292l0.281-1.273l0.114-0.167l0.132-0.375l0.03-0.606l0.052-0.418l-0.012-0.21l-0.042-0.253l-0.179-0.484l-0.188-1.026
	l-0.015-0.344l0.155-0.174l-0.255-0.025l-0.116-0.223l0.026-0.253l0.284-0.409l0.265-0.254l0.262-0.166l0.145-0.063l0.605-0.173
	L5.6848,0l0.149,0.014l0.025,0.083l0.086,0.16l0.096,0.111l0.026,0.082l-0.234,0.343L5.8008,0.91l0.122,0.221L5.9407,1.201z"/>
<g>
	<text transform="matrix(1 0 0 1 0 14.5634)" fill="#770B00" font-family="'KornerDeliNF'" font-size="2.0965px">Lisbon</text>
	<g id="Layer_2_copy_2_2_" opacity="0.9">
		<path fill="#9B0F00" d="M3.4523,10.2878C3.3586,10.2693,3.1,10.2669,3.0241,10.2666l0,0c0,0-0.0038,0-0.0106,0
			c-0.0068,0-0.0106,0-0.0106,0l0,0c-0.0759,0.0003-0.3346,0.0027-0.4283,0.0212c-1.115,0.2195-0.7762,1.2255-0.5416,1.5645
			c0.1987,0.2871,0.8778,1.0548,0.8778,1.0548h0.2053c0,0,0.6791-0.7677,0.8778-1.0548
			C4.2286,11.5133,4.5673,10.5072,3.4523,10.2878z"/>
		<path fill="#770B00" d="M3.3613,10.2878c-0.0731-0.018-0.2718-0.0208-0.3373-0.0212l0-0.0001c0,0-0.0038,0-0.0106,0
			c-0.0068,0-0.0106,0-0.0106,0l0,0.0001c-0.0655,0.0004-0.2642,0.0031-0.3373,0.0212c-0.8892,0.2195-0.6191,1.2255-0.4319,1.5645
			c0.1585,0.2871,0.7001,1.0548,0.7001,1.0548h0.1594c0,0,0.5416-0.7677,0.7001-1.0548
			C3.9804,11.5133,4.2506,10.5072,3.3613,10.2878z"/>
		<path fill="#4C0700" d="M3.1452,10.2878c-0.0252-0.0157-0.088-0.0198-0.1211-0.0209l0-0.0004c0,0-0.004,0-0.0106,0.0001
			c-0.0066-0.0001-0.0106-0.0001-0.0106-0.0001l0,0.0004c-0.0331,0.0011-0.0959,0.0052-0.1211,0.0209
			c-0.3531,0.2195-0.2458,1.2255-0.1715,1.5645c0.0629,0.2871,0.278,1.0548,0.278,1.0548h0.0505c0,0,0.2151-0.7677,0.278-1.0548
			C3.391,11.5133,3.4983,10.5072,3.1452,10.2878z"/>
	</g>
</g>
</svg>
