<svg xmlns="http://www.w3.org/2000/svg" xmlns:xlink="http://www.w3.org/1999/xlink" width="70.363" height="33.469" viewBox="0 0 70.363 33.469"><defs><radialGradient id="radial-gradient" cx="35.1815" cy="16.7345" r="27.548" gradientUnits="userSpaceOnUse"><stop offset="0" stop-color="#ffd496"/><stop offset="1" stop-color="#f29d25"/></radialGradient></defs><title>PT</title><g id="Layer_2" data-name="Layer 2"><g id="Layer_1-2" data-name="Layer 1"><path id="PT" d="M39.55,32.736l.383.1749.352-.084.436.225.227.052-.202.1611-.203.204-.507-.048-.429-.1961-.154-.1489-.042-.134ZM17.556,18.791l-.012.0639-.159-.0249-.201.019-.108-.186.098-.077.226-.019.108.083Zm-1.744-3.099.178.0239.895-.052.238.038-.025.26-.169.104-.527.07-.829-.168-.278-.224-.04-.164.005-.077.175-.061ZM8.801,13.5179l.231.143-.351.0311-.116.07-.284-.1011-.343.0151-.215-.192-.049-.2.108-.124.303-.001ZM7.414,13.26l-.288.0091-.275-.2721.405-.143.119.087.088.099.052.1271Zm2.422-.11-.133.043-.748-.275-.267-.125-.346-.317.977.385Zm1.973-.3141-.056.034-.583-.097-.166-.131-.067-.244.098-.083.256-.049.3721.046.239.175v.223ZM.409,10.089l-.124.174-.214-.062L0,10.136l.062-.3721.171-.087.172.15ZM64.857,1.201l.059.03.163-.008.29-.142.197-.119.069.049.571-.067.135.054.09.061.281.082.306.009.379-.115.166-.116.032-.128.008-.097.049-.062.086-.035.135.063.193.051.463.021L68.62.661l.157.021.207.09.2391-.029.121.11.05.146.0141.3169-.0181.32.047.118.162.031.261-.004.235.086.182.151.06.154.026.106-.089.06-.126.2279-.32.297-.457.267-.349.332-.24.396-.301.168-.092.09-.036.107.199.484.061.373.049.456-.032.128-.017.5-.046.146.012.119.073.127.033.122-.137.155-.251.18-.186.158-.05.148.014.092.313.313.057.128-.042.309-.18.505-.172.307-.03.03-.197.087-.944.003-.229.069.032.062.222.394.231.209.077.048.083.4591.375.7319.363.1011.126.183-.023.256-.112.281-.223.288-.265.202-.173.201-.014.233-.055.295-.083.233-.021.157.664.985.37-.048.048.023-.066.234-.117.274-.14.052-.317.084-.3.354-.243.425-.183.206-.167.504.021.218.081.336.171.874-.246.039-.956.569-.296.001-.553-.25-.976-.081-.318-.075-.397.164-.307-.004-.244.209-.175-.057.201-.469.315-.93-.013-.569.075-.496-.086-.492-.158-.308.215-.799-.024-.413-.197-.524.597.08-.185-.208-.182-.1271-.176.029-.149-.008-.508.203-.255.0611-.074-.0361.028-.324-.132-.421.204-.1109.237-.0321.202-.18.125-.2009-.066-.3591.175-.341.411-.289-.213.0441-.244.18-.384.6521-.125.33-.327.107-.293.053-.15-.035-.18-.083-.0159-.243.014-.194.122-.386.048-.546.173-.49-.013-.1311-.049-.195.154-.191.191-.126.29-.422.405-1.009.467-1.077-.038-.132-.099-.102.04-.292.281-1.273.114-.167.132-.375.03-.6059.052-.418-.012-.21-.042-.253-.179-.484-.1879-1.026-.0151-.344.155-.174-.255-.025-.116-.223.026-.253.284-.409L63.43.486l.262-.166.145-.063.605-.173L64.6011,0l.149.014.025.083.086.16.096.111.026.082-.234.343-.032.117.122.221Z" fill="url(#radial-gradient)"/></g></g></svg>