<svg xmlns="http://www.w3.org/2000/svg" xmlns:xlink="http://www.w3.org/1999/xlink" width="23.601" height="25.174" viewBox="0 0 23.601 25.174"><defs><radialGradient id="radial-gradient" cx="11.8005" cy="12.587" r="12.2001" gradientUnits="userSpaceOnUse"><stop offset="0" stop-color="#ffd496"/><stop offset="1" stop-color="#f29d25"/></radialGradient></defs><title>PY</title><g id="Layer_2" data-name="Layer 2"><g id="Layer_1-2" data-name="Layer 1"><path id="PY" d="M12.605,2.604l.062.216.037.167.093.118.092.157.093.089.065.148-.019.167.038.217.046.187.046.05.134.049.066.17-.048.086.019.099.048.096-.044.095.023.071.09.064.084.237.009.406-.093.218-.074.178-.018.109.055.158-.093.188-.111.228.028.159.018.149.009.159.028.149-.037.159-.037.139-.019.159.047.179-.084.169-.046.119-.019.12.084.189.214.08.167.02.157-.1.121-.03.223.09.204.159.26.02.232.03.176.05.26-.06.27.06.315.09.26.079.26-.02.195-.009.204-.09.195.01.148-.16.084-.139.074-.1.214-.08.148.05.121.26.213.149.084.109.157.051.344.009.214-.009.241.079h.157l.14.14.13.169.018.31.121.24.158.09.083.15-.027.21-.075.21.01.231.083.21v.211l.056.21.111.181.037.291-.018.211.074.121.028.171-.047.14-.018.192.009.171.056.141.167.181.046.323v.222l.074.262.14.122.223.04.259.04.316-.06.279-.071.157-.071.306-.191.27-.112.139-.07.13-.051.269.121.251.152.194.212.363.232-.071.057-.144.191.003.223.102.321-.09.681-.281,1.042-.115.609.05.173-.104.305-.385.656-.015.443-.045,1.333-.129.942-.217.698-.197.373-.179.045-.127.112-.078.177-.144.148-.212.119-.114.13-.018.141-.202.091-.387.041-.226.113-.068.185-.129.147-.192.109-.09.181.009.253-.11.216-.229.181-.212.005-.193-.171-.26-.113-.325-.057-.271.044-.218.142-.193.226-.168.31-.187.052-.206-.208-.261-.063-.315.082-.252-.028-.186-.139-.287-.015-.387.108-.784-.125-1.182-.358-.999-.136-1.225.129-.104-.372.065-.2.199-.151.125-.171.051-.191.137-.146.224-.1.095-.101-.034-.103.048-.09.129-.079.073-.124.017-.169.049-.084.086-.062.01-.118-.048-.361.006-.297.06-.231.075-.139.053-.035.05-.082.019-.139.081-.13.391-.266.147-.144.013-.132.059-.177.232-.383.071-.179.006-.089.083-.093.28-.212.151-.199.024-.187-.067-.212-.159-.237-.499-.593-.388-.269-.496-.221-.326-.072-.157.078-.159-.062-.161-.2-.272-.158-.573-.172-1.301-.689L9.2,15.545l-.175-.205-.486-.368-.797-.53-.611-.258-.426.014-.683-.153-.939-.322-.541-.313-.146-.302-.347-.303L3.5,12.502l-.285-.199-.021-.096-.163-.125-.304-.154-.334-.263-.364-.372-.389-.576L1.226,9.94.782,9.416l-.474-.27L.07,8.967.071,8.88,0,8.797l.064-.15.172-.589.25-.852.26-.88.305-1.035V4.558l.001-.77.434-.633.308-.449.267-.427.269-.73.18-.486L3.197.947,4.364.695,4.946.569,6.173.304,7.42.034,8.729.017,9.993,0l.98.604.749.462.825.508.057.11.057.427Z" fill="url(#radial-gradient)"/></g></g></svg>