<svg xmlns="http://www.w3.org/2000/svg" xmlns:xlink="http://www.w3.org/1999/xlink" width="2.397" height="4.907" viewBox="0 0 2.397 4.907"><defs><radialGradient id="radial-gradient" cx="1.1985" cy="2.4535" r="1.9308" gradientUnits="userSpaceOnUse"><stop offset="0" stop-color="#ffd496"/><stop offset="1" stop-color="#f29d25"/></radialGradient></defs><title>QA</title><g id="Layer_2" data-name="Layer 2"><g id="Layer_1-2" data-name="Layer 1"><path id="QA" d="M1.441,4.777l-.253.063-.237.067L.753,4.905l-.16-.026L.487,4.814l-.204-.26L.139,4.217l.089-.188.03-.117-.195-.89L0,2.337l.0229-.14L.134,2.035.32,1.677l.099-.345L.697.534.9919.226,1.424,0,1.78.442l.432.337.083.377-.127.307-.118.486.071.224.026.194.117.325.114.421.019.293-.061.271-.151.228-.296.684-.088.071Z" fill="url(#radial-gradient)"/></g></g></svg>