<svg xmlns="http://www.w3.org/2000/svg" xmlns:xlink="http://www.w3.org/1999/xlink" width="26.561" height="18.499" viewBox="0 0 26.561 18.499"><defs><radialGradient id="radial-gradient" cx="13.2805" cy="9.2495" r="11.4439" gradientUnits="userSpaceOnUse"><stop offset="0" stop-color="#9b0400"/><stop offset="1" stop-color="#4c0200"/></radialGradient></defs><title>RO</title><g id="Layer_2" data-name="Layer 2"><g id="Layer_1-2" data-name="Layer 1"><path id="RO" d="M22.369,11.513l.296.411.375.219.868.231.078-.028.008-.043-.06-.06-.009-.076.042-.094.12-.005.196.084.374-.122.55-.328.506-.066.46.194.236.226.152.215-.048.265-.029.165-.121.681-.084.254-.135.284-1.429.339.092-.163-.033-.285-.06-.216.133-.194-.321-.071-.141.107-.11.186.097.429-.156.237-.06.132-.007.313-.093.134-.018.148.228-.038-.103.269-.428.516-.15.308.037,1.215-.191.724-.015.213-.454.007-.136-.017-.43-.108-.483-.192-.283-.374-.181-.267-.41.121-.077-.032-.113-.129-.308-.087-.381-.002-.855-.489-.094-.082-.672.082-1.006.242-.767.299-.793.531-.321.402-.373.213-.53.158-.947-.059-.987-.202-1.059-.217-.573.12-.774-.09-1.168-.259-.87-.079-.858.153-.144-.117-.031-.134.033-.189.121-.153.208-.116.109-.118.012-.119-.233-.192-.478-.265-.197-.166-.048-.041-.013-.149-.099-.117-.186-.086-.143-.155-.102-.225.022-.212.145-.199.186-.087.226.027.094-.057-.038-.139-.221-.179-.405-.217-.412.118-.421.454-.302.073-.186-.305-.33-.183-.475-.057-.292-.117-.109-.177-.208-.136-.458-.145-.006-.138.074-.033.163-.013.218-.029.035-.079.002-.072-.172-.091-.173-.062-.091-.062-.058-.069-.012-.072.051-.049.07-.003.069-.043.039-.167.094-.138.067-.048-.004-.102-.07-.095-.095-.082-.14-.05-.436-.144-.22-.2-.135-.008-.213-.111-.23-.174-.2-.248-.215-.161-.056-.066-.005-.062.04-.07-.002-.076-.056-.243.038-.258-.01-.243-.003-.109-.042-.034-.037.037-.053.046-.052.009-.159-.177L.952,9.836.816,9.715.551,9.549l-.224-.14-.16-.302L0,8.873l.11-.098.637-.138.297.135.133-.049.129-.109.072-.088.013-.093.064-.116.215-.055.57.071.229-.163.085-.088.052-.196.06-.158.204-.084L2.867,7.5l-.031-.156.118-.351.072-.144.116-.052.139-.111.242-.23-.056-.2.048-.149.252-.362.192-.35-.003-.176.028-.153.17-.168.178-.219.235-.686.085-.115.154-.131.115-.13.012-.452.108-.131.207-.147.206-.236.167-.28L5.75,2.24l.171-.035.185-.11.207-.041.201.054.127-.028.193-.136.491-.516.069-.103.102-.071.398-.177L7.995.899l.137-.16.177.012.578.396.618-.025.113.015.037.008.076.032.822.196.127-.022.035-.015.331.161.293-.021.278-.112.289-.038.266.067.202.227.525.482.156.18.24-.027.266-.09.269-.321.827-.366.631-.091.616-.147.713-.104.206-.3.114-.205.081-.38.384-.11.365-.078.13-.048L18.163,0l.207.032.319.188.224.235.088.187.191.264.201.369.222.491.048.247.084.268.165.325.315.36.044.067.143.253.276.559.231.223.201.243.097.244.144.221.338.293.274.266.219.763.153.35.098.267-.047.54.061.231-.125.421-.226.844-.055.67.039.36.005.231.055.147.06.304.009.264-.081.075-.113.063-.044.055.104.119.142.221Z" fill="url(#radial-gradient)"/></g></g></svg>