<svg xmlns="http://www.w3.org/2000/svg" xmlns:xlink="http://www.w3.org/1999/xlink" width="11.613" height="15.331" viewBox="0 0 11.613 15.331"><defs><radialGradient id="radial-gradient" cx="5.8065" cy="7.6655" r="6.7998" gradientUnits="userSpaceOnUse"><stop offset="0" stop-color="#9b0400"/><stop offset="1" stop-color="#4c0200"/></radialGradient></defs><title>RS</title><g id="Layer_2" data-name="Layer 2"><g id="Layer_1-2" data-name="Layer 1"><path id="RS" d="M2.485.07l.337.024L3.074.031l.637.08.137.063.089.071.167.234.16.302.224.14.265.166.136.121.201.361.159.177.052-.009.053-.046.037-.037.042.034.003.109.01.243-.038.258.056.243.002.076-.04.07.005.062.056.066.215.161.2.248.23.174.213.111.135.008.22.2.436.144.14.05.095.082.07.095.004.102-.067.048-.094.138-.039.167-.069.043-.07.003-.051.049.012.072.058.069.091.062.173.062.172.091-.002.072-.035.079-.218.029-.163.013-.074.033.006.138.458.145.208.136.109.177.292.117.475.057.33.183.186.305.302-.073.421-.454.412-.118.405.217.221.179.038.139-.094.057-.226-.027-.186.087-.145.199-.022.212.102.225.143.155.186.086.099.117.013.149.048.041-.106.068-.114.102-.065.178-.017.285-.36.223-.135.041-.061.148-.095.417.011.313.049.159.022.13.117.159.106.244.07.322.156.248.399.244.198.142.147.206.112.186.329.247-.025.176-.072.172-.076.081-.164.221-.16.124-.263.389-.415.021-.099.031-.158.106-.077.194.074.156-.007.157-.075.305.1.327.147.149.023.086-.025.152-.219.31-.066.115-.219.056-.075-.029-.113-.106-.105-.032-.261.125-.266.077-.209-.058-.206-.007-.143.051-.108.02-.212.134-.339.097-.157-.021-.058-.126-.064-.179.031-.082.225-.142.025-.135.314-.654.06-.213.002-.069-.082-.047-.172.002-.763-.266.035-.305-.224-.165-.242-.147-.04-.164-.269-.332L6.225,12.1l-.251-.093-.216-.137-.13-.084-.058-.155v-.092l-.065-.089-.104.01-.177.124-.217.106-.038.078.079.183.056.118-.026.11-.068.141-.418.31-.047.109.08.174-.051.08-.349.115.009-.095-.022-.153-.2-.163-.283-.126-.628-.433-.241-.057-.216-.051-.309-.207-.159-.037L2,11.638l-.384-.502-.327-.274-.223-.138-.063-.135L.99,10.45l.007-.047.169-.198.13-.028.167-.007.111.1.144.022.081-.128.042-.184-.019-.235-.349-.547-.299-.382-.035-.085.065-.072.105-.038.112.032.292.028.281-.036.096-.093V8.426l-.102-.117-.329-.315-.256-.278-.302-.214L.878,7.416.812,7.307.784,7.191l.025-.213.015-.272.052-.17.202-.323.193-.343.119-.33.063-.307L1.43,5.144l-.101-.065-.212-.067L.821,5.07.57,5.182l-.098.009L.439,5.053l.039-.061L.557,5l.065.026.069-.063.042-.185L.628,4.13l.188-.057.003-.094.017-.083.194.113.272.002.239-.023.036-.064-.002-.092-.05-.073L1.44,3.701l-.061-.09-.161-.04L.713,3.337.465,3.088l.008-.265.072-.145.087-.051L.606,2.578.322,2.455.221,2.284l.083-.219L.156,1.618,0,1.343l.153-.119.021-.17L.186.957.249.959.496.845.586.753.638.644.697.617.862.735l.175.01L1.232.671,1.379.568,1.554.482l.08-.059L1.736.331,1.941.057,2.174,0Z" fill="url(#radial-gradient)"/></g></g></svg>