<svg xmlns="http://www.w3.org/2000/svg" xmlns:xlink="http://www.w3.org/1999/xlink" width="478.967" height="297.4" viewBox="0 0 478.967 297.4"><defs><radialGradient id="radial-gradient" cx="239.4835" cy="148.7" r="199.3289" gradientUnits="userSpaceOnUse"><stop offset="0" stop-color="#9b0400"/><stop offset="1" stop-color="#4c0200"/></radialGradient></defs><title>RU</title><g id="Layer_2" data-name="Layer 2"><g id="Layer_1-2" data-name="Layer 1"><path id="RU" d="M97.3091,26.154l-1.303-.928.107-.469.141-.197.004-.461-.12-.352.052-.724.841.53.08.216.566.369.085.706-.0629.439ZM89.75,127.862l-.281.831-.108.411-.0419.981.028.438.2039,1.15.222.685.284.407.34.299.3519.146.68-.137.67-.413.729.276.646.094,1.277-.413.134.102-.222.468-.038.688.255.518.296-.021.3.086-.088.316.8289.876.756.614-.173.176-.481-.281-.247.095.063.488-.523-.143-.232.299.014.445.064.429-.006.311-.409.121-.235.231.95.505,1.3389.422.3741.172.519.437.234.112.021-.281.104-.243.6229.541.5181.097.5209.006,1.264-.222.054.144.001.282.253.222.31-.091.097-.194.408.261.077-.235.078-.099.82.801.183-.029.173-.229-.405-.604-.23-.1-.21-.323.353-.165.349.045.165.267.148.356.076.075,1.396.485.283-.135.047-.261.515-.211.501-.575-.194-.315-.204-.225-1.1729-.715-.479-.437-1.2361-1.555-1.153-2.076-.629-1.426-.577-1.62-.188-.836-.212-.772-.486-.597.217-.721.0789-.838.2571-.69.065-.352-.334-.856-.024-.594-.087-.286-.01-.524.171-.337-.038-.446.106-.247.491-.222.237-.683.05-.47.014-.424.27-.219.7411.001.106-.164.138-.395.063-.542-.073-.748.0629-.478.4081-.777.177-.246.09-.601-.222-.237-.598-.298-.983-.121-1.312-.387-.557-.475-.508-.259-.384-.043-.3579.173-.9781.69-.353.176-.313.048-.632-.22-.315.056-.336.322-.341.212-.434.134-.299.404-.149.343-.025.421.135.894.029.3651.3439.54-.3259.124-.333-.09-.311-.003-.313.13-.283.235-.653.797-.08.216-.063.295.2151.314.219.205.655.127-.217.466-.045.263.113.388-.322.624-.098.428-.023.427-.123.501-.1111.332-.1019.156-.3481.2921-.155.511-.209.392-.226.2209-.514-.013-.515-.202-.225.101-.4279.3911Zm2.717-98.049.159.177.081.202.618.093,1.866-.196.37-.616.351-.096.207-.664-1.026-.916-.394-.718-.047-.606-.402-.172-.932.172-.387.921-.1.486-.292.359-.859.342-.16.209.3661.835Zm8.886-17.137,1.333-.652.482.833.418.062.439-.422.4291-.729.947,1.093.818.783.895-.623.401-.509.287-1.054-.29-.896-.149-1.207,1.44-.354.539-.59-.359-.863-1.177-.372-.433-.43-.146-.754-.263-.355-.73.416-.2571.145-.768-.114-.3319.584-.714,1.648-.8821.683-.695,1.565-1.052-.49-.887.339.299,1.537Zm-3.762,7.194.4391.069.254.311.126.463,1.26-.23,1.188.846.4819,1.143.48.153,1.212-.077,1.401-.531,2.148-1.597.319-.645-.354-.481-1.847-1.646-1.226-1.524-.849-.555-1.963.167-2.109-1.737-.238.05-.609,2.285-.14,1.475-.355.035-.548.529.06,1.029Zm10.071-16.761.928-.38,2.978-.855.002-.431.145-.875L111.3041,0,108.14.518l-.42.61-.1111.964-.102.506.032.223ZM82.7491,24.554l-1.299.127L81,23.832l-.1741-.184-.2709.124-.274.303-.877.253-.673.485-.71.945L75.892,28.182l.263.708.302.339.4081.898.723.042.265-.137.284-.686.556-.251.703.101.238.441-.714,1.007-.254.645.294.495.568-.113.241-.177.197-.373.2-.171.615.604.226-.234.185-.788.0621-.412.077-.199.605.563.265.096.24-.12.093-.738-.0561-.578-.088-.387-.1049-.184-.654-.225-.034-.163.3759-.896.2391-.26,1.937-.124.584-.821-.1241-.791.27-.434,1.2169-.506,1.912-.223.52-1.088,1.5641-1.445-.315-.924-.383-.068-1.5071-2.563-.327-.422-1.038.059-.43-.292-.432.06-1.73,1.038-.739.775-.272,1.911.127.973-.021,1.674Zm3.716-9.982.299.701.274.078.387-.111.098-.441.442-.658-.19-.777-.4559-.361-.349.022-.196.205-.044.255-.115.328-.271.067.025.358ZM82.3711,149.73l-.304.117-.599.47-.611.72-.263.606-.066.675-.045.687-.004.442.044.439.0609.327.345,1.07.64.555.683-.077.758-.273,1.251-.631.6-.889.228-.623.485-.568.133.215.065.476.158-.088.175-.314-.05-.762-.275-.565-.479-.415-2.164-1.609ZM72.3691,23.794l.706.399.921-.557.153.49.102.971.229.628.665-.17.38-.317.309-1.108.151-.354.936-.013.376-.805.1489-.101.297.15.31-1.179.2751-.232.247-.939.295-.406.203.157.749,1.531,1.631.67.163-.068.008-1.463-.391-1.07-.286-.473-.282-.228-.286-.079-.965.19-1.284-.722-.251.013-.931.679-.621,1.037-1.324.35-3.376,1.439-.616.706.686.215ZM88.33,34.205l.9959.184.011-.184-.072-.198-.231-.452-.236-.305-.014-.309.046-.621-.893-.742-.73.743-.57.213-1.07.888,1.019.902Zm-2.876-2.302.058-.573.693-1.031-.026-.218-.165-.558-1.031-.178-.919,1.175.09.374,1.073,1.23Zm36.664-15.216-.832,1.3-.636.721-.203.549.6741,1.038.679.87.521.265.5219-.043,3.2961-.964L127.4,19.311l1.2341-1.979-.1841-.666-.033-.719.062-.875-.203-.717-.387-.866-.404-.464-.634-.509-.636-.023-.744.427-.1519.561-.128.693-.125,1.277-.1971.672-.6729.308-.677.004Zm-20.745,14.721.246.287,1.092.174,2.2069.081.2621-.378-.021-.73.13-.897.0109-2.039-.1229-.567-.3771-.256-.666.049-.146.551-1.77-.184-.098.355.063,1.927-.196.669Zm-1.484-2.006.799-.779-.126-.473-.229-.257-.317-.128-.417.497-.314.65.193.464ZM110.84,10.763l.606-.24.173-.369-.264-.765-.577-.592-.546.11-.69.589-.068.431.306.441Zm-2.546,3.624-.246-.357-.147-.076-1.104,1.572-.69-.274-.559.535.545,1.822.967.462.528,1.687.976.499,1-.054.611-.2.199-.918-.079-1.165-.245-.639-.15-1.025-.391-.911-.322-.363Zm3.133,8.421-.051.774.046.874.118.281.852,1.25.702-.25,1.062-.819,1.246,1.012.923.271.656-1.458.877-.515.234-.879.247-.252.86-.273.109-1.153.217-.808.101-1.122-.168-.709-.183-.562-.708-.342-.71-.125-.798.537-1.384.637-.95.392-.571.049-.121-.639-.3939-.191-1.063.216-.347.349-.12.578-.152.299-.305.941Zm.928,125.217.246.12.247.085.3-.011.299-.162.532.237.313-.223.317-.086.104-.549.01-.747-.084-.403-.163-.225-.618-.496-.607-.703-.896-.732-.301-.431-.29-.515-.325-.422-.622-.631-.113-.196-.12-.039-.592.27-.326.613-.176.073-.269.272-.132.428.267.92.105.219.08.339.129.304.765,1.296.144.078.221-.225.174-.091.348.191.318.065.34.197.221.613-.009.423ZM127.96,81.693l-.349.036-.346.149-.68.698-.686.571-2.63.816-1.558.861-.531-.101-.873.173-.656-.131-1.263-.584-.611-.088-1.032.195-.125.1-.345.479.008.751.048.576-.158.357-.156.21-.396.029-.198-.411-.349-.054-.918.145-.451.346-.23.961-.714.439-1.222.448-.663.384-.324.022-.318.195-.642.893-.657.65-1.011.644.04.499.059.298-.87.965-.211.584-.216,1.092-.0689.168-.855-.355-.602-.118-.275.097-.407.263-.098.255.056.561.132.367-.858,1.607-.239.018-.27-.46-.282-.286-.354-.244-.355-.084-.322.284-.311.476.0311.374.117.348.379.601.96-.109.248.439.197.171-.788.643-.854,1.088-.712,1.488-.218.303.079.393.144.363.2529.157.5491-.01.533.484-.165.155-1.858.473-.211.172-.894,2.416-.2869.591-.25.342-.274.631-.255.757-.104.084-.615.159-.596.505-.591.64-.3141.219-.249.346.213.691,1.027,1.543-.205.603.473,1.278.746-.663.569-.304.668-.043.768.607.755.346,1.362.107.544.311.566.165.572-.069.926-.608.4781-1.356.914-1.049.2319-.477-.22-.878-.487-.688.063-.236.38.125.4359.504.151.074.276-.01.2491-.361.077-.457-.053-.479-.211-.771-.03-.406,1.892-1.176.495-1.014.133-.64-.055-.402-.235-.977-.168-.443.092-.364,1.104.38.314-.239.17-.231.127-.466.03-.623.07-.582.1631-.289.999.84.219.038.221-.284.053-.291-.104-.329.036-.537.659.013.274-.12.399-.435.22-.434.389-.411.175-.315-.131-.448-.6-.266.101-.398.558-.512.1631-.049.341.046.18-.147.3091-.46.299-.578.594-.646.2849-.644.3011-.374.366.044.364-.097,1.263-1.201,2.75-1.658.76-.308.962-.743.336-.043,1.356-.535,1.353-.781,1.282-.586,1.173-.749,1.861-.914,1.052-.735.662-.294.656-.419.668-.622,1.123-.897,1.123-.559.16-.339.943-1.62.958-1.486-.117-.455.091-.597.144-.584-.084-.646-.107-.356-.489-.998-.599-.78-1.315-.708-1.025-.261-.328.047-.761.548-1.221.496-1.357,1.27-.792.919-.292.71-.27.907-.303.412-.331.008-.305.13-.614.602Zm-22.795-56.768-.18.435.203.391.288.826.0721.466.0059.673.1891,2.228.143.589.169.311,1.145.574.438-.313.58-1.204.26-.087.084-.765-.005-.825.32-.35,2.406-.409-.392-.758-.404-.462-1.379-.826-2.6891-.18Zm10.529-7.576.881-.369.93-1.085.2689-.707-.31-.971-2.443.295-1.232,1.281-.194.313-.057.261.738.521Zm4.784-13.297.117.269.875.466,1.806.236.344-.245.369-.781-.042-.277-.1619-.448-2.5671-.615-1.434.241-.499.528,1.147.391Zm-10.137,29.305.509.33.192.255.094.247.359.159,1.006-.526.623-.62-.307-1.434-.722-.59-1.524,1.058-.155.188ZM8.7191,240.862l.341-.999-.018-.16-.248-.28-.306-.204-.169-.432-.62-.025-.585.024-.184-.021-.5571-.181-.5369-.292-.359-.171-.3021-.192-.163-.202-.257.054-.174.002-.036.767-.095.843-.542.158-.304-.033-.318-.183-.271-.042-.233-.13.743-.984.276-.468-.163-.038-.152.268-.468.635-.445.526-.347.213-.812-.025-.374.172-.06.4411-.026.3909-.239.563-.282.43L0,241.701l.112.058.787.063.796.063,1.281.068,1.335.071,1.385.074,1.5.08,1.581.047.097-.032-.118-.234-.125-.421.013-.337Zm85.586-104.893-.036-.483-.144-.232-.188.035-.2249-.466-.255-.646-.355-.306-.125-.034-.033.122.026.304-.315-.248L92.3611,134l-.606.248-.159.279.027.352.112.127.382.271.34-.098.538.608.143.57.13.252.32.279.154.362.051.37.276-.115-.043-.149-.162-.273.066-.294ZM218.8611,30.367l-1.31.25-1.976.796-.391-.093-.322.216-.854-.215-1.0121.072-.3.535-.1469.498-.159.188-.825-1.078-.1141.124-.369.885-.269.382-1.044,1.117-.254,1.792-.614,1.167-.536.855-1.241,1.096-.938,2.111.565.567.579-.067.786.173,1.291.75.267,1.44.473,1.339.386.393.034.769.058.199.39.606.644.502.316.045.853-.736.265.018.481,1.273.263.155,1.5461-.212.232.188,1.0609.266.178.31.173.438.885.961.863.601.3729-.011.607.248.4191-.155.6409.375.36.104,1.146-.44,1.74-.231.284-.269,1.091-1.584-.084-.661-.2379-1.322-.1791-.175-.656-.334-.5609-1.45-.7731-.992.1761-.187.176-.014.619.477.42-.027.402-.707.115-.938-.0431-1.198.0411-.436.078-.36.0629-.812.029-.94.0671-.387.0949-.248.215-1.089.4081-.612-.3221-1.14-.359-.785-.258-.349-.534-.343-.1779-.464-.287-.262-.213-.484-1.203-.471-.7571-.111-.182.14-.168.559.076.903-.409,1.103-.225.163-.586-.431-.543.773-.411,1.131-.204.328-.17-.226.101-1.198.373-.725.135-.97.277-.765.312-.31-.32-1.172-.643-1.035Zm-2.799,54.639.068-.502-.229-.169-.734-.322-.336.396-1.0231-.26-.538.523-.603-.466-.162.324-.03.553,1.031.248.465.393.742.056.538.395.148-.653-.0079-.408.382-.254Zm.809-1.586-.119.124-.007.246-.26.785-.0029.601.0419.131.1221.086.1569-.126.3381-.44.2219-.781-.0219-.152-.154-.333Zm8.601-45.086-.076,1.089.619-.196.462-.875-.446-.21-.205-.271-.315.168Zm-7.387,41.061.088.738.249.462.294.076.149-.181-.58-1.305Zm28.86-7.995-.302-.219-.337.006-.271.736.092.605.316-.015.742-.325-.042-.402-.099-.254ZM226.37,53.849l-.015.819-.119.538-.146.449-.11.47-.186,1.26-.1079.576-.957,1.457-.371.754-.3,1.291-.426.622.293.505.3061.332.9669.259.6661-.244,1.288-.979,1.399-1.299.461-.669,1.37-.033,1.37-.15,1.226-.266.157.315.172.162.1749.027.579-.934,2.01-.033,1.623-1.062.623-.197.624.131.255-.18,1.347-2.059.085-1.329-.0919-1.027-.151-.958-.1451-.675-.1649-.562-.368-.354-.375-.168-.695.286-.509-.652.07-.631-.078-.594-.126-.193-.879-.53-.244-.729-.221-.899-.35-.388-.359-.011-.672.356-.658.813-.346.219-.3531.011-.296.611-.272.951-.45,1.142-.491.521.1-.599.8369-3.371.1161-1.048.273-1.163.154-.259.316-.171.1279-.251-.158-.49-.7069-.921-1.08-.627-.344.048-.161.262-.124.603-.01.922.207.854-.344.054-.346-.168-.2621-.725-.247-.889-.177-.026-.331.161-.1469.166-.1.573-.034.878-.652.328-.321.423-.133.711-.271.501.0441.4-.1041,1.079-.184.247-.18.389-.104.795-.023.41.117,1.238.162.347-.225.07-.719-.199-.291.139-.279.499-.3709,1.061Zm16.861,5.944.567-.534.09-.229.489-.046h.112l.002-.403-.08-.311-.143-.271-.515-.053-.299.934-.82.11-.097.613.357.295Zm-35.55-23.75.561-1.399-.902-.586-2.495-.893-1.177-.792-1.183-.111-.915.05-.552.3-.446.796.156,1.23.7021,1.107.863.712,1.3189,1.668.805.144.682-.152.682-.302.6421-.521.638-.73Zm-19.396,64.394.659.188.237-.334.316-.84-.2021-.461-.146-.102-.739.314-.235-.199-.1339-.125-.283.291-.488.292-.202.489.37.459ZM351.0431,266.96l-.221-.275-.492-.491-.2541-.554-.1929-.561-.091-.519-.113-.507-.163-.482-.2621-1.016-.651-1.688-.2249-.984-.566-3.281-.128-.138-.044-.099-.016-.46-.033-.313-.1061-.221-.2719-.282-.059-.221-.014-.506-.124-.469-.1681-.438-.099-.633.047-1.214.081-.4289.177-.164.087-.232.08-.389.025-.399-.0219-1.219-.104-.798-.078-.387-.102-.368-.36-.905-.498-1.443.052-.079-.07-.32.043-.3671.113-.349.053-.2709-.026-.2641-.604-1.212-.191-.107-.075.279-.1421.262-.18.118-.607-.008.369.633.571.859.101.3451-.0641.3779-.112.375.1291.031-.026.2641-.356.103-.1221.307.209.239-.161.42-.286.173-.15.038-.146-.014-.39-.369-.106-.055-.498.185-.3141.314-.0809.234.043.94.098.464-.051,1.14-.146,1.099-.156.463-.184.439-.061.395.021,1.547.147.393.2449.261-.103.169-.139.07.139.208.284.271.373.493.238.41.325.927.004.999-.171.481-.131.504-.097.645.014.509.202.891.0281.418-.03,2.813-.0949.558-.118.548-.13,1-.114.454-.3171.945.019.204.068.2.368.751.3.788.13,1.161-.091.464-.206.391-.169.448-.145.47-.005.181.0609.811.093.425.061.43-.077.452-.406,1.375-.102.989.242,1.135.038.333.089.302.151.208.173.179.203-.331.166-.361.268-1.086.129-.41.1581-.39.203-.365.278-.23.162-.063.157.022.156.164.135.206.0949.061.613.052.658.137.196.336.051.478.136.553.036.78.09-.165.0529-.187.0231-.237.051-.225.202-.529-.006-.184-.107-.687-.153-.722-.108-.163-.177-.056-.184-.0069-.284.0509-.111-.2009-.249-.642-.234-.912-.184-.413-.0981-.161-.116-.124-.177-.101-.156-.15-.211-.35-.256-.61-.063-.224-.03-.613.079-.782.216-.733.899-2.8381.155-.801.22-.3989.3679-.274.409-.12.982-.091.2441.015.4169.139.2281.116.215.174.444.593.359.356.35.396.237.335.146.578.1149.162-.02-.76Zm-168.32-161.779.136-.623.32-.588-.542.033-.392.23-.4241.377.1111.252Zm-3.648,3.716.111-.124.128.033.149-.238.1939-.181-.294-.337-1.021-.3-.693.233-.2379.382.9569.167Zm23.089-80.21.713.343.563.43.307.725,2.247,1.266,1.831,1.502.6111-.008,1.2789-1.069.6641-.816.2709.053.842-.452,2.511-.436,3.703-1.057.346-.526.333-.839-.366-.324-.103-.343-.3791-2.255-.119-.396-.1329-.268.246-1.345.304-.662,1.246-.443.229-.357.307.011.038-1.136-.106-.613-.362-.5-.812-.267-1.849-2.058-.173-.65-.366-.645-.1031-.82-.155-.43-.798-1.542-.313-.162-.2559-.342-.229-.906-.285-.367-1.799.175-.277,1.526-.626.889-.635.451-.662.132-.661.324-.705.562-.707.365-.392-.019-.39.135-.823.775-.355,1.119-.487.582-.153.37-.28,1.096-.05.511.506.214,1.374-.396-.79,1.54-.433,1.46-.698,1.461-.93.582-.982.367-.586.998-.46,1.008Zm41.475,32.014,1.645.602.961-.04.387.555.35-.337.25-.658-.343-.748-.183-.052-2.596.299Zm-30.127,14.601.238.383.25.196.664-.344.3319.129.123-.189.09-.242.39-.558.3839-.734.002-.308-.0939-.651-1.8931,1.362-1.2169.516-.422.47.2639.092ZM197.5011,14.05l3.5.893.966-1.403-.251-.781-1.0349-.278-2.9161-.268-.474.788.052.401Zm129.021,80.251.202-.321-.155-.534.051-.401.521-.941-.117-.226-.625-.779-.155-.396-.172-.79-.251-.536-.238.903-.1.642-.048.833.088.677-.194.906-.141.365-.06.821.825.084Zm2.969,1.932.594,1.22.643.758.34.148.323.348.65,1.487.242.471.256.316,2.17,1.029.326.29.329.181.326-.033.31-.289.293-.664.231-.947.1-.712.163-.448.211-.2.217.004.709.744.721.514.551-.098.552-.277,1.823-.445.616-.259.613-.383.671-.094.315.436.237.554.289.534.256.229.265.087.43-.182.427-.326.982-1.105-.557-.999-.653-.443-.226-.33-.987-2.344-.186-.517-.134-.723-.182-2.285.622-.353.6841-.332,1.096.087.17.606-.0461.301-.333.694-.373.306-.098,1.072.084,1.238.254.772.286.555.696,1.102.634.372.646-.013,1.105.428.551-.158.538-.469,1.335-1.829-.1939-.614-.246-.455.215-.562.618-.823.944-.457-.141-.377-.153-.243-4.404-3.164-.354.038-.698.437-.354.1-.725-.152-.723-.419-.587-.462-1.288-1.62-.728-.751-.7211-.341-.5219.857-.748.869-.133.283-.099.429-.068.697.002.778.039.563.011.559-.154.549-.206.241-.446-.039-.153-.111-.155-.218-.142-.302-.302-1.208-.321-.304-.344.144-.29-.219-.856-1.429-.603-.699-.891-.783-.287-.322-.257-.606-.2751-.43-.296-.035-1.076.816-.626.177-.3129.402-.1611.387-.1729.227-.569.14-.418.319-.182.382-.167.525.26.991.316.729-.977-.251-.251.367-.151,2.208.21,2.298-.348.022-.516-.208-.098.441.042.61Zm66.359,42.782.189-.144-.2069-.52-.2231-.345-.3289-.088-.022.098-.01.613.19.268Zm-32.125-59.467.179-.856.388-.428-1.928.435-.762.85-.139.35,2.109-.142Zm-6.397,18.574.614.696.3171.153,1.038.274.3189.292.6481.803.3389.339.573.271,2.1141.299,1.534-.001.6779-.243,1.384-.766.698-.561.186-.277.494-2.305-.184-.064-.187.078-.2181.384-.23.222-.318-.376-.384-.325-.495-.606-1.287-.279-1.578-.193-.536.374-.848-.091-.323-.397.04-.408.083-.3-.027-.566-.215-.29-2.625-.301-.15.028-1.075.82-.744-.072-.132-.645.008-.915-.6-.802-.277.266-.2689.867-.2391.973-.2009,1.088-.105,1.071,1.558.921Zm16.728-11.948-.062-.489-.081-.255-.1-.113-.439.235-.236.366.6389.676Zm72.708,52.702.193-.038.816-.46,1.391-.16.655-.659.333-.149.746.184.6389.415.2551.038.7269-.179,1.7651-.645,1.307-.234.676-.222.837-.86.07-.455-.095-.383-.146-.163-.653-.51-.443-.444-.229-.414-.217-.245-.227-.143-.39-.42-.24-.106-1.228-.318-.33-.144-.33-.027-.406.217-.409.045-.404-.14-.406.04-.432.239-.436.117-.318.127-.479.505-.473.164-.8771,1.082-.966.816-.174.463-.407.626-.156.504.0561.403Zm-49.583,13.338.031.684.129.225.509.292.272.383-.014.231-.095.518.125-.01.111-.207.029-.328-.063-.363-.2819-.709-.047-.693-.014-.778-.061-.608.065-.354.466-.182.193-.515.023-.734-.271-.335-.044-.044-.269.353-.242.44-.5969.569-.078.512.229.574Zm19.273-4.632.426.506.571.396,1.594.749.8-.073.126-.166.05-.222.101-.856.093-.282.24-.078.044-.43-.036-.194-.1291-.216-2.854-1.088-.4539.06-.384.274-.547.604-.143.229-.07.295.091.14ZM259.7431,81.096l.401.137.274.651.385.405.121-.028.032-.367.078-.196.1309-.124-.0789-.523-.435-.821-.235-.278-.315.309-.759-.176-.119.081.095.281Zm65.376,26.366.519.599.229.633.945,1.327.197.446.212-.29.174-.724-.624-1.075-1.146-1.332-.678-.345.044.533Zm-30.778,3.379.172-.022.309-.383-.0449-.125-.25-.338-.331-.093-.2621.149-.002.183.086.361Zm42.67,4.204.28.692h.3921l.286-.061,1.025-.726.759-.164.256.059,1.203.559,1.1619.768,1.4861.285.6049.28.688-.004.714.083.987.234.725-.103.112-.147-.077-2.08-.149-.612-.188-.474-1.978-2.34-.573-.488-.7021-.448-.71-.192-.701.108-1.038.327-.343-.047-.295.107-.284.346-.28.543-.522,1.484-.292.642-.598.806-.633.251-.659.088Zm-55.226,3.704.711-.433-.068-.168-.444-.478-.32-.106-.568.118-.341.301.4261.761Zm57.257-8.653.274.031,1.412-.82.103-.52.142-1.203-.05-.427-.115-.344-.265-.227-.2671-.094-1.24.075-.301.096-.299.212-.259.541.229,1.839Zm-162.584-1.569.378.198.273-.352-.06-.208-.219-.382-.239-.132-.402.125-.148.187.146.327Zm155.307,23.682-1.501.071-.319.202-.1079.009-.134.119-.05.113.041.245.524.409.221-.041.166-.148.152-.054.152.078.283.359.277.094.696-.745-.073-.311-.213-.357ZM195.6021,73.258l.603-.061.4261-.833.039-.328-.1791-.392-.939.122-.228.376-.164.574.105.214Zm216.605,166.063-.211-.272-.438-.782-.051-.377.129-.342-.18-.059-.787-.135-.283.2189-.223.061.676.511.209.269.045.29.104.226.31.458.267.351.159.129.23.055.161.288.348.356.015-.704-.2039-.3341Zm-33.303,25.461-.006.372.291.113.269-.19.055-.154-.077-.518.228-.423.046-.276-.21-.072Zm-4.39,6.7-.182.288.056.06.14.031.133-.236-.062-.191Zm8.288-12.702-.328.322-.314.889-.26.359-.691.14-.301.332-.304-.021-.065.146.1339.227v.516l.1291.146.304.087.146-.159.189-.296.256-.138.519-.108.361-.438.347-.656.157-.473.0629-.494-.073-.445Zm1.051-.466-.459.343-.126.234.079.131.363.278.111.023.111-.105.219-.414.013-.406-.089-.074ZM173.9361,95.174l.211.465.121.092.4569-.397.125.593.206.172.201-1.037.362.022.118-.128-.036-.405-.102-.361-.019-1.076-.404.024-.306.177-.009.422.048.558-.237.032-.365-.495-.594.93.089.314Zm207.608,163.369.2559-.05.024-.104-.039-.289-.1989-.106-.284.093.0449.195.0831.143Zm-9.508,15.78-.354.392-.492.599-.419.066.023.098.086.166.172.005.523-.45.806-1.005-.152-.005Zm5.502-7.504-.097.308-.279.253.023.071.119.072.107-.219.346-.284.0671-.148-.0831-.055Zm-22.669,22.126-.059.051.012.051.037-.009.068-.047.047-.029.04-.042-.034-.034Zm.798-.825-.064-.017-.074.051-.028.034.041.017.123.021.074-.021-.024-.073Zm-.353-3.31-.268-.01-.482.89-.141.094-.107.217-.221.25-.07.224-.23.282-.573.498-.101.235.037.284.327.28.087-.699.506-.371.338-.416.074-.218.557-.555.17-.089.347-.048.394-.37.224.004.145-.258-.5949.062Zm-.775,4.044-.049.006-.052.003-.039-.02-.035.007v.028l.035.025.014.042.021.051.037-.01.067-.013.034-.003-.007-.073Zm8.122-7.833.002-.12-.039-.096-.11-.066-.186.023-.265.144-.809.806-.545.096-.208-.016-.257-.46-.113-.022-.145.33.036.297-.326.139-.313.387-.281.121-.357.464-.516.352-.258.354-.039.405-.468.383-.114.207-.102.426.564-.498.3061-.087.288-.487.711-.622.13-.202.035-.229.101-.128.354.074.363-.126.257-.316.722-.582.4279-.12.519-.28.537-.025.13-.154-.096-.203Zm4.163-2.989-.972.72-.467.586-.365.146-.614.987.258.008.417-.203.55-.565.198-.158.288-.108.388-.337.111-.318.894-.792-.573-.02Zm-9.778,9.263-.568.184-.023.062-.014.219.208.094.087-.106.52-.234-.042-.097Zm10.781-69.686-.206.344-.344.235.005.105.11.149.221-.062.387-.417-.042-.1481Zm39.028-.334-.155-.031-.885.713-1.238.442.017.232.05.231-.162.711-.421.851-.419.333.013.176.043.115.068.082.459-.504.912-.757.895-.51.945-.257.129-.462-.091-.771ZM158.7091,39.777l.853.516.503.016.036.788.451.06,2.186-.191-.111-.346-.531-.502-2.505-1.341-.2671.435-.3469-.559-.282-.209-.272.308.058.298Zm-.039,73.998-.159.306.425.466,1.193.362.271-.062-1.418-1.081Zm-.877.941.207-.221.422-.67-.0331-.105-.307-.136-1.012.327-.547.625-.086.444.447-.24Zm-3.908,5.347.431.253.141.165.063-.092.103-.327-.104-.207-.036-.38.268-.611.614-.287-.663-.44-.352-.132-.536-.084-.591.207-.157.335-.118.508.226.443Zm13.088-100.634,2.604-.636.894-.35.08-.259.152-.8-.4161-.394-1.327-.457-1.653.269-.302.655-.371,1.335.082.237Zm-25.202,99.21.505.114.229-.035.824-.452.598-.237,1.315-.415.76-.111.0121-.493-.1141-.568-.406-.576-.263-.295-.336-.742-.254-.298-.331-.259-.233-.101-1.656.363-.5629.324-.4321.838.0641,1.318-.093.535-.1551.413-.028.406.338.456Zm24.591,2.907,1.544.387.198-.106.1031-.449.01-1.419-.362-.617-.156-.533-.54-.537-1.424,1.938-.066.396.16.45Zm249.783,119.036-.483-.386-.331-.134-.227-.288-.197.005.131.296.531.472,1.134.894-.1191-.252ZM162.1441,123.299l-.329.739-.312.437-.691.683-.09.449.098.179.673.146,1.366-.086.416-.16.636-.776.4131-.228.5919-.608-.0349-.204-.207-.457-1.488-.731-.478.003Zm167.317,115.325-.562.408-.227.26.142.049.386-.071.188.178.2411-.013.346-.848-.063-.036-.22.079Zm2.906.192-.2541-.192-.085-.085-.935-.426-.095.167-.3029.72-.144.075-.307.535-.119.489.1209-.009.523-.394.177.231.381.837.169-.048.193-.163.224-.255.251-.191.089-.154.071-.39.225-.439.3079-.208-.096-.13Zm146.474-64.032-.312-.141-.997-.04.146-.222-.056-.245-.099-.247-.152-.155-.168-.027-.3431.138-.341.203.173-.293.196-.204-.103-.164-.1291-.095-1.0419-1.21-.6241-.444-.593-.594-.587-1.008-.635-.807-.662-.298-.68.056-.487-.188-.487-.252-1.085-.274.0171.223,1.176.403.176.181-.082.157-.2559.04-.904-.122-.269-.099-.248-.309-.13.039-.099.18.034.41.114.333-.234.175-.248-.081.012-.413.055-.326.279-.576.158-.123.027-.122-.943-.26-.26-.199-.261-.087-.574.276-1.5809.024-.2881.09-.012.199.1.1.247.082.25-.015.163.274.363.14.19.28.127.482.063.343.037.348-.154.63-.222.263-.258.146.099.361.265.282.508.133.221.235.192.377-.163.48-.19.389-.156.165-.109.286-.087.112h-.111l.133-1.066-.188-.635-.341.146-.143.167-.307.561-.078.029-.069-.194-.099-.406-.067-.437-.072-.322-.306-.335-.175-.127-.532-.068-.17-.071.154-.72.277-.422-.035-.944-.126-.319-.158-.279-.149-.667.021-.797.17-.472.057-.584-.191-.428-.237-.218-.177.176-.161.266-.09.084-.617.058.399-.651-.02-.545-.0739-.333-.123-.261-.1-.561-4.384-3.287-.742-.418-.353-.361-.31-.171-.317.063-.192.095-.141-.128.13-.302.185-.101-.438-.519-1.59-1.364-.346-.186.248.361,1.187,1.071.1829.306-.353.39-.375.164.104-.438-.084-.5-.137-.277-.413-.32-.644-.268-.614-.339-.123-.361-.042-.519.387.441.211.134-.4229-.688-.519-.61-1.134-.548-.215-.216-.322-.462-.123-.037-.227.083-.57-.265-.565-.336-.37-.229-1.671-1.945-.904-.287-.071-.239-.051-.287-.165-.2-1.138-.525-1.429-.341-1.514-.931-1.319-.277-1.442-.991-.85-.746-.5219-.286-.4781-.072-1.279.359-1.431.036-1.309-.211-1.042.061-.603-.139-.8271-.455-.239.187-.2139.818-.62-.334-.524-.447-.869-.397-1.653-.262-2.031-.623-1.063-.164-1.069-.095.108,1.393-.063.664-.403.858-.444.548-.113.457,1.183.348.37,1.562.476.99.317,1.018-.004.703-1.284,1.716-1.325.207-1.279.098-.548-1.038-.2919-1.251-1.022-.659-1.006-.514-.462-.088-.337-.253-.205-1.396-.2249-1.045-.287-.388-.274-.593-.261-.235-.643-.099-1.558,1.499-.529.438-.18.002-2.357-.372-.616-.309-3.501-.199-.993-.889-.6-.128-.675.27-.582.069-.833-.174-.72.259-1.598.271-.588.303-.62.534-1.146,1.324-.159.631v.779l.239,1.084v1.241l-.197.431-.365.208-.378,1.308-.354.703-.697.185.396-.531.371-.356.594-1.947-.086-.602-.475-.443-.296-.465-.15-1.867-.148-.989-.052-1.185-.48-.394-1.74-.603-.805-.447-.289-.693.3079-.979-.021-.751.1631-.637.263-.519.065-.733-.135-.951-.131-.691-.301-.833-.216-.378-1.0591-1.198-1.8189-1.234-1.867-.897-1.6551-.305-2.141-.166-2.215-.015-.84.492-1.59.038-1.7281.515-1.739.811-.937.012-1.858.368-.813.009-2.096-1.269.667-.172.261-.18-.935-1.686-.498-.604-1.227-.76-.4979-.059-.41.154-1.624.838-.4081.354.8061-.981.395-.413.4-.611-.093-.385-.098-.188-1.513.083-.097-.093-.319-.526-.156-.185-1.008-.557-.729-.213-.757-.022-.126-.216.088-.264.029-.167.234-.296.648-.268,1.688-.157.381-.475-.053-.496-.098-.378-.553-.901-.743-.668-1.5059-.808-1.58-.549-2.717-.268-.482.12-.3791.331-.651.87-1.479,2.508-.827,1.0249-.754.555-1.729.454-.317-.104-.2411-.411.079-.361.157-.334.011-.214-.087-.418.048-.226.174-.01.408.2941.382.041.98-.462v-.72l-.26-.421.129-1.011-.0009-.263.138-.18.114.0371.7069.73.2411-.039.261.082-.63,1.747.302.004.81-.821.5549-.803.5831-1.0359.0689-.5421-.667-.065-4.364.393-1.596.782-.493-.164-.353-.608.538-.06.636-.37.53-.71.34-.13.885.033.714.284,2.154.115.051-.858-.476-.271-1.036-.242-.641-.417-.805-.263-1.77-.373-.743-.311-1.748-.285-.464-.236-4.081-.212-1.524-.643-.586-.656-1.407-.316-.281.009-.09.175-.066.274.899,1.192.029.819.27.404-1.051.636-.714.241-2.384-.028-.357.276-.935,1.268.0121.603.088.927h.714l.21-.405.313-.165,1.452.1471.149.168-.487.268-.469.1239-.581,1.3691-.788.4259.542.2231.479.377-.078,1.656.684,1.271.128.585-.988.02-.875.393h-.312l-.573-.983-.631-.648-.31-.052-.406.64-.581-.355-.235.057-.325.268-.196.356-.148.552-.1909.298-.0251.402.291.181.211.042.608.29-.627.158-.163.189-.0561.219-.474.296.1631.285.201.221.051.225-.146.081-.397-.265-.414-.385-.653-.793-.287-.529-.56-.494-1.992-1.371-.886-.434-.577-.098-.914.18-.561.593-.945.252-.586.48-.312.65-1.684.069-1.162-.486-.737-.501-.829-1.025-.817-1.325-.101-.111-.099-.279-.147-.655-.174-.492-.257.277-.664,1.52-.275.745-.3611,1.408-.268,1.178-.036.4989.125.43-.361.36-.386.879-.581,1.726-.364.623-.46.535-.312.199-.381-.033-.347-.489-.186-1.132-.21-.227-.249.635-.369-.036-.7181-.47-.716-1.018-.741-.469-1.045-2.491-.464-.917-.2529-.745-.594-.079-.2231-.549.297-.394.8-.333.637.05-.4749-.9961-.229-.602-.2491-.328.092.674-.105.486-.215.379-.36.243-1.552-3.01-.933-1.481-.5189-.537-.324-.972.217-.193,1.104,1.152.781.59,1.29,1.521.979-.115.356-.679.003-1.372-.365-1.132-.463-.447-1.592-.094-.368-.367.254-.114.351-.026.51-.335.849-.855.3729-.266-.0609-.667-.594-.918-.964-.128-.21-.089.382-.459.332-.281.5629-.699.131-.646-.116.047-.409-.03-.117-.278.048-.493-.443-.419-.403-.282-.9241-.049.0181-.324.049-.292-.393-.213-.3251-.376-.0809-.342-.1171-.196-.603-.355-1.99-.651-.213.19-.328.927-.803.974-.6079-.527-.121-.053-.099-.251.145-.432.102-.42-.138-.3-.116-.114-.4131.304-.616.192-.262.292-.55.207.052-.722-2.304-1.901-.716-.396-.43-.036-1.035.426-.239.23-.385.623-.858-.394-.21.294-.312,1.032.049,1.007.092.278.08.541.329.836.34.665-.14.154-.142.043-.169.278-.16.565-.291.807-.395.45-.4521-.094-1.078-.607-.248.108-.0689.441.643.376.059.237-.168.15-.4341.124-.778-.026-.646-.159-.403-.608-.388-.084-1.104-.012-1.003.327-1.12-.425-1.898.093-.48-.074-.9119-.815-1.305-.514-1.488-1.253-.15-1.179.226-.955.835-.001.511-.165-.071-.367-.112-.193-1.181-.515-3.204-.093-2.282-.766-3.249-.265-1.465.951-2.12.224-.571.508-.973.281.0819.703.482.542.235.109.255.212-.159.188-.18.084-.354.433-.226.398.063.876-.109.848-.352,1.172-.297.514-.27.689.231.635.263.263.669.32.23.215-.134.185-.988-.215-.354-.687-.078-.372-.085-.581.336-.633.342-.427.296-1.017.036-.938.009-1.956-.601-.445-.336-.669.5819-1.218.146-.645-.2509-.597-.4081-1.305-.4169-.772-.274-.322-.2781-.166.2911,1.278-.234.649-.17.251-1.11.35-.709.022-.964-.364-1.132-.829-.283-.576-.201-.848.651-.369.254-.241-.587-.192-.591-.056-.21,1.155-.382-.086-1.849-.707-.498.234-.603.647-.267.5-.305.816.115.567.129.212.95.141.834-.175.938-.54.216.202.193.292-.266.416-.968.601-1.6091,1.55-.612.182-.8579-.33-.4651.865-.2119.208-1.444.581-.629.086-.185.433-.378.078-.42.217-.704.606-1.071.097-.729-.137-1.771.367-.4569.319-.298.442-.139.563-.26.5-1.007,1.079-.857.443-.727.123.699-.607.798-1.128,1.4359-3.372,1.377-.221.3221-.451,1.047-2.099.292-.314,1.387-.04,1.219-.689,2.4569-3.414,1.2231-.577.841-.824.15-.409.133-.541-.126-.3289-.073-.299,1.082-.59.415-.913,1.4569-.862,1.14-1.166,1.5981-.868.908-1.21,2.058-1.748,1.933-3.042.3159-1.7511-.47-.575-.569-.3609-.317-.869-.229-.103-.578.548-.634-1.876-.776-1.0571.036-.155.086-.071.372.166,1.396,1.56.744.236.218.24.1351.394-.0881.653.229-.05.146-.274.3611-1.269.344-1.727-.039-.751-.823.341-.3821-2.557-.1749-.782-.261-.857-.523-.076-.2751.217.219.289.237.479-.158.487-.133.22-.64.647-.456.059.184-.275.2151-.613-.1561-.672-.164-.375-.182-1.9509-.5789-.295-.326-.315-.433.1279-.562.52.208-.479.217-.716-.436-.88-.429-.605-.521-.228-.584-.7819-.779-.444-1.806-.433-1.38.564-1.717-.457-2.052.355-.804.007-.479-.224-.4311.237-.2189.705-.134,1.102-.506.572-.275.146-1.309-.168-.933.529-.399-.416-.757.029-.081-.931.451.038.263.156.848-1.909.699-1.122.6729-1.292-.424-.801-.946-.542-.443.033-.221.225-1.028-.426-.542.032-.907.597-.31-.049-.1859-1.243-.914.105-3.1371-.119.34-.388,1.651-.531,1.326-.799.981-1.457.913-.494-.214-.735-.249-.533-.518-.472-1.126-.312-.965-.593-.424-.751-1.7671-1.031h-.478l-1.273,1.295-.645-.12-.561.191L232.953,69.1l-3.066,3.979-.631,1.218-.301.915-.549.475-.236,1.115.041.965.246.505.256.947-.2621,1.081-.219.706.209.316.591-.063,1.32.604-.241.555-.805-.476-.702.02-.609-.577-1.463.554-1.0851-.129-1.0089.221-1.983-.458-.18.348.46.597.349.555,1.03,1.296.4379.412.586,1.225.073,2.391-.32.572-.359.795-.192.146-.277-.053.45-.56.2441-1.201.228-.839-.301-.573-.134-.05-.148-.315-1.054-.801-.568-.351-.6-.194-.306-.22-.898.731-.414.166-.49.384-.285.526-.697.124-.09.57-.3889.566-.417-.617-.407.171-.916,1.015-1.072.459.114-.35.176-.789-.258-.182-1.61.92-.536.619-.254-.229.934-1.358.251-.841-.437-.364-.9581-.283-.6149-.027-.9.305-1.299-.447-.193.512-.333.061-.802-.243-.729.261-.546.549-.811-.543-.281.023-.434.849-.374-.573-.316,1.11.089.804.27.083.23-.117.134-.367.174-.166.64.667.1939-.365.277-.271.316.401,1.317-.435-.228.535-1.475.677-2.658.858-.548.336-1.577.295-1.027.84-1.3319.001-2.3011.661-1.655,1.49-.8-.133-1.62,1.125-.644.872-2.336,1.768-1.404-.681-.463.24-.236.624.048.487.566-.045.4119.215.505.427-.135.783-1.06,1.741-.502.65-.594.376-1.2639-1.427-.229.629-.17.311-.5-.128-.252,1.011.913.175.868.455.771.664.5449.763.595.482.347.414-.931.401-.6551-.926-.354-.313-.4-.061-.598.283-.509,1.114.495.379,1.104.369.354.499,1.438,3.23.358.329.466.137.19.219-.566.551-.21.513-.489.894-2.088.459-.621.338-.1715.156-.262.329-.1691.29-.0809.649.171.425.424.394,1.665,1.757-.107.184-.456-.326-.579-.535-.589-.747-.786-.53-.044-.438-.027-.654.021-.203.075-.334.749-.846.763-.413.932-.968.9321-1.077-.191-.369-.192-.266-.846-.072-1.719.377-1.032.356-.457.873-.695.131-.346.021-.953-.434-.899.409-2.106.355-.343.199-4.849.077-.9781.184-2.4849.715-.06.53.0949.404-.386.594-.169.558.0591.657.0159.569.087.737.151.667.362.355.333.23.236.729-.19.844-.275.964-.054.446.178.604.219,1.199.083.296.761.916.518.286.852.066.58.232.845.564.252.256.072.242.2.971.108.304.915,1.331.3079.2019,1.25.254.394.424.544,1.287.054.305.05.493-.059.45-.054.261-.206.413-.538,1.683-.322,1.498.513.994.6879,1.906.203.796.237,1.062-.1.673-.113.403-.457.61-.571.2-.616.371.057.461.106.529-.063.393-.0809.1361-.336.04-.2931-.134-.251-.409-.2379-.526.169-.571.498-1.008.31-1.4539.0789-.966-.021-1.025-.1149-.686-.396-.51-.368.11-.408.447-.396,1.703-.542,1.238-.075.51.012.442-.041.289-.108-.97-.055-.73.302-.919.184-.856-.056-.616-.216-1.016.042-.504.063-.322.129-1.448.479-.287,1.192-1.115.165-.277.361-.982.1681-.353.1909-.587-.356-.467-.339-.252-.641-.138-.591.049-1.312.463-1.174-.082-.422-.27-1.839-2.019-.116-.764-.146-.3171-.178-.0829-.632-.5011-1.46-.641-1.492-1.455-2.6371-.132-.7219.162-.722.451-.66.9171-.303.255-.431.085-.09.326-.081.446.23.329.8079-.389.661.203.35.432.257.839-.1279.408-1.1481.637-.637-.051-1.374-1.465-.532-.262-1.263.246-.835.719-.257.146.1989.733.3141,1.31.271.778.34.382,1.229.936.681.328,1.031.858.633.096.566-.206.854.505.488,1.558.294.534.271.271.382.154.224.021.239-.203.548-.042-.192.446-.205.141-1.169.188-.5751-.16-.7089-.48-1.3431-1.57-1.668-.114-.187.461-.524-.645-1.772-.144-1.0579-.413-1.1271-.663-.096-.322-.05-.454.384-.569.145-.352.0981-1.068-.7181-1.42.074-1.313.338-.22.438-1.71.264-.564.141-.195.132-.394-.141-.496-.132-.299-.148-.696.033-.512.001-.645-.361-.977-.2961-1.056-.6079-.532-.59-.011-.218.146-.219.252.3091.963.312.854.1469.662.104,1.194-.021,1.456-.103.588-.172.498-.528.616-.884.731-.499.355-1.043.39-.751.628-1.644,3.564.18.526.604.574.398.492.194.41.435,1.283,1.626,3.55.092.633-.384,1.12-.756,1.44-.301.806-.708,3.054-.05.776.289.728.476.909.163.687-.323,1.744.17.434.396.225,1.081-.235,1.269.425.67-.203,1.0289-.965.396-.104,1.2341.132,1.8079.928,1.9181,1.244.387.417.518.017.378,2.11.341,1.137.146.802.103.893-.355.188-.313.093-.258.242-.361,1.374-.045.732.191,1.172,1.608.544,1.116.289.785.058.137.133.098.177-.935.079-1.6939.142-.601-.082-.271-.142-.269-.4-.516-.404-.197-.273-.423-.317.207-1.209.0349-2.819-.0629-1.172-.3561-.97-1.057-1.394-.363-.938-.411-.629-.4019-.104-.5851.124-1.453.582-1.305.307-1.53.857-.276.713-.251,1.826.336.894.34.642.31,1.09.1.657.0251.66-.05.975-.2621.53-1.6879,2.06-.248.63-.289,1.757-.256.644-.781.96-.482.386-2.594,1.743-.094.382-.176,1.222-.713.549-.423.046-.985-.607-.583-.179-.597-.051-2.262.17-1.002-.413-.79-.583-.811-.184-.611-.479-.142-.438-.148-.587-.112-.304-.105-.156.184-.196.391-.09,1.467.1.383-.221.201.111.4069.538.532.486.45-.082.38-.4.1451-.003.168.063-.344.315-.353.231-.095.146-.072.319.501.379.4589.206.602-.202.354-.397.7751-.582.5549.026.032-.549-.287-.844-.234-.591.85.156.504-.487,2.096-4.209.995-.805.331-.523.239-.729.0591-.805-.122-.884.028-.681.356-.855.558-1.036.354-.39-.051-.389-.071-.321-1.003-1.019-1.063-.839-.375-.463-.284-.731-.14-.876v-.58l.085-1.775.163-.843-.045-2.492-.1959-3.107-.169-.849.26-.588.2559-.483.1321-.452.089-3.092-.076-1.203-.346-1.623-1.409-1.356-.595-1.324.048-.477.077-.323.611-.543.42-.77.269-1.129.559-1.726.142-.608.36-2.421.097-1.298.069-1.954-.5-.501-.526-.434-.97-.367-.48.088-.878-.784-.327-.11-2.371.222-1.356-.103-.799.178-.419-.023-.262-.12.039-.327.141-.235-.0411-.203-.231-.042-.619.253-.988,2.711-.588,2.601-.624,3.476-.387,1.448-.563,1.522-.869,1.195-1.172,1.204-.751.563-1.001.573-.42,1.241-.36.507.1481.343.434-.19-.248.874-.26.53.025.307.076.395.338.18.9-.343.191.334.205.508-.106,2.017-.252,1.713-.029.625.143.4.117.524-.266.637-.212.205-.4-.071-.264,1.406-.083.829.0041.654.102.403.158.445.105-.345.083-.475.2819-.308,1.57.881.4219.437.649.4.1891.474.124,1.466.667,1.329.526.787.328.31.29.078.453-.303.606.043-.325,1.033-.547,1.933-.9131,1.672-.374.26-.601-.68-.791-.555-.405-.284-.256-.503-1.376-1.346-.412-.928-.69-.144-.955-.435-.142-.105-.7881-.586-.7639-.32-.216-.435-.584-.324-.564-.22-.828-.542-.38.174.0911-.615-.944-.878-1.127-.792-2.3271-1.131-2.049-.549-2.416-.161-2.117-.718-.3.035-.271.211-.713,1.044-.793.32-.297.497.468,1.073.919,2.75.544-.277.211,1.246-.332.714-.4979.841-.417.449-.923.227-.742-.052-.087.781.214.724-.052.299-.071.377-.108.197-.088.12-.2849.218-.341.003-.824-.374-.594-.336.037-1.317.31-.578.2119-.132.2031-.231-.422-.862-.3091-.364-.142-.594-.007-.262-.389.018-1.586.684-.328.64-.18-.434-2.045,1.922-.891.672-.61-.098-.8121-.402-.9669-.039-.651-.191-.334.089-.7.473-.722.062-.75.673-.639.81-.174,1.304-.402.133-.439-.671-.239-.16-.23.145-.452.066-.375.055-.368.24-.152-.029-1.119-.215-.313.021-.4-.081.092-.335.1389-.239.6291-.182.346-.27.392.151.284-.403-.037-.775-.445-.745.21-.578.161-.716.107-.08.115-.251-.143-.21-.341-.104-.002-.177.216-.149,1.408-.297.322-.216-.856-.086-1.077.058-1.092.651-2.047,1.407-.953.949.255-.016.323.137.274.662.21.169-.148.437-.547.34-.22.231-.209.091-.177-.085-.212-.178.123-.337.162-.312-.4391-.556-.205-.071-.171.02-1.061.478-.788.564-.723.297-.673.102-.392.245-.801.752-.5071.325-.848.829-2.178,1.456-.565.124-.318-.118-.242-.196-.1649.162.1879.351.323.709-.125.369-.503-.102-1.0529.3309-1.134.487.022.506.072.444-.193.722-.2.583-.166,1.666-.149.496-.448.33-2.261.745-.389.046-.168.134-.123-.134-.423-.17-.6-.005-.2751-.068-.283-.2709-.373-.702-.534-1.415-1.188-.718-.56-.48-.1049-.455.104-.47,1.22-1.555.4341-.508,1.8109-.45.7151-.041.7329-.187-.0189-.907-.712-1.113-.761-1.303-.748-1.434-1.046-.512-1.238-.243-2.534.279-.357-.054-1.617-1.007-.165-.015-.2249.064.07.29.129.21,2.147,2.15.1.556.0621.75-.0361.315.05.311-.018.567-.53,2.415-.505,1.699-.17.8-.038.545.205.477.615.154.61.488.315.687.071.476.0219,1.021.1451.872-.4841,1.341-.2689.523-.346,1.2.135.849-.036.333-.079.386-.246-.284-.204-.338-.282-.302-.3-.111-.3171.081-.23.162.0239-.347.289-.539-.14-.28-.1469-.21-.8921-.659-.637-.038-.56.067-.573-.078-.425-.42-.384-.227-.29-.035-.356.377-.85,1.445-.856.943-1.1221.708-.8469.229-.232.168-.501.821-.52.63-1.435,1.046-.1.428-.09.586.137.661.276.638.691,1.278.389.433.265.674.195.775-.104.157-.573-.191-.409.087-.587.527-.044.224-.21.519-.535.042-1.442-.938-1.236-.478-.2021-.03-.278-.237-.084-.197-.516.039-.315-.022-.2979-.16-1.351-1.522-1.087-.5741-.254-.011-.47.157-.272,1.232-.373.342-.3319-.021-.0181.603.1421.371.127.266.408.428.761,1.281.402.524.297.198.393.028.873-.151.289.198.309.299.066.73.239.746.024.418-.289.49-.933.355-.542.509-.195-.021-1.116-.591-.733-.227-.979-.369-.177-.202-.437-.993-.966-.944-.435-.278-.604.204-.4161-.102-.698-.504-.465-.78-.032-.959.1321-.21.1309-.113-.335-.291-.016-.742-.066-.485-.372-1.211-.379-.734-.363-.792.3871-.411.2009-.36.28-1.045.054-.356.119-.354.045-.329-.019-.33-.266-.6-.819-1.219-.806-.672-1.533-.667-.423.038-.155-.097.327-.121.326-.264.176-.407-.388-.202-.315-.091-.5269-.333-.097-.297.116-.211-.123-.538-.707-.171-.1859-.123-.015-.181-.4791-.588-.625-.62.1041-.627-.45-.46-.39-.326-.613-.12-.2459-.228,1.416.063,1.489.475-.126.185-.106.284.434.812.416.459.9311.565.115.001.203-.144.461.239.3759.313.7081.025.8569.369-.0579.151-.0981.117.243.443.358-.065.602-.364L44.24,172.8l.419.23,2.414.653,1.112.061.601.146.873.331.9359.663.7651.235,1.395.215.719-.032,1.783-.436,2.285-1.167,1.174-1.026,1.873-2.683.2429-.629.2211-1.487.013-.637-.272-.064-.359-.352v-.866l-.205-.425-.2651-1.979-.562-.218-.308-.23-.367-.116-.4069-.313-.488-.819-.479-.55-.394-.744-.242-.274-.177-.085.122.376.094.403-.714-.099-2.07-1.912-.354-.15-.137.173-.636-.256-.204-.453-1.76-2.124-3.122-2.419-2.134-1.479-1.594-.662-.159.078-.161.275-.466.076-.409-.054-1.435-.593-.347-.081-1.529.023-.161.167-.537,1.255-.287.253-.54.231.155-.378.369-.275.239-.913.014-.379.129-.5-.026-.398-.195-.129-.362.132-.7769.481-.1041-.127.2231-.497-.06-.196-.326.074-.693-.229-.727.083-.132-.602-.475-.34-.196-.289.239-.335,1.621.551.451.032.223-.197.051-.357-.0139-.417-.186-.241-1.056-.443-.488-.506-1.142-.694-.0431.325.172.641-.091.207-.333-.18-.255.132-.344.769-.334.194-.2639.06-1.1321-.645-.505-.115.153,1.065-.005.37-.072.358-.101.183-.201.08-.487-.032-.661-.419-.427-.395-.133-.017-.058.048.104.396-.028.304-.064.33-.09.299-.125.25-.2621.322-.453.254-1.247.495-.099.218-.4019,1.37-.1091.2-.1469.169-.429.219-.188.097-.58.38-.354.256-.426.188.11.249.708.052.109.071.079.127.013.204-.071.329-.766,1.801-.024.377.25,1.044.3511,1.224,1.0609.541.7881.421.5059.994.8351,1.301.442.484.025.15-.131.889-.535.886-.5.744-.518.892-.405.757-.439.903-.051.292-.008.275.0759.303.5621,1.093.219.555.2609.598.225.65.13.581.225.563.14.287.232.402.28.596.0931.471.4229,1.624.0431.411-.021.304-.186.074-.411.048-.446.199-.022.067.291.378-.257.645-.037.919-.274.48-.026.111.0121.093.049.073.507.128.044.13.002.269-.045.248-.255.184-.273.271-.061.25.009.222.093.375.1811.436.229.273.813.259.1049.213.044.292-.017.285-.378.568.003.218.155.526.186.501.793.542.2731.296.072.235.04.379-.0051.41-.062.363-.249.467-.575.918-.579.355-.035.077.1791.292,1.0189,1.166.665.543.896.73.578.575.187.412.25.458.281.373.203.323.0771.208-.007.223-.271.671-.154.517-.271.755-.278.524-.704.954-1.039,1.18-.2411.355-.486.617-.833,1.233-.215.271-.682.976-.311.31-.245.289-.675.915-.726.691-.712.64-.214.323-.2659.247-.3171.234-.133.131-.7169.869-.995,1.198,1.071-.199.9359-.607.183.142.204.237-.029.388-.05.292-.367-.276.086.326.339.611.476.248.72.792.846.087.558-.146.426.037.424.419.293.531.233.133.316.254-.044.295-.096.171-1.271-.458-1.466-.247-.191.217-.185.333-.089.261-.096.146-.226.094-.335.029-.4031-.063-.241-.175-.18.197-.085.446-.25.231-.343-.179-.228-.344-.2051.028-.124.316.091.431.05.516-.145.385.149.171.188.276.051.158-.064.093-.188.079-.0431.085-.083.143-.22.026-.113.106-.135.465-.258.768-.381.582-.305.318-.136.244-.085.292-.02.293.292,1.6-.003.288-.069.295-.05.299.041.259.193.442.2051.658.083.419.1359.153.131.1131.027.071-.004.073-.068.083-.591.219-.077.185-.0641.207-.258.305-.0789.284-.0491.325-.0059.116.331.021.116.083.078.408.376.321.348.266.089.1229.027.236-.022.275-.044.143-.146.164-.127.415-.018.3941-.201.6789.045.013.4219-.1229.12.07.092.15.03.4249.138.1911.1409.298.0441.231.2689.2749.021.1781.164.627.063.36.029.278-.081.353-.071.238.383.437.09.017.213-.172.042-.012.44-.015.2039.152.151.296.141.236.151.064.428-.298.237-.099.156.003.549.2669.258.146.059.132.0051.156-.07.231-.0549.251.1669.296.194.2.415-.331.153-.092.167-.003.224-.1229.162-.186.155-.064.296.044.536-.044.625.2919.0541.089.312.341.109.169.103.054.167.166.222.104.155-.032.074.055.069.13.005.222-.022.632-.109.182-.115.148-.029.115.011.139.177.271.228.421.053.244v.183l-.311.536-.104.125-.072.263-.038.267.0219.11.52.424.385.229.086.112.008.069-.205.454-.02.122.3091.188.17.295.15.48.293.459.631.405.459.264.0949.12.033.143-.0349.313-.118.381-.081.211.187.0881.481-.0231.584.0741.701.418.002.187-.072.17.048.179.077.152.606.465.058.135.011.226-.017.165-.1681.035-.187.077-.305.197-.121.279-.4929.384-.305.173-.243.008-.577-.078-.203-.189-.084-.174-.222-.078-.295-.007-.407.03-.083.052-.067.214-.173.364-.124.206.103.125.162.262.252.333.259.295.083.18-.003.128-.124.151.019.304.252.399-.085.0629-.025.4891.002.5209.068.1261.1359.104.1141.19.1909.433.013.113.0541.008.262.13.275.11.19.007.226-.025.266-.147.185-.142.225-.722.08-.104.124-.057.203-.006.386.135.452.121.2621-.017.698-.385.3889-.06.462.09.454.005.342-.056.235.133.29.294.2621.436.2739.803.7991.903.013.176-.065.113-.393.109-.332.059-.016.154.088.167.152.244.023.314-.008.288.065.254.127.104.016.127-.146.156-.041.096.057.052.721.03.353.151.268.138.135.013.3041-.088.3419-.056.207-.008.08.102.0641.267.12.267.112.076.2-.013.12.013.064.101-.072.152.016.165.088.202.104.467.096.139.064.176v.202l-.08.176-.056.138.056.314.216.351.16.087.128.313.232.1.3439-.263.264-.138.33.077.305.049.205.179.151.246.1761.137.176-.072.367.072.168.199.1681.112.216-.162.176-.2.644-.209.4-.052.112-.041.235-.15.248-.1.223.027.22.311.228.214.064.337.278.462.691.631.271.192.184-.034.096-.05.045-.066.042-.309.087-.114.14-.003.541.384.283.042.269.007.362.298.397.259.307.027.245-.102.168-.062.104.099.096.223.16.173.184.049.265.011.46.334.432.34.27.019.229-.1.202-.026.141.086.04.147-.104.197v.282l.192.27.006.265-.055.239-.109.22-.263.302-.243.281-.365.117-.205.123.054.206.134.192.31.155.352.113.041.125-.054.063-.226.058-.3121-.059-.104.109-.1439.181-.096.326-.0721.302.339.082.197.123.0621.247.07.275.021.247-.112.12-.0071.123.053.061.146.027.111.055.009.13-.213.292-.199.558-.107.296.008.321-.12.178-.2258.009-.75.031-.653-.016-.282-.046-.442-.028-.219.076-.29.512-.22.2-.3629.181-.399.052-.229.21-.081.33-.006.292-.037.146-.086.128-.031.091.019.1.093.036.111.046v.072l-.043.091-.124.1-.0561.154.013.164.024.181.759-.346.259-.262.519-.092-.073.106-.2571.0979-.258.254.3251.026.73-.13.268-.398.482.014.1371.286.137.386-.012.143-.052.11-.404.085-.914.481-.4781.136-.539.245.139.33.036.28-.442-.06L52.277,276l-.198.043-.538.296-.282-.064-.283-.009.121.423.293.51.179.096.281-.046.667.617.497.611-.258.042-.249-.062-.36.002-.143.371-.149.274-.0269-.141.011-.19-.167-.123-.2281.186-.2589.813-.4811.583-.16.357-.0071.26.069.053.105-.008.003.234-.072.2091-1.075.264-.1421.154-.309-.1221-.353-.321-.314-.173-.2021.069-.206.151.1161.094.1389.033.365.2-.191.151-.7119.263.024.136.065.099.8239.225.73.386.223.265.191.46.166.209.235.158.217.096.372.038.411-.147.926,1.096.3661.177.909.22.229.117,1.718,1.522.525.656,1.002.985.294.204.1271-.25.17-.263.1841-.064.539.104.4959.119.362-.084.4311.208.3939.238.396.168.772.158.288.219.336.219,1.317.111.1061-.034.097-.032.442-.08.391.015.413.265.264-.015.2819-.04.363.142.285.158.024.16.25.232.726.353.589.199.184.14.447.231.045.073-.009.094-.127.173-.033.154.06.088.186.084.369.019.133-.11.275-.079.272-.142.364-.189.495-.172h.198l.19.052.133.096.223.353.223-.495.058-.0369.203.1.36.138.249.073.134.102.38.45.615-.023.26.069.14.074.063.087-.11.446-.152.463.0121.112.247.174.335.185.181.148.123.133.265.101.313.063.148.008.1551.111.403.209.051.052.302.077.041.218.054.046.125-.026.208-.091.1661.07.2139.259.295.273.16.184.063.126.151.123.221.144.176.226.157.524.159.121.569.199.2.041.559.07.197-.05.2881-.451.2589-.465.242-.097.437-.225.2621-.213.11-.23.247-.434.1519-.245-.27-.228-.142-.071-.12-.111-.227-.477-.208-.38-.417-.653-.724-.985-.147-.119-.1179-.137-.053-.496-.208-.353-.297-.243-.112-.125-.0721-.135.14-.704-.003-.199-.062-.427.054-.493.166-.677.168-.468.053-.305-.235.194-.28,1.082-.094-.869-.19-.828-.153-.428-.216-.348-.3011-.271-.278-.319-.3029-.171-.457-.131-.09-.122-.039-.202.025-.225.11-.376.241-.243.327-.253.073-.169.054-.199.102.151.125.082.087-.351.131-.251.168-.216.209-.496.155-.271.112-.306.062-.502.1161-.048.096-.0881.072-.143.042-.157-.015-.286-.1711-.312.045-.032.082.054.185.16.166.201.046-.291.144-.118.176.081.186.012.625-.232.298-.064.276-.164.644-.631.141-.029.146.029.135.117.1469.068.112-.0321.0561-.096-.1291-.224-.0449-.212-.01-.231.1661-.0589.189.001.756-.358.088-.158.041-.216.338-.04-.038-.185-.135-.047-.632-.378-.519-.268-.461-.238-.067-.043-.126-.116-.09-.181-.019-.198.045-.146.112-.093.132-.036.117.03.13.089.232.108.301.02.188-.083.025-.199-.358-.738-.33-.597-.3189-.6659-.135-.242-.391-.56-.386-.5531-.305-.4939-.16-.152-.492-.063-.938-.122-.332-.0581-.2659.147-.2671.115-.253-.214-.2-.3519-.105-.296.0511-.303.021-.448-.153-.442-.1691-.219-.424-.165-.54-.373-.1451-.683.2621-.982.422-.698.307-.293.146-.256.0479-.222-.037-.212-.182-.226-.2819-.22-.143-.271.059-.582.187-.841.288-.675.386-.375.333-.269.131-.251.007-.357-.008-.337.089-.245.14-.1951.148-.1749.208-.1961.27-.048.297.156.404.4191.592.825.338.539.122.166.3091.32.279.129.465-.2.446-.233.1439-.148.092-.221-.071-.378-.093-.247-.099-.315-.137-.549-.097-.864-.115-.275.084-.032.224.057.207.025.296-.191.406-.36.743-.557.157-.368.127-.41.206-.252.473-.083.438-.132.309-.292.484-.257.398-.156.175-.144.125-.216.456-.61.358-.376.315-.388.105-.244.249.045.38.169.408.154.299.239.059.244.029.192.121.099.145.019.218-.048.381-.009.467-.316.65-.534.595-.166.313.127.259.393.205.369.211.137.131.004.0479.006.2621-.084.02.001.239.015.23.125.381.014.531-.095.056-.039.255.051.31.17.241.202.432.662.248.17.506.235.237.205.276.332.144.201.3.363.3469.593.0621.471.0789.397.1291.188.106.023.114-.065.112-.181.039-.302-.034-.535-.089-.438-.114-.139-.055-.154.075-.196.193-.095.24.06.395.252.412.317.507.554.4651.351.5089.28.404.083.313-.084.369-.228.338-.264.154-.277.11-.3031.51-.405.466-.371.212.067.149.105.478-.226.166-.062.4551-.088.47.13.375.398.363.256.325-.03.269-.131.178-.248.135-.293.18-.188.0269-.0119.579.1019.363-.015.039-.042.479.08.529.413.328.457.42.581.195.189.284.081.223.035.299.09.79.121.12.071.081.095-.073.316.07.08.641-.225.172-.168.211-.478.189-.482.141-.179.149-.047.15.072.21.285.284.29.384.11.234.044.363.024.854-.141.799-.351.456-.382.212-.574.133-.654.204-.414-.0851-.424-.4019-.404-.136-.122-.9781-.227-.06-.164-.056-.038-.964-.36-.464-.154-.1309-.238-.086-.312-.3011-.279-.598-.254-.104-.194.099-.196.318-.147.153-.071.539-.46.207-.095.479-.021.444-.377.306-.216.16-.257-.042-.266-.444-.805-.132-.489.079-.319.255-.345.145-.189.174-.34.114-.182.448-.077.543-.032.373.081.521.042.475.063.24.056.177-.104.128-.183-.0041-.242-.187-.235-.697-.309-.299-.255-.234.028-.392-.08-.354-.167-.313-.056-.102-.232.064-.326.121-.187.231-.093.251.047.273-.136.079-.08.023-.103-.044-.147-.127-.121-.18-.0321-.207.103-.248.067-.419-.151-.334-.182.017-.168.2471-.251.111-.204v-.612l.086-.387.245-.265.288-.142.742.259.928.231.159-.038.047-.122.106-.108,1.288-.05.25-.149.125-.119,1.238-.171.147-.163.182-.152.2849.003.339-.061.4731-.186.335-.102.056-.008.354.041.439-.147.095-.061.071-.111.383-.214.735-.176.179.105.351.048.447-.079.33-.135.1921.134.2609.138.195-.117.097-.369.126-.361.221-.171.175-.0629.158-.1391.119-.1449.647.022.579-.361.114.164.752-.038.934-.233.5591-.109.965-.244.446-.198.639-.125.586-.087.3829-.347.3091-.049.3759-.029.23-.083.15-.128.097-.241-.0529-.308-.0541-.224.269-.125.384-.039.242-.051.528-.51.364-.245.377-.154.7571.084.6909.077.693.244.364.304.313.229.2961.109.268.07.3109-.104.22-.14.128-.201.194-.144.7069-.112.146.217.336.653.229.867.377,1.145.1661.561-.073.293.0009.401-.021.44-.278.497.113.231.683.257.956-.094.59-.208.329.076.172-.125.111-.368.227-.083.233.2569.169.434.162.279-.0121.332.06.425.1191.107.234-.161.156-.096.037-.129-.066-.159-.031-.162.052-.149.111-.061.333.047.485.082.576.604.311.109.1309.011.292-.035.351-.173.2361-.218.0789-.107.136.019.1291.101.0089.22-.103.318-.35.291-.435.27-.2639.494-.0561.514.115.261.099.174.028.244.0981.032.1779-.1.485-.506.247-.125.358-.08.589.04.396.165.189.229.208.189.144-.079.074-.218.004-.25.061-.206.644-.507.429-.338.1469-.04.287.07.178-.036.471-.318.44-.363.0431-.246.017-.223.109-.101.616-.078.102-.042.526-.254.729-.434.354-.256.645-.114.12-.074.214-.173.404-.24.219-.026-.136.58-.241.668-.136.178-.654-.03.001.182.103.278.074.156.079.14.176.242.688.569.875.722.945.808.66.5621.267.29.17.226.486.814.462.769.779,1.348.689,1.294.76,1.415.439.814.898,1.693.24.517.455.976.401.911.355.802.224.072.018-.217.04-.145.114-.082.262-.237.141-.057.21.024.22-.121.081-.228-.053-.423-.034-.195.0751-.21.12-.082.1669-.066.154-.034.126-.237.238-.072.219.044.18.009.159.173.089.237.172.019.281-.024.039.198-.08.331-.099.256-.0171.205.149.1.546-.089.193.044.062.208.078.172.0381.21-.057.232.098.139.471.003.332-.112.51-.009.461.246.3189-.038.321-.1.471.063.331-.194.2281-.243.0709-.191.1191-.106.4439.001.28-.019.2069-.281.189-.127.318-.024h.234l.6291.261.383.216.398.307.239.192.161.433.271.318.216.371.052.365.178.655.184.215h.218l.2751.0889.304.0711.65.4849.239.0141.184.116.028.2229-.068.258.071.247.213.3151.1681.307.2069.372.063.212.166.07.224-.105.3561.08,1.0709.211.149.026.1141.22.155-.018.178-.0091.247.0261.172-.2031.141-.178.353-.22.293-.299.246-.266.184-.035.149.124.006.23-.184.168-.144.203.034.203.247.018.274.305.396.7131.1339.1489.196.14.217.0629.24.102.178.293.072.264.264.04.167-.0629.111-.133.171-.042.257-.064.265-.08.146.015.011.001.327-.011.149-.096.113-.141.245-.157.052-.181.004-.356.16-.302.407-.09.156-.044.166.044.258-.042.249-.016.139.093.184.079.235-.009.08-.143.01-.199.102-.052.127.138.071.103.105.047.284-.123.198-.133.064-.273.115-.136.154.069.271-.001.223-.212.2931-.169.21-.077.043-.143-.099-.316.027-.346.281-.196.376-.023.278-.134.077-.37.138-.106.14-.042.339-.059.244-.15.15-.069.427-.203.388-.04.166-.162.13-.204.218-.078.222-.177.293-.225.115-.032.48-.131.188-.048.1129-.029.2081.009.088-.238.211-.176.2119-.059.104-.175.203-.223.274-.124.428-.018.414.025.248-.038.204-.33.039-.164.047-.167.166-.064.2.271.169.168.26.175.134.164.153.023.161-.123.114-.299.216-.046.238.048.063.147.021.1431.109.256.262.223.3351-.011.135-.04.326.031.3209.048.35.053.102.008.375.027.546.039.24-.018.492.072.101.198.091.468.0771.445.0219.357.128.185.163.061.108.144.189.196.141.28.1711-.019.119-.066.262-.021.334.019.232.155.088.203.188.114.153-.037.458-.001.158.013.157.111.228.019.125-.142.3951-.096.229-.203.176-.002.133.098.103.133.15-.059.082-.109h.132l.129.071.331.124.24.23.186.022.239-.067.11-.031.105.114.154.062.117-.084.201-.06.7689.125.178.229.1371.108.11.188.2.134.425-.046.164-.137.344-.304.1371-.297.1729-.096.195-.048h.183l.191-.01.232-.218.188-.076.279-.277.052-.125.136-.323.0839-.206.141-.328.076-.5289.0431-.2811-.037-.204-.165-.105-.212-.05-.186-.156-.138-.18-.081-.253-.109-.2969.006-.215-.031-.166-.093-.142-.179-.25-.087-.186.029-.295.211-.5061.02-.2349.026-.146-.012-.133.066-.304.119-.128.136-.327.184-.151.229-.01.099-.089.049-.328.11-.253.074-.18.14-.195.808-.378.335-.471.119-.238.13-.512.125-.215.182.071.214.302.16.003.238.164.648.342.352.107.226.033.299.095.192.2.375.326.317.083.55.033.669.017.189.057.4891.234.5419.258.51.231.387.179.229.173.215.099.233-.084.299.019.702.208.444.174.371.129.124.178.012.237-.05.2.027.484.119.253.044.34.045.323-.031.319.057.169.116.1.112.222-.037.234-.05.136.008.219.135.18.198.035.1749.046.2161.283.385.326.23.091.2651.146.505.143.343.043.202.116.198.28.328.058.21.097.384.115.254-.066.2231-.097.1489.019.2881.063.3369.013.2831-.066.226-.197.2639-.266.3151-.135.3649-.048.25-.108.818-.18.33-.031.2559-.174.227-.136.328-.059.443.143.424.119.513.039.341.164.2411.155.38.123.422-.0571.5789-.049.383.0711.4.282.2459.226.277.481.289.233.253.19.319.012.797.015.438.101.364.053.0869.101-.036.329.011.469-.005.215.08.162.1241.029.067.229.181.135.323.163.544.553.324.236.256.08.335-.055.524.001.889.002.609.166.211.113.622.131.685.144.577.151.341-.195.299-.018.285.141.285.212.221-.023.331-.099,1.057-.592.3709-.222.26.057.232-.079.177-.067.451-.092.274-.025.283-.053.4081-.036.8289-.389.336-.076.568.108.3061-.07.305-.197.395-.203.103-.33.202-.454.436-.334.354-.292.361-.285.443-.237.418-.173.532-.453.424-.229.211-.075.251.083.47.061.34-.019.191.053.383.221.348.194.266.346.495.481.254.161.1811.066.445.045.364.023.218-.11.367-.2009.585-.255.23.0069.377.136.562.251.226.188.146.231.5771.373.372.194.629.294.649.066.621.318.32.096h.171l.879-.774.743-.657.854-.514.628-.07.472-.15.314-.231.187-.386.057-.542-.126-.329-.3079-.114-.079-.115.148-.117.11-.227.0689-.338.178-.322.285-.304.158-.338.029-.372.172-.372.313-.371.172-.346.029-.32.159-.392.432-.695.28-.803.478-.552.768-.568.4791-.565.1909-.562-.015-.498-.222-.432-.043-.44.138-.449-.121-.336-.379-.223-.452-.055-.525.113-.295-.141-.065-.394.141-.319.3469-.244.57-.595.7941-.95.79-.527,1.178-.152.95-.313.968-.318.699-.158.119.106.381.026.643-.054.597-.137.552-.221.437-.052.321.117.184.006.127.014.07-.001.1351-.094.3729.167.7131.496.447.22.185-.054.2.137.219.328.271.193.488.089.484.358.195.02.068-.201.181-.115.292-.03.423.177.5529.383.347.168.141-.046.148.071.119.179.011.221-.041.118.133.1861h.153l.25.0889.196.328.176.1521.123.131.022.109.011.11-.036.085-.067.1409-.021.151.085.17.311.1229.1049.1271.024.1619.097.179.212.207.08.173-.049.139.063.116.104.091.0219.3291.009.1889.171.2121.035.4339.119.479.401.655.133.3541-.034.42.058.197.183.095.087.177-.01.259.0709.161.058.171-.039.266.058.239.094.14.066.258.037.322.269.508.499.694.306.538.111.3819.001.314-.109.246-.006.179.098.112.029.151-.039.191.162.2261.548.392-.219.6-.058.4209.029.442.136.311.241.18.15.188.0591.196.29.213.52.231.667.041.8129-.151.4971-.025.1829.1.063.152-.059.203.138.133.334.064.229.127.126.192.154.054.1829-.083.178.012.173.106.112-.037.098-.116h.157l.161.002.1.281.162.158.224.035.341.341.686.969.4459.343.4471.107.556.022.18.374-.146.395-.037.329.126.118.174.386.246.224.047.177.114.198-.048.365-.211.533.058.454.326.375.188.361.049.346.081.21.115.074.3339-.026.555-.125.406.021.26.169.641.006,1.023-.156.646-.048.27.06.24-.223.2109-.507.1971-.238.185.03.292-.163.401-.357.348-.173.441.018.47.018.294-.15.276-.313.479-.277,1.021-.363.245-.057.117.02.34.057.302.142.2849.285.044.183-.0319.24-.063.139-.117.156-.11.253.071.197.1649.421.136.304.15.358-.0671.128-.091.248-.279.419-.1519.16-.164.156-.2831.038-.1209.036-.137.066-.086.148-.0981.104-.162.208-.013.179.073.266.0361.272-.183.243-.1421.373-.043.112-.07.282-.021.098-.045.592-.183.403-.255.468.057.279.045.258-.063.125-.016.109-.0369.248-.08.095-.232.155-.1389.187.029.283-.071.245-.106.216-.1111.141-.16.09-.1061.076-.08.2739-.024.2121-.075.211.0461.2149-.081.1861-.2281.13-.129.077-.119.031-.228.202-.204.691-.046.401.047.356-.2861.2229-.2119.177-.133-.0639-.141-.06-.324-.077-.162-.052-.326-.116-.5219-.147-.51-.171-.32-.09-.252-.072-.191-.118-.161-.211-.16.085-.148.25-.2471.148-.112.273-.099.209-.2559.279-.114.115-.501.189-.113.063-.409.04-.139.083-.144.176-.039.175.102.184.159.368.074.251.108.497.3629,1.553-.117.267-.109,1.157.026.208-.0109.324.007.237.075.059.098.083.05.138-.013.212-.05.155-.077.307-.102.443-.113.17-.074.135-.063.093-.0079.313-.042.206-.177.073-.1761.12-.209-.044-.184.024-.227.08-.4069.093-.2361.1239-.1129.09-.078.108-.014.104.054.055.229.042.157.194.022.212-.162.121.076.23.18.224.094.1629.019.1691.082.095.12-.0871.292-.747-.35-.5069.131-.064.532.1489.222-.042.375.073.244-.2709.132-.284.283-.1911.346-.665.577-.79.204-.202.404-.179.104.0221.104.062-.322.42-.089.29.227-.001.229-.09.574-.483.214-.263.07.288-.086,1.36.498-.1011.267.146.372-.016.434.313.17-.044.204-.011.176.3251.282.099.476-.255.723-.245.344-.007.845-.448.41-.362,1.502-.952.632-.523.602-.382.362-.614.626-.583.016-.2471.124-.282.959-1.568.315-.26.4359-.193.1871-.286.119-.412.5869-.612.4031-.616.374-.403.186-.361.964-.884.781-.984.73-.715.234-.442.946-1.3.292-.86.355-.327.154-.822.305-.592.082-.354.16-.333,1.1631-1.343.466-1.042.577-1.051.414-.367.438-.479.237-.38.667-.602.322-.417.161-.426.15-1.055.433-.814-.126-.131-.0689-.252.047-.282.064-.168.045-.264.097-.2951.09-.1789.242-1.14-.017-.716-.1321-.277-.005-.373.342-.53.081-.088.031-.125-.17-.106-.08-.105-.166-1.821.125-1.123.351-.828.07-.287.048-.807.423-.815.265-.9249.552-.487.362-.602.305-.272.052-.621.28-.5531-.214-.255-.223-.168-.449-.446-.104-.309.315-.526.059-.473-.028-.867-.474-.267-.596-.661-.098-.224.133-.017.825.355.412-.3819.208-.405-.08-.509-.438-.1961-.569-.562-.025-.19-.894-.479-.955-1.022-.296-.896-.177-.241-.899-.735-.176-.245-.2471-.1-1.0889.4031-.6031-.119-1.148-.49-.1079.104.1649.363-.031.359.048.496-.063.828-.109.593-.42.825-.169.156-.366.066-.198-.005.119-.322.322-.386.455-.685-.002-.61-.1129-.06-.097.001-.321.239-.354.867-.85.581-.596.204-1.15.101-.209-.034-.091-.156.259-.248.5709-.356.358-.752.396-.178.137-.207-.596-.113-.41-.272-.385-.348.18-.11.135-.033.1741-.124.429-.608-.396-.038-.414.042-.662.48-.128.256.214.3421.24.151-.2881.9679-.3829-.125-.3721.042-.234.271-.235-.104-.101-.604.13-.616.115-1.401.141-.477.009-.526-.074-.288-.231-.016-.377.0521-.961-.0021-1.085.146-1.161-.525-.315-.072-.1891-.117-.13-.531.065-.3039.0771-.1951.781-.833.59-.229,1.19-.941.494-.779.307-.33.936-.583.613-.503.4979-.484.5461-.4119.529-.689.333-.137,1.073-1.482.188-.333.11-.456.105-.206,1.248-1.721.852-.631.605-.896.736-.354.177-.1481.315-.5069.517-.305.1631-.1831.396-.7229,1.2479-.663.135-.272.5331-1.8341.295-.486.5549-.605,1.009-.596.718-.65.4261-.519.76-1.379.855-.834.702-.479,1.717-.713.931.146.969-.373.714.017,1.011.176,3.0059-.205.566.219.204.239.288.723.331.152.628-.278.479-1.148.261-.146.748.463.663.04,1.332.534.486-.122.524-.535,1.074-.144.656.834.66.024.526-.136.1421-.475-.21-.17-.408.146-.1-.413.2479-.462.358.316.584-.03.202-.042-.083-.213-.134-.177-.176-.397.633-.543.376-.181.612-.052,1.571.662.3449.069.37.267.59.19-.358.173-.158.169.37-.067.32.207.264.046.112-.081.137-.263.197-.267.144-.079.384.013.499.123.387.205.876,1.106.405.215.455-.036.183.069.255.298-.759.348-.72.073-.6421-.095-1.078.445.578,1.127,1.06.046,1.076-.238.217-.47.434-.184.2281.024.491.393.68.151.181-.069.549-.777.332-.068.216.017.247-.674.938-.055.552.604.334.211.662-.18.362-.433.23-.157.6891.412.338-.253.541-.044.403.03-.021-.438.038-.4941-.549-.492-1.091-.5-.631.324-.24.0351-.1661-.045-.177-.249.166-.397.1681-.321-.007-.4.0739-.573.272-.242.143-.039.386-1.184,1.102-1.589,1.283-.984.809-.757.385-.543.569-1.258.809-.924.389-.296.413-.387.1421-1.218.31-.288.284-.209.54-.651.804-.422.277-.308.9261.022.76.247.229-.067.512-.36.599.087.778-.233.708-.428.315-.042.297.091.359.63.206.158.157.367.477-.23,1.292-.857.155-.006.2.057.034.332-.012.268-.197.862-.2361.648-.651,1.251-.1339.188.0869.334.099.615-.3209.664-.1241.331.26.076.34-.37.506-.232.2719.017.273.111-.43,1.119-.0689.585-.066.223-.011.299.319-.164.227-.238.3189-.179.7991-.077.4169-.801.3431-.405,3.23-3.366.573-.715.319-.048.284.119.257-.015.053-.251.097-.095.291.037.185.634.202.315.149-.059.107-.097.15-.241.165-.197.169-.323-.141-.22-.557-.326.023-.591.3171-.947-.035-.617.127-.641.14-.325.125-.142.124-.218-.162-.499.12-.34.125-.24,2.5931-.888.4569-.049.417.178.633.636.706.329.989.14.059.284-.385-.096-.187.09.033.257-.049.192-.236-.227-.663-.123-.609-.254-.203.02-.872.75-.2261.328-.3729,1.484-.018,1.02-.136.967-.384.417-.128.482-.093.569.473.243.055.185.037.26-.314.603-.769.751-.085.156-.1.34.438.628-.351.228-.333.158-.32.284-1.0629.101-.729.707-1.2551.701-.556.4-.182.262-.442,1.064-.26.451-.854.702-.646,1.017-1.021,1.216-.403.14-.461.3-.553.846-1.412,1.463-.718,1.758-.39.582-.404.46-.274.489-.487.511-.982.761-.667.631-.36.421-.129.394-.182-.086-.662.208-.864-.179-.606,1.163-.6551.118-.648-.281-.3189.14-.118.126-.107.166.304.373.136.32.043.286.037.494-.359.915-.338.714-.559.676-1.2961,1.229-.1179.151-.12.29-.746,3.151-.206,1.394-.248,2.204.024.7341.159,1.635.241,1.662.557,2.842.128.872.417,3.463.032.652.124.55.208.559.3821.539.0349.656.316,2.068.029,1.978.059.426.063.308.357.379.119.459.03.343.066.346.279-.166.996-.919.807-.878.116-.318.274-.246.546-.319.786-.922.641-1.278.37-.978.083-.358.02-.354-.055-.766.148-.285.211-.857-.1371-.226-.3579-.164.111-.349.26-.082.211.164.123.369.174.123.58-.645.5171-.324,1.262-.563.521.038.493.488.218-.021-.0641-.679-.293-.496.004-.314.159-.492-.116-.324-.122-.245-.076-.525.219-1.068.248-.584.181-.279.602-.475.641-.686.718-.533.457-.179.545-.096.461.375.929.021.282-.081.6779-.753.389-.308-.07-.651-.236-.545-.482-.689-.11-.326-.156-.751-.016-.682.146-.786.416-.923.4521-1.248.172-.194.5269-.299.3561-.24.1879-.127-.111-.7.282-.283.231-.178.578.069.187-.161.265-.07-.177.37-.23.2511-.505.3469-.2391.497.5961.8381.3679.16.213-.055.3981-.463.202-.185.208-.296-.116-1.087-.143-.593.0369-.628-.2559-.191-.334-.081-.349.095-.202-.175-.134-.279-.032-.327.067-.76-.02-.409-.13-.729.002-.208.048-.381.498-.624.426-.456.223-.379.072-.259.034-.543-.227-.247-1.198-.573-.18-.012-.371.233-.154.726-.212.257.002-.146.054-.175-.601-.267-.279-.24-.163-.23-.106-.331-.117-.507.25-1.041.26-.932.874-1.403.534-.493.572-.755.245-.134.099-.123.097-.183-.181-.513.099-.125.099-.061.21.092.527-.937-.011-1.197.146-1.027.122-.423.127-.298.235-.29.226-.152.325-.36.15-.278.103-.073.372.022.294.11.33.185-.062.485.389-.426.352-.472.177-.083.239.064.405.358.309.689.21.186.278-.015.184-.096.153-.474.03-.858.3041-.147.26-.057.367-.396.469-.177,1.008-.681.668-.701.482-.025-.123.401-.044.386-.176.948-.173.503-.091.614.036.321.105.405.243-.038.1649-.09.339-.417,1.436-2.025.737-.563,1.12-.356.337-.229,1.099-.368.913-.104.582.167.331-.005,1.23-.183.138.224.962.675.551.978.1111.085.0919.1821.029.395.083.245.156.209.48.4539.553.1151.128-.248.075-.213.25-1.192.214-.471.003-.288.053-.234.536-.35.421-.15,1.517-1.159.673-.673.283.033.245-.154.225-.21.195-.086.409-.475.504-.37-.085-.318.095-.295.283-.107.246-.026.314-.343-.02-.267.114-.112.164.021.221.103.113-.108-.197-.374-.087-.355.14-.193.556.369.217-.003.727-.881.653-.94.559.217.888-.685.41-.133.644-.036.271-.262.293-.478.231.054,1.108-.57.212-.407.274-.114.2139-.04.482-.338,2.005-.974.3041-.392.747-.575.575-.184.707-.152.085-.186-.51-.213-.122-.196-.003-.211.0739-.177.094-.337.19-.075.229.24.2411-.001.111-.207.114.018.058.271-.123.316-.056.249-.01.277.1649.071.875.028,1,.218,2.65,1.162.227.19.2139.02.037-.459.121-.44.313-.25.529-.625.262-.454v-.526l-.167-.548-.365-.128-.221-.346-.12-.422.195-.307.213-.123-.046-.43-.158-.267-.854-.574-.299-.391-.009-.345-.353-.879-.049.189.031.425-.119.298-.1841-.047-.028-.236.106-.512-.148-.221-.526-.11-.072-.199.521-.285h.154l.141-.103-.109-1.111-.118-.783-.32-.066-.237-.229.065-.498.007-.249-.269-.856-.192-.346-.234-.323-.184.358-.094.477-.241.101-.2571-.017-.7459-.533-.714-.906-.065-.835.161-1.074-.111-.174-.112-.07-.947.36-.581.56-.3141.059-.6259-.377-1.029.631.22-.367.18-.143.19-.271-.142-.517-.151-.39-.218-.275-.316-.132-.311.261-.245.263-.507.282-.975.235h-.655l-1.118.428-.421-.017,1.541-.61.838-.045,1.08-.397.7849-.772,1.034.699.356.1.771-.061.667.412.2231-.119.21-.375-.279-.564-.241-.349-.2731-.109-.8259.059-.5431-.12-.312-.146.202-.159.594.224.719-.294.838.45.203.401.2391.147.687,1.012.469.4,1.5059.293.6581.453.502-.184,1.267-.987.837-.266.57-.653.494-.75.484-.22.829-.799.195-.381.324-.954.19-.397.279-.482.021-.396-.061-.43-.233-.335-.537-.476-.2459-.316-.173-.666.018-.806.12-.606.161-.543.188.39.543-.091.269-.149.03-.397-.067-.471.132-.123.282-.052.04-.285.099-.152.103.203.005.795.222.198.311.164.133-.049.133-.108.19-.241.385-.822.25-.325-.021.595-.147.822-.083.225-.218.29-.104.602-.045.163-.313-.165-.227.033.1681.663.247.493.314.475.339.2831.09-.008.067.101.009.298-.075.705.06.378.259.282.2869.072,1.717-.033.589-.095.88-.664.334-.081.376.083,1.052.365,1.274.518.479.799.188.803.072.85-.082.341.016.288.388.43.548.522.105.122.1149.21.1321.094.391.056.309-.101.309-.029.576.248.729.3829.709.525.317.391.571.8391.291.255.472.293.179.046.175-.053.361-.409.223-.328.191-.395.051.34v.291l-.1859.21-.001.36.281.422.332.064.416-.114.138-.196.124-.27-.093-.896.128-.122.313.177.1.253.048.31.124.034.823-.044.063-.114-.042-.28-.12-.265-.143-.188-.361-.22-.367-.166-.301-.043-.131-.124.033-.23-.099-.269.061-.159.255-.21.03-.193-.27-.234-.283-.073-.247.13.056-.197.188-.194.285-.083.294.042.5609-.166.545-.376.265-.248.256-.305-.029-.536-.175-.515-.2609-.14-.29.032-.255-.042-.249-.136.989-.182.11-.182.164-.823-.06-.206-.2051.054-.314-.012.072-.168.107-.145-.5689-.786-.636-.469.18-.078.313.017.4829.139.318.354.112.239.136.081.287.024.489.168.028.231.112.081.327-.099.91-.153.287.04.415.166.129.004.18-.06.146-.264-.226-.53-.474-.479-.276-.363-.139-.29.083-.11.126.044.406.458.317.286.329.205.294.152.647.143.295-.236.056-.368-.062-.774.063-.287.392-.433.678-.548.438-.175.1519.017.162.172.1681.049.288-.408Zm-219.292-71.166-.216.234-.052.321-.018.418-.095.705-.195.26-.68-.109-.189.063-.187.159.392.831.755.555.542.577.254.174,1.646.525.081-.081.467-.964.597-.438.192-.345.113-.46.151-.372.096-.494-.2831-.424-.9379-.404Zm-128.101,35.679-.062.132-.065.253.036.945.114.462.188.389.148.112-.021-.338-.29-1.328.015-.599Zm10.206,31.613-.446-.112-.3289-.176-.5171-.018-.3189-.086-.094.249.512,1.065.542.532.494-.088.108-.108.143-.363-.148-.214.0009-.196Zm-7.894-20.646.228-.698-.045-.34-.316-.026-.534.739.061.129.142.159Z" fill="url(#radial-gradient)"/></g></g></svg>