<svg xmlns="http://www.w3.org/2000/svg" xmlns:xlink="http://www.w3.org/1999/xlink" width="5.666" height="4.869" viewBox="0 0 5.666 4.869"><defs><radialGradient id="radial-gradient" cx="2.833" cy="2.4345" r="2.6413" gradientUnits="userSpaceOnUse"><stop offset="0" stop-color="#ffd496"/><stop offset="1" stop-color="#f29d25"/></radialGradient></defs><title>RW</title><g id="Layer_2" data-name="Layer 2"><g id="Layer_1-2" data-name="Layer 1"><path id="RW" d="M4.637.012,4.545.055,4.526.19l.106.215L4.98.849,5.201.93l.144.173.142.291.042.365-.059.438.035.325.128.214.033.277-.06.34-.074.204-.087.068-.099.025-.134-.023-.163.029-.177.064-.112.009-.07-.012-.13-.055-.207-.176-.386.097-.105-.002-.141.084-.116.103-.069.007-.072-.014-.332-.207L3.01,3.56l-.05.583-.055.325-.069.144-.238.139-.239.079-.131-.005-.527.043-.206.001-.114-.047-.148-.331L.954,4.344.686,4.275l-.109.019L.48,4.467l-.04.155L.18,4.516.102,4.385.095,4.163,0,3.859.053,3.73l.102-.084.216-.16.328-.223.07-.105.046-.177L.794,2.57.763,2.223.802,2.1l.15-.268.2-.275.235-.29.141-.028.185-.109L1.909.967l.11-.061L2.111.904,2.716.76l.06.045.098.279.052.041.084.01.17-.064L3.491.852,3.627.72l.16-.187.205-.21L4.106.139,4.217.032,4.363,0l.162.009Z" fill="url(#radial-gradient)"/></g></g></svg>