<svg xmlns="http://www.w3.org/2000/svg" xmlns:xlink="http://www.w3.org/1999/xlink" width="59.004" height="48.442" viewBox="0 0 59.004 48.442"><defs><radialGradient id="radial-gradient" cx="29.502" cy="24.221" r="26.991" gradientUnits="userSpaceOnUse"><stop offset="0" stop-color="#ffd496"/><stop offset="1" stop-color="#f29d25"/></radialGradient></defs><title>SA</title><g id="Layer_2" data-name="Layer 2"><g id="Layer_1-2" data-name="Layer 1"><path id="SA" d="M33.4432,9.8267l.542.069.723.092.439.063.826.117.247.484.09.339.083.33.248.301.563-.007.499-.006.615-.01.488-.007.157.299.069.298.29.705.414.549.099.2.066.301-.072.112-.028.129.307.3.506.254.198.064.2249.112-.1749.173.299.4.347.407.372.092.502.614.757.397.459.52-.043.01-.1351-.053-.169-.071-.051.064.009.218.045.256.234.221.208.159.081.301-.164.647h-.057l-.11-.056-.117-.013-.063.037.139.465.1389.356.1661.282.1389.412.1191.1759.487.4371.15.365.139.6789.306.378.165.291.221.247.144.337.2039.259.1061.065.159.027.1979.001.237-.0669.253-.063.1971.131.2039-.02.021.122-.137.166-.168.418.239.066.229.033.162.067h.095v.087l.0109.396.0571.151.104.134.1539.2.154.2.154.2.154.2.154.2.155.2.154.199.154.2.154.199.154.199.154.199.154.199.154.199.154.199.155.199.154.198.127.164.236.031.075.01.2131.028.33.043.428.057.507.067.565.074.605.08.624.082.625.082.604.08.565.075.507.066.429.057.33.043.2131.0281.075.01.223.029.042-.007.187-.243.206.3429.171.284.234.39.25.414.238.396.178.294-.095.3049-.103.3331-.1031.333-.103.332-.104.332-.103.332-.103.332-.1031.331-.103.331-.104.3309-.103.331-.1031.33-.103.33-.104.33-.103.33-.103.329-.1031.329-.124.396-.299.105-.482.17-.483.17-.482.17-.482.17-.4829.17-.482.169-.482.17-.483.17-.482.169-.483.169-.482.17-.4819.169-.483.1691-.482.169-.483.169-.482.169-.396.139-.659.093-.64.09-.72.102-.8649.1229-.6791.096-.99.14-.8889.125-.833.118-.833.118-.709.1-.423.116-.497.255-.763.391-.778.397-.403.206-.422.528-.214.267-.386.483-.292.364-.349.435-.152.386-.235.596-.203.15-.3319.194-.302.138-.4711-.02-.2689-.366-.285-.389-.143-.156-.128-.008-.473.049-.57.06-.672-.063-.7751-.074-.7269-.069-.362-.052-.477-.252-.123-.05-.125-.012-.566-.006-.561-.006-.562.08-.538-.029-.558.046-.196.096-.218-.005-.136.085-.12.04-.142-.073-.174.016-.256-.063-.167-.165-.158-.145-.163-.08-.182-.05-.1581-.001-.202.088-.123.085-.312.285-.013.102.142.17-.043.08-.184.1-.057.269-.027.147-.027.352.082.277.109.102.005.119-.06.238-.169.073-.124.226-.076.105-.132.12-.525.399-.026-.232-.167-.344-.0121-.243-.078-.244-.1439-.188-.266-.196-.024-.266-.194-.263-.257-.212-.143-.392-.108-.521-.678-.686-.848-.634-.258-.357-.422-.729-.213-.577-.567-.665-.024-.256-.084-.312-.131-.348-.0789-.274-.569-1.206-.184-.192-.1581-.27-.041-.2091-.05-.114-.4019-.198-.375-.508-1.1271-.81-.552-.081-.437-.29-.322-.379-.343-.654-.604-.708-.512-1.006.161-.367-.01-.258-.1581-.435-.171-.336-.118-.318.0931-.457.036-.512.101-.272.073-.299-.095-.602-.17-.323.0171-.215-.193-.105-.156-.234h.163l-.296-.325-.109-.181-.112-.442-.143-.338-.459-.768-.22-.469-.492-.607-.534-.449-.339-.204-.164-.186-.277-.006-.302-.266-.211-.01-.267-.043-.314-.513-.259-.481-.442-.627.111-.164.129-.267-.064-.35-.07-.238-.195-.434-.641-1.082-.17-.159-.273-.183-.168-.47-.077-.422-.4391-.205-.755-1.526-.438-.535-.1729-.36-.506-.593-.249-.591-.51-.546-.442-.949-.683-.951L1.296,13.04l-.704-.068-.296-.07-.272.209L0,12.846l.188-.367.271-.772.054-.678L.939,9.007l.598.104.4921.086.7189.126.7441.13.435.076.1489-.033L4.678,9l.542-.448.325-.549.3141-.533.144-.11.4819-.1L7.25,7.101l.757-.157.061-.054.176-.429.224-.545.046-.057.055-.056.542-.306.329-.186-.469-.549-.442-.519-.496-.582-.42-.454-.629-.68-.412-.446.721-.212.78-.229.787-.231.947-.278.7411-.218,1.106-.326.541-.159.098-.042L12.7092,0l.626.108.941.163.909.156.958.185.307.15.925.552.601.358.702.417.877.521.602.357.771.457.601.521.761.659.836.722.688.56.948.77.934.757.915.739.732.5911.927.746.072.028.937.084,1.259.114,1.265.114,1.1421.103ZM5.5572,20.4687l-.026.042-.118-.109.007-.239.102-.136-.008.186.044.188Zm.86,1.02h-.074l-.197-.209-.115-.154-.118-.104-.538-.209-.073-.1351.082-.135.0579.134.0981.079.445.189.4959.412.0851.034Zm14.274,25.945.217.017-.09-.093-.019-.045.094-.134.31.276-.009.327-.026.075-.084-.07-.055-.069-.017-.074-.086-.08-.302.052-.188-.089-.269-.275-.072-.199.112-.039.119-.096.075-.157-.0689-.163.16.026.086.167.0171.379.024.08-.044.087Z" fill="url(#radial-gradient)"/></g></g></svg>