<svg xmlns="http://www.w3.org/2000/svg" xmlns:xlink="http://www.w3.org/1999/xlink" width="31.578" height="14.76" viewBox="0 0 31.578 14.76"><defs><radialGradient id="radial-gradient" cx="15.789" cy="7.38" r="12.3239" gradientUnits="userSpaceOnUse"><stop offset="0" stop-color="#ffd496"/><stop offset="1" stop-color="#f29d25"/></radialGradient></defs><title>SB</title><g id="Layer_2" data-name="Layer 2"><g id="Layer_1-2" data-name="Layer 1"><path id="SB" d="M5.078,2.027l.089.099-.217.168-.286-.091-.063-.095-.007-.05-.2.032-.397-.083-.554-.402L2.857.848,2.294.429,2.189.299,2.175.083,2.251,0l.35.09.453.346.743.359.202.183.1291.439.1259.131.401.337.212.0791.112.015ZM.456,1.372l-.282.067L0,1.349l.077-.214.096-.111.3531.197ZM11.791,5.416l.005.065-.377-.235-.286-.288-.815-.3129-.175-.1611-.147-.02-.418-.262-.411-.177-.25-.228-.064-.093-.15-.056-.258-.25-.2509-.166-.089-.303-.242-.208L7.802,2.63l.777.168.36.332.3079.188.107.1359.277.1871.249.017.2491.1879.227.05.179.098,1.155.839-.138.223.153.162ZM2.835,3.694l-.054.039-.094-.152-.068-.047.002-.169L2.338,3.09,2.315,2.9l.164-.186.221.108.219.234.257.076-.053.155-.231.279Zm1.359.521-.062.042-.306-.016L3.594,3.95l.002-.215.183-.1969L4,3.5031l.121.0759.112.165.041.21-.025.186Zm-1.595.179-.034.07-.146-.348.007-.175.025-.112.0541-.034.1179.387Zm3.255.199.176.23.203.514-.037.177-.145.01-.041.111-.196-.25-.262-.0669L5.361,5.165l-.065-.303-.019-.191-.15-.033-.43.048-.137.163-.196-.052L4.322,4.65l.03-.144.262-.142.054-.183.26-.314.161-.054.304.113.037.447.109.146Zm8.38.202.696.84-.027.149-.095.096-.0269.282.088.108.19.05.323.301.129.369.012.113.135.167.005.353.3071.49.0269.236-.028.106-.128-.0621-.367-.556-.42-.24-.0479-.103-.424-.324-.284-.5451L13.99,5.657l.145-.2291-.347-.4689.017-.125.146.0289.102-.006.049-.056Zm-2.98.547L11.12,5.38l-.199-.104-.086-.094.041-.147.116-.056.132.099.014.101Zm-6.451.58v.041l-.1551-.079-.341-.381.061-.127.313-.247.096-.033.088.153-.076.226-.103.057-.042.212Zm2.018-.083-.276.223-.202-.075L6.18,5.796l.054-.23.03-.061.081-.013.081-.047.088-.102.301.081.074.056-.179.141.06.045.039.067Zm.26.388-.063.011-.065-.112.153-.304.074.245.048.092ZM5.522,6.05l-.0059.099L5.355,6.118l-.3579-.149-.013-.068.2039-.025.1481.0191.124.087ZM9.853,7.079l-.037.007-.132-.035-.16-.011-.098-.098.1161-.14.1459-.091.0671.023.063.059.1469.022.016.18Zm2.749-.362.162.04.078-.006.185.152.247.224-.101.116-.201-.06-.067.024-.021-.016-.042-.112-.219-.111-.196-.009-.025-.132ZM11.43,7.5l.618.454.266-.042.812.008.479.324.281.149.158.29.195.0661.12.148.069.27-.049.044-.248.101-.18.042-.471-.096L13.03,9.05l-.8951-.0249-.4169-.059-.144-.079-.133-.106-.21-.252-.164-.296-.027-.174-.014-.33.051-.121.171-.12Zm5.044.998.031.303-.014.104-.213-.222-.1.0791-.093-.1051.007-.23.0151-.245-.042-.186-.1061-.268.1191.043Zm.471,2.156.353.167.206-.028.305.115.231-.065.1451.148.3649.579.003.188.2391.134-.2021.025-.281-.069-.218.047-.228-.112-.384-.058-.334-.135-.698-.427.004-.213-.1129-.1041-.033-.264-.25-.083-.292-.016-.023-.125.054-.221.218.003.262.092.5.322.124.055Zm12.398,1.051-.224.049-.071-.014-.168.026-.181.205-.133-.029-.104.008-.079-.168-.002-.082.128.013.067-.164.138-.082.322-.038.286.054.102.037-.09.148ZM13.747,14.662l-.195.098-.179-.049-.136-.074-.11-.219-.238-.137-.339-.057-.1389-.095-.036-.047-.235-.042-.067-.119.02-.123.038-.065.217.06,1.043.578.248.179Zm17.831-.378-.248.046-.099-.011-.164-.246.122-.056.182.021.055.145Z" fill="url(#radial-gradient)"/></g></g></svg>