<svg xmlns="http://www.w3.org/2000/svg" xmlns:xlink="http://www.w3.org/1999/xlink" width="47.105" height="39.273" viewBox="0 0 47.105 39.273"><defs><radialGradient id="radial-gradient" cx="23.5525" cy="19.6365" r="21.6831" gradientUnits="userSpaceOnUse"><stop offset="0" stop-color="#ffd496"/><stop offset="1" stop-color="#f29d25"/></radialGradient></defs><title>SD</title><g id="Layer_2" data-name="Layer 2"><g id="Layer_1-2" data-name="Layer 1"><path id="SD" d="M27.058.354l-.09.268h3.288l.921-.001h5.524L37.623.62h3.683l.921-.001.031.686.124.547.434.781.3659.42.1321.231.012.107-.017.1-.111-.115L43.01,3.298l-.026.365.0431.259.045.487.154.522-.111.482.0149.816.1941.976-.039.622.317,1.448.308.802.169.197.191.106.366.068.539.407.427.43.152.225.206.246.142-.044.087-.066.139.199.6769.429.1.199-.244.195-.281.336-.071.134-.033.079-.033.1-.074.099-.1611.136-.0639.059-.038.094-.097.061-.106.003-.092.042-.139.064-.207-.033-.211.059-.077.074-.168.065-.167.014-.059.022-.158.109-.194.153-.227.097-.08.032-.104.105-.1611.524-.1179.137-.198.014h-.2571l-.2229.045-.3031-.058-.1469.007-.039.112-.054.449.007.193-.12.227-.1341.285.0491.48.023.475-.246.714-.035.164-.249.565-.128.211-.318,1.054-.124.324-.266.341.06.555.064.587.06.554.09.827-.226.772.0089.421-.1579.62-.125.287-.111.169-.093.176-.172.386-.146.509-.065.521-.0051.303-.0289.138-.0491.088-.3369.057-.469.062-.252.068-.169.106-.2081.247-.4119.676-.215.414-.338.566-.393.4-.083.195-.065.362-.1451.573-.1329.406.024.328-.124.567.018.276-.138.154-.185.146-.1261.037-.27-.167-.206-.169-.0841-.045-.1789.106-.215.157-.246.366-.191.37.11.785-.01.171-.056.187-.298.584-.074.185-.108.35-.115.611-.004.147h-.003l-.522-.002-.009-.003-.008-.009-.008-.013-.009-.019-.02-.08-.011-.125.018-.216.058-.257.181-.361.009-.03.002-.017v-.019l-.017-.065-.021-.056-.01-.084.031-.188.003-.058-.004-.074-.014-.048-.126-.313-.042-.05-1.215-.997-.222-.271-.024-.018-.03-.014-.617-.228-.03-.023.004-.033.019-.043.074-.132.01-.034.011-.053-.278-2.108.001-.041.012-.028.01-.017.037-.045.032-.046.037-.082.009-.03.039-.378-.003-.33.162-.551.018-.235-1.34-.017-.008.012-.001.015.003.016.002.018-.001.037-.01.068-.003.037.001.036.021.133.035.099.005.033.002.036-.004.069-1.865.008.738.828.0089.017.013.045.005.034.0141.291-.039.46.008.296.043.192.2.378-.013.071-.046.089-1.3231,1.122-.0369.053-.184.468-.1751.271-.0769.078-.307.381L26.38,36.071l-.198.08-.6009.033-.318.009-.036.009-.054.02-.033.031-.039.023-.039-.012-.045-.033-.742-.669-1.324-.845-.127.077-.749.364-.154.094-.086.067-.004.407-.131.206-.236.226-.648.143-.337.122-.345.183-.056.046v-.001l-.132.127-.261.255-.028.198.042.178-2.233-.007-.147-.142-.31-.624-.014-.006-.228.039-2.036-.073-.291.065-.582.258-.293.043-.302-.118L12.192,35.6l-.231-.149-.085-.08-.158-.218-.229-.13-.077-.094-.025-.133.007-.274-.075-.171-.169-.039-1.44.289-.206-.033-.302.052-.104.051-.122.164-.025.17.004.172-.037.169-.11.189-.41.422-.091.184.0191.464-.027.235-.062.109-.178.178-.065.103-.03.145-.01.306-.032.143-.224.36-.053.127-.013.259-.0361.079-.651.205-.2429.131-.149.202-.036.086h0l-.279-.072-.354-.052-.681-.064-.269-.094-.129-.141.0409-.36-.0679-.077-.108-.064-.075-.156.016-.187.359-.416.0739-.222.0571-.773.037-.272-.027-.319-.285-.587-.248-.408-.405-.605-.158-.198-.818-.834-.095-.124-.198-.353.098-.311.12-.462.0141-.214-.056-.221-.207-.166-.184-.02-.082-.084-.16-.122L2.289,31.2l-.14-.182-.097-.255.069-.913-.047-.122-.209-.034-.049-.066.008-.175-.112-.521L1.586,28.5l.067-.238-.174-.326-.334-.14-.315.043-.3381.065L.288,27.886l-.139-.061L.05,27.706,0,27.564l.046-.212.186-.39.231-.32.471-.293.125-.155.072-.173.0119-.198-.0319-.209-.053-.191L.9189,25.17.792,24.872l-.003-.2.061-.144.126-.174.25-.196.06-.039.1571-.105.137-.077.342-.206.08-.099-.029-.119-.084-.097-.138-.136-.028-.167-.04-.285-.071-.182-.051-.133.097-.1.145-.139.1809-.085.2791-.072.11-.1.032-.19-.009-.182.1009-.135.1351-.29.109-.132.183-.151.183-.189.081-.22.023-.211-.1-.642.211-.268.27-.222.388.015.602-.049.41-.092.2921.003.667.12.055-.029.015-.024.0359-.17-.0009-.428-.001-1.296-.001-1.298-.001-1.301-.001-1.305-.001-1.308L6.05,10.712,6.049,9.397,6.048,8.079V6.599L6.74,6.6H8.125l.692.001.009-.006.009-.005.008-.006.009-.004.001-1.482V3.611l.001-1.492V.622H9.926l1.073.001H16.36l1.0719.001H21.72l1.072.001h3.544L26.48.603l.2749-.561L26.8719,0l.1791.033.062.132Z" fill="url(#radial-gradient)"/></g></g></svg>