<svg xmlns="http://www.w3.org/2000/svg" xmlns:xlink="http://www.w3.org/1999/xlink" width="36.5157" height="83.906" viewBox="0 0 36.5157 83.906"><defs><radialGradient id="radial-gradient" cx="18.2579" cy="41.953" r="32.3528" gradientUnits="userSpaceOnUse"><stop offset="0" stop-color="#ffd496"/><stop offset="1" stop-color="#f29d25"/></radialGradient></defs><title>SE</title><g id="Layer_2" data-name="Layer 2"><g id="Layer_1-2" data-name="Layer 1"><path id="SE" d="M36.5157,23.632l-.744.158-.559-.317-.279.159-.487.007-.554.125-.187.247-.147.099-.513-.349-.485-.579-.354.441-.229.083-.2069-.399-.18-.065-.097.133-.085.353-.136.277-.036.175-.0231.704-.0349.163-.471-.0911.028.185.103.093.042.1171-.171.153-.467-.015-.048.1629.131.256-.103.225-.095.088-.559.1391-.323-.032-.093.145-.0251.188.061.185.143.098.047.117-.01.253-.119.046-.336-.445-.103.023.077.231.192.252.111.257.097.308-.019.234-.418.752-.368.473-.274.425-.1619.45.1879.226.208.326.147.625.175.556.353.529-.0709.305-.082.237-.587.521-.666.782-.718,1.984-.239.265-.628.333-.231.322-.4681.382-.817.328-.37.456-.167.47-.1859.034-.185-.184-.246-.137-.032.307.011.225-.394-.333-.186.306-.145.509-.567.684-.611-.123-.068.12.162.087.025.109-.111.058-.1681-.006-.2589.135-.17-.01-.081.322-.132.389-.345.161-.178.033-.088.221.531.046-.042.187-.012.187-.055.2-.604.288-.093.226-.126.14-.269-.008.01-.13.044-.147-.4.013-.125-.325-.076.083.045.262.104.272.117.399-.0949.251-.105.125.077.115.213.088.086.157-.253.134-.316.46-.328.011-.2.304-.213-.001-.173-.191-.2769-.157-.089.276-.014.22.156.555.298.428.276.185-.199.125-.148.276-.179.86-.097.338-.105.594.066.5.054.245.135.333-.367-.043-.388-.194.054.403-.238.476.0441.418.05.271-.0739.449.112.141.0609.267-.101.197.044.169.0171.597.076.931-.0281.196.2131.804-.0491.281-.029.357.3061.343.272-.005.276-.005.1049.085.106.242.0851.286.227-.023.3629-.232.2361-.055.156.446.424.588.247.263.419.139.442.472-.062.568.184.189.521.223.185.301.089.256.137.212.161.639-.056.393-.21.135-.497.42-.221.313-.173.194-.493.417-.181.075-.173.216-.167.095-.15-.054-.56.391-.378-.108-.159-.193.101-.768-.063-.248-.073-.125-.248.143.0441.294-.4291.012-.404-.249-.052.49-.8679-.406-.2391.103-.3829-.204-.2491.244-.296-.088-.205-.29-.284.51-.62.145-.583.081.281.17,1.308-.032.37.126.481-.084.426.4.307.096.363.459.186-.125.292.019.27.131.857-.017.291-.32.429.07.219-.083.168-.196.1841-.045.167.037.1779-.155.14-.062.144.075.161.371-.3339.192-.237.009-.1161.606-.143.26-.103.125-.525.257-.347.325-.409.261-.178-.057-.269.265-.597.313-.307.422-.687.376-.35.306-.9509.016-.9081-.067-.2849.145.292.045.2039.142.245-.06.576.071.296.0781.38.4979-.2789.176-.4841.136.1821.702.1489.472-.1959.284-.0151,1.287-.275.024-.117.53.086.27-.007.625.057.384.135.353-.06.367-.435.857.009.401.079.238.058.379-.198.727-.139.605-.166.508-.371.607-.185.453-.432,1.407-.214.278-.263.213-.293-.197-.269-.107-.328.013-.514.162-.773-.108-.755.052-.191.139.115.507-.279.066-.272-.144-.24.172-.2.188-.393.446-.132.274-.034.515.207.461.183.539-.471.647-.263.022-.768-.18-1.3611.405-1.222-.32.1531-.347-.005-.255.0689-.393.041-.403-.0109-.27-.09-.289-.301-.378L4.058,79.97l-.2009-.543-.14-.227.1011-.012.56.292.13-.036.137-.109-.167-.419-.1441-.189-.0969-.284.327-.077.237.017.174-.32-.101-.519-.254-.16-.212-.07-.4071-.82-.424-.426L2.82,74.417l-.277-1.142-.257.109-.125-.499-.09-.475-.018-.349-.404-.2-.0159-.246-.073-1.1-.4331-.1481-.28-.62-.05-1.1789-.285-.215-.229.06L.294,68.12l.055-.276L.215,66.746.17,65.739l-.108-.306L0,65.075l.055-.31.082-.179.279-.047.261.274.231.69.204.09.278-.18.195-.503.111-.757.13-.725-.154-.778-.164-.686-.012-.202.431-.582.132-.474.143-.453.158-.154.234-.035.273-.085.344-.304.309-.408.236-.375.08-.744.003-.375.104-.279.1-.546-.098-.54-.305-.822-.367-1.163-.057-.638.167-.119.319-.106.605-.031.064-.075.061-.281.137-.381.145-.278.1-.399.048-.362-.346-.547-.453-.562-.307-.187-.546-.474-.384-.397.22-1.521.164-1.141.026-.278.006-.432-.53-1.855.021-.415.05-.375-.057-.641-.0311-.575.091-.175.2161-.326-.207-.506-.017-.042-.39-1.258.596-1.255-.104-.653.3551-.4751.648-1.0919.364-.618.077-.108.288-.272.547-.323.606-.1581.27.002,1.042.219.813.17.119-.171.17-.351.219-.501.019-.559-.079-.824-.119-.495-.572-.323-.627-.443.771-1.411.534-.986.666-1.493.2069-.625.15-.2489.1959-2.33.13-.657.109-.345.0009-.354-.0709-.599-.1871-1.36,1.052-.1691.342-.0959.318-.163.622-.424.305-.376-.17-1.288.376-.438.918-1.534.992-1.481.4651-.564.0479-.276.0381-.445-.207-.702-.222-.436-.433-.829.186-.581.319-.113.421-.229.329-.499.032-.064.556-1.976,1.085-1.01.433-.553.674.416.988.626.439-.921.145-.343.145-.506-.0579-.88L19.639,4.404l.044-.464.394-.207.212-.053,1.098.478.276-.008.518.064.579.209,1.213.556.501.229.28.044.242-.258.5171-.665-.761-.494.501-.501.26-.507.223-.625.081-.734-.031-.396-.154-.271-.465-.676L26.22.028,26.585,0l.766.446.034.097.005.232.027.24.743.607.214.321.4569.486.121.262.423.306.303.327.354.264.413.41L31,4.324l.468.106,1.18.557.201.18.34.387.344.446.238.914.381.047.104.313.333.535.4619.471-.017.158-.368.432-.04.584.0349.743.1161.604-.0121.176-.091.208-.109.325-.04.283.01.138.0369.076.194.006.347.067.204.125.116.687-.039.132-.292.31-.086.246-.008.36.052.396.101.441.229.471.31.491.204.402.096.282.035.198-.139.248-.125.489-.023.558-.057.363-.272.499-.189.1759-.054.262-.023.439.056.534.019.36.058.259.086.169.437.297.245.608.153.487ZM20.9108,62.428l-.07.183-.071-.224.028-.044.048-.221.136-.121.2169.073-.0009.055-.2081.179Zm-.5031,2.418-.125.052-.062-.016.077-.253.057-.109.1891-.102.0579.018Zm2.078,5.928-.051.329-.146-.025-.133-.243.269-.371.411.02.141.078Zm-.225.457-.232.125-.1359.371-.188.063-.18.123-.064,1.1659.3289.4411-.181.062-.165.132-.118.195-.1209.419-.453.237-.1711.175-.2529.389-.1321.563-.2559.24-.2881.0571.1681-.46.221-.376-.212-.259-.128-.405-.166-.3121.132-.349-.065-.5719.021-.5611.192-.2829.22-.231.342-.533.3709-.388.518-.174.2341.161.101-.353.167-.081.1569.082Zm-7.15,7.963-.145.254-.128-.018-.085-.339-.02-.874.051-.434.612-1.572.273-.129.384-.97.104-.434.167-.391.098-.351.083-.142.179.066.08.065-.189.2041.022.265-.013.109-.477,1.149-.127.742-.169.181Z" fill="url(#radial-gradient)"/></g></g></svg>