<?xml version="1.0" encoding="utf-8"?>
<!-- Generator: Adobe Illustrator 22.1.0, SVG Export Plug-In . SVG Version: 6.00 Build 0)  -->
<svg version="1.1" id="Layer_1" xmlns="http://www.w3.org/2000/svg" xmlns:xlink="http://www.w3.org/1999/xlink" x="0px" y="0px"
	 width="36.5157px" height="83.906px" viewBox="0 0 36.5157 83.906" enable-background="new 0 0 36.5157 83.906"
	 xml:space="preserve">
<radialGradient id="SE_1_" cx="18.2579" cy="41.953" r="32.3528" gradientUnits="userSpaceOnUse">
	<stop  offset="0" style="stop-color:#FFD496"/>
	<stop  offset="1" style="stop-color:#F29D25"/>
</radialGradient>
<path id="SE" fill="url(#SE_1_)" d="M36.5157,23.632l-0.744,0.158l-0.559-0.317l-0.279,0.159l-0.487,0.007l-0.554,0.125
	l-0.187,0.247l-0.147,0.099l-0.513-0.349l-0.485-0.579l-0.354,0.441l-0.229,0.083l-0.207-0.399l-0.18-0.065l-0.097,0.133
	l-0.085,0.353l-0.136,0.277l-0.036,0.175l-0.023,0.704l-0.035,0.163l-0.471-0.091l0.028,0.185l0.103,0.093l0.042,0.117l-0.171,0.153
	l-0.467-0.015l-0.048,0.163l0.131,0.256l-0.103,0.225l-0.095,0.088l-0.559,0.139l-0.323-0.032l-0.093,0.145l-0.025,0.188
	l0.061,0.185l0.143,0.098l0.047,0.117l-0.01,0.253l-0.119,0.046l-0.336-0.445l-0.103,0.023l0.077,0.231l0.192,0.252l0.111,0.257
	l0.097,0.308l-0.019,0.234l-0.418,0.752l-0.368,0.473l-0.274,0.425l-0.162,0.45l0.188,0.226l0.208,0.326l0.147,0.625l0.175,0.556
	l0.353,0.529l-0.071,0.305l-0.082,0.237l-0.587,0.521l-0.666,0.782l-0.718,1.984l-0.239,0.265l-0.628,0.333l-0.231,0.322
	l-0.468,0.382l-0.817,0.328l-0.37,0.456l-0.167,0.47l-0.186,0.034l-0.185-0.184l-0.246-0.137l-0.032,0.307l0.011,0.225l-0.394-0.333
	l-0.186,0.306l-0.145,0.509l-0.567,0.684l-0.611-0.123l-0.068,0.12l0.162,0.087l0.025,0.109l-0.111,0.058l-0.168-0.006l-0.259,0.135
	l-0.17-0.01l-0.081,0.322l-0.132,0.389l-0.345,0.161l-0.178,0.033l-0.088,0.221l0.531,0.046l-0.042,0.187l-0.012,0.187l-0.055,0.2
	l-0.604,0.288l-0.093,0.226l-0.126,0.14l-0.269-0.008l0.01-0.13l0.044-0.147l-0.4,0.013l-0.125-0.325l-0.076,0.083l0.045,0.262
	l0.104,0.272l0.117,0.399l-0.095,0.251l-0.105,0.125l0.077,0.115l0.213,0.088l0.086,0.157l-0.253,0.134l-0.316,0.46l-0.328,0.011
	l-0.2,0.304l-0.213-0.001l-0.173-0.191l-0.277-0.157l-0.089,0.276l-0.014,0.22l0.156,0.555l0.298,0.428l0.276,0.185l-0.199,0.125
	l-0.148,0.276l-0.179,0.86l-0.097,0.338l-0.105,0.594l0.066,0.5l0.054,0.245l0.135,0.333l-0.367-0.043l-0.388-0.194l0.054,0.403
	L16.8,50.44l0.044,0.418l0.05,0.271l-0.074,0.449l0.112,0.141l0.061,0.267l-0.101,0.197l0.044,0.169l0.017,0.597l0.076,0.931
	l-0.028,0.196l0.213,0.804l-0.049,0.281l-0.029,0.357l0.306,0.343l0.272-0.005l0.276-0.005l0.105,0.085l0.106,0.242l0.085,0.286
	l0.227-0.023l0.363-0.232l0.236-0.055l0.156,0.446l0.424,0.588l0.247,0.263l0.419,0.139l0.442,0.472l-0.062,0.568l0.184,0.189
	l0.521,0.223l0.185,0.301l0.089,0.256l0.137,0.212l0.161,0.639l-0.056,0.393l-0.21,0.135l-0.497,0.42l-0.221,0.313l-0.173,0.194
	l-0.493,0.417l-0.181,0.075l-0.173,0.216l-0.167,0.095l-0.15-0.054l-0.56,0.391l-0.378-0.108l-0.159-0.193l0.101-0.768l-0.063-0.248
	l-0.073-0.125l-0.248,0.143l0.044,0.294l-0.429,0.012l-0.404-0.249l-0.052,0.49l-0.868-0.406l-0.239,0.103l-0.383-0.204
	l-0.249,0.244l-0.296-0.088l-0.205-0.29l-0.284,0.51l-0.62,0.145l-0.583,0.081l0.281,0.17l1.308-0.032l0.37,0.126l0.481-0.084
	l0.426,0.4l0.307,0.096l0.363,0.459l0.186-0.125l0.292,0.019l0.27,0.131l0.857-0.017l0.291-0.32l0.429,0.07l0.219-0.083l0.168-0.196
	l0.184-0.045l0.167,0.037l0.178-0.155l0.14-0.062l0.144,0.075l0.161,0.371l-0.334,0.192l-0.237,0.009l-0.116,0.606l-0.143,0.26
	l-0.103,0.125l-0.525,0.257l-0.347,0.325l-0.409,0.261l-0.178-0.057l-0.269,0.265l-0.597,0.313l-0.307,0.422l-0.687,0.376
	l-0.35,0.306l-0.951,0.016l-0.908-0.067l-0.285,0.145l0.292,0.045l0.204,0.142l0.245-0.06l0.576,0.071l0.296,0.078l0.38,0.498
	l-0.279,0.176l-0.484,0.136l0.182,0.702l0.149,0.472l-0.196,0.284l-0.015,1.287l-0.275,0.024l-0.117,0.53l0.086,0.27l-0.007,0.625
	l0.057,0.384l0.135,0.353l-0.06,0.367l-0.435,0.857l0.009,0.401l0.079,0.238l0.058,0.379l-0.198,0.727l-0.139,0.605l-0.166,0.508
	l-0.371,0.607l-0.185,0.453l-0.432,1.407l-0.214,0.278l-0.263,0.213l-0.293-0.197l-0.269-0.107l-0.328,0.013l-0.514,0.162
	l-0.773-0.108l-0.755,0.052l-0.191,0.139l0.115,0.507l-0.279,0.066l-0.272-0.144l-0.24,0.172l-0.2,0.188l-0.393,0.446l-0.132,0.274
	l-0.034,0.515l0.207,0.461l0.183,0.539l-0.471,0.647l-0.263,0.022l-0.768-0.18l-1.361,0.405l-1.222-0.32l0.153-0.347l-0.005-0.255
	l0.069-0.393l0.041-0.403l-0.011-0.27l-0.09-0.289l-0.301-0.378L4.058,79.97l-0.201-0.543L3.717,79.2l0.101-0.012l0.56,0.292
	l0.13-0.036l0.137-0.109l-0.167-0.419l-0.144-0.189l-0.097-0.284l0.327-0.077l0.237,0.017l0.174-0.32l-0.101-0.519l-0.254-0.16
	l-0.212-0.07l-0.407-0.82l-0.424-0.426L2.82,74.417l-0.277-1.142l-0.257,0.109l-0.125-0.499l-0.09-0.475l-0.018-0.349l-0.404-0.2
	l-0.016-0.246l-0.073-1.1l-0.433-0.148l-0.28-0.62l-0.05-1.179l-0.285-0.215l-0.229,0.06l0.011-0.293l0.055-0.276l-0.134-1.098
	L0.17,65.739l-0.108-0.306L0,65.075l0.055-0.31l0.082-0.179l0.279-0.047l0.261,0.274l0.231,0.69l0.204,0.09l0.278-0.18l0.195-0.503
	l0.111-0.757l0.13-0.725L1.672,62.65l-0.164-0.686l-0.012-0.202l0.431-0.582l0.132-0.474l0.143-0.453l0.158-0.154l0.234-0.035
	l0.273-0.085l0.344-0.304l0.309-0.408l0.236-0.375l0.08-0.744l0.003-0.375l0.104-0.279l0.1-0.546l-0.098-0.54L3.64,55.586
	l-0.367-1.163l-0.057-0.638l0.167-0.119l0.319-0.106l0.605-0.031l0.064-0.075l0.061-0.281l0.137-0.381l0.145-0.278l0.1-0.399
	l0.048-0.362l-0.346-0.547l-0.453-0.562l-0.307-0.187L3.21,49.983l-0.384-0.397l0.22-1.521l0.164-1.141l0.026-0.278l0.006-0.432
	l-0.53-1.855l0.021-0.415l0.05-0.375l-0.057-0.641l-0.031-0.575l0.091-0.175l0.216-0.326l-0.207-0.506l-0.017-0.042l-0.39-1.258
	l0.596-1.255l-0.104-0.653l0.355-0.475l0.648-1.092l0.364-0.618l0.077-0.108l0.288-0.272l0.547-0.323l0.606-0.158l0.27,0.002
	l1.042,0.219l0.813,0.17l0.119-0.171l0.17-0.351l0.219-0.501l0.019-0.559l-0.079-0.824l-0.119-0.495l-0.572-0.323l-0.627-0.443
	l0.771-1.411l0.534-0.986l0.666-1.493l0.207-0.625l0.15-0.249l0.196-2.33l0.13-0.657l0.109-0.345l0.001-0.354l-0.071-0.599
	l-0.187-1.36l1.052-0.169l0.342-0.096l0.318-0.163l0.622-0.424l0.305-0.376l-0.17-1.288l0.376-0.438l0.918-1.534l0.992-1.481
	l0.465-0.564l0.048-0.276l0.038-0.445l-0.207-0.702l-0.222-0.436l-0.433-0.829l0.186-0.581l0.319-0.113l0.421-0.229l0.329-0.499
	l0.032-0.064l0.556-1.976l1.085-1.01l0.433-0.553l0.674,0.416l0.988,0.626l0.439-0.921l0.145-0.343l0.145-0.506l-0.058-0.88
	l-0.025-1.149l0.044-0.464l0.394-0.207l0.212-0.053l1.098,0.478l0.276-0.008l0.518,0.064l0.579,0.209l1.213,0.556l0.501,0.229
	l0.28,0.044l0.242-0.258l0.517-0.665l-0.761-0.494l0.501-0.501l0.26-0.507l0.223-0.625l0.081-0.734l-0.031-0.396l-0.154-0.271
	l-0.465-0.676l1.053-0.097L26.585,0l0.766,0.446l0.034,0.097l0.005,0.232l0.027,0.24l0.743,0.607l0.214,0.321l0.457,0.486
	l0.121,0.262l0.423,0.306l0.303,0.327l0.354,0.264l0.413,0.41l0.555,0.326l0.468,0.106l1.18,0.557l0.201,0.18l0.34,0.387L33.5329,6
	l0.238,0.914l0.381,0.047l0.104,0.313l0.333,0.535l0.462,0.471l-0.017,0.158l-0.368,0.432l-0.04,0.584l0.035,0.743l0.116,0.604
	l-0.012,0.176l-0.091,0.208l-0.109,0.325l-0.04,0.283l0.01,0.138l0.037,0.076l0.194,0.006l0.347,0.067l0.204,0.125l0.116,0.687
	l-0.039,0.132l-0.292,0.31l-0.086,0.246l-0.008,0.36l0.052,0.396l0.101,0.441l0.229,0.471l0.31,0.491l0.204,0.402l0.096,0.282
	l0.035,0.198l-0.139,0.248l-0.125,0.489l-0.023,0.558l-0.057,0.363l-0.272,0.499l-0.189,0.176l-0.054,0.262l-0.023,0.439
	l0.056,0.534l0.019,0.36l0.058,0.259l0.086,0.169l0.437,0.297l0.245,0.608l0.153,0.487L36.5157,23.632z M20.9108,62.428l-0.07,0.183
	l-0.071-0.224l0.028-0.044l0.048-0.221l0.136-0.121l0.217,0.073l-0.001,0.055l-0.208,0.179L20.9108,62.428z M20.4077,64.846
	l-0.125,0.052l-0.062-0.016l0.077-0.253l0.057-0.109l0.189-0.102l0.058,0.018L20.4077,64.846z M22.4857,70.774l-0.051,0.329
	l-0.146-0.025l-0.133-0.243l0.269-0.371l0.411,0.02l0.141,0.078L22.4857,70.774z M22.2607,71.231l-0.232,0.125l-0.136,0.371
	l-0.188,0.063l-0.18,0.123l-0.064,1.166l0.329,0.441l-0.181,0.062l-0.165,0.132l-0.118,0.195l-0.121,0.419l-0.453,0.237
	l-0.171,0.175l-0.253,0.389l-0.132,0.563l-0.256,0.24l-0.288,0.057l0.168-0.46l0.221-0.376l-0.212-0.259l-0.128-0.405l-0.166-0.312
	l0.132-0.349l-0.065-0.572l0.021-0.561l0.192-0.283l0.22-0.231l0.342-0.533l0.371-0.388l0.518-0.174l0.234,0.161l0.101-0.353
	l0.167-0.081l0.157,0.082L22.2607,71.231z M15.1107,79.194l-0.145,0.254l-0.128-0.018l-0.085-0.339l-0.02-0.874l0.051-0.434
	l0.612-1.572l0.273-0.129l0.384-0.97l0.104-0.434l0.167-0.391l0.098-0.351l0.083-0.142l0.179,0.066l0.08,0.065l-0.189,0.204
	l0.022,0.265l-0.013,0.109l-0.477,1.149l-0.127,0.742l-0.169,0.181L15.1107,79.194z"/>
<g>
	<text transform="matrix(1 0 0 1 11.0329 65.7821)" fill="#770B00" font-family="'KornerDeliNF'" font-size="3.136px">Stockholm</text>
	<g id="Layer_2_copy_2_8_" opacity="0.9">
		<path fill="#9B0F00" d="M19.9305,59.3861c-0.1402-0.0276-0.5271-0.0312-0.6406-0.0317v-0.0001c0,0-0.0057,0-0.0159,0
			c-0.0102,0-0.0159,0-0.0159,0v0.0001c-0.1135,0.0005-0.5004,0.0041-0.6406,0.0317c-1.6678,0.3283-1.1611,1.8331-0.8101,2.3402
			c0.2973,0.4295,1.3131,1.5778,1.3131,1.5778h0.3071c0,0,1.0158-1.1483,1.3131-1.5778
			C21.0916,61.2192,21.5983,59.7144,19.9305,59.3861z"/>
		<path fill="#770B00" d="M19.7944,59.3861c-0.1093-0.027-0.4066-0.0311-0.5045-0.0317v-0.0001c0,0-0.0057,0-0.0159,0
			c-0.0102,0-0.0159,0-0.0159,0v0.0001c-0.0979,0.0006-0.3952,0.0047-0.5045,0.0317c-1.3301,0.3283-0.926,1.8331-0.6461,2.3402
			c0.2371,0.4295,1.0472,1.5778,1.0472,1.5778h0.2385c0,0,0.8101-1.1483,1.0472-1.5778
			C20.7204,61.2192,21.1245,59.7144,19.7944,59.3861z"/>
		<path fill="#4C0700" d="M19.4711,59.3861c-0.0377-0.0234-0.1316-0.0296-0.1812-0.0312l0-0.0006c0,0-0.006,0-0.0159,0.0002
			c-0.0099-0.0002-0.0159-0.0002-0.0159-0.0002v0.0006c-0.0496,0.0016-0.1435,0.0078-0.1812,0.0312
			c-0.5282,0.3283-0.3677,1.8331-0.2566,2.3402c0.0942,0.4295,0.4159,1.5778,0.4159,1.5778h0.0756c0,0,0.3217-1.1483,0.4159-1.5778
			C19.8388,61.2192,19.9993,59.7144,19.4711,59.3861z"/>
	</g>
</g>
</svg>
