<svg xmlns="http://www.w3.org/2000/svg" xmlns:xlink="http://www.w3.org/1999/xlink" width="8.807" height="5.795" viewBox="0 0 8.807 5.795"><defs><radialGradient id="radial-gradient" cx="4.4035" cy="2.8975" r="3.7274" gradientUnits="userSpaceOnUse"><stop offset="0" stop-color="#ffd496"/><stop offset="1" stop-color="#f29d25"/></radialGradient></defs><title>SI</title><g id="Layer_2" data-name="Layer 2"><g id="Layer_1-2" data-name="Layer 1"><path id="SI" d="M8.807,1.482l-.248-.099L8.26,1.341l-.056.054-.12.055-.061.098.046.384-.072.066-.34-.038-.112.044-.185.267-.189.113-.24.08-.178.096-.225.084-.191.051-.076.116-.046.129.012.124.195.245.026.261-.021.319-.045.17-.077.113-.479.146-.497.261-.011.06.227.231.009.058-.188.131-.018.132.021.152.1.157.036.141-.273.102-.37-.038L4.424,5.51l-.153.028-.148.102-.152-.044-.167-.121-.236-.251-.115-.155-.047-.164-.064-.024-.098.048-.081.2-.218.357-.162.097L2.54,5.562l-.342.006-.213.03-.26-.126-.063.024v.083l-.097.13-.16.086L.666,5.602l-.105-.16.167-.076.231-.207.157.023.194-.044.084-.088-.122-.262L.964,4.464.801,4.341.576,4.259.538,4.172l.124-.513L.624,3.586.368,3.61l-.06-.053L.287,3.468l.017-.122.173-.201.192-.177.052-.099L.714,2.79.467,2.712.319,2.631.201,2.603.12,2.648.061,2.597,0,2.449l.06-.227.222-.209L.52,1.827l.207-.136.119-.058.057-.234.124.025.245.012.274.053.254.066.225.082.47.086.429.052.129.048.105-.004.131.07.076-.054.056-.093.233-.112.215-.145.151-.184.085-.146.148-.104.157-.03L4.554.969,5.161.9l.624.055L6.082.852,6.327.674l.359-.05L6.704.621l.535.138L7.28.679,7.303.643,7.293.254l.17-.178L7.619,0l.535.025.07.12.028.186L8.3.58l.089.068.049.098-.01.172.105.128.244.346Z" fill="url(#radial-gradient)"/></g></g></svg>