<svg xmlns="http://www.w3.org/2000/svg" xmlns:xlink="http://www.w3.org/1999/xlink" width="119.915" height="113.586" viewBox="0 0 119.915 113.586"><defs><radialGradient id="radial-gradient" cx="59.9575" cy="56.793" r="58.3967" gradientUnits="userSpaceOnUse"><stop offset="0" stop-color="#ffd496"/><stop offset="1" stop-color="#f29d25"/></radialGradient></defs><title>SJ</title><g id="Layer_2" data-name="Layer 2"><g id="Layer_1-2" data-name="Layer 1"><path id="SJ" d="M.408,113.531l-.259.055L0,113.396l.377-.522,1.246-.987.497-.947.96-.327.063.528-.065.654-.843.518-.935.35ZM79.475,80.074l-.339.404-.508-.609-.337-.785.179-.299.903-.04.2211.409.0369.233Zm6.704-50.916.3859.335.8351-.069.461,2.381.2589,2.487.42.178.801-.34.714-.166.3661.184.6519.719.281.504-.245.395-.5969.441-.099,1.308.601.453.992,1.105.559.143.997-.452.936.856.927,1.033-2.167,1.296-.19.362-.3.952-.319.779-.2949.458-.6481.785-.349.271-.784-.06-.294.311-.2719.633-.274.454-.696.116-.355-.628.117-.194.05-.372-.124-.89.664-.915.15-.509-.132-.184-.183.05-.483-.28-.143.014-.4.536-.555.36-.563.091-2.263.688-.342-.241-.1539-1.371.92-.708.141-1.201.232-.804.271-.535.498-1.387.125-.1-1.242-1.107-.491-.722-.535-1.453-.164-1.185-.725-1.015.089-1.306-.526.103-.406-.922.378-.52,1.92-.592,1.145-.579Zm14.785-.757-.412.035-.757-1.055-.146-.922.135-.378.365-.014.569,1.26.614.379Zm-43.854.544.032.977.457-.097.539,1.036.588.547.166.374.125.48.356.962.169,1.008-.425.106L58.532,32.9l-.478-.823-.601-.706-.486-.035-.219-.309-.788-2.566-.145-.597-.45-.965-.199-1.208.001-.951.602.225.528.597.458,1.344.082.415-.209.55.215.649Zm49.9469-4.339.837.092.841-.231.145.247-1.083.766-1.206-.407-1.085-.104-1.281.849-.418-.339.651-.819.71-.272.114-.502.271-.086.938-.052ZM72.6479,9.409l.146.032.1421-.17.103-.45.114-.249.71.292,1.0071.898.299.441.42.905.341,1.511-.271,1.083-.357,1.019-.126.56.13.801-.053.776-.13.684.54-.78,1.154-2.522.172-.157.18.086.517.521.469,1.288.103.424.084.519.048.64-.026.73-.0431.507-.245.327-.119.298.265.022.303.39.277.826.31.331,1.125-.279.731.431.401,1.345.618-.303.002-.717.136-.308.829.245.429.335.438.704-.748,1.146.617,1.092,1.036.787.625.822.113.343.102.455-.407.588-.414.331-1.043.057-.948.414-1.735.293-.258.187-.061.167-.102.506-.667,1.161-.646,1.404-.267.84-.201,1.169-.074.711.144.686-.038.691-.486.54-.308.021-.386-.106-.38.31-.024.465.022.653-.097,1.977-.118,1.475-.177,1.359-.199.728-.254.202-.815.133-.628,1.257-.507,2.224-.264.865-.55,1.357.1.479.171.517-.3.921L73.1851,52.7l.0089.396.156.722.076.748-.3579.641-.6581.325-.67-.364-.326-.43-.302-.69-.321-.452-.334-.272-1.285-1.546-1.186-2.475-1.083-.973-.706-.463-.34-.45-.332-.606-.2869-.684-.2671-.867-.129-.541-.024-.815.085-.48.1271-.247.86-.203.3091.115.304.428.277.168.6339-2.141,3.607-1.237,1.159-.215,1.163.013-.181-.588-.154-.748-.171-.182-.879.42-1.346.441h-.656l-.677-.294-.675.162-.696.639-.702.403-.6821.162-1.442-.065-.357-.33-.481-.766-.117-.394-.1-.484-.094-1.463.104-.4.147-.23.151-.142.317-.007.311.254.728.836-.166-.897,2.095-1.087.973-.956.5-.161.501.07-.11-.511-.004-.475.356-.388.256-.167.771-.191,1.7589.033.634-.263.475-.666-.506.232-.507.044-.237-.138-.537-.583-.244-.769.696-1.546.242-.722-.708.104-.2361.253-.8109,1.423-.599.636-.739.305-.7391-.026-.161-.201-.226-.938-.071-.495.03-.272.234-.782.122-.831-.021-.719-.172-.145-.273.704-.247.974-.339.486-.35-.133-.149-.373-.13-.572-.137-.221h-.152l-.313.229-.31.423.107.64.028.709-.1339.561-.101.683.3189.429.26.663-.39.311-.382.452-.351.695-.359.539-.569.057-.709.298-1.417.105-.666-.877-.122-.418-.133-.281L61.08,32.12l-.645-1.374-.497-1.578-.335-.154-.496-.524-.27-.45-.257-.603-.077-.717.025-.656.297-.292-.702-.741-.689-.984.254-.332.256-.146,2.042,1.149.136-.143.224-.57-.08-.192-.342-.132-.466.004-.116-.118-.18-.621-.157-.767-.067-.513-.026-.603.347-.908.19-.818-.296-.38-.839.023-.279.116.103,1.175-.267.807-.512.627-.367-.305-.283-1.544-.37-1.084-.139-.687-.106-.993-.15-.727-.272-.882-.036-.546.034-.405.207-.922-.157-.772-.192-.68-.012-.389.18-.481.162-.16.174.035.515.573.283.683.098-.055.184-1.016.261-.23,1.007-.336,1.121,1.313.29.291.232.094-.12-.581-.073-.757.171-.287.905.677.424-.041.994-.886,1.643-.466.621.701.0319.373-.013.501-.04.15-.363.581-2.072.473-1.358,1.803,1.852-.289.333.206.14,1.451.135.152.476.21.323.43.33.816.347.547.203-.068.074-.593-.083-.705-.043-.807.0239-.875.0561-.727.389-.514.565-1.679.6-1.148.6681.511.619,1.432.558,2.021.541,2.131.606,2.603.292.908.265.214,1.224,2.647.138.073-.253-2.008-.634-3.457-.4279-2.706-.097-1.046-.069-1.481.027-.426.055-.387.31-1.606.406-.786L70.6,8.651l.104-.861.426-.684.396-.05.385.52ZM116.82,5.973l-2.6619.615-.269-.431,4.314-1.808.223-.177.8011-.226.6879.412-.2039.318Zm-38.685-3-.6079.919-1.018-.707.1209-.728.242-.444.639.167Zm6.0511.848.282.184,1.546-.067.296.404.117.977.236.334.329.104.821,1.187.279.17.243-.658.1859-1.649.01-1.956-.0789-.956.0919-.616.2751-.24.346.064.338-.344.292-.608.313-.084.683.462.18.362-.1829.746-.071,1.059-.309,2.166.67.133.9391-.456.2379-.626.505-1,.534.158.256-.133.1291-.437.049-.521.2949.087.404,1.003.188.155.344-.258.139.01.34.399,1.584.723.549.385.236.359.2391.211,1.685-.005,1.19.254.439.566.368,1.08.141,2.463-.3331.659-2.41,2.969-.604.943-.292.864-.493,1.873-.239.562-1.128.882-.264.094-.848-.431-.259.04-1.031.955-.355.575-.348.722-.52.317-.53-.17-2.4-.375-.3209-.507-.263-.978.4769-1.26-2.677.47-2.948-.255-.156-.178-.1259-.489-1.014-.335-.762-.403-.64-.681-.6329-.888.203-.417.208-.244.544-.103.4829.124.86-.007.2-.903.342-.261.273-.651-.908-.412-.946-.062-.631.542-.731.245-.668.032-1.285-.153-.609-.385-.833-1.01-.29-.56-.112-.441-.083-.67.952-.604.37-.476.3641-.653-1.438-.373-.602-.551-.597-.813.484-.46,1.936-.368.513.308.508.593.563.364.544-.767-.5121-.364-.458-1.286-.0969-.643.0609-.495.24-.074.179.215L80.455,3.82l.513.377.1439-1.12.023-.536-.0939-.444L80.8,1.275,80.5839.259,80.9179,0l.331.112.71.698.716.489.3271.492.61,1.22Z" fill="url(#radial-gradient)"/></g></g></svg>