<svg xmlns="http://www.w3.org/2000/svg" xmlns:xlink="http://www.w3.org/1999/xlink" width="15.93" height="7.775" viewBox="0 0 15.93 7.775"><defs><radialGradient id="radial-gradient" cx="7.965" cy="3.8875" r="6.2671" gradientUnits="userSpaceOnUse"><stop offset="0" stop-color="#ffd496"/><stop offset="1" stop-color="#f29d25"/></radialGradient></defs><title>SK</title><g id="Layer_2" data-name="Layer 2"><g id="Layer_1-2" data-name="Layer 1"><path id="SK" d="M15.93,2.255l-.041.176-.115.205-.143.212-.12.256-.16.545-.104.252-.428.496-.03.689-.058.05-.967.233-.127-.035L13.505,5.2l-.073-.098-.045-.071-.084-.191-.111-.135-.164-.111-.15-.128-.193-.005-.522.181-.362.02-.242-.058-.322-.11-.627-.017-.429.096-.043.135-.396.84-.576.31-.5.316-.145.064-.249-.1-.283-.187-.235-.098-.172.043-.187.213-.086.215-.566.158-.985.093-.344.212-.117.254-.005.195.084.166-.105.193-.046.081-.696.042-.928.057L3.046,7.76l-.522-.013-.355-.166-.434-.324-.459-.431-.044-.01L1.164,6.77.876,6.737l-.077.026L.627,6.622l-.05-.183L.309,5.958.008,5.164,0,4.934l.118-.262.109-.201.016-.159.011-.043.091-.331.218-.44.204-.256.147-.085.305.077.521.064.401-.06.374-.197.203-.172.173-.181.058-.118.077-.056.309-.105.099-.122.04-.232.027-.258.063-.192.08-.141.572-.338.052-.12L4.359.891l.17-.13L4.693.573,4.867.458,5.09.471,5.296.447,5.457.381,5.528.375l.297.053.054.216L5.91.868,6.418.852l.283-.48L6.848.314,7.083.147,7.238,0l.107.091.154.31.164.248.095.098.01.076.095.046.185.027.123.075.036.231.003.208-.058.149-.03.132.128.052.188-.05.132-.075.397.172.14-.383.158-.196.204-.092L9.655,1,9.824.915,9.941.92,9.992.884l.145.01.169.038.229-.045.316.094.198.177.194.06.221-.01.151-.098.219-.337.16.005.249-.053.352.003L13.407.8l.203.129.5.165.218.191.096.227.051.157.512.241.759.307Z" fill="url(#radial-gradient)"/></g></g></svg>