<svg xmlns="http://www.w3.org/2000/svg" xmlns:xlink="http://www.w3.org/1999/xlink" width="8.443" height="8.7179" viewBox="0 0 8.443 8.7179"><defs><radialGradient id="radial-gradient" cx="4.2215" cy="4.359" r="4.2908" gradientUnits="userSpaceOnUse"><stop offset="0" stop-color="#ffd496"/><stop offset="1" stop-color="#f29d25"/></radialGradient></defs><title>SL</title><g id="Layer_2" data-name="Layer 2"><g id="Layer_1-2" data-name="Layer 1"><path id="SL" d="M8.443,4.2779l-.007.087-.081.404-.126.346L8.146,5.2l-.357.091-.152.152-.131.492-.0841.386-.1229.065-.524.557-.343.211-.239.182-.227.236-.285.23-.306.388-.218.403-.149.125-.112-.114-.521-.397-.55-.267-1.171-.444-.39-.125.014-.158.134-.289-.218-.339.084-.247H2.194l-.168.148-.357-.043-.237-.212-.193-.078-.084-.106-.124-.559-.089-.254-.1789-.157-.359-.039L.256,4.6969l-.199-.265.033-.163.162.009.127.119.205.049.255-.287.228-.156.053-.136-.028-.075-.138.116-.378-.03-.094.104-.169.033L.182,3.68l.006-.198.054-.217.381-.038.033-.07L.391,3.11.06,2.8569,0,2.6819.164,2.623l.157.026.136.038.148-.063.138-.096.083-.123.112-.329.358-.11.211-.202.201-.313.092-.22.083-.11.052-.095L1.974.922l.09-.096L2.158.593,2.222.381,2.428.279,2.85.189l.38.154L3.846.209,3.879.01,4.443.007,5.111.003,5.667,0l.191.053.069.148L6.11.433l.191.161.237.353.276.411.298.371.191.201L7.325,2l-.014.08-.095.188-.081.204.008.077.057.038.3121.063.028.227v.314l.151.293.144.215-.007.077-.352.367-.137.365-.07.103-.028.082.07.039.097-.024.136.03.13.011.172-.131.287-.335.096-.041ZM2.148,7.2309l-.041.073-.187-.181-.967-.271.273-.144.671-.043.2.084.089.07.033.133Z" fill="url(#radial-gradient)"/></g></g></svg>