<svg xmlns="http://www.w3.org/2000/svg" xmlns:xlink="http://www.w3.org/1999/xlink" width="17.269" height="12.537" viewBox="0 0 17.269 12.537"><defs><radialGradient id="radial-gradient" cx="8.6345" cy="6.2685" r="7.5448" gradientUnits="userSpaceOnUse"><stop offset="0" stop-color="#ffd496"/><stop offset="1" stop-color="#f29d25"/></radialGradient></defs><title>SN</title><g id="Layer_2" data-name="Layer 2"><g id="Layer_1-2" data-name="Layer 1"><path id="SN" d="M14.748,5.419l.264.463-.057.223-.06.324.149.236.175.153.125.142.138.194.022.388-.025.279.09.126.076.16-.015.132-.05.118-.168.156-.028.289.272.35.175.191-.001.109.049.12.129.14.08-.033.087-.114.039-.079.236.035.11.036.151.229.055.152.036.191.157.238.137.168.028.105.122.142-.075.315.008.161-.083.423-.019.2.006.073.186.151-.02.213-.189-.037-.328-.025-.657.111-.227-.045-.431.015-.308.061-.39.139-.303-.035-.164-.109-.216.008-.243-.059-.258-.106-.237-.053-.255-.195-.119-.034-.084.051-.071.064-.073.04-.139-.035-.052-.132.044-.128.012-.097-.065-.053-.155-.017h-.252l-.406-.04-.092-.025-.909-.033-.941-.004-.798-.003-1.008-.005-.708-.003-.661-.003-.51.261-.553.281-.743.15-.855-.056-.273.041-.283.125-.208.09-.294.055-.381-.045-.154.027-.095-.128-.11-.208.069-.152.232-.098.349-.128.183.066.107.003.02-.082-.034-.044-.264-.111-.136-.147-.113.086-.098.18-.081.054-.119.05-.067-.122-.03-.119.055-.093-.028-.517.032-.276-.017-.241.165-.159.157-.099.611-.009.569-.009.548.006.558.005.055-.483.177-.038.264-.05.493-.059.549-.056.117-.095.091-.16.057-.144.114-.061.154.048.201.076.209.116.239.108.159.069.383.17.655.237.538.095.651-.174.47-.111.058-.208-.073-.203-.35-.186L9.51,9.08l-.146.05-.222.062-.133.024-.224-.043L8.5,9.012,8.321,8.85,8.07,8.775l-.297-.077-.477-.333-.248-.06-.236-.017-.452.066-.442.178-.232.404L5.244,8.93l-.939-.012-.862-.012-.711.027L2.66,8.64l-.168-.234-.274-.199-.06-.186.092-.162.265-.132.06-.096-.139.015-.209.086-.139.004L2.071,7.48l-.232-.331-.262-.561-.296-.229-.249-.455L.772,5.73.533,5.649l-.204.016-.075.208L0,5.574l.347-.107.743-.375.853-1.074.765-1.275.099-.301.094-.229.061-.522.11-.311.103-.06.13-.239L3.461.662,3.639.429,3.837.383l.155.021.11.086.323.054.535.02L5.374.501,5.666.356,6.05.282,6.525.28,6.776.219,6.8.099,6.862.063,6.961.11,7.055.091,7.142.005,7.23,0l.087.074.398.022.71-.029.655.22.602.469.311.313.019.157.1.158.18.159.164.029.15-.1.117.011.084.122.172.025.191-.075.136.026.025.072.032.039.092.017.124.092.175.249.142.347.109.445.145.242.179.039.105.091.02.106.053.072.086.04.152-.024.178.15.192.326.03.146-.03.079.011.058.128.055.12.106.098.16.212.142.326.125.235.186.144.247.298.208Z" fill="url(#radial-gradient)"/></g></g></svg>