<svg xmlns="http://www.w3.org/2000/svg" xmlns:xlink="http://www.w3.org/1999/xlink" width="29.26" height="38.383" viewBox="0 0 29.26 38.383"><defs><radialGradient id="radial-gradient" cx="14.63" cy="19.1915" r="17.0639" gradientUnits="userSpaceOnUse"><stop offset="0" stop-color="#ffd496"/><stop offset="1" stop-color="#f29d25"/></radialGradient></defs><title>SO</title><g id="Layer_2" data-name="Layer 2"><g id="Layer_1-2" data-name="Layer 1"><path id="SO" d="M1.595,38.383l.013-.229-.044-.114-.266-.343-.497-.638-.376-.483L.04,36.083l-.002-.395L.034,34.513l-.01-2.349-.008-2.35-.01-2.35L.001,26.288,0,25.807l.04-.078.439-.431.58-.572.762-1.085.414-.591.346-.491.087-.15.306-.298.573-.178.356-.03,1.225-.223.182-.09.107-.103.102-.235.238-.33.308-.228.585-.296.573-.251.127-.041.69-.158.169-.054.279-.055.11-.002.958.055.75.044.771.044.082-.034.539-.586.858-.935.548-.596.846-.922.65-.666.719-.736.699-.674.839-.811.53-.511.822-.794.783-.757.692-.669H16.877l-.164-.081-.772-.26-.978-.329-1.214-.408-.865-.29-.922-.305-.935-.308-.734-.242-.915-.302-.795-.263-.109-.064-.441-.401-.579-.527L7.343,7.5l-.276-.11-.248-.285-.256-.364-.237-.456-.103-.31-.317-.131-.152-.245-.287-.363L5.268,5.06l-.071-.154-.092-.318-.164-.347-.157-.214-.036-.093.009-.06.291-.47.131-.168.149-.162.121-.162.047-.111.353-.554.311-.488.243-.381.548.436.533.884.621.714.858.662.34.224.301.118,1.561-.018,1.108-.604,1.006-.438.338-.091.584.12.644.036.579.133.294-.034,1.146-.509.72-.496.491-.211.193-.002.67.179.861-.078,1.178-.428.375-.087.286-.006.641.193.1-.01.347-.036.915-.204.713-.308,1.313-.223L26.666.73l.175-.273.302-.344L27.581,0l1.12.404.179.032L28.815.68l-.039.249-.229.434-.147.482.108.736.052,1.192-.027.173-.074.17-.031.135-.121.047-.053.077.088.03.35-.129-.006-.143.02-.07.288.159.206.066.06.15-.016.102-.327-.047-.167-.079-.485.13-.297.14-.089.234-.069.932-.115.604-.022.799-.393.528-.132.372-.584.746-.304.636-.1.311-.513.872-.705.668-.254.853-.252.535-.285.484-.622.862-.318.598-.399,1.038-.123.656-1.123,1.904-1.165,1.516-.725,1.275-1.302,1.478-1.775,1.907-2.324,2.262-.63.461L11.102,28.61,9.453,29.778l-.842.795-.884.692-.702.659L4.904,34.146l-.218.209-.206.197-.267.377-.186.149-.506.636-.317.329-.354.326-.151.23-.106.265-.119.147-.319.632-.282.414Z" fill="url(#radial-gradient)"/></g></g></svg>