<svg xmlns="http://www.w3.org/2000/svg" xmlns:xlink="http://www.w3.org/1999/xlink" width="11.405" height="11.602" viewBox="0 0 11.405 11.602"><defs><radialGradient id="radial-gradient" cx="5.7025" cy="5.801" r="5.752" gradientUnits="userSpaceOnUse"><stop offset="0" stop-color="#ffd496"/><stop offset="1" stop-color="#f29d25"/></radialGradient></defs><title>SR</title><g id="Layer_2" data-name="Layer 2"><g id="Layer_1-2" data-name="Layer 1"><path id="SR" d="M10.94,1.777l-.236.198-.257.282-.338.487.015.153-.074.124-.018.218.024.245.087.16.04.304-.067.274.026.16.068.252.056.27-.006.108.082.089.076.086-.024.24.267.428.163.186.238.182.086.177.134.214.08.025.043.086-.044.165-.009.229-.151.266-.35.487-.043.113.091.404-.048.332-.021.159-.172.291-.408.703-.234.127-.142.203-.091.002-.102.019-.032.025-.128-.002-.1-.09-.016-.106L9.352,9.93l-.126-.037-.238.043-.069-.031-.141-.13-.117-.143-.03-.138-.075.013-.181.125-.124.025-.097-.032-.109.009-.276.134-.163.03-.116.135-.767.061-.202.035-.458-.232-.118-.076-.06-.011-.051.012-.05.052-.076.292-.069.079-.12.065-.117.116-.023.113.18.063.15.219.163.176.131.154-.018.176-.022.249-.095.085-.159.041-.581-.12-.446-.108-.187-.023-.085-.028-.111-.091-.113-.084-.181-.031-.216-.057-.16-.219-.165-.311-.058-.141-.129-.136-.126-.194-.039-.172L3.017,9.73l-.05-.053-.074-.214-.016-.08-.036-.01-.052-.069-.102-.229-.023-.057-.045-.02L2.5,8.837l-.095-.056L2.37,8.698l.008-.224-.051-.111-.015-.211-.003-.084L2.26,7.974l-.081-.061L2.165,7.76l-.02-.376-.039-.066-.342.005L1.73,7.36l-.148.022-.165.004-.15-.05L1.144,7.27l-.027-.082.019-.261L.937,6.729.622,6.484.527,6.173.411,5.979.062,5.573,0,5.295V5.098l.122-.18L.293,4.6l.071-.288.052-.15.088-.197.08-.255L.523,3.553.419,3.4.385,3.284l.101-.168.101-.119.115-.016.146-.072.115-.102.175-.027.218-.011h.446l.228-.044.071-.082L2.09,2.485l.113-.143.119-.06.048-.047.007-.053-.031-.048-.048-.032-.124-.011-.109-.248.075-.108.096-.199.027-.113.149-.176.036.054L2.563.979,2.577.717,2.665.459,2.8.153,3.043.001,4.458.156l.646.146.831.252.118.27.006-.27L6.018.282l.23-.193L6.752.021l.755.093L8.156,0l.883.014,1.34.22.6.15.247.136.047.244-.023.313-.098.299Z" fill="url(#radial-gradient)"/></g></g></svg>