<svg xmlns="http://www.w3.org/2000/svg" xmlns:xlink="http://www.w3.org/1999/xlink" width="31.211" height="24.602" viewBox="0 0 31.211 24.602"><defs><radialGradient id="radial-gradient" cx="15.6055" cy="12.301" r="14.0507" gradientUnits="userSpaceOnUse"><stop offset="0" stop-color="#ffd496"/><stop offset="1" stop-color="#f29d25"/></radialGradient></defs><title>SS</title><g id="Layer_2" data-name="Layer 2"><g id="Layer_1-2" data-name="Layer 1"><path id="SS" d="M27.537,6.756l-.181.361-.058.257-.018.216.011.125.02.08.009.019.008.013.008.009.009.003.522.002h.003l-.003.115.021.572.018.5.03.817.001.213-.02.265-.062.105-.148.15-.187.137-.472.035-.394-.005-.279-.03-.382-.012-.359.029-.132.116-.194.409-.28.593-.148.251-.038.146.044.087.185.126.408.178.467.104.348.045.237.049.183.054.663.454.212.211.119.187.028.199.095.201.383.397.221.229.575.294.221.333.213.161.202.174.108.259.249.751.168.394.172.322.068.523.136.234.14.285.232.258.247.196.045.053-.516.505-.579.566-.669.656-.729.712-.571.564-.563.556-.658.657-.486.485-.081.068-.141.09-.463.002-.478-.057-.44-.295-.447.229-.283.072-.169.026-.399.037-.559.123-.253.153-.137.121-.113.223-.057.023-.103-.026-.143-.09-.299-.129-.151-.284-.138-.171-.115-.09-.474.283-.23.066-.188-.008-.344-.159-.38-.136-.196.001-.293.17-.333.254-.171.251-.083.149-.061-.119-.056-.111-.112-.142-.161-.056-.146.028-.171.028-.077-.081-.016-.195-.047-.18-.08-.135-.246-.135-.634-.274-.487-.547-.245-.254-.179-.164-.254-.43-.289-.296-.35-.138-.231.068-.238.317-.449.298-.206.01-.264-.161-.332-.115-.595-.05-.246.141-.322.228-.273.136-.169.016-.158-.055-.179-.029-.155-.005-.318-.208-.165-.153-.11-.147-.18-.1-.21-.084-.15-.131-.075-.164-.119-.21-.154-.189-.486-.34-.145-.201-.102-.196-.198-.216-.213-.289-.068-.423-.009-.341-.045-.158-.09-.158-.105-.134-.169-.15-.396-.219-.41-.254-.196-.148-.373-.054-.223-.145-.187-.319-.075-.255-.189-.199-.081-.144-.045-.166.15-.505-.217-.179-.323-.232-.232-.254-.141-.233-.415-.308-.904-.461-.522-.294-.285-.264-.249-.259-.025-.106.161-.258.024-.213-.132-.234-.542-.442-.432-.486-.327-.152L.866,11.29.64,11.236l-.236-.093-.233-.219-.079-.259.114-.415-.073-.127L0,10.088H0l.036-.086L.185,9.8l.243-.131.651-.205.036-.079.013-.259.053-.127.224-.36.032-.143.01-.306.03-.145.065-.103.178-.178.062-.109.027-.235L1.79,6.956l.091-.184.41-.422.11-.189.037-.169L2.434,5.82l.025-.17.122-.164.104-.051.302-.052.206.033,1.44-.289.169.039.075.171-.007.274.025.133.077.094.229.13.158.218.085.08.231.149L6.746,7.659l.302.118.293-.043.582-.258.291-.065,2.036.073.228-.039.014.006.31.624.147.142,2.233.007-.042-.178.028-.198.261-.255.132-.127v.001l.056-.046.345-.183.337-.122.648-.143.236-.226.131-.206.004-.407.086-.067.154-.094.749-.364.127-.077,1.324.845.742.669.045.033.039.012.039-.023.033-.031.054-.02.036-.009.318-.009.601-.033.198-.08L21.07,5.691l.307-.381.077-.078.175-.271.184-.468.037-.053,1.323-1.122.046-.089.013-.071-.2-.378-.043-.192-.008-.296.039-.46-.014-.291-.005-.034-.013-.045-.009-.017L22.241.617,24.106.609,24.11.54,24.108.504,24.103.471,24.068.372,24.047.239,24.046.203l.003-.037.01-.068L24.06.061,24.058.043,24.055.027l.001-.015L24.064,0l1.34.017-.018.235-.162.551.003.33-.039.378-.009.03-.037.082-.032.046-.037.045-.01.017-.012.028L25.05,1.8l.278,2.108-.011.053-.01.034-.074.132-.019.043-.004.033.03.023.617.228.03.014.024.018.222.271,1.215.997.042.05.126.313.014.048.004.074-.003.058-.031.188.01.084.021.056.017.065v.019l-.002.017Z" fill="url(#radial-gradient)"/></g></g></svg>