<svg xmlns="http://www.w3.org/2000/svg" xmlns:xlink="http://www.w3.org/1999/xlink" width="6.71" height="3.639" viewBox="0 0 6.71 3.639"><defs><radialGradient id="radial-gradient" cx="3.355" cy="1.8195" r="2.6988" gradientUnits="userSpaceOnUse"><stop offset="0" stop-color="#ffd496"/><stop offset="1" stop-color="#f29d25"/></radialGradient></defs><title>SV</title><g id="Layer_2" data-name="Layer 2"><g id="Layer_1-2" data-name="Layer 1"><path id="SV" d="M2.087.043l.071.014.469.147L2.766.175l.178.118.085.093.075.128.37.255.062.112.277.151.112.116.118.047.231.045.198.061.023.042.019.172.042.144.094.009.114-.07.372-.193.351-.129.198.077.117.161.134.072.278-.044.252.014.198.141.046.081-.122.468-.044.199-.021.169.071.045.07.065-.015.091-.217.15-.068.038.05.288-.161.175-.148.125-.26.034-.441.014L4.74,3.497l-.49-.194-.263-.001.083.064.209.041.274.136-.079.038-.997-.284L2.325,2.738l-.689-.089L.847,2.503.381,2.15l-.35-.153L0,1.863l.004-.148.158-.199.296-.268.197-.139.092-.027.13.014.124-.078L1.108.834,1.22.715,1.504.594,1.569.546,1.547.443,1.485.242l.01-.124L1.587.061,1.699.05,1.929,0l.1.01Z" fill="url(#radial-gradient)"/></g></g></svg>