<svg xmlns="http://www.w3.org/2000/svg" xmlns:xlink="http://www.w3.org/1999/xlink" width="18.508" height="16.955" viewBox="0 0 18.508 16.955"><defs><radialGradient id="radial-gradient" cx="9.254" cy="8.4775" r="8.8742" gradientUnits="userSpaceOnUse"><stop offset="0" stop-color="#ffd496"/><stop offset="1" stop-color="#f29d25"/></radialGradient></defs><title>SY</title><g id="Layer_2" data-name="Layer 2"><g id="Layer_1-2" data-name="Layer 1"><path id="SY" d="M18.508.662V.709L18.483.83l-.317.348-.43.472-.309.298-.52.5-.389.107-.654.18-.176.174-.164.282-.096.385-.028.24-.017.448.1529.465.1471.445.019.294-.015.289-.142.309-.155.423-.089.477-.047.891-.001.757-.013.123-.269.532-.314.622-.146.143-.689.185-.752.454-.841.507-.763.459-.801.481-.831.498-.594.355-.795.475-.724.453-.733.459-.558.347-.846.549-.496.322-.729.472-.642.415-.759.49-.952-.145-.301-.085-.246-.233-.181-.125-.45-.128-.289-.441-.173-.156-.302-.07.04-.158L.26,15.148l.1581-.29L.33,14.697l-.029-.138-.01-.164.108-.157-.051-.19-.083-.19-.061-.096v-.175l.04-.134.05-.205.128-.112.033-.117.115-.115.153-.094.035-.075-.022-.043-.154-.085-.083-.149.074-.217.0489-.068.0921-.106.206-.16.161-.026.139-.001.236.014.183.029.047-.042-.007-.053-.226-.131-.012-.105.0559-.112.16-.178.191-.13.097-.023.218-.262.14-.293L2.076,9.88,1.94,9.765l-.222-.098-.131-.015-.01-.047.175-.181.124-.159-.137-.15-.247-.071L1.401,9.2l-.316.014-.49-.002L.379,8.454.346,8.125l.006-.381.149-.558-.07-.259L.425,6.752l-.038-.24L0,5.994l.211-.956L.36,4.806l.21.022.448.272.074-.008.136-.358.132-.121.276-.107.079-.58.129-.111L2,3.755l.24-.012.208-.034.013-.102-.292-.673.026-.171.141-.678.089-.266L2.51,1.732l.3311.034.463.12.123.195.227.174.339-.012.393.033.306.011.245-.122.553-.228.273-.076.249-.101.8-.374.321.029.219.049.168.06.376.255.311.258.219.077.392-.006.5669.05.6961-.004.407-.072.519-.127.926-.305,1.218-.639L13.867.7l.309-.037L14.578.66l.402.081.456.058.211-.005L16.14.73,16.78.6l.402-.106L17.668.32l.303-.29L18.069,0l.126.053.059.02.124.164Z" fill="url(#radial-gradient)"/></g></g></svg>