<svg xmlns="http://www.w3.org/2000/svg" xmlns:xlink="http://www.w3.org/1999/xlink" width="3.72" height="4.889" viewBox="0 0 3.72 4.889"><defs><radialGradient id="radial-gradient" cx="1.86" cy="2.4445" r="2.172" gradientUnits="userSpaceOnUse"><stop offset="0" stop-color="#ffd496"/><stop offset="1" stop-color="#f29d25"/></radialGradient></defs><title>SZ</title><g id="Layer_2" data-name="Layer 2"><g id="Layer_1-2" data-name="Layer 1"><path id="SZ" d="M3.258.666l.056.045.259.143.023.286-.025.326-.052.206.02.205.083.32.079.219.019.998-.088-.046-.159-.043-.085.02-.077.449-.06.667.036.415-.606.013-.766-.045-.549-.18L.774,4.269.423,3.653.269,3.267.054,3.245.019,3.179,0,2.708l.004-.493.041-.131.398-.607L.69,1.101.844.738,1.179.311,1.537.039,1.67,0l.092.011.632.374L3.042.74,3.184.7Z" fill="url(#radial-gradient)"/></g></g></svg>