<svg xmlns="http://www.w3.org/2000/svg" xmlns:xlink="http://www.w3.org/1999/xlink" width="29.567" height="46.388" viewBox="0 0 29.567 46.388"><defs><radialGradient id="radial-gradient" cx="14.7835" cy="23.194" r="19.4488" gradientUnits="userSpaceOnUse"><stop offset="0" stop-color="#ffd496"/><stop offset="1" stop-color="#f29d25"/></radialGradient></defs><title>TD</title><g id="Layer_2" data-name="Layer 2"><g id="Layer_1-2" data-name="Layer 1"><path id="TD" d="M29.558,11.842l.001,1.318.001,1.315.001,1.311.001,1.308.001,1.305.001,1.301.001,1.298.001,1.296.001.428-.036.17-.015.024-.055.029-.667-.12-.292-.003-.41.092-.602.049-.388-.015-.27.222-.211.268.1.642-.023.211-.081.22-.183.189-.183.151-.109.132-.135.29-.101.135.009.182-.032.19-.11.1-.279.072-.181.085-.145.139-.097.1.051.133.071.182.04.285.028.167.138.136.084.097.029.119-.08.099-.342.206-.137.077-.157.105-.06.039-.25.196-.126.174-.061.144.003.2.127.298.139.253.053.191.032.209-.012.198-.072.173-.125.155-.471.293-.231.32-.186.39-.046.212.05.142.099.119.139.061.204.018.338-.065.315-.043.334.14.174.326-.067.238.126.432.112.521-.008.175.049.066.209.034.047.122-.069.913.097.255.14.182.158.095.16.122.082.084.184.02.207.166.056.221-.014.214-.12.462-.098.311-.12-.021-.244-.077-.298-.066-.366-.053-.348.127-.376.163-.118.121-.105.072-.166-.012-.152.021-.082.116-.138.129-.542.266-.114.097-.068.096v.105l.055.216-.001.269-.121.218-.14.146-.161.056-.133.031-.088.09-.283.494-.122.091-.249-.015-.714.739-.071.218-.261.309-.33.343-.295.166-.024.064-.079.065-.182.074-.63.418-.757-.017-.334.164-.325.072-.476.081-.142-.008-.61.034-.715-.012-.274.059-.257.158-.191.139-.027.047.028.058-.007.046.5.341.125.167-.126.162-.06.024-.007.01-.082.128-.293.384-.446.454-.228.13-.091.085-.119.301-.076.042-.307.039-.606.033-.839.098-.503.033-.313-.028-.44.208-.157.053-.096.018-.436.201-.362.313-.129.059-.51.133-.203.215-.093.018-.327-.284-.223-.257-.109-.261-.013-.083-.062.015-.179.116-.155.131-.071.25-.527.168-.451.145-.205.182-.316.09-.403-.037-.314-.074-.307-.025.147-.227.057-.169.014-.207-.022-.14-.184-.07-.116-.11-.264-.653-.271-.672-.382-.662-.416-.423-.301-.258-.096-.033-.155-.081-.108-.075-.552-.45-.572-.504-.147-.23-.286-.343-.32-.354-.166-.161-.077-.291.22-.263.236-.332.29-.221.376-.015.619.091.668.032.662-.069.171-.048.17.004.356.077.62-.017.32-.134-.345-.229-.371-.363-.347-.398-.211-.361-.193-.465-.178-.575-.109-.746.016-.423.056-.301.186-.492-.123-.288.027-.233-.018-.345-.06-.176-.241-.573-.049-.063-.213-.397-.094-.664-.241-.439-.387-.212-.22-.259-.081-.456-.153-.12-.608-.159-.508-.004-.369-.515-.474-.663-.441-.616L.162,27.473,0,26.765l.183-.215.362-.505.462-.968,1.041-1.499.533-.769,1.063-1.15L4.95,20.243l.736-.8.119-1.46.126-1.548.095-1.173.118-1.395.1-1.168.072-.853.102-1.211.087-.233.513-.953.04-.128-.095-.16-.732-.812-.228-.181-.132-.423.188-.237L5.179,6.14l-.218-.168-.096-.167-.011-.248-.016-.95L4.604,3.112,4.296,1.364,5.33.865l.785-.38L7.117,0l.928.497,1.345.718,1.345.716,1.344.716,1.345.715,1.344.713,1.345.711,1.344.711,1.345.71,1.344.708,1.345.707,1.344.706,1.345.705,1.344.704,1.345.703,1.344.701Z" fill="url(#radial-gradient)"/></g></g></svg>