<svg xmlns="http://www.w3.org/2000/svg" xmlns:xlink="http://www.w3.org/1999/xlink" width="53.0311" height="14.1579" viewBox="0 0 53.0311 14.1579"><defs><radialGradient id="radial-gradient" cx="26.5156" cy="7.0789" r="19.406" gradientUnits="userSpaceOnUse"><stop offset="0" stop-color="#ffd496"/><stop offset="1" stop-color="#f29d25"/></radialGradient></defs><title>TF</title><g id="Layer_2" data-name="Layer 2"><g id="Layer_1-2" data-name="Layer 1"><path id="TF" d="M.492.457.287.493.104.41,0,.189.231,0,.35.13.438.275ZM49.1851,11.575l.226.024.138-.039.619-.563.162-.014-.016.4311.159.1939-.201.05-.382-.021-.087.247.385.316.192.043.156-.0029.2931-.0721.234-.114.3629-.264.2181-.103.412-.004.215-.25.1-.077.241.0109.219.0981.131.227.0689.276-.053.2739-.1459.2671-.2671.163.061.195-.071.099-.134.006-.114-.045-.168-.229-.202-.122-.484.008-.2181.016-.038.175-.115.135-.12.0739-.163-.0319-.03.0739.087.1841.2119.232.3661.1619.215.0331.029-.3091.26-.036.229.092.167.228-.136.0751-.119.1209-.025.156-.232.17-.139.019-.438-.084-.261-.191-.062-.136-.161-.051-.181.175-.194.038-.38-.146-.351-.234-.219-.088-.341-.056-.1891.531-.2609.226-.3381.021-.1619-.044-.09-.209.023-.223.055-.214.1061-.218.0659-.238-.028-.225-.122-.164.064-.295-.12-.23.042-.169.195-.1161-.083-.102-.104-.026-.075-.1339-.058-.162.076-.304.113-.292-.014-.329.191-.311.164-.348.122-.138.154-.021.067.097.033.189-.0609.123.1439.056.0381.403-.09.1661-.0139.16-.187.341.054.274Zm.2739-.216-.1729.033-.054-.1389.0059-.1841-.096-.146-.055-.162.048-.153.278-.018.287.049.073.259-.207.354Z" fill="url(#radial-gradient)"/></g></g></svg>