<svg xmlns="http://www.w3.org/2000/svg" xmlns:xlink="http://www.w3.org/1999/xlink" width="5.243" height="14.179" viewBox="0 0 5.243 14.179"><defs><radialGradient id="radial-gradient" cx="2.6215" cy="7.0895" r="5.3448" gradientUnits="userSpaceOnUse"><stop offset="0" stop-color="#ffd496"/><stop offset="1" stop-color="#f29d25"/></radialGradient></defs><title>TG</title><g id="Layer_2" data-name="Layer 2"><g id="Layer_1-2" data-name="Layer 1"><path id="TG" d="M2.781.348,2.709.654l-.149.378-.096.12-.068.918.047.076.034.023.466.31.611.407.432.287.036.097.007.602.005.517.089.295.019.287.109.216.398.417.095.246.011.788.007.597.051.813v3.583l-.263.013.144.325.024.294.034.096-.071.142.059.217.114.08.292.436.097.369-.468.123.032.095-.875.196-.346.162-.007-.156-.127-.028-.155-.053L3.2,13.861l-.134-.185-.048-.145-.204-.023-.252-.162-.24-.186-.084-.186.024-.085L2.224,12.8l-.082-.033-.216-.42-.135-.169-.062-.136.022-.105-.03-.142.042-.115.117-.068.036-.084.011-.177.065-.364.043-.358-.123-.098-.15-.028L1.684,10.4l-.03-.168.003-.146.295-.51L1.891,8.4l.044-.179.135-.124.114-.143-.005-.143L1.983,7.46,1.61,7.19l-.191-.218-.103-.196-.017-.105.226-.154.1-.106.013-.123-.092-.223.016-.399.087-.299.089-.387-.009-.113L1.51,4.635l-.119-.031-.096.016-.229.152-.083.016L.931,4.744.908,4.683l.081-.091-.03-.113.068-.099.145-.045.043-.05-.196-.047L.996,4.17l.014-.065.057-.013.061.004.034-.047.031-.329.023-.115.025-.228.03-.882.045-.091.007-.066-.138-.043L.86,2.058.67,1.876.504,1.69.365,1.567.092,1.378l-.08-.121L0,1.137.083.895.215.638.28.269.24.171.061,0,.7.131l.912.221.019.039.006.066L1.795.455,2.058.377Z" fill="url(#radial-gradient)"/></g></g></svg>