<svg xmlns="http://www.w3.org/2000/svg" xmlns:xlink="http://www.w3.org/1999/xlink" width="23.2001" height="42.4648" viewBox="0 0 23.2001 42.4648"><defs><radialGradient id="radial-gradient" cx="11.6" cy="21.2324" r="17.1081" gradientUnits="userSpaceOnUse"><stop offset="0" stop-color="#ffd496"/><stop offset="1" stop-color="#f29d25"/></radialGradient></defs><title>TH</title><g id="Layer_2" data-name="Layer 2"><g id="Layer_1-2" data-name="Layer 1"><path id="TH" d="M7.71.3329l-.021.175.0689.037.097-.082.123-.199.135-.112.146-.025.155.136.164.296.1681.168.079.019.057.135.0089.13-.08.274-.135.318-.193.394.063.331.263.27.313.159.332-.044.177-.081.145-.127.134-.06.17-.016.5281.093.161.092.024.183-.0651.469.082.344.149.362.018.33-.185.543-.154.5141-.166.25-.129.161-.038.109.0109.103.118.154.126.199.031.19-.014.233-.086.32-.32.693-.254.625.133.125.252.091.167.089.175-.057.371-.369.3189-.274.397-.274.023-.024.348-.202.159-.186.086-.237.123-.091.159.053.202-.103.245-.26.188-.12.131.02.234.161.338.302.3.18.263.058.129.112-.007.167.059.106.123.045.055-.018-.014-.081.1191-.119.252-.156.256-.092.26-.027.169-.124.111-.322.161-.245.144-.111.178-.056.047-.078-.086-.1.008-.102.103-.103.221-.044.34.015.397.1041.456.194.299.0629.143-.07.278.3.414.67.354.506.297.3421.312.2619.3271.1831.2349.249.214.4719-.16.651-.0431.563.02.689.193.528.3661.367.213.296.06.226.285.194.5109.1611.2131.146-.087.131-.007.152.072.173.178.144.281.113.168.12L23.2,14l-.006.205-.065.283-.117.217-.17.151-.021.12-.044.182v.373l.121.248.037.315-.066.257-.064.5249-.008.203-.061.175-.148.168-.227.158-.276.141-.169.062-.04.029-.121.159-.146.154h-.1129l-.0851-.078-.06-.101-.0349-.221-.255-.109-.28-.069-.57.109-.461.059-.517-.075-.486.094-.203.014-.233-.0151-.226.0021-.215-.034-.396-.135-.152.0109-.319.112-.334.078-.32.054-.473.23-.342.3331-.101.2349-.17.237-.235.375-.305.359-.2119.164.059.097-.053.116-.332.052-.2589.021-.047.058.031.722.091.273.167.329.109.181.082.534.0239.453.365.2861.206.2179.147.192-.051.122-.088.365.085.473.51,1.02.044.072-.061.008-.08-.196-.259-.331-.08-.353-.304-.389-.17-.154-.055.129-.097.138-.2979-.2-.256-.209-.235-.405-.03.094-.053.0849-.268-.3179-.28-.254-.2521-.091-.155-.0841-.15-.135-.314-.14-.782.202-.995-.157-.383.15-.157-.093-.097-.173.093-.296.021-.62.1191-.436-.0561-.332.058-.156.044-.213-.157-.087-.703-.169-.148-.134-.188.154-.844.086-.318.129-.294.248-.076.3139.17.207.109.3591-.3029.784-.0511.233.117.958-.047.525-.1649.3519-.261.3161-.108.535-.205.2479-.275.5661-.186.7049-.132.326-.0771.6-.567.909-.133.513-.203.194.071.153.012.2561-.0709.683-.0231.566.086.303.271.601-.064.174-.032.248.229.112.164.033.9261-.284.3129.073.118.265.076.231.157,1.246.081.231.187.22.205.234.07-.042.013-.087.014-.098.183.236.143.44.488,2.325.141.295.117.311-.298-.151-.08-.516-.085-.217-.105-.032-.166.004-.011-.092.125-.168-.02-.202-.1711-.166-.276.132.008.362.123.277.468.62.146.259.186.074.271-.041.324.264.255.245.633.375.383-.04.414-.093.2769.024.272.096.327.313.519.784.8481.652-.092.162-.037.247-.334.329-.054.19-.122.241-.232.129-.2.024-.115-.023-.08-.048-.136-.228-.069-.069-.058-.016-.427.157-.413.174-.076.156-.11.1821-.12.0719-.0949.0181-.091-.107-.1581-.139-.122-.13.031-.21.232-.309.03-.216-.029-.372-.063-.214-.067-.007-.1141-.035-.322.035-.161-.242-.063-.266-.11-.095L9.38,40.1l-.241.092-.185-.055-.613-.231-.235-.373-.1259-.011-.1111.041-.044.085-.065.429-.0529.131-.703-.864-.4841-.356.068-.645-.1469-.125-.1841-.012-.1389-.179.1229-.384-.19.073-.263-.014-.216-.106-.163-.532-.104-.162-.225-.279h-.297l-.099-.134.024-.344-.217-.211-.2849-.172-.234-.101-.239-.555-.188-.136-.16-.1109-.223.075-.073.2-.148.193-.169-.024-.1551-.11-.189-.555-.031-.34.042-.632.236-.567.127-.908.201-.571.141-.194.193-.781.395-.999.045-.214.08-.24.06-.227.02-.358-.051-.188v-.106l.083-.135.281-.227.389-.374.462-.526.474-.808.235-.469.099-.166.104-.052.1619-.161.1111-.178.006-.09-.2571-.879-.169-.287-.085-.339-.046-.245-.062-.225.03-.212-.093-.132-.21-.167-.2181-.249-.13-.407v-.227l-.1389-.199-.047-.208.084-.199.109-.172-.013-.756-.044-.226-.0541-.404-.142-.305-.201-.357-.228-.295-.596-.534-.425-.357-.21-.326-.2671-.375-.1909-.27-.2411-.341-.1229-.465-.068-.496.0369-.164.115-.108.151-.087.122-.02.344-.228.2391.02.056-.049.023-.104-.031-.452.011-.605.044-.493.052-.325.634-.378.133-.164.064-.177v-.156l-.054-.123-.095-.068-.41.326-.08-.072-.188-.536-.081-.164-.117-.196-.126-.274-.02-.474-.091-.235-.512-.501-.229-.27-.313-.39-.375-.468-.383-.433-.18-.277-.063-.063-.021-.107L1.028,7.36.97,7.06l-.19-.4L.698,6.412l.027-.095L.633,6.28.42,6.301.216,6.113.019,5.717,0,5.647l.064.001.247.068.084-.01L.57,5.615l.265-.096.157-.032.052-.047.022-.096L.931,4.428l.023-.191.251-.396-.0281-.4.0641-.574.28-.393.21-.181.066-.284.096-.06.174.022.359.212.153.01.2181-.006.234-.016.109-.02.749-.207.165-.022.158.026.115-.01.115-.095.0819-.167.094-.536.0541-.095L4.769.969,4.928.918l.186.004.243.103.152.004L5.681.986,5.827.912,5.924.818,5.968.705,5.929.488,5.8179.216l.031-.033.204.06.3.067.229-.015.149-.047.146-.129L7.0609,0,7.24.027l.139.106Zm6.4669,24.208.009.068-.146-.052-.051.024-.163-.019-.08-.395.012-.093.116.029.166.196.085.136Zm.5041.889-.046.297-.16-.122.038-.15.063-.068Zm-7.106,5.618-.027.047-.109-.09-.0771-.102-.041-.13.1681.005.083.12Zm-.01.313.013.16-.0609.192-.256.113-.088-.154.023-.237.039-.06.251.012Zm-4.948,1.511-.1589.03.0209-.154.042-.097.0771-.026.0319.166Zm.285,3.24-.03.207-.115-.003-.117.133-.055.018L2.49,36.045l.109-.5921.0591-.084.081.157.2349.07-.1019.3411Zm.512-.09-.033.047-.143-.539.211.145Zm1.3661.962.073.339-.1031-.069-.085-.148.001-.217.021-.03ZM6.42,39.99l-.053.017-.1049-.227.133-.329.133.403Z" fill="url(#radial-gradient)"/></g></g></svg>