<svg xmlns="http://www.w3.org/2000/svg" xmlns:xlink="http://www.w3.org/1999/xlink" width="21.7992" height="15.6249" viewBox="0 0 21.7992 15.6249"><defs><radialGradient id="radial-gradient" cx="10.8996" cy="7.8125" r="9.4825" gradientUnits="userSpaceOnUse"><stop offset="0" stop-color="#ffd496"/><stop offset="1" stop-color="#f29d25"/></radialGradient></defs><title>TJ</title><g id="Layer_2" data-name="Layer 2"><g id="Layer_1-2" data-name="Layer 1"><path id="TJ" d="M10.1217,2.9341l.009.0669-.041.121-.583.206-.2651.174-.057.309-.07.089-.118.073L8.88,3.99l-.179-.363-.204-.075-.293-.128-.569-.248-.294-.108-.565.162-.66.222-.1031.135-.07.145.007.11.048.147-.033.112-.124.036-.187-.136-.1631-.079-.08.186-.096.33-.044.24.144.346.049.511.264-.027.201.001.38-.151L6.5,5.354l.2949.066.5171.013.408-.027.099.011.097-.097.107.034.1.117.4131-.142.307-.02.188.042.111.042.199.338.1519.209.186.067.577-.062.169-.295.148-.073.238-.022.196-.057.156-.121.213-.106.186-.021.092.078.04.103-.032.133-.007.139.12.093.354.022.1669.087.01.164-.027.257.148.104.077.009.519-.272.146-.004.116.15.177.18.232.1919.0561-.03.104-.209.198-.228.372-.075.205-.071.215-.032.652.092.216.012.449-.018.353-.046.284-.137.144-.11.2329-.064.295.011.157.032L17.64,6l-.037.357-.045.248.233.449.149.216.146.153.0269.121-.03.098-.181.096-.065.102-.03.115.059.133.104.424.1339.329.1891.158.283.104.155-.022.111-.246.186-.188.157.013.253-.008.664.213.648.322.188.178.066.2-.179.462.008.2941.041.3139.148.232.136.3981.026.329.059.098.048.1149-.0721.301-.051.303.061.1011.198.1489.312.279.06.23-.111.1459-.198.1781-.2541.153-.075.064-.045-.036L20.99,13.52l-.28-.25-.1989-.132-.38.042-.2231-.046-.2689-.082-.251.012-.158.151-.102.151-.251.046-.361.116-.56.181-.27-.0271-.073-.078.0609-.104.191-.135.047-.163-.037-.151-.179-.041-.068-.0239-.079-.031-.346-.09-.276.0329-.481.189-.886.496-.389.3331-.28.5029-.838.162-.576.288-.594.468-.393.252-.191.036-.1909-.045-.191-.125-.187-.392-.1661-.594-.109-.394.0621-.506.07-.577.0709-.588.115-.681.096-.243.005-.162-.085-.082-.18.004-.275.091-.195.016-.116-.059.012-.317.14-.577-.215-.486-.572-.396-.4861-.138-.401.121-.3369.314-.272.507-.283.414-.2931.321-.21.155-.067.06-.042.136.155.427-.01.357-.176.289-.193.137-.211-.013-.168-.067-.124-.121-.336-.033-.548.055-.375.144-.202.234L5.75,13.119l.0851.381-.042.292-.1711.203-.14.116-.109.03-.238-.175-.3649-.38-.251-.206-.137-.031-.074.021-.084.04-.048.049-.041.113-.117.045-.165-.036-.151.034-.091.119-.254.144-.448.161-.245.172-.041.183-.066.082-.138-.03-.404.251-.309-.078-.347-.323-.192-.266-.02-.112.109-.255.046-.851.139-.295.413-.53.215-.405.243-.33.175-.11.162-.26.132-.298.037-.188-.012-.147-.048-.095-.229-.202-.301-.315-.16-.323-.087-.412-.023-.288.282-.793-.045-.133-.081-.1229-.166-.078-.237-.033-.236.036-.301.003-.2081-.045-.05-.05L.89,7.0361l-.053-.079-.089-.069-.607-.167-.119-.072L0,6.5571l.215-.808L.308,5.688l.091-.1319.1431-.141.4949-.231.532.1.4731.107.4719.058.1631.039.2689.032.1811-.028.123-.095.2219-.262.068-.394.08-.348.135-.027.136.037.064-.07.027-.096.0269-.082.0561-.018.098.09.056-.024.046-.061L4.2512,4.07l-.11-.122-.099-.1911.01-.066.033-.069.291-.065.133-.012.046-.0679-.017-.1081-.11-.061-.398.033-.407-.007-.049-.066.023-.073.062-.057.84-.146.445.051.331.077.13-.038-.154-.33.21-.031.027-.113-.275-.879.151-.078.151-.173-.013-.329.1339-.16.159-.11.236.111.3661.325.118.063.1179.018.17-.101.652-.321.366-.181L8.2592.53l.075-.102.15-.401L8.5662,0l.111.043.384.415.222.266V.815L9.22.883l.012.066.3141.144v.065l-.071.125-.038.069-.039.029-.42.362-.466.402-.016.052-.021.1.005.102.075.084.201.059.179.076.091.21.104.194.141.048.691-.123ZM9.2647.3661l-.084.008L9.03.1991l-.053-.123.0621-.037.13.085.0869.151Zm.138,4.078-.252.14-.147-.015-.114-.136-.083-.127-.018-.072.042.001.194.058.2719.04.096.035Z" fill="url(#radial-gradient)"/></g></g></svg>