<svg xmlns="http://www.w3.org/2000/svg" xmlns:xlink="http://www.w3.org/1999/xlink" width="9.1489" height="3.871" viewBox="0 0 9.1489 3.871"><defs><radialGradient id="radial-gradient" cx="4.5745" cy="1.9355" r="3.5123" gradientUnits="userSpaceOnUse"><stop offset="0" stop-color="#ffd496"/><stop offset="1" stop-color="#f29d25"/></radialGradient></defs><title>TL</title><g id="Layer_2" data-name="Layer 2"><g id="Layer_1-2" data-name="Layer 1"><path id="TL" d="M4.5179,0,4.33.484,4.127.381,4.343.109,4.447.028ZM2.895,3.871l-.097-.368-.1031-.158-.08-.09L2.588,3.143l.004-.115.049-.053.346-.015.137-.189-.001-.227-.0689-.077-.067-.032-.3561.17-.103-.031-.061-.062.02-.251.294-.235L3.03,1.6l.175-.17.407-.159.1649-.045L4.963.991,5.246.975l.751.007L7.003.931,7.251.899,7.573.795,7.886.667,8.051.566,8.225.493l.2589.092.438.069L9.04.715l.109.084L8.64,1.247l-.56.372-.345.112-.356.076-.272.144-.229.225-.293.126-.33.043-.283.067-.256.132-.3549.227-.1451.023L5.064,2.789l-.295.087L3.85,3.2l-.555.361ZM0,3.39l.454-.241.691-.186-.018.136-.07.214-.104.101-.158.181-.104.04-.414-.04-.054.026-.071-.019-.105-.116Z" fill="url(#radial-gradient)"/></g></g></svg>