<svg xmlns="http://www.w3.org/2000/svg" xmlns:xlink="http://www.w3.org/1999/xlink" width="39.6752" height="27.3981" viewBox="0 0 39.6752 27.3981"><defs><radialGradient id="radial-gradient" cx="19.8376" cy="13.6991" r="17.0469" gradientUnits="userSpaceOnUse"><stop offset="0" stop-color="#ffd496"/><stop offset="1" stop-color="#f29d25"/></radialGradient></defs><title>TM</title><g id="Layer_2" data-name="Layer 2"><g id="Layer_1-2" data-name="Layer 1"><path id="TM" d="M39.3773,19.85l-.142.013-.341-.082-.679-.164-.583-.329-.381-.215-.06.029-.171.147-.117.181-.0931.35-.1489.412-.7051.016-.601.031-.388.156-.38.215-.095.255-.0819.331-.222.749-.201.682-.104.441-.153.302-.43.397-.487.267-.259.125-.114.156-.025.147-.092.045-.201-.026-.212.025-.466.154-.504.189-.604.188h-.345l-.137.042-.061.095.061.179.059.133.053.172-.142.139-.099.239-.077.42-.214.125-.344.204-.3791.268-.098.055-.218.076-.217-.023-.197-.039-.214.069-.222.207-.103-.063-.052-.209-.111-.136-.347-.307-.297-.219-.128-.015-.272.057-.341.041-.277-.044-.22-.088-.339-.302-.124-.163-.0931-.125-.231.034-.065-.136-.0089-.16.064-.193-.019-.365-.13-.262-.148-.114.019-.08.065-.183.083-.16-.001-.316-.104-.343-.041-.497.026-.485-.141-.245-1.156-.001-1.028.019-.058-.056-.4-.613-.324-.466-.32-.275-.733-.339-.351-.142-.301-.259-.246-.285-.063-.39-.05-.128-.071-.104-.077-.046-.094.01-.852-.454-.342-.12-.322.096-.142.017-.28-.129-.3221.175-.137.011-.192-.042-.159-.065-.429-.415-.36-.167-.259-.107-.499-.158-.531-.082-.273-.068-.196-.091-.051-.059.003-.152-.015-.2-.065-.146-.135-.175-.1871-.131-.322.023-.483-.011-.37-.131-.2941-.023-.354.025h-.29l-.207.096-.12.112-.076.342-.07.051-.121.025-.161-.018-.34.003-.587-.061-.737-.018-.555.173-.438.248-.418.279-.492.44-.145.196-.29.779-.129.112-.1681.089-.17.016-.338.115-.446.19-.303.074-.779-.039-.046-.2471-.14-.902-.068-.914.004-.422.082-.849-.0071-.4289-.033-.3891.032-.3819.063-.43.032-.438-.047-.306-.15-.247-.255-.306-.04-.182-.015-.202-.2441-.023-.22-.2091-.1811-.114-.39-.127-.1939-.006-.1791.093-.1309.187-.092-.295.003-.309.3109-.639.1951.187.237.075.302.011.297-.049-.058-.219-.138-.125-.172-.098-.061-.29.021-.301.081-.285-.093-.115-.14-.071-.3251.008-.421-.075-.424-.033-.1.336.234.44-.198-.216-.1879-.286L.871,10.161.702,9.555l-.03-.656.143-.543.184-.512.11-.657.152-.646.151.29.174.26.24.239.132.057.396.099.255-.037.271-.142.267.046.221.266.196.298.298.063.614-.215.292-.049.254.099.131.018.133-.017-.115-.264-.047-.257.154-.136.484.145.309-.096.079-.054.069-.067.037-.2219L6.241,6.636l-.04-.2149-.09-.189L5.8879,5.967,5.025,5.334l-.2911-.2529-.242-.328L4.338,4.29l-.125-.484-.1161-.36-.301-.838-.117-.1-.147-.044-.357-.026-.362.061-.592.145L1.882,2.599l-.157.089-.388.354-.182.302-.2541.69.1921.222-.0041.146L.9429,5.416l.089.491L1,5.943.931,5.829l-.22-.5L.324,4.717,0,3.778l.569-.616.487-.438.398-.264.122-.064.545-.219.703-.198.519-.146.676-.125.222-.023.325.002.264.117.159.092.564.377.575.384.494.425.14.173.078.207.059.203.4191.642.17.293.245.381.1971.1861.192.229.129.1879.147.089.164.035.374-.06.45-.1189.269-.05.12.007.742.0419.668.038.824.047.245.044.294.041.146.006.13-.163.086-.0889.067-.0711-.014-.08-.104-.068-.164-.2261-.094-.8169-.059-.702.195-.219.225-.159.323-.479.174-.148.255-.123.854-.032.36-.094.116-.155.1891-.394.0629-.3211.1061-.147.127-.109.131.004.2529.094.1921.053.137.071.125.1141.121.197.0189.13.0561.075.097.001.072.001.049-.028.031-.066-.024-.0881-.165-.252L16.26.957,16.0233.77l-.118-.101-.029-.096L16.03.428l.149-.083.262.062.349.034.154-.073L17.1033,0l.396.39.412.436.151.081.2949.046.245.016.1031.047.11.113.2181.476.218.125.271.09.875-.008.269.024.219.223.137.092.059.079-.015.098-.054.125-.0071.24-.0139.186-.07.088-.021.082.058.072.405.176.137.189.103.084.024.118-.068.078-.19-.039-.093.124v.222l.136.208.04.19-.09.183-.1049.258-.003.182.062.104.311.188.715.474.165.02.677-.11.315-.011.1859.074.524.067.166.076.178.005.242-.022.164-.212.084-.048.074-.035.149-.005.414.135.437.284.288.259.143.234.18.506.218.777.2621.523.3079.271.216.498.188,1.083.1161.221.119.115.352.312.719.516.424.304.656.484.602.443.603.682.12.1.53.368.59.3761.4131-.085.622.578.253.214.107.073.451.228.718.476.906.68.6.393.1619.046.162-.0021.173-.084.188-.066.32.087.347.157.221.119.254.172.201.164.152.075.519.143.089.085.057.095.0089.099-.292.518-.039.659-.002.495Zm-37.643-5.165-.026.168-.152-.506-.076-.559.097-.158.109.009-.104.202Z" fill="url(#radial-gradient)"/></g></g></svg>