<svg xmlns="http://www.w3.org/2000/svg" xmlns:xlink="http://www.w3.org/1999/xlink" width="11.343" height="23.932" viewBox="0 0 11.343 23.932"><defs><radialGradient id="radial-gradient" cx="5.6715" cy="11.966" r="9.3635" gradientUnits="userSpaceOnUse"><stop offset="0" stop-color="#ffd496"/><stop offset="1" stop-color="#f29d25"/></radialGradient></defs><title>TN</title><g id="Layer_2" data-name="Layer 2"><g id="Layer_1-2" data-name="Layer 1"><path id="TN" d="M11.2551,14.238l-.006.088-.099.633-.022.227-.0151.385v.462l.224.39.006.171-.087.198-.413.226-.5329.292-.458.277-.5021.304-.154.196-.2489.151-.2081.151-.038.145-.1459.273-.19.218-.477.103L7.8,19.193l-.221.328-.1019.128-.1261.269.162.696.198.714.039.297-.003.247-.111.266-.254.38-.186.279-.3569.501-.1051.124-.246.146-.475.193-.335.171-.17-.764-.146-.653-.12-.54-.211-.953-.18-.812-.1789-.811-.163-.7381-.164-.7449-.07-.1091-.491-.3519-.452-.3251-.471-.37-.51-.401-.082-.506-.262-.766-.276-.428-.104-.112L1.07,14.27l-.321-.204-.088-.119-.062-.313L.37,13.01.109,12.442l-.096-.3851L0,11.572l.051-.3511.114-.15.544-.438.252-.527.312-.198.27-.149.219-.174.194-.279.148-.298.025-.323.062-.513.099-.359.23-.4071-.097-.328-.122-.354.035-.615-.031-.25-.099-.221-.1011-.284-.0029-.237L2.199,4.494l.074-.477.1181-.621-.042-.174-.0881-.13L1.997,2.955l-.003-.0831.064-.092.39-.3039.209-.447.175-.093.266-.162L3.088,1.6l-.06-.187.693-.211.66-.554L4.614.512,6.1461,0l.199.035.223.075-.064.191L6.416.452l.13.267.186-.163L6.6851.447,6.6741.302l.315-.013.279.023.306.159-.021.603.408.589-.115.293.334.173.297-.208.149-.307.547-.178.52-.452L9.981.938l.0651.371.139.324-.197.114-.25.344-.475.87-.4371.255-.328.334-.1059.237L8.36,4.063l.082.494.2391.501.276.302.266.094L9.842,5.93l-.01.282.086.335.033.407.215.325-.46.706-.252.509-.492.7-.438.454-.938.673-.23.223-.15.231-.069.241.025.283.309.695.411.409.418.221.727-.089-.025.267.052.319.295-.015.198-.05.167-.311.355.213.185.648.301.202.035.075-.106.05-.083.074.089.053.291.08.176-.051Zm-.636-5.294-.433.245.083-.213.286-.258.074.062ZM9.72,12.43l-.074.016-.136.091-.072.01-.204-.103-.078.001-.098-.072.033-.392.032-.111.496-.015.269.235.044.062.011.067-.125.131Z" fill="url(#radial-gradient)"/></g></g></svg>