<svg xmlns="http://www.w3.org/2000/svg" xmlns:xlink="http://www.w3.org/1999/xlink" width="4.045" height="8.568" viewBox="0 0 4.045 8.568"><defs><radialGradient id="radial-gradient" cx="2.0225" cy="4.284" r="3.3499" gradientUnits="userSpaceOnUse"><stop offset="0" stop-color="#ffd496"/><stop offset="1" stop-color="#f29d25"/></radialGradient></defs><title>TO</title><g id="Layer_2" data-name="Layer 2"><g id="Layer_1-2" data-name="Layer 1"><path id="TO" d="M3.955.218,3.849.392,3.798.39,3.675.289,3.63.221,3.818.016,3.915,0l.13.069L4.039.127ZM.563,7.726h.04l.044-.088.151-.032-.017.095-.204.308-.128-.12L.075,7.692,0,7.54l.124-.115-.013.093.063.042.211.016.188.083-.117.027Zm.699.392-.016.45-.137-.206-.016-.096.139-.139Z" fill="url(#radial-gradient)"/></g></g></svg>