<svg xmlns="http://www.w3.org/2000/svg" xmlns:xlink="http://www.w3.org/1999/xlink" width="53.7419" height="22.5395" viewBox="0 0 53.7419 22.5395"><defs><radialGradient id="radial-gradient" cx="26.8709" cy="11.2698" r="20.6041" gradientUnits="userSpaceOnUse"><stop offset="0" stop-color="#ffd496"/><stop offset="1" stop-color="#f29d25"/></radialGradient></defs><title>TR</title><g id="Layer_2" data-name="Layer 2"><g id="Layer_1-2" data-name="Layer 1"><path id="TR" d="M6.5831.47l-.076.429.177.472.414.653.417.329,1.685.812.31.069-.07.332-.102.294-.111.196-.4941.1261-1.362-.361-.3449-.034-.243.072-.45.2619-.4991-.084-.6959.148-.194.4931-.483.5629-.795.4541-.568.243-.854.868-.387.505-.163.098-.194.078.065-.243.096-.222-.0219-.168.004-.244.284-.277.259-.201.765-.365.202-.304-.6.007-.61.067-.383-.043-.3339.025-.105-.266-.081-.16.087-.05.11-.035.196-.284.175-.209.252-.264.0641-.158v-.147l-.061-.102-.012-.122-.008-.171.0139-.355.578-.388.185-.041.063-.178-.042-.412-.08-.333-.104-.022-.139-.097-.091-.113-.146-.123L1.83,1.4129l-.008-.105.026-.105.093-.108.424-.093.05-.076.057-.188L2.5563.546l.1-.063.1791.006.34-.044.237-.063L3.6473.25,3.7682.13l.51-.069L4.4213,0l.142.052.191.205.314.294.168.098.126-.045L5.59.497h.218l.1761.019.085-.093.133-.02Zm37.875,1.692.1859.075.352.096.2181.116.124.031.287-.236.426.006.375.0271.193.044.237.078.286.053.117-.113.167-.333.065-.042.046-.03.212-.026.201.025.0949.057.095.267.239.095.422.425.258.17.063.071-.085.086.034.106.147.138.2069.052.224-.019.122.05.087.0781.023.11-.006.07.044.1571.175.2219.208.136.112.145.182.499.074.275-.028.265-.126.271-.276.337.068.141.062.186-.021.135.196.43.089.267-.074.062-.0479.085.352.205.4219.172.178.033.484-.079.312-.017.31.163.451.395.487.514.097.156.042.069.095.124-.099-.002-.16-.111-.387-.316-.198.1359-.171.2341-.187.8869-.151.094-.2671-.002-.327-.031-.225.044-.058.056.03.095.067.146.047.184.014.15.1179.136.159.129.0071.132-.024.187-.037.142-.04.081.074.216.173.255.11.098-.041.485.065.215.05.296-.02.492.021.121.059.0409.158.0191.154.045.054.081-.0009.059-.193.225-.023.16-.0671.225-.055.132-.1719.25-.1091.254-.05.209.033.099.318.03.172.15.459.299.0809.121-.125.184.0021.077.06.098.028.1709-.011.189.002.25.084.041.312.234.222.234.007.073-.107.185.023.2131-.004.049-.096-.08-.173-.029-.178-.009-.112.063-.196.167-.2639.182-.214.167-.123.115-.102-.0191-.079-.1-.044-.14.019-.529-.047-.166-.1-.116-.118-.066-.14-.0369-.145-.004-.205.155-.291.161-.451-.013-.303-.03-.146-.03-.587-.246-.122-.006-.219-.1-.26-.079-.438.15-.189-.036-.265-.13-.094.035-.296.396-.504.423-.272.071-.129-.425-.125-.165-.0591-.02-.1259-.053-.0981.03-.3029.29-.4861.1741-.4019.1059-.64.129-.494.064-.21.005-.456-.058-.402-.081-.402.003-.309.037-.716.311-1.218.639-.926.305-.519.127-.407.072-.696.004-.567-.049-.393.005-.218-.077-.311-.258-.376-.255-.168-.06-.219-.049-.32-.029-.8.374-.249.102-.274.076-.553.228-.245.122-.307-.011-.392-.032-.34.011-.227-.173-.123-.195-.463-.12-.331-.035-.085.087-.088.266-.141.679-.026.17.292.673-.013.102-.208.035-.2391.012-.156.06-.129.1109-.078.58-.277.106-.132.121-.136.358-.074.008-.448-.271-.21-.022.1811-.281-.196-.557-.214-.522.202-.334.418-.404.4391-.474v-.293l-.023-.224-.126-.155-.242-.206-.4051.22-.289.243-.189.049-.205.138-.1.25-.248.194-.405.076-.609-.208-.654-.316-.37-.257-.302-.062-.287.113-.847.628-.775.916-.192.158-.73.393-.482.131-.227-.03-.961.172-.477.025-.3779.207-.733-.224-.438-.287-.264-.292-.43-.629-.305-.299-.685-.27-1.1939-.656-.3141-.072-.815-.094-.859-.06-.174.239-.066.945-.1469.259-.063.4891-.105.14-.165.092-.258-.154-.179-.068-.417.201-.825.281-.281.04-.956-.354-.35-.228-.226-.252-.076-.427-.142-.243-.021-.167-.056-.192-.193-.076-.207.146-.222-.006-.278-.089-.657-.359-.504-.029-.304.438-.236.139-.258.042-.0151-.124.196-.284-.787.052-.4149.216-.324-.034-.243-.097.036-.119.246-.044.214-.097.852-.079.1989-.079.2181-.309.396-.266.051-.114-.305-.001-1.306.077-.896-.042-.1061.132-.135.019-.037-.359.1421-.167.19.016.469-.145-.042-.299-.335-.202-.068-.12-.2441-.028-.197-.143-.043-.36-.157-.396-.224-.191.028-.105.411-.134.0851-.555-.063-.341-.207-.029-.603-.27-.183.029-.2-.297-.35-.213-.173.078-.109.097-.162-.046-.271-.185-.267-.1-.118-.124.148-.331.204.008.037-.259-.161-.433.016-.223.178-.061.203.042.205.259.067.25-.043.244.13.236.093.06.062-.249.087-.047.12.108.257.054.666-.152.128-.129-.488.015-.178-.121-.1939-.271-.119-.246-.021-.121-.0671-.177.074-.095.334-.142.293-.399-.1229-.115-.14-.055-.1519.041-.144-.137-.019-.19.115-.154.012-.212-.377-.523-.105-.114.082-.171.288-.287.274-.356-.033-.117-.203-.048-.962.153-.374.132-.667.061-.048-.194.015-.174.15-.318-.0139-.786.089-.427.3709-.128.455-.629.737-.744.77.014.308-.206.4569-.012.083.149.052.143.401.206.708-.033.172-.081.167-.113-.328-.366.104-.104.297-.012.322.086.0151.084-.0851.115-.1.201.0949.039.9161-.122.958.098.305-.053.7529.004.1351-.126-.2281-.159-.223-.055-.15-.077-.15-.113.478-.355.27-.068,1.273-.219.947-.109.0121-.082h-.1371l-1.223-.182-.295-.14-.409-.335-.089-.095-.103-.164.062-.349.076-.281.151-.163.489-.025,1.6761.286,1.1939-.171,1.305.416,1.249-.084.2571-.187.3129-.603L18.0192,1.9l.617-.525.662-.288,1.135-.32.949-.424.271-.0491,2.278.2031,1.565.026.718-.401.417.135L26.5922.4l-.076.123.023.247.2441.363.249.247.73.354,1.015-.298.164.033.207.083.3579.957.278.337.3561.229.293.045.217-.239.168-.096.367-.041.601.328.208.338,1.023.261.9391.131.405.286,1.322.286.494-.044.828-.3,1.612-.329,1.071.459.29.06.25-.04.36.126.384-.068,1.1849-.542.371-.308.393-.079.348-.185.928-.605ZM.845,7.2648.2,7.3778,0,7.2668l.202-.221.376-.137L.7,6.8928l.165.22Z" fill="url(#radial-gradient)"/></g></g></svg>