<svg xmlns="http://www.w3.org/2000/svg" xmlns:xlink="http://www.w3.org/1999/xlink" width="3.874" height="3.577" viewBox="0 0 3.874 3.577"><defs><radialGradient id="radial-gradient" cx="1.937" cy="1.7885" r="1.8642" gradientUnits="userSpaceOnUse"><stop offset="0" stop-color="#ffd496"/><stop offset="1" stop-color="#f29d25"/></radialGradient></defs><title>TT</title><g id="Layer_2" data-name="Layer 2"><g id="Layer_1-2" data-name="Layer 1"><path id="TT" d="M3.227.417,3.074.445,3.092.332,3.36.137,3.77.005,3.874,0,3.815.175ZM2.509,3.38l-.455.159L.868,3.577.377,3.519,0,3.564l.687-.347.081-.146.292-.027L1.143,3l.097-.767L1.202,2.05l-.058-.101-.118-.073L.761,1.777.7169,1.724l.167-.085.356-.047.266-.092.551-.019.268-.082.451-.0231-.222.353L2.45,1.86l.041.3169-.051.215.059.272.135.179-.087.175-.013.266Z" fill="url(#radial-gradient)"/></g></g></svg>