<svg xmlns="http://www.w3.org/2000/svg" xmlns:xlink="http://www.w3.org/1999/xlink" width="10.2239" height="10.207" viewBox="0 0 10.2239 10.207"><defs><radialGradient id="radial-gradient" cx="5.112" cy="5.1035" r="5.1077" gradientUnits="userSpaceOnUse"><stop offset="0" stop-color="#ffd496"/><stop offset="1" stop-color="#f29d25"/></radialGradient></defs><title>TW</title><g id="Layer_2" data-name="Layer 2"><g id="Layer_1-2" data-name="Layer 1"><path id="TW" d="M7.639,8.111l-.174.354-.14.374-.0561.353.003.363-.04.328-.068.324-.2719-.093-.147-.232-.034-.381-.197-.46L6.44,8.909l-.285-.258-.2589-.128-.2-.191.026.016-.148-.257-.112-.273L5.231,7.04l-.08-.188L5.044,6.68l-.03-.17.036-.189.101-.283.061-.285-.049-.388.0189-.384L5.257,4.81,6.5779,2.458l.358-.503.221-.247.185-.279.175-.353.215-.323.153-.1.759-.29.235-.277L9.0679,0,9.283.005l.1389.132L9.546.294l.13.084.335.153.147.148.0659.254-.2039.242-.102.218-.019.24.036.325.005.326-.256.763-.273.475-.074.236-.083.586-.161.587-.137.743-.224.7651-.127.319-.158.3049-.378.576ZM.338,2.321l.122.204-.052.126L.022,2.584,0,2.461l.146.022Z" fill="url(#radial-gradient)"/></g></g></svg>