<svg xmlns="http://www.w3.org/2000/svg" xmlns:xlink="http://www.w3.org/1999/xlink" width="31.2611" height="30.1169" viewBox="0 0 31.2611 30.1169"><defs><radialGradient id="radial-gradient" cx="15.6306" cy="15.0585" r="15.3472" gradientUnits="userSpaceOnUse"><stop offset="0" stop-color="#ffd496"/><stop offset="1" stop-color="#f29d25"/></radialGradient></defs><title>TZ</title><g id="Layer_2" data-name="Layer 2"><g id="Layer_1-2" data-name="Layer 1"><path id="TZ" d="M29.1492,19.5319l-.152.0369-.059-.036-.093-.118.1619-.1.157-.194.365-.285.125-.188.045-.04-.026.222-.206.485-.176.032Zm-.603-5.065.215.5969-.0269.112-.152.068-.079.006-.094-.096-.066-.2009-.115.048-.196-.241-.1939-.012-.172-.287.067-.25-.039-.427.209-.218.118-.368.1359.251.0311.392.1829.46.1531.142Zm1.034-3.553.017.141-.043.133.009.423-.0171.281-.16.389-.131.139-.117-.041-.096-.064-.075-.107.1519-.713-.078-.522.3011.05ZM4.2062.0059l.059.008h8.7994l.202.105.225.125.599.332.598.332.598.332.598.332.5981.332.599.332.598.332.599.332.598.332.598.332.5981.332.598.332.599.332.598.332.598.332.598.332.2861.159.043.069.049.303.031.189-.017.167-.159.283-.046.148-.001.103.039.041.135.015.115.067.042.053.088.213.111.107.253.181.431.309.4311.309.431.3089.431.309.431.309.4311.309.431.309.431.309.209.151.089.042-.056.235-.221.571-.013.238-.086.28-.083.185-.225.804-.188.301-.257.705-.041.54.142.378.052.354.302.348.241.1239.1631.159.289.363.166.3641.519.1789.2069.409-.075.281-.241.2331-.225.377-.181.496-.004.759.122-.115.275.186.035.559-.2831.651-.0869.305-.014.262.206.781.312.397-.03.1221-.081.104.534.704-.044.613.2.478.087.414.132.318.025.219-.165.243.389.061.229.199.108.19.281-.008.152.13.22.108.485.32.131.161.047.093.031.061-.326.248-.508.386-.499.378-.481.26-.344.121-.368.067-.349.159-.33.25-.423.126-.515.001-.541.175-.537.331-.313.193-.496-.291-.3889-.092-.4471.01-.2719.036-.0981.063-.085.178-.072.292-.293.281-.514.269-.474.101-.434-.068L21.86,29.92l-.153-.156-.2249-.072-.298.013-.286.111-.273.21-.435.091-.5981-.028-.3209-.102-.044-.175-.2621-.205-.479-.235-.354-.005-.227.2261-.2069.142-.1871.058-.168.007-.149-.043-.093-.018-.661-.024-.626.009-.02-.098-.043-.229-.13-.199-.112-.119-.14-.031-.076.002-.061-.092-.072-.203-.106-.172-.141-.143-.0851-.133-.0289-.122.0219-.134.131-.333.042-.229-.015-.2341-.071-.24L14.76,26.73l.017-.082-.05-.194-.005-.1359.029-.17-.028-.2229-.128-.4761v-.122l-.135-.23-.416-.544-.02-.071-.652-.548-.261-.12-.094.103-.035.095.027.176-.016.087-.027.04-.155-.006-.097-.02-.247-.147-.192-.036-.478.026-.167.035-.131-.033-.253-.251-.296-.053-.266-.013-.439-.285-.1031.013-.049.022-.159-.075-.299-.166-.416-.146-.34-.163-.152-.159-.319-.061-.276-.026-.2559-.148-.2651-.017-.26-.038-.058-.097-.0089-.218-.091-.057-.191-.056-.206.003-.125.031-.074-.016-.171-.128-.159-.163-.06-.26-.24-.167L5.69,21.308l-.77.014-.1209-.04-.183-.132-.214-.218-.172-.249-.151-.337-.072-.204-.0851-.251-.188-.376-.2659-.5321-.206-.436-.221-.468-.09-.3429-.172-.379-.282-.466-.143-.182-.156-.163-.405-.314-.459-.312-.249-.21-.334-.625-.14-.2261-.097-.397L.4409,14.05l.03-.167.2961-.531.03-.149-.036-.201-.146-.423-.109-.276L.43,12.067l-.158-.393-.217-.541L0,10.897l.007-.177.117-.467.1031-.481L.2241,9.64l.883.018.145-.105.499-.31.561-.621.112-.258.229-.398.224-.197.086-.137.059-.215.07-.182.294-.269.286-.207-.021-.083-.038-.062.042-.053.156-.106.304-.097.06-.207-.001-.235-.049-.131.009-.151-.047-.084-.199-.021-.295-.117-.25-.049-.167-.068-.062-.052-.0269-.141.049-.154.025-.044.064-.165-.109-.099-.028-.048.05-.079.257-.522.056-.073.112-.009.177-.064.164-.029.134.022.099-.025.087-.067.074-.204.0609-.34-.034-.277-.128-.214-.0349-.326.059-.438-.042-.364-.142-.291-.145-.173-.2211-.082L3.3231.593,3.2171.378l.019-.134.092-.043.028-.013.222.02.208-.051L3.98.035,4.168,0Z" fill="url(#radial-gradient)"/></g></g></svg>