<svg xmlns="http://www.w3.org/2000/svg" xmlns:xlink="http://www.w3.org/1999/xlink" width="50.514" height="33.653" viewBox="0 0 50.514 33.653"><defs><radialGradient id="radial-gradient" cx="25.257" cy="16.8265" r="21.4598" gradientUnits="userSpaceOnUse"><stop offset="0" stop-color="#9b0400"/><stop offset="1" stop-color="#4c0200"/></radialGradient></defs><title>UA</title><g id="Layer_2" data-name="Layer 2"><g id="Layer_1-2" data-name="Layer 1"><path id="UA" d="M45.1419,22.814l-.102.046-.981-.064-.801.087-.571.647-.34-.002-.479.168-.3251.209-.385.452-.2979-.203-.365.006-.356.123-.428.302-.238.053-.476-.086-.555.173-1.198.987-.403.719-.147.14-.202.175-.216.088-.114-.008.5709-.51.175-.191.03-.141.003-.229-.173-.284-.467.703-.265.102-.337.211-.017.469.039.348.138.437.326.713.666,1.015.319.372.234.148.282.021.5419-.313.2311-.049.504.119.18-.208.262-.116.336-.015.384.094.416.158-.171.357-.178.284-.063.3139-.099.349-.459.1561-.491-.0191-.518.1011-.187-.1351-.124-.1239-.23-.124-.303-.068-.272.083-.322.475-.57.324-.188.37-.561-.083-.48.065-.693.337-.5281.72-.5819.449-.461.142-.433-.044-.28-.134-.576-.472.034-.169.08-.085.109-.244.23-.896-.031-.292-.1291-.459L31.608,30.5l-.367.068-.209-.095-.753-.61-.41-.043-.453.123-.167-.089-.123-.213.898-.755.8821-.625.387-.064.522-.292.5579-.438-.0789-.345-.12-.256-.2671.07-.1939.085-.467-.274-.171-.202-.731.21-.407-.031-.898.193-.4131-.188-.825-.528-.31-.106-.2639.023-.144-.174.176-.087.205-.01.213-.064.06-.092-.013-.174-.429-.132-.399-.038-.253-.156-.193-.179.4521-.003.455.136.711.05.646.14.161-.174.375-.302.071-.096-.628.207-.637-.132-.232-.184-.1971-.271-.083-.309.054-.288-.0689-.521-.21-.465-.074-.255-.222-.229.218.518.081.344.131.316-.031.836-.081.293-.262.074-.344-.044-.35-.091.087-.459-.187.159-.263.447-.232.066-.5151-.049-.9559.295-.066.321-.144.433-.139.252-.043.152-.407.651-.052.0621-.769.8989-.098.067-.498.209-.295.1831-.226.082-.382-.091-.159.129-.075.16-.001.331.194.237.159.7869-.059.332-.151-.215-.237-.2269-.46-.194-.505.0669-.551.328-.374.1221-.196-.0841-.12.005-.042.094.009.077.06.06-.008.043-.078.027-.868-.2309-.375-.219-.295-.4111.147-.133.128-.0589.452-.034.078-.042.008-.095.034-.124-.012-.181-.05-.192.198-.281.295-.232.1729-.233.026-.342.311-.167.275-.287.068-.313.097-.197-.176-.453-.037-.299-.008-.251.086-.139.257-.157.27-.122.112.012.0411.077.01.51.054.01.086-.063.141-.3.097.087.15.033.112-.078.073.009.09.077.18.109.168.036.139-.072.119-.13.127.044.2411.354.112-.039.555-.071.089-.096.0659-.087-.58-.47.029-.351.022-.403-.069-.24-.113-.19-.443-.221-.343-.229-.072-.104-.009-.134-.015-.2081-.136-.1789-.011-.152.086-.237.021-.2521-.029-.1-.08-.082-.154-.008-.203-.146-.1389-.1969-.3741-.284-.114-.046-.07-.141-.034-.168.079-.209.099-.323.069-.303.0009-.181-.0449-.448-.195-.343-.0911-.045-.1569.096-.1791.081-.1409-.076-.1611-.186-.2579-.5191-.483-.104-.2-.0249-.1891.25-.059-.076-.053-.16-.1-.063-.1321.074-.038-.071.057-.217-.157-.107-.3709.002-.198-.08-.023-.163-.117-.107-.21-.052-.205-.133-.198-.215-.297-.14-.395-.065-.032-.023-.037-.031-.255.146-.153.116-.188-.072-.304.258-.618.013-.3029-.016-.15-.064-.58.392-.061.144-.13.048-.365.078-.3839.11-.081.379-.114.205-.206.3-.713.104-.6161.146-.6309.091-.8271.366-.269.3219L7.99,20.2l-.2411.0271-.156-.18-.525-.482-.202-.228L6.6,19.27l-.289.038-.278.112-.292.021-.331-.162-.035.016-.127.022-.822-.196-.076-.033-.036-.008-.113-.015-.619.024-.5771-.396-.177-.012-.137.16-.101.178-.398.177-.102.071-.058-.055-.027-.153.03-.136-.059-.128-.151-.146-.037-.061-.19.011-.052.014-.019-.003-.264-.124-.174-.299-.271-.159-.207-.054-.094-.129-.0609-.171-.0641-.129-.007-.013-.044-.196-.063-.02-.011-.005L0,17.3451l.031-.689.427-.497.105-.251.16-.545.12-.256.1439-.212.115-.205.041-.176.1161-.02.34.159.305.082.084-.078.0349-.102-.0139-.079-.244-.235-.1531-.15-.01-.092.055-.207.03-.232-.035-.252-.167-.559-.031-.238.159-.29.518-.692.173-.261.236-.315.641-.756.404-.441.2739-.245.401-.425.1761-.221.732-.144.091-.207.1339-.226.104-.097.014-.381-.136-.467-.109-.165-.081-.113.053-.105.081-.03.1-.0151.124-.113-.028-.123-.309-.3-.134-.231-.209-.596-.424-.62-.134-.201-.019-.19.0621-.19-.0591-.243-.15-.31.024-.034-.015-.383.107-.083.169-.056.238.019.2039.059.2441.175.076-.0281.4169-.33.43-.498.123-.289.107-.132.374-.07.326-.029.207.005.509-.049L7.98,2.02l.261-.088.563-.033.878.059.577.004.392.047.959.265.357.048.166.141.319.052.58.141.503.076.34-.0311.19.04.36.625.074.073.144.015.294-.054.418.021.248.131-.036.371.065.054.116-.021.133-.209.112-.217.083-.068.427.147.195-.024.18-.165.11-.028.303.117.373.082.302.005.1879.089.1371.387.119.08.115.024.174-.346.158-.134.219-.099.141-.043.1-.123.1339-.119.1161-.01.094.046.1079.165.1581.376.192.3771.1339.1369.3461-.116.234-.118.429-.022.5689-.083.435-.108.272.019.165.12.251.231.068.332.326.229.267.042.091-.238.156-.166-.059-.229-.026-.292-.117-.271-.078-.292.143-.418.156-.366.078-.199.247-.368.253-.263.379-.423.277-.14.25.064.139.058.359-.251.6389-.013.532.032.054.008.2621.13.275.11.19.007.226-.025.266-.147.185-.142.225-.722.08-.104.124-.057.203-.006.386.135.452.121.2621-.017.698-.385L31.3107,0l.462.09.454.005.342-.056.2349.133.29.294.2621.436.2739.803.799.903.0131.176-.0651.113-.393.109-.3319.059-.016.154.088.167.152.244.023.314-.008.288.065.254.127.104.016.127-.146.156-.041.096.057.052.721.03.353.151.268.138.135.013.3041-.088.3419-.056.207-.008.08.102.064.267.12.267.112.076.2-.013.12.013.064.101-.072.152.0159.165.0881.202.104.467.096.139.064.176v.202l-.08.176-.056.138.056.314.216.351.16.087.1279.313.232.1.344-.263.264-.138.33.077.305.049.205.179.151.246.1761.137.176-.072.367.072.168.199.1681.112.216-.162.176-.2.644-.209.4-.052.112-.041.235-.15.248-.1.223.027.22.311.228.214.064.337.278.462.691.631.271.192.184-.034.096-.05.045-.0661.042-.3089.087-.1141.14-.003.541.384.283.042.269.007.362.298.397.259.307.027.245-.1019.168-.0621.104.099.096.223.16.173.184.049.265.011.46.3341.432.34.27.0191.229-.1.202-.026.141.086.04.147-.104.1969v.2821l.192.27.006.2651-.055.239-.109.22-.263.302-.243.281-.365.117-.205.123.054.206.134.192.31.155.352.113.041.125-.054.0629-.2261.0581-.312-.059-.104.109-.1439.181-.0961.326-.072.302.339.082.197.123.062.247.07.275.0209.247-.112.12-.007.123.053.061.146.027.111.055.009.13-.213.292-.199.558-.107.296.008.321-.12.178-.221.0229-.75.031-.653-.016-.282-.046-.442-.028-.219.076-.29.512-.22.2-.363.181-.399.052-.229.21-.081.33-.006.2919-.037.146-.086.128-.031.091.019.1.093.0361.111.0459v.072l-.043.091-.124.1-.056.154.013.164Zm-17.406,3.617.387.199-.395-.053-.867-.187-.383-.177-.099-.198-.056-.27.214.283.15.1239Z" fill="url(#radial-gradient)"/></g></g></svg>