<svg xmlns="http://www.w3.org/2000/svg" xmlns:xlink="http://www.w3.org/1999/xlink" width="15.2" height="15.874" viewBox="0 0 15.2 15.874"><defs><radialGradient id="radial-gradient" cx="7.6" cy="7.937" r="7.7703" gradientUnits="userSpaceOnUse"><stop offset="0" stop-color="#ffd496"/><stop offset="1" stop-color="#f29d25"/></radialGradient></defs><title>UG</title><g id="Layer_2" data-name="Layer 2"><g id="Layer_1-2" data-name="Layer 1"><path id="UG" d="M12.184,14.569H3.6l-.059-.008L3.5,14.549l-.188.035-.195.123-.207.05-.222-.019-.028.013-.112-.003-.162-.009-.1459.032-.1111.107-.114.184-.205.21-.16.187-.136.132-.311.219-.17.064-.084-.01-.052-.041-.098-.279-.06-.045-.605.144-.092.002.008-.087-.045-.656L0,14.5l.079-.251.046-.29.005-.256.111-.435L.2,13.007l.143-.915.038-.149.056-.442.089-.136.08-.053.103-.271.199-.434.137-.223-.03-.487.023-.332.031-.073.293-.124.38-.306.161-.361.227-.23.44-.149.001-.001L3.875,7.084l.606-.667.264-.342.009-.123.051-.161-.106-.126-.126-.114L4.53,5.445l-.108-.052-.1559.002L4.163,5.318l-.117-.15-.117-.094-.37.008-.285-.154.004-.209.111-.412.216-.472.012-.13-.031-.111-.052-.095-.097-.094-.092-.113.071-.34.136-.332.112-.167.109-.186-.031-.153-.159-.076.083-.149.171-.251.333-.254.293-.17.196-.001.38.136.344.159.188.008.23-.066.474-.283.115.09.138.171.151.284.299.129.143.09.103.026.057-.023.113-.223.137-.121.253-.153.559-.123.399-.037.169-.026.283-.072L9.6411.95l.44.295.478.057.463-.002.141-.09.081-.068L11.73.657,12.388,0l.438.925.1511.055-.0221.08-.037.078.287.223.353.117.126.114.011.123-.119.541.022.154.114.542.21.121.186.546.377.231.054.066.087.264.115.29.09.067.055.017.111.306-.064.173.087.524.141.468.038.559.001.246-.005.151-.031.212-.067.123-.12.12-.1341.188-.1159.202-.0731.099.057.302-.015.079-.03.038-.171.046-.218.081-.132.08-.188.154-.15.165-.199.487-.332.38-.056.125-.313.226-.138.279-.088.342-.121.245-.265.337-.06.532.008,1.061-.069,1.21Z" fill="url(#radial-gradient)"/></g></g></svg>