<svg xmlns="http://www.w3.org/2000/svg" xmlns:xlink="http://www.w3.org/1999/xlink" width="286.5449" height="236.1259" viewBox="0 0 286.5449 236.1259"><defs><radialGradient id="radial-gradient" cx="143.2724" cy="118.0629" r="131.2742" gradientUnits="userSpaceOnUse"><stop offset="0" stop-color="#ffd496"/><stop offset="1" stop-color="#f29d25"/></radialGradient></defs><title>US</title><g id="Layer_2" data-name="Layer 2"><g id="Layer_1-2" data-name="Layer 1"><path id="US" d="M78.825,14.7959v62.679l.672.232.666.23.204-.459.718.352.627.307.4-.394.433-.427.584-.03.655-.034.437-.022v.364l-.162.602-.135.501.398.507.49.266.458.249.206.686.501.528.381.4.366.383.523.546.366.382.488.507.29.301.139.584.167.699-.103.412.231.066.452-.462.425-.287.525-.355.354-.24.658-.012.314-.699.001-.985.333.017.196-.134.086-.291-.209-.398.63-.186.456-.135.651-.367.636-.359.303.278.3.268.589.645.04.155-.04.302-.058.301.358.842.103.094.294.116.351.278.155.24.508.382.086.158.048.256.083.22.095.157.092.224.22.264.419.294.291.2041.407.285.412.581.358.5029.408.496-.06.395.413.608.435.771.334.681.237.38.285.548.348.669.396.7591.303.4849.395.677.195.4031-.133.2749-.164.34.508.1611.352.1109-.088.3761-.116.496.398.195.27.133-.056.259.149.292.024.483.485-.0311.214-.014.29.214.382.282.383.2641.327.225.429.133.529.191.26.39.482.167.18.543.557.199.328-.133.118.221.093.254.025.32-.031.312-.139.26-.105.28-.07.301-.027.322.017.344.056.3.171.554.057.339.007.225-.379.79-.131.375.012.168-.276.39-.507.544-.23.313-.114-.104-.656-.081-.238-.695-.126-.541-.191-.472.005-.107.174-.316.656-.26.006-.104-.244-.069-.059-.113-.067-.515.018-.453-.017-.301-.109-.616-.164-.378-.423-.74-.036-.187.186-.235.116-.219-.715.381-.976.399-.418.278-.088.111-.03.094.076.262-.012.084-.085.155-.101.436-.212.461-.107.095-.381-.172-.102-.147-.191-.603.044-.161.139-.136.189-.293.238-.452.455-1.153.297-.005.524-.229-.822-.115-.123-.06-.11-.158-.098-.256-.167-.285-.313-.1-.137-.105-.207-.347-.139-.156-.076-.193-.013-.23-.059-.116-.215-.042-.116-.079-.032-.596-.428-.153-.175-.132-.282-.374-.078-.182-.025-.152.069-.414-.029-.078-.25.042-1.55-.643.082-.853-.287-1.1311-.308-.46.061-.18.066-.095.138-.0021.595.335.56.396.072-.058-.895-.842-.224-.252-.056-.304-.003-.163.071-.085.839.076.05-.063-.851-.248-.174.001-.186.356-.088.084-.183-.017-.062-.0549-.216-.431-.206-.301-.383-.417-.072-.298-.019-.439.051-.416.313-.954.127-.166.033-.104-.097.016-.092.091-.259.444-.267.726-.218.247-.137-.06-.207-.295-.432-.361-.5-.093-.316-.37-.467-1.034-.063-.517-.06-.127-.253-.168-.156-.249-.24-1.27-.317-.888-.079-.471.026-.468-.041-.052-.109.365-.028.19-.2.054.188.369.047.184-.094-.015-.192.046.326.627.146.968.216.714.14.577.063.437.092.417.252.917.034.182-.03.148-.083.176-.144.066-.452-.12-.17-.226-.244-.416-.342-.192-.847.095-.068-.032.003-.34.097-.607-.078-.246-.438-.897.007-.176.608-.414-.295-.031-.238.162-.092-.104-.144-.579-.093-.216-.046-.046-.026.551.101.289.015.167-.016.233-.063.167-.111.101-.111.025-.205-.116-.228-.219-.199-.103-.074-.087-.094-.242-.154-.184-.743-.233-.443-.276-.037.073.138.294.013.174-.112.053-.2.279.058.038.211-.092.236.011.39.169.354.222.128.124.053.1839.044.065.346.214.017.112-.223.3341.46-.037.267.119.342.5159.116.287.016.367-.071.106-.136.074-.934.12-.337.441-.07.006-.257-.12-.466-.3519-.581-.335-1.325-.997-.036-.047-.022-.193-.091-.099-.18-.084-.25-.254-.319-.4241-.197-.332-.075-.239-.186-.274-.6-.573-.314-.22-.277-.125-.241-.027-.065-.077.111-.126.017-.074-.532-.119-.505-.27-1.281-.7611-.662-.4779-.386-.2291-.165-.1289-.073-.105.093-.11.258-.114.175-.13.276-.487.021-.157-.148-.355-.066-.324.003-.18.039-.18.042-.117.117-.113.082-.057.102.039.325.446.046.162-.015.608.093.709.03-.052.03-.234.019-.448.037-.216.07-.21.118-.111.367.064.169-.038-.714-.322-.449-.605-.081-.063-.246-.027-.26.245-.669.797-.188.14-.841.44-.57.088-.642-.069-.547-.143-1.372-.696-.214-.162.319-.4321.013-.1349-.111-.441-.092-.126-.13-.07-.037.05-.001.131.035.243-.105.128-.233.138-.393.14-1.218-.356-1.248-.295-1.114-.061-1.573.235-.839.236-.489.023-.471-.042-.039-.165.215-.097-.012-.12-.272-.374-.413-.227-.554-.08-.317-.11-.08-.139-.196-.132-.312-.126-.137-.227.109-.704.106-.423.106-.291.268-.483-.093.036-.389.354-.339.365-.314.474-.187.217-.24.2-.375-.047-.509-.296-.436-.153-.363-.009-.144-.051.248-.265.143-.213.195-.342.043-.167-1.331-.055-.049-.181-.002-.133-.042-.11-.193-.082-.27.063-.437.214-.189-.163.067-.091.143-.067.291-.311-.393-.161-.201-.185-.098-.152.007-.549.104-.353.882-.343-.279-.134-.557.046-.374.292-.444.42-.298.157-.152-.106-.201-.037-.25.033-.168.107-.086.182-.1.123-.113.063-.082-.0209-.12-.1861-.252-.1159-.124-.142-.071.089-.086.268-.091.136-.426.139-.234-.026-.28-.336-.04-.117.095-.292.615-1.16-.062.007-.199.183-.397.464-.177.138-.305.018-.142-.05-.172.038-.202.124-.131.136-.062.147.042.025.304-.168.173-.045.048.082-.237.521-.144.4969-.137.125-.218-.0209-.239.0489-.003.1391.445.395.161.056.206.141.032.14-.078.377-.058.148-.094.077-.363-.013-.118.039-.244.2359-.122.1951.044.017.211-.161.307-.086.403-.012.3-.085.197-.16.192.045.187.25.056.2189-.076.1881-.154.134-.233.08-.147.12-.062.16-.035.237-.008.313.059.563-.045.076-.088.042-.13.007-.117.132-.274.746-.097.081-.115-.08-.102.009-.089.097-.195.074-.301.051-.258-.019-.453-.161-.185-.114-.144-.187-.407.198-.107-.086-.253-.517-.055.031-.049.557-.077.195-.251.402-.137.69-.042.021-.047-.1-.155-.617-.082-.136-.227.356-.025.129.06.459-.053.069-.459-.247-.113-.012-.03.042.157.355-.018.128-.65.684-.169-.024-.106-.068-.117.011-.413.254-.114-.011-.156-.15-.072.006-.039.157-.005.306-.153.29-.492.468-.13.215-.099.294-.074.028-.289-.189-.334-.123-.046.061.102.179-.021.11-.145.041-.183-.016-.222-.073-.311.082-.399.237-.333-.007-.465-.39-.128-.029-.041-.11.091-.316.132-.24.097-.11.441-.308.505-.113.317-.186.386-.383.204-.288.401-.745-.03-.058-.09-.041-.882.707-.13.065-.175-.005-.705-.271-.149-.116-.102-.34.196-.776.137-.376.344-.582.45-.623.156-.405.234-1.088-.014-.496-.105-.606-.004-.361.098-.114,1.033-.564.489-.424.949-.628.258.005.19.2161.221.173.252.129.324-.013.396-.157.628.06,1.29.4129.274.023.011-.052-.199-.289-.889-.168-.375-.168-1.053-.741-.24-.287.097-.134.258-.111.088-.1069.037-.187.148-.2551.259-.326.396-.315.749-.47-.293-.02-.539.087-.196.089-.36.336-.14.236-.201.46-.086.0871-.374.0659-1.019.0461-.172-.2351-.095-.0379-.126.033-.936.6-.335.305-.239.348-.37.254-.5.161-.374.199-.394.397-.134.304-.008.143.096.449-.098.084-.227.035-.365.297-.771.88-.101.318.004.109.125.248-.087.161-.217.254-.483.401-.317.152-.206.008-.198-.0571-.352-.2579-.285-.0161-.018.036.388.276.395.354.246.2941.097.233.004.24-.089.246-.279.427-.273.127-.699.128-.225.102-.07.079.48.18.043.092-.066.356-.127.116-.4.212-.358.062-.055-.041.067-.279-.019-.069-.135-.0571-.191.106-.477.411-.051.067.172.11-.036.091-.258.2941-.107.196-.173.199-.77.608.059.148-.2.5269-.112.465.136.195.646.228.313.055.369.159.668.428.223.279.033.131-.021.143-.08.193-.209.364-.505.54-.228.153-.345.12-.113.087-.443.509-.12.274.019.239-.085.167-.57.328.02.058.207.025-.076.289-.034.4-.099.067-.356-.003-.453.155-.032.044-.008.287-1.184.21-.259.542-.135.166-.464.393-.284.158-.325.096-.17.133-.016.17-.092.147-.281.243-.138.305-.1.048-.523.073-.104.097-.051.411-.097.013-.186-.096-.242.074-.544.464-.119.167.013.089.084.088.129.275-.008.185-.209.515-.074.08-.254.127-.104.284-.234-.031-.189.054-.124.189-.134.109-.145.028-.183.15-.219.27-.204.172-.187.074-.182.019-.177-.038-.159.031-.141.1-.138.156-.11.442-.139.197-.088.034-.18-.029-.272-.093-.276.033-.446.271-.142.204.281.045.139.058-.003.057-.146.055-.25-.004-.15.047-.182.116-.458.125-.174.089-.345.508-.042.115.044.025.194-.053.228.084.118.107.076.132.072.254.044.038-.438.426-.124.181-.08.067-.053-.0521-.054-.474-.033-.0809-.104-.008-.1.15-.219.56-.239.282-1.795.72-.258.166-.051.306-.074.265-.119.21-.139.133-.03-.095.014-.745-.037-.148-.181-.095-.08.013-.109.042-.18.162-.11.04-.137-.013-.234.159-.556.509-.363.126-.096.105-.155.278-.103.102-.152.009-.202-.083-.162.059-.123.202-.125.08-.353-.149-.156.102-.202.26-.211.171-.22.083-.572.086-.23-.055-.047-.075.011-.331.092-.239.085-.1131.114-.1.167-.012.312.0751-.036-.08-.113-.095-.287-.165-.285-.0841-.163.054-.229.126-.156.146-.082.166-.103.54-.06.146-.67.947-.263.291-.26-.022-.126.11-.177.235-.164.113-.15-.01-.117-.045-.083-.0791.014-.074.112-.069-.04-.188-.192-.31-.131-.1679-.249-.02-.039.141.084.7179-.013.162-.155.204-.408.228-.127-.022-.367-.449-.348-.089-.023.146.078.299-.087.2781-.251.259-.191.125-.131-.008-.007-.181.117-.355.03-.296-.057-.238.007-.182.069-.1271.461-.354.194-.053.104.087.129.015.156-.058.098-.113.041-.169.199-.216.357-.265.409-.489.46-.716.539-.619.619-.521.671-.415,1.352-.571.104.035-.124.186.084.116.133.015.495-.092.197-.12.058.116-.069.146-.297.148.008.123.433.575.136.087.113-.011.048-.074-.036-.415.146-.079.299-.02.195.054.091.127.171.105.251.084.156-.026.061-.135-.107-.161-.481-.354-.134-.148-.032-.207.068-.265.151-.394.234-.523.212-.366.429-.416.289-.206.733-.632,1.409-.646.348-.416.473-.46.203-.113v.178l.065.159.316.106.206.037.095-.032.026-.169-.042-.307-.011-.29.021-.2731.046-.216.211-.385.314-.439.429-.511.271-.2319.255-.124.247-.224.425-.531.136-.0871.305-.105.112.046.065.134.08.083.309.0751.206-.1181-.034-.0629-.167-.041-.107-.077-.101-.317-.205-.191-.046-.217.037-.338.176-.796.029-.822.157-.473.315-.171.699-.117-.409-.214-.152-.001-.266-.101-.101-.518.002-.377.176-.438.651-.741.713-.515-.097-.042-.088-.1531.329-1.036.321-.9289-.433.7919-.501.604-1.47.6991-1,.584-.474.139-.313-.148-.244-.56-.14-.2-.179-.366.076-.478.142-.331.312-.054.352.16.305.014-.393-.327-.567-.286-.257.093-.197.463-.263.317-.231-.113-.137-.129.095.387-.175.588-.066.406.25,1.068-.046.425-.455.195-.371-.349-.773-1.352-.27-.387-.606-.64-.2.091-.255.316-.247.087-.652-.466-.304-.356-.287-.433-.44.239-.384.284-.45.452-.301-.004-.818.387-.087.008-.115.208-.113.093-.093.4-1.106.31-1.093-.173.382-.22.427-.173.371-.417-.158-.559-.027-.285.004-.361.405-.508-.421.001-.271.182-.253-.382-.119-.754.29-.448.134-.346.114-.476.008-.41-.224-.696-.644-1.483-.293-1.114-.502-.596.375-.98.418-.897.54-.403-.043-.06-.298.003-.196.053-.173.293-.183.223-.571,1.141-.368.554-.239.158.385.2141.059.18.074.409-.099.495-.099.273-.454-.022-.408.397-.958.431-1.294.246-.636-.029-.662-.502.005-.292.027-.253-.951-.871-.538-.872-.387-.019-.336-.233-.397-.363.035-.293.063-.207-.244-.145-.312.014-.363-.1.948-1.136.326-.765.266-.109.345.118.476.302.401.133.145.142.148.267-.156.447-.143.313.176-.084.499-.485.372-.427.178.044.116.075.207.44.256.447.565-.426.302-.532-.255-.233-.312-.139-.796-.181.194-.153.511.017.192-.146-.202-.203-.253-.182-.689.605-1.254-.03-.876-.354-.875.062-.138-.07-.17-.189.493-.451.349-.25.019-.145-.203-.018-.381.12-.17-.208.028-.362-.063.033-.151.198-.213-.098-.185-.17.096-.174.188-.24-.083-.036-.168.051-.164.313.036.253-.004.363-.28.066-.24-.043-.173-.365-.179-.784-.484-.209-.119-.398.306-.513-.135-.265-.326-.086-.372.259-.165-.23-.03-.253-.013-.364.104-.039.086.072.747-.202.072-.099-.592-.309L8.45,68.77l.245-.185.442-.016.62-.193-.261-.346-.055-.19-.052-.312.103-.531.729-1.223.71-1.026.221-.237.325-.128.303.099.316.221.06-.095-.107-.09-.135-.422.439-.166.257-.478.019-.139-.279.199-.291.327-.073-.329-.075-.758.128-.719.1-.324.243-.308.7-.124.124.062.025-.146-.421-.456.173-.357.152-.186.846-.29.462.09.58.338.337.42-.049.215-.083.125-.174.139-.065.108.031.086.249-.25.407-.304.228.132.18.24.199-.004.633-.206.321-.218.393-.569.522-.368.735-1.168.216-.481.251-.074.227.042.158.395.231.115,1.315-.096.672-.181.467-.3829L22.91,57.4l.281-.4349.135-.568-.174-.738-.178-.6151L22.74,53.63l-.653-.94-.464-.282-.295.04.213-.603.622.065.405-.118.328-.291.107-.2209.162-.452-.056-.483-.087-.263-.226-.29-.269-.425-.188-.142-.159.009-.784.853-.471.016-.352-.156-.306.484-.853.4239-.456.4271-.845,1.056-.211.4759-.27.021-.195-.924-.919-.886-.278.3021.153.2779.208.198.343.086-.148.2681-.112.356-.344-.334-.615-.486-.637-.251-1.658.028-1.088.4989-.1-.104-.105-.041-.182.119-.078.2031-.119.1269-.222.045-.448-.0749-.864-.31-1.955-.456-.512-.281-.438-.6711.009-.457.195-.194-.019-.657-.38-.175-.775-.95-.285-.406.062-.045.139.11.265.083.65-.132.223-.619.482-.177.444.087-.1-.168-.113-.132-1.156-.317-.157.097-2.073-.564-1.637-.984-.134-.189-.149-.422.221-.4179.222-.198.01.23.036.226.938-.5249.491-.691.929-.122.216-.191.289-.373.412-.639.583-.337.397-.303.517-.18.441.299.136.041.8.061.263-.129.112-.096.084-.152-.786-.542.08-.302.1-.213.917-.635.705-.21.377.015,1.094-.824.599-.236,1.129-.157.928-.041.251.295-.499-.062-.219.054.156.101.176.215-.051.271-.306.801.025.639-.199.207-.193.291.95.913,1.47.058.8-.165.462.272.378.062,1.046-.14.788.194.329-.074.729-1.365.285-.215.31.238.404.193.258-.14.21.353-.099-.736-.143-.277-1.19-.509-.796.253-.249-.287.083-.57-.852-1.412-.355-.288-.42-.014-.214-.494-.179-.636.362-.261.328-.118.303.206.343.836.319.123-.093.829.396.761.894.704.716-.259.506.0079.302.148.74.63.376.079,1.175-.33.012-.62-.099-.45-.276-.283-.794.053-.618-.466-.526.128-.973.713-.487-.28-.306-.381-.494-.388-.062-.736.414-.848.306-.405-.274-.296-.689-.208-1.196.213-.056-.291.006-.314-.487.6151-.5-.129-.674.0659-1.488-.542-.53-.671-.222-.546-.401-1.506-.512-.948-3.539-3.261-1.61-.829-.775-.922-.486-.228-.464-.093-.595-.299.4-.3679.275-.125-.286.3849.217.097.346-.222.187-.266.274-1.133.283-1.728-.076-.685,1.963.138,1.307-.1159.433-.1561,1.648-.265.427-.192.792-.591.933-1.049.8-1.388.127-.375.051.096.072-.06.085-.53.105-1.253.397-1.191,1.689-2.745.784-1.1.261-.502.272-.367.192.349.091.104.053.164-.161.076-.262.356-.366.2381-.088.1219.215-.0269.643-.259.363-.314,1.804-.583.978-.967.038-.216,1.451-1.218.201.047.231.147-.402.804.283.21-.251.955.526.015.118.438.029-.377-.006-.542.042-.534.078-.37.37.167.833-.398-1.009-.05-.605-.874-.336-.007,1.125-1.29,1.028-.784.232.015.112.146.024.237-.222.154-.218.278.1.245.149.035.494-.201.221-.252,1.053.022.309-.18.074-.179,1.364-.036.25-.126.853-.696.789-.847.363-.464.623-1.188.534-.777L35.422,0l.21.097-.285.155-.198.33.273.438,1.849.899.465.049.186.536-.155.515-.477.57-.96.582.294.219.192.516.284.063.461-.194.361-.317.747-1.037.235-.581.176-.147.626.14.354.299.404.529-.148.51-.165.287.523.396.58.083.553.318.777-.651.609-.139.571.021.743-.356,1.257.485.32-.126.504.084.536.292.189.311-.574.657-.093.675.2.281.363.048.046.393.226.098,1.134-.029-.087.187-.055.225-.351.497,2.021.279.271-.275.418-.109.888-.38.334.166.394.388.364.081.34-.079.792-.554.915-.027.375.181L55.63,7.8l1.192.634.439.074.587.821.303.024.343-.348.298.011.291.333.476.102.222.524.239.19,1.803.388.893-.177,1.301.046.627.248.658-.032,1.075.899.57.14.111.207,1.623.218.568-.467.99-.124.891-.3939.505.0039.588.0981.226-.047L72.612,11l1.433.678.802.772.351.568,1.678.809.485.451.332.496.195.053.137-.145.586.042ZM8.36,40.4019l-.108.039.006-.106.32-.283.59-.351-.022.076-.315.272Zm51.02,34.074-.355.047-.163-.073-.023-.079.067-.291-.005-.123.179-.046.206.138.06.143Zm-11.479,2.65-.135.021.181-.28.126-.547.169.076.034.1-.279.561Zm12.243-.503-.001.149-.088.144.084.263-.146.451-.056.286-.078.18-.078.069-.079-.041-.017-.099.046-.158-.185.005-.057-.394.103-.125.037-.168.012-.114.121-.503.043-.035.014.12.039.035.064-.049.096-.224.041-.026Zm3.549.005.063.156.54-.038.155.028.062.072-.073.105-.208.139-.608.244-.494.32-.064-.03-.09-.35-.091-.142-.056-.198V76.86l.091-.137.181-.2.128-.072Zm3.579.638-.09.138-.245-.049-.131-.088.438-.364.072.073Zm-58.984-.263.258.281.137.016.432-.085.159.06.153.121.095.185.018.324-.07.289.021.407-.015.175.229.23.072.311.037.334-.498.111-.498.018-.43.226-.088.167.069.247-.118.063-.109-.054L7.934,80.2l-.228-.109-.799-.169-1.003-.667-.432-.138-.438-.49-.396-.625.258-.101.26-.051,1.166.093.146-.449.15-.112.37-.127.346-.25.155.006.158.096.328-.149.174-.032Zm51.639,3.205-.31.081-.073-.165.163-.411.13-.233.097-.055.356-.465.395-.339.363-.497.368-.711.068-.266.171-.028.281.175.174.246-.081.195-.931,1.008-.078.131-.084.341-.077.119-.123.054-.089.148-.056.243-.115.127-.174.011-.12.067-.067.123Zm-.803-1.41-.147.172-.555-.104.115-.339.424-.214.464.3329Zm9.7,1.382-.135.032.202-.366.271-.405.255-.254.332-.106-.037.185-.433.342Zm-45.895,6.792-.206.086-.218-.043-.172-.533.132-.017.276-.352.611-.285.15-.032Zm23.667.494-.083.034-.205-.164-.135-.174.089-.133.397-.28.19-.005.078.044.031.087-.015.129-.085.161Zm.193.667.102.043.106-.318.075-.01.332.269.204-.06.131.331.118.03.109-.04.066.023-.023.349-.243.353-.113.089-.158-.091-.059-.034-.104-.156-.079-.197-.047-.003-.185.232.004.115.077.172-.011.107-.202.0509-.198-.027-.242.15-.058-.093-.037-.263-.075.03-.114.322-.125.204-.227.1691-.05.082-.166.0109-.246.106-.152-.018-.906-.349-.213-.128.745-.803.392-.312.227.017.227.097.12-.016.009-.357-.211-.267.008-.111.467-.183.175.026.193.094.183.152ZM96.567,89.19l.713.121.522-.027.477.792.293.637.172.445.098.429L98.973,92l-.012.0581-.275-.2781-.198-.565-.101-.221-.1-.1-.105-.209-.205-.542-.007-.153-.091-.142-.105-.059-.119.023-.041.055.018.375.094.416.515.906.344.514.068.17.045.468-.148.211.182.43-.007.084-.04.082-.49.19-.449.793-.492.463-.227.074-.109-.0769-.103-.1771-.061-.237-.018-.2969.123-.188.243-.978.007-.322-.303-.448-.183-.367-.099-.513-.166-1.364-.077-.438-.108-.366-.14-.293-.105-.323-.072-.353.027-.137.243.184.292.506Zm1.031-.357-.02.132-.383-.013-.386-.194-.19-.255.038-.115.359-.107.34.242Zm-3.978-.082.401.518.003.119-.082.355-.218.1.062.141.162.106.116-.088.423-.497.13-.1041.079-.0109.516.15.451.237.133.189.075.3309-.12.714-.37.124-.175-.013-.187-.104-.301.248.25.189.76.043.23.4.066.308-.164.564-.431-.156-.38-.327-.779-.464-.187-.021-.125.082-.034.281.008.608-.208.315-.614-.139-.241-.46-.225-.73-.847-.869-.229-.174-.305-.522.122-.415.036-.24.163-.064.238-.186.133-.403.214.326.286.313.004-.294.135-.235.281.009.132-.049.184-.22.266-.114Zm-48.181,2.224.02.289.114-.035.432-.297.225-.087.293-.014.232.136.047.104-.021.124-.186.251.008.163.2.3.491.163.06.09-.002.108-.338.495-.124.115-.088.028-.614-.089-.562-.1619-.227-.0281-.081.0531-.159.152.114.045.492.036.174.221.076.163.038.179-.098.073-.21.054-.252-.001-.312.2009-.172.23-.625.058-.476.306-.167.151-.059.18-.18.13-.405.131.242.117.038.099.004.137-.033.118-.32.525-.604.431-.153-.02-.066-.054-.054-.082-.002-.083.779-.866-.031-.042-.212-.029-.335-.239-.237.154-.054-.006.063-.205.154-.244-.027-.069-.085-.061-.195-.037-.306-.012-.227.058-.147.128-.012.054.313-.015.085.065.084.121.051.14.019.159-.066.213-.149.267-.219-.047-.449-.595-.198-.874-.384-.67-.017-.161.109-.415.387-.591.416-.162.296-.249.287-.075.177.006.243.107.098.227-.059.106.022.056.17.136.184.475.214.42.143.17.188.105-.194-.32-.115-.397-.058-.794-.056-.211.109-.056.307.031-.008-.119-.324-.269-.199-.223-.075-.176.004-.153.177-.226.1-.064.104-.028.206.048.092.071.264.508.124.158h.103l.095-.084.088-.168.091-.101.093-.033.294.075.098-.028.048-.1271-.002-.2279.073-.082.018-.168-.16-.248.184-.076.61.189.261.207Zm-.961-.137-.079.146-.074-.038-.157-.171-.32-.25-.146-.171-.009-.073.11-.081.376.202.16.184Zm51.277,2.607.238.569.173.44.154.528.257,1.089.12.41.038.224.028.585-.039.126-.077.115-.015.167.071.444.004.673-.067.378-.079.057-.192-.124-.158-.205-.116-.213-.287-.675-.085-.315-.005-.227.044-.166.094-.103.163-.276-.023-.044-.124.062-.253.035-.223-.218-.174-.1149.035-.3941-.046-.111-.342.1221-.128-.11-.028-.148.006-.221.065-.194.324-.491-.033-.091-.158-.02-.208-.168-.095-.552-.224-.315-.132.029-.3.89-.148.194-.422.125.086-.247.04-.221-.15-.671-.004-.259.1-.1911.298-.08.158-.113.123-.185.031-.18.231-.478.108-.093.288.006.605.529.184.078Zm-50.622,1.173-.357.1659-.063-.0069-.22.336-.168.1449-.222-.265.057-.412.194-.2739.982.092.076.077.002.065-.072.0539Zm55.122.625.187.161.102-.169.189.008.352.15.209.225.118.2569.01.1531-.036.3469.026.3551-.015.1839-.047.1521-.079.12-.086.015-.273-.318-.313-.575-.238-.175-.01.06.065.165.195.31.035.186.137.227.061.171.035.225-.001.196-.038.168-.063.107-.089.047-.478-.047-.285.112-.333-.063-.08-.102-.05-.166-.025-.404-.084-.58.02-.447-.215-.405-.184-.245-.265-.2189-.174-.218.048-.174.271-.13.444.031Zm-1.749.813.182.354.264-.029.148.268.112.4-.082.256-.117-.057-.13.148-.08.491.037.491-.04.488-.151.496-.031.332-.059.099-.065.034-.084-.09-.122-.07-.154.279-.188.002-.156-.635.139-1.062.312-.217-.186-.29-.392-.338.033-.188-.298-.545-.017-.13.047-.4559.278-.408.368-.072.257.175.144.1489Zm3.487,1.628-.03.074-.357-.007-.129-.061-.048-.217.033-.201.083-.156.101-.301.079-.502.523.562.161.25.086.305-.186.114-.225.055Zm-60.232.055-.138.0109-.208-.134.028-.161.296-.194.299.03.022.108-.014.122-.024.07-.095.0729Zm-1.331.401-.192.12-.063-.042-.009-.099.045-.158.089-.158.296-.3.298-.199.152.012.052.127-.186.263Zm63.344,1.646-.058.833-.111-.047-.106-.001-.216.118-.228-.052-.107-.092-.039-.107.041-.248-.126-.138-.426-.05-.16-.059-.088-.261-.021-.342.067-.128.215-.09.167-.4169.093-.056.354-.828.178.058.311.504.39.726Zm-1.873-.693-.144.016-.17-.077-.403-.4111-.007-.121.058-.138.229-.252.094-.061.55.027.176.067.04.118-.009.12-.058.121-.013.126.031.132-.064.131Zm-2.207-.464.532.108.487-.011.167.208.11.219.064.206.018.193-.013.136-.059.146.013.049.952.477.449.5.179.262.104.221.188.553.396.64.208.194.118.189-.066.007-.279-.14-.604-.4281-.05.017-.055.232-.094.203-.139.146.111.043.487-.092.41.416.159.075.154.298.005.114-.09.22-.069.09.023.061.114.0311.452-.0621.081.108-.067.856.064.314-.001.143-.052.189-.002.16.041.164.005.146-.115.381-.121.064-.195.003-.154-.108-.216-.328-.21-.51-.081-.073-.276-.077-.05-.061-.176-.011-.125-.21.015-.276-.108-.283.013-.126-.121-.053-.102.08.053.277-.06.214-.219-.09-.366-.686-.416-.552-.163-.131.043-.161.205-.085.166.007.034-.096-.347-.536.012-.152.126-.271-.158-.113-.433.0849-.153-.057-.125-.2179-.073-.189-.375-.034-.142.023-.245-.287-.111-.181.044-.093.225-.163.132.023.253.174.099-.006.251-.231.038-.208.188-.172-.03-.181-.104-.309-.23-.086-.47.184-.409.283-.164-.11-.036-.173.438-.472.192-.261-.037-.1549-.141-.201-.012-.503Zm7.26,4.248-.098.542-.193.553-.295.297-.208-.066-.153-.24-.142.013-.151-.0491-.085-.199.08-.2569-.071-.199-.075.174-.133.159-.335.208-.231.396-.109.258-.136-.281-.087-.667-.011-.284.243-.429.314-.408.063-1.223.998-.618.093.032.324.461.345.643.089.289.002.503Zm-69.003-1.648-.109.157-.213-.011-.119-.051-.04-.138.328-.416.075-.056.059.016.026.172Zm62.476,1.378.062.139.004.088-.406.328-.007.068-.095.202-.085.074-.151.219-.289.236.043-.709-.287-.413.289-.209.189.06.314.024.306-.182Zm-76.842,1.13.043.003.086-.038.182-.277.06-.012.001.085-.086.274.146.3659.136.175-.014.062-.341.1261-.26-.091-.137.032-.125.127-.085-.141-.059-.675.02-.118.142-.235.183-.106.079.031.066.094.017.098Zm.998-.113-.039.388-.386-.247-.103-.123.069-.091.367-.023Zm77.086,2.17.069.066.07-.046.114-.173.201.034.146.058.089.072-.047.252-.036.41-.083.145-.082.204-.285-.121-.231-.26-.335-.448-.187-.324-.015-.137-.118-.099-.23-.56-.13-.444-.207-.051-.261-.124-.101-.244.07-.214.372-.108.559.55.085.233.2.272.038.379.102.148ZM25.864,104.65l-.171.107-.054.136-.13.058-.109.111-.368.502-.161.092.178-.428.028-.136.003-.091-.055-.324.107.014.088-.067.178-.288.16-.025.172-.343.093-.027.046.046-.076.208.165.191-.042.185Zm80.078.24.287.637.015.2229-.273.0781-.215-.0321-.111-.073-.029-.104.07-.322-.142-.189-.164-.065-.146.111-.008-.318.11-.229-.061-.311-.002-.2349.037-.0751.148.007.303.243Zm-79.074-.353-.015.39-.041.061-.075-.104-.158.116-.086-.084.037-.136-.012-.106.117-.009.028-.194-.021-.082.058-.175.083-.041Zm.43.877-.091.025-.075-.053-.104-.277-.009-.117.201.087.076.202Zm-11.546-.04.272.805.118.157.175.085.246.086.146.119.128.181.017.083-.771-.323-.485.4719-.146.0621-1.376.022-.275.087-.178.153-.314.429-.16.167-.168.099-.357.11-.429-.015-.224-.056-.12-.204-.106-.402v-.112l.045-.193.382-.266.127-.141.495-.917.144-.126.152-.031.423.064.361-.269.778-.41.171-.049.56-.009.153.064.118.115Zm3.306.651-.067.022-.193-.149-.07-.111-.051-.174.394-.25.082-.003.074.141.013.11-.109.316Zm-.719,2.156-.243.105-.258-.11-.221-.203-.025-.242.492.157.105.074ZM9.9,109.45l-.123.036-.029-.049-.015-.21-.094-.334.179-.121.112-.0281.047.051.129.25.129.066.095.053-.167.076Zm-.786.315-.106.084-.085.018-.064-.047-.293.057-.057-.034-.129-.285-.008-.147.051-.116.13-.106.21-.095.207.02.36.263.169.154.032.095-.126.09Zm-2.172.808.121.226.209-.143.154-.196.12-.253.078-.1.103.134.294.182-.248.28-.476.418-.16.28-.01.121.462-.092.129.013.082.096-.126.113-.251.103-.218.199-.506.344-.191.286-.226.109-.308.026-.542.186-.329.175-.083.094-.104.043-.124-.005-.133.077-.144.158-.12.074-.196.017-.102.062-.114-.002-.313-.189-.078-.11.277-.221.2-.074.305-.033.299-.205.616-.271.191-.148.123-.517.14-.088.075-.207.341.006.156.232.055.032.027-.022.015-.186.175-.13-.101-.096-.315-.12-.234-.057-.153.007-.124-.067-.096-.142-.043-.141.008-.14.078-.157.147-.174.168-.099.363-.0711.322-.116.17-.018.129.049Zm1.138.843-.04.014-.072-.117-.003-.107.046-.078.131-.182.093-.064.115-.033.031.049-.101.215-.126.145Zm-4.924,1.781-.859.501-.279.366-.213.352-.167.1919-.122.033-.136.093-.284.245-.12.03-.912.571-.064.009.044-.149.278-.2109.182-.193.205-.318.113-.118.036-.16.015-.324.051-.1229.196-.244.143-.133.188-.046.38.041.158-.125.049-.094-.096-.086-.022-.149.025-.258.11-.229.195-.2.266-.156.336-.112.246-.005.442.236.065.108-.109.236-.062.222Zm209.326,21.047.336-.052.289.015.291.023.155.034.448.186.292.152.419.282.232.125.112.293.13.375h.186l.14-.22.356-.04.468.154.412.438.592.39.362.194.368-.001.467-.193.497-.374.358-.065.212.037.121.291.148.111.386-.033.805.056.641-.079.146.167.13.263.26.083.353-.083.555.057-.076.042-.082-.009-.107.0629-.133.134-.307.1911-.48.2489-.554.228-1.123.4111-.7.4259-.31.2551-1.205,1.276-.727.677-1.177.948-.112.12-.007.112.096.105.24.152.187.019.239-.031.945-.262.398-.182.391-.306.04-.01.163.056.051.027.508-.353.167-.045.131.009.163.139.038.084-.055.162-.146.239-.071.201.004.163-.063.176-.16.239.058.064.429-.172.063-.067.007-.04-.026-.048.049-.022.338.235.225.13.189.062.358-.075.527-.212.45-.258.3719-.306.4641-.188.557-.069.398-.108.24-.148.322-.289.181-.085.228-.026.171-.112.115-.198.218-.225.32-.252.183-.102.045.048.017.089-.012.131.08.105.171.081.078.107-.015.133.046.113.108.094.028.204-.05.313-.006.203.038.092.038.052.061-.05.077-.11.028-.068.02-.069.468-.316.091-.016.153.082.708.114.279.081.293.181.1.07.359.584.164.228.102.063.058.089.046.206.056.062.526.044.238-.037.145-.083.161.054.177.19.174.053.171-.083.161.002.151.089.07.064.046-.003.299-.29.36-.258.481-.279.279-.124.077.03.443-.0929.399-.008.529.056.49-.065.451-.1871.399-.104.347-.022.131.052-.085.1271-.046.217-.006.308-.03.194-.053.082-.006.078.04.074.337.048.177.1.203.004.2291-.091.175.035.122.159.177.029.1719-.114.1211-.107.104-.047.0809-.01.086.054.058.091.146.25.072.169.0441.251.031.083-.004.146-.098.099-.026.079.059.079.332.022.151.078.056.087-.038.096.021.103.081.108.266.164.065.078-.019.083-.079.053-.139.024-1.016-.154-.299-.025-.044.057-.028.008-.048-.015-.0871-.003-.044-.037-.037-.103-.088-.066-.141-.029-.121.078-.141.305.022.057-.023.1951.036.053-.002.044-.04.037-.083-.005-.126-.046-.477-.461-.361-.23-.447-.1691-.354-.083-.26.004-.214.119-.167.232-.261.132-.355.032-.192.063-.03.093-.128.002-.226-.088-.233-.025-.241.039-.176.091-.187.285-.037.14-.135.122-.359.19-.018.07-.189.216-.06.119.0011.117-.0631-.0069-.127-.1311-.005-.176.117-.2219.105-.107.092.007.057-.099.022-.2041-.033-.1019-.179.04-.0939.081-.1191.018-.143-.046-.126.111-.109.269-.13.176-.151.083-.102-.092-.052-.267v-.209l.061-.253-.031-.049-.064.081-.096.2109-.128.46-.082.149-.111.063-.176.278-.24.492-.271.477-.302.46-.182.247-.061.035-.027.082-.015.295-.054.2-.158.157-.413.198-.065.135-.009.111-.266.459-.13.281-.085.292.027.184.139.075.113-.029.086-.133.132-.121.179-.108.13-.159.181-.387.203-.223.108-.013.03.006.211-.101.17.033.103.152.105.104.023.098-.052.218-.097.23-.141.241-.128.361-.115.481-.024.363.066.245-.063.219-.192.192-.155.2569-.117.3211-.066.269-.016.218.017.163.072.22-.005.111-.208.483-.075.234-.013.185-.052.182-.159.369-.05.2049-.009.188.036.308-.02.104.009.0791.039.053v.097l-.041.1409.016.1091.072.078.046.1489.021.219.055.183.089.146.016.2131-.057.278-.029.522-.001.765.042.49.086.217.096.16.106.103.122.316.138.53.127.35.118.17.106.094.084.055.062.008.035.083.158.05.289.021.266-.033.242-.086.77-.446.299-.243.166-.218.161-.287.155-.356.316-.534.154-.323.148-.41.112-.43.075-.451.036-.469-.004-.4859-.076-.49-.147-.495-.079-.253-.031-.067-.266-.636-.3-.888.004-.076.28-.531.007-.072-.03-.432-.06-.217-.143-.292.005-.074.291-.373.176-.284.16-.345.104-.403.047-.461-.001-.308-.051-.154.005-.119.061-.083.312-.108.105-.183.022-.322.064-.16.106.003.098-.066.09-.135.119-.039.148.059.207-.2.266-.459.204-.257.143-.0539.027.0419-.088.137-.027.151.034.164-.03.159-.066.217.041.068-.114.349-.005.1741.069.1319.082-.046.095-.225.029-.12-.039-.015.015-.096.067-.176.06-.084.052.01.014.096-.023.183-.151.431-.03.1311.034.0369.182-.27.152-.43.116-.33.021-.18-.035-.465.007-.191.044-.132.158-.149.271-.166.268-.089.265-.011.185-.045.105-.079-.037-.064-.178-.047-.136-.104-.092-.161-.031-.185.031-.208.113-.205.196-.201.062-.147-.073-.095.084-.034.24.027.168-.026.095-.079.026.01.201.075.359.2471.341.144.323.041.236.087.148.133.107.1489.065.1651.154.0929.243.021.191.07.139.119.772.307.323.162.178.158.05.102-.015.1.018.107.132.208.05.019.031.1.011.182.039.122.066.0621-.041.025-.238-.1051-.135.0321-.063.1359-.01.129.043.121.304.3641.079.332.015.401-.038.156-.032.343-.026.53-.006.181-.1.1771-.271.2539-.004-.048-.065-.013-.07.039-.098.2171-.084.396-.102.2149-.121.034-.073.0571-.024.08-.129.054-.235.028-.161.12-.12.338.005.162-.056.201.004.172.063.143.19.143.316.143.189.022.13-.06.136-.234.132-.092.161-.039.061-.106.265-.469v-.104l-.097-.04.014-.029.125-.019.108-.063.092-.108.161-.08.392-.1229.21-.14.133-.023.194.075.254.172.201.2511.148.329.187.851.226,1.367.154.762.083.162.041.081-.199,1.061-.16.437-.28.253-.278.245-.347.41-.381.202-.195.1189-.042.077-.047-.0239-.104.2219-.093.307-.037.237.033.13-.079.0831-.143.156-.027.057.01.091-.03.044-.069-.002-.053.044-.129.163-.222.426-.042.0889.037.0661.254.0409.173.078.135.1171.487.229.149.142.148.078.147.014.101-.045.054-.1041.069-.0069.084.09.274.0979.009.0311-.76.17-.159.079.19.055.192-.013.193-.082.222.004.195.039.062-.033.025-.017.332.223.124.033.129-.025.133-.084.293-.1091.452-.135.435-.055.418.025.264-.038.242-.14.534-.46.613-.371,1.009-.461,1.5-.555.232-.129.235-.127.122-.073.136-.066,1.044-.582.538-.344.269-.25.284-.208.298-.166.236-.213.175-.26.193-.194.211-.127.114-.134.016-.14-.04-.19-.094-.239-.013-.188.068-.138.015-.093-.038-.048-.443-.137.019-.66-.006-.019.023-.008,1.021-.293.651-.101.793-.027.945.1449.367.132.232.168.268.045.304-.078.421-.026.539.026.288.04.038.053.037-.016.0369-.084.1441-.093.4039-.139.054.029.083-.07.112-.17.206-.188.3-.2059.271-.107.243-.009.162-.05.082-.093.025-.082-.032-.071.014-.079.014-.039-.012-.0321-.029-.0669-.023-.3381-.047-.159-.066-.118-.084-.076.01-.079.146-.098-.011.091.038.0281.068-.042.156-.204.018-.077.106-.079.079-.123-.087-.018-.207.0369-.047-.0369.107-.164-.02-.093-.034-.039-.068-.016-.233.144-.072.013-.01-.076-.12-.169.322-.3,1.138-.837.116-.127.043-.114-.031-.1-.032-.025.017-.025,1.097-1.082.623-.501.514-.28.392-.133.265.019.15-.019h.128l.653-.001,1.168-.002,1.168-.001,1.168-.0021,1.167-.002,1.168-.002,1.168-.002,1.167-.002.277-.764.257-.357.353.118.1879-.01.2091-.184.169-.112.111.017.095.168.079.112.093-.033.079-.159-.003-.221.108-.154.129-.023.119.005.06-.075-.007-.107-.042-.174.015-.209.297-.371.364-.251.127-.1261.037-.255.209-.265.104-.153.025-.133-.054-.164.005-.313.072-.374.086-.408.192-.368.315-.402.082-.53.085-.56.382-.547.433-.623.247-.355.444-.647.316-.462.159-.212.166-.252.271.076.27.075-.04.366.044.266.128.153.185.104.14.035.165-.002.45-.207.528-.134.291-.125.053-.117.132-.041.211.035.39.293.455.442.359.349.011.604.007.638.007.67.005.477.009.654.007.518.009.675.005.36.049.104-.03.141-.013.071.003.057.02.071-.003.099-.046.089-.023.104-.006.169.049.104.082.061h.069l.089.061.115.108.175.094.181.033.125-.023.151.061.053.15-.03.141-.085.066-.092.051-.017.108.046.112.066.098.072.172-.03.15-.066.126-.029.13.056.112.148.149.092.144.145.079.069-.056.056-.075.059-.056.102.033.1189.042.129.05-.0159.121.079.203.061.39-.094.177.02.234.26.068.063.072.012.086-.573.599-.485-.083-.263.159-.275.0459-.121.267-.151.057-.207-.0159-.179-.0751-.136.037-.191.481-.156-.042-.062.173-.082.076-.12.064-.104-.213-.066-.203-.098-.044-.13-.052-.133.002-.089.029-.111.131-.16.113-.121-.094-.095-.151-.081.243-.118.256.02.298-.051.177-.112-.0469-.111-.155-.312-.124-.249.0109.051-.1659.235-.238-.073-.046-.115.033-.05-.033.083-.217.008-.2391-.105.083-.132.2521-.32.201.015.336-.301.686-.014.2919-.193.232-.25.2-.333-.056-.254.173-.129.199-.112.03-.058-.253-.042-.078-.094.374-.095.023-.036-.265-.045-.175-.13.151-.086.4-.09-.034-.029-.148-.065-.0451-.022.17.032.239-.047.127-.09-.068-.09-.115-.149.087-.137.035v-.117l.026-.144-.272.079-.327.265-.254.366.088.061.099.116-.441.563-.452.506-.341.823-.137.096-.118.15-.125.495-.144.439.081.196.053.201.128.198.109.018.118-.036.086.008.056.084-.024.101-.136.025-.254.176-.223.068-.1109.212-.167.245-.325.382.139.118.501.132.224.136.338.71-.077.071-.031.13.301.182.096.508.247.173.368.106.451-.153.375-.211-.013-.173-.236-.404-.057-.189-.175-.123-.066.104-.113-.135-.013-.076.105-.037.123.015.143.071.368.4411.102.5759.022.365-.042.125-.107-.026-.204.025-.969.189-.215.166-.493.18-.031-.09.036-.186-.031-.382-.097-.018-.767.623-.296.039-.249.182-.056-.101-.044-.466.156-.392-.083.006-.26.235-.111-.145-.056-.159-.08-.09-.087-.034.075.347-.177.26-.048.671-.222.278-.6919.179-.451-.038-.404.056-.537.128-.297-.076-.304.135-1.032.037-.218-.072-.278.255-.445.151-1.125.571-.248.208-.302.323-.203.174-.167.057-.103.145-.112.094.108-.322.117-.272.098-.529-.029-.428-.121-.176-.125-.118.146.423.024.518-.051.303-.276.5831-.117.135-.137.12-.104.051-.096.0929-.111.147-.105.292.064.266.538.097.145-.082.073.19.042.264-.041.286-.09.29-.068.36-.058.547-.087.491-.012-.149.055-.598-.0881.063-.061.138-.164.77-.226.409-.208.283-.215-.047.048.225-.059.117-.05.244-.1279.161-.12-.015-.172.111-.068.085-.005.163-.116.143-.417.742-.362.218-.086-.032.095-.35.065-.354-.22-.154-.21-.082-.241.011-.267-.276-.343-.2-.479-.544.014-.151-.012-.254.146-.401.139-.281.193-.146.56-.148.14-.223.083-.188-.277.323-.415.11-.224.121-.179.184-.106.231-.24.278.017.186.04.132-.019.276.152.268.3.439.0581.68.229.454.352.528.27.15.0141.196-.125.324-.1651.1481.214-.03.106.074.104.27-.008.2749-.035.154-.065.062.002-.1579-.046-.055-.0759.068-.0491.078-.021.307-.052.153-.1839.045-.1871.402-.173.228-.681,1.536.026.256-.125.082-.1879.067-.1911.153-.127.168-.118.452-.226.508-.141-.211-.036-.181.063-.474.244-.777.269-.484.205-.23.168-.47-.213-.07-.325.008.061-.217.095-.191-.169-.1911-.1-.0239-.1029-.078.121-.159.0589-.168-.036-.205.051-.155-.084.023-.136.164-.084.065-.051-.145-.059.033-.038.1-.087.054-.183-.136-.267-.155-.148-.268-.085-.208.086-.376.185-.067.24.061h.314l-.045-.083-.112.014-.331-.306-.107-.185-.183-.051-.083.178-.093.047.114-.389.15-.016.221-.108-.064-.226-.14-.099-.252.124.003-.159.047-.203h.19l.167.066.142-.329.006-.147-.235.214-.053-.461.231-.445.221-.195.276.006.28-.031-.176-.082-.181-.044.136-.177.116-.0321.114-.1539-.273.023.032-.292-.133.06-.159.027-.062.124.012.206-.046.135-.124.108-.209.084-.02-.146-.069-.066-.026.313-.055.106-.153-.293-.046.059.006.083-.039.144-.131.075.008.184-.051.101-.419-.16-.01.054.237.345.173.118.021.188-.149.156-.205-.134-.035.01.112.23.07.201-.072.168.011.208-.016.188-.044.164.1.753.12.205.118.195.063.183-.125.026-.2-.15-.176-.115-.209-.367-.034-.147-.051-.116.024.266.075.297.654.664.121.254.092.2-.023.19-.171-.135-.147-.172-.391-.195-.493-.123-.278-.454.001.189-.062.161-.17-.196-.107-.167-.036-.183-.212.012-.222.16-.215-.038-.0249-.311.058-.165.241-.39.228-.2.1-.258-.034-.4-.042.4071-.13.2009-.205.154-.269.274-.065.253-.084.473.113.16.116.042.342-.107.177.048.394.568.734.224.268.14.218.296.328.17.255.247.007.161-.088.19-.035.257-.108.162-.259.019-.157-.042-.843-.905-.101-.083-.313-.475-.367-.255-.1141.005.522.471.2131.329.375.46.268.195.197.304.1839.142.5011.202-.1741.146.2781.124.04.227-.025.259-.386-.103-.013.191.035.112-.17.093-.237-.126-.615-.69.005.092.05.107.357.444.319.266.27.12.208.223.074.134.049.204-.154.138-.176.077-.171-.138-.126-.146-.268-.247-.081-.277-.204.014-.852-.351-.685-.041.067.071.086.047.545.086.215.162.448.144.263.039.106.44.363.303.047.224.248.025.436-.219.281.077.406.063.093.177.069.336.144.378.372,1.486.559,1.209.069.208-.13-.183-.415-.8-.229-.58-.235-1.026-.068-.23-.081-.092-.053.075-.023.131.039.101-.093.338.04.155.15.16.164.399.131.537-.177-.218-.188-.115-.293-.088-.261-.155.0191.222-.025.24-.201-.073-.137-.08.122.255-.263-.076-.176.016-.114.227-.153.137-.2261.044-.336-.207-.108-.252-.045-.281-.018.332.06.345-.021.262.323.048.302-.042.408.011.266-.049.16-.083.384.072.027.316-.044.314-.022.333.106-.002.125-.107.063-.599.351-.222.118.016.112.192.038.195.04.268-.082.408-.539.476-.386.439-.198.089-.284-.051-.323-.11-.159-.022-.12.037-.073-.136-.0469-.247-.125-.082-.0951.009-.0639.262-.301.075-.409-.109-.429-.22.184.236,1.063.441.12.083.112.12-.1481.189-.117.213-.017.167-.0409.105-.4241.283-.229-.05-.587-.511.268.442.214.187.432.1.809-.165.266.18-.218.319-.216.223-.284.025-.25.061-.074.153-.178.01-.279.009-.431.014-.237-.036-.331.313-.125.043-.174-.059-.073-.252-.078-.124-.002.471.031.127.063.095-.387.255-.371.318-.133.086-.151.159-.309.459-.076.334-.112.372-.014-.167.019-.282-.076-.323-.049.592-.12.274-1.102-.019-.482.149-.74.501-.221.22-.612.847-.156.541-.125-.227.031-.17.002-.14-.153.285.146.436-.131.166-.404.31-.221.05-.248.0881-.078.305-.337.281-.196.124-.36-.0751.111.27-.132.205-.228.157-.283.102-.162-.013-.138.054-.109.13-.265.122-.275-.068-.312-.041-.174.073.292.121.157.1741-.032.2349-.078.09-.185.123-.081-.018-.049-.11-.06-.23-.086.049-.015.107-.074.039-.262-.367.013.28.091.215.088.109.089.064.022.1-.179.243-.092.054-.164.039-.092.149.027.129-.144.279-.343.174-.104-.007-.085.051.05.124.085.09-.003.084-.09.114-.179.032-.1.129.032.123.059.068-.013.117-.203.118-.048.116.101.034.078-.034.057.025-.122.194-.109.118-.104.2121-.241.0589.009.069.136.061.114.163-.214.301-.134-.025-.082-.066-.052.237.02.126-.051.259-.082.31-.056.1271.012.237.035.229.131.294.201,1.201.137.4159.246,1.12.407,1.082.574,1.303.942,1.572.113.223-.123.189-.037.196-.011.295.034.288.111.3511.214.536-.12-.106-.31-.77-.036-.452.0441-.643-.073.016-.0591.209-.033.245-.079.095-.1069-.375.0079-.169.114-.198-.033-.071-.185-.102-.039-.159.025-.158-.105-.084-.083.004.056.389.0871.238.108.571.175.345.102.289,1.19,3.07.282.389.104.279.108.583.024.747-.194,1.361-.044.925-.028-.028-.019-.098-.045-.013-.168.423-.229.381-.076.592-.11.296-.331.313-.205-.008-.502.235-.353-.061-.42.132-.276-.015-.16-.279.024-.125.063-.125.108-.029.371.293.07-.124-.112-.146-.215-.082-.158-.09-.319-.668-.331-.459-.056-.308-.571-.188-.413-.285-.27-.506-.155-.899-.182-.101-.077-.07.178-.335.188-.281-.148.07-.109.104-.139.248-.102.038-.093-.038-.107-.4761.031-.5849.15-.219-.231-.0061-.239.0831.035.195-.034.107-.174-.0281-.133-.0679-.179-.2041-.245-.388-.503-1.072-.098-.151-.167-.1589.079-.0491.143-.029.323-.484.253-.293.084-.203-.015-.087-.112-.126-.147.11-.063-.031-.166-.255-.158-.072-.11.055.116.208.104.078-.041.303-.042.098-.098.087-.153-.047-.077.075-.091-.079-.09-.133-.101-.219.267-1.236.247-.79.028-.904.019-.134-.021-.241-.331-.523-1.463-1.281-1.133-1.524-.982-.573-.745.126-.129.115-.055.15.046.171-.067.071-.2-.009-.269.04-.703.401-.248-.015-.225.104-.169.078-.44.042-.373.089-.161-.048-.105-.233v-.241l.085.185.132.145.061-.058.022-.128-.131-.251-.423-.322-.481-.471.147.016.037-.101-.149-.133.063-.153.105-.1611-.203.024-.183.113-.006.139-.036.111-.098-.016-.182-.1369-.896-.382-.784-.216.602-.097.326.075-.039-.116-.079-.074-.257-.093-.328.035-.207-.044-.211.093-.232.137-.207.07-.808.099-.655.107.105-.113.112-.073.387-.111.058-.23-.091-.222-.102.053-.107.173-.131-.125-.145.001-.04.275-.187.185-.084.186-.547.146-.07-.048.16-.177-.013-.098-.182.084-.306.334-1.077.109.059-.0759.228-.016.319-.1051-.065-.178-.123-.196-.114-.022-.075-.115.004-.362-.073-.212-.175-.218-.059.042-.129.374-.107.489-.053.158-.319.011-.283-.034-.96.059-.358-.166-.149-.032-.091.004-.417.152-.476.116-.112-.037-.16-.005-.345.395-.407.185-1.026-.333-.255-.267-.227-.057-.279-.033-.299.329-.228.443.359.243.308.116.508-.097.281-.215.229.007.11-.043.1-.112.196.088.007.089-.139.125-.176.105-.106.124.2.249.315.084.118-.036.073-.28.194-.181.263.039-.037.114.037.107.121.1831-.014.2619.023.063-.283.115-.211.039-.169.151.089.087-.172.077-.116-.031-.059.028-.018.093-.089.085.129.259.265.168.187.212.752.278.182-.008.179.28.145.0961.139.049-.016.1919-.248.141-.067.168-.062.094-.112-.119-.114-.087-.265.263-.128.056.063-.284-.1-.1109-.151-.2851-.221-.1759-.156-.059-.121-.111-.147-.045-.125.0119-.212-.065-.0141-.152-.059-.114-.166-.134-.791-.254-.005.105.055.079.114.0531.136.1019-.001.3031-.059.1279-.025.1821-.053.186-.097.146-.216.099-.095-.0831-.154-.3989-.218-.125-.346-.0151-.235.09-.256.387-.207.063-.707-.2-.806-.306.021-.102.127-.033.244.042-.013-.105-.249-.342-.045-.154.032-.188-.081.004-.149.158-.514-.134-.142-.161-.302-.452-.426-.015-.193-.274-.349.115-.176.127-.155.197.06.102.155.162-.07.079-.497.115-1.152-.129-.337-.121-.452-.256-.626-.2081-.302-.0339-.295.0409-.86.021-.199.055-.17.089-.11-.098-.051-.175.1-.028.111-.103.1-.204.012-.124-.07-.08-.133-.008-.294.531.168.297-.011.107-.587.061-1.333.597-.52.322.027-.108.628-.417-.222-.064-.357.104-.128-.04.151-.345-.049-.305-.254-.008-.162.243-.112-.01-.147-.104-.114.033.084.551.16.226.134.289-.365.355-.339.293-.037.283-.341.368-.32.2091-.753.49-.215.104-.34.227-.468.17-.45.27-.151.041.287-.229.34-.226-.292.031-.45-.104-.275-.006-.001.083-.209.117-.217-.171-.094-.115-.045-.1-.092-.024-.088.046.324.7.138.03.152.069-.19.163-.205.124-.322.082-.272-.255-.059.32-.035.319-.091.082-.146.117-.079-.088-.038-.124-.094.11-.137.083-.226.017-.169.044.004.132.039.133.3-.105-.109.341-.276.337-.225.079-.344-.049-.085.034-.076.07.401.525-.258.791-.165.287-.114.037-.126.0092-.444-.254-.242-.197.214.535.582.156.03.203-.003.172-.115.203-.107.269.079.187.092.463.079.212.086.6431.092.278.529,1.022.178.008.028.11-.017.212-.38.062-.16.094-.031.082-.023.044-.049-.004-.181-.059-.413-.29-.601-.18-.79-.07-.54-.145-.29-.221-.302-.132-.315-.041-.262-.12-.207-.199-.303-.127-.399-.056-.26-.149-.18-.366-.001-.005-.162-.612-.204-.384-.396-.476-.036-.063h0l-.003-.078.049-.277-.042-.2-.125-.163-.029-.172.068-.181.004-.218-.059-.255-.252-.276-.446-.296-.38-.434-.313-.571-.31-.396-.307-.221-.209-.27-.113-.319-.033-.185.046-.051-.188-.355-.423-.659-.243-.483-.063-.306-.269-.364-.476-.423-.258-.275-.063-.191h-.001l-.742-.558-.2161-.349-.168-.11-.1929.012-.099-.034-.005-.079-.0631-.004-.121.072-.395.014-.669-.042-.483-.095-.297-.147-.208.02-.12.1879-.254.1211-.389.0539-.334.348-.28.642-.123.412.034.184-.074.133-.182.083-.185.186-.188.289-.22.14-.251-.01-.464-.222-.676-.436-.53-.27-.384-.103-.339-.202-.294-.3009-.271-.201-.248-.101-.29-.3341-.332-.568-.166-.439V201.77l-.434-1.013-.23-.44-.171-.203-.334-.2421-.499-.282-.668-.564-.838-.849-.593-.512-.348-.174-.302-.307-.256-.44-.25-.281-.026-.013-.022-.006-.617-.004-.617-.004-.617-.004-.617-.003-.617-.004-.617-.003-.617-.004-.617-.004-.002.369-.01.372-.001.368-.002.368-.992.002-.992.002-.992.002-.992.0021-.992.002-.992.002-.992.002-.992.002-1.331-.484-1.331-.485-1.331-.486-1.331-.487-1.331-.487-1.331-.488-1.331-.489-1.331-.49.134-.187.178-.5-.321.036-.803.071-.803.071-.803.0711-.803.071-.803.071-.803.071-.8029.071-.803.071-.006-.021-.02-.363-.13-.128-.1671.079-.076-.4719.042-.223-.02-.218-.157-.537-.417-.652-.901-.813-.459-.272-.36-.344-.229-.096-.288-.026-.083.155-.326-.106.049-.385-.318-.536-.26-.06-.6549.036-.875-.295-.258-.176-.089-.315-.41-.274-.54-.269-.301.063-.393-.042-.5611-.194-.3269-.024-.637.057-.238-.041-.221-.245-.238-.123.05-.302-.03-.273.036-.213-.107-.467.083-.434-.0721-.157-.1349-.121-.422-.178-.077-.223.069-.31-.11-.205-.346-.191-.323-.434-.41-.238-.168-.399-.252-.247-.088-.219-.56-.783-.598-.613-.092-.354-.023-.485.234-.296.126-.2609-.013-.2391-.036-.176-.206-.306-.796-.182-.647-.759-.038-.582-.254-.596-.003-.389-.039-.421.193-.092.172.034-.017.167.058.301.203.226.193.099.176.219.132.066.136.016-.073-.141-.078-.09-.095-.292-.18-.373-.207-.206-.105-.376-.09-.087-.056-.14.2-.166.273-.118.366-.032,1.038.056.221-.097.1829.031.1341-.012-.282-.1-.1581.033-.1869-.021-.371.02-.15-.042-.165-.118-.108-.012-.343.206-.153-.025-.362-.225-.158-.032-.254.128-.031.551.0789.409-.1519.042-.177-.168-.271-.1-.224-.153-.316-.2851-.166-.104-.188.237-.007-.109.093-.276-.026-.463.283.37-.088-.26-.22-.287-.167-.1-.21-.514-.473-.309-.379-.5-.776-.831-.051-.732-.283-.929.119-.53-.016-.376-.139-.57-.145-.31-.629-.853-.605-.576-.091-.437-.042-.441.132-.393.115-.415.083-.11.033.046-.023.088.086.027.033-.183.051-.094-.09-.012.009-.058.054-.116.188-.546-.02-.69.201-.849-.01-.281-.128-.606-.128-.364-.228-.258.101-.378-.008-.361-.403-.5209-.154-.685-.029-.29.04-.768-.105-.329-.269-.543.115-.473.124-.289.303-1.263.073-.103.126.003.221-.215-.102-.05-.154.103.137-.502.154-.431.1-.155.051-1.412.088-1.0849.145-.3591-.051-.371.059-.503-.042-.51.311-2.469-.041-.3.095-.4031-.089-1.065.04-1.198-.079-.153-.04-.166.074-.025.144.175.668-.002.426-.162.155.053.18.22.227.0441.283-.0391-.086-.0549-.133-.0151-.298-.203-.169-.203-.521.014-.106-.13-.582.13-.18-.133-.317.086.078-.3779-.014-.478.017-.466.078.34.197.3609.095-.409.065-.5159-.192-.198-.32-.147-.115-.482.757-.412-.402-.087-.158-.185-.195-.023-.015.143-.063.187-.068-.249-.02-.293-.08-.501-.31-.809-.188-1.053-.236-.522-.452-.5-.118-.292-.108-.743.061-.564-.084-.398.217.023.571.313.711.245.215.178.345.132,1.912.2049.125-.02.247-.1271.105.016.281.291.141.035.183-.015.135-.055.231-.199.031.074-.004.185.082.263.169.34.064.211-.342.594-.065.013-.01-.201-.045-.04-.644,1.002-.226.473-.022.213.008.125.09.031.206-.049.305-.196.015-.043-.284.07-.136.006.019-.224.032-.106.186-.332.195-.199.277-.212.16-.175.11-.256.308-.306.057-.085-.013-.252.019-.048.149.034.062.434-.037.193-.266.235-.033.083.046.321-.041.031-.101-.038-.031.021.251.348.08.27.011.241-.068.461-.073.077-.125-.028-.166-.144-.037.0459-.132.358-.043-.031-.082-.4249-.045-.0321-.255.194-.103.186-.088.296-.112.139.318.03.287-.06.23.141.078.004.21-.138.064-.093.174-.4469.087-.08.129-.003.125-.067.186-.246.008-.098-.068-.551.02-.313-.035-.099-.083-.103.01-.1.065-.165.005-.149-.056-.133.025-.151.176-.326.033-.144.214-.325-.054-.131-.158-.16-.1-.141-.1-.22-.076-.074-.025.034.107.36-.023.024-.278-.194-.065-.123-.034-.167.024-.125.15-.124.179-.045-.015-.104-.224-.338-.149-.154-.115-.075-.155-.02-.069-.055-.018-.079.033-.104.083-.034.239.042.129-.074-.012-.1351-.039-.075.006-.484-.091-.394-.047-.067-.051-.007-.054.053-.15.0141-.093-.129-.103-.25-.186-.5961h76.875l.662.0061.011-.9031.008-.7139.606.087.181.13.058.062-.017.197.05.597.11.496.254.595.0011.001.0209.232.083.1449.153.1351.58.1629,1.007.1911.571.219.135.247.269.099.403-.048.282-.103Zm-82.523-.238.037.092-.113.09-.08.014-.128-.144-.056-.018.045.2219-.016.076-.261-.136-.048-.108.073-.114.165-.118.057-.014Zm-.648.727.074.139-.302-.089-.127-.08-.038-.078-.045-.255.021-.083.135-.029.252.316Zm.539.293-.044.042-.15-.055-.088-.094-.03-.117.056-.225.075-.058.047.013.02.198.133.209Zm.697,1.156.137.549.059-.229.382.396v.195l-.046.065-.08.023-.073-.057-.067-.137-.086-.072-.183-.046-.095-.156-.033-.106-.009-.308-.046-.096-.097-.021-.093-.073-.144-.216-.02-.058.068-.176.156-.295.113-.14.07.015.087.089.104.162-.02.114-.42.223-.014.052.204.063.075.056Zm94.347.965-.014.069.102.021-.019.035-.111.063-.314.128-.21.0409-.108-.0459-.011-.085.085-.125v-.062h-.087l.021-.05.129-.099,1.098-.631.469-.23.25-.073.04.0361-.271.238-.043.0969.01.065-.089.125-.803.442Zm-94.135,1.379-.015.08-.155-.095-.051-.088.006-.197.039-.128.029-.026.091.056.026.033Zm.289.826-.013.094-.107.073-.056-.0191-.004-.1109-.029-.017-.116.133.009-.263.057-.2771.05-.005.074.182Zm95.904.762-.052.133.01.08-.341.352-.124.222-.103.035-.083-.151v-.122l.084-.092.083-.131.01-.181-.032-.066-.104.163.058.035.017.028-.02.059-.392-.087-.117-.1269.02-.177.131-.227.471-.481.208-.134.59-.212.325-.049h.327l.237.07.147.139-.139.092-.646.079-.018.025.124.076.023.054-.114.141Zm-97.192.024-.027.081-.04-.004-.088-.165-.011-.116.075-.084.101.241Zm91.004.735-.092.064-.035-.03.022-.126.046-.073.071-.021.035.031-.001.082Zm-.789.404-.042.029-.107-.069-.015-.057.029-.057.05.013.07.083Zm.453.033-.094.023-.201-.036.003-.06.209-.083.093-.023.022.035Zm-.46.556-.161.056-.067-.01.027-.077.083-.092.374-.23.065.004.02.055-.181.113-.068.06-.008.063Zm18.46,1.714v.087l-.086-.02-.072-.059-.058-.098-.072-.245-.11-.174.165-.197.099-.023.106.044.015.115-.078.186.004.19Zm.034.471-.04.022-.141-.158-.03-.097.021-.081.054-.004.088.074.05.086.011.098Zm1.732.94.027.09-.068.132-.197.0669-.4-.0069-.259-.051-.119-.094-.026-.049.011-.1051.058-.0069.085.057.127-.024.169-.106.089-.08.008-.053-.054-.102.043-.043.212.04.079.066.143.228Zm-2.957.774.359.056.035-.031.102.1059.016.09-.043.0751-.063.0419-.081.007-.13-.076-.212-.202Zm-2.791.874-.096.02-.073-.047.012-.188.098-.328.096-.15.13.061-.026.04.026.35-.047.153Zm-3.677.998-.084.04-.154-.014-.056-.09.081-.229.033.042.134.003.046.022.015.057Zm-.365.442-.052.051-.087-.034-.034.075.02.183-.029.084-.077-.014-.004.034.068.081.007.089-.053.097-.052.045-.049-.007-.077.11-.104.227-.036.131.033.036-.024.076-.259.344-.1.033-.109-.048-.077-.1-.045-.153-.013-.1181.018-.084.228-.305.101-.199.058-.224.105-.143.154-.062.125-.139.095-.217.11-.094.124.028.054.082Zm2.85.551-.033.056-.078-.005-.062-.054-.061-.175.02-.038.151.025.053.074Zm49.925,3.03-.164.076-.179-.033.004.206-.02.074-.198-.106-.073-.068.006-.273.175-.259.134-.103.172.071.132.29Zm-22.239.215-.088.032-.021-.046.014-.043.073-.054h.123l-.014.043Zm21.015.318-.106.077-.114-.025-.004-.192.035-.065.039-.029.059.054Zm-21.438.801-.042.012.004-.083.043-.054.082-.024-.002.042Zm-7.487,3.732-.086.131-.083-.013-.061-.042-.021-.083.015-.104.074-.046.201.04.007.042Zm21.578,5.782-.139.102-.155-.018.079-.138.03-.203.077-.223.044-.068.091-.06Zm-.348.025-.078.069-.029-.18.055-.208.055-.004.028.11Zm2.4.406-.773.182-.123-.117.193-.055.243-.279.162-.032.254.158Zm1.493.413-.216.06-.5-.137.411-.116.067-.041.054-.171.007-.086.156.368Zm-7.105,1.038-.199.239.18.024.155-.07.146-.142.341-.192.291-.084.091-.018.139.135.275-.108.283-.061-1.223.617-.25.069-.358.1839-.338.13-.2431.047-1.211.4559-.096.01-.104-.0441-.998.2341-.4089.026-.373.082.276-.189.006-.0711-.066-.0549-.147.0159-.151.194-.241.0651-.048-.211.081-.164.109-.1561.239-.245.343-.1549.174-.1341.121.1181.026-.16.093-.0921.101-.05.242-.001.131-.025.094-.0531.097-.01.266.073.259-.021.209-.1.218-.034.575-.022.571-.073.229-.13.48-.366.276-.102-.43.425Zm-4.71,1.709-.134.015.134-.353.246-.162.089.034.003.125-.034.106-.165.165Zm.154,3.078-.329.549-.007-.105.411-.682Zm-3.368,6.427-.128.058.428-.71.249-.597.111-.207-.108.418-.188.384Zm-.849,7.1-.042.07-.187-.381.192.123.034.103Zm.257,2.115-.376.093-.033-.03.431-.195.136-.688.019-.318-.064-.562.002-.116.07.181.062.524-.023.396-.125.5769Zm-.667.171-.51.244-.058-.0151.335-.174Zm-2.026,1.864-.07.039.257-.424.507-.539.137-.083-.422.46Zm-.119-.04-.063.008-.11-.037-.152-.072-.034-.053.145.019Zm-121.623,1.947.571.173.308-.083.056.083-.036.073-.694.13-.213-.091-.019-.125-.072-.12Zm-1.19.184-.149.009-.23-.036.081-.079.127-.057.041.043Zm.738.358-.197.047-.149-.044-.238-.322.505-.043.218.14.029.039Zm4.759,1.789.142.246-.204-.03-.213.014-.065-.134-.063-.187-.043-.047-.146-.017-.011-.017-.017-.091.041-.043.458.208Zm-3.06.563-.125.006-.172-.031-.088-.18.141-.012.13.025.103.141Zm3.053,1.298-.164.03-.181-.068-.156-.321-.172-.251.093-.072.139.242.349.368Zm103.647,6.106-.125.793-.054-.281-.005-.272.094-.162Zm-18.67,2.334-.247.069-.366-.007-.074-.024.146-.046.434-.062Zm-1.365.118-.036.036-.249-.067-.151-.063-.027-.063.417.113Zm-1.87.425.01.15-.138-.075-.204-.007.09-.051.063-.05.032-.054.257-.187-.073.137Zm1.113.891-.079.103.078-.491-.109-.414.115.182.038.216Zm-.173.306-.152.168.007-.064.112-.168.08-.066Zm11.174.225-.282.116-.305-.084.189-.016.137.034.347-.166.182-.125.21-.047Zm-19.325.455-.104.046-.464-.2781-.029-.1189.229-.108.14.01.221.142.081.039.038.057-.021.089Zm-9.11,1.137-.14.031.612-.492.128-.164.164.0069-.273.275Zm-4.841,3.16-.103.013.128-.171.208-.086.456-.329.186-.023.097-.1131.042-.0169-.027.139-.366.198Zm-.701.794-.061.008.136-.259.025-.104.223-.328.118-.0491.049.14-.229.23Zm47.226,1.963.046.231-.258-.537-.319-.843-.17-.653.115.177.113.365Zm-48.178-.068-.088.181.024-.2691.228-.613.463-.807.195-.135-.534.885Zm.513,3.565-.039.145-.232-.675-.378-1.5321-.014-.876.06-.302.097,1.238.418,1.565Zm42.342-1.224-.004.183-.142-.307-.094-.34.135.11Zm.13.308-.1.082-.203-.06-.11-.107-.048-.209.176.222.063.05Zm4.646,4.066-.558.579.062-.145.218-.31.07-.146.147-.092.137-.167.01-.196.199-.137.065-.02Zm-.72.736-.075.015.111-.131.031.01Zm-.536.306h-.053l.026-.044.111-.087.04.034-.004.044Zm-.603.267-.128.073-.133-.054.146-.073.435-.078-.164.097Zm-.815.204-.084.063-.04-.02v-.092l-.12-.204.004-.053.274.199.007.0539Zm-.651.155-.182.03.147-.121.047-.184.086.143-.001.087Zm-.61.17-.071.007-.006-.047.123-.0581.082.004-.003.064Zm-217.752,7.934-.247.169-.144-.073-.272-.027-.105-.127-.285-.115-.115-.156.175-.296.414-.25.638.011.133.197.012.147-.083.165-.038.232Zm-2.266.274-.057.133-.097-.021-.024-.118.063-.163.16-.141.178-.214.146.032-.079.141-.009.152-.206.086Zm6.682,1.155.096.017.124-.021.043.239.144.132.053.079-.156.083-.303.033-.142-.066-.147-.149-.159.041-.028-.12-.028-.035-.109.032.102.155-.276.012-.087-.019-.077-.175-.284-.336.001-.131-.097-.156.421-.045.288-.275.163-.029.312.444-.008.124.069.122Zm1.643.722.593.082.14-.035.099.0669.491.042.084.025-.1.154-.314.141-.452-.124-.756-.044.031-.119.072-.084.011-.147Zm2.04.846.073.053.299-.08.216-.029.362.197.126.135.238.144.081.104-.066.126-.263.208-.358.048-.211.089-.277-.019-.083-.038-.03-.264-.088-.283-.179.033-.201-.095-.208-.238-.023-.142.115-.226.201-.029.149.125Zm-1.018.478-.166.084-.181-.039-.042-.204-.174-.259.306-.053.172.075.09.081.109.139Zm3.56,5.223-.124.142-.155-.011-.563-.304-.068-.163.042-.759-.211-.616-.232-.472.169-.242.223-.188.249-.354-.204-.4549.052-.275.12-.047.588.334,1.188.502.316.353.056.378.216.048.103.259.312.227.104.129-.129.208-.57.399-.719.174-.633.446Z" fill="url(#radial-gradient)"/></g></g></svg>