<svg xmlns="http://www.w3.org/2000/svg" xmlns:xlink="http://www.w3.org/1999/xlink" width="14.91" height="16.013" viewBox="0 0 14.91 16.013"><defs><radialGradient id="radial-gradient" cx="7.455" cy="8.0065" r="7.7357" gradientUnits="userSpaceOnUse"><stop offset="0" stop-color="#ffd496"/><stop offset="1" stop-color="#f29d25"/></radialGradient></defs><title>UY</title><g id="Layer_2" data-name="Layer 2"><g id="Layer_1-2" data-name="Layer 1"><path id="UY" d="M14.222,11.985l-.138.125-.148.235-.174.567-.585.782-.119.443-.631.463-.445.522-.29-.013-.262.224-1.507.68-.541-.128-.401.002-.372-.3-.849-.108-.533.12-.715.33-.216-.005-.155-.018-.387-.137-.211-.291-1.101-.336-.885-.761-1.046-.015-.802.1-.124-.101-.081-.194-.166-.282-.69-.669-.542-.662L0,11.908l.075-.705.163-.833-.029-.26L.41,9.963l.197-.03.191-.215.171-.324.029-.245L.866,8.695.774,8.063.665,7.748l.219-.495.009-.241L.767,6.8.733,6.583.79,6.36.779,6.147l-.08-.205.06-.17L.96,5.637l.151-.205.099-.277.051-.211.002-.146-.061-.137-.124-.129.058-.256.238-.384.155-.34.069-.296-.004-.24-.079-.181.033-.123.147-.065.066-.192-.022-.477-.152-.392.116-.311L2.035.916,2.209.627l.014-.22L2.327.28l.159.238.472.063.476.008.077-.06L3.698.14,3.944.029,4.212,0l.293.02.312.257L5.7,1.12l.648.587.197.277.172.208.128.193-.055.504.009.221.03.063.148.006.22-.037.185-.107.144-.162.141-.132.115-.07.041-.107.066-.111.067-.024.128.082.303.288.234.267.058.152.09.159.097.139.068.136.227.176.232.112.155-.115.393.368.865.307.159.186.15.265.302.401.419.362.337.153.324.087.181.08.124.139.197.149.125.056.042.134.128.293.134.371.145.345.315.332.356.258.369.146.207.182.09.188-.249.28-.27.353-.238.277-.246.194-.082.134-.055.207.003,1.102-.02.411.017.109.036.073.155.11.185.092Z" fill="url(#radial-gradient)"/></g></g></svg>