<svg xmlns="http://www.w3.org/2000/svg" xmlns:xlink="http://www.w3.org/1999/xlink" width="48.1743" height="31.3059" viewBox="0 0 48.1743 31.3059"><defs><radialGradient id="radial-gradient" cx="24.0872" cy="15.653" r="20.3126" gradientUnits="userSpaceOnUse"><stop offset="0" stop-color="#ffd496"/><stop offset="1" stop-color="#f29d25"/></radialGradient></defs><title>UZ</title><g id="Layer_2" data-name="Layer 2"><g id="Layer_1-2" data-name="Layer 1"><path id="UZ" d="M42.0253,12.8459l.091-.0669.16-.068.264.131.231.165.0561.076-.011.088-.551.321-.342.15-.151.027-.041.042-.108.365-.212.065-.272.111-.19.168-.3029.396-.77.575-.0109.117.067.095.25.066.33.176.179.138.489-.178.121.039.128.184.135.514.219.14.287.107.178.035.237.126.3159.047.212-.046.265.108.0431-.047.0349-.766.222.128.128-.002.112-.094.058-.127.038-.253-.049-.253.099-.116.077-.026.057.031.034.065.01.229.16.097.098.056.093.194.0911.185.0579.433.225.03.264.083.177-.081.137.048.047.205-.001.191.02.1521.0709.043.23-.0951.193-.013.178.0911.221.138.321.362.106.052.484.028.101.074h.166l.18-.065.399.117.013.066-.067.091-.951.5-.07.154-.194.195-.2119.111-.1031.004-.465-.198-.054.048-.038.08.002.087.102.208-.047.131-.089.095-.291-.083-.0541-.053-.0059-.058h-.112l-.173.058-.333.359-.116.188-.0431.113-.148.064-.161.024-.2079.1689-.226.131-.072-.096-.044-.107-.06-.034-.139.025-.168.004-.177-.121-.229-.1221-.2-.043-.59.0571-.292.06-.0919.059-.164.016-.691.123-.141-.048-.104-.194-.091-.21-.179-.076-.201-.059-.075-.084-.005-.102.021-.1.0159-.052.466-.402.42-.362.039-.029.0381-.069.0709-.125v-.065l-.314-.144-.012-.066.063-.068v-.091l-.222-.266-.384-.415-.111-.043-.082.027-.15.401-.075.102-.438.263-.366.181-.652.321-.17.101-.118-.018-.1179-.063-.3661-.325-.236-.111-.159.11-.134.16.013.329-.151.173-.151.078.2751.879-.027.113-.21.0311.154.33-.13.038-.3309-.077-.4451-.051-.84.146-.062.057-.023.073.049.0661.407.0069.398-.0329.11.061.017.108-.046.068-.133.0119-.291.065-.033.069-.01.0661.099.191.11.122.014.072-.046.061-.056.024-.0981-.09-.056.018-.027.082-.0269.096-.0641.07-.136-.037-.135.027-.08.348-.068.394-.222.262-.1229.095-.1811.028-.269-.032-.163-.039-.472-.058-.473-.107-.532-.1-.495.231-.143.141-.091.132-.093.061-.215.808.022.092.119.072.607.167.089.069.0529.079.026.362.05.05.208.045.3011-.003.236-.036.237.033.166.078.081.123.045.133-.282.793.023.2879.087.412.16.323.3011.315.229.202.0479.095.0121.147-.037.188-.132.298-.162.26-.175.11-.243.33-.215.405-.413.53-.139.295-.046.851-.109.255-.0171-.0969-.149-.097-.26.017-.171-.046-.082-.109-.2119.031-.342.169-.349-.09-.355-.35-.677-.128-.857.08-.032-.388.002-.495.039-.659.292-.518-.0089-.099-.057-.095-.089-.085-.519-.143-.152-.075-.201-.164-.254-.172-.221-.119-.347-.157-.32-.087-.188.066-.173.084-.162.002-.162-.046-.6-.393-.906-.68-.7181-.476-.4509-.228-.107-.073-.253-.214-.622-.578-.4131.085-.59-.376-.53-.368-.12-.1-.603-.682-.602-.443-.656-.484-.424-.304-.719-.516-.352-.312-.119-.115-.1161-.221-.188-1.083-.216-.498-.308-.271-.262-.523-.218-.777-.18-.506-.143-.234-.288-.259-.437-.284-.414-.1351-.149.0051-.074.035-.084.048-.164.212-.242.022-.178-.005-.166-.076-.524-.067-.1859-.074-.315.011-.677.11-.165-.02-.715-.474-.311-.188-.062-.104.003-.182.1049-.258.09-.183-.04-.19-.136-.2081V14.68l.093-.124.19.039.068-.078-.024-.118-.103-.0841-.137-.189L11.188,13.95l-.0579-.072.021-.082.07-.0881.0139-.186.0071-.24.054-.125.015-.098-.059-.0791-.137-.092-.219-.223-.269-.0239-.875.008-.271-.09-.218-.125-.2181-.4761-.11-.113-.1031-.047-.245-.0159-.2949-.046-.151-.081-.412-.436-.396-.39-.159.3681-.154.073-.349-.034-.262-.062-.149.083-.154.1449.029.0961.118.101.237.187.3629.457.165.252.024.088-.031.066-.049.028-.072-.001-.097-.001L6.7369,12.6l-.0189-.13-.121-.197-.125-.114-.137-.071-.1921-.053L5.89,11.941l-.131-.004-.127.109-.1061.147-.0629.321-.1891.394-.116.155-.36.094-.854.032-.255.123-.174.148-.323.479-.225.159-.195.219.059.702.094.817.164.226.104.068.014.08-.067.071-.086.089-.13.163-.146-.006-.294-.041-.245-.044-.824-.047-.668-.038-.742-.042-.001-.856V13.738l-.001-.865V11.132L.002,10.257V7.613L.001,6.725V4.937L0,4.038V2.23l.35-.112.442-.143.424-.136.505-.163.569-.184.486-.157.58-.187.442-.143L4.213.871l.531-.16L5.57.463,6.031.324l.466-.14L6.941.05,7.238,0l.3189.191.388.262.388.262.388.262.388.262.388.261.388.261.388.2609.388.26.3881.26.388.26.388.259.388.259.388.259.388.258.388.258.388.258.36.24.162.178.089.392.179.311.311.336.318.344.396.453.274.314.279.32.4619.527.2881.328.229.011.465-.078.622-.104.491-.0831.594-.1.566-.095.446-.0759.668.057.659.057.473.041.4631.04.549.047.307.026.352.03.148-.0791.303-.1619.286-.152.297-.159.263-.08.274.253.229.292.241.307.279.295.271.175.3629.237.209.404.279.539.184.354.1891.363.275-.143.293-.1531.266-.139-.032.449-.028.4071-.045.6149-.036.5021-.096.5979-.007.455-.006.399-.004.316.515.014.381.01.477.0131.046.3959.064.556.097.5021.082.421.122.5429.066.29.114.341.113.082.181.0539.63-.0409.522-.034.4119-.026.438-.0281.581-.0379.1971.087.17-.061.196-.061.156.247.079.125.111.13.15.121-.063.253-.0931.3689-.026.189.1811.2041.135.1189.369.242.347.1351.226.04.216-.052.079-.137-.02-.189-.104-.199.008-.237.0689-.173.221-.315.209-.298.32-.304.381-.301.158-.22.061-.383.249-.217.269-.13.334-.113.092-.192.461-.326.276-.161.349-.094.482-.212.3809-.25.365-.471.29-.309.244-.19.205-.007.144.154.1241.013.0809-.07.138-.198.1481-.231.1389-.096.269-.049Zm-.826,4.9061-.01-.09-.087-.151-.13-.085-.062.037.053.1229.151.175Zm1.554,3.833-.141.033-.258-.0051-.147-.0379.09-.296.003-.059-.011-.008-.074-.04-.112-.121-.039-.179.044-.166.082-.069.052.012.158.253.141.074.275.042-.139.25.1031.267Zm1.609-.21-.075.1571-.132-.038-.104-.104.034-.082.155-.0451.081-.045.068-.008Z" fill="url(#radial-gradient)"/></g></g></svg>