<svg xmlns="http://www.w3.org/2000/svg" xmlns:xlink="http://www.w3.org/1999/xlink" width="0.644" height="1.9" viewBox="0 0 0.644 1.9"><defs><radialGradient id="radial-gradient" cx="34.0499" cy="-2.422" r="0.7093" gradientUnits="userSpaceOnUse"><stop offset="0" stop-color="#ffd496"/><stop offset="1" stop-color="#f29d25"/></radialGradient></defs><title>VC</title><g id="Layer_2" data-name="Layer 2"><g id="Layer_1-2" data-name="Layer 1"><path id="VC" d="M34.23-2.798l-.083.045-.206-.192.025-.224.125-.123.118-.072.121-.008.042.185-.029.261Zm-.1451.468-.045.031h.021l-.021.021-.014-.021-.022-.013-.028-.006-.033.001v-.021l.042.013.063-.013v-.023l-.019-.021-.008-.015.023-.022.078-.05.033-.026.004.011.001.01.004.01.012.01-.04.039Zm-.3039.857-.0281.001-.025-.01.007-.009.032-.007.0151-.019-.005-.025.001-.028.025-.017.02-.001.009.0109.0051.026-.0151.02-.017.016-.008.025Z" transform="translate(-33.7278 3.372)" fill="url(#radial-gradient)"/></g></g></svg>