<svg xmlns="http://www.w3.org/2000/svg" xmlns:xlink="http://www.w3.org/1999/xlink" width="38.0058" height="32.2909" viewBox="0 0 38.0058 32.2909"><defs><radialGradient id="radial-gradient" cx="19.0029" cy="16.1454" r="17.6322" gradientUnits="userSpaceOnUse"><stop offset="0" stop-color="#ffd496"/><stop offset="1" stop-color="#f29d25"/></radialGradient></defs><title>VE</title><g id="Layer_2" data-name="Layer 2"><g id="Layer_1-2" data-name="Layer 1"><path id="VE" d="M37.4768,10.292l.521.686.008.076-.057.086-.325.161-.073.083-.117.305-.409.167-.283.21-.19.184-.095.074-.374.041-.12.116-.151.348-.11.146-.194.171-.001.104.268.38.048.12-.083.181.008.128.141.154.168.035.164-.064.204.006.133.041.055.045.009.118-.084.25-.121.162-.536.248-.238.144-.132.106-.289-.057-.147.004-.113.082-.069.07-.194.018-.274.042-.115.047-.089.123-.074.175.062.21.086.1879-.004.172.066.479-.086.112-.1839.126-.219.224-.246.3111.039.0889.588.652.598.663.595.659.084.029.112.076.104.23.085.245.002.126-.067.159-.145.183-.176.1481-.257.126-.205.119-.169.3129-.103.11-.094.044-.186.041-.3-.01-.198-.024-.246.234-.313.086-.21.32-.748.254-.732.197-.201.078-.723-.163-.174.051-.2.152-.185.117-.156.007-.131.061-.078.217-.069.7471-.26.2219-.313-.001-.215-.259-.255-.195-.445-.463-.124-.061-.115.003-.413.138-.196-.06-.158-.072-.264.023-.47.005-.3.004-.146-.126-.136-.259-.091-.093-.107-.075-.177-.038-.757.001h-.143l-.104-.05-.146-.222-.159-.104-.187-.004-.082.123.324.399.094.217.284.313.821.663.152.21-.017.269-.005.411.028.389.211.558.296.567.081.362-.055.267-.057.143.006.063.061.057.283.082.594.051h.359l.548.062.041.199-.054.3291-.108.187-.088.054-.298.043-.314.2019-.456.1991-.26.027-.108.039-.092.06-.076.0759-.088.374-.134.422-.253.25-.278.207-.283.023-.227-.0169-.113.061-.163.17-.233.212-.18.113-.242-.011-.259.104-.327.171-.217.14-.185.24-.265.251-.272.177-.13.218-.186.276-.232.009-.019-.166.111-.267-.121-.23-.2211-.124-.104-.037-.103.015-.2619.114-.3211.207-.198.149-.1789.068-.3681.062-.31.0321-.1279-.042-.23-.152-.5329-.4761-.7211-.644-.0549-.187.031-.19-.1311-.278-.0769-.296-.065-.102-.0191-.222-.156-.399-.128-.3269-.118-.166.05-.142-.05-.141-.095-.115-.14-.371.049-.16-.037-.16-.118-.11-.167-.118-.223-.246-.2659-.234-.136-.092-.093-.037-.081-.222-.062-.068-.136-.018-.279-.093-.26.111-.006-.172.074-.104.898-.822.452-.378.049-.056.04-.087.031-.117-.103-.134-.424-.635-.147-.12-.145-.098-.166-.267-.199-.621-.143-.312-.043-.24.009-.271-.053-.208-.115-.145v-.443l.115-.742.028-.564-.058-.386.103-.294.263-.202.147-.312.031-.422.158-.347.284-.271.097-.268-.09-.265-.029-.169-.241-.172-.447-.121-.37-.014-.224.135-.573.125-.922.115h-.743l-.563-.116-.428.039-.294.194-.207.044-.12-.106-.13-.029-.197.067-.034-.031-.437-.523-.404-.485-.464-.578-.535-.667-.096-.044-.166.004-.219.012-.34-.069-.233-.097-.182-.094-.336-.119-.23-.021-.207.035-.569.233-.323.0221-.25.0039-.672-.1149-.459-.0191-.534.076-.229.043-.32-.119-.218-.181-.203-.43-.143-.3381-.249-.068-.276-.058-.136-.112-.082-.195-.02-.25.0281-.407.026-.146.0379-.439.1521-.23.096-.111-.0191-.185L2.74,11.026l-.0741-.268-.306-.303-.392-.389-.169-.623L1.6,8.707l-.156-.074-.147.037-.156-.037-.138-.296L.865,8.281l-.22.104-.159.081L.083,8.54,0,8.466l.028-.092.17-.269.2-.344.233-.313.216-.321.162-.342.11-.681.076-.47.2-.838.365-.669.138-.308.331-.401L2.381,3.2l.202-.172.555-.233.663-1.153.152-.184.67-.172.515-.134.381-.141L5.644.936,5.7451.901l-.0831.134-.183.17-.207.104L4.205,1.57l-.109.055-.139.108-.001.248.029.194.314.638.123.157.42.345-.096.048-.155.006.113.452.258.31.012.195-.198.606-.361.362-.256.421-.199.167-.441.828.335.493.048.25.29.355.189.116.126.144-.058.242.116.328.15.173.188.069h.233l.669-.219.159-.098.1019-.175.335-.355.021-.459.072-.552-.082-.36L6.06,6.148l-.154-.365-.349-.34L5.343,4.86l-.0881-.182-.066-.251-.075-.445.234-.162-.024-.365L5.9,3.354l1.246-.594.771-.15.878-.317.204-.157.176-.261.137-.03.458.245.226-.085.089-.191L9.96,1.442h-.263l-.791.135-.077-.16V1.276L8.6419.832l.116-.334.119-.271.227-.109L9.4359,0l.251.181.152.172.083.167.057.453.1351.458.142.318.226.24.173-.016.124-.04.823-.054.5.164.6359.083.594.348.611.422.156.308.051.294.148.197-.147.203.08.338.175.341.264.217.753.059.814-.146,1.258-.133L17.9,4.46l2.082-.062.397.164.039.163.004.125.67.61.55.083.467.195.483.105.528.148.297-.019.223-.052.262-.009,1.858-1.02.996.026.153-.066.132-.089-.367-.155-.829-.06-.251.104-.142-.263.27.007.922-.088,1.057.058.861-.187.433-.031.25.037.686-.121,1.291.143,1.018-.118-.118.169-.334.103-.541.032-.413.247-.88-.045-.618.089.198.069v.253l.084.051.089.002.21.188.057.123.068.258-.093.2789-.128.125.251-.0419.142-.1311-.021-.1319.021-.1531.141.048.099.069.321.73.226.3829.058-.014.054-.014.067-.073.1-.18.086.1141.052.044.052.014-.048-.163.064-.209-.022-.073.1-.016.12.028.17.058.303.24.2.249.017.139.073.078.131.082.064.128.012-.202-.077-.147-.019-.168.394-.007.103-.221.215.133.57.607.21.1.621.116.391.292.229.262-.136.274-.365.1369-.1459.171L34.56,8.75l-.001.169-.111.1961-.016.069-.066.276-.15.333-.2.353-1.042.008.257.145.237.105.389.277.309-.218.443-.016.479-.242.181-.038.896.126.216-.177.18-.052.485.033ZM26.7228,2.985l.09.371-.027.07-.254.25-.213.018-.172-.009-.13-.048-.167-.163-.163.049-.403-.057-.112-.057.151-.2.277-.081.102-.017.081.123.202.106.237.011.059-.189.321-.281Zm-3.8249.638-.151.064L22.47,3.623l-.139-.089.0881-.102h.2269l.2131.124Zm12.324,5.006-.337.093.005-.0751.09-.131.1749-.037.0661-.045.1109-.03.064.005.064.037-.153.074Zm-.496.766-.1741.057-.026-.283.0531-.076.2959-.228.082-.043.06.048-.015.061.143.103-.035.13-.154.142Z" fill="url(#radial-gradient)"/></g></g></svg>