<svg xmlns="http://www.w3.org/2000/svg" xmlns:xlink="http://www.w3.org/1999/xlink" width="20.5334" height="42.9679" viewBox="0 0 20.5334 42.9679"><defs><radialGradient id="radial-gradient" cx="10.2667" cy="21.484" r="16.837" gradientUnits="userSpaceOnUse"><stop offset="0" stop-color="#ffd496"/><stop offset="1" stop-color="#f29d25"/></radialGradient></defs><title>VN</title><g id="Layer_2" data-name="Layer 2"><g id="Layer_1-2" data-name="Layer 1"><path id="VN" d="M16.4025,5.549l-.132.027-.327.0051-.286.273-.1971.114-.309.095-.328.154-.0949.271-.009.196-.053.219-.532.318-.148-.033-.103-.118-.157.024-.106.0589-.126-.0079-.141.0719-.185-.022-.17-.101-.098-.026-.117-.001-.022.119.174.461.045.212-.5689.622.0629.4-.1539.307-.344.247-.6451.636-.291.014-.219.144-.478,1.042-.005.357-.075.261.016.25-.209.492-.218.208-.048.268.309.551.035.097.18.296.087.211.138.211.497.547.222.167.267.113.484.492.244.313-.111.213.055.451-.345-.133.04.053.411.247.614.864.535.426.543.484.17.459.49.304.545.44-.023.099.1469.118.3661.233.223.247.086.2341.135.0379.153-.058.152-.022.108.018.164.257.229.229.11.211.09-.028.074.032.0189.176.0331.116.307.338.146.318.366.516.271.293.192.165.221.141.216.571.117.518.231.573.175.25.006.471.142.485.151.327.045.334.047.166.058.125.165.565-.0431.263-.1149-.257.015.758.101.401-.045.491.105.172.188.555.133.199-.0121.677.07.342-.1779-.204-.1291-.232-.1729.123-.1551.181.2411.728-.274-.069.024.978.114.228.008.109-.033.13-.076-.143-.016-.147-.0431.033.0021.076-.092.172-.027.213.099.182.017.138-.071.171-.114.181-.261.024-.06.354-.0889.375-.466.06-.3381.331-.418.123-.373.327-.411.303-.268.04-.229.065-.263.5021-.438.058-.787.41-.265.198-.241.077-.345.171-.074-.061-.1149-.147-.298-.076-.146-.165-.042-.2121-.039-.083-.064.12-.05.504-.053.114-.127.05-.251-.143-.239-.291-.341.201.104.024.155-.016.12.05.102.194-.004.105-.053.123-.319.02-.426-.043-.078.016.389.189.355.109.1569.119v.099l-.1989.159-.154.195-.003.121-.003.135-.173.116-.107-.023-.304-.203-.877-.799.132.226.909.908.16.299.022.211-.094.106-.154.125-.298.009-.488-.337-.781-.81-.266-.11.79.926.13.225.133.259-.038.154-.068.145-1.872.857-.28.369-.2219.4549-.368.253-.216.231-.624.13-.341-.041.354-.42-.219-.156-.011-1.083.086-1.189.163-.594.235-.148.296-.091.007-.125-.029-.143-.159-.203-.174-.094-.26-.041-.2-.249-.152.01-.236.083-.143-.1069L6.92,38.21l-.219-.208-.252-.202.114-.0321.132-.116.1421-.1489.352-.021.353.007.099-.039.143-.158.231-.203.176-.113.042-.0911-.07-.2139-.039-.22.065-.069.319.039.351.103.085.0459.201-.27.055-.033.132.001.348-.05.34-.071.161.012.156.181.119.178.062.014.177-.076.146.095.3061.155.1829.007-.091-.361.102-.257-.02-.07-.172-.118-.584-.472-.1-.141.014-.222-.02-.326-.052-.205.009-.12.036-.0961.107-.038.104-.013.083-.084.14-.215.272.019.382.1221.282.0759.167-.015.037-.031-.005-.116.02-.494-.011-.105.241-.048.368-.011.194-.029.181-.208.466-.072.337-.281.304-.289.149-.077.189-.05.142.0069.178.167.147-.101.17-.196.089-.192.049-.309-.0331-.474-.09-.371-.085-.278-.017-.278.196-.559.169-.609-.032-.24-.184-.38-.1871-.463-.2039-.51-.0771-.076-.055-.142-.031-.166.081-.521.0121-.175.2349-.238.126-.272.118-.301-.045-.159-.016-.324.03-.157-.0561-.127-.068-.185.045-.12.165-.103.097-.177.124-.207.055-.189-.089-.158-.161-.237-.294-.214-.339-.274-.166-.169-.132-.172-.121-.2-.066-.16.064-.105.482-.241.088-.087.0511-.134-.0381-.131-.13-.071-.151-.048-.2219-.152-.414-.417-.19-.093-.2-.12-.106-.126-.116-.346-.053-.031-.115.105-.146.109-.122-.019-.111-.098-.053-.132-.123-.181L12.4,19.892l-.035-.496-.021-.162-.066-.226-.104-.081-.11-.06-.26-.412-.18-.213-.738-.58-.0919-.093-.199-.239-.346-.339-.247-.273-.18-.283-.084-.246-.025-.192-.196-.275-.169-.226-.164-.073-.187-.031-.169-.134-.3091-.304-.137-.195-.081-.132.004-.1359.074-.2261.09-.129.0029-.101-.088-.082-.343-.146-.776-.221-.29-.169-.268-.216-.202-.147-.946-.625-.287-.104-.2459-.111-.0751-.108.013-.104.1011-.077.268-.161.1-.184-.0319-.241-.1061-.244.052-.084.087-.01.18-.007.373-.014.804.222.116-.024.4371-.403.164-.241.038-.201.086-.128.23-.21.0029-.192-.1129-.2569-.115-.099-.099-.043-.319.0339-.062-.058-.042-.191L7.1,9.072l-.105-.137L6.65,8.818l-.292-.033L6.29,8.736l.112-.132.1989-.13.151-.076.119-.135.022-.138-.148-.123-.193-.1369-.313-.261-.434-.277-.264-.095-.138.013-.478.238-.257.155-.214.276-.223.059-.226-.1221-.256-.125L3.04,7.544l-.299-.152-.619-.93-.091-.189.059-.2139.043-.3071.062-.199.109-.19.03-.169-.027-.166-.089-.095-.117-.028-.087-.038-.082-.218-.05.0281-.076.265-.091.095-.121.047L1.5,5.0421l-.06-.106-.026-.18-.062-.242-.076-.158-.267-.161-.126-.209-.396-.455-.332-.319L0,2.9251l.136-.107.171-.155.184-.242.206-.304.086-.186.061-.075.121-.055.13.03.228.123.344.157.307.186.124.187.171.179.131.054.066-.014.197-.135.17-.135.004-.153.156-.138.204-.227.097-.154.073-.016.083.045.322.476.062.029.091-.071.1271-.372.14-.144.048.036.7789.701.074-.005.084-.031.055-.108.061-.2431.116-.26.25-.145.195-.028.072.124.169.171.205.024.436-.303.143-.048.152.005.155-.012.148-.116L7.49,1.317l.0529-.302L7.576.744l.107-.11L7.811.561l.24-.103L8.593.195,8.733.07,8.8361,0l.211.114.252.22L9.451.5l.102.179.0491.149.401.13.2559.184.17.141.168-.0061.1681-.0379.1079-.1131.1891-.002.224.017.1.045.185.26.0831.036.1649-.018.317-.0921.2551-.044.23.104.438.289-.123.206-.098.222-.192.156-.142.039-.09.217-.04.32.049.1629.11.052.122.108.05.1431.017.316-.007.356.017.118.095-.022.09-.042.182.055.226.0929.143.094.128-.012.1.0921.037.176.118.1229.328.231.263.02.2219.305.23-.1.106.132.477-.046.332-.124.119.029.299.254Zm-1.038.872-.404.375-.155-.006.138-.424.066-.101.2429.146Zm-.229.868-.157.078-.186-.009.2231-.146.1129-.181.091-.063-.0009.158Zm-1.8409.331-.032.058-.143-.141-.095-.061.072-.19.168.208Zm.4659.205-.116.012-.2231-.242.12-.128.253.09.0591.059-.0021.052-.0609.115Zm.382,30.014-.235.171-.016-.144.204-.093.072-.073.052.001Zm-8.71.018.0529.141-.02.33-.109.323.032.141-.084.09-.187-.605-.235-.262-.052-.101.137.007.245-.166.118-.004Zm7.1659,4.829-.079.006-.06-.058.2541-.185-.0251.123.009.062Z" fill="url(#radial-gradient)"/></g></g></svg>