<svg xmlns="http://www.w3.org/2000/svg" xmlns:xlink="http://www.w3.org/1999/xlink" width="9.4589" height="19.064" viewBox="0 0 9.4589 19.064"><defs><radialGradient id="radial-gradient" cx="4.7295" cy="9.532" r="7.5242" gradientUnits="userSpaceOnUse"><stop offset="0" stop-color="#ffd496"/><stop offset="1" stop-color="#f29d25"/></radialGradient></defs><title>VU</title><g id="Layer_2" data-name="Layer 2"><g id="Layer_1-2" data-name="Layer 1"><path id="VU" d="M2.7019.569l-.041.028L2.5959.575,2.43.227l.042-.116L2.6808,0l.186.193L2.8848.3l-.002.091L2.8548.47l-.124.033Zm.269,1.017-.117.146-.316-.048-.075-.039.021-.242.079-.0831.189-.075.259.119ZM.6169,3.217l.181.955.21-.002.107-.051.1241-.224.056-.3511.109-.05.138.038-.06.112.04.281.106.156.07.028.142.735.053.154-.003.1239-.297.275-.441-.008L.8411,5.554.652,5.543l.001-.186L.485,5.209l-.19-.317.047-.563L.003,3.286,0,3.025l.116-.34.113-.016.154.284Zm4.051,1.449-.049.179-.116-.208-.074-.874.03-.081.061-.006.142.608Zm-.781.31-.188.133-.348-.013-.129-.075.427-.404.494-.083Zm.847,1.549-.047.003-.048-.133-.158-.71.104-.634.065.134.237,1.113-.032.182Zm-2.79-.714-.051.075-.298-.188.068-.181.324.065Zm.544,1.078.129.063h.07l.0419.141.402.282.11-.008.093.154.173.078.047.157.123.16-.215.194-.417-.052-.238.22-.216-.056-.038-.116.03-.039-.129-.295-.058-.45-.087-.2651-.095-.113-.1939.099-.079.017-.188-.217.089-.441.047-.126.151-.024.23.116Zm2.481.699-.321.03-.451-.091-.182-.126-.078-.126.156-.094.224-.044.279-.289.097.11.104.3241.112.0979.063.098ZM5.39,8.875l.084.043-.047.121-.385-.138-.311.054-.087-.0061-.092-.1109-.068-.2211L4.515,8.463l.13-.1081.049-.0169.098.1329.089.0911.086.039.196.217Zm-.003,2.229.279.417.111.033-.169.299-.352.026-.415-.077.152-.103-.079-.1161-.125-.023-.1439.055-.066-.019.092-.192.23-.271.068-.021.062-.003.061.024Zm2.495,4.106-.13.143-.113-.016-.732-.33.031-.136-.03-.347.08-.188.202-.077.157.04.096.2769.219.113-.153.095.267.209Zm.44,1.773-.148.322-.256-.075-.239-.233-.125-.203.084-.389.122-.068.128.022.065.38ZM9.4589,18.9l-.099.164-.152-.002-.195-.1161.037-.145.222-.026.064.01Z" fill="url(#radial-gradient)"/></g></g></svg>