<svg xmlns="http://www.w3.org/2000/svg" xmlns:xlink="http://www.w3.org/1999/xlink" width="4.837" height="5.343" viewBox="0 0 4.837 5.343"><defs><radialGradient id="radial-gradient" cx="2.4185" cy="2.6715" r="2.5481" gradientUnits="userSpaceOnUse"><stop offset="0" stop-color="#9b0400"/><stop offset="1" stop-color="#4c0200"/></radialGradient></defs><title>XK</title><g id="Layer_2" data-name="Layer 2"><g id="Layer_1-2" data-name="Layer 1"><path id="XK" d="M4.302,3.86H4.298l-.481.105-.162.123-.096.216-.031.111-.085.004-.141-.111-.178-.174-.233.014-.79.378-.078.198-.017.429-.054.116-.085.074-.326-.047-.035-.028.043-.164-.017-.36-.148-.597L1.28,3.952l-.217-.195L.895,3.629.592,3.515l-.153-.33L.208,2.811.097,2.725l.018-.037.053-.283L.102,2.199,0,2.023l.069-.107.213.001.176.02.063-.169.363-.11.349-.115.051-.08-.08-.174.047-.109L1.669.87,1.737.729l.026-.11L1.707.501,1.628.318,1.666.24,1.883.134,2.06.01,2.164,0l.065.089V.181l.058.155.13.084.216.137L2.884.65,3.08.836l.269.332.04.164.242.147.224.165-.035.305.763.266.172-.002.082.047-.002.069-.06.213-.314.654-.025.135-.225.142-.031.082.064.179Z" fill="url(#radial-gradient)"/></g></g></svg>