<svg xmlns="http://www.w3.org/2000/svg" xmlns:xlink="http://www.w3.org/1999/xlink" width="33.571" height="19.3521" viewBox="0 0 33.571 19.3521"><defs><radialGradient id="radial-gradient" cx="16.7855" cy="9.676" r="13.7" gradientUnits="userSpaceOnUse"><stop offset="0" stop-color="#ffd496"/><stop offset="1" stop-color="#f29d25"/></radialGradient></defs><title>YE</title><g id="Layer_2" data-name="Layer 2"><g id="Layer_1-2" data-name="Layer 1"><path id="YE" d="M29.57,6.8781l-1.415.518-.373.23-.3389.284-.2541.355-.178.623.1351.569-.013.305-.365.202-.341.145-.3791.222-.23.0549-.188.176-.219.123-.789.32-.862.247-1.37.296-.529.321-.481.22-.7311.066-1.004.305-.558.2439-.693.397-.153.125-.122.292-.213.2521-.417.4129-.313.2121-.209.0109-.406.116-.481.024-.808-.145-.208.101-.171.1611-.623.2829-.633.565-.463.15-.749.177-.524.235-.352.094-.453.049-.839-.024-.795.085-.737.159-.346.301-.395.477-.645.197-.152.171-.199.351-.417.091-.3779.059-.386-.153-.7281.424-.275.07-.418.017-.297.089-.213-.025-.265-.166-.5641-.201-.412.131L2.6,17.868l-.683-1.226.142-1.069v-.151l-.136-.478-.4069-.437.012-.554-.136-.396-.108-.408.035-.108.006-.0979-.208-.629-.069-.1271-.026-.1319.068-.1011-.002-.117-.11-.193-.117-.368-.555-.289.113-.271.1079.095.146.081.03-.175.002-.131-.232-.819.344-1.094-.113-.987.525-.399.132-.12.076-.1051.1241-.226.169-.073.06-.238-.005-.119-.1091-.102-.0819-.277.027-.352.0269-.147.057-.269.1841-.1.043-.08-.142-.17.013-.102.312-.285.123-.085.202-.088.158.001.182.05.163.08.1581.145.1669.165.256.063.174-.016L3.84,4.91l.12-.04.136-.085.218.005.196-.096.5579-.046.5381.029.562-.08.5609.006.566.006.125.012.123.05.477.252.362.052.727.069.775.074.672.063.57-.06.473-.049.128.008.143.156.285.389.269.366.471.02.302-.138.332-.194.203-.15.235-.596.1519-.386.349-.435.292-.364.386-.483.214-.267.422-.528.403-.206.778-.397.763-.391.497-.255.423-.116.709-.1.833-.118.833-.118L21.91.644l.99-.14.679-.096.865-.123.72-.102.64-.09L26.4631,0l.124.294.124.294.125.294.124.294.1241.294.124.294.124.293.125.293.124.293.1241.293.124.293.125.293.124.292.124.292.1241.292.124.292.122.285.2.095.119.27.17.385.171.384.17.384ZM.115,10.7811l-.088.064L0,10.7331l.058-.2521.092-.0729.062.187-.04.103ZM.668,14.62l-.037.061-.051-.013-.1741-.153.191-.171.102.159Zm-.089.768-.186.088.127-.228.13-.047.036.009Zm30.892,3.057.174.034.263-.099.754-.013.909.318-.172.083-.1019.115-.399.105-.398.245-1.152.119-.338-.0661-.278-.237-.5151-.308.203-.197.0441-.09.0759-.086.2911-.1489.291.0239Z" fill="url(#radial-gradient)"/></g></g></svg>