<svg xmlns="http://www.w3.org/2000/svg" xmlns:xlink="http://www.w3.org/1999/xlink" width="60.1683" height="85.5115" viewBox="0 0 60.1683 85.5115"><defs><radialGradient id="radial-gradient" cx="30.0841" cy="42.7558" r="36.967" gradientUnits="userSpaceOnUse"><stop offset="0" stop-color="#ffd496"/><stop offset="1" stop-color="#f29d25"/></radialGradient></defs><title>ZA</title><g id="Layer_2" data-name="Layer 2"><g id="Layer_1-2" data-name="Layer 1"><path id="ZA" d="M41.6462.7725l.0151.159.02.072.1339.419.2.628.133.58.1829.797-.0059.445.0449.172.164.215.201.37.068.209.067.1569.212.298.165.452.14.599.12.2881.045.142.054.258-.007.545.003.633.004.7069.003.5851-.021.296.015.843-.181.439.022.346.056.224-.074.035-.141.04-.648-.355-.632-.375-.091-.011-.133.039-.358.272-.335.426-.154.364-.247.376-.398.606-.041.131-.0041.494.019.471.035.066.215.022.154.386.352.616.591.396.549.18.766.045.606-.013-.0349-.416.06-.667.077-.448.085-.02.159.0431.088.046.243-.019.432.088.349-.0089.312-.009.527-.015.308-.005-.104.723-.402,1.135-.137.522L45.15,18.6816l-.448.9471-.2509.392-.726.694-.2021.141-.179.09-.318.08-1.244,1.41-.463.682-.412.997-.409.549-.601,1.174-.537.909-.515.832-.891,1.148-.396.333-.267.152-.708.669-.997,1.08-.763.96-1.141,1.094-.661.48-.992.947-.277.14-1.118.883-.804.538-1.301.625-.5171.175-1.235-.162-.515.086-.431.378-.04.544-.18.082-.2719-.024-.863-.227-.468.0431-.2731.291-.22.368-.65.0189L21.707,37.82l-1.362-.232-.315-.026-.66.283-.23.041-.961-.061-.533-.1779-.51-.001-.3909.1469-.474.052L14.99,38.87l-.662.0009-.571.1191-.283-.0041-.53-.1439-.197.01-.302.064-.302.181-.688.078-.267.1551-1.162.9409-.265-.038-.214-.061-.604-.012-.683-.501-.262.032.07-.15.021-.266-.145-.188-.097-.084-.268.016-.143-.226-.41-.021-.142.057-.197.012-.0171-.229.015-.1439-.012-.2211-.049-.2709-.159-.086-.122-.0361-.29.019-.2.029-.094.079-.107.199-.001.604-.1439-.173-.164-.362-.053-.386.059-.455.311-.173-.024-.307-.066-.266-.347-.68-.135-.3109-.294-.21-.229-.5059-.23-.183-.096-.354-.225-.282-.076-.446.1241-.255.196-.14.2.221.249-.086.353-.322.209-.488.013-.779-.054-.485-.28-1.25-.1321-.287-.632-.891-.733-1.189-.927-1.865-.4429-1.116L1.41,22.518.819,21.257.093,20.085,0,20.009l.111-.142.391-.27.177-.073.095.034.092-.074.089-.183.02-.171.044-.242.087-.145.096-.288.163-.185.345-.123.2609.163.1091.159.0449.21.1161.102.1859-.007.131.129.076.266-.015.192-.106.12.015.157.135.195.056.186.09.246.474.143.232.08.3989.027.3771.11.3549.1921.584.046.813-.099.669.044.525.188.381.0349.236-.119.1031-.171-.032-.224.117-.141.265-.06.212-.168.16-.277.369-.225.579-.1729.288.0059V8.0038l.135.0931.889.6859.24.3611.119.229.382.833.284.749.231.566.018.2589.033.253.0331.125-.021.138-.1631.3091-.166.236-.2.323-.019.427.06.504.123.251.154.083.368-.125.2329.039.329.096,1.078-.059.13.031.407.036.136-.042.122-.107.141-.302.126-.1.229-.051.271-.082.224-.174.355-.597.711-.5289.218-.126.138-.1421.12-.1909.249-.664.188-.552.064-.26.168-.4241.203-.271.199-.143.1-.036.256-.073.329-.068.346.076.3709.164.419.276.4291.342.197.174.213.078.379.027.248-.006.386.34.195.021.437.1031.54.106.339-.012.364-.1841.262-.008.339.0151.373-.05.273-.079.209-.16.184-.175.212-.521.122-.418.188-.481.231-.651.083-.453.084-.125.336-.138.277-.095.748-.178.153-.0949.14-.213.326-.3611.4019-.301.2081-.172.38-1.458.046-.18.276-.386.171-.163.11-.003.156-.102.203-.2.241-.124.279-.046.181-.133.0831-.2181.1439-.106.2051.006.117-.069.028-.145.124-.125.219-.103.114-.123.011-.141.261-.343.511-.545.481-.303.452-.062.429-.1129.4051-.165L35.076.75l.19-.352.327-.197.659-.058.036-.003L37.09,0l.671.114.809.322.757.114.706-.0939.574-.021.441.052.348.112Zm-7.159,23.992.461-.205.208-.125.15-.103.1939-.156.0671-.3791.057-.322.148-.159.152-.105.125-.1669.155-.401.106-.3921.011-.16-.055-.164-.099-.175-.097-.2361-.117-.0369-.229-.1321-.337-.266-.292-.231-.2739-.335-.112-.055-.2651-.227-.114-.13-.08-.156-.075-.051-.119.04-.313.0689-.671.272-.4161.25-.35.298-.363.114-.266.099-.211.341-.197.318-.177.287-.102.129-.092.083-.093.184-.191.3061-.175.205-.244.112-.315.145-.107.084-.015.124.112.288.108.278.177.326.13.2391.205.2919.12.1711-.016.287.041.103.068.119.057.03.064.0431.17.083.041.055.1191.098.114.179.216.246.243.187.4169.077.326.06.108-.037.111-.151.091-.192.029-.244.104-.13.391-.619.215-.229.1321-.0171.169-.044.216-.019.162.019.0349-.007Zm25.595,60.671-.121.076-.567-.067-.0609-.157.1669-.242.099-.102.2931.055.234.196.042.066Z" fill="url(#radial-gradient)"/></g></g></svg>