<svg xmlns="http://www.w3.org/2000/svg" xmlns:xlink="http://www.w3.org/1999/xlink" width="32.787" height="28.237" viewBox="0 0 32.787 28.237"><defs><radialGradient id="radial-gradient" cx="16.3935" cy="14.1185" r="15.2983" gradientUnits="userSpaceOnUse"><stop offset="0" stop-color="#ffd496"/><stop offset="1" stop-color="#f29d25"/></radialGradient></defs><title>ZM</title><g id="Layer_2" data-name="Layer 2"><g id="Layer_1-2" data-name="Layer 1"><path id="ZM" d="M30.706,3.425l.01.075.077.142.081.102.007.15.038.14.118.034.097.009.09-.1.122.002.134.064.048.161.105.216.169.148.114.143-.039.26-.072.237.23.235.299.223.081.099.024.332.046.112.203.276.099.183-.007.106-.545.547-.173.053-.164.031-.146.112-.088.117.032.062.058.187.127.296.115.207-.096.259-.216.44-.1.039-.018.333.066.122.108.096.044.226.003.312-.012.251-.136.639.246.559.084.061.341.004.058.047-.081.159-.148.164-.091.083-.434.191-.623.211-.13.202-.083.295.07.173.082.099-.026.257-.055.272.019.214-.028.189-.082.093-.109.285-.134.287-.106.131-.156.137-.247.114.004.058.28.132.072.092.026.063-.06.06-.057.085.129.088.158.074.149.191.133.267.038.094.031.037.048.004.093-.04.171-.146.125-.052.151.208-.603.206-.316.108-.901.308-.787.269-.205.051-.408.131-.203.081-.711.235-.297.117-.239.117-.587.174-.555.164-.606.17-.678.189-.381.137-.257.118-.601.24-.028.058.008.163.077.336.15.305.126.176.082.452.046.397-.408.001-.718.002-.745.001-.68.152-.559.231-.667.361-.217.142-.168.109-.106.141-.052.308v.476l-.068.342-.202.315v-.001l-1.013.381-.662.311-.65.369-.493.479-.336.589-.558.73-.568.633-.603.674-.676.244-.568-.055-.685-.273-.544-.052-.403.17-.372-.053L10.56,27.7l-.286-.1-.232.074-.296-.013-.541-.15-.468-.467-.253-.192-.195-.074-.56-.075-1.285-.107-.134.024-.534.092-.667.115-.574.115-.601.12-.559-.486-.633-.551-.657-.615-.493-.481-.244-.277-.433-.366-.312-.179-.121-.09-.31-.972-.169-.892v-.671l-.001-.929V18.699l-.001-.925V15.929L0,15.008V13.641H5.232l.153-.007.184-.028.013-.091-.24-.451.012-.16.064-.306.099-.264.131-.347.014-.204-.105-.665.01-.37.03-.385.03-.364-.036-.254.044-.138.079-.198.041-.224.049-.096L5.788,9l-.044-.166L5.7,8.462l-.061-.517-.061-.372.102.021.212.035.103.182.06.2.143.011.372.118.129.165.085.357-.051.183-.12.147.12.13.249.087.146-.026.42-.243.168-.043.219-.048.198-.062.559-.111.305-.049.172-.087h.12l.086.07-.077.252-.026.226.107.423.08.197.18.144.131.075.145.153.301-.026.662.216.201.1.279.1.198.037.683.076.252.051.468.068.374.012.265-.031.186-.062.114-.068.052-.059.077-.211.139-.458.055-.137.138-.063.179-.041.105.073.117.508.521.459.178.386.13.33.113.09.198.113.316.04.282.012.594.238.472.189.338.136.155.103.108.169.064.131.104.34.111.269.181.051.162.021.16.184.121.161.24.394.177.272.058.265.201.177.274.075.253.01.146-.079.359-.138.28-.157.204-.055.121.034.092.109.049.213.012.119.199.113.147-.045.057-.131.003-.065-.001-.58v-.502l-.001-.472v-.575l-.001-.501v-.412l-.001-.43-.128.024-.161.098-.371.012-.145.073-.045.111.028.144.008.196-.055.092-.162.037-.236-.076-.427-.098-.356-.061-.256-.26-.346-.392-.227-.197-.546-.409-.093-.082-.166-.191-.142-.324-.07-.215-.066-.16-.073-.238.132-.366.185-.696.134-.501.074-.371.265-.378.019-.338-.107-.433.027-.239.018-.607.015-.51.004-.248-.073-.431-.179-.477-.394-.664.002-.142.234-.157.371-.274.182-.163.218-.231.097-.118.214-.296.135-.241.047-.311L19.419.822l.208-.058L20.31.66l.752-.115.793-.122.8-.122L23.43.182l.703-.107L24.619,0l.072.203.152.338.171.248.215.218.182.132.121.04.77-.014.276.132.241.168.06.26.158.163.171.128.074.016.126-.031.206-.003.191.056.091.057.009.218.058.097.26.038.265.017.256.148.276.026.32.061.152.159.339.163.416.146.3.165Z" fill="url(#radial-gradient)"/></g></g></svg>