<svg xmlns="http://www.w3.org/2000/svg" xmlns:xlink="http://www.w3.org/1999/xlink" width="21.843" height="19.959" viewBox="0 0 21.843 19.959"><defs><radialGradient id="radial-gradient" cx="10.9215" cy="9.9795" r="10.4611" gradientUnits="userSpaceOnUse"><stop offset="0" stop-color="#ffd496"/><stop offset="1" stop-color="#f29d25"/></radialGradient></defs><title>ZW</title><g id="Layer_2" data-name="Layer 2"><g id="Layer_1-2" data-name="Layer 1"><path id="ZW" d="M17.018,19.959l-.254-.172-.347-.112-.442-.052-.573.021-.706.095-.757-.115-.809-.322-.671-.114-.802.14-.036.003-.138-.109-.22-.235-.365-.042-.099-.054-.082-.088-.054-.112-.021-.125.06-.386-.033-.043-.097-.047-.201-.046-.481-.175-.606-.17-.983-.186-.382-.048-.089-.057-.11-.142-.189-.443-.177-.292-.423-.451-.067-.139.021-.358.031-.288.045-.244-.02-.229-.006-.284.013-.19-.057-.082-.153-.058-.437-.026-.528.011-.017-.288-.051-.446-.098-.256-.122-.133-.243-.139-.491-.19-.669-.289-.572-.428-.655-.531-.205-.092-.242-.498-.368-.852.024-.283-.056-.139L1.65,9.212l-.079-.217-.063-.219-.569-.61L.745,7.9.597,7.558.45,7.285l-.124-.11L.164,6.99.052,6.778,0,6.62l.043-.211.055-.145.541.15.296.013.232-.074.286.1.342.274.372.053.403-.17.544.052.685.273.568.055.676-.244.603-.674.568-.633.558-.73.336-.589.493-.479.65-.369.662-.311L9.926,2.58v.001l.202-.315.068-.342V1.448l.052-.308.106-.141L10.522.89l.217-.142.667-.361.559-.231.68-.152L13.39.003l.718-.002L14.516,0l.006.457.031.515.08.049.54.011.866.037.835.034.533.374.179.08.554.1.708.623.852.058.586.195.516.214.297.257.192.058.26.019.126.024-.027.185-.174.314.023.45.239.624.032.544-.073.959.002.931.025.333.039.22.051.121-.01.138-.142.392-.114.412-.004.165L21.5,9.01l-.085.103-.372.191-.063.118.001.214.047.18.14.066.168.102.066.134.001.142-.054.263-.15.435.15.502.167.326.231.376.096.233-.005.167-.035.163-.345.69-.249.43-.304.46-.402.289-.104.139-.041.158.014.346-.018.363-.344.557.213.48-.048.045-.116.068-.495.541-.501.549-.366.401-.416.456-.466.512-.399.439Z" fill="url(#radial-gradient)"/></g></g></svg>