<?xml version="1.0" encoding="utf-8"?>
<!-- Generator: Adobe Illustrator 22.1.0, SVG Export Plug-In . SVG Version: 6.00 Build 0)  -->
<svg version="1.1" id="Слой_1" xmlns="http://www.w3.org/2000/svg" xmlns:xlink="http://www.w3.org/1999/xlink" x="0px" y="0px"
	 width="1000px" height="1000px" viewBox="0 0 1000 1000" enable-background="new 0 0 1000 1000" xml:space="preserve">
<g>
	<path fill="#9B0F00" d="M500,1C224.4099,1,1,224.4099,1,500s223.4099,499,499,499s499-223.4099,499-499S775.5901,1,500,1z
		 M799.8135,799.8135c-38.9639,38.9629-84.3164,69.5459-134.7969,90.8975C612.792,912.7998,557.2725,924,500,924
		c-57.2729,0-112.7925-11.2002-165.0171-33.2891c-50.4805-21.3516-95.8325-51.9346-134.7964-90.8975
		c-38.9634-38.9639-69.5459-84.3164-90.8975-134.7969C87.2002,612.792,76,557.2725,76,500
		c0-57.2729,11.2002-112.7925,33.2891-165.0171c21.3516-50.4805,51.9341-95.8325,90.8975-134.7964
		c38.9639-38.9634,84.3159-69.5459,134.7964-90.8975C387.2075,87.2002,442.7271,76,500,76
		c57.2725,0,112.792,11.2002,165.0166,33.2891c50.4805,21.3516,95.833,51.9341,134.7969,90.8975
		c38.9629,38.9639,69.5459,84.3159,90.8975,134.7964C912.7998,387.2075,924,442.7271,924,500
		c0,57.2725-11.2002,112.792-33.2891,165.0166C869.3594,715.4971,838.7764,760.8496,799.8135,799.8135z"/>
</g>
<path fill="#9B0F00" d="M657.4434,238.8354l-1.8328,14.2259l-2.2691,0.7855l-7.5057-6.3711l-2.6182-5.2365l-6.3712-8.6403
	l-0.7855,2.9674l2.2692,4.4511l1.4837,4.8875l7.5057,6.022l0.7855,4.8875l8.204,13.0914c0,0,4.451,11.9568,6.3711,11.9568
	c1.8328,0,2.6183,6.3711,4.451,6.022c1.8328-0.3491,5.5857,5.2365,5.5857,5.2365l-2.2692,0.3491l2.9674,7.8548l11.9568,10.8222
	c0,0-3.4038,2.2692,0.3491,3.4038c3.7529,1.1346,4.8874,13.4405,4.8874,13.4405s0.3491,15.3605,3.7529,14.5751
	c3.4038-0.7855,1.8328,4.451,7.5057,4.8875c5.5857,0.3491,10.4731,20.5971,10.4731,20.5971l1.4836,2.2692l3.7529,6.7203
	l1.8328,0.3491l1.4837-1.1346l2.9674,5.2365l1.8328-1.8328l4.451,4.4511l2.2692-0.7855l2.6183,2.2692l6.022,5.5856l5.2365,3.7528
	l0.1746,3.0547h3.1419l5.9347,5.2365v5.8475l-5.4111,5.2365l5.4111,1.4837l11.9568,9.9494h6.7203l5.5857-4.9747
	c0,0,2.9673,0.2618,5.5856,0.2618s8.9894-3.7528,8.9894-3.7528l10.124-0.7855l1.8328-2.2692l4.451-1.4837l3.7528-1.4837
	l6.3712,0.3491l8.2039-3.7529l2.9674,0.0873v3.8401v1.9201v2.8801v6.2838l-2.4437,2.6183c0,0,2.0947,11.9568,0.1746,11.6077
	c-1.8328-0.3491-4.1019,7.0693-4.1019,7.0693c-3.4038,0.7855-12.3059,30.6338-12.3059,30.6338
	c-1.8328,0-10.8222,15.7097-10.8222,15.7097l-11.6949,10.2985v2.7055l-13.0914,10.3858L764.3563,527.98l-22.779,23.9136
	c-2.2692-0.3491-6.022,6.3712-6.022,6.3712l-5.6729,4.8874c-2.3565,6.0221-10.0367,18.6771-10.0367,18.6771l-4.102,8.9894
	c-3.4037,5.5857,1.4837,8.6403,1.4837,8.6403l4.451,7.0693l-2.6183,4.451l0.7855,5.5857l-1.8328,1.4836l2.2692,2.6183
	l4.1019,11.6077l0.3491,3.7529l5.1493,4.8875v5.9347l-4.1019,6.3712l1.92,11.2586l-2.2691,1.1346l2.2691,2.2691l-1.8328,7.8549
	l1.8328,7.0693l-2.9674,5.2366l1.4837,4.102l-4.8874,2.6183c0,0-4.451,2.9673-4.102,4.1019c0.3491,1.1346-3.7529,4.102-3.7529,4.102
	l-5.5856,5.2366c0,0-3.4038-2.9674-6.3712-0.3491c-2.9674,2.6182-13.8768,5.9347-13.8768,5.9347v3.4038l-1.9201,0.4363v1.8328
	l-5.7602,4.8874v-2.9674l-4.9747,5.2366l-8.2912,8.2039c-2.9674,2.9674,0.3491,7.5057,0.3491,7.5057l1.8328,7.0693
	c-3.4037,6.0221,1.9201,6.7203,1.9201,6.7203l-1.8328,13.0914c-1.8328,4.102,1.8328,5.2365,1.8328,5.2365l-9.3385,8.204
	l-18.6771,7.5057l-1.4837,5.5857l2.9674-0.7855l-0.3491,1.2219l-1.8328,5.9347l-6.7203,17.5424L581.8625,868.53h-9.6876
	l1.1346,3.2292c0,0-6.3711-0.5237-8.2039,0.6109c-1.8328,1.1346-4.451-0.7855-4.451-0.7855s-10.124,1.1345-12.7422-0.3491
	c-2.6183-1.4837-8.9894,1.8328-8.9894,1.8328l-11.6077,0.3491l-2.6182,3.4037c-7.0694,0.7855-5.5857-1.8328-8.6403-1.8328
	c-3.0547,0-7.5057-7.5057-7.5057-7.5057l-4.102-7.0693l0.6982-4.3638h2.9674l-1.1346-8.4658l-14.1387-31.5938l-13.0914-12.7422
	l-1.4837-9.3385l-1.8328-6.7203l0.3491-8.9894l-3.4037-5.2366l-1.1346-18.3279l-23.5645-42.6779l-2.2692-7.0693
	c0,0,1.1346-5.5856,0-7.5057c-1.1346-1.92,1.8328-9.3385,1.8328-9.3385s6.3711-19.4625,6.3711-20.9462s2.2692-0.3491,2.6183-4.451
	s7.5057-8.2039,7.5057-8.2039l1.4837-11.2586c0,0,3.7528-5.5857,0.3491-6.3711c-3.4037-0.7855-6.3711-13.4405-6.3711-13.4405
	l2.6183-2.6183l-1.8328-10.8222l-7.5057-11.6077l-0.1746-7.593h-3.2292c0,0-0.3491-6.8948-0.7855-7.9421
	c-0.3491-1.1346-28.0155-31.1575-28.0155-31.1575l-1.1346-5.5857l-2.2692-4.451l4.102-3.9274l0.6109-4.2766h4.6256l-0.7855-2.9674
	c-3.4037,0.3491-2.2692-2.9674-2.2692-2.9674l2.1819-4.6256h-2.6183l-1.4837-1.7455l4.102-7.5057l-0.3491-6.7202l1.7455-1.7455
	v-4.2765l-2.7928-3.4038l1.3091-2.4437h-3.6656c-4.102-0.96-3.7528-5.3238-5.2365-4.1892s-2.9674-3.8401-2.9674-3.8401
	c-2.2692-4.8875-3.4037,2.2691-3.4037,2.2691l-6.7202-0.7855c-0.7855-1.8328-6.3711,1.3964-6.3711,1.3964
	c-10.4731,4.3638-14.575-9.2512-14.575-9.2512c-0.7855-4.102-8.6403-8.6403-8.6403-8.6403l-31.7684,1.1346l-1.8328,2.9674
	l-10.124,1.8328c-5.2365-0.3491-19.8116,8.2039-19.8116,8.2039l-11.9568-4.451c-7.0693-1.8328-28.801,5.5857-28.801,5.5857
	c-17.9788,7.5057-27.6664-4.102-27.6664-4.102l-23.9136-19.4625l-8.2039-4.8874c-2.2692-3.7528-5.5856-6.022-6.022-7.0693
	c-0.3491-1.1346-4.102-5.2365-4.102-5.2365c1.4837-6.0221-4.4511-14.226-4.4511-14.226l-6.022-4.8875l0.6109-5.3238h-2.8801
	l-2.9674-2.3565l-2.9674-3.491l-1.6582-4.6256h-3.8401h-1.571l-2.2692-4.8001h-3.1419v-9.6003l3.4038-4.8875l-4.102-8.9894
	c-2.9674,0.3492-1.9201-4.5383-1.9201-4.5383l7.4184-6.9821v-5.6729l2.7928-6.022l2.531-3.4037l2.2692-5.2366l0.3491-16.0587
	l-1.8328-2.9674l2.2692-4.8875l0.7855-7.0693h-2.7056l-1.1346-5.7602h-2.1819c-0.7855-4.8002,9.3385-17.1933,9.3385-17.1933
	l2.6183-4.4511l15.3605-18.677c-2.2692-6.022,7.0693-12.3059,7.0693-12.3059c2.9674-0.7855,6.022-3.7528,9.3385-7.5057
	c3.4038-3.7529,4.102-6.7202,7.0693-7.0694c0.4364-0.0873,0.8728-0.0873,1.4837-0.1746c3.491-0.4364,9.4258-1.3091,11.9568-3.5783
	c2.9674-2.6183,7.8548-6.022,7.8548-6.022c0.3491-0.2618,0.6982-0.4364,1.0473-0.6982c12.4804-8.6403,7.1566-15.0114,7.1566-15.0114
	c1.8328-7.8548,6.022-13.4405,6.022-13.4405s2.4437,0.1745,2.6183-3.7529c0.2618-6.8075,25.0481-15.7097,25.0481-15.7097
	c6.1093-15.2733,13.8769-19.637,15.186-15.7969c1.3091,3.8401,5.4111,5.6729,5.4111,5.6729l13.8768,0.7855l3.7529,2.9674
	l7.8548-0.3491l4.451-6.022l9.6876-0.3491c-1.1346-3.4037,9.3385-6.022,9.3385-6.022l10.4731,0.3491l2.2692-1.4837l7.5057-0.7855
	l18.3279-0.3491c0,0,6.7202-2.6183,8.9894-1.1346c2.2692,1.4837,5.2366,1.8328,5.5857,0s10.8222,1.4837,10.8222,1.4837l4.102-3.0547
	l7.0693,0.0873c1.8328-0.7855,4.102,4.8875,4.102,4.8875c2.6183-2.2692,4.8875-2.2692,4.8875-2.2692
	c2.6183,1.4837-2.9674,5.5856-2.9674,5.5856c-4.102,1.1346,2.6183,8.9894,2.6183,8.9894
	c3.7529,2.6183-10.124,13.8768-10.124,13.8768c-1.1346,4.4511,4.8875,4.102,4.8875,4.102
	c-0.3491-3.7529,4.4511-1.4837,4.4511-1.4837c-0.7855,5.5856,1.8328,7.0694,1.8328,7.0694
	c0.7855,2.6183,14.5751,2.2692,14.5751,2.2692c3.4037,0.3491,20.9462,6.7202,20.9462,6.7202
	c-0.3491,9.6876,18.1534,13.8768,18.1534,13.8768c4.3638-0.7855,12.8295,4.8875,12.8295,4.8875
	c10.8222,1.8328,10.8222-10.124,10.8222-10.124c-6.3711-8.9894,9.6876-14.226,9.6876-14.226
	c4.102-3.4037,16.8442,1.8328,16.0587,2.2692c-0.7855,0.3491,2.1819,4.4511,2.1819,4.4511h12.7423
	c4.102,1.9201,5.5856,5.7602,5.5856,5.7602c7.5057-3.5783,34.0375,4.8002,34.0375,4.8002s10.124-3.7529,10.124-6.2839
	c0-2.531,7.5057,1.4837,7.5057-0.4364c0-2.8801,8.2039,0,8.2039,0c2.9674,4.8002,18.8516,1.1346,18.8516,1.1346
	C653.6906,223.7366,657.4434,238.8354,657.4434,238.8354z M810.0887,663.0829l-2.4437,1.4837l-1.571,7.0693l-2.0946,2.1819
	l-1.3964,2.1819h-4.6256v5.7602h-2.8801v5.2366l-1.9201,1.8328v-2.7928l-3.8401,2.7928v6.2839h-2.8801v-3.3165l-5.1493,3.4037
	l1.8328,3.8401h-3.4038v-2.3564l-6.7202,0.4364v2.3564l-3.4038-2.0073l-4.451,2.0073l-3.6656,2.0946v4.6256l-5.6729,6.6329
	l1.4837,5.2366l1.8328,17.9788l-0.7855,2.2692l-6.3711,11.2586l-5.9348,4.102l-1.8328,6.3711v8.553v3.8401l3.1419,3.3165
	l-1.2219,2.9674v9.9495l9.6003,8.1166h5.2365c0,0,4.451-4.6256,6.3712-2.4437l7.5057-1.4837l29.5865-58.7366l4.0147-18.6771
	l4.8002-7.8548v-10.9095l2.7928,0.8727l1.8328,3.4038l1.8328-2.9674l-1.4837-4.8875l1.4837-10.4731l-2.2692-1.4837l-0.7855-13.0914
	C816.809,667.8831,810.4379,659.0683,810.0887,663.0829z M397.3615,530.3365h-2.8801v2.8801h2.8801V530.3365z M404.0818,514.976
	h-2.8801v2.8801h2.8801V514.976z"/>
<g>
	
		<text transform="matrix(1 0 0 1 0.3271 595.7346)" fill="#9B0F00" stroke="#FFFFFF" stroke-width="10" stroke-miterlimit="10" font-family="'KornerDeliNF'" font-size="288.2468px">AFRICA</text>
</g>
</svg>
