<?xml version="1.0" encoding="utf-8"?>
<!-- Generator: Adobe Illustrator 22.1.0, SVG Export Plug-In . SVG Version: 6.00 Build 0)  -->
<svg version="1.1" id="Layer_1" xmlns="http://www.w3.org/2000/svg" xmlns:xlink="http://www.w3.org/1999/xlink" x="0px" y="0px"
	 width="688.6392px" height="746.0003px" viewBox="0 0 688.6392 746.0003" enable-background="new 0 0 688.6392 746.0003"
	 xml:space="preserve">
<g id="Layer_2_copy_2" display="none">
	<path fill="#B2946D" d="M468.3196,6.0003c-26.4834-5.2126-99.5569-5.8988-121.0001-5.9873l0.0001-0.0127
		c0,0-1.0698-0.0015-3,0.0029c-1.9302-0.0044-3-0.0029-3-0.0029l0.0001,0.0127c-21.4432,0.0885-94.5167,0.7747-121.0001,5.9873
		c-315,62-219.2996,346.2155-153,442c56.1472,81.1171,248,298,248,298h58c0,0,191.8528-216.8829,248-298
		C687.6192,352.2158,783.3196,68.0003,468.3196,6.0003z"/>
</g>
<text transform="matrix(1 0 0 1 179.4114 558.3217)" display="none" font-family="'KornerDeliNF'" font-size="637.9452px">3</text>
<path display="none" fill="#B2946D" d="M468.3196,6.0003c-26.4834-5.2126-99.5569-5.8988-121.0001-5.9873l0.0001-0.0127
	c0,0-1.0698-0.0015-3,0.0029c-1.9302-0.0044-3-0.0029-3-0.0029l0.0001,0.0127c-21.4432,0.0885-94.5167,0.7747-121.0001,5.9873
	c-315,62-219.2996,346.2155-153,442c56.1472,81.1171,248,298,248,298h58c0,0,191.8528-216.8829,248-298
	C687.6192,352.2158,783.3196,68.0003,468.3196,6.0003z"/>
<text transform="matrix(1 0 0 1 152.9388 558.3217)" display="none" font-family="'KornerDeliNF'" font-size="637.9452px">2</text>
<path display="none" fill="#B2946D" d="M468.3196,6.0003c-26.4834-5.2126-99.5569-5.8988-121.0001-5.9873l0.0001-0.0127
	c0,0-1.0698-0.0015-3,0.0029c-1.9302-0.0044-3-0.0029-3-0.0029l0.0001,0.0127c-21.4432,0.0885-94.5167,0.7747-121.0001,5.9873
	c-315,62-219.2996,346.2155-153,442c56.1472,81.1171,248,298,248,298h58c0,0,191.8528-216.8829,248-298
	C687.6192,352.2158,783.3196,68.0003,468.3196,6.0003z"/>
<text transform="matrix(1 0 0 1 243.21 558.3217)" display="none" font-family="'KornerDeliNF'" font-size="637.9452px">1</text>
<path display="none" fill="#B2946D" d="M468.3196,6.0003c-26.4834-5.2126-99.5569-5.8988-121.0001-5.9873l0.0001-0.0127
	c0,0-1.0698-0.0015-3,0.0029c-1.9302-0.0044-3-0.0029-3-0.0029l0.0001,0.0127c-21.4432,0.0885-94.5167,0.7747-121.0001,5.9873
	c-315,62-219.2996,346.2155-153,442c56.1472,81.1171,248,298,248,298h58c0,0,191.8528-216.8829,248-298
	C687.6192,352.2158,783.3196,68.0003,468.3196,6.0003z"/>
<text transform="matrix(1 0 0 1 97.6396 524.3457)" display="none" font-family="'KornerDeliNF'" font-size="520.9856px">10</text>
<path display="none" fill="#B2946D" d="M468.3196,6.0003c-26.4834-5.2126-99.5569-5.8988-121.0001-5.9873l0.0001-0.0127
	c0,0-1.0698-0.0015-3,0.0029c-1.9302-0.0044-3-0.0029-3-0.0029l0.0001,0.0127c-21.4432,0.0885-94.5167,0.7747-121.0001,5.9873
	c-315,62-219.2996,346.2155-153,442c56.1472,81.1171,248,298,248,298h58c0,0,191.8528-216.8829,248-298
	C687.6192,352.2158,783.3196,68.0003,468.3196,6.0003z"/>
<text transform="matrix(1 0 0 1 132.5262 558.3217)" display="none" font-family="'KornerDeliNF'" font-size="637.9452px">9</text>
<g>
	<path fill="#FFFFFF" d="M468.3196,6.0003c-26.4834-5.2126-99.5569-5.8988-121.0001-5.9873l0.0001-0.0127
		c0,0-1.0698-0.0015-3,0.0029c-1.9302-0.0044-3-0.0029-3-0.0029l0.0001,0.0127c-21.4432,0.0885-94.5167,0.7747-121.0001,5.9873
		c-315,62-219.2996,346.2155-153,442c56.1472,81.1171,248,298,248,298h58c0,0,191.8528-216.8829,247.9999-298
		C687.6192,352.2158,783.3196,68.0003,468.3196,6.0003z M307.3213,558.3213H203.3364l165.2271-406.3706h-192.021l26.1558-96.3296
		h309.4033L307.3213,558.3213z"/>
</g>
<g display="none">
	<path display="inline" fill="#FFFFFF" d="M468.3196,6.0003c-26.4834-5.2126-99.5569-5.8988-121.0001-5.9873l0.0001-0.0127
		c0,0-1.0698-0.0015-3,0.0029c-1.9302-0.0044-3-0.0029-3-0.0029l0.0001,0.0127c-21.4432,0.0885-94.5167,0.7747-121.0001,5.9873
		c-315,62-219.2996,346.2155-153,442c56.1472,81.1171,248,298,248,298h58c0,0,191.8528-216.8829,247.9999-298
		C687.6192,352.2158,783.3196,68.0003,468.3196,6.0003z M503.4863,454.9746h-28.707v103.3467h-96.3301V454.9746H181.9629
		l-22.9663-86.7603l86.123-193.2979c15.729-34.8677,37.8477-63.4751,66.3462-85.8032
		c28.4883-22.3281,60.8135-33.4922,96.9668-33.4922h66.3467v302.3857h54.8633L503.4863,454.9746z"/>
	<path display="inline" fill="#FFFFFF" d="M333.1558,214.4692l-64.4326,143.5376h109.7261V160.2441
		C359.7295,170.8799,344.6387,188.9517,333.1558,214.4692z"/>
</g>
<g display="none">
	<path display="inline" fill="#FFFFFF" d="M292.9663,216.064c16.7959,13.8257,33.9111,24.3516,51.3545,31.5786
		c17.4341-7.2271,34.5483-17.7529,51.355-31.5786c16.7959-13.8154,25.1982-27.96,25.1982-42.4233
		c0-14.4531-9.998-21.6899-29.9834-21.6899H297.751c-19.9956,0-29.9834,7.2368-29.9834,21.6899
		C267.7676,188.104,276.1606,202.2485,292.9663,216.064z"/>
	<path display="inline" fill="#FFFFFF" d="M423.1074,367.5762c-11.2744-8.5024-23.5049-14.0347-36.6826-16.5864
		c-13.1875-2.5518-27.2217-3.8276-42.104-3.8276c-14.4634,0-28.2886,1.2759-41.4663,3.8276
		c-13.1875,2.5518-25.418,8.084-36.6816,16.5864c-11.2739,8.5117-16.9058,19.3574-16.9058,32.5352
		c0,19.1377,10.626,34.1299,31.8975,44.9746c21.2612,10.8447,42.3135,16.2676,63.1562,16.2676
		c20.8325,0,41.9946-5.4229,63.4751-16.2676c21.4717-10.8447,32.2168-25.8369,32.2168-44.9746
		C440.0127,386.9336,434.3711,376.0879,423.1074,367.5762z"/>
	<path display="inline" fill="#FFFFFF" d="M468.3196,6.0003c-26.4834-5.2126-99.5569-5.8988-121.0001-5.9873l0.0001-0.0127
		c0,0-1.0698-0.0015-3,0.0029c-1.9302-0.0044-3-0.0029-3-0.0029l0.0001,0.0127c-21.4432,0.0885-94.5167,0.7747-121.0001,5.9873
		c-315,62-219.2996,346.2155-153,442c56.1472,81.1171,248,298,248,298h58c0,0,191.8528-216.8829,247.9999-298
		C687.6192,352.2158,783.3196,68.0003,468.3196,6.0003z M506.6777,484.958c-19.7764,24.6699-44.0186,43.0605-72.7256,55.1816
		c-28.708,12.1211-58.5918,18.1816-89.6313,18.1816c-30.6211,0-60.395-6.0605-89.312-18.1816
		c-28.9268-12.1211-53.2686-30.5117-73.0449-55.1816c-19.7764-24.6611-29.6646-52.9502-29.6646-84.8467
		c0-24.6611,6.27-47.208,18.8198-67.6221c12.5396-20.4146,29.6641-37.4194,51.3545-51.0356
		c-34.0308-33.1733-51.0356-69.1074-51.0356-107.813c0-35.2959,12.2207-63.7944,36.6816-85.4844
		c24.4512-21.6904,54.3252-32.5352,89.6313-32.5352h93.1396c35.2969,0,65.2793,10.8447,89.9502,32.5352
		c24.6602,21.6899,37.001,50.1885,37.001,85.4844c0,38.2769-17.2246,74.2212-51.6738,107.813
		c21.6904,13.1875,38.8047,30.0933,51.3545,50.7168c12.54,20.6333,18.8193,43.2798,18.8193,67.9409
		C536.3418,432.0078,526.4541,460.2969,506.6777,484.958z"/>
</g>
<g display="none">
	<path display="inline" fill="#FFFFFF" d="M413.2217,336.3169c-15.3105-12.7588-34.668-19.1382-58.0527-19.1382H252.46v4.4653
		c0,22.5474,3.0801,43.9185,9.2505,64.1128c6.1602,20.2051,17.3242,37.8584,33.4917,52.9502
		c16.1582,15.1006,35.7251,22.6465,58.6914,22.6465c22.1084,0,41.3564-6.5889,57.7334-19.7764
		c16.3672-13.1777,24.5615-30.6211,24.5615-52.3115C436.1885,366.729,428.5322,349.0757,413.2217,336.3169z"/>
	<path display="inline" fill="#FFFFFF" d="M468.3196,6.0003c-26.4834-5.2126-99.5569-5.8988-121.0001-5.9873l0.0001-0.0127
		c0,0-1.0698-0.0015-3,0.0029c-1.9302-0.0044-3-0.0029-3-0.0029l0.0001,0.0127c-21.4432,0.0885-94.5167,0.7747-121.0001,5.9873
		c-315,62-219.2996,346.2155-153,442c56.1472,81.1171,248,298,248,298h58c0,0,191.8528-216.8829,247.9999-298
		C687.6192,352.2158,783.3196,68.0003,468.3196,6.0003z M479.8867,510.1562c-35.5146,32.1172-77.5098,48.165-125.9932,48.165
		c-41.2573,0-77.4106-11.8018-108.4507-35.4062c-31.0503-23.6035-53.8071-53.0488-68.2603-88.3555
		c-14.4634-35.2959-21.6904-73.1436-21.6904-113.5532c0-48.4839,8.6123-92.5024,25.8369-132.0547
		c17.2246-39.5527,43.9087-71.6592,80.062-96.3301c36.1436-24.6602,78.8862-37.0005,128.2271-37.0005h83.5713l-26.1562,96.3296
		h-57.415c-54.8633,0-93.5684,22.7568-116.106,68.2603h81.6567c49.7598,0,91.8643,15.8486,126.3135,47.5269
		c34.4492,31.688,51.6738,72.1973,51.6738,121.5278C533.1562,437.75,515.3926,478.0498,479.8867,510.1562z"/>
</g>
<g display="none">
	<path display="inline" fill="#FFFFFF" d="M468.3196,6.0003c-26.4834-5.2126-99.5569-5.8988-121.0001-5.9873l0.0001-0.0127
		c0,0-1.0698-0.0015-3,0.0029c-1.9302-0.0044-3-0.0029-3-0.0029l0.0001,0.0127c-21.4432,0.0885-94.5167,0.7747-121.0001,5.9873
		c-315,62-219.2996,346.2155-153,442c56.1472,81.1171,248,298,248,298h58c0,0,191.8528-216.8829,247.9999-298
		C687.6192,352.2158,783.3196,68.0003,468.3196,6.0003z M449.8994,519.0879c-32.9629,26.1553-73.4727,39.2334-121.5278,39.2334
		H215.4551l-26.1558-96.9678h139.0723c49.3306,0,74.0015-16.7959,74.0015-50.3975c0-25.5176-18.082-46.7788-54.2256-63.7939
		l-144.1753-68.8984V55.6211h264.7466l-26.1553,96.3296H300.9399v65.7085l88.6743,42.104
		c32.7441,15.7397,59.2188,36.1538,79.4238,61.2432c20.1953,25.0991,30.3027,54.6528,30.3027,88.6733
		C499.3408,456.4697,482.8535,492.9316,449.8994,519.0879z"/>
</g>
</svg>
