<?xml version="1.0" encoding="utf-8"?>
<!-- Generator: Adobe Illustrator 22.1.0, SVG Export Plug-In . SVG Version: 6.00 Build 0)  -->
<svg version="1.1" xmlns="http://www.w3.org/2000/svg" xmlns:xlink="http://www.w3.org/1999/xlink" x="0px" y="0px"
	 viewBox="0 0 1000 1000" enable-background="new 0 0 1000 1000" xml:space="preserve">
<g id="Layer_1" display="none">
	<g display="inline">
		
			<image overflow="visible" width="700" height="420" id="_x38_GEApj_1_" xlink:href="C58791347F0FC4FA.jpg"  transform="matrix(2.4705 0 0 2.4705 -72.3333 -10.4)">
		</image>
	</g>
</g>
<g id="Layer_2">
</g>
<g id="Layer_2_copy">
</g>
<g id="Layer_2_copy_3">
	<g>
		<linearGradient id="SVGID_1_" gradientUnits="userSpaceOnUse" x1="454" y1="835.8527" x2="454" y2="82.6818">
			<stop  offset="0" style="stop-color:#FEFF94"/>
			<stop  offset="1" style="stop-color:#AA0E00"/>
		</linearGradient>
		<path fill="url(#SVGID_1_)" d="M578,93c-26.4833-5.2126-99.5566-5.8988-121.0001-5.9873L457,87c0,0-0.068-0.0002-0.1902-0.0002
			c-0.067-0.0001-0.1496-0.0001-0.2513-0.0001c-0.0006,0-0.0012,0-0.0019,0c-0.4836-0.0001-1.3525,0.0004-2.5566,0.0032
			c-1.2041-0.0027-2.073-0.0032-2.5566-0.0032c-0.0007,0-0.0013,0-0.0019,0c-0.1017,0-0.1843,0-0.2513,0.0001
			C451.068,86.9998,451,87,451,87l0.0001,0.0127C429.5566,87.1012,356.4833,87.7874,330,93C15,155,110.7004,439.2155,177,535
			c56.1472,81.1171,248,298,248,298h6.4788h15.3864h14.2695h15.3864H483c0,0,191.8528-216.8829,248-298
			C797.2996,439.2155,893,155,578,93z"/>
	</g>
</g>
<g id="Layer_2_copy_2" opacity="0.9">
	<path fill="#FFD496" d="M578,93c-26.4834-5.2126-99.5569-5.8988-121.0001-5.9873L457,87c0,0-1.0698-0.0015-3,0.0029
		C452.0698,86.9985,451,87,451,87l0.0001,0.0127C429.5569,87.1012,356.4834,87.7874,330,93C15,155,110.7004,439.2155,177,535
		c56.1472,81.1171,248,298,248,298h58c0,0,191.8528-216.8829,248-298C797.2996,439.2155,893,155,578,93z"/>
	<path fill="#FFBC5E" d="M552.2871,93c-20.6448-5.095-76.7933-5.8656-95.2872-5.9804L457,87c0,0-1.0778-0.0018-3,0.0049
		C452.0778,86.9982,451,87,451,87l0.0001,0.0196c-18.494,0.1148-74.6425,0.8854-95.2872,5.9804
		C104.489,155,180.8135,439.2155,233.6898,535c44.7794,81.1171,197.789,298,197.789,298h45.0424c0,0,153.0096-216.8829,197.789-298
		C727.1865,439.2155,803.511,155,552.2871,93z"/>
	<path fill="#F29D25" d="M491.2224,93c-7.1179-4.4236-24.8623-5.5872-34.2227-5.8923L457,87c0,0-1.1244-0.0046-3,0.0305
		C452.1244,86.9954,451,87,451,87l0.0003,0.1077C441.64,87.4128,423.8956,88.5764,416.7776,93
		c-99.764,62-69.4546,346.2155-48.4568,442c17.7825,81.1171,78.5444,298,78.5444,298h14.2695c0,0,60.7619-216.8829,78.5444-298
		C560.6769,439.2155,590.9863,155,491.2224,93z"/>
	<text transform="matrix(1 0 0 1 376.4639 897.8594)" display="none"><tspan x="0" y="0" display="inline" font-family="'MyriadPro-Regular'" font-size="48px">Banana</tspan><tspan x="-16.3682" y="57.5996" display="inline" font-family="'MyriadPro-Regular'" font-size="48px">Icecream</tspan></text>
</g>
<g id="Layer_5" display="none">
	<rect x="426" y="874" display="inline" fill="#FFD496" width="56" height="36"/>
</g>
</svg>
