<?xml version="1.0" encoding="utf-8"?>
<!-- Generator: Adobe Illustrator 22.1.0, SVG Export Plug-In . SVG Version: 6.00 Build 0)  -->
<svg version="1.1" id="Layer_1" xmlns="http://www.w3.org/2000/svg" xmlns:xlink="http://www.w3.org/1999/xlink" x="0px" y="0px"
	 width="688.6392px" height="746.0003px" viewBox="0 0 688.6392 746.0003" enable-background="new 0 0 688.6392 746.0003"
	 xml:space="preserve">
<g id="Layer_2_copy_3">
	<g>
		
			<linearGradient id="SVGID_1_" gradientUnits="userSpaceOnUse" x1="344.3196" y1="77.1476" x2="344.3196" y2="830.3185" gradientTransform="matrix(1 0 0 -1 0 826.0006)">
			<stop  offset="0" style="stop-color:#FEFF94"/>
			<stop  offset="1" style="stop-color:#AA0E00"/>
		</linearGradient>
		<path fill="url(#SVGID_1_)" d="M468.3196,6.0003C441.8363,0.7877,368.763,0.1015,347.3195,0.013l0.0001-0.0127
			c0,0-0.068-0.0002-0.1902-0.0002C347.0624,0,346.9798,0,346.8781,0c-0.0006,0-0.0012,0-0.0019,0
			c-0.4836-0.0001-1.3525,0.0004-2.5566,0.0032C343.1155,0.0005,342.2466,0,341.763,0c-0.0007,0-0.0013,0-0.0019,0
			c-0.1017,0-0.1843,0-0.2513,0.0001c-0.1222,0-0.1902,0.0002-0.1902,0.0002l0.0001,0.0127
			c-21.4435,0.0885-94.5168,0.7747-121.0001,5.9873c-315,62-219.2996,346.2155-153,442c56.1472,81.1171,248,298,248,298h6.4788
			h15.3864h14.2695h15.3864h6.4789c0,0,191.8528-216.8829,248-298C687.6192,352.2158,783.3196,68.0003,468.3196,6.0003z"/>
	</g>
</g>
<g id="Layer_2_copy_2" opacity="0.9">
	<path fill="#FFD496" d="M468.3196,6.0003c-26.4834-5.2126-99.5569-5.8988-121.0001-5.9873l0.0001-0.0127
		c0,0-1.0698-0.0015-3,0.0029c-1.9302-0.0044-3-0.0029-3-0.0029l0.0001,0.0127c-21.4432,0.0885-94.5167,0.7747-121.0001,5.9873
		c-315,62-219.2996,346.2155-153,442c56.1472,81.1171,248,298,248,298h58c0,0,191.8528-216.8829,248-298
		C687.6192,352.2158,783.3196,68.0003,468.3196,6.0003z"/>
	<path fill="#FFBC5E" d="M442.6067,6.0003c-20.6448-5.095-76.7933-5.8656-95.2872-5.9804l0.0001-0.0196c0,0-1.0778-0.0018-3,0.0049
		c-1.9222-0.0067-3-0.0049-3-0.0049l0.0001,0.0196c-18.494,0.1148-74.6425,0.8854-95.2872,5.9804
		c-251.2239,62-174.8994,346.2155-122.0231,442c44.7794,81.1171,197.789,298,197.789,298h45.0424
		c0,0,153.0096-216.8829,197.7889-298C617.5061,352.2158,693.8306,68.0003,442.6067,6.0003z"/>
	<path fill="#F29D25" d="M381.542,6.0003c-7.1179-4.4236-24.8623-5.5872-34.2227-5.8923l0.0003-0.1077c0,0-1.1244-0.0046-3,0.0305
		c-1.8756-0.0351-3-0.0305-3-0.0305l0.0003,0.1077c-9.3603,0.3051-27.1047,1.4687-34.2227,5.8923
		c-99.764,62-69.4546,346.2155-48.4568,442c17.7825,81.1171,78.5444,298,78.5444,298h14.2695c0,0,60.7619-216.8829,78.5444-298
		C450.9965,352.2158,481.3059,68.0003,381.542,6.0003z"/>
</g>
</svg>
