<?xml version="1.0" encoding="utf-8"?>
<!-- Generator: Adobe Illustrator 22.1.0, SVG Export Plug-In . SVG Version: 6.00 Build 0)  -->
<svg version="1.1" id="Layer_1" xmlns="http://www.w3.org/2000/svg" xmlns:xlink="http://www.w3.org/1999/xlink" x="0px" y="0px"
	 width="48.0016px" height="52px" viewBox="0 0 48.0016 52" enable-background="new 0 0 48.0016 52" xml:space="preserve">
<g id="Layer_2_copy_3" display="none">
	<g display="inline">
		
			<linearGradient id="SVGID_1_" gradientUnits="userSpaceOnUse" x1="24.0008" y1="92.901" x2="24.0008" y2="119.1506" gradientTransform="matrix(1 0 0 -1 0 132.0003)">
			<stop  offset="0" style="stop-color:#FEFF94"/>
			<stop  offset="1" style="stop-color:#AA0E00"/>
		</linearGradient>
		<path fill="url(#SVGID_1_)" d="M28.3225,13.2093c-0.923-0.1817-3.4698-0.2056-4.2171-0.2087l0-0.0004c0,0-0.0024,0-0.0066,0
			c-0.0023,0-0.0052,0-0.0088,0c0,0,0,0-0.0001,0c-0.0169,0-0.0471,0-0.0891,0.0001c-0.042-0.0001-0.0722-0.0001-0.0891-0.0001
			c0,0,0,0-0.0001,0c-0.0035,0-0.0064,0-0.0088,0c-0.0043,0-0.0066,0-0.0066,0l0,0.0004c-0.7474,0.0031-3.2941,0.027-4.2171,0.2087
			c-10.9784,2.1608-7.6431,12.0663-5.3324,15.4046c1.9568,2.8271,8.6433,10.3859,8.6433,10.3859h0.2258h0.5362h0.4973h0.5362h0.2258
			c0,0,6.6865-7.5588,8.6433-10.3859C35.9655,25.2756,39.3009,15.3701,28.3225,13.2093z"/>
	</g>
</g>
<g id="Layer_2_copy_2">
	<path fill="#9B0F00" d="M32.5989,0.5524c-1.8364-0.3614-6.9032-0.409-8.3901-0.4152l0-0.0009c0,0-0.0742-0.0001-0.208,0.0002
		c-0.1338-0.0003-0.208-0.0002-0.208-0.0002l0,0.0009c-1.4869,0.0061-6.5538,0.0537-8.3901,0.4152
		C-6.4393,4.8514,0.1965,24.5588,4.7937,31.2005C8.687,36.8251,21.99,51.8637,21.99,51.8637h4.0217
		c0,0,13.303-15.0386,17.1962-20.6632C47.8051,24.5588,54.4409,4.8514,32.5989,0.5524z"/>
	<path fill="#770B00" d="M30.816,0.5524c-1.4315-0.3533-5.3248-0.4067-6.6072-0.4147l0-0.0014c0,0-0.0747-0.0001-0.208,0.0003
		c-0.1333-0.0005-0.208-0.0003-0.208-0.0003l0,0.0014c-1.2824,0.008-5.1757,0.0614-6.6072,0.4147
		C-0.2341,4.8514,5.0582,24.5588,8.7246,31.2005c3.105,5.6246,13.7146,20.6632,13.7146,20.6632h3.1232
		c0,0,10.6096-15.0386,13.7146-20.6632C42.9435,24.5588,48.2358,4.8514,30.816,0.5524z"/>
	<path fill="#4C0700" d="M26.5818,0.5524c-0.4936-0.3067-1.7239-0.3874-2.373-0.4086l0-0.0075c0,0-0.078-0.0003-0.208,0.0021
		c-0.1301-0.0024-0.208-0.0021-0.208-0.0021l0,0.0075c-0.649,0.0212-1.8794,0.1018-2.373,0.4086
		c-6.9176,4.2991-4.816,24.0065-3.36,30.6481c1.233,5.6246,5.4462,20.6632,5.4462,20.6632h0.9894c0,0,4.2132-15.0386,5.4462-20.6632
		C31.3978,24.5588,33.4994,4.8514,26.5818,0.5524z"/>
</g>
</svg>
