<?xml version="1.0" encoding="utf-8"?>
<!-- Generator: Adobe Illustrator 22.1.0, SVG Export Plug-In . SVG Version: 6.00 Build 0)  -->
<svg version="1.1" id="Layer_1" xmlns="http://www.w3.org/2000/svg" xmlns:xlink="http://www.w3.org/1999/xlink" x="0px" y="0px"
	 width="24.0005px" height="25.9997px" viewBox="0 0 24.0005 25.9997" enable-background="new 0 0 24.0005 25.9997"
	 xml:space="preserve">
<g id="Layer_2_copy_3">
	<g>
		
			<linearGradient id="SVGID_1_" gradientUnits="userSpaceOnUse" x1="12.0003" y1="79.9009" x2="12.0003" y2="106.1505" gradientTransform="matrix(1 0 0 -1 0 106)">
			<stop  offset="0" style="stop-color:#FEFF94"/>
			<stop  offset="1" style="stop-color:#AA0E00"/>
		</linearGradient>
		<path fill="url(#SVGID_1_)" d="M16.3219,0.2091c-0.923-0.1817-3.4698-0.2056-4.2171-0.2087l0-0.0004c0,0-0.0024,0-0.0066,0
			c-0.0023,0-0.0052,0-0.0088,0c0,0,0,0-0.0001,0c-0.0169,0-0.0471,0-0.0891,0.0001C11.9583,0,11.928,0,11.9112,0c0,0,0,0-0.0001,0
			c-0.0035,0-0.0064,0-0.0088,0c-0.0043,0-0.0066,0-0.0066,0l0,0.0004c-0.7474,0.0031-3.2941,0.027-4.2171,0.2087
			C-3.2998,2.37,0.0355,12.2755,2.3462,15.6138c1.9568,2.8271,8.6433,10.3859,8.6433,10.3859h0.2258h0.5362h0.4973h0.5362h0.2258
			c0,0,6.6865-7.5588,8.6433-10.3859C23.965,12.2755,27.3003,2.37,16.3219,0.2091z"/>
	</g>
</g>
<g id="Layer_2_copy_2" opacity="0.9">
	<path fill="#9B0F00" d="M16.3219,0.2091c-0.923-0.1817-3.4698-0.2056-4.2171-0.2087l0-0.0004c0,0-0.0373-0.0001-0.1046,0.0001
		C11.933,0,11.8957,0,11.8957,0l0,0.0004c-0.7473,0.0031-3.2941,0.027-4.2171,0.2087C-3.2998,2.37,0.0355,12.2755,2.3462,15.6138
		c1.9568,2.8271,8.6433,10.3859,8.6433,10.3859h2.0214c0,0,6.6865-7.5588,8.6433-10.3859
		C23.965,12.2755,27.3003,2.37,16.3219,0.2091z"/>
	<path fill="#770B00" d="M15.4258,0.2091c-0.7195-0.1776-2.6764-0.2044-3.321-0.2084l0-0.0007c0,0-0.0376-0.0001-0.1046,0.0002
		C11.9333-0.0001,11.8957,0,11.8957,0l0,0.0007c-0.6446,0.004-2.6014,0.0309-3.321,0.2084
		C-0.1809,2.37,2.4791,12.2755,4.322,15.6138c1.5607,2.8271,6.8934,10.3859,6.8934,10.3859h1.5698c0,0,5.3327-7.5588,6.8934-10.3859
		C21.5214,12.2755,24.1815,2.37,15.4258,0.2091z"/>
	<path fill="#4C0700" d="M13.2975,0.2091c-0.2481-0.1542-0.8665-0.1947-1.1927-0.2054l0-0.0038c0,0-0.0392-0.0002-0.1046,0.0011
		C11.9349-0.0001,11.8957,0,11.8957,0l0,0.0038c-0.3262,0.0106-0.9447,0.0512-1.1927,0.2054
		C7.226,2.37,8.2823,12.2755,9.0142,15.6138c0.6198,2.8271,2.7374,10.3859,2.7374,10.3859h0.4973c0,0,2.1177-7.5588,2.7374-10.3859
		C15.7182,12.2755,16.7745,2.37,13.2975,0.2091z"/>
</g>
</svg>
