<?xml version="1.0" encoding="utf-8"?>
<!-- Generator: Adobe Illustrator 22.1.0, SVG Export Plug-In . SVG Version: 6.00 Build 0)  -->
<svg version="1.1" id="Слой_1" xmlns="http://www.w3.org/2000/svg" xmlns:xlink="http://www.w3.org/1999/xlink" x="0px" y="0px"
	 width="1000px" height="1000px" viewBox="0 0 1000 1000" enable-background="new 0 0 1000 1000" xml:space="preserve">
<g>
	<path fill="#2E7D5D" d="M500,1C224.4099,1,1,224.4099,1,500s223.4099,499,499,499s499-223.4099,499-499S775.5901,1,500,1z
		 M799.8135,799.8135c-38.9639,38.9629-84.3164,69.5459-134.7969,90.8975C612.792,912.7998,557.2725,924,500,924
		c-57.2729,0-112.7925-11.2002-165.0171-33.2891c-50.4805-21.3516-95.8325-51.9346-134.7964-90.8975
		c-38.9634-38.9639-69.5459-84.3164-90.8975-134.7969C87.2002,612.792,76,557.2725,76,500
		c0-57.2729,11.2002-112.7925,33.2891-165.0171c21.3516-50.4805,51.9341-95.8325,90.8975-134.7964
		c38.9639-38.9634,84.3159-69.5459,134.7964-90.8975C387.2075,87.2002,442.7271,76,500,76
		c57.2725,0,112.792,11.2002,165.0166,33.2891c50.4805,21.3516,95.833,51.9341,134.7969,90.8975
		c38.9629,38.9639,69.5459,84.3159,90.8975,134.7964C912.7998,387.2075,924,442.7271,924,500
		c0,57.2725-11.2002,112.792-33.2891,165.0166C869.3594,715.4971,838.7764,760.8496,799.8135,799.8135z"/>
</g>
<g>
	<polygon fill="#2E7D5D" points="552.028,428.1412 552.028,428.1412 552.0281,428.1413 	"/>
	<polygon fill="#2E7D5D" points="547.8963,423.1546 546.614,421.4449 543.7645,422.7272 542.9097,424.7218 542.7673,427.8562 
		543.4797,429.4235 546.4716,430.9907 548.3237,429.1385 550.1758,429.1385 552.028,428.1412 549.606,426.4316 550.3184,424.0095 	
		"/>
	<polygon fill="#2E7D5D" points="554.5925,434.9799 556.1597,436.4047 556.4446,438.8267 561.2888,438.9692 561.1464,437.2596 
		554.4501,433.5552 	"/>
	<polygon fill="#2E7D5D" points="507.1488,426.4315 509.1435,427.4288 511.708,427.4288 510.7106,425.5767 508.2886,425.0068 	"/>
	<polygon fill="#2E7D5D" points="531.3693,400.7863 530.087,402.0685 531.0844,403.3508 532.5091,402.4959 	"/>
	<polygon fill="#2E7D5D" points="485.6352,418.738 485.6351,418.738 485.6351,418.7381 	"/>
	<polygon fill="#2E7D5D" points="504.7267,413.7514 503.7294,414.0364 500.1676,418.1681 502.1622,420.3051 	"/>
	<polygon fill="#2E7D5D" points="488.9121,399.0768 486.9174,397.3671 488.6271,396.6547 491.4766,396.7972 493.1863,389.5311 
		494.7535,388.2487 496.7482,389.816 498.0305,389.816 501.7347,387.8214 502.7321,384.6869 501.3073,383.1198 495.4659,383.1198 
		491.9041,380.9826 491.6191,373.0041 493.6138,369.4422 494.8961,368.0175 494.8961,363.7433 493.1864,361.3212 494.3262,357.7594 
		490.052,360.1814 485.3503,360.8938 483.2133,363.0309 479.224,368.16 475.2348,370.0121 469.6783,369.8696 467.3987,370.7245 
		464.2643,370.7245 461.4148,373.4315 459.1352,376.1385 458.9927,378.1331 462.412,380.1277 464.5492,379.1304 467.2562,378.8455 
		468.6809,375.4261 470.5331,372.7191 472.3852,372.1492 474.6647,372.8615 474.2373,379.2729 471.9578,377.4207 469.1083,378.5605 
		466.8287,380.8401 465.9739,383.5471 463.8368,382.2649 459.42,381.1251 457.5679,381.2675 457.4255,391.0982 458.8502,394.3751 
		458.1378,402.3536 461.6997,404.3483 466.2589,406.2004 467.5411,411.7568 465.9739,412.1842 467.1136,414.1789 467.826,417.1708 
		471.6728,417.3133 479.0815,419.1655 483.4981,418.1681 485.6351,418.738 483.783,414.6064 480.5061,414.179 481.3609,412.6117 
		483.498,410.7596 483.783,409.4774 482.2158,404.6332 487.06,400.2166 	"/>
	<polygon fill="#2E7D5D" points="485.7778,413.7514 486.6326,417.0283 489.0546,417.7406 490.7643,417.4557 489.6246,415.3187 	"/>
	<polygon fill="#2E7D5D" points="528.5198,415.8885 531.7968,415.746 529.3746,414.4638 527.665,414.1788 525.3854,415.6035 
		525.8128,417.3132 	"/>
	<polygon fill="#2E7D5D" points="497.1756,398.5067 498.4579,398.5067 499.3127,396.5121 497.1756,394.2325 	"/>
	<polygon fill="#2E7D5D" points="499.8827,414.0363 502.4472,412.3266 502.5896,408.3373 499.3127,402.211 497.1757,403.3508 
		493.4714,402.211 486.6327,404.2057 486.7751,407.4825 489.1972,411.6142 496.8908,414.0363 	"/>
	<polygon fill="#2E7D5D" points="567.5575,408.7648 566.8451,410.047 566.7027,412.8965 570.1221,414.3212 573.5414,414.6062 
		573.9688,412.0417 	"/>
	<polygon fill="#2E7D5D" points="523.8182,419.023 523.8182,411.0445 527.5224,410.0471 528.9471,409.0498 528.2348,406.9127 
		525.3853,405.203 526.9525,402.6385 529.8019,401.6411 530.7993,400.6438 530.6569,398.5067 530.6567,398.5068 529.6594,395.6573 
		530.2293,392.6654 525.9551,391.3831 524.3879,391.5256 518.8314,394.6601 520.1137,396.2272 518.5465,400.359 516.267,399.6466 
		516.1245,395.9423 514.9847,394.9449 512.4202,395.2299 512.4202,396.5122 510.2831,399.2191 505.8665,399.5041 505.2966,401.4988 
		507.1487,402.3536 508.5735,405.2031 508.431,408.1951 510.5681,410.7596 513.7026,410.617 516.552,411.187 518.4042,415.6036 
		518.5466,416.8859 520.6837,419.8778 	"/>
	<polygon fill="#2E7D5D" points="519.259,421.8723 518.6891,419.1654 515.2697,418.738 512.2778,417.3132 512.2778,417.3131 
		510.4257,416.0309 507.1488,416.3159 507.0064,419.8777 514.2725,422.8697 	"/>
	<polygon fill="#2E7D5D" points="689.5149,331.6865 686.5229,331.2591 685.9531,329.9768 684.1009,329.8344 682.3912,332.1139 
		675.9799,332.6839 677.832,333.6812 681.9638,334.3936 684.6708,337.9554 686.5229,337.528 687.8053,335.2484 689.0876,336.1033 
		690.2274,335.1059 690.2272,335.1058 690.7972,333.1113 	"/>
	<polygon fill="#2E7D5D" points="678.4021,353.6275 680.6817,352.9151 681.964,348.9259 683.3887,347.6436 685.3834,347.3586 
		689.0876,347.5012 689.5151,346.7888 694.7866,343.227 697.3511,342.2296 691.6522,339.6651 686.0958,339.3802 681.5366,340.235 
		680.8242,341.6597 677.9747,342.3721 676.55,341.6597 674.4129,341.9446 676.6924,344.2243 675.4102,346.7888 678.1172,347.7861 
		680.2543,349.7807 677.9747,352.3452 	"/>
	<polygon fill="#2E7D5D" points="697.351,338.8102 694.644,338.0978 693.2192,339.5226 696.6387,341.0898 697.921,340.8049 	"/>
	<polygon fill="#2E7D5D" points="667.5741,303.1918 670.566,304.0467 670.5661,304.0467 668.8564,302.052 	"/>
	<polygon fill="#2E7D5D" points="697.636,210.5839 696.2112,208.7318 693.3618,209.5867 693.6467,210.8689 695.4989,211.2963 	"/>
	<polygon fill="#2E7D5D" points="675.2677,307.6086 676.1225,303.6193 673.2731,303.3343 671.9908,305.044 	"/>
	<polygon fill="#2E7D5D" points="659.1681,301.1972 661.3052,300.1999 658.7407,298.7751 	"/>
	<polygon fill="#2E7D5D" points="210.3762,360.0388 208.6665,358.7565 203.8225,359.7538 203.5375,360.4662 206.672,361.891 
		208.8091,361.891 	"/>
	<polygon fill="#2E7D5D" points="204.6773,368.3023 205.2472,370.2969 207.3843,370.5819 207.2419,365.3104 204.9622,365.0254 	"/>
	<polygon fill="#2E7D5D" points="224.0536,359.4688 221.9165,360.4661 217.9272,361.321 217.4998,363.0307 215.5052,363.8855 
		216.7875,365.4528 220.6343,366.1652 222.344,368.8721 225.051,369.2995 227.0456,368.8721 227.3306,372.0066 228.3279,372.1491 
		233.0295,368.3023 232.4597,367.4474 229.6102,367.5899 225.4784,366.4501 225.6209,362.4609 225.6208,362.4608 225.3359,360.8936 
			"/>
	<polygon fill="#2E7D5D" points="219.2097,397.5094 218.9247,400.2163 220.9193,398.7916 222.0591,402.211 225.4785,400.3589 
		224.4812,395.5147 221.3468,397.082 	"/>
	<polygon fill="#2E7D5D" points="240.1532,401.0712 237.5887,400.0739 236.3065,402.0685 237.1613,404.918 240.8655,405.6304 
		241.0081,402.9233 	"/>
	<polygon fill="#2E7D5D" points="229.8951,393.9475 230.0377,391.6679 227.6156,393.0926 225.336,396.2271 226.9032,397.9368 	"/>
	<polygon fill="#2E7D5D" points="251.5511,454.6413 256.3952,451.9343 254.5431,450.652 254.543,450.652 252.6908,448.6573 
		250.1263,448.6573 248.4166,449.3697 248.5592,452.0768 249.8414,453.7865 	"/>
	<polygon fill="#2E7D5D" points="212.2283,347.5012 211.0885,348.4985 211.3735,352.2028 214.3655,353.6275 210.6611,356.0496 
		212.6558,357.4743 217.215,354.055 221.4892,351.7754 221.7741,349.3533 223.1989,348.356 225.4784,344.6517 225.4783,344.6517 
		224.9084,341.8022 215.9326,346.3614 216.9299,348.0711 214.223,348.4985 	"/>
	<polygon fill="#2E7D5D" points="230.8925,383.6895 227.9006,382.8346 225.4785,380.4125 222.4865,381.1249 222.0591,382.4072 
		224.7661,383.6894 223.9112,387.9636 230.4651,386.8239 230.4651,386.8239 	"/>
	<polygon fill="#2E7D5D" points="303.1265,304.1891 300.847,306.1838 301.4168,307.466 303.8389,307.0386 304.5513,308.6059 
		303.2691,312.7375 304.4088,313.3075 305.8336,310.8854 306.1185,308.6058 307.9707,303.1918 306.5459,302.4794 304.2663,299.9149 
		304.2664,299.9149 302.5567,298.7751 300.4196,301.0547 301.9868,301.3397 	"/>
	<polygon fill="#2E7D5D" points="277.0539,332.8263 279.0485,333.8236 279.9034,331.8291 276.0565,330.9742 276.1991,329.4069 
		274.4894,328.6945 272.0673,328.8371 271.4974,331.829 274.2044,333.2537 	"/>
	<polygon fill="#2E7D5D" points="308.2556,297.7778 306.4034,298.6327 308.3981,300.4849 	"/>
	<polygon fill="#2E7D5D" points="279.9034,328.1247 281.3281,327.6973 277.4813,324.4204 276.9113,325.5602 279.3334,326.415 	"/>
	<polygon fill="#2E7D5D" points="302.4142,505.3619 298.8523,506.9291 298.8523,507.6415 302.4142,509.3512 304.2663,509.0662 
		306.5459,507.2141 305.2636,506.2167 	"/>
	<polygon fill="#2E7D5D" points="231.035,365.168 233.3145,366.0228 234.7393,368.1599 234.1694,370.8669 231.7474,373.8589 
		229.6103,375.1412 231.7474,376.1385 229.3253,377.7057 226.7608,377.9906 228.1855,381.2675 229.3253,382.2649 232.7446,382.8348 
		234.1694,382.1224 240.0108,378.2756 236.8764,383.2622 234.4543,388.6761 233.0296,392.8078 232.6022,397.937 233.457,398.3643 
		231.4624,401.9262 229.8951,407.4826 231.8898,408.195 233.457,406.9128 236.449,398.7917 236.3065,394.0901 238.4436,392.0955 
		239.2984,392.6654 238.871,395.5149 241.4356,394.2326 245.5672,392.9504 248.2743,394.6601 246.1372,395.2299 244.9974,396.6547 
		244.57,400.359 247.2769,402.4961 247.9893,404.4907 247.1345,406.2004 243.0027,411.8994 241.293,415.3188 239.4409,415.3188 
		239.8683,418.0257 243.5727,421.5875 245.1398,418.3107 250.1264,420.1628 253.6883,418.5956 255.2555,418.4531 256.3953,419.7354 
		259.3872,419.7354 262.2367,417.8833 266.0835,416.1736 268.0782,415.8886 270.7851,417.0284 267.5082,419.8778 265.2287,424.2945 
		265.6561,426.2892 269.6453,431.4182 272.0674,433.5553 275.0593,432.7005 277.4814,433.4128 276.484,437.1171 274.3469,438.2569 
		274.2045,441.1064 275.9142,441.9612 273.6346,445.0957 273.4921,448.515 271.7824,449.0849 272.9222,452.0768 269.0754,450.2247 
		263.8039,451.222 261.0968,451.0796 255.9678,452.9317 252.2634,455.3538 250.8387,457.3484 246.8495,459.9129 247.8468,461.4802 
		251.6936,459.7704 255.9678,459.343 255.5404,461.4802 256.8227,463.9022 256.1103,465.8968 256.5377,468.7463 254.828,472.0232 
		250.8388,474.7302 247.7043,475.7275 242.2904,478.1496 238.7285,479.0044 237.1613,480.0017 236.7339,481.9964 238.0162,485.2733 
		241.7204,486.983 246.8495,484.5609 250.5538,484.5609 253.9732,486.983 254.9706,488.2652 257.9625,487.6953 260.9545,488.8351 
		264.2314,491.5421 268.7905,492.112 274.2045,488.8351 280.9008,487.4104 275.7717,491.6846 273.0647,495.1039 271.4975,496.1012 
		267.3658,496.2437 263.3765,495.5314 259.3873,495.5314 253.5458,496.3862 251.5512,499.948 247.7044,500.9454 246.5647,505.3621 
		240.0108,510.7761 236.8764,514.053 233.3145,516.7599 229.3253,517.7573 227.9006,519.182 228.328,521.0341 231.6048,519.8943 
		233.5995,520.3218 235.1667,521.6041 237.0188,521.3191 238.3011,519.182 243.8575,515.7626 247.7043,514.7653 251.2662,514.3378 
		253.4033,513.6255 259.8146,517.1873 261.8093,516.9023 263.3764,515.1926 265.2286,510.2061 266.6533,508.3539 273.6346,506.6442 
		277.3388,506.7867 281.1856,508.7813 283.1803,509.0663 284.605,508.3539 290.019,509.0663 291.3012,508.4965 290.019,506.3593 
		292.8685,506.6443 298.8524,505.9319 302.8417,503.5099 305.4062,503.7948 311.3901,505.5045 317.089,504.6497 321.2207,504.5072 
		328.202,505.647 336.323,502.9399 337.8901,501.9426 341.0246,502.0851 342.4493,499.5206 347.8633,497.0986 348.4332,496.5286 
		348.7182,492.6818 346.0112,492.3969 339.8848,492.6818 336.323,492.112 334.7558,489.2625 338.3176,488.9775 339.8848,488.1227 
		339.8848,485.7006 337.4627,484.8458 340.8821,483.1361 343.3042,483.5635 346.2961,482.2812 347.0085,479.8591 350.9977,477.1522 
		354.1322,468.8887 353.5623,464.472 352.565,462.9048 347.8634,459.9128 342.4494,458.4881 336.4655,458.0607 334.0434,458.3456 
		331.1939,461.3376 329.4843,461.6226 325.495,459.6279 329.7692,455.7811 330.624,454.214 329.1993,450.3671 326.9197,447.5177 
		319.7961,442.8161 320.2234,441.8187 323.5003,443.8133 325.3525,443.9558 324.9251,441.6762 321.9331,437.5445 321.3632,435.8348 
		323.3578,433.6977 318.5138,430.2783 313.6696,425.5767 312.1024,424.7219 305.6911,422.4423 303.4115,419.8777 301.2744,414.4638 
		298.2825,404.6331 297.5701,403.0659 294.7206,400.9288 289.5916,396.0847 282.1829,393.3777 278.3361,393.5202 274.9168,394.9449 
		269.7877,393.3777 272.7797,392.3803 276.0565,389.9583 279.4759,389.8159 281.4705,387.2513 275.0592,384.5443 279.4759,383.8319 
		282.4679,382.2648 285.3173,378.7029 288.0243,375.8535 290.8737,370.8669 292.0135,367.59 296.0028,362.7458 294.578,360.3238 
		291.3011,358.4716 288.5942,358.899 278.7635,358.6141 275.0592,359.0415 269.9301,358.3291 262.379,360.4662 258.1048,361.0362 
		258.9597,358.899 262.0941,356.6194 261.8092,355.4796 259.8145,355.3372 260.5269,353.0576 264.0887,351.2054 270.0726,347.2162 
		273.2071,345.5065 275.0592,343.227 275.0592,341.5172 275.0594,341.5175 275.9142,339.0954 272.6373,338.8105 269.5029,339.3803 
		263.0916,340.2352 257.82,340.6626 253.8308,341.5174 252.976,340.3777 249.2716,341.6599 247.8469,340.3777 245.9947,340.0927 
		243.7152,341.375 243.2878,344.2245 244.4276,346.789 239.156,347.2164 238.1587,351.3481 241.4356,354.1975 238.7285,354.7675 
		234.4543,354.6249 232.1748,359.0417 233.1721,361.1788 230.75,363.8857 	"/>
	<polygon fill="#2E7D5D" points="274.2044,335.8183 272.6372,333.5388 270.5001,333.9662 272.3523,335.9608 	"/>
	<polygon fill="#2E7D5D" points="749.4964,822.5082 748.7841,823.9329 749.7814,827.0674 751.7761,826.7824 751.7759,826.7824 
		752.4883,825.5001 	"/>
	<polygon fill="#2E7D5D" points="771.7224,795.2956 773.1471,795.8655 773.1471,795.8654 773.8594,794.2983 772.2923,793.5859 	"/>
	<polygon fill="#2E7D5D" points="791.2411,732.4648 791.2411,732.4648 791.2411,732.4648 	"/>
	<polygon fill="#2E7D5D" points="786.8245,731.1826 789.2465,733.0347 791.2411,732.4648 788.8191,730.4702 	"/>
	<polygon fill="#2E7D5D" points="788.6768,806.2661 788.1068,807.9758 789.959,808.9731 791.2413,807.121 790.244,805.4113 	"/>
	<polygon fill="#2E7D5D" points="785.1148,742.8654 783.975,741.7256 780.8406,741.8681 781.268,745.145 786.682,746.1423 
		786.8245,744.2902 787.8218,742.2955 787.8218,742.2955 786.5396,741.5831 	"/>
	<polygon fill="#2E7D5D" points="779.1309,788.5994 782.5502,791.5913 784.5449,791.7338 783.5475,788.4569 781.6954,788.3145 
		780.4131,786.6047 	"/>
	<polygon fill="#2E7D5D" points="706.4695,789.7392 705.1873,788.0295 703.905,789.5967 705.6146,792.1612 707.8942,793.8708 
		709.4614,792.4461 708.8914,790.7365 	"/>
	<polygon fill="#2E7D5D" points="774.2868,728.1906 774.2868,726.1959 772.8621,724.3438 771.0099,724.2013 769.4427,727.4782 
		772.0073,729.0453 	"/>
	<polygon fill="#2E7D5D" points="808.908,848.5811 806.486,849.4359 805.4886,850.4332 803.7789,850.1482 803.6365,846.159 
		803.0666,845.5891 798.3649,846.5864 795.0881,845.874 791.3838,845.5891 789.3891,844.1643 784.1176,843.8793 779.131,845.1616 
		776.7089,845.3041 773.5745,840.0325 771.1524,841.4573 767.8755,841.4573 767.8757,841.4573 765.1686,839.8902 764.5987,841.8848 
		762.604,841.4575 762.319,844.1645 762.889,846.729 764.4562,848.1537 768.8728,847.8688 771.0099,848.4387 779.8433,849.8634 
		784.5449,851.4306 785.5422,854.5651 786.5396,854.85 794.0906,854.2801 805.631,852.8553 811.8998,852.9978 813.1821,852.4279 
		813.7521,847.4413 811.4725,848.5811 	"/>
	<polygon fill="#2E7D5D" points="751.0636,763.3814 748.0717,764.0938 745.3646,765.9459 746.2195,766.9432 750.4937,768.5104 
		752.6308,770.0776 755.4802,772.7846 757.6174,774.0669 758.4722,776.489 760.6093,777.4863 765.7383,777.7713 768.8727,781.9031 
		769.4426,783.7552 772.4346,786.0347 775.1416,787.032 776.4239,785.8923 775.8539,783.1852 772.0071,782.7579 770.44,781.4756 
		768.3029,776.0616 768.5878,775.2068 766.1658,771.5025 762.1765,771.0751 754.3405,767.5132 753.0582,765.0912 753.0583,765.0911 
			"/>
	<polygon fill="#2E7D5D" points="708.8914,790.7365 708.8914,790.7365 708.8916,790.7365 	"/>
	<polygon fill="#2E7D5D" points="805.7734,755.5454 802.4965,755.8304 802.4965,756.6852 800.0745,757.825 797.9374,757.6826 
		796.9401,759.6772 798.2224,760.9595 801.3568,761.9568 803.0665,759.8197 804.3488,760.5321 802.0692,762.3842 803.209,763.524 
		808.908,764.6638 810.6177,761.6719 809.6203,760.2471 806.9133,758.11 807.0557,756.8277 	"/>
	<polygon fill="#2E7D5D" points="814.7493,791.3063 816.459,793.0161 818.8811,794.2983 821.1606,793.0161 822.158,791.5913 
		818.1688,790.594 	"/>
	<polygon fill="#2E7D5D" points="828.2844,810.8254 824.7226,812.2501 822.8704,813.8173 822.8704,814.8146 824.2952,813.8173 
		826.4323,813.6748 829.9941,811.6802 	"/>
	<polygon fill="#2E7D5D" points="841.5344,823.363 838.2576,827.2098 839.2549,829.4894 838.685,832.0539 841.1071,832.6238 
		841.1071,832.6239 843.1017,829.9169 845.3812,829.6319 844.8113,828.2072 846.0936,826.355 847.3759,822.7932 846.0936,821.5109 	
		"/>
	<polygon fill="#2E7D5D" points="827.4296,840.0325 829.7092,843.0245 829.7092,843.0245 830.7065,842.7396 828.9968,839.3202 	"/>
	<polygon fill="#2E7D5D" points="802.2117,782.7579 803.7789,781.4756 803.7789,781.4756 804.7762,779.6235 804.2064,775.9193 
		803.3515,774.2095 801.4994,772.9272 798.5074,773.6396 798.6499,775.0643 801.6418,778.4837 799.6472,780.3359 	"/>
	<polygon fill="#2E7D5D" points="810.6177,818.804 811.9,819.6588 814.037,817.949 813.3247,817.0942 	"/>
	<polygon fill="#2E7D5D" points="795.5155,804.2714 792.8085,807.1209 794.8031,810.2553 796.3703,809.4005 796.3703,809.4005 
		796.9402,807.8333 796.7978,805.2687 	"/>
	<polygon fill="#2E7D5D" points="807.1982,794.4409 804.9187,794.5833 804.0639,796.8629 807.1982,796.0081 	"/>
	<polygon fill="#2E7D5D" points="704.0472,768.653 702.48,768.2255 701.3403,771.645 701.9102,772.9272 703.7623,772.7848 
		703.7623,772.7847 704.3322,772.2148 	"/>
	<polygon fill="#2E7D5D" points="687.6628,750.274 686.5231,749.2766 688.0902,747.567 686.0956,745.8572 683.816,746.4272 
		682.8187,747.9943 685.9531,751.1288 687.6628,753.8358 689.3726,754.9756 691.2247,754.5482 688.9451,753.6934 	"/>
	<polygon fill="#2E7D5D" points="706.4694,783.1852 704.6172,780.9057 703.3349,780.4783 702.9075,777.9139 701.1979,779.0536 
		699.2032,778.9111 698.3484,781.4756 700.2006,781.1907 701.7678,784.0402 703.1925,783.7552 706.1844,784.895 	"/>
	<polygon fill="#2E7D5D" points="702.9075,777.9138 702.9075,777.9139 702.9076,777.9138 	"/>
	<polygon fill="#2E7D5D" points="653.3267,684.1664 644.4933,678.7524 643.6385,677.4702 641.359,677.6126 641.359,677.6127 
		633.0955,674.7632 633.8079,676.0455 639.9343,678.895 644.3509,679.8923 650.6198,683.4542 657.4585,687.8708 655.7488,685.1638 	
		"/>
	<polygon fill="#2E7D5D" points="632.3832,672.626 623.4073,671.4863 622.6949,670.6314 620.1305,670.3465 620.8428,672.1986 
		623.2649,672.626 631.2434,672.7684 	"/>
	<polygon fill="#2E7D5D" points="580.3802,638.5748 581.6625,638.7173 581.6626,638.7173 580.6652,634.1581 580.8077,631.8785 
		579.3829,630.5963 578.6706,627.6043 577.3883,628.0317 578.5281,630.8812 577.9581,632.5909 	"/>
	<polygon fill="#2E7D5D" points="587.6463,636.5801 586.0792,634.728 584.9394,636.2952 587.6464,636.5802 	"/>
	<polygon fill="#2E7D5D" points="584.7969,632.1635 586.934,631.7361 586.934,631.736 582.2324,626.322 581.5201,628.0317 
		580.0953,629.0291 581.5201,630.4537 583.3722,630.7387 	"/>
	<polygon fill="#2E7D5D" points="593.0605,643.7039 589.0712,639.8571 589.4987,642.564 594.2003,646.4108 594.6276,645.841 	"/>
	<polygon fill="#2E7D5D" points="622.9799,675.4756 624.6896,677.3277 626.2567,676.0454 622.9799,675.4755 	"/>
	<polygon fill="#2E7D5D" points="625.5444,667.6395 618.7057,666.7846 618.2783,668.3518 621.9826,669.4916 624.8321,669.3491 	"/>
	<path fill="#2E7D5D" d="M158.8009,483.7059l-4.5592,2.707l0.8549,0.8548l1.9946-0.7124l5.414-0.8548l-2.2795,1.8521l-2.2796,2.5645
		l1.7097,0.1424l4.7016-1.1398l2.707,0.7124l8.2635-1.9946l1.4247-0.9973l2.5645-0.4274l4.1317-1.8521l-0.285-2.992l1.4247-0.285
		l2.4221,1.7097l3.2769-1.1398l1.4247-1.4247l3.5618-0.9973l2.4221-2.5645l5.2715-0.9973l5.5565-0.285l1.8521-1.1398l3.7043,0.4274
		l3.9892-1.1398l-2.2795-2.1371l2.1371-1.2822l2.2795-2.992l0.285-2.5645l1.2823-2.9919l1.8521-2.5645l-0.1425-3.5619
		l-1.2822-4.5592v-5.8415l-0.8549-1.2822l-2.1371-7.4087l3.1344-0.5699l-0.9973-1.5672h0.0001h0.0001l3.2769,0.7124l1.4247-0.7124
		l1.9946-3.1344l3.7044-0.8548l0.8548-1.9947l-1.5672-0.285l0.1424-1.9946l2.992-0.4274l-1.7097-3.5618l-4.9866-0.4274
		l2.8495-1.5673v-1.2822l-2.4221-1.9947l-1.8521-2.4221l-0.7124-2.4221l-1.5673-1.5672l-5.5564-0.4274l-3.8468,0.9973
		l-3.9892,0.1424l-2.707,2.8495l-1.8521-0.8548l-1.4247,0.6748l1.4247-0.6749l0.7124-0.9973l3.5618-2.1371l-4.5592-2.4221
		l-0.8548,1.1398l-2.707,0.4274l-1.2822,1.8521l0.7124,2.992l-1.7097,1.1398l-0.8549-1.2823l1.4247-1.4247l-1.7097-2.8495
		l-2.2795,1.2823h-3.4194l-4.4166,1.1398l-2.4221,3.8468l0.4274,1.5672l-2.707,2.2796l-2.9919,0.9973l-0.9973,1.1398l5.129,1.4247
		l5.2715-0.5699l-1.7097,2.8495l-5.414,2.1371l-0.8548,3.7044l-6.8387-1.2823l-2.4221,1.7097l-2.707-1.8521l-6.6963-0.1425
		l-1.7097,0.7124l-3.9892,0.285l1.2823,1.4247l0.5698,2.4221l1.1398,1.4247l-1.1398,2.9919l2.8495-0.5699l2.8495,0.285
		l-0.1424,1.5672l-2.8495,0.5699l-2.707,1.1398l0.285,2.8495l-3.9893,0.8548l0.8549,1.5673l-0.7124,1.4247l4.9866,0.285
		l-0.5699,1.7097l3.7044-0.1425l1.9946,1.8521l5.5565-0.285l2.2795,1.8521l-5.129,1.4247l-2.8495,3.2769l1.1398,0.9973
		l-2.2796,2.4221l-3.8468,2.8495h2.992l2.707,0.7124l3.7044-0.4274l3.2769-2.5645l3.4193,1.7097l-4.7016,1.1398l-4.7016,0.9973
		l-4.2742,0.4274l-5.5564,3.2769l0.8548,2.4221l-1.5672,1.1398l-2.1371-0.8548l-2.5645,0.1425l-2.4221,1.4247l-0.7124,1.5673
		l7.2661-0.1425l0.1425,1.2823l-3.4194,1.2822l-4.1317,3.2769l0.5698,1.4247l4.2742,0.5699L158.8009,483.7059z M218.9247,434.8714
		l-0.5698,0.1085h-0.0001L218.9247,434.8714z M207.9543,427.5713L207.9543,427.5713l-2.2795,1.9196L207.9543,427.5713z
		 M205.2473,429.8508l0.7124,1.2823l-3.4193,2.5645h-0.0001l3.4193-2.5645L205.2473,429.8508L205.2473,429.8508z M196.8414,421.16
		l3.1344-1.1398l-0.0001,0.0001L196.8414,421.16l-2.2796-0.1425l0,0L196.8414,421.16z M195.7015,424.1519L195.7015,424.1519
		l-2.8494,0.8844L195.7015,424.1519z"/>
	<polygon fill="#2E7D5D" points="510.4257,679.3223 506.2939,679.6072 507.8611,681.1744 511.4229,680.462 510.9955,678.4676 	"/>
	<polygon fill="#2E7D5D" points="609.1597,779.9086 606.3102,781.6183 605.1705,781.3334 602.321,783.0431 597.3344,782.6157 
		595.3398,783.0431 593.6301,784.4678 591.208,785.3226 587.2188,786.035 582.9445,785.4651 578.1004,786.8898 576.1057,786.3199 
		572.5439,784.0403 570.5492,783.6129 569.8369,782.3306 566.4175,782.1882 564.4228,784.4677 561.8583,785.6075 558.5814,782.3306 
		557.2991,784.0403 555.3044,785.1801 553.4523,790.4517 555.3044,793.7285 558.5813,796.0081 562.7131,796.0081 564.8502,797.4328 
		567.2723,798.0027 570.9766,800.9946 575.2507,802.9893 579.3825,805.6964 581.3772,806.4087 585.6514,806.4087 589.9256,809.2582 
		592.6326,813.2474 597.9042,815.2421 599.8989,814.8147 604.0306,815.6695 603.8882,813.5324 604.4581,811.1103 607.0226,808.4033 
		606.8802,806.5511 604.6006,803.9866 605.598,803.2743 603.3184,801.2796 602.891,798.4301 605.0281,791.164 609.0174,785.0377 
		610.7271,781.4758 610.7269,781.4758 	"/>
	<polygon fill="#2E7D5D" points="510.9955,678.4674 510.9955,678.4676 510.9956,678.4675 	"/>
	<polygon fill="#2E7D5D" points="499.1702,722.3492 499.1704,722.3492 497.7457,721.2095 498.743,719.2148 497.4607,718.5024 
		495.751,716.3654 492.6165,715.2256 491.6192,713.9433 489.4821,716.5078 487.4875,717.2202 484.4955,720.782 480.0789,722.9191 
		478.2267,723.3465 473.3826,722.4917 473.2402,727.3358 476.3746,730.7552 477.5144,734.0321 478.6542,735.3144 478.7966,739.0187 
		477.7993,741.0134 477.7993,743.7204 480.3638,745.4301 480.3638,747.8522 478.7966,747.9946 478.7966,751.5565 477.9417,753.4086 
		478.5116,759.5349 481.9309,764.9489 482.9283,765.8037 487.2025,766.0887 489.767,763.0968 490.1944,758.8226 491.9041,759.6774 
		494.0412,759.2499 498.173,760.9597 499.4553,760.3897 500.3101,756.258 501.1649,739.8735 500.0251,735.8843 501.8773,733.0348 
		502.7321,730.7552 500.1676,723.6315 	"/>
	<polygon fill="#2E7D5D" points="490.3369,583.5799 490.4794,586.002 492.1891,586.1445 492.1891,586.1444 492.6165,585.0046 
		491.0493,581.4428 	"/>
	<polygon fill="#2E7D5D" points="514.9847,153.0246 514.4149,150.8875 512.8477,151.8848 511.2805,155.5892 513.4176,154.5918 	"/>
	<polygon fill="#2E7D5D" points="683.6736,96.605 686.0956,96.7476 691.2247,96.0352 688.0902,94.0405 682.8188,93.3282 
		680.8241,94.0405 	"/>
	<polygon fill="#2E7D5D" points="508.8585,188.5005 509.0009,190.0678 509.001,190.0677 511.2806,189.4979 511.708,187.3608 
		510.2832,186.7908 	"/>
	<polygon fill="#2E7D5D" points="500.4525,197.049 500.3101,198.6162 503.1595,198.1887 503.1595,198.1887 503.017,196.6216 	"/>
	<polygon fill="#2E7D5D" points="540.9151,135.2154 538.493,134.788 537.7806,137.2101 534.0764,136.6402 531.7968,138.6348 
		534.0764,140.202 537.2108,139.3472 539.4904,140.6294 544.192,140.487 545.9017,139.4897 546.329,137.3525 543.1946,134.3605 
		543.1947,134.3606 541.485,133.0783 	"/>
	<polygon fill="#2E7D5D" points="585.7942,118.831 583.3721,122.6778 585.5092,123.1052 592.6329,122.3928 592.7753,121.253 
		596.9071,117.9761 599.7566,117.8336 600.8964,116.1239 602.891,114.9842 601.3239,113.5594 599.1867,114.2718 597.762,113.2745 
		596.6223,109.8552 594.6276,111.2799 593.7728,113.7019 590.2109,116.5513 590.6383,117.6912 588.2162,118.831 	"/>
	<polygon fill="#2E7D5D" points="663.2999,103.8712 663.7273,102.304 659.1681,100.5943 658.0283,101.0218 658.3133,103.3013 
		660.7354,104.5836 	"/>
	<polygon fill="#2E7D5D" points="608.4475,112.9895 606.5954,110.71 604.6007,110.425 602.3212,110.425 605.1707,112.9895 	"/>
	<polygon fill="#2E7D5D" points="653.7542,108.8578 658.4557,105.8658 657.7433,104.2986 657.7435,104.2986 656.4612,103.0163 
		652.6144,105.011 651.3322,104.8685 648.6251,106.1508 648.4827,107.2906 651.4745,109.0003 	"/>
	<polygon fill="#2E7D5D" points="525.5278,147.1833 520.8262,147.4681 519.4014,149.1778 517.5493,149.1778 516.267,150.6026 
		516.8369,152.3123 519.1165,151.8849 521.8235,150.4601 524.5305,150.1752 526.0977,149.0354 528.0923,148.6079 528.8047,147.4681 
		525.5278,147.1832 	"/>
	<polygon fill="#2E7D5D" points="532.6514,148.8929 536.6406,148.4655 540.7724,146.3284 542.4821,146.8983 544.4767,146.3284 
		545.759,145.0462 548.1811,146.3284 551.6005,145.4736 552.5978,144.4762 554.8774,144.7612 558.4392,141.9117 562.8559,140.202 
		563.1408,138.6348 561.8585,136.9251 559.579,135.5004 557.0145,136.2128 556.1597,139.3471 554.0226,139.9171 552.1704,141.4842 
		552.1703,141.4842 554.1649,138.3499 553.3101,134.9305 551.7429,132.7934 554.0225,131.0837 555.5897,129.0891 554.3074,127.5218 
		552.1703,127.9493 550.3181,129.9439 546.8987,132.366 546.6138,134.788 548.4659,135.6429 547.6111,136.9251 547.0411,140.487 
		542.9094,143.7639 535.6432,144.6187 531.2266,147.3257 	"/>
	<polygon fill="#2E7D5D" points="613.8615,111.5648 614.8588,112.9895 617.4233,113.417 619.2755,112.8471 619.2756,112.8471 
		619.418,110.5675 616.9959,110.14 	"/>
	<polygon fill="#2E7D5D" points="581.6625,123.675 578.3856,122.6778 576.2485,123.1052 574.2538,121.9654 574.2538,121.9653 
		572.4017,123.2476 572.9716,126.0971 568.8398,125.6696 567.8425,126.382 568.27,129.6589 567.985,131.9385 571.1194,132.7934 
		573.1141,130.7987 575.2512,129.5165 576.5335,130.2289 581.9474,129.5165 581.3775,127.0944 583.0872,125.8121 	"/>
	<polygon fill="#2E7D5D" points="640.0766,104.8685 642.9261,104.8685 644.0659,104.0137 646.6304,104.4411 649.7648,103.4438 
		653.6116,100.4518 654.1815,99.3121 654.1813,99.3121 650.9045,99.3121 647.9125,101.3067 646.3454,100.8792 642.3561,101.4492 
		640.2191,101.4492 639.3643,102.1615 634.3776,102.304 637.2271,104.0137 	"/>
	<polygon fill="#2E7D5D" points="487.0601,212.0087 487.4875,213.5759 493.4714,213.1485 491.7617,210.8689 490.052,210.8689 	"/>
	<polygon fill="#2E7D5D" points="401.2909,286.5224 400.0086,286.9499 399.5812,288.802 402.1457,288.802 	"/>
	<polygon fill="#2E7D5D" points="458.2804,236.0868 456.9981,234.662 453.1513,235.5168 453.5787,236.7991 	"/>
	<polygon fill="#2E7D5D" points="403.143,301.7671 402.1457,302.4794 402.4307,305.3289 403.428,306.8962 404.8528,307.0386 
		404.7102,304.6165 	"/>
	<polygon fill="#2E7D5D" points="748.3566,118.831 750.9211,118.261 748.6416,116.2664 	"/>
	<polygon fill="#2E7D5D" points="448.4496,243.3529 448.7346,241.5007 447.7373,240.7884 443.748,241.9281 445.1728,243.068 	"/>
	<path fill="#2E7D5D" d="M403.8555,277.9739l2.7069,3.2769l-3.9892,0.4275l0.4274,3.7043l1.2823,1.2823l3.5619,1.7096l1.9946,0.1425
		l2.992-0.9973l6.6963-0.4274l4.844,0.7124l1.5673-0.4274l0.7124-1.8522l1.8521,0.8549l4.5592,0.8548l5.129-0.4274l-0.1425-1.9946
		l4.2742,2.1371l-7.6936,1.7096l-0.9973,0.7124l-3.1344-1.7096l-2.707,0.1425l-2.8495,0.9973l-1.9947,0.1425l-4.8441-0.8548
		l-7.4087,1.2822l-3.4194,0.285l-2.9919-0.5699l-1.2823,0.7124l0.1425,3.5618l0.7124,3.1344l3.1344,2.8495l-1.5673,2.5645
		l0.8549,2.707l1.7097,2.1371l1.9946,0.9973h3.8468l-2.5645,1.7097l-4.5592-0.285l0.4274,2.2795l-1.5672,2.8495v3.4194
		l1.9946-0.4274l3.9893-2.707l0.8549-1.7097l2.1371-2.1371l2.8495-1.2822l0.285-1.5673l3.8468-3.9893l2.8495-1.5672l7.1237-1.5673
		l-2.1371,2.707l-2.2796-0.8549l-2.5645,1.1398l-3.1345,2.4221l-0.4274,2.1371l-1.7097,1.9947l-3.9893,3.4193l1.7097,1.4247
		l5.8415-0.7124l-3.4194,1.7097l-1.8521,0.2849l-1.4247,1.4247l-4.844-0.9973l-2.5645,1.4247l-1.7097,3.8468l-0.7124,4.7016
		l0.7124,1.2823h2.9919l1.5673-0.8549l1.5672-1.7097l4.4167-1.2822l4.8441-2.8495l0.5699,0.9973l-3.7043,2.9919l0.2849,2.2796
		l-1.1398,2.5645l3.4194,2.2795l0.1425,1.7097l-3.9893-1.8521l-3.8468-1.1398l-0.8548,0.7124l-0.4274,5.1291l1.1398,2.2795
		l1.9946,1.9947l4.4167,1.8521l1.2822,1.1398l5.414,2.2795l4.4167,0.1425l-0.9973,3.4193l2.2795,0.5699l1.1398-1.7097l1.7097,0.1425
		v1.5673l1.5673,0.9973l2.9919-0.5699l4.4167,0.5699l6.5538-1.2823l2.5645-1.2822h1.9947l2.2795-1.7097l3.2769-1.5673l6.1263-5.5564
		l3.8468-2.1371l0.8549-1.2823l2.4221-1.4247l-1.4247-0.9973l4.8441-1.8521l1.1398-1.4247l1.5673-0.2849l0.8548,1.4247
		l1.8521-0.2849l1.8521-1.1398l1.5672,0.2849l3.5618-5.5564v-3.2769l-0.8548-1.5673l3.5618-1.7097l0.5699,4.4167l3.2769,4.1317
		l8.5484,1.7097l0.5698,1.4244l-1.5667-1.1395l-1.5672,0.285l-0.7124,1.7097l1.2823,2.5645l0.4274,3.8468l1.1398,4.2742
		l1.1398,1.9947l1.7097,0.8548l0.5699,4.5592l1.8521,2.4221l2.5645,0.5699l0.8548,5.2715l2.4221,0.8548l1.7097,5.2715l1.5672-0.4274
		l1.8521,4.5592l4.9866,6.6963l2.5645,1.7097l2.707,3.4194l2.707,0.8548l0.8548,2.1371l-0.9973,1.4247l-3.1345,0.1425l2.5645,3.7043
		l-1.4247,0.7124l-3.4194-1.2822l1.7097,3.2769l4.4166,5.414l1.8522,1.5672l0.8548,2.4221l-0.285,4.4167l-0.7124,1.4247
		l7.2662,1.4247l7.836-1.7097l4.5592,0.7124h1.5672l2.4221-2.8495l-2.707-4.2742v-2.1371l2.8494-2.992l2.4221-1.5672l3.2769,0.285
		l-0.9973-1.9947l1.1398-0.5698l4.2742-0.285l4.5592,0.4274l4.8441-0.7124l3.4194,1.2822l2.5645-1.9946l1.8521-5.8415l2.707-4.4167
		l2.1371-7.5511l-1.2823-4.1317l2.1371-3.4193l0.1424-1.4247l-1.4247-2.992l-0.8548-3.5618l0.4274-1.9946l1.5671-0.1425
		l-0.5699-4.9866l0.9973-1.1398l-2.4221-4.5592l4.2742-1.2822l-2.4221-1.8521l-5.129-0.5699l-1.2823,0.285l-1.4247-1.2822
		l5.2715,0.1425h5.414l1.8521-1.1398l3.7043-1.4247l1.5672-1.7097l5.6989-1.9946l3.9893-2.1371l2.8495-0.9973l1.1398-1.4247
		l0.4274-2.2796l3.1344-0.7124l-1.9946-1.7097l-3.7043,0.8549l-1.9947,0.9973l-2.8495-0.8549l2.9919-1.4247l0.8548,0.1425
		l5.414-2.992l1.8521-1.8521l3.7043-2.1371l0.1425-1.4247l-1.1398-2.2795l-2.707-2.8495l-4.1318-1.4247v-2.1371l-2.707-1.7097
		l-2.4221-0.4274l-4.1318-3.1344l-1.1398-1.5673l-4.4167,1.1398l-1.9946-2.2795l-2.9919,0.1424l-1.8521-1.2822l0.1424-2.2796
		l-1.5671-2.8495l-1.1398-5.9839l-0.9973-2.7069l0.1424-1.5673l-0.8548-2.422l1.1398-1.5673l2.9919-1.7097l-0.9974-2.5645
		l1.2823-6.1263l0.1425-1.8521l-1.8521-1.4247l-1.1398-1.8522l0.285-1.7096l2.707,1.1398l2.1371-0.9973h1.7097l2.4221-2.5645
		l-2.2795-3.9893l2.9919-0.1425l1.2823,0.8549l0.9974-1.1399l3.1344-0.8548l1.4247-5.6989l3.2769-0.4274l-0.285-1.1399l3.4194,0.285
		l2.707-2.1371l1.4247-2.5645l2.1371-0.7124l2.5645,1.1398l3.4194-3.1344l4.2742-0.9973l3.4194-2.2796l4.4166-1.8521l2.8495-6.1263
		l3.1345-2.4221l2.9919-1.5673l0.5699-1.7096l-2.2795-1.5673l-2.2795-3.5618l-2.4221-1.5672l0.7123-1.4247l2.9919-2.707
		l1.8521-2.1371l-1.4247-2.4221l1.2823-0.9973l-0.9973-2.1371l4.5591-0.285l2.8495-2.1371l-0.4274-1.5673l2.5645,0.285
		l-0.1425-2.5645l1.4247-2.707l2.2795,1.4247l2.8495-1.5672l2.8494,1.7097l2.9919,0.9973l1.5671-0.9973l5.414-0.4275l1.4247-0.4274
		l3.1345,0.8549l3.8467-0.4275l6.5538,0.9973l1.7097,1.7096l2.4221,0.1425l6.4113,2.2795l1.8521,1.2823v6.5538l1.4247,0.8549
		l0.8548,1.8521l-1.4247,0.4274l0.8549,2.4221l-5.414-0.4274l-5.414,1.7097l-3.1344,5.5564l-3.2769,2.5645l-1.1398,2.2796
		l-3.5618,2.7069l-0.4274,1.8522l-1.5671,0.1424l-3.2769,2.707l-3.2769,1.5672l-3.4194,2.707l-3.2769,0.7124l0.1425,1.4247
		l-1.7097,1.7096l-2.1371,0.9973l1.5672,2.5645l-2.707,1.4247l-3.4194,0.5699l-1.4247-0.5699l-3.8468,0.7124l0.7124,1.8522
		l-1.2823,1.5672v1.7097l-3.4194,3.1344l-0.8548,3.4193l1.5671,4.1318l2.707,1.5672l0.8549,2.2796l-0.7124,4.7016l2.2795,1.5672
		l3.1345,4.2742l1.2823,2.2796l-1.5672,0.8548l0.8548,2.8495l0.1425,4.8441l-1.2823,2.2795v1.8522l2.4221,7.5511l2.9919,1.2822
		l2.8494-1.2822l0.9974,1.8521l1.2823,0.1425l5.414,1.9947l5.129,0.8548l-1.1398,3.2769l0.5699,3.4194l2.8495,0.1424l2.1371-1.1398
		l0.4274-2.1371l0.9973-0.5699l1.7097,2.2795l3.4194,1.5673l-2.1371,4.2742l2.5645-0.5699l3.8468-2.8495l4.1318,0.2849
		l9.5457-1.5672l1.7097,0.4274l2.1371-1.8521l8.406-1.5673l1.5672-1.1398l2.9919-0.285l2.8495-1.4247l1.1398,1.2823l4.7016-2.1371
		l-0.4274-2.1371l2.8494,1.4247l2.707-0.285l0.9974-0.8549l1.4247,0.9973l2.8494-0.8548l3.5619-0.285l1.7097-1.1398l2.5645-0.285
		l3.7043,1.5672l4.9866-1.4247l7.9785-7.4086l3.5618-2.1371l0.9973-1.1399l6.9813-4.7016l2.9919-3.1344l2.707-2.1371l7.5511-8.4059
		l3.2769-3.2769l4.8441-3.9893l3.1345-3.1343l0.9973-1.7097l2.2795-6.4113l-0.7123-1.4247l-3.1345-2.2796l-2.9919-2.707
		l-3.7043-1.8521l-9.4033-4.1318l-6.4113-3.7043l-0.9973-1.1399l2.8495-1.1398l3.4194-4.2742l-0.285-2.4221l-0.9973-1.8521
		l-6.4113-2.5645l-2.5645-3.1344l1.4247-2.4221l-1.2823-2.2795l-4.5592-0.8549l-1.4247-0.8548l-1.9946-2.4221v-1.2822l2.4221-1.4247
		l-0.4274-1.8522l-2.707-0.4274l0.7124-2.1371l-0.4274-2.7069l0.8548-1.8522l-1.7097-1.2822l5.2715-0.9973l-0.5699-1.9946
		l-4.2742-5.9839l-4.2742-3.5618l-4.2742-4.9866l-3.2769-3.1344l-3.7043-2.9919l-0.5699-2.4221l1.7097-2.4221l3.7043-4.4167
		l4.2742-4.2742l-0.1424-2.707l-2.5645-1.2822l-5.129-3.277l-3.2769-2.5645l-10.2581-2.4221l-4.4167-5.6989l-0.1425-0.8548
		l2.8495-4.5592l-1.1398-1.7097l-2.2795-1.1398l5.2715-1.8521l-0.0002-0.0001l-2.4221-1.8521v-0.9973l4.5591-4.1317l0.9973-1.4247
		l-3.7042-3.8468l0.0002,0.0001l3.7043,3.8467l-0.9974,1.4247l-4.5591,4.1318v0.9973l2.4221,1.8521l0.0001-0.0002l3.1344-1.4247
		l1.5672-3.7044l8.2634-1.8521l1.5672-1.2823l0.5699-3.2769l5.9839,1.9947l3.4194-0.1425l0.4274-2.1371l-1.5672-2.4221
		l-5.4139-0.2849l-4.5592-0.8549v1.8521l-4.9866,0.285l-2.5645-0.9973l-0.5699-2.9919l-0.8548-0.7124l-11.8253-2.1371
		l-0.5699-0.9973l16.3845,0.9973l4.7016-0.5699l2.5645-1.4247l6.2689-1.4247l-0.8548-2.2795l-5.4139-2.2796l-5.414-0.4274
		l-0.1425-1.4247l-2.8495-1.4247l-3.4194,0.9973l-2.5645-1.1398l-3.5618-0.4275l-4.7016-2.422h-3.8468l-2.5645,1.8521l-1.1398,2.707
		l-0.1425,2.1371l-1.4247,0.9972l-1.2823,2.992l-1.2823-7.8361l-2.8495,0.8548l-0.9973-0.9973l4.1318-1.5672l1.1398-1.2823
		l-0.285-1.9946l-3.8468-1.1399l-4.7016-0.4274l-3.1345-0.5698l-3.2769,1.8521l-0.5699,1.5672l1.1398,1.9947l-1.5672,0.9973
		l-1.5671,4.2742l-5.2715,1.9946l-0.285-6.1264l0.285-2.1371l-1.2823-1.5672l-2.1371,0.4274l-3.2769,2.4221l-2.707,2.9919
		l-6.1263,5.2715l-0.1425,1.8521l-2.5645,1.8521l-2.2795,0.5699l-1.1398-1.9947l1.7097-1.9946l0.1425-3.1344l0.7123-1.1398
		l4.4166-4.1318l1.1398-1.4247l-4.8441-1.1398l-2.1371,1.2822l-7.6936-2.9919l-1.5672,0.1424l-4.7016,3.277l2.2795,1.4247
		l-4.1318,4.844l-1.9947,0.1425l-2.9919,1.4247l-3.2769,2.8495l-0.8548,2.7069l0.1425,1.9947l-3.4194-1.9947l-2.2795-3.8468
		l-3.9892-1.2822l-3.5619,0.7124l-1.1398,1.4247l-1.5671-0.8549L635.8026,109l-2.8495,1.1398l-3.4194-0.4274l-1.7097,1.4247
		l3.1345,1.4247l2.9919,0.7124l1.4247,1.1398l1.8522,3.1344l-5.8414-1.9946l-2.5645-1.2823l-2.4221,0.1424l-0.9973,2.1371
		l-2.707-0.5698l-4.9866,0.1424l-0.8548,1.1399l0.9973,3.9893l-0.8548,1.7097l-3.5618,3.2769l-2.1371,0.285l2.707-3.4194
		l0.5699-6.1263l-1.2823-1.5673l-3.4194,1.2823l-2.2796,2.9919l-1.1398,3.9893l-0.9973-1.9947l-0.7123-3.5618l-6.6963,0.9973
		l-1.9947,1.7097l-0.4274,1.8521l-1.4247,0.7124h-2.9919l-0.4274,1.7097l0.7123,1.9946l-2.5645-0.7124l-2.9919-2.1371
		l-1.4247,0.8549l-1.1398,1.9946l0.8548,3.1344l-5.5565,1.1398l-1.9946,1.8521l-0.4274,2.2796l-1.2823,1.5672l-3.4194,1.9947
		l-3.5618,0.1424l-3.1344,1.1399l-1.7097,1.7096l1.1398,1.2823l8.9758,0.1424l-1.2823,1.7097l-3.2769,0.285l-3.7043-0.9973
		l-3.2769,0.285l-2.8495,2.1371l1.5672,2.5645l1.8521,1.5673l-1.4247,1.1398l-2.1371-0.4274l-1.2823-3.277l-0.8548-0.5698
		l-2.1371,0.8548l-2.707,0.285l-4.7016,1.8521l-0.4274,2.1371h-3.2769l-3.2769,2.8495l1.2823,2.8495l2.5645-0.4274l3.7043-1.5672
		l-0.9973,2.1371l2.2795,2.1371l-0.8548,1.1398l-2.5645-1.4247l-2.4221-0.285l-2.8494,1.4247l-3.9893,3.8468l0.5699,0.8548
		l4.9866-0.2849l8.9758,0.4274l-0.1425,0.8548l-9.4033,0.1425l-4.2742,0.9973l-1.9947-0.285l-3.2769,0.7124l-2.9919,2.9919
		l-3.2769,1.1399l-0.1425,2.1371l-2.4221,1.5672l-1.9947,0.285l-2.707,3.1344l-0.2849,2.1371l1.1398,3.8467l3.4194-0.1424
		l9.1183-1.5673l-0.7123,1.4247l-3.4194,1.2823h-4.2742l-8.8334,1.5672l2.9919,1.5673l0.285,1.5672l-2.4221-0.2849l-1.8522,0.9973
		l-0.7123,1.8522l-4.8441,4.7016l-1.8521,3.9892l0.4274,1.7097l2.9919,0.7124l0.5699,0.8548h2.1371l2.9919-1.4247l0.4274,0.9973
		l-3.2769,2.2796l-2.9919,0.2849l-2.2795-1.8521l-9.6882,3.9892l-1.9947,1.4247l-0.5699,2.992l3.8468-1.2823l-0.4274,1.4247
		l-4.2742,1.2823l-4.2742,2.1371l-1.2823,1.5672l-3.9893,1.5673l-4.5591,4.7016l-3.2769,1.8521l-1.9947,3.277l-2.2795,1.1398
		l-1.8521,3.1344l2.9919,0.1424l2.707,3.5618l1.9946,0.1425l4.2742-1.1398l8.6909-3.9893l1.5672-1.5672l-2.1371-1.4247
		l2.2795-1.2823l3.4194-1.2822l2.4221,0.8548l-4.1318,2.1371l1.9947,0.4274l1.1398,1.4247l-3.7043,1.7097l-2.4221,0.4274
		l-3.4194,1.4247l-0.5699,1.4247l1.4247,1.8522l-2.5645,0.2849l-3.8468-0.4274l-3.8467,0.7124l-1.5673,0.7124l-0.7123-1.5672
		l-3.9893-2.992l-5.5564,1.1398l-2.4221,2.1371l-1.2823-0.7124l0.8549-1.8521l-4.5592-1.1398l-3.9893,0.9973l-2.707,1.2822v1.7097
		l3.1344,0.4274v2.2796l-4.7016,0.5699l-1.5672,2.4221l7.2661,5.6989l-6.2688-2.4221l-1.7097-1.8521l-3.7044-0.4274l-4.4167,0.2849
		l-2.707,1.5673l-5.8414,1.2822l-3.2769,3.277l0.1425,1.8521l6.9812-0.9973l2.5645,0.7124l9.6882-1.1398l-7.5511,1.9946
		l-0.5699,2.5646l-3.2769-1.1398l-8.4059-0.7124l-5.9839,0.5699l-3.4194,3.2769l0.285,0.7124l4.9866-0.7124l1.8521,0.7124
		l-5.6989,1.1398l-1.8521,0.1425l-2.8495-1.4247l-2.8495,0.7124l-2.7069,1.4247l-2.707,3.2769l-1.7097-0.8548l-1.5672,0.5699
		l-0.5699,2.707l0.9973,1.4247l1.7097,0.4274l3.1344-0.1425l10.2581,1.8522h4.1318l1.1398,0.8548l-6.9813,0.4274l-8.5484-2.1371
		l-5.414,0.1425l-2.1371-0.2849l-0.9973,1.8521l0.285,1.9947L403.8555,277.9739z M511.9934,325.56l-0.8548,5.5565l-0.9973,1.9946
		h-0.0003l0.9973-1.9945l0.8548-5.5565l-2.2795-6.2688l2.1371-2.1371l1.2823-3.4194l0.0002-0.0001l-1.2823,3.4194l-2.1371,2.1371
		L511.9934,325.56z M521.5391,304.7589l-0.1425,3.9893l-2.707,2.8495l-1.8521,1.1398l-0.0002,0.0001l1.8521-1.1398l2.707-2.8495
		l0.1425-3.9893l0.8548-2.9919l-0.7124-1.9947l-4.4166-6.9811l-0.4274-2.2796l0.0002-0.0001l0.4274,2.2796l4.4167,6.9811
		l0.7123,1.9947L521.5391,304.7589z M734.8217,119.4008l3.4193,0.7599l-3.4196-0.7599l-4.7015-1.2314L734.8217,119.4008z
		 M722.8538,114.9842l5.9838,2.8495l-0.0002-0.0001l-5.9839-2.8495l-2.5645-1.7096h0.0002L722.8538,114.9842z M675.2678,138.6348
		l3.4193,0.7014l-3.4196-0.7014l-4.7015-1.4366L675.2678,138.6348z M634.2353,128.0917l11.2555,7.836l1.9946,2.5645h-0.0002
		l-1.9947-2.5645l-11.2554-7.836H634.2353z M617.1385,135.0729l-3.7043-2.2796h0.0003l3.7042,2.2795l0.1425,2.8495l-1.9947,2.707
		l-2.2795,1.2822l4.1318,1.2823l-3.5618,2.2795h-0.0001l3.5617-2.2795l-4.1318-1.2823l2.2795-1.2822l1.9946-2.707L617.1385,135.0729
		z M586.9341,143.3364v-1.1398l0.0002-0.0001v1.1398l1.1398,5.1291l-2.9919,4.4166l-0.0002-0.0001l2.9918-4.4165L586.9341,143.3364z
		 M564.9932,160.8606l1.5672-1.5672l2.1371-4.9866l5.2715-2.707l2.1371-1.2822h0.0001l-2.137,1.2822l-5.2715,2.7069l-2.1371,4.9866
		l-1.5672,1.5673l-2.5646,0.5699L564.9932,160.8606z M553.8803,184.9387l-1.4247-3.5618l1.8522-1.2823l4.2742-4.1317l4.7016-4.1318
		l2.1371-1.4247l0.285-1.9946l-1.4247-1.8521l-3.8468-3.277l0.7123-1.5672l0.0002-0.0001l-0.7123,1.5673l3.8468,3.2769
		l1.4247,1.8521l-0.285,1.9947l-2.1371,1.4247l-4.7016,4.1317l-4.2742,4.1318l-1.8522,1.2822l1.4247,3.5618l-4.7016,2.1371h-0.0001
		L553.8803,184.9387z M536.6411,211.5812l4.7016-7.1237l0.1425-6.6962l0.8548-3.8468l-1.9946-5.5565l1.7098-0.18l-1.7095,0.18
		l1.9947,5.5564l-0.8549,3.8468l-0.1424,6.6963l-4.7017,7.1237l-6.2689,7.1237l6.6963,2.2796l1.5672,4.1318l0.1424,1.7096
		l-2.4221,3.1344h-0.0002l2.422-3.1344l-0.1425-1.7097l-1.5671-4.1317l-6.6963-2.2796L536.6411,211.5812z M510.8533,240.3609
		l-0.7124-2.1371l1.7097-1.4247l4.9866-5.414l4.7016-2.1371h0.0001l-4.7014,2.137l-4.9866,5.414l-1.7097,1.4247l0.7124,2.1371
		l-2.8495,3.9893l3.8468,5.8414l-1.5672,1.5673l0.8548,3.9892l-0.1425,2.5645l3.5619,6.2689v2.2795l-1.2823,9.1183l5.4139,2.9919
		l1.7097,0.5699l4.8441,3.8467l-0.5699,2.707l-1.8522,3.5619h-0.0002l1.8521-3.5618l0.5699-2.707l-4.8441-3.8468l-1.7097-0.5699
		l-5.414-2.992l1.2823-9.1183v-2.2796l-3.5619-6.2688l0.1424-2.5645l-0.8548-3.9893l1.5672-1.5672l-3.8468-5.8415L510.8533,240.3609
		z"/>
	<polygon fill="#2E7D5D" points="668.429,136.9536 668.0016,136.925 668.0016,136.925 	"/>
	<polygon fill="#2E7D5D" points="658.4557,140.0594 658.4556,140.0594 657.316,139.3471 657.3162,139.3471 	"/>
	<polygon fill="#2E7D5D" points="624.4046,131.9385 626.1141,132.2984 624.4043,131.9385 	"/>
	<polygon fill="#2E7D5D" points="526.2405,228.678 524.5309,228.8853 526.2405,228.678 	"/>
	<polygon fill="#2E7D5D" points="594.6276,375.5685 591.7781,382.1222 592.2055,387.5362 594.3426,387.9636 594.3427,387.9637 
		597.1921,377.1357 598.0469,376.4234 598.4744,373.2889 600.6115,368.7298 599.8991,365.8803 596.0523,375.1411 	"/>
	<polygon fill="#2E7D5D" points="631.6707,355.6221 629.5336,354.3398 627.6815,354.3398 622.9799,355.7645 621.1277,357.3318 
		617.2809,361.4635 618.1357,366.0226 617.5658,367.3049 619.5604,370.2968 620.8428,371.2942 619.1331,374.7136 622.1249,373.4313 
		622.5524,371.1517 624.6895,368.8721 627.254,368.0173 628.2513,365.4528 630.1035,364.7404 627.9664,363.0307 627.8239,358.3291 
		629.8185,357.6168 	"/>
	<path fill="#2E7D5D" d="M912.7708,627.4619l2.2795-0.285l3.2769,1.9946l1.7097,4.1318l-0.7123,4.9866l-0.9973,2.8495l4.1318,2.5645
		l1.8521,0.8548l2.8495,0.1425l2.707-0.7123l3.2769-2.5645l2.707-3.9893l3.9893-1.9946l2.9919-0.285l3.7043,0.4274l0.8548-1.9946
		l3.2769-1.8521l1.5671-2.707h3.5619l0.5352,0.2973c0.7637-2.2138,1.5277-4.4274,2.2911-6.6412l-1.2592-0.2099l-4.4166,1.9947
		l-3.4194-0.9974l-2.4221-1.9946l-5.129-5.5565l-3.9892-6.4113l-0.8549-4.4167l3.4194-1.7097l2.2795-3.7043l1.4247,1.4247
		l1.8521-0.1425l6.5538-5.414l3.2769-0.8548l4.4167,0.1424l2.4221-1.5671l4.4166-0.7124l1.5454,0.8831
		c4.1003-11.8156,8.2193-23.6255,12.413-35.4138c3.8048-10.6951,7.5665-21.4639,11.0768-32.3186l-4.8038-2.5353l-3.4194-0.285
		l-3.7043-1.9946l-1.2823,2.1371l-1.8521,0.8549l-6.6963-4.1318l-2.1371-2.2795l-0.7124-1.7097l-3.2769-2.5645l-1.4247-0.1425
		l-3.2769,1.4247l-6.1263,1.2823l-1.9947,1.8521l-2.4221-1.5673h-3.2769l-3.8468-2.8494l-3.9892-0.5699l-3.2769,1.9946
		l-1.5671-0.5699l-0.9974-1.4247l-2.707-2.2796l-0.7123-1.4247l0.285-2.5645l-1.2823-1.5671l-1.9947-3.9893l-0.285-1.2823
		l-2.707-0.285l-2.1371-3.1345l-5.8414,0.7124l-4.1318-1.4247l-4.4167-0.1425l0.5699-1.4247l-1.7097-2.4221l-0.7123-2.8495
		l-1.8522-2.707l4.1318-0.7123l0.1425-1.4247l-5.699-4.2742l-2.4221-3.8468l-1.9946-1.9946l-3.5619-1.9947l-4.8441,0.285
		l-2.8495-0.4274l-2.2795,0.2849l-3.8468,1.7097l-1.4247,0.1425l-5.2715-1.2823l-2.2795,0.8549l-0.7123,3.4193l-2.5645,1.2823
		l-2.4221,0.1425l-3.7043-1.1398l-7.1236-0.1425l0.0004-0.0002l7.1237,0.1424l-1.8521-2.5645l-2.2795-1.9946l-0.7123-4.7016
		l-1.4247-2.1371l0.285-2.1371l-0.8549-1.4247l-5.5565-4.7017l1.9946-3.8468l4.1318-0.1425l3.4194,2.1371l4.9866,0.285
		l4.2742-2.5645l0.4274-1.2822l3.7043-1.4247l-0.8548-2.4221l-3.9893-1.9947l-0.9973-1.5672v-1.5673l-4.5592-1.8521l-7.5511-0.7123
		l0.5699-3.9893l-0.9974-1.1398l-6.9812-2.9919l-2.1371-1.9946l-2.5645-3.4193l-1.9947-0.8549l0.7123-2.5645l-0.7123-0.7123
		l-5.8414-2.8495v-2.8495l1.8521-2.8495l-0.7123-1.8521l-2.9919-2.9919l0.8548-2.5645l-0.5699-3.5619l-4.9866-1.9946l-3.4194-2.5645
		l-3.8468-1.2822h-4.8441l-3.8468,1.5672l-2.9919,1.8521l-2.4221-2.1371l-0.285-3.2769l-5.129-1.7097l-2.1371,0.4274l-2.2795,1.2823
		l-4.4166-3.1344l-2.707,0.1425l-1.7097,0.5699l-2.5645-1.8521l0.4274-2.4221l-2.707-5.9839l-1.8522-1.1398l-2.4221-2.9919
		l-0.4274-1.7097l-1.4247-0.8549l-2.5645,0.4274l0.4274-4.4166l1.1398-2.2796l-0.9974-3.1345l-4.5591-2.4221l-0.7124-1.5672
		l-2.707-0.4274l0.0002,0.0001l-2.707-0.285l-4.8441-1.4247l-5.699,1.7097l-3.9893-1.5672l-4.9866-3.8468l-0.0001-0.0001
		l4.9865,3.8467l3.9892,1.5671l5.699-1.7097l4.8441,1.4247l2.707,0.285l0.285-2.8495l1.7097-2.8494l3.2769-0.8548l-2.5645-3.5619
		l-3.4194-4.1318l-1.1398-1.8521l-3.7043-3.1345l-1.9946-3.9892l-3.7043-3.2769l-0.1425-1.5671l1.8522-1.5673l2.8494-0.7124
		l3.5619-0.285l2.4221,0.4274l1.1398-1.4247l1.2823-4.5591l1.7097-0.5699l1.4247-1.9946l-2.1371-1.7097l-1.7097,1.4247
		l-8.9758-0.7124h-5.699l-1.9946-0.4274l-3.9893-1.7097h-2.5645l-10.8279-1.7097h-4.5592l-0.5699,2.4221l-8.9758-0.1424
		l-4.4166,1.4247l-3.2769-0.285l-2.8495,1.8521l-1.2823,1.8522l-4.7016,0.285l-4.2742,1.7097l0.9973,3.9893l-0.9973,1.5672
		l2.1371,2.8494v2.5645l1.1398,1.7097l2.2795,1.5673l1.7097,2.9919l5.8414,1.8521l1.8522-0.4274l1.2823-1.8521l3.2769,0.5699
		l-0.1424,5.129l-1.4247,4.8442l11.9678-3.9893l2.1371,1.4247l1.5671-0.9973l7.9785,3.5618l3.2769,0.7123l0.0002,0.0002
		l-3.2769-0.7123l-7.9785-3.5619l-1.5671,0.9974l-2.1371-1.4247l-11.9678,3.9893l-0.1425,1.8521l1.5671,2.8495l1.7097,6.6963v1.5671
		l-1.4247,1.5673l-5.129,3.4193l-4.4166,0.8549l-6.2689-2.5645l-3.2769-4.8441l-1.7097-1.4247l-6.9813-4.2742l-1.9946-2.7069
		l-4.9866,1.2822l-4.4166,1.4247l-3.4194,0.5699l-3.5619,5.129l-0.8548,6.4113l-1.1398,1.7097l-2.707,2.2797l-0.1425,3.9893
		l0.8549,7.8361l1.1398,3.9892l0.0002-0.0002l0.9973,5.414l2.2795,4.1318l1.5672,3.4193l-0.285,2.2797l0.8548,1.7097l2.5645-0.285
		l2.8495,1.7097l5.5565,1.9946l3.4194,0.8549l8.121,0.1425l1.2823,1.8521l1.9947,0.8549l1.8521,1.8521l-1.4247,4.4167v2.9919
		l1.8519,2.8491l-9.973-0.1424l-32.6265-1.2823l-9.4032-0.5699l-0.7124-0.1425l-3.1344,1.5673l-6.9813,0.7124l-2.4221-0.4274
		l-2.8495-1.2823l-1.5672-1.7097l-3.1344-4.9866l4.2742,1.7097l1.2823-0.4274l-7.6936-3.2769l-7.836,0.5699l-9.4033,1.7097
		l-3.9893,1.7097l-1.8521,1.1398l-5.414,0.9973l-2.707,2.4221l-2.8495,3.1344l-4.7016,0.7124l-9.8307,2.4221l-9.2608,2.5645
		l-5.414,1.9946l-2.8494-0.5698l0.1424,1.7097l5.8414,0.9974l0.1424,2.5645l-0.9973,0.7123l-3.9893-1.2823l0.9973,3.7043
		l2.5645,5.8414l-0.4274,3.8468l-2.707,2.5645l-0.9974,2.2797l2.2795,1.9946l4.7017,2.992l1.9946,2.4221l-0.8548,3.7043
		l2.8495,3.2769l1.1398,2.707l-0.9973,3.7043l-1.1398,1.5673l2.707,4.4167v2.2796l3.1344,1.2822l2.2795,4.5591l-0.5699,3.2769
		l-2.2795,5.1291l2.9918-0.5699v0.0001l-2.9919,0.5699v-0.0001l-0.0001,0.0001l2.2794-5.1289l0.5699-3.2769l-2.2795-4.5591
		l-3.1345-1.2822v-2.2796l-2.707-4.4167l1.1398-1.5673l0.9974-3.7043l-1.1398-2.707l-2.8495-3.2769l0.8548-3.7043l-1.9947-2.4221
		l-4.7016-2.992l-2.2795-1.9946l0.9973-2.2797l2.7071-2.5645l0.4274-3.8468l-2.5645-5.8414l-0.9973-3.7043l-3.9893-0.7124
		l-2.707-1.8521l-1.1398-3.5618l-1.8521-2.8495l-4.5592,0.285l-5.2715-2.9919l-2.1371-2.707l-7.5511-1.2822l-7.2661,6.4113
		l-5.129,0.4274l-1.5672,0.7123l-4.7016,3.5619l-5.129-1.2823l-2.9919,0.285l-1.9947-1.7097l3.1345-2.2795l0.8548-2.1371
		l-0.9973-1.9946l-4.5592,1.2823l-6.4113-2.5645l-2.4221,0.5698l-1.1398-1.7097l-4.5591,0.4274l2.4221-2.2795l-0.1425-1.9947
		l-2.2795-2.2795l-2.5645-0.9973l-0.0002,0.0004l-2.1371-0.5699l-4.4166,0.9973l-7.4087-1.8521l-3.8468-0.1425l0.285,2.2795
		l4.8441,5.414v1.4247l-4.8441,1.5673v2.1371l2.2795-0.4274l2.1371,1.1398l0.285,5.5565l1.2823,1.5673l3.9893,0.7123l-0.1425,0.8548
		l-5.129,0.4274l-4.7016-0.8548l-1.2823,1.9946l-0.285,2.2797l0.7123,2.4221l-1.5671,0.1424l-1.9947-1.1398l-1.2822,3.4194
		l-2.2797-0.4274l0.8549-1.7097l-2.707-3.1345l-6.4113-0.1425l-5.699,0.4274l-1.2822,0.5699l-1.5673,1.9946l-0.7123,3.8468
		l2.4214,1.9941l-3.846-0.8546l-2.5645-2.4221l-12.6802,0.7123l-2.9919,0.5699l-5.6989,2.2796l-1.4247,1.2822l-1.4247,2.4221
		l-4.8441,2.8495l-2.8495,1.1398l-1.9946-0.7124l-1.4247,2.8495l-1.7097,7.8361l-1.2823,2.8495l-4.5592,5.4139l-1.9946,1.4247
		l-2.2796,3.8468l3.2769,2.992l0.8549,1.4247l-1.7097,1.2822l-5.699-0.9973l-3.2769,0.1425l-1.7097,0.9973l2.4221,1.8521
		l3.9892,0.9974l3.1345-0.7124l3.7043,1.1398l-1.9947,0.5699l-1.7097-0.7123l-2.1371,0.8548l-4.9866-0.9973l-3.9891,0.5699v-0.0002
		l-6.6963,2.4221l-7.2662,3.5618v-0.0001l-1.2823,0.7124l-9.1182,1.5671l-4.1318,2.2797l-1.4247,3.1344l-0.4274,9.6882
		l-0.7123,1.8521l-1.7097,2.5645l-2.8495,1.9946l-5.4139,1.8522l-5.2715,0.9973l-7.4087,3.5618l-1.2822,3.1345l0.285,0.9973
		l2.5645,0.9973l-4.9866,2.8495l-2.5645,0.7124l-6.1264-1.1398l-4.2742-0.1425l-3.2769-0.7123h-3.1344l-1.5673-2.2797
		l-0.4274-3.9893l-1.8521-0.5698l-3.8468,0.8548l-4.5592-0.4274l-0.285,1.9946l2.992,6.1263l1.8522,2.4221l0.285,8.5485
		l2.1371,3.5618l-6.6963,0.285l-1.4247-1.4247l-1.7097,2.4221l-1.2823-1.2823l-6.2688-0.1425l-4.4167,2.4221l-1.7097-1.4247
		l-3.5618-3.9892l-3.8468-1.1398l-4.1317,0.5698l-4.2742,2.2796l-2.4221,0.285l-3.5618-0.285l-8.2634,1.9946l-3.2769,1.7097
		l-0.7123,1.9947l0.5698,1.8521l5.699-0.1425l-0.1425,1.7097l-2.2796-0.4274l0.2849,1.7097l3.1345,1.2823l-0.8548,0.9974
		l-4.4167,0.8548l-0.8548,0.9973l4.4166,1.5673l1.8522,3.1345l1.5673,0.4274l2.7069-0.8549l2.8495,0.1425l6.8387,1.8521
		l1.1398,0.9974l3.1344,0.5698l1.8522-0.285l1.5673,1.5673l1.7097,0.4274l3.1344-0.4274l0.285,2.4221l3.7043-0.285l2.2796,1.1398
		l-1.8521,1.9946l0.4274,1.5673l2.5645,0.7123l4.2742,0.285l-1.5673,2.2795l1.9947,1.1398l1.1398,1.5673l-1.2823,2.5645
		l0.5699,2.4221l2.2795,2.707l2.4221,3.7043l6.8387,3.7043l4.2742,0.8549l0.7123,8.4059l0.7124,2.5645l-2.5645,0.8549l0.7123,1.8522
		l5.1291,3.2769l2.5645,3.2769l1.5672,6.5538l-0.8548-0.1425l-1.2823-4.8441l-1.1398-1.4247l-4.4166-3.4193l-1.2823,4.2742
		l-0.7123,3.9892l-0.9974,10.828l1.5673-2.1371l1.4247,1.7097l-1.7097,0.5699l-1.4247,2.2795l-1.8521,11.8253l-2.4221,10.1157
		l-2.707,2.707l-2.8495,0.7123l0.0001,0.0002l-3.5614,1.4246l-3.7043,0.4274l-2.5645-0.1425l-4.7017-1.8521l-4.8441-0.8549
		l-2.9919,1.8522l-6.6963-1.8522l-3.2769-1.4247l-2.992,0.8548l-2.1371-0.4274l-2.2795,0.7124l-5.2715,1.1398h-3.8468
		l-10.2581-1.9947l-3.7043-1.1398l-6.2688-0.5699l-3.2769-1.4247l-4.1318,1.1398l-2.5645-0.1424l-4.5592,0.4274l-2.4221-0.285
		l-5.129,0.1426l-2.8495,0.7123l-3.5618-0.8548l-2.4221-2.2797l-1.8521-0.8548l-1.5673,0.1425l-1.8522-0.7123l-2.7069,1.2823
		l-2.8495,0.285l-4.5592,2.4221l-0.5699,0.9973l0.5699,2.1371l-5.1291,2.2795l-2.4221,0.4274l-3.7043-0.4274l-2.707,2.1371
		l-2.8495,1.4247l-1.1398,4.4166l3.2769,3.5618l1.9947,0.285l-1.9947,3.1345l0.7124,1.7097l3.2769-1.2823l-0.1424,3.7043
		l1.4247,1.4247l-1.7097,2.707l2.2795,0.285l-3.7043,3.7043v3.5618l1.8519,0.1425l-0.0001,0.0002l-1.9947,2.4221l-0.1425,1.4247
		l1.2822,2.5645v1.9946l0.9973,6.1263l0.9974,2.8495l0.2849,2.8495l-0.8548,6.1263l-1.7097,3.2769l-2.4221,9.4033l0.8549,1.4247
		l-6.1264,12.6802l-1.9946,2.707l-2.2796,1.8521l0.285,1.9947l-1.1398,3.1344l-0.5699,3.2769l-0.8549,2.4221v2.707l2.1371,0.7123
		l3.9893-0.9973l0.8549-1.9946l1.7097-1.5672l0.4274,2.2795l-2.2797,2.4221l-2.8495,0.8548l0.7124,2.5645l-0.1425,1.9947
		l2.1371-0.1425l3.2769-1.2823h2.1371l2.4221,1.9947l-3.9892-0.4274l1.2822,3.2769v2.5645l-1.5671,4.9866l0.9973,1.9947
		l0.4274,2.9919l-0.5699,3.1345v3.7043l-2.2795,5.8414l-1.4247,2.9919l1.1398,0.4274l1.5672-1.4247h2.1371l2.5645-0.9973
		l2.1371,0.4274l6.4113,0.5699l3.5618,1.5672h1.8522l6.4113-3.5618l1.7097-0.285h-0.0001l-1.5672-9.1183l1.1398-3.1345
		l4.9866-6.1263l0.0002-0.0001l-4.9865,6.1262l-1.1398,3.1345l1.5672,9.1183l4.2742-0.7123l5.2715,0.4274l7.1237,5.2715
		l1.7097,2.8495l-0.2849,2.2795l0.4274,1.9947l2.1371,0.8548v1.5671l1.7097,4.4167l2.2797,3.1344l1.4247,0.1425l2.8494,2.1371
		l3.4193,1.4247l2.992-1.1398l0.4274-1.7097l1.4247,0.4274l0.7123-2.2795l2.9919-4.2742l4.4167-1.7097h4.8441l5.699-4.8442
		l9.9731-0.8548l4.5592,0.4274l2.707,0.7123l3.2769-1.1398l6.5538,0.285l2.1371,0.7123l2.1371-0.7123l1.4247-1.4247l2.707-0.4274
		l2.707,0.1425l2.1371,1.7097l1.4247-0.7124l3.1345-3.7042l2.707-6.4113l2.8494-3.4194l5.8414-3.9893l9.2607-0.4274l1.8522-1.1398
		l-1.8522-1.7097l2.5645-6.2689l0.7124-3.5618l1.8521-1.1398l0.4274-2.5645l2.5645-2.707l6.1263-3.2769l3.4194-2.4221l1.1398-1.4247
		l-0.8549-1.4247l-3.4193-1.5671l-3.1345-3.8468l-2.2796-7.8361l0.1425-2.2795l4.5591-7.9785l2.1371-2.9919l2.1371-2.1371
		l3.7043-4.7016l4.1318-6.5537h1.2822l3.5619-1.5672l0.5699-0.8548l-1.7097-1.7097l-1.5673-0.4274l5.8414-5.4139l3.1345-0.7124
		l6.4113-2.1371l9.4032-2.1371l4.1318-3.8468l12.3953-6.6963l4.2742-3.9893l-0.1425-2.9919l-1.7097-1.8522l0.285-1.9947
		l2.5645-0.7123l-1.7097-3.1345l-4.4166-0.8548l-5.414,1.5672l-1.7097,1.1398l-6.6963-1.7097l-2.992,1.5672l-1.8522-1.7097
		l-3.9892-1.7097h-0.0001v-0.0002l3.9893,1.7097l1.8521,1.7097l2.992-1.5672l6.6963,1.7097l1.7097-1.1398l5.414-1.5672
		l4.4166,0.8549l-2.2795-3.5619l-0.9973-5.5565l0.1424-1.7097l3.7044-6.1263l9.2607-5.8414l2.2795-2.2795l2.4221-0.7123
		l1.9946,1.9947l8.4059,2.5645l2.8495,0.1424l2.1371-0.9973l2.707-0.4274l1.1398,2.1371l3.5619,0.1424l1.5671,2.5645l4.8442,1.1398
		l2.4221,1.7097h3.9893l1.5671,0.5699l3.2769-1.4247l3.4194-0.7124l2.8495-1.9946l0.9973-2.5645l2.5645-1.4247l5.5564-4.8441
		l3.4194-1.5672l1.1398-0.4274l0.8546-0.4274l0.0001,0.0004l4.2742-0.7123l4.8441-1.7097l1.2823-0.8548l3.5618-4.8441l4.4166-4.5592
		l3.7044-1.7097l2.9919,0.2849l4.8442,1.8522l1.5671,0.1425l8.121,4.8441l5.699,1.7097l2.5645,1.5673l1.1398,2.1371l1.7097,7.5511
		l2.4221,3.1345l1.7097,4.9866l-0.1425,3.8468l3.5619,0.7123l1.8521,2.9919l2.4221,1.4247l4.4167,4.4166l0.4274,1.8521l5.699,1.9947
		l2.5645,1.7097l3.2769,4.5591l4.9866,3.1345l2.5645,2.8495l8.121,7.5511l3.9892,1.2823l4.5592,3.7043l2.8495-0.9974l5.5565,1.2823
		l3.2769-0.1425l2.4221,2.4221l3.7043,5.699l0.9973,0.9973l3.8468,0.285l2.8495,1.8521l0.1425,2.1371l1.7097,0.1425l3.7043-0.8548
		l2.8495,2.4221l1.5672,3.9893l-0.8548,1.5672l0.4274,1.5671l6.5538,3.7043l5.2715,0.4274l1.9946,1.4247l1.5672,2.5645l1.9947,5.414
		l3.4194,6.1263l1.9947,7.2661l1.9946,1.8522v4.1318l-3.9892,0.9973l-1.5672,2.2795l0.7123,2.8495l-1.2823,3.9893l-2.2795,0.9973
		l-0.8548,1.8521l0.1425,3.1345l1.5671,2.1371h6.1263l1.4247-3.2769l2.2795-3.5618l4.7017-3.5618l0.4274-1.9947l-0.7123-4.8441
		l0.9973-1.9947l2.4221-1.9947l3.5618-0.9973l2.707,0.4274l1.2823-1.8522l-1.2823-2.9919l-0.4274-5.414l-2.2795-2.2795
		l-3.4194-2.1371l-4.1318-1.4247l-1.5671-2.4221v-2.4221l2.1371-6.1263l2.1371-4.2742l1.9947-2.8495l1.8521-1.2823l3.2769,0.5699
		l0.9973,1.9946l4.1318,1.8522l7.1237,0.7123l4.4167,7.6936l2.707,1.8522l2.2795,0.7123l2.1371-6.2689l-0.7123-2.5645
		l-2.5645-3.4194l-5.699-4.2742l-1.5671-1.9947l-9.1183-4.1318l-3.8468-2.9919l-3.1345-1.9947l-10.2581-3.7043l-10.1156-4.5591
		l-2.1371-1.7097v-2.4221l4.1318-2.9919l0.5699-1.2823l-0.5699-1.7097l-3.7043-0.9973l-9.9731,0.5699l-4.2742-0.4274l-5.6989-2.707
		l-6.1264-4.1318l-6.8387-5.8414l-3.2769-4.1318l-1.8522-3.5618l-2.5645-7.2661l-2.2795-4.5592l-2.5645-3.9892l-0.9973-0.9974
		l-3.9893-1.5671l-7.2661-5.2715l-3.8468-1.5673l-3.8468-3.1345l-1.7097-1.8521l-1.9946-4.5592l-1.2823-6.4113l0.4274-2.4221
		l1.8521,0.7123l1.2823-0.9973l0.9973-2.7069l-2.4221-1.5673l-2.1371-3.7042l-1.1398-0.8549l0.5699-4.4166l1.4247-0.9974
		l2.5645,0.5699l4.5591-1.7097l2.4221-1.5672l2.1371-0.5699l2.9919-2.8495l4.5592,1.2823l2.8495-1.2823l2.8494,3.1344
		l-0.9973,0.8549l2.1371-0.1425l-0.2849-1.8522l-2.1371-1.8521l-2.707-1.5672l0.5699-2.8494l-1.8522-0.285l-0.4274-1.4247
		l2.2795-2.992l-3.2769-0.9973l-0.9974-1.9946l4.7016-3.2769l0.285-1.2822h0.0001l-0.285,1.2822l-4.7016,3.2769l0.9973,1.9946
		l3.2769,0.9973l-2.2795,2.992l0.4274,1.4247l1.8521,0.285l-0.5699,2.8494l2.707,1.5672l2.1371,1.8521l0.285,1.8522l-2.1371,0.1425
		l-2.4221,1.5672l0.0001,0.0001l-0.9972,0.7122l1.8522,5.5565l0.7123,2.707l4.4167,5.9839h1.8521l4.2742-7.1237l0.4274-2.707
		l1.9947-1.2823l2.9919,0.9974l1.5672,1.5673l4.1318,3.1344l1.1398,2.4221l0.1425,5.8414l1.7097,2.2796l5.5565,4.8441l1.9947,1.1398
		l-4.4167,1.7097l1.1398,1.8521l6.1264,5.699l8.2634,5.5565l0.9973,3.1344l2.5645,0.285l4.7016-0.8548l3.8468,1.7097l5.414,1.5671
		l4.4166,3.9893l3.7043,2.1371l4.9866,3.9893l1.5672,0.8548l2.2795-0.1424l0.8548,1.2823l8.8334,5.4139l2.422,0.9974l1.7097,2.707
		l2.2795-0.1425l-0.1425,1.4247l4.9866,2.8495l4.4167,4.1318l1.2823,2.5645l2.9919,1.7097v-0.0002l2.2795,0.285l2.1371,1.5671
		l0.285,3.1345l-1.2823,1.8521l-0.7124,2.9919l0.9974,4.1318l-0.1425,2.9919l0.4274,3.8468l-1.1398,3.1345l-0.4274,3.7043
		l1.9947,3.4194l0.1424,1.9947l-0.5699,2.1371l1.7097,1.5672l6.9813,3.7043l2.4221,3.8468l0.9974,3.5618l0.0007,0.0002
		l3.7036,3.7036l2.4221,4.8441l3.1345,1.5672l2.1371,2.4221l3.9893,3.1345l2.5645-0.7124l3.5618,0.285l0.8548,2.2795l-1.2823,0.8548
		l-3.4194-1.2823l-2.1371,0.285l0.285,2.707l1.7097,0.7123l2.4221,2.7071l2.707,5.9839l1.4247,0.9973l3.7043-1.4247l1.5671,1.8522
		l5.9839-0.9973l2.9919-0.9974l4.8442,1.2823h1.7097l1.7097-1.8521l3.1345,2.1371l3.2769,1.1398l3.4194,1.9947l1.1398-0.285
		l2.8495,0.8548l-0.285,2.2795h-2.9919l-1.1398,0.5699l0.7123,1.9947l-2.2795-0.4274l-1.7097-1.5672l-2.9919-1.4247l-5.9839-1.7097
		l-5.5565-2.9919l-2.2795-0.1424l-2.8495,3.4194l-1.9947,0.285l-2.707-0.7124l-1.4247,3.7043l-2.8495,2.4221v1.4247l2.8495,1.8522
		l0.9973,2.2795l1.7097,0.7123l2.9919,2.1371l2.2795,3.5618l0.4274,1.7097l-1.9947,2.4221l0.285,2.5645l3.2769,4.9866l3.1345,2.707
		l0.5699-1.4247l0.1424-4.1318l2.1371-0.8548l1.8521,2.707l1.2823,0.5699l2.9919,3.9892l0.285,4.1318l2.2795,1.5672l-0.285-2.707
		l1.8521-4.7016l3.1345-0.1425l1.1398,2.1371l3.1345,3.5618l2.4221,1.7097l-0.1425-2.1371l-1.4247-2.1371l0.285-2.9919
		l-1.8521-5.2715l-3.1345-6.1263l-1.8522-2.2795l-0.9973-3.4194l0.8548-0.8549l6.1263,3.1345l0.285,1.7097l1.1398,0.7123
		l1.5672-0.9973l4.2742-1.4247l-2.8495-3.4194l-2.8495-0.5699l-1.1398-2.1371l-0.1425-1.7097l-2.1371-1.8522l2.707-1.8521
		l4.1318-0.7124l1.4247-0.9973l1.4247,0.5699l5.9839,5.129l1.8522,2.2795l1.5671-0.7124l-0.1425-2.4221l-0.8548-2.9919
		l-0.4274-4.1318l-1.4247-2.9919l-2.4221-1.1398l-2.8495-0.7123l-2.4221-2.9919l-3.7043-0.8548l-2.4221-2.9919l-2.1371-0.1425
		l-2.2795-1.5672l-4.7016-1.4247l-3.4194-1.9946l3.7043-0.1425l2.2795-1.1398l0.5699-1.8521l-0.7123-1.7097l-2.1371-3.2769
		l2.707-1.7097l3.1345,1.7097l-0.4274,2.707l1.8522,0.7124l1.8521-1.5672l-0.9973-2.5645l-3.7043-4.5591l-3.7043-2.9919
		l-1.8521-3.8468l-4.9866-5.2715l-0.5699-1.8521l0.8548-5.414l-0.5699-2.8494l3.1345-1.8522l1.9947,3.9893l7.836,3.9893
		l0.5699,2.8494l1.5672,2.2795l4.2742,1.4247l0.8549-0.8548l-4.1318-2.4221l-1.7097-3.4194l0.5699-0.8549l4.4166,0.8549
		l3.5618,4.5591l2.1371,1.1398l0.8548-1.2823l-0.7124-1.9947l-4.9866-3.8468l1.7097-1.7097l1.7097,0.1425l4.5591,1.7097
		l0.9973-0.9973l-3.5618-1.8522l-2.9919-0.1425l-0.7124-1.4247l0.7124-1.4247l-2.8495-2.9919l0.285-1.5671h3.2769l2.5645,0.5699
		l2.5645-1.4247l2.4221-2.707l3.1345-0.5699l2.2795,1.4247l2.1371,0.2849l3.5618-2.4221l1.7097-0.5699l2.8495,1.4247l1.2823-0.2849
		l3.2769,1.2823l6.5538,0.8548l2.9919,1.7097l0.7123,0.9973l0.0004-0.0002l1.1398-0.5699l3.5618-4.5592l-0.7124-6.2689
		l4.8442-3.5618l-1.2823-4.4166l-3.2769-2.1371l-1.7097-0.4274l-0.0003-0.0001l0.4272-1.994l2.707-0.4274l1.4247-3.1345
		l4.8441-0.5699l2.1371-1.5672l4.9866-0.4274l4.8441,3.5618l2.1371-0.8548h2.5645l1.2823-0.5699l2.4221,0.285l-0.7124-1.7097
		l-3.4194-3.5618l-2.4221-3.1345l-4.2742-2.5645l4.1318-5.2715l2.2795-0.9973l-0.5699-5.9839v-3.7043l1.7097-1.7097l1.4247-2.8495
		l3.1344-0.7123l2.8495,0.8548l1.2823-2.5645l-0.285-5.2715l-0.0001,0.0002h-2.8495l-3.7043-0.7123l-3.1345-0.9974l-3.5618-3.7043
		l-2.4221,0.7123l-1.2823-0.8548l-4.5592-0.5699l-6.4113-3.2769l-4.1318,0.5699l-6.2689,1.2822l-4.5591,1.7097l-4.7017,2.992
		l-1.7097,2.2795l-2.2795,1.2823l-3.2769,0.8549l-5.9839-0.285l-13.3926-2.4221l-3.5618,0.7123l-4.9866-0.5698l-7.5511-1.4247
		l-5.5565-0.4274l-5.2715,0.8548l-1.2823-2.5645l0.0001-0.0001l1.2823,2.5644l5.2715-0.8549l5.5565,0.4274l7.5511,1.4247
		l4.9866,0.5699l3.5618-0.7123l13.3925,2.4221l5.9839,0.285l3.2769-0.8549l2.2795-1.2822l1.7097-2.2796l4.7016-2.9919l4.5592-1.7097
		l6.2689-1.2823l4.1318-0.5699l6.4113,3.2769l4.5591,0.5698l1.2823,0.8549l2.4221-0.7123l3.5618,3.7043l3.1344,0.9973l3.7043,0.7124
		h2.8495l0.5699-5.2715l-1.1398-6.8387l0.7123-1.8521l2.2795-2.8495l-0.8548-1.2822l0.285-3.4194l0.9973-1.9946l-0.8548-2.4221
		l1.2823-1.5673l1.4247,1.4247l0.9973,2.8495l-0.5699,0.8549l8.8334-1.8522l0.9973-2.992l0.285-6.1263l-0.0005-0.0005l0.1424-1.8516
		l-1.5672-4.4166l-1.4247-1.2823l-0.285-1.8522l1.2823-1.5671l2.4221,0.5698l6.5537-2.9919l4.4167-5.2715l2.8495-5.6989
		l0.5699-4.1318l5.8414-1.5672l3.2769,0.285l3.4194-1.1398l4.5592,0.7124l3.1344-1.7097l2.9919,2.5645l4.1318,0.7123l3.4194-0.7123
		l-2.9919,2.5645l-4.1318-0.7124l-4.5592-0.285l-2.8494-0.7123l0.1424,1.8521l5.414,0.8549l-0.1425,1.4247l-2.5645,0.4274v1.4247
		l3.7043,0.4274l5.699,2.8495l2.707,1.1398l5.414-1.1398l2.5645,0.1425l4.4167-1.1398l1.2823,1.1398l3.1345,1.5672l2.707-0.8548
		l1.8521,3.2769l-3.1344,2.2795l-2.9919,1.7097l-2.4221,0.285l-4.9866,3.4194l-4.9866,4.1317l2.1371,1.7097l2.707-0.7124
		l2.707,0.285l5.2715,3.4194L912.7708,627.4619z M186.1557,699.9811l-4.1318,0.1425l-4.2742,1.5671l-1.2822-1.8521l1.8521-2.707
		l-1.4247-2.5645l-5.8415,1.4247l-2.7066,1.2821l2.707-1.2823l5.8414-1.4247l1.4247,2.5645l-1.8521,2.707l1.2822,1.8522
		l4.2742-1.5672l4.1318-0.1425l3.1345,1.1398h1.9946l3.5615-1.2822v0.0001l-3.5618,1.2823h-1.9946L186.1557,699.9811z
		 M194.2769,782.3306l2.4221-0.285l-0.9973,3.4194l-0.0004,0.0001l0.9973-3.4193l-2.4221,0.2849l-4.2742-6.1263l1.2823-5.6989
		l4.5591-4.2742l0.8548-3.4194l-0.7123-1.1398l-2.4221-0.5699l-2.2795-4.5592l-0.4274-2.707l-1.9947-1.7097l-1.5671-2.707
		l0.0004-0.0001l1.5671,2.707l1.9947,1.7097l0.4274,2.707l2.2795,4.5591l2.4221,0.5699l0.7123,1.1398l-0.8548,3.4194l-4.5592,4.2742
		l-1.2823,5.6989L194.2769,782.3306z M208.9518,711.3787l-2.992,1.5672l-2.2795,1.9947l-1.5673,2.2795l-2.8495,2.2795l1.1398,2.8494
		l0.5699,4.9866l-0.5699,5.4139l0.5699,1.5672l-3.8468,2.9919l-0.285,1.4247l1.9946,1.8522v2.707l-2.4221,4.9866l-0.0004,0.0002
		l2.4221-4.9866v-2.707l-1.9946-1.8521l0.285-1.4247l3.8468-2.9919l-0.5699-1.5672l0.5699-5.414l-0.5699-4.9866l-1.1398-2.8494
		l2.8494-2.2796l1.5673-2.2795l2.2795-1.9946l2.992-1.5672l3.5619-3.5618l-0.4274-1.5672l-2.707-1.2823l-2.707-0.285l-0.1425-4.4166
		l-0.9973-1.5672l-7.4086-0.1424l-2.137-0.7123l0.0002-0.0003l2.1371,0.7124l7.4087,0.1425l0.9973,1.5671l0.1425,4.4167
		l2.707,0.2849l2.707,1.2823l0.4274,1.5671L208.9518,711.3787z M311.1051,676.7578l-3.1344-0.285l-6.2689-2.4221l-2.5645,0.5699
		v-0.0001l2.5645-0.5699l6.2689,2.4221l3.1345,0.285l1.6766,1.6004L311.1051,676.7578z M314.2396,679.7497L314.2396,679.7497
		l5.1289-0.57l0.0001,0.0001L314.2396,679.7497z M323.9277,682.1717l-3.699-2.4275l3.699,2.4274l4.4167-0.5699l0.0001,0.0001
		L323.9277,682.1717z M346.4387,681.7442l-3.5618-1.4247l-5.699-1.5672l-1.1398,3.4194h-6.6963l-0.9067-0.5182l0.9066,0.5181h6.6963
		l1.1398-3.4194l5.6989,1.5671l3.5618,1.4247l2.4221,0.4274l0.0001,0.0001L346.4387,681.7442z M355.4144,684.1663l-3.7043-0.8548
		l-1.2821,0.9973l-0.0001-0.0001l1.2823-0.9973l3.7043,0.8548V684.1663z M368.9494,503.2247l-0.0001-0.0001v-1.7097l-0.7577-1.8522
		l0.7578,1.8522V503.2247z M380.6321,510.6332l-0.7123-2.8495l-0.2532-0.2849l0.2533,0.285L380.6321,510.6332L380.6321,510.6332z
		 M703.0504,427.8563l3.2769,0.9973l6.4113,3.1345l1.5672,1.2823l1.1398,4.2741h-0.0003l2.9919,7.2661l4.1318,6.9813l2.4221,5.129
		l1.2823,5.5565l-0.8548,2.2795l-0.0002,0.0001l0.8548-2.2795l-1.2823-5.5565l-2.4221-5.129l-4.1318-6.9813l-2.9919-7.2661
		l-1.1398-4.2742l-1.5672-1.2823l-6.4113-3.1345l-3.2766-0.9973L703.0504,427.8563z M723.4238,487.1252l1.4241,2.2787v0.0004
		l-1.4243-2.2791l-0.1425-1.8521l1.1398-2.1371l-0.5699-1.5672l0.285-3.4194l-1.1398-1.4247l-2.5645-1.4247l-4.7016-1.8522v-1.7097
		l2.8495-3.8468l0.456-0.285l-0.4559,0.2849l-2.8494,3.8468v1.7097l4.7016,1.8521l2.5645,1.4247l1.1398,1.4247l-0.285,3.4194
		l0.5699,1.5672l-1.1398,2.1371L723.4238,487.1252z M723.5661,637.72l-2.422,0.7123l-2.4221,2.5645l-1.8521,0.285l-0.0001-0.0001
		l1.852-0.285l2.4221-2.5645l2.4221-0.7123L723.5661,637.72z M666.0069,539.5555l1.9946-0.5699l2.4221,0.8549l1.5671-2.9919
		l3.2769-1.4247l4.2742-0.1425l3.4194,1.4247l2.5645,0.1425l1.9947-2.1371l4.5592-0.285l5.129,0.4274l4.4167,1.4247l1.4247,0.9973
		l1.1398,1.9947l8.121,2.7069l1.2823,0.285l4.7013,0.9973l-0.0001,0.0002l-4.7012-0.9973v-0.0001h0.0001l-1.2823-0.285
		l-8.121-2.7069l-1.1398-1.9947l-1.4247-0.9973l-4.4166-1.4247l-5.129-0.4274l-4.5591,0.285l-1.9947,2.1371l-2.5645-0.1424
		l-3.4194-1.4247l-4.2742,0.1424l-3.2769,1.4247l-1.5672,2.992l-2.4221-0.8549l-1.9947,0.5699V539.5555z M711.5984,690.1503
		l-0.0001-0.0002l1.4247-1.2823l1.7097-4.5592l0.2849-1.7095h0.0001l-0.285,1.7097l-1.7097,4.5592L711.5984,690.1503z
		 M701.1979,557.9348l-0.0002-0.0001l-3.1345-3.1344l-1.9945-1.2822l1.9947,1.2823L701.1979,557.9348z M614.8588,513.0555
		l3.1345,0.8548l4.7016,2.707l5.129-0.9974v2.2796h-0.0001v-2.2795l-5.129,0.9973l-4.7017-2.707L614.8588,513.0555l-1.8521,0.0001
		l-0.0001-0.0001H614.8588z M606.8804,516.7597l2.1371,2.7071l1.4247,0.5698l-0.0001,0.0001l-1.4247-0.5698l-2.1371-2.707
		l-2.8495-2.5645l-2.2795-1.2822l0.0001-0.0001l2.2795,1.2822L606.8804,516.7597z M604.0308,511.2034l0.7254-1.1399l-0.7253,1.1398
		L604.0308,511.2034z M579.8104,500.2329L579.8104,500.2329l4.7017,1.1397l0.4274,1.5671l1.4247,1.5673l6.5538,1.5672l3.8468,1.5673
		l1.1398,1.2822l4.5591-0.9974l2.5645,1.7097l-0.0001,0.0001l-2.5645-1.7097l-4.5592,0.9973l-1.1398-1.2822l-3.8468-1.5673
		l-6.5537-1.5671l-1.4247-1.5673l-0.4274-1.5672L579.8104,500.2329z M531.5118,516.3323l3.5618,4.8441l3.2769,1.8521l0.8548,2.2797
		l-0.0002,0.0002l-0.8548-2.2796l-3.2769-1.8522l-3.5618-4.8441L531.5118,516.3323z M506.4363,575.6016h0.0003l-0.2849,2.707
		l-1.4247,2.2795l-0.0004,0.0001l1.4247-2.2797L506.4363,575.6016z M496.8907,587.2844l0.5699,1.4247l-0.0002-0.0001l-0.5699-1.4246
		H496.8907z M494.6109,574.7468l0.0001,0.0001l-0.9971,0.7122l-0.0003,0.0001L494.6109,574.7468z M490.4791,573.7495l3.1344,1.7097
		l-2.4217,0.7123l1.2823,0.9973l-1.4247,4.2742l1.5672,3.5618l-0.4274,1.1398l-0.0002-0.0001l-1.7097-0.1424l-0.1425-2.4221
		l0.7123-2.1371l1.4247-4.2742l-1.2823-0.9974h-1.7097l-3.7043-1.8521l-1.1398-1.5673l-0.0002-0.0001h-0.0001l-1.4246-2.2792
		L490.4791,573.7495z M456.8555,562.0663l1.4247-2.5645l0.0362-0.1423l-0.0363,0.1426l-1.4247,2.5644L456.8555,562.0663z
		 M447.5948,576.7411h1.5671l1.1398,1.1398l3.8469-0.4274l-0.0001,0.0001l-3.8468,0.4274l-1.1398-1.1398h-1.5672l-2.5644,1.9944
		L447.5948,576.7411z M444.1754,460.0554l0.9973-2.4218v0.0001l-0.9973,2.4221l-0.2474,0.8547L444.1754,460.0554z
		 M438.1915,465.3268l4.4166,0.1425l-0.0001,0.0004l-4.4166-0.1425l-0.171,0.4558L438.1915,465.3268z M417.3904,473.5903
		l-7.6935-1.9946l0.285-2.2797l-0.1425-3.7043l2.9919-0.9973v-1.2823l-2.2796-2.2795l-0.8548-1.8522l3.2769-2.1371l2.1371-0.4274
		l0.5699,3.5619l3.9893,0.5698l-0.5699,3.5618l0.7124,1.1398l2.9919,0.4274l0.7124,2.707l-1.2822,1.2822v0.0001L417.3904,473.5903z
		 M422.377,501.9426l-1.5671,1.8519l-0.0001-0.0001l1.5673-1.8521l1.4246-4.1315L422.377,501.9426z M429.5007,519.4669
		L429.5007,519.4669l-2.4221-0.9974l-1.8522,1.8521l-1.1169,1.9946l1.1169-1.9946l1.8522-1.8522l2.4221,0.9974l0.6537-1.852
		L429.5007,519.4669z M438.6188,480.8568l-6.4113,1.8521l-3.2769-1.1398l-2.5645,0.9973l-0.9973,1.567v-0.0001l0.9973-1.5673
		l2.5645-0.9974l3.2769,1.1398l6.4113-1.8521l0.9971-1.4245l0.0001,0.0001L438.6188,480.8568z M438.6188,476.8676l0.0001-0.0004
		l3.7042-2.2794v0.0001L438.6188,476.8676z M448.1644,638.4328l-1.9943,3.5614l-0.0001-0.0002l1.9946-3.5618l1.1394-0.997
		l0.0001,0.0002L448.1644,638.4328z M449.8741,626.0375l-1.7097,0.4274l-2.4221,1.8521l-2.707-0.285l-1.1393,0.5697l-0.0002-0.0004
		l1.1398-0.5698l2.707,0.285l2.4221-1.8522l1.7097-0.4274L449.8741,626.0375z M465.2612,608.9407l-3.4194,1.9946l-4.4166-1.1398
		l-3.7044,1.4247l-3.4193,0.7123l-1.9946-0.9973l-3.7041,2.422v-0.0005l3.7042-2.4219l1.9946,0.9973l3.4194-0.7123l3.7043-1.4247
		l4.4167,1.1398l3.4193-1.9947l2.2794-3.1341l0.0001,0.0002L465.2612,608.9407z M473.2397,603.9542l-0.285-3.5619l-1.4247-0.8549
		l-4.8438,4.1316l-0.0002-0.0004l4.8441-4.1317l1.4247,0.8548l0.285,3.5618l3.4193,2.8495l3.1345,0.8549l-0.0002,0.0005
		l-3.1344-0.8549L473.2397,603.9542z M482.3581,613.0725l-1.2823-1.9947l-1.8522-1.7097l0.1901-0.5702l-0.1899,0.5698l1.8522,1.7097
		l1.2822,1.9946l1.7095-0.9971l0.0002,0.0003L482.3581,613.0725z M487.2022,602.9568l-0.7123,1.5672l-3.1344,3.7043l0.0001-0.0004
		l3.1344-3.7043l0.7123-1.5671V602.9568z M501.1647,604.0966l-1.9947-2.707l-0.9973-0.1424l-4.1318,1.5671l-2.8495-1.1398
		l-1.1398-2.9919l-2.8494,0.1424v-0.0004l2.8495-0.1425l1.1398,2.992l2.8494,1.1398l4.1318-1.5673l0.9974,0.1425l1.9946,2.707
		l1.7095-0.4273l0.0001,0.0004L501.1647,604.0966z M504.869,596.9729l-1.4247-1.2822l-1.8522,0.4274l-0.8546,2.5641l-0.0001-0.0001
		l0.8548-2.5645l1.8521-0.4274l1.4247,1.2823l2.7068,0.285l0.0001,0.0004L504.869,596.9729z M517.6917,591.8439l-1.5672,0.5698
		l-2.9919-0.5698l-1.2823-1.1398l-4.2742-0.4274l0.0001-0.0005l-0.7123-2.1371l0.0002,0.0001l0.7123,2.1371l4.2742,0.4274
		l1.2823,1.1398l2.9919,0.5699l1.5672-0.5699L517.6917,591.8439z M516.2673,578.736l5.4136-0.7124l1.5671-1.2822l5.5565-2.1371
		h0.0002l-5.5563,2.137l-1.5672,1.2823L516.2673,578.736z M564.9928,597.8277l-3.7043-0.7123l-5.6989-0.4274l-12.2527-2.1371
		l-1.5671-0.7124l-4.4167-4.9866v-3.2769l-6.6962,2.1371l-4.4167-0.285l-4.8441,0.4274l-1.9947,0.8549l0.0003-0.0004l1.9946-0.8548
		l4.8442-0.4274l4.4166,0.2849l6.6963-2.1371v3.2769l4.4166,4.9866l1.5672,0.7123l12.2527,2.1371l5.6989,0.4274l3.7042,0.7123
		L564.9928,597.8277z M549.8911,567.908l0.1425,1.8522l-0.8548,1.8521l2.4221,0.4274l0.4274,2.7069l-0.4274,2.1371l-0.0004-0.0001
		l0.4274-2.1369l-0.4274-2.707l-2.4221-0.4274l0.8548-1.8521l-0.1424-1.8522l-3.5619-3.9892l0.8548-1.8522l4.4167-2.5645
		l4.1318-1.1398l1.4247-1.4247l0.9973-4.1317l0.0002,0.0001l-0.9973,4.1316l-1.4247,1.4247l-4.1317,1.1398l-4.4167,2.5645
		l-0.8548,1.8522L549.8911,567.908z M563.5685,548.8166l-0.285,3.9892l-1.8521,1.2823l-0.0002-0.0001l1.8521-1.2821l0.285-3.9893
		l-0.8549-0.9973l-4.1317-3.1345h-1.8522l-1.8521-2.2796l-3.5619-2.1371l-4.1318-3.7043h-1.8521l-3.2769-2.8494l-2.5645-3.8468
		l-1.9947-2.1371l0.0002-0.0002l1.9947,2.1371l2.5645,3.8468l3.2769,2.8495h1.8521l4.1318,3.7043l3.5618,2.1371l1.8522,2.2797
		h1.8521l4.1318,3.1344l0.8548,0.9974l3.1345,1.7097l0.0001,0.0001L563.5685,548.8166z M579.2407,620.1956l-0.8548,0.4274h-0.0001
		l0.8546-0.4274l1.7097-3.1344l0.0002,0.0001L579.2407,620.1956z M587.6465,595.5477l-2.707,0.9973l-1.4247,1.8522l-4.2742,1.7097
		h-0.0001l4.2742-1.7097l1.4247-1.8522L587.6465,595.5477l3.7042-0.285h0.0001L587.6465,595.5477z M593.7729,621.6204l1.7094-0.5698
		l-1.1398-3.2769l0.9973-0.9974l-1.4247-1.5671l0.0002-0.0001l1.4247,1.5672l-0.9974,0.9973l1.1398,3.2769L593.7729,621.6204z
		 M599.8993,612.9294l-0.0002,0.0001l0.5699-1.5671l-0.285-3.1345l-1.2823-1.2823l0.5699-1.9946l0.0002-0.0001l-0.5699,1.9946
		l1.2823,1.2823l0.2849,3.1344L599.8993,612.9294z M604.3157,594.4078l0.1425-2.7069l1.2823-0.8877l-1.2822,0.8877l-0.1424,2.7069
		H604.3157z M605.7407,602.5289l-0.0002,0.0001l0.9973-1.4247h0.0002L605.7407,602.5289z M609.5876,598.6821v2.4221h-0.0003v-2.4219
		l1.2823-1.1398h0.0001L609.5876,598.6821z M609.445,548.1042l-1.7097,1.2822l-5.414-0.285l-4.2742-2.4221l-2.1371,0.1425
		l-6.8387-2.4221l-1.9946,0.5698l-2.2795-1.1398l-1.7097,0.285l-0.4274,4.5591h-1.7097l-1.8522,2.2797l-0.1424,1.5671
		l-3.5619-0.5698l-1.9946,0.9973l-5.5565-0.5699l-0.0001-0.0002l5.5564,0.5698l1.9947-0.9973l3.5618,0.5699l0.1424-1.5673
		l1.8522-2.2795h1.7097l0.4274-4.5592l1.7097-0.285l2.2795,1.1398l1.9947-0.5699l6.8387,2.4221l2.1371-0.1425l4.2742,2.4221
		l5.414,0.285l1.7097-1.2823l7.2661,2.1371l0.0001,0.0002L609.445,548.1042z M622.6949,658.0938l-2.4221-2.8494l-3.9893-3.2769
		l-3.2769-3.4194l3.2769,3.4193l3.9893,3.2769L622.6949,658.0938l7.1237,5.8414L622.6949,658.0938z M641.7864,535.2814
		l-0.8548,1.1398l-3.2769,1.7097l-0.9974,4.2742l-2.2795,1.1398l-2.9919,2.707l-2.1371,0.9973l-2.4221,0.285l-5.129-0.7123
		l-1.9947,1.7097l-1.5672,3.9893v0.0001l-1.2823,3.4193l0.1425,1.1398l2.2795,4.1318l3.2768,4.1316h-0.0001l-3.2769-4.1317
		l-2.2795-4.1317l-0.1425-1.1398l1.2823-3.4194l0.0001,0.0001l-0.0001-0.0002l1.5671-3.9891l1.9947-1.7097l5.129,0.7124
		l2.4221-0.285l2.1371-0.9974l2.9919-2.707l2.2796-1.1398l0.9973-4.2742l3.2769-1.7097l0.8548-1.1398l2.8495-2.1371l3.9893-0.4274
		l-0.7124-2.2795l-3.9892-3.1345l-0.7124-2.5645l-3.8468-1.1398l-0.7123,0.285l-4.9866-2.5645l-2.5645,1.4247l-1.4247-0.8549
		l-3.8468-3.2769l0.0002-0.0001l3.8467,3.2769l1.4247,0.8549l2.5645-1.4247l4.9866,2.5645l0.7124-0.285l3.8468,1.1398l0.7123,2.5645
		l3.9893,3.1345l0.7123,2.2795l1.8522,0.2849l0.0001,0.0002l-1.8521-0.285l-3.9893,0.4274L641.7864,535.2814z M651.7599,613.3569
		l-3.5618,1.2822l3.5616-1.2822l1.5671-1.9946h0.0002L651.7599,613.3569z M658.8832,530.8647l-3.1345,1.8521l-1.4247,2.4221h-3.1344
		l-0.0001-0.0002h3.1345l1.4247-2.4221l3.1344-1.8522l4.2742,4.2742l1.9947,0.5699v0.0001l-1.9946-0.5699L658.8832,530.8647z
		 M662.0175,623.8999l4.2742,1.4247l0.0001,0.0001l-4.2742-1.4247l-1.7097-1.4247L662.0175,623.8999z M661.4478,634.1581
		l0.0001-0.0001l3.9891-0.9973l2.1371,1.1398l-2.137-1.1396L661.4478,634.1581z M672.8455,695.1367l0.4274,0.8549v0.0001
		l-0.4273-0.8546l-2.4221-1.1398l-2.2796-2.707l3.5619,0.2849l1.1398-0.4274v-0.0001l2.4219,3.9891H672.8455z M681.679,673.6234
		l-2.9919-0.7124l-4.2742-2.2795l-2.707-2.8494l-3.7043-2.4221l-0.5699-1.7097v-0.0001l0.5699,1.7097l3.7043,2.4221l2.707,2.8495
		l4.2742,2.2795l2.9919,0.7123l7.5511,4.1318l0.1425,1.4246l-0.1425-1.4244L681.679,673.6234z M690.5124,690.7202l-1.9947-0.7123
		l-0.0001-0.0001L690.5124,690.7202l2.707,1.8521L690.5124,690.7202z M706.1845,727.1932l-1.5672-2.5645v-1.5671h0.0001v1.5667
		l1.5672,2.5645L706.1845,727.1932z M726.4156,690.5776l-1.9946-0.9973l-3.2769,1.1398l-2.707-0.4274l-2.8495,1.2823l-3.1345,0.4274
		l-2.9919,0.5699l-2.1371,2.707l-2.2795-1.7097l-1.4247,0.1424l-4.8442,2.1371l-0.2849,3.7043l-0.7124,1.1398l-2.422-0.4274v-0.0001
		l2.422,0.4274l0.7124-1.1398l0.2849-3.7043l4.8442-2.1371l1.4247-0.1425l2.2795,1.7097l2.1371-2.707l2.9919-0.5699l3.1345-0.4274
		l2.8495-1.2823l2.707,0.4274l3.2769-1.1398l1.9947,0.9973H726.4156z M730.547,487.8379l-1.5671-0.7124l-2.707-0.4274
		l-1.5667,0.7121l1.5671-0.7124l2.707,0.4274l1.5671,0.7123L730.547,487.8379z M794.946,704.6823l0.9973,1.4246l1.2823,3.8468
		l-0.285,1.1398l-0.0004,0.0002l0.2849-1.1395l-1.2823-3.8468l-0.9974-1.4247L794.946,704.6823z M784.1171,484.276h-3.2769
		l-8.6909-1.2823l-9.2608-2.1371l-11.1129-0.5698l-3.4194,0.1424l-3.2769,0.7124l-8.4056,0.7123l0.0001-0.0002l8.4059-0.7124
		l3.2769-0.7123l3.4194-0.1425l11.1129,0.5699l9.2608,2.1371l8.6909,1.2823h3.2769l2.5645,2.9919l1.4247,0.4274l4.2742-0.1425
		l1.5672,0.5699l1.1396,1.9944l-0.0004,0.0005l-1.1398-1.9947l-1.5672-0.5698l-4.2742,0.1424l-1.4247-0.4274L784.1171,484.276z
		 M786.6822,559.0745l-0.2849,0.8546h-0.0002l0.2849-0.8546l3.2769-1.9947l0.855,0.2443l-0.8547-0.2442L786.6822,559.0745z
		 M790.9564,557.3649l-0.0002-0.0001l5.2716,0.1318L790.9564,557.3649z M800.7867,573.4641l-4.2742-6.9812l-3.5617-4.274
		l0.0001,0.0001l3.5618,4.2742l4.2741,6.9811L800.7867,573.4641z M812.0419,491.1146l-1.4247-0.4274l-1.1398-1.8522l-7.2661-1.4247
		l-2.707,0.9973l-2.7068-0.7123l0.0002-0.0004l2.707,0.7124l2.707-0.9974l7.2661,1.4247l1.1398,1.8522l1.4244,0.4273
		L812.0419,491.1146z M819.1658,609.9374l-0.1425-3.7044l1.2823-6.8387l-0.7123-4.1317l-1.9947-3.2769l-1.9946-4.1317l0.0002,0.0002
		l1.9946,4.1318l1.9947,3.2769l0.7123,4.1317l-1.2823,6.8387l0.1425,3.7043l1.9946,7.1237l-1.2823,0.9974l-0.0002-0.0003
		l1.2823-0.9973L819.1658,609.9374z M822.7277,621.3353l-1.7095-1.9659l1.7097,1.9661L822.7277,621.3353z M843.5284,494.8189
		l-3.8469-1.2822l-0.7123-1.7097l-2.8495-1.5673l-10.1156,0.8549l-3.2769,1.1398l-0.8548-0.7124l-3.5618-4.2742l-5.4135,2.2794
		v-0.0001l5.4139-2.2795l3.5618,4.2742l0.8549,0.7123l3.2769-1.1398l10.1156-0.8549l2.8495,1.5673l0.7123,1.7097l3.8464,1.2822
		L843.5284,494.8189z M851.7919,477.8646l-2.4221-0.5699l-1.5667,0.7121l1.5671-0.7123l2.422,0.5699L851.7919,477.8646z"/>
	<polygon fill="#2E7D5D" points="293.4384,668.2094 293.4384,668.2093 299.5646,670.0614 299.5646,670.0615 	"/>
	<polygon fill="#2E7D5D" points="685.2408,683.4539 685.2408,683.454 683.9586,681.317 683.9586,681.317 	"/>
	<polygon fill="#2E7D5D" points="684.9559,685.3061 685.6682,685.876 685.6682,685.876 684.9559,685.3061 	"/>
	<polygon fill="#2E7D5D" points="545.6166,572.7521 542.055,573.4644 542.0549,573.4643 545.6165,572.752 	"/>
	<rect x="708.3215" y="679.0372" fill="#2E7D5D" width="0.0001" height="1.852"/>
	<polygon fill="#2E7D5D" points="673.273,652.3947 672.7032,651.8939 673.273,652.3947 	"/>
	<polygon fill="#2E7D5D" points="615.2861,575.6013 615.2861,575.6014 614.5738,574.0342 	"/>
	<polygon fill="#2E7D5D" points="612.8641,584.7197 612.8641,584.7198 611.2969,582.4401 	"/>
	<polygon fill="#2E7D5D" points="660.8777,619.6257 660.8777,619.6258 659.0256,619.056 659.0256,619.0558 	"/>
	<polygon fill="#2E7D5D" points="703.6196,627.0343 703.6196,627.0343 699.9156,625.8946 699.9156,625.8946 	"/>
	<polygon fill="#2E7D5D" points="702.7651,631.4511 704.6171,632.3368 702.7651,631.4511 	"/>
	<polygon fill="#2E7D5D" points="697.2085,624.5411 694.5016,623.1876 694.5015,623.1876 	"/>
	<polygon fill="#2E7D5D" points="703.1925,635.0129 703.1925,635.0129 706.1841,635.8677 706.1841,635.8677 	"/>
	<polygon fill="#2E7D5D" points="690.797,614.7816 690.797,614.7817 689.6575,615.0667 689.6574,615.0665 	"/>
	<polygon fill="#2E7D5D" points="704.9022,676.3302 705.1871,677.3274 705.1871,677.3274 704.9021,676.3301 	"/>
	<polygon fill="#2E7D5D" points="708.3215,637.5775 708.3214,637.5773 713.3078,638.5747 713.3079,638.5748 	"/>
	<polygon fill="#2E7D5D" points="728.98,678.0401 728.9802,678.04 731.5444,677.8976 731.5444,677.8976 	"/>
	<polygon fill="#2E7D5D" points="724.991,644.9862 724.991,644.9862 725.7031,645.3868 	"/>
	<polygon fill="#2E7D5D" points="727.8401,639.9995 726.1306,639.0876 727.8401,639.9995 	"/>
	<polygon fill="#2E7D5D" points="730.1199,513.9103 734.3939,513.1979 734.3938,513.1981 730.1198,513.9105 	"/>
	<polygon fill="#2E7D5D" points="765.3108,409.3346 765.3108,409.3346 759.7545,407.9099 759.7545,407.9099 	"/>
	<polygon fill="#2E7D5D" points="748.3568,429.281 751.0636,429.9933 751.0636,429.9933 748.3568,429.281 	"/>
	<polygon fill="#2E7D5D" points="749.4966,433.2702 749.4964,433.2702 747.0745,429.9935 747.0746,429.9934 	"/>
	<polygon fill="#2E7D5D" points="729.4077,438.5417 727.1283,437.2596 727.1284,437.2596 729.4078,438.5417 	"/>
	<polygon fill="#2E7D5D" points="631.5281,569.6174 625.5443,565.7707 625.5444,565.7707 631.5282,569.6175 	"/>
	<polygon fill="#2E7D5D" points="657.4583,610.7924 657.4583,610.7925 655.749,611.0283 	"/>
	<polygon fill="#2E7D5D" points="668.4291,662.5103 671.9908,662.9377 671.9908,662.9377 668.4291,662.5103 	"/>
	<polygon fill="#2E7D5D" points="668.4291,653.392 668.4291,653.392 668.5715,653.3966 	"/>
	<polygon fill="#2E7D5D" points="700.4857,721.7794 700.4857,721.7794 702.7651,721.4944 702.7651,721.4944 	"/>
	<polygon fill="#2E7D5D" points="811.9,559.9294 811.8998,559.9293 815.4615,560.3567 815.4615,560.3568 	"/>
	<polygon fill="#2E7D5D" points="835.8357,597.6849 838.8274,599.1096 838.8273,599.1096 835.8357,597.6849 	"/>
	<polygon fill="#2E7D5D" points="841.5346,599.3946 844.5262,600.5343 844.5262,600.5343 841.5345,599.3946 	"/>
	<polygon fill="#2E7D5D" points="828.2844,567.0531 828.2842,567.053 830.2788,566.0557 830.279,566.0558 	"/>
	<polygon fill="#2E7D5D" points="821.7304,562.6465 816.3166,562.0665 816.3166,562.0664 	"/>
	<polygon fill="#2E7D5D" points="801.7842,555.0853 799.5048,556.51 799.5046,556.5099 801.7841,555.0853 	"/>
	<polygon fill="#2E7D5D" points="798.3649,556.0827 796.6553,557.5073 796.6551,557.5073 798.3647,556.0826 	"/>
	<polygon fill="#2E7D5D" points="727.2708,385.9691 724.8489,387.8212 724.8487,387.8212 727.2706,385.9691 	"/>
	<polygon fill="#2E7D5D" points="674.8405,388.973 677.8323,387.3939 677.8325,387.3938 	"/>
	<polygon fill="#2E7D5D" points="702.1954,428.7108 702.1954,428.7109 702.1951,428.7111 	"/>
	<polygon fill="#2E7D5D" points="596.9072,594.7982 595.34,595.5477 595.3399,595.5477 	"/>
	<polygon fill="#2E7D5D" points="567.2727,500.5178 569.4097,502.6548 569.4094,502.6549 567.2725,500.518 	"/>
	<polygon fill="#2E7D5D" points="555.4471,507.0717 554.5924,508.7812 554.5924,508.7812 555.447,507.0717 	"/>
	<polygon fill="#2E7D5D" points="550.7455,509.6363 549.8909,511.0608 549.8909,511.0608 550.7455,509.6363 	"/>
	<polygon fill="#2E7D5D" points="547.0413,511.4885 545.9017,513.3403 545.9017,513.3403 547.0413,511.4885 	"/>
	<polygon fill="#2E7D5D" points="537.0684,571.8973 536.926,573.8918 536.9257,573.8918 537.0681,571.8972 	"/>
	<polygon fill="#2E7D5D" points="510.4256,575.459 509.8557,575.4794 510.4255,575.459 	"/>
	<polygon fill="#2E7D5D" points="470.9604,572.3247 471.2453,574.4615 471.2452,574.4615 470.9603,572.3248 	"/>
	<polygon fill="#2E7D5D" points="395.5919,522.0312 396.5893,520.0366 396.5893,520.0366 395.5919,522.0312 	"/>
	<polygon fill="#2E7D5D" points="386.6161,512.2006 387.2145,514.1951 386.6161,512.2006 	"/>
	<polygon fill="#2E7D5D" points="396.1619,516.7597 395.5919,519.0392 395.5919,519.0392 396.1618,516.7596 	"/>
	<polygon fill="#2E7D5D" points="465.2614,546.2521 460.2748,551.666 460.2749,551.6658 465.2614,546.252 	"/>
	<polygon fill="#2E7D5D" points="456.713,567.6231 456.713,567.6232 456.2856,569.0477 	"/>
	<polygon fill="#2E7D5D" points="431.7801,603.0988 431.7801,603.0988 429.6431,604.5234 429.6431,604.5234 	"/>
	<polygon fill="#2E7D5D" points="436.0543,528.4427 436.0543,528.4431 434.772,529.7253 434.7721,529.725 	"/>
	<polygon fill="#2E7D5D" points="437.6217,588.5664 440.6136,587.2841 440.6135,587.2842 437.6217,588.5665 	"/>
	<polygon fill="#2E7D5D" points="430.3556,517.0447 433.6322,515.1927 433.6323,515.193 430.3554,517.0451 	"/>
	<polygon fill="#2E7D5D" points="430.6404,511.3458 430.8304,510.6336 430.6404,511.3458 	"/>
	<polygon fill="#2E7D5D" points="428.9306,497.3836 428.9307,497.3838 425.7962,499.6633 425.7964,499.6631 	"/>
	<polygon fill="#2E7D5D" points="432.6351,595.8325 436.9092,592.6982 436.9092,592.6982 432.6351,595.8325 	"/>
	<polygon fill="#2E7D5D" points="455.2884,575.4588 457.4251,574.4617 457.4252,574.4617 455.2884,575.4589 	"/>
	<polygon fill="#2E7D5D" points="399.1539,491.2571 399.4388,492.5391 399.4386,492.5391 399.1537,491.2572 	"/>
	<polygon fill="#2E7D5D" points="407.9871,519.1818 407.9872,519.1818 406.8474,523.0286 406.8473,523.0285 	"/>
	<polygon fill="#2E7D5D" points="407.8162,524.4532 408.2722,526.7328 408.2721,526.7328 	"/>
	<polygon fill="#2E7D5D" points="434.9146,603.8112 434.2022,601.959 434.2023,601.9589 434.9146,603.8111 	"/>
	<polygon fill="#2E7D5D" points="457.9953,656.2416 457.9953,656.2414 460.9871,652.5374 460.9871,652.5376 	"/>
	<polygon fill="#2E7D5D" points="569.695,621.9053 569.6948,621.9053 571.6895,620.0532 571.6895,620.0533 	"/>
	<polygon fill="#2E7D5D" points="586.7917,621.0505 586.7917,621.0505 588.6437,620.3382 588.6437,620.3382 	"/>
	<polygon fill="#2E7D5D" points="603.4611,634.4432 603.4611,634.4431 603.6035,636.4377 	"/>
	<polygon fill="#2E7D5D" points="694.2167,748.5638 694.644,746.4272 694.644,746.4272 694.2167,748.5638 	"/>
	<polygon fill="#2E7D5D" points="695.9263,745.4296 694.5016,742.2954 694.5018,742.2952 695.9265,745.4294 	"/>
	<polygon fill="#2E7D5D" points="700.4857,739.303 700.4857,739.303 700.913,736.454 700.913,736.4539 	"/>
	<polygon fill="#2E7D5D" points="735.819,715.6526 736.1039,712.6611 736.1041,712.6611 735.8192,715.6525 	"/>
	<polygon fill="#2E7D5D" points="759.0424,707.9595 758.7574,709.2413 758.7571,709.2413 759.042,707.9595 	"/>
	<polygon fill="#2E7D5D" points="734.5362,651.54 728.4101,647.9783 728.4102,647.9781 734.5363,651.5399 	"/>
	<polygon fill="#2E7D5D" points="802.924,575.3163 802.9241,575.3165 806.4859,579.8756 806.4857,579.8754 	"/>
	<polygon fill="#2E7D5D" points="809.4777,582.4401 809.4778,582.4402 811.33,584.8621 811.3298,584.862 	"/>
	<polygon fill="#2E7D5D" points="833.1285,626.1796 833.1285,626.1796 833.9832,624.47 833.9832,624.47 	"/>
	<polygon fill="#2E7D5D" points="846.8059,599.6796 846.8061,599.6795 848.5157,601.5316 848.5155,601.5316 	"/>
	<polygon fill="#2E7D5D" points="880.4296,603.2413 881.7119,604.5236 887.2684,605.6634 887.2684,604.8085 887.2684,604.8086 	"/>
	<polygon fill="#2E7D5D" points="417.3904,472.4506 417.3905,472.4505 421.3797,469.7435 422.9469,468.1763 422.2346,466.894 
		419.8125,466.3241 415.2533,468.4612 411.834,470.8833 413.1162,471.8806 	"/>
	<polygon fill="#2E7D5D" points="389.3231,485.5581 391.6027,486.9828 393.7398,486.5554 391.6027,484.5608 391.6027,484.5607 	"/>
	<polygon fill="#2E7D5D" points="406.5624,456.0661 406.5624,453.644 404.1404,455.6387 404.9952,457.6333 	"/>
	<polygon fill="#2E7D5D" points="398.584,740.1584 394.8796,740.4434 394.7372,742.4381 397.0167,743.008 402.5732,745.7151 
		403.0006,745.4301 403.0006,745.43 403.2856,743.7203 401.5759,741.1558 	"/>
	<polygon fill="#2E7D5D" points="385.6188,746.5699 383.7667,747.2822 382.057,746.5699 382.057,746.5698 382.9118,744.2902 
		382.1994,742.5805 377.6402,743.8629 375.5031,745.1451 367.9521,750.4167 368.3795,752.1263 370.3741,753.5511 372.7962,751.699 
		374.7908,752.6963 375.2182,754.9758 380.9171,757.3979 383.9091,755.5458 384.7639,753.5511 387.8983,748.5645 387.6134,747.1398 
			"/>
	<polygon fill="#2E7D5D" points="349.4305,762.3844 347.7208,764.6639 347.7208,766.801 350.5703,767.371 351.1402,765.9462 
		354.4171,763.2392 353.2773,761.3871 	"/>
	<polygon fill="#2E7D5D" points="303.9814,611.3622 302.1293,609.2252 300.7046,609.9375 303.4115,613.3569 	"/>
	<polygon fill="#2E7D5D" points="479.224,693.9969 481.3611,695.4217 481.3611,696.5615 479.9364,698.4136 482.2159,699.126 
		482.5009,700.4083 481.9309,702.8304 485.0654,704.1127 483.6407,706.6772 485.3503,708.2443 490.7643,711.0938 491.9041,709.5266 
		494.1837,703.4003 494.0412,699.1261 496.6057,694.5669 495.7509,685.3061 494.3262,682.884 494.7536,679.6072 494.7536,679.6071 
		494.1837,675.7603 492.3315,675.0479 491.9041,676.6151 492.1891,680.4619 491.3343,682.1716 488.6272,681.3168 486.9175,682.884 
		482.9283,684.0237 481.2186,685.306 479.9364,688.0131 479.7939,689.8652 480.6487,691.1475 478.7966,692.7147 	"/>
</g>
<g>
	
		<text transform="matrix(1 0 0 1 1.229 596.8962)" fill="#2E7D5D" stroke="#FFFFFF" stroke-width="10" stroke-miterlimit="10" font-family="'KornerDeliNF'" font-size="252.0361px">EUROPE</text>
</g>
</svg>
