<?xml version="1.0" encoding="utf-8"?>
<!-- Generator: Adobe Illustrator 22.1.0, SVG Export Plug-In . SVG Version: 6.00 Build 0)  -->
<svg version="1.1" id="Layer_1" xmlns="http://www.w3.org/2000/svg" xmlns:xlink="http://www.w3.org/1999/xlink" x="0px" y="0px"
	 width="22.166px" height="22.1646px" viewBox="0 0 22.166 22.1646" enable-background="new 0 0 22.166 22.1646"
	 xml:space="preserve">
<g>
	<path d="M21.9707,9.0035c-0.1035-0.0684-0.2393-0.1153-0.3291-0.211c-0.1865-0.2011-0.2803-0.5527-0.3896-0.8047
		c-0.1426,0.1973-0.1338,0.2793-0.1211,0.5215c0.0263,0.5528,0.0019,1.0469-0.0323,1.5918
		c-0.0302,0.4863,0.0586,1.1153-0.2138,1.5313c-0.2549,0.3906-0.1651-0.1289-0.1846-0.3067
		c-0.0273-0.25-0.1826-0.5234-0.3066-0.7343c-0.1651-0.2833-0.3379-0.4825-0.4668-0.7969
		c-0.0879-0.2149-0.2207-0.4766-0.3926-0.6621c-0.0088,0.0468-0.0205,0.0664-0.0352,0.1054
		c-0.1875-0.082-0.1865-0.2031-0.3222-0.3066c-0.1329-0.1035-0.2842-0.1406-0.4659-0.1777
		c-0.3935-0.0782-0.7392,0.1171-1.165,0.1171c-0.3076,0-0.7412,0.0684-1.0342-0.0625c-0.1523-0.0683-0.2441-0.1933-0.4111-0.246
		c-0.2549-0.0801-0.584-0.0684-0.8486-0.0489c0.1875,0.25,0.3515,0.3907,0.6181,0.6016c0.1631,0.1269,0.3262,0.3516,0.5352,0.2969
		c0.2129-0.0567,0.1533-0.3379,0.3144-0.4434c0.1709-0.1113,0.169,0.0117,0.3145,0.1152c0.1474,0.1055,0.331,0.1094,0.458,0.1817
		c0.4473,0.2578,0.1846,0.6562-0.0137,1.0508c-0.2295,0.4589-0.5215,0.7675-0.8877,1.0918c-0.333,0.2988-0.8427,1.1113-1.372,0.7695
		c-0.1788-0.1172-0.337-0.416-0.4825-0.5781c-0.1718-0.1895-0.2881-0.3848-0.3974-0.6172
		c-0.1485-0.3125-0.2539-0.5137-0.5283-0.7285c-0.2051-0.1582-0.4161-0.2559-0.545-0.4805
		c-0.0605-0.1035-0.039-0.2637-0.1679-0.3379c-0.0655-0.0352-0.3604-0.0449-0.4209,0.0215
		c-0.1553,0.166,0.1894,0.3144,0.2841,0.4375c0.375,0.4902,0.6329,1.0469,1.125,1.4316c0.21,0.1641,0.3252,0.336,0.4922,0.5254
		c0.167,0.1914,0.4248,0.2559,0.6045,0.4414c0.2617,0.2696,0.2764,0.5,0.7178,0.3653c0.332-0.0997,0.5478-0.5039,0.9121-0.5235
		c-0.082,0.6406-0.125,1.3106-0.3769,1.9019c-0.3135,0.7324-0.9952,1.1894-1.4991,1.789c-0.3759,0.4473,0.0069,0.9786,0.0069,1.502
		c0,0.5039-0.2393,1.0039-0.6514,1.3125c-0.2666,0.1992-0.334,0.2598-0.4434,0.5605c-0.0927,0.2598-0.208,0.3653-0.375,0.5528
		c-0.2988,0.3359-0.6005,0.6504-0.9267,0.9668c-0.3496,0.3379-0.7822,0.5078-1.2471,0.289
		c-0.2246-0.1054-0.3076-0.2636-0.4658-0.4648c-0.1524-0.1953-0.3799-0.3184-0.5225-0.4824
		c-0.1972-0.2305-0.3008-0.42-0.5439-0.6133c-0.2256-0.1817-0.3653-0.2305-0.3672-0.5c-0.001-0.1641,0.0723-0.4512,0.0615-0.6719
		c-0.0244-0.5117-0.2031-0.7949-0.5537-1.1269c-0.3213-0.3028-0.6875-0.6622-0.7939-1.1075
		c-0.0977-0.416-0.1514-0.7304-0.545-0.9902c-0.2949-0.1914-0.6406-0.2441-0.9785-0.1367
		c-0.2549,0.0801-0.4336,0.1523-0.7109,0.1777c-0.2549,0.0215-0.4893,0.1992-0.7041,0.2149
		c-0.1494,0.0117-0.5596-0.1055-0.7041-0.1622c-0.169-0.0664-0.3975-0.2285-0.5449-0.3359
		c-0.3916-0.2891-0.5254-0.8047-0.7803-1.187C2.9893,13.3882,2.8379,13.314,2.8174,12.98
		c-0.0156-0.2656,0.0732-0.4746,0.0605-0.7344c-0.0107-0.2421-0.1064-0.4667-0.0371-0.7128
		c0.0615-0.2129,0.1543-0.4043,0.2198-0.6075c0.1308-0.4062,0.4326-0.58,0.7431-0.7793C4.1582,9.9175,4.084,9.4195,4.3184,9.0914
		c0.2002-0.2833,0.4423-0.4649,0.6103-0.754C5.002,8.4449,5.1113,8.5757,5.2129,8.4605c0.1191-0.043,0.2353-0.0391,0.335-0.1309
		C5.8955,8.232,6.3193,8.3121,6.667,8.2183C6.9922,8.1285,7.3398,7.898,7.7188,7.9996c-0.2979,0.871,0.5634,0.7246,1.0761,0.9199
		c0.4248,0.164,0.5928,0.459,0.8897,0.0273c0.2363-0.3476,0.3945-0.3457,0.8105-0.2695c0.291,0.0547,0.7686,0.2246,1.0791,0.1933
		c0.2803-0.0312,0.5235-0.2851,0.8516-0.2207c0.0215-0.3066,0.084-0.8027-0.0293-1.0859c-0.2471-0.0469-0.4551,0.1387-0.669,0.209
		c-0.3359,0.1113-0.4043,0-0.6728-0.1231c-0.2041-0.0918-0.3701-0.0351-0.544-0.25c-0.0859-0.1074-0.0634-0.2421-0.1904-0.3007
		c-0.0586-0.0254-0.249,0.039-0.3262,0.039c0.1592,0.1407,0.3487,0.6153,0.0498,0.6973C9.7832,7.9058,9.6279,7.5015,9.5,7.3374
		C9.291,7.0699,9.0781,7.023,8.7959,6.8472C8.6084,6.732,8.3711,6.3702,8.1494,6.398c0.086,0.3945,0.9697,0.5879,0.8779,0.9141
		C8.9951,7.2789,8.9512,7.2652,8.915,7.2339c0.0069,0.1973-0.1435,0.4629-0.2744,0.5918C8.667,7.3433,8.4219,7.3433,8.1231,7.0679
		c-0.3223-0.293-0.4454-0.498-0.8907-0.3594C7.1621,6.732,7.1231,6.8121,7.0439,6.8257C6.9522,6.8394,6.8223,6.7456,6.7656,6.7593
		C6.6035,6.8042,6.5537,6.9859,6.4609,7.0992c-0.2285,0.2832-0.5498,0.455-0.249,0.8222C5.833,7.9331,5.2158,8.4351,4.8906,8.2652
		C4.8213,8.23,4.6006,7.9527,4.5283,7.8941c0.1748-0.127,0.25-0.3633,0.249-0.5801C4.7734,6.9546,4.6846,6.9351,5.0225,6.7164
		C5.1436,6.816,5.668,6.8355,5.8418,6.771c0.46-0.1679,0.0947-0.7602-0.1338-0.9731c0.1465-0.0137,0.333-0.0703,0.4541,0.0117
		C6.1582,5.7627,6.1992,5.6455,6.1924,5.5811C6.25,5.5948,6.2949,5.5889,6.3398,5.6123c0.0088,0.0176,0.0088,0.045,0.0215,0.0665
		C6.9375,5.8135,6.959,5.2452,7.2949,4.9991c0.2588-0.1875,0.3418-0.0332,0.459-0.3868c0.084-0.2519,0.1055-0.416,0.3926-0.2558
		C8.0713,4.8897,8.6543,4.5987,8.8564,4.542c0.128-0.0371,0.3243,0.0137,0.4151-0.0898c0.043-0.0488-0.0039-0.2188,0.0293-0.2774
		C9.3232,4.1299,9.4756,4.0967,9.5176,4.085c0.0596-0.3457-0.1182-0.2715-0.3037-0.4473c0.0517-0.1328,0.1338-0.4004,0.1279-0.5683
		c-0.1201,0.084-0.4561,0.3633-0.4922,0.5078C8.7783,3.8506,9.1104,4.1397,8.6709,4.2569c-0.0322,0.1289-0.1113,0.25-0.2187,0.3359
		C8.3418,4.5362,8.2813,4.4405,8.2627,4.3174c-0.1914,0.002-0.1338-0.1777-0.2773-0.2109C7.8848,4.085,7.7568,4.2237,7.6865,4.1924
		c-0.1826-0.084,0.0469-0.3808,0.0977-0.541c0.1621-0.1309,0.331-0.373,0.5683-0.3613C8.458,3.1905,8.4941,3.042,8.5186,2.9092
		c0.0185-0.0019,0.0341,0.002,0.0498,0.0117c0.1142-0.1035,0.2578-0.1718,0.3193-0.3418C9.0928,2.5498,9.2891,2.5176,9.376,2.2959
		c0.2412-0.0078,0.5322,0.0332,0.7363,0.1016c0.1885,0.0625,0.8565,0.1426,0.8457,0.2871
		c-0.1562-0.0039-0.3584,0.0645-0.3887,0.2227c0.2432,0.0781,0.5528-0.1944,0.7227-0.3301c0.2666-0.2149,0.5098-0.3096,0.749-0.5195
		c0.126-0.0235,0.1944-0.0801,0.3272-0.085c-0.0205-0.0059-0.1221-0.0947-0.1543-0.1104c0.0898-0.0878,0.2168-0.1386,0.2802-0.2138
		c0.1182-0.1358,0.0625-0.1748,0.1202-0.3682c0.0908-0.2969,0.2295-0.3818,0.5156-0.3223c0.3769,0.0801,0.6787,0.004,1.1045,0.004
		c-0.0391-0.2315-0.0498-0.3956-0.0069-0.5098C13.2305,0.1573,12.1748,0,11.083,0C9.3379,0,7.6875,0.4024,6.2188,1.1221
		c0.2001,0.0527,0.5205,0.1045,0.6679,0.1055C6.7324,1.2608,6.5508,1.2178,6.3916,1.2647c-0.125,0.0371-0.3008,0.1582-0.3975,0.2148
		C5.8379,1.5704,5.6416,1.6592,5.4883,1.7764C5.3398,1.8936,5.2725,2.0713,5.1211,2.209c-0.209,0.1905-0.5723,0.4365-0.8105,0.5567
		C4.0742,2.8858,3.6797,2.9834,3.4834,3.1651C3.4531,3.1924,3.4365,3.1827,3.4053,3.1924C3.4131,3.208,3.3994,3.2159,3.3887,3.2198
		c0.1211-0.0078,0.2617-0.0059,0.376-0.0293c-0.0918,0.2383-0.4493,0.4316-0.6329,0.623C2.9248,4.0284,2.7822,4.1338,2.627,4.3663
		C2.4678,4.6045,2.1387,5.2862,1.8906,5.3721c-0.0615-0.2012,0.1006-0.375,0.1241-0.5683C2.0186,4.7686,2.0186,4.7373,2.0156,4.708
		C0.7461,6.5113,0,8.7105,0,11.0816c0,1.6582,0.3643,3.228,1.0156,4.6401c0.086,0.0645,0.167,0.1309,0.2325,0.2031
		c0.2402,0.2715,0.58,0.5899,0.75,0.9063c0.206,0.3789,0.2597,0.7871,0.4589,1.1719c0.0157,0.0293,0.0293,0.0605,0.044,0.0918
		c2.0312,2.4843,5.1211,4.0698,8.582,4.0698c6.1211,0,11.083-4.9605,11.083-11.083C22.166,10.3726,22.0986,9.6773,21.9707,9.0035z
		 M8.0283,7.7847c0.1172-0.0273,0.3555,0,0.459-0.0547C8.4746,7.7203,8.4619,7.7164,8.4522,7.7124h0.0605
		C8.5059,7.7203,8.4971,7.7242,8.4873,7.73c0.042,0.0254,0.0889,0.0684,0.1182,0.0879C8.7022,8.2124,7.9629,8.0972,8.0283,7.7847z
		 M6.5156,5.4522C6.332,5.501,6.0205,5.5518,5.8291,5.5459c0.0264-0.0879,0.0967-0.25,0.1865-0.3925
		c-0.1631,0.123-0.4677,0.1093-0.6523,0.0742C5.3682,5.1631,5.3809,5.1299,5.4268,5.083c0.0351,0.0098,0.0703,0.0079,0.1084,0.0118
		c0.039-0.0586,0.0586-0.1582,0.038-0.2305L5.6348,4.833C5.793,4.7705,6.083,4.5303,6.125,4.8643
		c0.0078,0.0625,0.0029,0.1152-0.0127,0.1602c0.042-0.0489,0.085-0.0879,0.1279-0.1114c0.0352-0.5703-0.123-0.6543,0.4043-0.8457
		h0.0616C6.7891,4.208,6.5938,4.3838,6.584,4.5577C6.5703,4.7705,6.6846,4.8916,6.7988,5.0303
		C6.8477,5.3311,6.7119,5.4014,6.5156,5.4522z M5.8184,3.1495V2.9659C5.999,3.1084,6.2402,3.208,6.4561,3.0323
		C6.3984,3.169,6.0313,3.3819,5.8535,3.3584C5.8486,3.2588,5.8496,3.1573,5.8486,3.0557C5.8428,3.0889,5.8262,3.1123,5.8184,3.1495z
		 M5.7881,1.9307C6.0684,1.626,6.2773,1.3653,6.7373,1.3409c0.2139-0.0108,0.3945,0.0908,0.6113,0.0937
		c0.2237,0.002,0.3575-0.0039,0.5772,0.0342C7.8936,1.7002,7.6172,1.6045,7.4395,1.708C7.2969,1.792,7.1963,1.9991,7.0684,2.1133
		c-0.1455,0.128-0.3477,0.3526-0.5078,0.4326c-0.128,0.0625-0.293,0.0391-0.4288,0.1036C5.8027,2.8057,5.5381,2.9209,5.1973,3.1026
		c-0.2989,0.1601-0.6416,0.1152-0.9024,0.332c-0.0615,0.0508-0.0703,0.0195-0.0996,0.082L4.1035,3.6084
		C4.3691,2.7452,5.2129,2.5538,5.7881,1.9307z M15.5781,19.4327c-0.1299,0.1464-0.3701,0.3339-0.4843,0.0683
		c-0.0538-0.1289,0.1064-0.3711,0.1543-0.4609c0.0917-0.1719,0.1708-0.3145,0.1787-0.543c0.0058-0.2012-0.0196-0.375,0.0429-0.5762
		c0.1866-0.0879,0.5401-0.1933,0.6143-0.3984c0.1201-0.0566,0.4844-0.2715,0.5859-0.4102c-0.0136-0.0019-0.0185,0.0157-0.042,0.0313
		l0.0606-0.0606c-0.0039,0.0098-0.0108,0.0196-0.0186,0.0293c0.0098,0.002,0.0244,0.0118,0.0508,0.043
		C16.499,17.9952,16.1807,18.7588,15.5781,19.4327z M21.1953,11.9058c-0.0683-0.1973-0.0615-0.4082-0.0664-0.6113
		c0.0625-0.0586,0.1143-0.0528,0.1856,0.0449C21.3594,11.5425,21.377,11.7691,21.1953,11.9058z"/>
	<path d="M13.8408,5.292l-0.1064,0.1231C13.7813,5.3702,13.8232,5.3291,13.8408,5.292z"/>
	<path d="M14.5127,6.8257c0.0518,0.0391,0.3936,0.0332,0.4678,0.0528c0.164,0.041,0.2363,0.1601,0.417,0.0644
		c0.0605-0.4453-0.5694-0.4629-0.5723-0.8188c0.0303-0.0098,0.0615-0.0078,0.0908-0.0196
		c-0.1543-0.1093-0.3633-0.0468-0.5293-0.1582c-0.2422-0.164-0.4521-0.4804-0.082-0.6386c-0.459-0.3438-0.377,0.1562-0.6777,0.2304
		l0.1074-0.123c-0.0967,0.0898-0.2178,0.1953-0.1934,0.3008c0.0029,0.0156,0.2578,0.2597,0.2774,0.2754
		c0.0976,0.0781,0.2089,0.1386,0.33,0.2128c0.0557,0.0352,0.2393,0.1504,0.2666,0.1978
		C14.4922,6.5347,14.3906,6.7339,14.5127,6.8257z"/>
	<polygon points="11.0527,5.8194 11.0527,5.8194 11.0537,5.8194 	"/>
	<path d="M10.9639,5.8467c-0.0342,0.0586-0.0537,0.1738-0.0918,0.2071c-0.043,0.1035-0.0742,0.1992-0.124,0.3027
		c-0.0547,0.1138-0.0362,0.2583,0.0634,0.352c0.0645,0.0625,0.1739,0.0352,0.2491,0.0235c0.0751-0.0098,0.1708,0,0.247-0.0235
		c0.0781-0.0214,0.1446-0.0937,0.2227-0.1308c0.0742-0.0332,0.1611-0.0879,0.2441-0.0899c0.0801,0,0.1787,0.0411,0.2608,0.0547
		c0.0918,0.0156,0.1777,0.0156,0.2734,0.0215c0.0732,0.0039,0.125,0.0254,0.1924,0.0488c0.1074,0.0371,0.1894-0.0058,0.291-0.0488
		c0.0801-0.0332,0.1533-0.0508,0.123-0.1601c-0.0224-0.0845-0.0996-0.1431-0.1709-0.1802
		c-0.1015-0.0567-0.1914-0.1231-0.3046-0.1563c-0.0743-0.0215-0.1514-0.041-0.2276-0.0547
		c-0.0849-0.0156-0.2978-0.0586-0.2685-0.1836c0.0146-0.0625,0.1787-0.1308,0.1318-0.2109c-0.0244-0.041-0.0869-0.0273-0.123-0.0293
		c-0.0459,0.0899-0.1739,0.0606-0.2227,0.127c-0.0088,0.0117-0.0303,0.1132-0.0254,0.1289
		c0.0186,0.0488,0.0967,0.0449,0.1377,0.0468c0.042,0.1016-0.0635,0.1426-0.1367,0.1875c-0.0332,0.0215-0.0899,0.0528-0.1367,0.045
		c-0.0567-0.0078-0.125-0.0508-0.1612-0.0918c-0.0234-0.0254-0.0283-0.0625-0.0468-0.0899
		c-0.003-0.0039-0.0332-0.0097-0.0332-0.0097c-0.0079-0.0313-0.0137-0.0547,0.0341-0.0684
		c-0.0459-0.0391-0.2324-0.0449-0.291-0.0469c-0.0049-0.0058-0.0078-0.0117-0.0146-0.0156
		c-0.0059,0.0176,0.0049,0.0195,0.0146,0.0352l-0.0312,0.0078c0.0058-0.0078,0.0088-0.0176,0.0136-0.0254
		C11.0215,5.8233,10.9902,5.8409,10.9639,5.8467z"/>
</g>
</svg>
