<?xml version="1.0" encoding="utf-8"?>
<!-- Generator: Adobe Illustrator 22.1.0, SVG Export Plug-In . SVG Version: 6.00 Build 0)  -->
<svg version="1.1" id="Capa_1" xmlns="http://www.w3.org/2000/svg" xmlns:xlink="http://www.w3.org/1999/xlink" x="0px" y="0px"
	 width="512px" height="512px" viewBox="0 0 512 512" enable-background="new 0 0 512 512" xml:space="preserve">
<g>
	<g>
		<path fill="#FFF2E1" d="M510.7332,74.8247H191.7097c-0.6334,0-1.2668,0.5278-1.2668,1.2668v29.8755
			c0,0.6334,0.5278,1.2668,1.2668,1.2668h319.0236c0.6334,0,1.2668-0.5278,1.2668-1.2668V76.0916
			C512,75.3526,511.4722,74.8247,510.7332,74.8247z"/>
		<circle fill="#FFF2E1" cx="75.4804" cy="267.454" r="40.0099"/>
		<circle fill="#FFF2E1" cx="75.4804" cy="442.9064" r="40.221"/>
		<path fill="#FFF2E1" d="M510.7332,250.2771H191.7097c-0.6334,0-1.2668,0.5278-1.2668,1.2668v29.8755
			c0,0.6334,0.5278,1.2668,1.2668,1.2668h319.0236c0.6334,0,1.2668-0.5278,1.2668-1.2668v-29.8755
			C512,250.8049,511.4722,250.2771,510.7332,250.2771z"/>
		<path fill="#FFF2E1" d="M510.7332,425.6239H191.7097c-0.6334,0-1.2668,0.5278-1.2668,1.2668v29.8754
			c0,0.6334,0.5278,1.2668,1.2668,1.2668h319.0236c0.6334,0,1.2668-0.5279,1.2668-1.2668v-29.8754
			C512,426.1518,511.4722,425.6239,510.7332,425.6239z"/>
		<path fill="#FFF2E1" d="M56.3728,91.3683L40.7474,75.6231c-6.5836-6.6341-17.302-6.6643-23.923-0.0676l-4.8309,4.8132
			c-6.6203,6.5961-6.6301,17.3131-0.0219,23.9213l15.6869,15.6869l16.6811,16.8042c6.5839,6.6324,17.3009,6.662,23.9212,0.066
			l16.7206-16.6591l53.997-53.6514c6.6186-6.5762,6.6554-17.272,0.0823-23.8937l-4.7973-4.8327
			c-6.5775-6.626-17.2819-6.6629-23.9048-0.0823L56.3728,91.3683z"/>
	</g>
</g>
</svg>
