<?xml version="1.0" encoding="utf-8"?>
<!-- Generator: Adobe Illustrator 22.1.0, SVG Export Plug-In . SVG Version: 6.00 Build 0)  -->
<svg version="1.1" id="Layer_1" xmlns="http://www.w3.org/2000/svg" xmlns:xlink="http://www.w3.org/1999/xlink" x="0px" y="0px"
	 width="100px" height="140.6188px" viewBox="0 0 100 140.6188" enable-background="new 0 0 100 140.6188" xml:space="preserve">
<path fill="#7F7F7F" d="M84.2553,0.5611H40.6332c-8.315,0-15.0785,7.2732-15.0785,16.2327v36.1577
	c0,1.8258,1.3404,3.3965,3.0536,3.4248c1.736,0.0287,3.1511-1.4626,3.1511-3.3059V16.8269
	c-0.0213-2.5299,0.9004-4.9656,2.5644-6.7697c1.6659-1.8062,3.9343-2.8307,6.3095-2.8504h43.6532
	c4.9026,0,8.8729,4.3298,8.8729,9.6201v107.1145c0.0233,2.5299-0.9004,4.9656-2.5644,6.7708
	c-1.664,1.8041-3.9343,2.8297-6.3085,2.8504H40.6332c-4.9017,0-8.8738-4.3319-8.8738-9.6211V86.9284
	c0-1.8258-1.3413-3.3959-3.0546-3.423c-1.7361-0.0275-3.1501,1.4623-3.1501,3.3049v37.131c0,8.9595,6.7636,16.2327,15.0785,16.2327
	h43.6532c8.315,0,15.0776-7.2732,15.0776-16.2327V16.8269C99.3639,7.8674,92.6013,0.5611,84.2553,0.5611z"/>
<path fill="#7F7F7F" d="M41.5325,82.5886c-1.1597,1.3899-0.9818,3.4553,0.3979,4.6273c1.3797,1.173,3.4471,1.0147,4.6325-0.3537
	L58.727,72.496l0.0977-0.0987c0.0329-0.0339,0.0668-0.0997,0.0987-0.1316c0.0411-0.0319,0.0648-0.0812,0.0648-0.1326
	c0.0339-0.0319,0.0668-0.0987,0.0997-0.1306c0.0329-0.0329,0.0329-0.0987,0.0648-0.1326c0.0339-0.0319,0.0339-0.0977,0.0668-0.1306
	s0.0329-0.0987,0.0658-0.1306c0.0319-0.0668,0.0319-0.0997,0.0658-0.1645c0-0.0339,0.0329-0.0987,0.0329-0.1326
	c0-0.0658,0.0319-0.0987,0.0319-0.1645c0-0.0319,0.0339-0.0987,0.0339-0.1306c0-0.0658,0.0319-0.1326,0.0319-0.1984v-0.0987
	c0.0339-0.2066,0.0339-0.4174,0-0.624v-0.0987c0-0.0658-0.0319-0.1306-0.0319-0.1964c0-0.0339-0.0339-0.0987-0.0339-0.1326
	c0-0.0658-0.0319-0.0987-0.0319-0.1645c0-0.0319-0.0329-0.0987-0.0329-0.1306c-0.0339-0.0658-0.0339-0.0987-0.0658-0.1645
	c-0.0329-0.0329-0.0329-0.0987-0.0658-0.1326c-0.0329-0.0648-0.0329-0.0977-0.0668-0.1306
	c-0.0319-0.0339-0.0319-0.0987-0.0648-0.1306c-0.0329-0.0339-0.0658-0.0997-0.0997-0.1326
	c-0.0319-0.0319-0.0319-0.0658-0.0648-0.1316c-0.0319-0.0329-0.0658-0.0987-0.0987-0.1316l-0.0977-0.0977L46.5628,53.9539
	c-1.171-1.3879-3.2466-1.5657-4.6355-0.3948c-1.3899,1.172-1.5657,3.2466-0.3948,4.6366l7.5933,8.975H3.9238
	c-1.8145,0-3.2878,1.4712-3.2878,3.2867c0,1.8145,1.4732,3.2878,3.2878,3.2878h45.202L41.5325,82.5886z"/>
</svg>
