<?xml version="1.0" encoding="utf-8"?>
<!-- Generator: Adobe Illustrator 22.1.0, SVG Export Plug-In . SVG Version: 6.00 Build 0)  -->
<svg version="1.1" id="Capa_1" xmlns="http://www.w3.org/2000/svg" xmlns:xlink="http://www.w3.org/1999/xlink" x="0px" y="0px"
	 width="60px" height="60px" viewBox="0 0 60 60" enable-background="new 0 0 60 60" xml:space="preserve">
<path fill="#7F7F7F" d="M59.423,8.5804l-15-8.1448c-0.015-0.0081-0.032-0.0105-0.047-0.0175
	c-0.042-0.0198-0.085-0.0349-0.128-0.0477c-0.036-0.0105-0.071-0.0209-0.107-0.0268c-0.045-0.0081-0.09-0.0093-0.136-0.0093
	c-0.037,0-0.074,0-0.111,0.0047c-0.043,0.0047-0.084,0.0163-0.126,0.0279c-0.04,0.0116-0.08,0.0233-0.119,0.0396
	c-0.014,0.0058-0.029,0.007-0.043,0.014L30,7.2051L16.394,0.4205c-0.009-0.0047-0.018-0.0047-0.027-0.0093
	c-0.04-0.0186-0.081-0.0291-0.122-0.0407C16.207,0.3588,16.169,0.346,16.13,0.339c-0.042-0.0058-0.083-0.0047-0.125-0.0047
	c-0.039,0-0.077-0.0035-0.115,0.0023c-0.043,0.0058-0.085,0.0198-0.127,0.0314c-0.037,0.0105-0.074,0.0186-0.11,0.0337
	c-0.008,0.0035-0.017,0.0035-0.025,0.0081l-15,6.9812C0.249,7.5681,0,7.9951,0,8.471v50.0322c0,0.3863,0.165,0.747,0.439,0.9634
	C0.607,59.5981,0.803,59.6668,1,59.6668c0.125,0,0.251-0.0268,0.372-0.0826l14.616-6.8021l13.619,6.7904
	c0.014,0.007,0.029,0.0035,0.043,0.0105c0.114,0.05,0.231,0.0838,0.351,0.0838s0.238-0.0337,0.351-0.0838
	c0.014-0.0058,0.029-0.0035,0.043-0.0105l13.619-6.7904l14.616,6.8021c0.12,0.0558,0.246,0.0826,0.372,0.0826
	c0.197,0,0.393-0.0686,0.561-0.2001C59.835,59.2502,60,58.8895,60,58.5032V9.6346C60,9.1819,59.775,8.7712,59.423,8.5804z M2,9.2587
	l13-6.0504v47.526L2,56.7847V9.2587z M17,3.2549l12,5.9841v47.4992l-12-5.9841V3.2549z M31,9.2378l12-5.9841v47.5004l-12,5.9841
	V9.2378z M58,56.7847l-13-6.0504V3.3165l13,7.058V56.7847z"/>
</svg>
