<?xml version="1.0" encoding="utf-8"?>
<!-- Generator: Adobe Illustrator 22.1.0, SVG Export Plug-In . SVG Version: 6.00 Build 0)  -->
<svg version="1.1" id="Слой_1" xmlns="http://www.w3.org/2000/svg" xmlns:xlink="http://www.w3.org/1999/xlink" x="0px" y="0px"
	 width="1000px" height="1000px" viewBox="0 0 1000 1000" enable-background="new 0 0 1000 1000" xml:space="preserve">
<g>
	<path fill="#EA821B" d="M500,1C224.4099,1,1,224.4099,1,500s223.4099,499,499,499s499-223.4099,499-499S775.5901,1,500,1z
		 M799.8135,799.8135c-38.9639,38.9629-84.3164,69.5459-134.7969,90.8975C612.792,912.7998,557.2725,924,500,924
		c-57.2729,0-112.7925-11.2002-165.0171-33.2891c-50.4805-21.3516-95.8325-51.9346-134.7964-90.8975
		c-38.9634-38.9639-69.5459-84.3164-90.8975-134.7969C87.2002,612.792,76,557.2725,76,500
		c0-57.2729,11.2002-112.7925,33.2891-165.0171c21.3516-50.4805,51.9341-95.8325,90.8975-134.7964
		c38.9639-38.9634,84.3159-69.5459,134.7964-90.8975C387.2075,87.2002,442.7271,76,500,76
		c57.2725,0,112.792,11.2002,165.0166,33.2891c50.4805,21.3516,95.833,51.9341,134.7969,90.8975
		c38.9629,38.9639,69.5459,84.3159,90.8975,134.7964C912.7998,387.2075,924,442.7271,924,500
		c0,57.2725-11.2002,112.792-33.2891,165.0166C869.3594,715.4971,838.7764,760.8496,799.8135,799.8135z"/>
</g>
<g>
	<path fill="#EA821B" d="M615.6904,748.8158l-5.551,3.8659l-6.0466,0.5947c-2.5773-0.793-4.6589,0.1982-6.9388,1.3878
		l-3.8659,1.4869l-12.2916-5.551l-11.6968-6.5422l-1.5859,1.2886c-6.3441,5.4519-3.4694,14.1749,0.0991,21.6093l8.4257,13.9767
		h-3.6676l3.172,10.5073l3.0729,5.551l7.8309,7.8309l8.3265,5.4519l10.2099-0.793l3.8659-9.4169
		c0.4957-1.6851,1.0904-2.7755,3.3703-3.5685l7.8309-3.5685l4.9563-12.5889l3.2711-14.0758l-2.0816-11.2012
		C625.8013,752.5825,624.017,744.0577,615.6904,748.8158z M855.7659,665.1249c-0.4957-0.5947-1.4869-1.586-3.2711-1.586
		c-1.1896,0-2.4781,0.4957-3.7668,1.2886l-5.2537,2.8746h-1.7842l-5.0554-7.93c-2.4781-3.6677-5.3528-6.0466-7.4344-6.2449
		l-0.6939-0.0991l-0.6938,0.2974c-4.3616,1.6851-5.551,6.7405-6.0466,10.8047l-0.5947,1.9825
		c-1.3878,4.1633-2.5773,7.7318-4.1633,9.3178l-6.9388,10.5073l-4.6589,8.2274L789.5501,711.02l-20.9155,15.2653
		c-4.9562,2.4781-11.2012,8.4257-18.6356,17.7435l-8.9213,12.3907c-2.5773,0.6938-5.551,3.965-7.9301,8.6239
		c-2.0816,3.3703-2.6764,5.9475-1.7842,8.0291c0.6939,1.7843,2.379,3.0729,5.0554,3.6677l0.5947,0.1983l8.5248-1.3878l0.6939-0.9912
		c0.6938-0.9913,1.1895-0.9913,2.0816-0.793l16.2566,5.551l13.8776,3.6677h0.4956c10.6064-0.793,18.7347-8.7231,24.3848-24.0875
		l1.7842-10.1108l2.0816-4.6589l0.8922-0.0991l0.8922-1.1895c0.9913-1.3878,1.7842-3.6677-1.2886-13.5802l3.4694-0.3965
		c0.6939,0.1983,1.3878,0.1983,1.6851,0.1983c2.379,0,4.9563-1.3878,8.0292-4.3616c1.3878-1.3878,3.172-2.379,4.8571-2.4781
		l10.8047,3.0729l-2.2799-7.2361c-1.3878-3.8659-0.3965-6.8397,4.0641-10.6064l14.5714-16.9504l3.8659-19.6268
		C857.0545,667.9996,856.658,666.017,855.7659,665.1249z M702.8217,485.2413l1.2886-16.7522c0-5.2536-4.1633-11.9942-13.382-21.8076
		l-18.14-16.7522c-2.8746-2.2799-4.8572-4.9563-5.9475-7.93l-5.2537-13.7784l-5.4518-3.6676l-5.0554,0.793
		c-1.4869,0-2.7755-0.3965-4.758-5.5511l-8.8222-20.6181c-4.8571-8.1283-8.8221-12.5889-12.7872-14.274
		c-12.0933-4.3615-21.6093-10.0117-25.8717-15.4636c-4.9563-6.7405-8.3265-17.0496-10.0117-30.6297l-8.6239-16.4548l-0.5947-12.688
		c0-8.2274-4.6589-11.3003-9.2187-11.4985c-1.5859-0.5948-3.3702-1.4869-3.8659-1.9825l-3.6677-4.6589l-7.4344,2.1808
		c0-0.1982-0.0991-0.4956-0.0991-0.9912l-1.3878-14.4723c-1.6851-7.6327-2.9738-12.9854-6.2449-14.274
		c-0.8922-1.1895-2.2799-3.5685-3.2711-6.4432l-4.9563-12.2915l-5.6501-7.4344h-1.4869c-5.2537,0-7.0379,8.0292-7.7318,11.2012
		l-3.1721,6.4431c-2.5773,3.172-3.965,5.8484-3.2711,10.0117l-2.9738,46.9855l-5.4519,20.519l-6.9388,12.0933
		c-3.7668,2.6764-7.2361,3.172-12.3907,1.7842l-15.0671-13.6793l-0.9912-0.0991c-9.6152-0.793-10.7055-2.5773-10.7055-2.6764
		l-11.4985-8.5248l-0.793-0.3965c-7.3353-2.4781-8.723-3.965-9.0204-4.3615l-9.2187-6.0467l-6.9388-6.2449
		c-0.9912-3.0729,0.5948-8.3265,4.8571-16.3557l11.4985-16.4548l3.0729-6.7405l0.1983-0.6939
		c0.5948-3.3703,0.1982-5.8484-1.1895-7.4344c-0.8921-0.9913-2.1808-1.586-3.4694-1.586h-1.3878
		c-4.1633,0-5.8484,4.0641-7.0379,6.8396c-0.0992,0.2974-0.1983,0.4956-0.2974,0.6939c-0.0992-0.0991-0.1983-0.0991-0.3965-0.1982
		c-8.8221-5.4519-16.9504-7.93-25.1778-7.7318l-13.1837-2.9738l-11.3994-6.5423l-18.14-2.4781l11.1021,13.9767
		c0.2974,0.4956,0.4956,0.793,0.4956,0.8921c-0.2974,0.1982-1.2886,0.4956-3.2711,0.793l-9.7143,0.5948h-8.1283
		c-0.8921-0.2974-1.6852-0.4956-2.379-0.4956c-4.5598,0-5.2536,4.5598-5.3528,7.137l-17.248,19.3294l-5.2536,9.6152l0.9912,1.3877
		c0.2974,0.4956,0.6939,0.9913,1.1895,1.586c1.1895,1.4869,2.5773,3.2711,3.3703,5.8484v1.9825l-1.0904,0.4956
		c-0.3965-0.1983-0.6939-0.4956-0.793-0.4956l-5.3528-4.1633c-1.6852-1.1895-3.3703-1.7843-5.1545-1.7843
		c-4.8571,0-7.93,4.758-9.0204,6.5423c-0.2974,0.5948-0.4956,0.9912-0.6939,1.1895c-0.3965-0.3965-0.9913-1.0904-1.8834-2.5773
		l-4.4606-13.0846c-1.586-3.8659-4.5598-5.9475-8.4257-5.9475c-1.586,0-3.3703,0.3965-5.9475,1.586
		c-2.1808,1.4869-3.965,2.4781-5.1545,3.172c-2.8746-1.586-6.6414-0.4956-14.1749,4.9563l-11.8951,9.8134l-0.2974,0.8921
		c-0.1982,0.8921-1.4869,4.1633-7.6326,8.9213l-0.6939,0.4956l-2.8746,6.5423l2.8746,3.2711h-2.5773
		c-7.2362,0-11.5977,1.4869-13.0845,4.5598c-0.8921,1.7842-0.5948,3.8659,0.8921,5.6501l0.1983,0.2974
		c-1.0904,0.4956-2.0816,1.2886-2.9738,2.7755l-0.3965,0.793l-2.379-5.0554l-1.6851-1.8834h-0.3965l-0.0991-0.0992l-0.1982,0.0992
		h-0.4956c-1.0904,0-4.4606,0-17.0496,18.7347c-9.9126,15.6618-17.347,25.0787-20.4198,28.1516
		c-2.2799,1.7842-6.5423,4.2624-14.4723,6.2449l-54.0233,14.6705l-18.0408,12.3907l-12.0933,12.0933l-4.0641-1.6852
		c-1.6851-0.4956-4.1633-0.1983-5.6501,1.4869c-1.4869,1.6852-3.172,5.2536-1.7843,18.1399
		c0.0991,0.793-0.4956,3.4694-4.0641,11.2012c-4.758,7.4344-2.4781,12.9854-0.0991,15.8601l6.6414,11.8951l2.2799,11.3003
		l-0.2974-0.1982c-0.4956-4.9563-3.2711-8.5248-7.8309-9.4169l-1.9825-0.3965l-3.5685,5.2536l2.2799,2.6764l-6.8396-2.2798
		l17.1487,37.6677c10.5073,23.8892,12.7872,33.6035,12.7872,37.5686l13.0845,35.5861c0.4956,6.5422-0.1982,12.0933-2.2799,17.2478
		l-6.0467,13.0845c-3.0729,3.4694-4.1633,6.9388-3.2711,10.3091c1.1895,4.9562,6.6414,9.0204,16.6531,12.4897
		c11.3994,3.7668,22.3032,5.7493,32.6123,5.7493c5.0554,0,11.2012-3.2711,19.8251-10.5073
		c7.2362-5.6501,13.4811-10.4082,16.1574-10.4082h35.6852c12.9854-1.4869,22.6006-5.6501,30.4315-13.3819
		c6.7405-8.3265,17.1487-13.0846,30.9271-14.2741l17.6443-1.9825c6.0467-1.2886,11.3994-4.0641,16.2566-6.4432l0.9913-0.8922
		c2.2798-3.0729,7.6327-4.8572,17.9417-6.0466l31.8193,1.7842c9.8134,2.1808,21.0146,4.7581,28.7464,7.8309
		c9.0204,3.1721,11.0029,6.2449,11.0029,7.1371c0,5.6501,2.7755,11.3994,7.2361,15.0671c4.6589,4.1633,6.6414,7.137,7.0379,11.1021
		c0.5948,5.2536,1.7842,11.6968,6.0467,15.6618c0.6939,1.4869,1.586,2.379,2.4781,2.9738v0.1982l0.1983-0.0991
		c0.9912,0.5947,2.0816,0.6938,2.6764,0.6938c3.172,0,5.8484-2.5772,7.9301-5.0554l16.7522-21.5103
		c3.5685-4.6589,6.344-7.7318,8.2274-9.8134l-0.2974,2.7755l-2.8746,9.0204c-3.0729,2.8746-3.4694,7.137-3.4694,10.2099v5.9475
		l-10.6064,8.624v1.3878c0,0.0991,0.0991,0.1982,0.0991,0.2974l-3.7667,3.0729h5.0554c0.793,0.793,1.7842,1.2886,3.172,1.2886
		c1.2886,0,2.7755-0.4956,4.9563-1.4869l6.344-3.4694l0.3965-0.6939c2.379-4.3615,3.965-6.9388,5.1545-8.3265l0.5948,20.2216
		l11.7959,0.793l5.3528-1.3878l6.7405,18.3382c-3.4694,14.9679,5.0554,26.6647,26.5656,35.8834l24.5831,6.2449l19.3295-0.6939
		c4.6589-0.6939,8.5248-4.2624,11.3994-10.5073l1.8834-2.1808c0.793,0.1983,1.4869,0.3965,2.1808,0.8922l7.137,10.7056
		c3.6677,5.1545,7.5335,7.8309,11.4985,7.8309c1.7842,0,3.4694-0.5947,5.1545-1.6852l11.3994-9.4169
		c4.1633-3.965,7.5335-5.6502,9.2186-6.6414l24.5831-6.2449c16.0583-6.8397,14.8688-16.8513,12.7872-22.2041
		c-3.8659-9.9125,14.8688-51.1487,21.0146-64.828c1.586-3.6677,6.3441-11.5977,19.8251-24.2858
		c3.2711-3.172,5.1545-14.1749,5.7493-32.2158l4.9563-23.4927c1.3878-8.8221,0.0991-17.5452-3.2711-24.2857
		C702.4252,495.0547,701.8304,490.2967,702.8217,485.2413z M632.2444,153.3694l7.7318,2.9738l22.5015,1.3878l8.1283-4.3615
		l0.6939-0.4956c2.9738-2.8746,5.1545-3.172,6.6414-3.172c5.2537,0.6939,7.9301-0.4956,8.1283-4.1633v-0.4956l-1.1895-3.965
		l0.4957-0.1982c4.2624-2.1808,6.2449-5.2537,6.3441-10.1108v-0.5948l-1.8834-4.6589h-8.6239c-1.9825,0-3.3703,0.5948-4.0641,1.4869
		c-1.3878,1.586-0.8922,3.5685-0.6939,4.2624c0.2974,1.0904,0,2.2799-0.4956,2.7755c-3.8659,0.793-5.3528,2.379-6.0466,3.6676
		c-4.3615,5.0554-8.2274,6.8396-10.4081,6.8396c-0.4957,0-1.3878-0.2974-2.379-0.6939l-6.0466-2.7755l-3.2711,3.172l-3.5685,1.9825
		l-10.0116-1.8834l-3.2711,0.6939c-0.793,0-2.5773,0.2974-3.6677,2.2799l-2.6764,1.3877l2.9738,2.7755
		C628.3785,152.3782,629.4689,152.9729,632.2444,153.3694z M522.6117,205.7076c12.8863,3.172,21.5103,1.3878,27.0612-5.2536
		l0.4956-0.5948l0.1983-0.6939c0.8921-4.4606-4.6589-5.8484-7.4344-6.5423c-4.7581-1.3878-5.4519-2.379-5.6502-2.7755h13.7784
		l2.2798-6.2449c0.4957-1.9825,0.793-2.9738,1.2886-3.4694l9.8135,1.6851l13.3819,1.7843l1.586-0.0991
		c0.5947,0,2.7755,0.2974,6.3441,3.2711l6.7405,7.8309c4.6589,6.4431,10.8047,11.5977,17.5452,15.1662l5.8484,8.2274l16.2566,1.3877
		l15.2653,6.4432l18.0408,0.9913l-4.0641-6.1458l-7.6326-5.8484l-1.1895-5.7493l-4.9563-2.0816l-3.965-0.6939l-1.3878-5.4519
		l-5.1545-0.793l-6.0466-1.586l-5.6501-10.1108l-0.6939-0.793c-14.8688-11.6968-18.5364-16.7522-19.032-19.3295l0.4956-0.8921
		c0.2974-0.793,1.9825-1.2886,4.6589-1.2886l7.5335-0.6939l1.8834-2.4781l-0.2974-1.3877
		c-0.6939-4.4606-10.4081-10.0117-28.6473-16.5539c-2.9738-0.9913-3.7667-1.6851-3.8659-2.2799l0.0991-0.3965l-0.4957-5.9475
		l-0.1982-0.8921c-1.8834-4.6589-5.2536-8.6239-9.1196-11.2012c-3.3702-2.6764-7.8309-4.4606-14.0758-5.2537
		c-5.4519,0-20.7172-5.6501-51.9417-19.1312v103.4869L522.6117,205.7076z"/>
</g>
<g>
	
		<text transform="matrix(1 0 0 1 -13.1973 595.332)" fill="#EA821B" stroke="#FFFFFF" stroke-width="10" stroke-miterlimit="10" font-family="'KornerDeliNF'" font-size="255.5157px">OCEANIA</text>
</g>
</svg>
