<?xml version="1.0" encoding="utf-8"?>
<!-- Generator: Adobe Illustrator 22.1.0, SVG Export Plug-In . SVG Version: 6.00 Build 0)  -->
<svg version="1.1" id="Layer_1" xmlns="http://www.w3.org/2000/svg" xmlns:xlink="http://www.w3.org/1999/xlink" x="0px" y="0px"
	 width="362.667px" height="485.6667px" viewBox="0 0 362.667 485.6667" enable-background="new 0 0 362.667 485.6667"
	 xml:space="preserve">
<g>
	<g>
		<path d="M320.001,188.0877V138.666C320.001,62.208,257.793,0,181.334,0S42.667,62.208,42.667,138.667v49.4217
			C18.347,193.0377,0,214.5847,0,240.3337v192c0.001,29.397,23.915,53.333,53.334,53.333h256c29.419,0,53.333-23.936,53.333-53.333
			v-192C362.667,214.5837,344.321,193.0377,320.001,188.0877z M204.993,351.9066c0,0,0.768,69.761-2.325,69.761h-42.667
			c-3.093,0-2.325-69.739-2.325-69.739c-17.835-8.917-29.675-27.328-29.675-47.595c0-29.397,23.915-53.333,53.333-53.333
			s53.333,23.936,53.333,53.333C234.667,324.5997,222.827,343.0107,204.993,351.9066z M256.001,186.9997H106.667V138.666
			c0-41.173,33.494-74.666,74.667-74.666s74.667,33.493,74.667,74.667V186.9997z"/>
	</g>
</g>
</svg>
