<?xml version="1.0" encoding="utf-8"?>
<!-- Generator: Adobe Illustrator 22.1.0, SVG Export Plug-In . SVG Version: 6.00 Build 0)  -->
<svg version="1.1" xmlns="http://www.w3.org/2000/svg" xmlns:xlink="http://www.w3.org/1999/xlink" x="0px" y="0px"
	 width="485.67px" height="485.67px" viewBox="0 0 485.67 485.67" enable-background="new 0 0 485.67 485.67" xml:space="preserve">
<g id="Layer_1">
	<g>
		<g>
			<path d="M320.2212,188.1177v-49.2164c0-76.1405-61.9496-138.0901-138.0911-138.0901S44.0391,62.7608,44.0391,138.9023v49.2164
				c-24.219,4.9285-42.4898,26.386-42.4898,52.028v191.2026c0.001,29.2749,23.8157,53.1115,53.1125,53.1115h254.9367
				c29.2968,0,53.1115-23.8366,53.1115-53.1115V240.1467C362.71,214.5036,344.4402,193.0471,320.2212,188.1177z M205.6909,351.2563
				c0,0,0.7648,69.4713-2.3154,69.4713h-42.4898c-3.0802,0-2.3153-69.4494-2.3153-69.4494
				c-17.7609-8.8799-29.5518-27.2145-29.5518-47.3973c0-29.2749,23.8157-53.1115,53.1115-53.1115s53.1115,23.8366,53.1115,53.1115
				C235.2417,324.0627,223.4508,342.3972,205.6909,351.2563z M256.487,187.0342H107.7733v-48.1329
				c0-41.002,33.3549-74.3559,74.3569-74.3559s74.3569,33.3539,74.3569,74.3569V187.0342z"/>
		</g>
	</g>
</g>
<g id="Layer_2">
	<g>
		<path stroke="#FFFFFF" stroke-width="40" stroke-miterlimit="10" d="M469.9505,58.2823
			c6.7743,7.5457,13.5443,15.0865,20.3143,22.6273c12.8533,14.3168,11.6643,36.3447-2.6525,49.198
			c-102.7135,92.2138-205.3755,184.3812-308.0931,276.5986c-15.1851,13.6328-38.7804,11.3553-51.0786-4.9295
			c-21.6236-28.6334-45.4784-59.7712-66.921-88.201c-11.1093-14.7294-8.8215-35.5988,5.2651-47.5126
			c8.3109-7.029,16.6088-14.2731,24.9224-21.3661c15.6428-13.346,39.4028-10.2266,51.1488,6.6507
			c8.7121,12.5181,17.5335,25.2086,23.2436,32.9035c84.8803-76.2034,169.719-152.3694,254.6486-228.6169
			C435.0648,42.781,457.0972,43.9655,469.9505,58.2823z"/>
	</g>
</g>
</svg>
