<?xml version="1.0" encoding="utf-8"?>
<!-- Generator: Adobe Illustrator 22.1.0, SVG Export Plug-In . SVG Version: 6.00 Build 0)  -->
<svg version="1.1" id="Layer_1" xmlns="http://www.w3.org/2000/svg" xmlns:xlink="http://www.w3.org/1999/xlink" x="0px" y="0px"
	 width="485.67px" height="485.67px" viewBox="0 0 485.67 485.67" enable-background="new 0 0 485.67 485.67" xml:space="preserve">
<g>
	<g>
		<path fill="#FFF4DD" d="M381.5025,188.0893v-49.4217c0-76.458-62.208-138.666-138.667-138.666s-138.667,62.208-138.667,138.667
			v49.4217c-24.32,4.949-42.667,26.496-42.667,52.245v192c0.001,29.397,23.915,53.333,53.334,53.333h256
			c29.419,0,53.333-23.936,53.333-53.333v-192C424.1685,214.5853,405.8225,193.0393,381.5025,188.0893z M266.4945,351.9083
			c0,0,0.768,69.761-2.325,69.761h-42.667c-3.093,0-2.325-69.739-2.325-69.739c-17.835-8.917-29.675-27.328-29.675-47.595
			c0-29.397,23.915-53.333,53.333-53.333s53.333,23.936,53.333,53.333C296.1685,324.6013,284.3285,343.0123,266.4945,351.9083z
			 M317.5025,187.0013h-149.334v-48.3337c0-41.173,33.494-74.666,74.667-74.666s74.667,33.493,74.667,74.667V187.0013z"/>
	</g>
</g>
</svg>
