<?xml version="1.0" encoding="utf-8"?>
<!-- Generator: Adobe Illustrator 22.1.0, SVG Export Plug-In . SVG Version: 6.00 Build 0)  -->
<svg version="1.1" id="Layer_1" xmlns="http://www.w3.org/2000/svg" xmlns:xlink="http://www.w3.org/1999/xlink" x="0px" y="0px"
	 width="13.2975px" height="21.3989px" viewBox="0 0 13.2975 21.3989" enable-background="new 0 0 13.2975 21.3989"
	 xml:space="preserve">
<g id="NpPHSR.tif">
	<g>
		<path d="M6.6439,21.3989c-0.315-0.564-0.6074-1.0908-0.9028-1.6159c-1.2516-2.2253-2.5142-4.4445-3.7523-6.6773
			c-0.7298-1.3162-1.3949-2.6672-1.7156-4.1519c-0.3299-1.5273-0.4373-3.054,0.1157-4.5647c1.0132-2.7677,3.7268-4.6185,6.756-4.366
			c3.1209,0.2601,5.5658,2.5088,6.0549,5.5129c0.2363,1.4518,0.0219,2.8719-0.4089,4.2622
			c-0.4524,1.4602-1.1853,2.7932-1.9275,4.1186c-1.364,2.4359-2.7391,4.8656-4.1097,7.2978
			C6.7269,21.2623,6.6977,21.3088,6.6439,21.3989z M6.6531,3.532C4.7958,3.5381,3.3138,5.0234,3.3203,6.8724
			c0.0064,1.8299,1.505,3.3106,3.3456,3.3057c1.8214-0.0049,3.3107-1.4987,3.3085-3.3185C9.9723,5.0184,8.4827,3.526,6.6531,3.532z"
			/>
	</g>
</g>
</svg>
