<?xml version="1.0" encoding="utf-8"?>
<!-- Generator: Adobe Illustrator 22.1.0, SVG Export Plug-In . SVG Version: 6.00 Build 0)  -->
<svg version="1.1" id="Layer_1" xmlns="http://www.w3.org/2000/svg" xmlns:xlink="http://www.w3.org/1999/xlink" x="0px" y="0px"
	 width="19.0537px" height="18.0231px" viewBox="0 0 19.0537 18.0231" enable-background="new 0 0 19.0537 18.0231"
	 xml:space="preserve">
<path fill-rule="evenodd" clip-rule="evenodd" fill="#FFF2E1" d="M0.7161,18.0231c-0.0552-0.0239-0.1079-0.0562-0.166-0.0718
	C0.136,17.838-0.049,17.5802,0.011,17.1559c0.168-1.1958,0.5479-5.4067,8.7725-5.4038c7.7739,0,9.4477,1.8481,10.1059,4.582
	c0.0606,0.253,0.1036,0.5122,0.1465,0.7701c0.0782,0.457-0.1015,0.7251-0.5605,0.852c-0.0488,0.0132-0.0918,0.0449-0.1387,0.0669
	H0.7161z"/>
<path fill-rule="evenodd" clip-rule="evenodd" fill="#FFF2E1" d="M4.094,5.4289C4.0745,2.4362,6.5794-0.014,9.553,0.0001
	c2.9463,0.0137,5.4185,2.4546,5.4126,5.4556c-0.0098,3.0244-2.5474,5.4282-5.4536,5.4204C6.6136,10.8688,4.0639,8.4591,4.094,5.4289
	"/>
</svg>
