<?xml version="1.0" encoding="utf-8"?>
<!-- Generator: Adobe Illustrator 22.1.0, SVG Export Plug-In . SVG Version: 6.00 Build 0)  -->
<svg version="1.1" id="Layer_1" opacity="0.75" xmlns="http://www.w3.org/2000/svg" xmlns:xlink="http://www.w3.org/1999/xlink"
	 x="0px" y="0px" width="256px" height="256px" viewBox="0 0 256 256" enable-background="new 0 0 256 256" xml:space="preserve">
<g>
	<g id="Layer_3">
		<path fill="#2D5C99" d="M0.2469,78.5141c3.2198,0.692,7.1653,0.1809,11.6034-3.4411
			C27.8461,62.018,30.1225,25.0147,44.0343,11.8912C48.0199,8.1319,68.4936-8.321,76.7396,50.1095
			c1.0179,7.2127,3.9415,27.5317,8.6685,47.4313c1.8046,7.5969,4.1088,14.4184,7.4216,19.6535
			c23.7069,37.462,33.2289-104.695,57.6203-80.7324c5.1013,5.0117,8.7162,16.7163,11.8787,30.6868
			c2.9782-1.9414,6.2378-3.4124,9.664-4.361c20.3791-5.4242,38.2191-10.1725,52.6887,36.8559
			c0.1174,0.3818,0.2497,0.8164,0.3886,1.2738c6.71-12.0727,12.1744-8.1734,20.3754-11.9801
			c3.4604-1.6978,7.4562-1.9409,11.0969-0.6753V-0.5261H0.2469V78.5141z"/>
		
			<image overflow="visible" opacity="0.15" enable-background="new    " width="47" height="44" xlink:href="625C67C5CD0B888A.png"  transform="matrix(1.9568 0 0 1.9568 164.5044 -0.5261)">
		</image>
		<path fill="#3D6FB0" d="M245.4451,11.1667c-6.8891,0.3851-13.7185,1.4944-20.3754,3.3095
			c3.3217,1.6169,12.7181,22.6958,25.8259,24.2606c2.1753,0.2597,4.0921,0.3904,5.6465,0.4571V11.2635
			C252.8487,11.0016,249.1426,10.9693,245.4451,11.1667z"/>
		<path fill="#3D6FB0" d="M32.8737,59.805c3.247,0.9759,6.5558,1.7327,9.9042,2.2653c12.7338-3.498,27.5746-2.9151,44.0823-2.2653
			c0.7759,0.0305,2.1282,0.0892,3.9715,0.2135c4.7836-0.9541,8.3309-1.8546,10.0441-2.2899
			c8.9578-2.2758,6.3328-2.5573,19.2067-6.2292c11.3903-3.2487,25.0564-40.3984,42.246-42.0173
			c-3.5612-2.3997-7.6246-3.9521-11.8787-4.5382c-24.3912-3.5438-33.9132,17.4795-57.6201,11.9393
			c-2.6185-0.5487-5.1269-1.531-7.4216-2.9065c-3.175-1.9613-6.0878-4.3183-8.6684-7.0142
			c-8.246-8.6414-28.7198-6.2083-32.7053-5.6523c-13.9118,1.9408-16.1883,7.4131-32.1841,9.3438
			c-3.8493,0.463-7.7283,0.6331-11.6034,0.5089v44.8356c1.8782-0.1785,4.3356-0.3419,7.1909-0.3464
			C16.0826,55.6837,24.6678,57.0854,32.8737,59.805z"/>
		
			<image overflow="visible" opacity="0.15" enable-background="new    " width="53" height="54" xlink:href="625C67C5CD0B888E.png"  transform="matrix(1.981 0 0 2.0315 0.2469 -0.5261)">
		</image>
		<path fill="#2D5C99" d="M34.1714,52.4408c2.7489-1.3213,5.62-22.8685,8.6064-23.6889c-3.3484-0.5326-6.6572-1.2894-9.9042-2.2653
			c-8.2059-2.7197-16.7911-4.1214-25.4359-4.1528c-2.8552,0.0045-5.3127,0.1679-7.1909,0.3464v38.3242
			c2.5772-0.0392,5.1507-0.212,7.71-0.5177C17.0962,59.3483,25.9671,56.6256,34.1714,52.4408z"/>
		
			<image overflow="visible" opacity="0.15" enable-background="new    " width="117" height="69" xlink:href="625C67C5CD0B8889.png"  transform="matrix(1.9474 0 0 1.9474 27.5102 -1.2846)">
		</image>
		<path fill="#2D5C99" d="M225.0698,14.4762c-0.1389-0.0676-0.2712-0.1319-0.3886-0.1884
			c-14.4698-6.9549-32.3096-6.2528-52.6887-5.4506c-3.3417,0.1315-6.5596,0.3526-9.664,0.6449
			c-17.1896,1.6189-30.8556,5.4501-42.246,8.6989c-12.8738,3.6719-10.2489,3.9534-19.2067,6.2292
			c-1.7133,0.4355-5.2606,1.3358-10.0441,2.2899c8.247,0.5559,26.4307,40.8826,47.9385,47.5748
			c18.5319,5.7661,17.1172,8.1297,25.9549,8.8247c25.395,1.9971,31.3255-17.971,52.4291-14.0157
			c9.7495,1.8271,15.8508,7.4698,34.2606,9.3438c1.8952,0.1929,3.6208,0.3154,5.1275,0.3934V22.7908
			c-1.5546-0.0668-3.4714-0.1974-5.6465-0.4571C241.8991,21.2201,233.1622,18.5619,225.0698,14.4762z"/>
		
			<image overflow="visible" opacity="0.1" enable-background="new    " width="128" height="76" xlink:href="625C67C5CD0B888B.png"  transform="matrix(2.0023 0 0 2.0097 0.2469 -0.5261)">
		</image>
		<path fill="#20497D" d="M217.1542,30.6394c-21.1035-3.9553-27.0341,16.0127-52.4291,14.0157
			c-8.8378-0.695-7.4232-3.0585-25.9549-8.8247c-15.579-4.862-31.6631-7.9253-47.9386-9.1301
			c-1.8433-0.1243-3.1956-0.183-3.9715-0.2135c-16.5077-0.6498-31.3484-1.2327-44.0823,2.2653
			c-2.9588,0.8007-5.8393,1.8667-8.6064,3.1852c-8.2043,4.1848-17.0752,6.9075-26.2146,8.0459
			c-2.5593,0.3057-5.1328,0.4784-7.71,0.5176V96.026c0.83,0.0103,8.6595,0.0488,13.9392-2.0774
			c7.6281-3.0721,13.9274-8.8247,22.8404-8.8247c21.8022,0,30.8869,16.6347,42.5662,17.1303
			c10.9067,0.4629,30.6423-12.6767,41.5279-13.4966c11.1054-0.8365,31.6751,9.2151,42.5662,10.382
			c14.5348,1.5573,31.659-12.8239,62.5516-11.6798c6.4406,0.2385,16.611,6.8305,30.3039,8.2996V40.3766
			c-1.5067-0.0782-3.2323-0.2002-5.1275-0.3933C233.0052,38.1092,226.9037,32.4669,217.1542,30.6394z"/>
		
			<image overflow="visible" opacity="0.15" enable-background="new    " width="128" height="90" xlink:href="625C67C5CD0B8888.png"  transform="matrix(2.0023 0 0 1.9701 0.2469 -0.3449)">
		</image>
		<path fill="#3D6FB0" d="M163.6869,56.5944c-10.8911-1.1669-31.4608-11.2184-42.5662-10.382
			c-10.8857,0.8199-30.6213,13.9595-41.5279,13.4967c-11.6793-0.4956-20.7639-17.1303-42.5662-17.1303
			c-8.913,0-15.2125,5.7526-22.8404,8.8247c-5.2798,2.1263-13.1094,2.0877-13.9393,2.0777v65.4004
			c5.0767,0.4026,10.1808,0.2992,15.237-0.3084c15.9959-1.9306,18.2724-7.403,32.1842-9.3438
			c3.9855-0.556,24.4593-2.9892,32.7053,5.652c2.5806,2.696,5.4935,5.0531,8.6685,7.0145c2.2947,1.3755,4.8031,2.3578,7.4216,2.9065
			c23.7069,5.5402,33.2289-15.4828,57.6201-11.9393c16.3785,2.3796,17.4391,14.9589,37.3752,16.0921
			c1.0289,0.0585,2.0576,0.0687,3.1186,0.034c4-2.0667,8.4959-3.2658,14.7905-2.3699c0.1944,0.0276,0.3834,0.0623,0.5754,0.0931
			c1.3569-0.269,2.8019-0.5593,4.356-0.8717c15.5116-3.1179,21.624-4.3139,34.7797-5.2171c2.6961-0.1852,5.1978-0.237,7.4636-0.2109
			V53.2144c-13.6929-1.4693-23.8633-8.0612-30.3039-8.2996C195.3459,43.7705,178.2217,58.1515,163.6869,56.5944z"/>
		
			<image overflow="visible" opacity="0.15" enable-background="new    " width="128" height="95" xlink:href="625C67C5CD0B8896.png"  transform="matrix(1.9994 0 0 1.9839 0.2469 -0.1533)">
		</image>
		<path fill="#2D5C99" d="M36.5074,123.0506c21.8022,0,30.8869,16.6346,42.5662,17.1303
			c10.9067,0.4629,30.6423-12.6767,41.5279-13.4966c20.1575-1.5183,22.4936,10.9192,42.5662,10.382
			c16.6129-0.4446,22.8827-48.7797,31.4094-53.1852c-1.0608,0.0347-2.0895,0.0245-3.1186-0.034
			c-19.9361-1.1332-20.9967-13.7125-37.3752-16.0921C129.692,64.2112,120.17,85.2345,96.4631,79.6943
			c-2.6185-0.5487-5.1269-1.531-7.4216-2.9065c-3.175-1.9614-6.0879-4.3185-8.6685-7.0145
			c-8.246-8.6412-28.7198-6.208-32.7053-5.652c-13.9118,1.9408-16.1883,7.4131-32.1842,9.3438
			c-5.0561,0.6077-10.1601,0.711-15.2367,0.3085v60.1806c2.0154-0.0093,8.7264-0.1886,13.4201-2.0789
			C21.295,128.8032,27.5943,123.0506,36.5074,123.0506z"/>
		
			<image overflow="visible" opacity="0.15" enable-background="new    " width="55" height="88" xlink:href="625C67C5CD0B8899.png"  transform="matrix(1.9659 0 0 1.9974 148.4177 -0.693)">
		</image>
		<path fill="#2D5C99" d="M249.0787,73.4651c-13.1557,0.9031-19.2682,4.1495-34.7797,7.2674
			c-1.5542,0.3124-2.9991,0.6027-4.356,0.8717c13.201,2.1158,20.8857,45.2872,43.0289,46.1964
			c1.3065,0.0536,2.5018,0.0705,3.5703,0.068v-54.069C254.2766,73.7735,251.7749,73.2801,249.0787,73.4651z"/>
		
			<image overflow="visible" opacity="0.15" enable-background="new    " width="129" height="93" xlink:href="625C67C5CD0B889A.png"  transform="matrix(1.9855 0 0 1.9805 0.2469 4.2403)">
		</image>
		<path fill="#3D6FB0" d="M252.972,93.9696c-22.1433-0.909-29.8279-10.2496-43.0289-12.3653
			c-0.192-0.0308-0.381-0.0654-0.5754-0.0931c-6.2946-0.896-10.7906,0.3033-14.7905,2.3699
			c-8.5266,4.4054-14.7965,12.7585-31.4094,13.2031c-20.0726,0.5372-22.4087-11.9003-42.5662-10.382
			c-10.8857,0.8199-30.6212,13.9595-41.5279,13.4966c-11.6793-0.4956-20.7639-17.1303-42.5662-17.1303
			c-8.913,0-15.2125,5.7526-22.8404,8.8247c-4.6938,1.8902-11.4048,2.0695-13.4202,2.0788v42.2202
			c1.9673-0.0524,4.6103-0.179,7.71-0.4945c18.4098-1.8741,24.5112-7.5166,34.2606-9.3438
			c21.1035-3.9553,27.0341,16.0127,52.4291,14.0157c8.8377-0.695,7.4231-3.0585,25.9549-8.8247
			c26.3153-8.1878,47.6629-9.1766,51.9098-9.3438c20.3791-0.8022,38.2191-1.5044,52.6886,5.4505
			c8.2043,4.1849,17.0752,6.9077,26.2146,8.0461c1.9396,0.2316,3.6711,0.3596,5.1275,0.4324V94.0376
			C255.4738,94.0401,254.2785,94.0232,252.972,93.9696z"/>
		
			<image overflow="visible" opacity="0.3" enable-background="new    " width="128" height="99" xlink:href="625C67C5CD0B8898.png"  transform="matrix(2.0004 0 0 1.9819 0.2469 19.9261)">
		</image>
		<path fill="#20497D" d="M225.2002,102.5348c-14.4698-6.955-32.3095-6.2527-52.6886-5.4505
			c-4.2471,0.1672-25.5949,1.156-51.9098,9.3438c-18.5319,5.7661-17.1172,8.1297-25.9549,8.8247
			C69.2519,117.25,63.3213,97.282,42.2178,101.237c-9.7495,1.8271-15.8508,7.4698-34.2606,9.3438
			c-3.0998,0.3154-5.7427,0.4421-7.71,0.4945v47.9903c3.3489-0.131,6.7023-0.0819,10.0459,0.147
			c13.1558,0.9031,19.2682,4.1494,34.7797,7.2674c11.4095,2.2934,17.1143,3.4401,22.8404,3.1146
			c19.9361-1.1331,20.9967-13.7125,37.3752-16.092c24.3912-3.5438,33.9132,17.4794,57.6201,11.9393
			c2.6185-0.5486,5.1269-1.531,7.4216-2.9065c3.175-1.9614,6.0879-4.3184,8.6685-7.0144c8.246-8.6412,28.7198-6.2081,32.7053-5.6521
			c13.9118,1.9408,16.1883,7.4131,32.1842,9.3438c4.1981,0.5049,8.4307,0.6618,12.6546,0.469v-48.6684
			c-1.4564-0.0728-3.1879-0.2009-5.1275-0.4325C242.2757,109.4424,233.4046,106.7197,225.2002,102.5348z"/>
		
			<image overflow="visible" opacity="0.15" enable-background="new    " width="126" height="95" xlink:href="375AFF96A2AABC4D.png"  transform="matrix(2.0321 0 0 1.981 0.2469 39.8396)">
		</image>
		<path fill="#2D5C99" d="M243.8877,125.8943c-15.9959-1.9307-18.2724-7.403-32.1842-9.3438
			c-3.9855-0.556-24.4593-2.9892-32.7053,5.6521c-2.5806,2.696-5.4935,5.053-8.6685,7.0144
			c-2.2947,1.3755-4.8031,2.3578-7.4216,2.9065c-23.7069,5.5402-33.2289-15.4828-57.6201-11.9393
			c-16.3785,2.3796-17.4391,14.9589-37.3752,16.092c-5.7261,0.3254-11.4309-0.8212-22.8404-3.1146
			c-15.5116-3.118-21.624-6.3643-34.7797-7.2674c-3.3436-0.2289-6.697-0.278-10.0458-0.147v51.4237
			c1.6345-0.0591,3.7356-0.1888,6.1527-0.4774c9.1393-1.1384,18.0103-3.8611,26.2146-8.046
			c14.4698-6.955,32.3095-6.2528,52.6887-5.4506c21.8452,0.8599,38.4626,5.5084,51.9098,9.3438
			c12.5468,3.5786,10.3772,3.9377,18.551,6.0604c5.0722-0.6695,10.4671-1.1617,16.2287-1.3885
			c19.1749-0.7548,36.1006-1.419,50.0874,4.2983c0.7854-0.2087,1.566-0.4303,2.3417-0.6646
			c8.2059-2.7197,16.7911-4.1213,25.4359-4.1528c2.61,0.0041,4.8778,0.1416,6.6848,0.3013v-51.4237
			C253.1478,125.7255,248.8204,126.4896,243.8877,125.8943z"/>
		
			<image overflow="visible" opacity="0.15" enable-background="new    " width="49" height="78" xlink:href="375AFF96A2AABC43.png"  transform="matrix(1.9614 0 0 1.9614 160.4315 76.1541)">
		</image>
		<path fill="#20497D" d="M224.4216,154.7043c-0.7751,0.2357-1.5557,0.4573-2.3417,0.6646
			c0.8784,0.3591,1.7462,18.6819,2.6013,19.0929c8.2043,4.1849,17.0753,6.9077,26.2147,8.0461
			c2.1753,0.2596,4.0921,0.3904,5.6465,0.4571v-32.112c-1.8071-0.1598-4.0747-0.2972-6.6848-0.3013
			C241.2127,150.583,232.6275,151.9846,224.4216,154.7043z"/>
		
			<image overflow="visible" opacity="0.15" enable-background="new    " width="109" height="95" xlink:href="375AFF96A2AABC45.png"  transform="matrix(1.9977 0 0 1.981 0.4137 59.6497)">
		</image>
		<path fill="#20497D" d="M32.8737,199.4754c2.8375,0.8548,5.7235,1.5397,8.6426,2.051c12.551-3.256,27.11-2.687,43.2674-2.051
			c0.9751,0.0384,2.861,0.1216,5.492,0.3238c5.0658-0.9945,8.8209-1.9481,10.6001-2.4002
			c8.9578-2.2758,6.3329-2.5573,19.2067-6.2292c9.9005-2.8238,21.5229-36.842,35.6811-38.7108
			c-8.1738-2.1225-6.0042-2.4818-18.551-6.0604c-13.4473-3.8354-30.0649-8.4839-51.9098-9.3438
			c-20.3791-0.8022-38.2191-1.5044-52.6887,5.4506c-8.2043,4.1849-17.0752,6.9076-26.2146,8.046
			c-2.4171,0.2886-4.5182,0.4182-6.1527,0.4774v44.6402c1.8782-0.1785,4.3356-0.3418,7.1909-0.3463
			C16.0825,195.3541,24.6677,196.7558,32.8737,199.4754z"/>
		
			<image overflow="visible" opacity="0.3" enable-background="new    " width="51" height="80" xlink:href="375AFF96A2AABC47.png"  transform="matrix(2.0023 0 0 1.9638 0.2469 88.8462)">
		</image>
		<path fill="#3D6FB0" d="M32.095,190.0609c2.9976-1.4408,6.1421-18.4391,9.4213-19.2899c-2.9191-0.5113-5.8051-1.1962-8.6426-2.051
			c-8.2059-2.7197-16.7911-4.1213-25.4359-4.1528c-2.8552,0.0045-5.3127,0.1679-7.1909,0.3464v33.6498
			c1.5522-0.067,3.4646-0.1976,5.6336-0.4566C15.0198,196.9684,23.8907,194.2457,32.095,190.0609z"/>
		
			<image overflow="visible" opacity="0.3" enable-background="new    " width="115" height="87" xlink:href="375AFF96A2AABC44.png"  transform="matrix(1.9793 0 0 1.9793 28.6014 75.5616)">
		</image>
		<path fill="#3D6FB0" d="M224.6811,156.5211c-0.8551-0.411-1.7222-0.7951-2.6013-1.1522
			c-13.9868-5.7172-30.9125-5.0531-50.0874-4.2983c-5.7616,0.2268-11.1565,0.719-16.2287,1.3885
			c-14.1585,1.8688-25.7808,5.1315-35.6811,7.9553c-12.8738,3.6718-10.2489,3.9534-19.2067,6.2292
			c-1.7792,0.4521-5.5343,1.4057-10.6001,2.4002c8.8287,0.6784,26.1445,29.3667,46.418,35.6748
			c18.5319,5.7661,17.1172,8.1297,25.9549,8.8247c25.395,1.9971,31.3255-17.971,52.4291-14.0157
			c9.7495,1.8271,15.8508,7.4698,34.2606,9.3438c2.8383,0.2889,5.2982,0.4199,7.2039,0.4803v-44.3274
			c-1.5546-0.0668-3.4714-0.1974-5.6465-0.4571C241.7565,163.4289,232.8855,160.7061,224.6811,156.5211z"/>
		
			<image overflow="visible" opacity="0.1" enable-background="new    " width="129" height="82" xlink:href="375AFF96A2AABC5C.png"  transform="matrix(1.9929 0 0 1.9776 0.2469 91.6295)">
		</image>
		<path fill="#2D5C99" d="M215.0778,172.8728c-21.1035-3.9553-27.0341,16.0127-52.4291,14.0157
			c-8.8377-0.695-7.4231-3.0585-25.9549-8.8247c-15.0942-4.7032-30.6609-7.7282-46.418-9.02
			c-2.631-0.2022-4.517-0.2853-5.492-0.3238c-16.1574-0.6357-30.7164-1.205-43.2674,2.051
			c-3.2434,0.8245-6.3987,1.963-9.4213,3.3996c-8.2043,4.1848-17.0752,6.9076-26.2146,8.046
			c-2.169,0.2589-4.0814,0.3895-5.6336,0.4566v36.6479c2.8716-0.1018,8.0373-0.5059,11.8628-2.0465
			c7.628-3.072,13.9274-8.8247,22.8404-8.8247c21.8022,0,30.8869,16.6347,42.5662,17.1303
			c10.9067,0.4628,30.6423-12.6767,41.5279-13.4966c11.1054-0.8365,31.6751,9.2151,42.5662,10.382
			c14.5349,1.5572,31.6589-12.8239,62.5516-11.6797c6.7623,0.2503,17.6342,7.5074,32.3803,8.4823v-36.5713
			c-1.9057-0.0604-4.3657-0.1914-7.2039-0.4803C230.9286,180.3424,224.8272,174.7001,215.0778,172.8728z"/>
		
			<image overflow="visible" opacity="0.15" enable-background="new    " width="129" height="71" xlink:href="375AFF96A2AABC5D.png"  transform="matrix(1.989 0 0 1.9737 0.2469 111.689)">
		</image>
		<path fill="#3D6FB0" d="M161.6105,203.4997c-10.8912-1.1669-31.4608-11.2185-42.5662-10.382
			c-10.8857,0.8199-30.6212,13.9594-41.5279,13.4966c-11.6793-0.4956-20.7639-17.1303-42.5662-17.1303
			c-8.913,0-15.2125,5.7527-22.8404,8.8247c-3.8256,1.5406-8.9913,1.9446-11.8629,2.0467v36.9075
			c4.3915,0.2297,8.7945,0.0813,13.1606-0.4437c15.9959-1.9307,18.2724-7.403,32.1842-9.3438
			c3.9855-0.556,24.4593-2.9892,32.7053,5.652c2.5806,2.696,5.4934,5.0531,8.6685,7.0145c2.2947,1.3755,4.8031,2.3578,7.4216,2.9065
			c23.7069,5.5402,33.2289-15.4828,57.6201-11.9393c16.3785,2.3797,17.4391,14.9589,37.3752,16.0921
			c5.7261,0.3254,11.4309-0.8212,22.8404-3.1146c15.5116-3.1179,21.624-6.3643,34.7797-7.2674
			c3.5491-0.2436,6.7641,1.4288,9.5398,1.5223v-38.0388c-14.746-0.9749-25.618-8.2319-32.3803-8.4823
			C193.2694,190.6758,176.1453,205.057,161.6105,203.4997z"/>
		
			<image overflow="visible" opacity="0.15" enable-background="new    " width="128" height="59" xlink:href="375AFF96A2AABC5F.png"  transform="matrix(1.9985 0 0 1.9678 0.2469 137.7022)">
		</image>
		<path fill="#20497D" d="M247.0024,224.0042c-13.1558,0.903-19.2682,4.1494-34.7797,7.2674
			c-11.4095,2.2934-17.1143,3.4401-22.8404,3.1146c-19.9361-1.1332-20.9967-13.7125-37.3752-16.0921
			c-24.3912-3.5438-33.9132,17.4795-57.6201,11.9393c-2.6185-0.5487-5.1269-1.531-7.4216-2.9065
			c-3.175-1.9614-6.0879-4.3185-8.6685-7.0145c-8.246-8.6411-28.7198-6.208-32.7053-5.652
			c-13.9118,1.9408-16.1883,7.4131-32.1842,9.3438c-4.366,0.525-8.7691,0.6734-13.1606,0.4437v23.676
			c2.9438-0.1313,7.738,5.5778,11.3437,4.1257c7.628-3.072,13.9274-8.8247,22.8404-8.8247
			c21.8022,0,30.8869,10.4836,42.5662,10.9793c10.9067,0.4628,30.6423-3.4533,41.5279-4.2732
			c20.1575-1.5183,22.4936,4.2588,42.5662,3.7216c24.4062-0.6532,26.4872-8.5774,46.1999-5.772
			c13.5602,1.9298,21.1391,1.735,43.6044,2.6573c2.2406,0.092,4.1663-2.4845,5.6465-2.5256v-23.7109
			C253.7665,224.4078,250.5516,223.7605,247.0024,224.0042z"/>
		
			<image overflow="visible" opacity="0.3" enable-background="new    " width="128" height="49" xlink:href="375AFF96A2AABC5B.png"  transform="matrix(1.9921 0 0 1.9614 0.2469 159.6585)">
		</image>
		<path fill="#2D5C99" d="M250.8958,248.1748c-22.4653-0.9223-30.0441-10.5285-43.6044-12.4584
			c-19.7127-2.8054-21.7937,14.9198-46.1999,15.573c-20.0726,0.5372-22.4087-11.9003-42.5662-10.382
			c-10.8857,0.8199-30.6213,13.9594-41.5279,13.4966c-11.6794-0.4956-20.7639-17.1303-42.5662-17.1303
			c-8.913,0-15.2125,5.7527-22.8404,8.8247c-3.6057,1.4521-8.3997,1.8941-11.3437,2.0254v7.6455h256.2952v-7.5571
			C255.0619,248.2533,253.1363,248.2668,250.8958,248.1748z"/>
	</g>
</g>
</svg>
