<?xml version="1.0" encoding="utf-8"?>
<!-- Generator: Adobe Illustrator 22.1.0, SVG Export Plug-In . SVG Version: 6.00 Build 0)  -->
<svg version="1.1" id="Layer_1" opacity="0.5" xmlns="http://www.w3.org/2000/svg" xmlns:xlink="http://www.w3.org/1999/xlink"
	 x="0px" y="0px" width="384px" height="384px" viewBox="0 0 384 384" enable-background="new 0 0 384 384" xml:space="preserve">
<g>
	<g id="Layer_3">
		<path fill="#2D5C99" d="M-0.1433,118.105c4.8327,1.0386,10.7546,0.2715,17.4158-5.1648
			C41.281,93.3457,44.6977,37.8065,65.5783,18.1092c5.982-5.6425,36.7115-30.3369,49.0881,57.3627
			c1.5277,10.8257,5.9159,41.323,13.0107,71.1907c2.7086,11.4023,6.1671,21.6409,11.1392,29.4983
			c35.5822,56.2276,49.874-157.1391,86.4836-121.1731c7.6567,7.5221,13.0823,25.0898,17.829,46.0585
			c4.47-2.914,9.3624-5.1217,14.5049-6.5455c30.5875-8.1413,57.3639-15.2682,79.0816,55.3179
			c0.1762,0.5731,0.3748,1.2254,0.5833,1.9118c10.0712-18.1202,18.2728-12.2676,30.5818-17.9811
			c5.1938-2.5482,11.1912-2.9132,16.6556-1.0135V-0.5282H-0.1433V118.105z"/>
		
			<image overflow="visible" opacity="0.15" enable-background="new    " width="47" height="44" xlink:href="6FCA027B8F6E348.png"  transform="matrix(2.937 0 0 2.937 246.3945 -0.5282)">
		</image>
		<path fill="#3D6FB0" d="M367.8802,17.0218c-10.34,0.578-20.5904,2.2429-30.5818,4.9673
			c4.9857,2.4268,19.0889,34.0646,38.7626,36.4132c3.2649,0.3898,6.1419,0.586,8.475,0.686V17.1671
			C378.9925,16.774,373.4298,16.7255,367.8802,17.0218z"/>
		<path fill="#3D6FB0" d="M48.827,90.0242c4.8735,1.4648,9.8398,2.6007,14.8654,3.4001
			c19.1125-5.2503,41.3873-4.3754,66.1641-3.4001c1.1646,0.0458,3.1943,0.1339,5.961,0.3204
			c7.1798-1.4321,12.504-2.7837,15.0755-3.437c13.4449-3.4158,9.5051-3.8383,28.8278-9.3495
			c17.096-4.8761,37.6078-60.6348,63.408-63.0647c-5.3451-3.6018-11.4439-5.9318-17.829-6.8115
			c-36.6093-5.3189-50.9011,26.2354-86.4833,17.92c-3.9301-0.8235-7.695-2.298-11.1392-4.3624
			c-4.7654-2.9438-9.1374-6.4814-13.0106-10.5278C102.2898-2.2584,71.5603,1.3935,65.5783,2.228
			C44.6977,5.141,41.281,13.3546,17.2724,16.2524c-5.7776,0.6949-11.5995,0.9502-17.4158,0.7638V84.311
			c2.8191-0.2678,6.5075-0.5132,10.793-0.5199C23.6248,83.8383,36.5105,85.9421,48.827,90.0242z"/>
		
			<image overflow="visible" opacity="0.15" enable-background="new    " width="53" height="54" xlink:href="6FCA027B8F6E349.png"  transform="matrix(2.9733 0 0 3.0491 -0.1433 -0.5282)">
		</image>
		<path fill="#2D5C99" d="M50.7748,78.971c4.1258-1.9831,8.4352-34.3238,12.9176-35.5551
			c-5.0256-0.7994-9.9919-1.9353-14.8654-3.4001c-12.3165-4.082-25.2021-6.1859-38.1773-6.2331
			c-4.2855,0.0068-7.9739,0.2521-10.793,0.5199v57.5216c3.8682-0.0588,7.7307-0.3182,11.5721-0.777
			C25.1462,89.3387,38.4608,85.2521,50.7748,78.971z"/>
		
			<image overflow="visible" opacity="0.15" enable-background="new    " width="117" height="69" xlink:href="6FCA027B8F6E34F.png"  transform="matrix(2.9229 0 0 2.9229 40.7768 -1.6667)">
		</image>
		<path fill="#2D5C99" d="M337.2984,21.9891c-0.2086-0.1015-0.4071-0.198-0.5833-0.2827
			c-21.7181-10.4387-48.4941-9.3849-79.0816-8.1809c-5.0156,0.1974-9.8455,0.5292-14.5049,0.9679
			c-25.8002,2.4299-46.3118,8.1802-63.408,13.0563c-19.3226,5.5112-15.3828,5.9337-28.8277,9.3495
			c-2.5715,0.6537-7.8957,2.0049-15.0755,3.437c12.378,0.8344,39.6704,61.3616,71.9519,71.4061
			c27.8149,8.6545,25.6917,12.2021,38.9563,13.2452c38.1159,2.9974,47.0172-26.9731,78.692-21.0365
			c14.6332,2.7423,23.7908,11.2115,51.4225,14.0243c2.8446,0.2896,5.4346,0.4733,7.696,0.5904V34.4686
			c-2.3333-0.1003-5.2103-0.2962-8.475-0.686C362.5579,32.1111,349.4445,28.1214,337.2984,21.9891z"/>
		
			<image overflow="visible" opacity="0.1" enable-background="new    " width="128" height="76" xlink:href="6FCA027B8F6E34A.png"  transform="matrix(3.0053 0 0 3.0164 -0.1433 -0.5282)">
		</image>
		<path fill="#20497D" d="M325.4178,46.2488c-31.6748-5.9366-40.5761,24.0338-78.692,21.0364
			c-13.2648-1.0431-11.1416-4.5906-38.9563-13.2451c-23.3828-7.2974-47.5238-11.8952-71.9521-13.7036
			c-2.7667-0.1866-4.7964-0.2746-5.961-0.3204c-24.7767-0.9753-47.0516-1.8502-66.1641,3.4001
			c-4.4409,1.2017-8.7643,2.8018-12.9176,4.7808c-12.314,6.2811-25.6286,10.3677-39.346,12.0763
			c-3.8413,0.4588-7.7039,0.7181-11.5721,0.7769v83.3389c1.2457,0.0155,12.9973,0.0732,20.9217-3.118
			c11.4492-4.611,20.9039-13.2452,34.2816-13.2452c32.7235,0,46.3589,24.9674,63.8886,25.7113
			c16.3701,0.6947,45.9917-19.0267,62.3301-20.2574c16.6684-1.2555,47.5418,13.8311,63.8886,15.5825
			c21.8156,2.3374,47.5178-19.2477,93.885-17.5304c9.6668,0.358,24.9318,10.252,45.4838,12.457V60.8635
			c-2.2615-0.1174-4.8514-0.3005-7.696-0.5903C349.2089,57.4604,340.051,48.9918,325.4178,46.2488z"/>
		
			<image overflow="visible" opacity="0.15" enable-background="new    " width="128" height="90" xlink:href="6FCA027B8F6E34B.png"  transform="matrix(3.0053 0 0 2.957 -0.1433 -0.2562)">
		</image>
		<path fill="#3D6FB0" d="M245.1674,85.2052c-16.3468-1.7514-47.2202-16.838-63.8886-15.5825
			c-16.3386,1.2307-45.9601,20.9522-62.3301,20.2574c-17.5297-0.7438-31.1651-25.7113-63.8886-25.7113
			c-13.3778,0-22.8328,8.6342-34.2816,13.2451c-7.9246,3.1913-19.6761,3.1335-20.9218,3.1185v98.1609
			c7.6197,0.6042,15.2805,0.4491,22.8695-0.463c24.0086-2.8977,27.4254-11.1113,48.306-14.0243
			c5.982-0.8345,36.7115-4.4865,49.0881,8.4832c3.8733,4.0465,8.2452,7.5843,13.0107,10.5282
			c3.4442,2.0645,7.2091,3.5389,11.1393,4.3624c35.5822,8.3154,49.8739-23.2386,86.4833-17.92
			c24.5829,3.5717,26.1747,22.4521,56.0973,24.153c1.5443,0.0878,3.0883,0.1031,4.6808,0.051
			c6.0036-3.1019,12.7517-4.9017,22.1995-3.5571c0.2917,0.0415,0.5754,0.0935,0.8636,0.1397
			c2.0366-0.4038,4.2054-0.8394,6.5381-1.3083c23.2817-4.6798,32.456-6.4749,52.2017-7.8304
			c4.0466-0.278,7.8015-0.3557,11.2023-0.3165V80.1321c-20.5519-2.2053-35.817-12.0992-45.4838-12.457
			C292.6852,65.9576,266.9831,87.5424,245.1674,85.2052z"/>
		
			<image overflow="visible" opacity="0.15" enable-background="new    " width="128" height="95" xlink:href="6FCA027B8F6E346.png"  transform="matrix(3.0009 0 0 2.9777 -0.1433 0.0313)">
		</image>
		<path fill="#2D5C99" d="M54.2809,184.9509c32.7235,0,46.3589,24.9673,63.8886,25.7112
			c16.3701,0.6948,45.9917-19.0267,62.3301-20.2574c30.2548-2.2789,33.7612,16.3889,63.8886,15.5825
			c24.9347-0.6673,34.3452-73.2146,47.143-79.8268c-1.5921,0.0521-3.1362,0.0367-4.6808-0.051
			c-29.9226-1.7008-31.5144-20.5813-56.0973-24.153c-36.6093-5.319-50.9011,26.2354-86.4833,17.92
			c-3.9302-0.8235-7.6951-2.298-11.1393-4.3624c-4.7655-2.9439-9.1374-6.4817-13.0107-10.5282
			c-12.3766-12.9697-43.1061-9.3177-49.0881-8.4832c-20.8806,2.913-24.2974,11.1266-48.306,14.0243
			c-7.5888,0.9121-15.2495,1.0672-22.8691,0.4631v90.3265c3.025-0.0139,13.0977-0.2831,20.1426-3.1203
			C31.4483,193.5851,40.9031,184.9509,54.2809,184.9509z"/>
		
			<image overflow="visible" opacity="0.15" enable-background="new    " width="55" height="88" xlink:href="6FCA027B8F6E347.png"  transform="matrix(2.9507 0 0 2.9979 222.2496 -0.7786)">
		</image>
		<path fill="#2D5C99" d="M373.334,110.5269c-19.7457,1.3555-28.92,6.2281-52.2017,10.9078
			c-2.3326,0.4689-4.5014,0.9046-6.5381,1.3084c19.8137,3.1756,31.3478,67.9726,64.5831,69.3372
			c1.961,0.0805,3.755,0.1058,5.3587,0.102v-81.1534C381.1357,110.9897,377.3808,110.2492,373.334,110.5269z"/>
		
			<image overflow="visible" opacity="0.15" enable-background="new    " width="129" height="93" xlink:href="6FCA027B8F6E358.png"  transform="matrix(2.9801 0 0 2.9726 -0.1433 6.6257)">
		</image>
		<path fill="#3D6FB0" d="M379.1776,141.3026c-33.2354-1.3644-44.7694-15.3838-64.5831-18.5594
			c-0.2882-0.0462-0.5719-0.0981-0.8636-0.1397c-9.4477-1.3449-16.1959,0.4552-22.1995,3.5571
			c-12.7978,6.6122-22.2083,19.1495-47.143,19.8168c-30.1274,0.8062-33.6338-17.8615-63.8886-15.5825
			c-16.3386,1.2307-45.9601,20.9521-62.3301,20.2574c-17.5297-0.7438-31.1651-25.7112-63.8886-25.7112
			c-13.3778,0-22.8328,8.6343-34.2816,13.2452c-7.045,2.8371-17.1177,3.1062-20.1427,3.1202v63.3692
			c2.9527-0.0787,6.9197-0.2686,11.5721-0.7422c27.6317-2.8128,36.7893-11.2818,51.4226-14.0244
			c31.6748-5.9365,40.5761,24.0339,78.692,21.0365c13.2648-1.0431,11.1415-4.5906,38.9563-13.2452
			c39.4973-12.2892,71.5383-13.7733,77.9126-14.0243c30.5874-1.204,57.3638-2.258,79.0815,8.1808
			c12.314,6.2812,25.6286,10.3679,39.346,12.0765c2.9112,0.3475,5.5101,0.5398,7.696,0.6491v-63.1778
			C382.9326,141.4084,381.1385,141.383,379.1776,141.3026z"/>
		
			<image overflow="visible" opacity="0.3" enable-background="new    " width="128" height="99" xlink:href="6FCA027B8F6E35B.png"  transform="matrix(3.0024 0 0 2.9746 -0.1433 30.1689)">
		</image>
		<path fill="#20497D" d="M337.4942,154.1581c-21.718-10.4389-48.4941-9.3848-79.0816-8.1808
			c-6.3746,0.2509-38.416,1.735-77.9126,14.0243c-27.8149,8.6545-25.6916,12.2021-38.9563,13.2452
			c-38.1159,2.9978-47.0172-26.9727-78.692-21.0365c-14.6332,2.7423-23.7909,11.2115-51.4226,14.0244
			c-4.6525,0.4733-8.6193,0.6636-11.5721,0.7422v72.0298c5.0264-0.1966,10.0597-0.1229,15.0782,0.2207
			c19.7458,1.3555,28.92,6.228,52.2017,10.9078c17.1248,3.4422,25.6872,5.1633,34.2816,4.6748
			c29.9226-1.7008,31.5144-20.5813,56.0973-24.1529c36.6093-5.319,50.9011,26.2353,86.4833,17.9199
			c3.9302-0.8235,7.6951-2.2979,11.1393-4.3624c4.7655-2.9439,9.1374-6.4816,13.0107-10.5281
			c12.3766-12.9698,43.1061-9.3178,49.0881-8.4833c20.8806,2.913,24.2973,11.1266,48.306,14.0244
			c6.301,0.7578,12.6538,0.9932,18.9936,0.7039v-73.0475c-2.1859-0.1093-4.7848-0.3016-7.696-0.6491
			C363.1232,164.5261,349.8084,160.4394,337.4942,154.1581z"/>
		
			<image overflow="visible" opacity="0.15" enable-background="new    " width="126" height="95" xlink:href="28325BDBBAED9B7.png"  transform="matrix(3.05 0 0 2.9733 -0.1433 60.0576)">
		</image>
		<path fill="#2D5C99" d="M365.5427,189.219c-24.0087-2.8978-27.4254-11.1114-48.306-14.0244
			c-5.982-0.8345-36.7115-4.4865-49.0881,8.4833c-3.8733,4.0465-8.2453,7.5842-13.0107,10.5281
			c-3.4442,2.0645-7.2091,3.539-11.1393,4.3624c-35.5822,8.3154-49.8739-23.2386-86.4832-17.9199
			c-24.5829,3.5716-26.1747,22.4521-56.0973,24.1529c-8.5944,0.4884-17.1569-1.2326-34.2816-4.6748
			c-23.2817-4.6798-32.4559-9.5523-52.2017-10.9078c-5.0184-0.3436-10.0517-0.4173-15.078-0.2207v77.183
			c2.4533-0.0887,5.6069-0.2834,9.2347-0.7165c13.7175-1.7086,27.0321-5.7953,39.3461-12.0764
			c21.7181-10.4389,48.4941-9.3849,79.0816-8.1809c32.7879,1.2906,57.7294,8.2677,77.9127,14.0244
			c18.8318,5.3712,15.5754,5.9102,27.8436,9.0962c7.613-1.0049,15.7103-1.7436,24.358-2.084
			c28.7801-1.1329,54.1842-2.1298,75.1773,6.4514c1.1788-0.3133,2.3504-0.6458,3.5148-0.9975
			c12.3165-4.082,25.2021-6.1858,38.1773-6.233c3.9174,0.0062,7.3212,0.2125,10.0334,0.4523v-77.183
			C379.4414,188.9656,372.9464,190.1125,365.5427,189.219z"/>
		
			<image overflow="visible" opacity="0.15" enable-background="new    " width="49" height="78" xlink:href="28325BDBBAED9B5.png"  transform="matrix(2.944 0 0 2.944 240.2814 114.5629)">
		</image>
		<path fill="#20497D" d="M336.3256,232.4606c-1.1634,0.3538-2.335,0.6863-3.5148,0.9975
			c1.3184,0.5389,2.6209,28.0401,3.9044,28.657c12.314,6.2813,25.6287,10.368,39.3462,12.0765
			c3.2649,0.3897,6.1419,0.586,8.475,0.686V226.68c-2.7123-0.2398-6.1158-0.4461-10.0334-0.4523
			C361.5277,226.2749,348.642,228.3786,336.3256,232.4606z"/>
		
			<image overflow="visible" opacity="0.15" enable-background="new    " width="109" height="95" xlink:href="28325BDBBAED9B3.png"  transform="matrix(2.9983 0 0 2.9733 0.1071 89.7909)">
		</image>
		<path fill="#20497D" d="M48.827,299.6586c4.2589,1.283,8.5906,2.311,12.9719,3.0784c18.838-4.887,40.69-4.033,64.941-3.0784
			c1.4635,0.0576,4.2941,0.1825,8.2431,0.4859c7.6034-1.4926,13.2394-2.9239,15.9099-3.6024
			c13.4449-3.4158,9.5051-3.8383,28.8277-9.3495c14.8599-4.2383,32.3042-55.297,53.5546-58.1019
			c-12.2682-3.1856-9.0118-3.7249-27.8436-9.0962c-20.1834-5.7567-45.1251-12.7337-77.9126-14.0244
			c-30.5875-1.204-57.3638-2.258-79.0816,8.1809c-12.314,6.2811-25.6286,10.3678-39.346,12.0764
			c-3.6279,0.4332-6.7814,0.6277-9.2347,0.7165v67.0014c2.8191-0.2679,6.5075-0.5131,10.793-0.5198
			C23.6248,293.4728,36.5105,295.5766,48.827,299.6586z"/>
		
			<image overflow="visible" opacity="0.3" enable-background="new    " width="51" height="80" xlink:href="28325BDBBAED9CD.png"  transform="matrix(3.0053 0 0 2.9475 -0.1433 133.6126)">
		</image>
		<path fill="#3D6FB0" d="M47.6583,285.5281c4.4991-2.1625,9.2188-27.6757,14.1406-28.9526
			c-4.3813-0.7674-8.7129-1.7954-12.9719-3.0784c-12.3165-4.082-25.2021-6.1858-38.1773-6.233
			c-4.2855,0.0068-7.9739,0.252-10.793,0.5199v50.5058c2.3298-0.1006,5.2001-0.2966,8.4556-0.6853
			C22.0297,295.8958,35.3443,291.8092,47.6583,285.5281z"/>
		
			<image overflow="visible" opacity="0.3" enable-background="new    " width="115" height="87" xlink:href="28325BDBBAED9CF.png"  transform="matrix(2.9708 0 0 2.9708 42.4146 113.6736)">
		</image>
		<path fill="#3D6FB0" d="M336.7151,235.1875c-1.2834-0.6169-2.5848-1.1933-3.9044-1.7294
			c-20.9931-8.5811-46.3972-7.5843-75.1773-6.4514c-8.6478,0.3404-16.745,1.0792-24.358,2.084
			c-21.2508,2.8049-38.695,7.702-53.5546,11.9403c-19.3226,5.5111-15.3828,5.9337-28.8277,9.3495
			c-2.6705,0.6785-8.3065,2.1098-15.9099,3.6025c13.2512,1.0183,39.2409,44.0772,69.6698,53.5451
			c27.8149,8.6544,25.6916,12.2021,38.9563,13.2451c38.1159,2.9974,47.0172-26.973,78.692-21.0364
			c14.6332,2.7423,23.7908,11.2115,51.4225,14.0243c4.26,0.4337,7.9522,0.6303,10.8126,0.7209v-66.5319
			c-2.3333-0.1003-5.2103-0.2963-8.4749-0.686C362.3439,245.5555,349.0292,241.4688,336.7151,235.1875z"/>
		
			<image overflow="visible" opacity="0.1" enable-background="new    " width="129" height="82" xlink:href="28325BDBBAED9D2.png"  transform="matrix(2.9912 0 0 2.9682 -0.1433 137.7902)">
		</image>
		<path fill="#2D5C99" d="M322.3012,259.7302c-31.6748-5.9366-40.5761,24.0338-78.692,21.0364
			c-13.2647-1.0431-11.1415-4.5906-38.9563-13.2451c-22.6552-7.0591-46.0196-11.5994-69.6698-13.5384
			c-3.949-0.3035-6.7796-0.4283-8.2431-0.4859c-24.251-0.9542-46.103-1.8086-64.941,3.0784
			c-4.8681,1.2375-9.604,2.9464-14.1406,5.1025c-12.314,6.2811-25.6286,10.3678-39.346,12.0764
			c-3.2555,0.3887-6.1258,0.5847-8.4556,0.6853v55.0056c4.3101-0.1528,12.0634-0.7593,17.8052-3.0717
			c11.4491-4.6109,20.9039-13.2452,34.2816-13.2452c32.7235,0,46.3588,24.9673,63.8886,25.7113
			c16.3701,0.6946,45.9917-19.0268,62.3301-20.2574c16.6684-1.2556,47.5418,13.8311,63.8886,15.5825
			c21.8157,2.3372,47.5176-19.2477,93.8851-17.5303c10.1496,0.3756,26.4676,11.2681,48.6003,12.7313v-54.8906
			c-2.8604-0.0906-6.5526-0.2872-10.8126-0.7209C346.092,270.9414,336.9344,262.4727,322.3012,259.7302z"/>
		
			<image overflow="visible" opacity="0.15" enable-background="new    " width="129" height="71" xlink:href="28325BDBBAED9D3.png"  transform="matrix(2.9853 0 0 2.9624 -0.1433 167.8979)">
		</image>
		<path fill="#3D6FB0" d="M242.0509,305.6988c-16.3468-1.7515-47.2202-16.8381-63.8886-15.5825
			c-16.3386,1.2306-45.9601,20.952-62.3301,20.2573c-17.5297-0.7438-31.1651-25.7112-63.8886-25.7112
			c-13.3778,0-22.8328,8.6343-34.2816,13.2452c-5.7419,2.3123-13.4953,2.9188-17.8053,3.072v55.3954
			c6.5912,0.3448,13.1999,0.1219,19.753-0.666c24.0087-2.8978,27.4254-11.1114,48.306-14.0244
			c5.982-0.8345,36.7115-4.4865,49.0881,8.4832c3.8733,4.0465,8.2452,7.5843,13.0107,10.5282
			c3.4442,2.0645,7.2091,3.5389,11.1393,4.3624c35.5822,8.3154,49.8739-23.2386,86.4833-17.92
			c24.5829,3.5717,26.1748,22.4522,56.0974,24.153c8.5944,0.4884,17.1568-1.2325,34.2816-4.6748
			c23.2817-4.6798,32.4559-9.5524,52.2017-10.9078c5.3269-0.3657,10.1524,2.1446,14.3185,2.2849v-57.0934
			c-22.1327-1.4633-38.4507-12.3554-48.6003-12.7313C289.5685,286.451,263.8665,308.0361,242.0509,305.6988z"/>
		
			<image overflow="visible" opacity="0.15" enable-background="new    " width="128" height="59" xlink:href="28325BDBBAED9D5.png"  transform="matrix(2.9996 0 0 2.9535 -0.1433 206.9418)">
		</image>
		<path fill="#20497D" d="M370.2177,336.4743c-19.7458,1.3554-28.92,6.228-52.2017,10.9078
			c-17.1248,3.4422-25.6872,5.1633-34.2816,4.6747c-29.9226-1.7008-31.5144-20.5813-56.0973-24.153
			c-36.6093-5.3189-50.9011,26.2354-86.4833,17.92c-3.9302-0.8235-7.6951-2.2979-11.1393-4.3624
			c-4.7655-2.9439-9.1375-6.4817-13.0107-10.5282c-12.3766-12.9697-43.1061-9.3177-49.0881-8.4832
			c-20.8806,2.913-24.2973,11.1266-48.306,14.0244c-6.5531,0.7879-13.1617,1.0107-19.753,0.666v35.5358
			c4.4185-0.1971,11.6142,8.3718,17.0261,6.1923c11.4491-4.6109,20.9039-13.2452,34.2816-13.2452
			c32.7235,0,46.3588,15.735,63.8886,16.479c16.3701,0.6947,45.9917-5.1832,62.3301-6.4138
			c30.2548-2.2789,33.7612,6.3921,63.8886,5.5858c36.6319-0.9804,39.7552-12.874,69.3425-8.6633
			c20.3529,2.8965,31.7281,2.6042,65.4468,3.9884c3.363,0.1381,6.2533-3.729,8.475-3.7907v-35.5883
			C380.3701,337.0801,375.5447,336.1087,370.2177,336.4743z"/>
		
			<image overflow="visible" opacity="0.3" enable-background="new    " width="128" height="49" xlink:href="28325BDBBAED9D7.png"  transform="matrix(2.99 0 0 2.944 -0.1433 239.8965)">
		</image>
		<path fill="#2D5C99" d="M376.0613,372.7526c-33.7187-1.3842-45.0939-15.8025-65.4467-18.6991
			c-29.5873-4.2108-32.7106,22.3935-69.3425,23.3738c-30.1274,0.8062-33.6338-17.8615-63.8886-15.5826
			c-16.3386,1.2306-45.9601,20.9521-62.3301,20.2574c-17.5298-0.7438-31.1651-25.7113-63.8886-25.7113
			c-13.3778,0-22.8328,8.6343-34.2816,13.2452c-5.4119,2.1795-12.6073,2.8429-17.0261,3.04v11.4753h384.6792v-11.3427
			C382.3144,372.8704,379.4241,372.8907,376.0613,372.7526z"/>
	</g>
</g>
</svg>
