<?xml version="1.0" encoding="utf-8"?>
<!-- Generator: Adobe Illustrator 22.1.0, SVG Export Plug-In . SVG Version: 6.00 Build 0)  -->
<svg version="1.1" id="Layer_1" xmlns="http://www.w3.org/2000/svg" xmlns:xlink="http://www.w3.org/1999/xlink" x="0px" y="0px"
	 width="512px" height="512px" viewBox="0 0 512 512" enable-background="new 0 0 512 512" xml:space="preserve">
<g>
	<path fill="#FFF4DD" d="M204.8,383.8015c32.8822,0,63.5129-8.7805,89.8575-24.3067c15.4349-9.0966,35.0282-6.789,47.6968,5.8796
		l115.6674,115.6674c3.1752,3.1752,7.1442,4.7628,11.5101,4.7628c4.5641,0,8.6945-1.735,11.9377-5.2051
		c5.8925-6.3048,5.418-16.7322-0.6842-22.8344L367.6511,344.6309c-13.8529-13.8529-16.6791-35.2268-7.0291-52.2763
		c14.675-25.9278,23.1796-55.8907,23.1796-87.5546c0-98.7864-80.1063-178.9342-178.877-179.0015
		C106.6709,25.7315,26.2015,105.8038,25.8,204.0566C25.3947,303.2256,106.1223,383.8015,204.8,383.8015z M202.9423,58.3557
		c83.4175-1.0369,150.9024,67.8702,148.2372,151.213c-2.4932,77.9632-66.5247,140.706-144.5217,141.6755
		c-83.4175,1.0369-150.9025-67.8702-148.2373-151.213C60.9137,122.068,124.9452,59.3252,202.9423,58.3557z"/>
</g>
</svg>
