<?xml version="1.0" encoding="utf-8"?>
<!-- Generator: Adobe Illustrator 22.1.0, SVG Export Plug-In . SVG Version: 6.00 Build 0)  -->
<svg version="1.1" id="Слой_1" xmlns="http://www.w3.org/2000/svg" xmlns:xlink="http://www.w3.org/1999/xlink" x="0px" y="0px"
	 width="1000px" height="1000px" viewBox="0 0 1000 1000" enable-background="new 0 0 1000 1000" xml:space="preserve">
<g>
	<path fill="#A875CC" d="M500,1C224.4099,1,1,224.4099,1,500s223.4099,499,499,499s499-223.4099,499-499S775.5901,1,500,1z
		 M799.8135,799.8135c-38.9639,38.9629-84.3164,69.5459-134.7969,90.8975C612.792,912.7998,557.2725,924,500,924
		c-57.2729,0-112.7925-11.2002-165.0171-33.2891c-50.4805-21.3516-95.8325-51.9346-134.7964-90.8975
		c-38.9634-38.9639-69.5459-84.3164-90.8975-134.7969C87.2002,612.792,76,557.2725,76,500
		c0-57.2729,11.2002-112.7925,33.2891-165.0171c21.3516-50.4805,51.9341-95.8325,90.8975-134.7964
		c38.9639-38.9634,84.3159-69.5459,134.7964-90.8975C387.2075,87.2002,442.7271,76,500,76
		c57.2725,0,112.792,11.2002,165.0166,33.2891c50.4805,21.3516,95.833,51.9341,134.7969,90.8975
		c38.9629,38.9639,69.5459,84.3159,90.8975,134.7964C912.7998,387.2075,924,442.7271,924,500
		c0,57.2725-11.2002,112.792-33.2891,165.0166C869.3594,715.4971,838.7764,760.8496,799.8135,799.8135z"/>
</g>
<g>
	<path fill="#A875CC" d="M415.5996,855.2291c-3.7039-1.8914-8.6688-0.7092-13.6337,4.098
		c-4.0192,4.1768-6.8563,7.2503-4.6496,9.6145l0.5517,0.6304l5.5953,1.0245l3.1523-0.5517
		c-0.0788,0.0788-0.1576,0.1577-0.3152,0.2365l-6.3046,5.3589v0.788c0,1.1033,0.9457,2.2066,5.5953,4.5709
		c1.4973,0.8668,5.5953,3.3099,5.9893,4.098l0.0788,0.1577l-3.5464-0.7093c-2.6794-0.8669-4.9648-1.3397-6.8562-1.3397
		c-4.6496,0-5.9894,2.3642-6.2258,3.2311l-2.049,4.4132c-0.3152,1.4973-0.5517,4.1768,1.1821,5.5165l1.7338,0.7881h0.6304
		c1.5761,0,2.9159-0.8669,3.8616-1.655l4.1768-2.6006l0,0c0.7093,0.1576,2.2066,0.7093,3.1523,1.1033
		c0.7093,0.2364,1.5761,0.5516,2.443,0.8668c4.5708,1.9702,7.0927,1.655,8.5112-1.1821c1.0245-2.9158,1.0245-7.0927,1.0245-12.9244
		l0.9457-12.4516l1.4185-4.9648c0.5517-1.6549,0.2364-3.5463-0.8669-4.886L415.5996,855.2291L415.5996,855.2291z M349.7166,718.2618
		l1.9702,4.8073l4.3344-0.4728l0.7881-0.2364c2.1278-0.8669,3.2311-2.6795,3.2311-5.9106l-1.3398-5.3589l2.2854-4.3344
		c0.5516-1.7338,0.7881-2.9158-0.0788-4.0192c-0.6305-0.788-1.7338-1.1033-2.6794-1.3397l-0.6305-0.1576l-0.7093,0.1576
		c-1.8914,0.394-3.7827,0.9457-4.9649,2.6795l-1.2609,4.8072l0.1576,0.4728c0.4729,1.0245,0.7093,2.6006,0.3152,3.704
		L349.7166,718.2618z M833.0424,322.964l-7.4079-19.623l-6.6199-3.1523l-9.2993-1.0245c-7.5655-1.1821-12.2939-3.2311-15.2886-6.541
		c-2.6795-4.3344-6.8563-7.4079-13.2396-9.7721c-7.0139-2.2066-12.2151-3.1523-17.0224-3.1523l-16.5496,0.394l-8.1171-2.6006
		l-8.3536-1.1033c-0.4728-0.1576-1.2609-0.3152-2.2066-0.3152c-2.5219,0-5.5165,0.8669-10.1661,3.0735l-5.9106,1.2609
		c0-0.4728,0.2364-1.4185,1.2609-2.9159c2.3642-3.3099,1.1033-6.541-3.8616-9.7721l-0.8669-0.6305l-2.837,0.394l-1.655,0.6305
		l-2.6006-4.5708l-20.5687-5.0437l-0.7093-0.0788c-5.3589,0-10.0085,1.3397-13.3185,3.9404l-8.6688,9.6145
		c-0.7881,0.8669-1.3397,1.4973-1.8126,1.8126l-2.1278-2.2066l-2.6006-0.7881l-10.0873-0.9457
		c-1.6549-0.3152-2.9158-0.7093-4.1768-1.655l-0.5516-3.1523l-3.7828-1.8126l-8.9841,3.3887
		c-0.2364,0.0788-0.394,0.1576-0.4728,0.1576c0.0788-0.2365,0.1577-0.4729,0.2365-0.7881l2.9159-4.886l13.7125-11.5847
		c6.0682-5.2801,8.7476-9.0629,8.9841-12.6092l0.0788-1.1033l-8.2748-4.492c-4.6497-3.3887-6.6198-6.541-6.2258-9.7721
		c1.1821-3.3099-0.7881-6.541-3.2311-9.6933l-3.1523-2.443l0.0788-0.1576l-2.6006-1.8126l-0.1576,0.3152l-20.0171-12.2939
		l-1.2609-0.394l0.5517-0.394l-3.1523-0.3152l-0.4728-0.1576l-0.1577,0.0788l-18.9926-1.8126l-10.4814,0.3152h-10.5602
		l-3.3099-1.655l-3.1523-2.9159c-2.9159-2.2854-6.541-3.4675-10.245-3.2311c-0.8669-5.4377-3.9404-9.5357-9.8509-13.1608
		l-5.5165-1.8126l-0.2364-0.7881l-20.884-1.8126c0.5517-0.394,1.3398-0.7881,2.049-1.1821l7.5655-6.4622l-2.6006-1.2609
		c-1.4973-0.7093-3.9404-1.7338-7.5655-2.3642c-5.7529-1.5761-8.984-2.5218-10.5602-3.2311
		c-1.0245-1.0245-1.1033-1.4973-0.8669-1.5762l0.7881-0.394l1.9702-4.5708l-16.0767,1.3397l-22.7753,3.3887
		c-1.4185,0-3.0735-0.394-4.9648-1.3397l-6.6198-2.8371l-12.9244,0.394c-4.6497-0.3152-8.6688-0.6305-10.639-2.5218l-2.6794-3.0735
		l-0.8669-0.2364c-0.1576,0-0.394-0.1576-1.0245-0.4728c-0.5517-0.3152-1.3397-0.7093-2.443-0.9457
		c-5.2801-1.4185-10.3238-2.6794-11.0331-3.4675l-0.1576-0.2364c-1.1033-3.1523-2.3642-5.2013-4.8073-5.2013
		c-0.8669,0-1.7338,0.3152-2.6794,0.9457l-1.8126,3.0735l1.655,2.6006l1.4185,0.0788c0.8669,0.0788,1.3398,0.0788,1.5761,0.1576
		c-0.394,0.2364-1.0245,0.394-2.049,0.7093c-8.196,0.4728-13.3972,2.2854-15.2886,5.2013
		c-1.655,2.2066-1.0245,5.5953,2.3642,12.2939c0.7881,1.0245,1.1821,2.3642-2.1278,4.2556
		c-1.4973,1.1821-2.9159,1.3397-3.7039,0.3152c-2.049-2.9159-3.0735-4.9649-3.0735-6.541l3.4675-6.6986
		c1.1033-1.3397,1.0245-3.1523-0.5517-5.6741l-1.7338-1.8914l2.1278-2.2066l5.2013-2.3642l5.8318-4.5708l-3.3887-1.1821
		c-1.3398-0.4728-3.8616-0.7881-5.2801-0.9457c-2.3642,0-6.4622,1.8914-19.0714,7.9595l-5.0437,2.443
		c-7.1715,0.0788-10.0874,1.4185-11.1906,2.443c-0.9457,0.8669-1.1033,1.8914-1.0245,2.6006
		c-0.0788,0.2364-0.1576,0.394-0.1576,0.4728l-7.1715-1.4973l-0.8669,0.394c-3.3099,1.5762-5.2013,4.8861-5.6741,9.9297
		c-0.7093,3.4675-2.3642,5.9106-4.2556,6.147c-3.0735-0.7093-5.2801,0.7093-7.4867,2.5218l-4.2556,4.8073l-0.7881,3.6251
		l-2.2854-2.1278l-6.541,16.0767l0.7881,1.0245c0.7881,1.2609,0.7881,2.8371,0.7881,6.0682l-1.4973,6.6198l2.9947,14.4218
		c0.394,4.4132-1.2609,8.984-5.2013,14.0277l-2.5219,0.3152l-4.5708-0.394l-5.3589,7.3291l-1.9702,3.7039l-3.7828,3.3887
		l-4.492,2.5218l-2.9159,0.9457l-5.1225,7.0138l-5.6741,9.6933l-2.6794,13.0032c0,3.3099,2.049,5.2013,5.9106,5.2013h1.0245
		l7.3291-2.2854c-0.1576,0.3152-0.394,0.7093-0.6305,1.1821l-3.8616,6.147h-1.5761v0.7093l-0.2364,0.1576
		c-2.8371,1.2609-7.0139,3.4675-11.4271,8.4324c-2.6006,1.7337-2.9159,4.1768-0.9457,6.8562l4.098,4.7285l0.7881,1.6549
		l-0.3152,1.5761c-1.1033,1.0245-1.655,2.049-1.655,3.2311c0.0788,1.3397,1.1033,2.7583,3.2311,4.098l10.7966,5.5953
		c1.6549,1.2609,6.3834,5.9894,12.7668,15.0522c8.0384,9.851,10.245,14.1065,10.3238,14.9734c0,3.1523,2.1278,7.8807,6.8563,15.4463
		c4.098,7.1715,7.8019,11.5847,11.5847,13.7125c3.4675,8.8264,9.6933,16.3919,18.835,22.8542l26.4793,13.0032
		c11.1906,4.8861,18.2833,8.9052,22.066,12.688l4.2556,4.5708l0.7093,1.7338c2.2066,4.9649,3.3099,10.4026,3.3099,16.5496
		l-2.9159,46.4175l-5.2013,22.8541c-4.4132,12.3728-5.3589,20.0959-5.3589,24.4303c0,11.9788-0.7881,23.2482-2.3642,32.9415
		l0.4728,5.4377l0.8669,5.2013l-1.3397,1.7338l-3.6252,2.9159l1.7338,3.6251l0.8669,2.9946l-2.5219,3.704l-3.2311,3.9404
		l-8.3537,24.9031c-0.4729,1.9702-2.1278,4.4131-5.5953,8.0383c-1.7338,2.6795-2.049,5.7529-1.1033,9.6933
		c1.8126,4.5709,1.9702,10.3238,0.4728,16.0767l-5.7529,16.4708c-2.6794,7.2503-1.1821,11.9788,4.886,14.1854l6.4622,1.4974
		c1.9702,0.2364,3.1523,0.9457,4.0192,2.3642c0.394,3.3887-0.2364,7.3291-1.9702,12.2151l-2.9159,12.4515
		c0,2.9159,1.1033,5.5165,3.3887,7.8019c1.8126,1.4974,2.049,2.4431,2.049,3.0735l-5.7529,4.1768
		c-5.2013,1.8914-4.5708,4.4921-4.3344,5.2013c0.1576,0.5516,0.5517,2.9946-2.3642,10.4026
		c-2.443,7.1714-4.2556,7.2502-4.492,7.0927c-0.7881-0.6304-1.655-1.1033-2.4431-1.4185l2.6006-3.1523
		c0.5517-0.6305,1.2609-1.5762,1.1033-2.6795c-0.0788-0.9457-0.7881-1.8126-2.1278-2.6794l-0.7881-0.394l-0.7093-0.0788
		c-2.8371-0.2364-4.8073,0.4728-6.147,2.3642l-7.8807,7.0927l-3.7828,1.6549l2.9947,1.8126
		c0.7093,0.4728,1.8914,0.8669,3.6252,1.3397l8.8264,2.2855l0.7881,0.0788c1.4185,0,2.443,0.2364,2.8371,0.6304
		s0.1576,1.1821,0.1576,1.1821l-4.3344,5.4377c-0.7881,1.0245-1.655,2.5219-0.9457,4.1768
		c0.4729,0.9457,1.5762,1.6549,3.3887,2.2066l8.984,0.4728c0.7881,0,1.2609,0,1.3397,1.3398c0,0-0.5516,0.4728-2.8371,0.4728
		c-0.6304,0-1.3397-0.0787-2.049-0.0787l-0.9457-0.0788c-3.0735,0-5.2801,2.443-5.7529,6.6198l-0.4728,9.6933l1.1033,10.1662
		l0.0788-0.0788c0.5517,4.5708,1.9702,9.6145,6.6986,9.6145c0.5517,0,0.9457-0.0788,0.9457-0.1577h0.1576l-3.4675,3.8616
		c-2.6006,3.5463-3.2311,5.4377-2.2854,6.8562c0.6305,1.1033,1.9702,1.5762,3.2311,1.7338
		c0.5517,0.8668,0.6305,1.8126-0.5516,3.8616c-0.7093,2.2854,0.4728,4.1768,3.5464,5.7529l1.3397,0.7093l2.2854-1.1033v4.5708
		l1.4185,1.4185h1.3398c2.049,0,3.5463-1.7338,4.5708-3.2311c0,0,0.9457,0.2365,2.6006,3.2311
		c-0.9457,1.7338-1.0245,3.2311-0.2364,4.4921c1.1033,1.8914,3.7827,2.5219,5.2801,2.7582l0.4728,0.1576l-6.7774,1.2609
		l-1.1033,0.4728c-1.7338,1.2609-2.5219,2.3642-2.5219,3.2311c0,0.7093,0.4729,2.3642,4.5708,2.3642c0.3152,0,0.7881,0,1.655-0.0788
		c4.9648,0,8.984-0.9457,10.9542-2.5219l1.8126-0.9457l0.7093,0.5517l-3.1523,5.4377c-4.3344,4.5709-3.0735,7.0927-1.3397,8.4324
		c2.2854,2.049,4.4132,3.0735,6.3834,3.0735c3.2311,0,5.4377-2.6006,6.4622-7.9595l0.9457-8.3536l0.7881-4.0191l3.3887-0.3152
		l4.7285-1.2609l0.4728-0.394c1.5762-1.4185,3.3099-2.2854,5.2801-2.6794l2.9159-0.5517c0.3152,0.1577,0.7093,0.2365,1.1033,0.394
		l4.2556,0.8669l4.3344-1.0245l0.5517-0.5517c1.655-1.8914,0.7881-5.3589-2.5219-10.2449
		c-3.7827-5.5953-5.5165-10.4026-5.1225-13.8701c0.4728-3.6251,2.3642-6.3834,5.8318-8.5112l5.5165-2.1278l4.098-3.1523
		c0.7093-0.5517,1.8126-2.4431,1.8126-4.4921l0.9457-6.3834c1.8914-5.8318,7.4079-11.2695,16.4708-16.3131l0.6304-0.4728
		c3.4675-3.8616,5.2013-8.0384,4.7285-11.3483l-0.2364-0.6305c-1.1033-1.8126-3.6252-3.7827-7.7231-6.147l-8.984-4.9648
		c-2.443-1.5761-3.0735-3.8616-1.8914-6.6986c0.8669-2.837,2.7582-5.3589,5.2013-7.3291l8.59-5.3589l6.935-3.9404l0.7093-0.5516
		c1.5761-2.1278,2.6006-4.5709,3.0735-8.1172c-0.3152-2.443,1.7338-6.0682,6.0682-10.3237l5.2013-6.8563l-3.8615-1.6549l2.443-0.394
		l2.6794,0.9457c0.394,0.1577,0.8669,0.3152,1.9702,0.6304c0.4728,0.1577,0.8669,0.2365,1.1821,0.394l1.8914,0.394
		c2.1278,0,3.9404-1.2609,4.8073-2.443l1.3398-5.5165l-1.8914-5.0437h-5.9894l-0.7093,0.394
		c-2.6006,1.7338-5.6741,3.0735-8.2747,3.7828c-2.4431,0.5516-3.1523,0.2364-3.2311,0.0788
		c-0.1576-0.1577-0.6305-1.0245,0.4728-3.8616c0.4728-2.1278,0.5517-5.5165,0-10.7966c-0.2364-1.1033-0.1576-1.9702,0.2364-2.3643
		c0.4728-0.4728,2.1278-0.3152,4.2556,0.6305c11.8211,4.2556,17.574,5.0436,21.7509,2.9946
		c3.3887-1.8126,5.4377-5.2801,6.4622-10.7966l2.3642-12.7668c1.8126-3.9404,4.7285-5.6741,9.6145-5.6741l23.7998-1.1821
		c6.8563-1.3397,14.1853-3.7827,20.9628-7.0139c5.3589-2.2066,11.1906-7.1714,8.1172-18.441l-1.4974-9.8509
		c-1.5762-3.7828-0.8669-4.8073-0.7093-4.9648l1.1821-1.3398l-6.3834-5.1224l-0.5516-0.3152
		c-4.0192-2.049-6.3046-3.2311-6.7775-3.5463c-2.7582-2.2066-2.7582-2.9159-2.4431-2.8371c0.2365,0,0.5517,0.0788,0.8669,0.0788
		l0.4729,0.0788l0.1576,0.394l15.8403,2.7582l4.0192,2.8371c1.655,1.3397,3.4676,2.049,5.2802,2.049
		c0.4728,0,1.0245,0,1.3397-0.1577l11.9787-1.1033c4.7285,0.6304,8.8265-0.2365,13.0032-3.0735l10.1662-8.5112l-0.0788-0.4728
		l0.5516-0.5516c9.9297-9.6145,14.8158-16.7072,14.737-22.2237c-0.7881-2.5219,1.2609-6.3046,6.0682-10.8754
		c3.9404-5.2013,6.541-6.6986,8.1172-7.0139v0.5516l-2.1278,2.3642c-1.5762,1.8126-3.1523,3.7828-4.5709,6.147l4.3344,2.049
		l18.2045-20.5687c10.7178-13.5549,14.0277-20.5687,12.2939-25.4548l-0.4728-13.1608c-0.4728-4.5708,0.3153-6.7775,3.1523-8.0384
		l24.2726-13.2396l0.5516-0.4728c1.0245-1.1033,3.4676-1.7338,6.8563-1.7338c3.4676,0,6.8563-1.1033,9.2993-3.0735
		c4.1768-3.3887,6.6199-4.6497,9.1417-5.0437l15.131-1.1033l8.2748,0.394c4.0192,0,5.4377-1.8914,5.9105-3.9404
		c0-0.5517,1.655-1.8914,3.1523-3.1523l7.408-4.1768v-1.0245c0.1576-5.2801,2.6794-10.0873,7.8019-14.8946l6.0682-6.3046
		l3.3099-6.0682v-9.5357c0.5516-2.1278,2.2066-4.7284,4.9648-7.8807c2.2066-2.2066,2.6794-7.0927,3.2311-17.3376l-1.3397-17.0224
		l-0.0788-0.5517c-0.394-0.7093-0.4728-3.2311,0-7.8019c0.6304-2.8371,1.2609-4.5708,1.7338-5.6742l1.2609,0.9457
		c1.0245,1.4973,2.7583,2.2854,4.2557,2.2066l0.0787-1.9702l2.049,1.1821l3.4675-3.8615l3.9404-5.5165l4.2556-7.8807l3.6251-4.7284
		l8.9841-4.2556l13.6337-14.0277l3.3099-7.9595l1.1033-3.9404L833.0424,322.964L833.0424,322.964z M641.304,254.3228
		c-1.2609,1.0245-1.9702,3.3099-2.4431,7.0927c0,4.1768,0.2365,7.4079,3.2311,8.1172l0.394,0.0788l7.7231-0.394l5.8317,0.7881
		h0.2365c2.5219,0,4.4132-1.0245,5.5953-2.9159l4.9649-6.3834c1.2609-2.8371,1.3397-4.4132,0.394-5.4377
		c-1.1033-1.1821-3.1523-1.1821-3.6251-1.1821l-10.2449-0.7881l-11.3483,0.394L641.304,254.3228L641.304,254.3228z
		 M514.2665,147.2235l7.2503-0.7093c3.4675,0.2364,6.8562-0.6305,8.5112-2.2066l0.4728-0.4729l1.0245-7.8807l-1.0245-10.4814
		l-1.8126-0.394c-4.8073-0.9457-9.5357,0.394-11.9787,3.6251l-0.394,0.4728v2.8371l1.4185,3.0735
		c-0.1577,1.3397-1.5762,3.9404-5.2802,6.147l-8.4323,6.7774h7.0139L514.2665,147.2235L514.2665,147.2235z"/>
</g>
<g>
	<text transform="matrix(1 0 0 1 125.6006 472.2419)"><tspan x="0" y="0" fill="#A875CC" stroke="#FFFFFF" stroke-width="10" stroke-miterlimit="10" font-family="'KornerDeliNF'" font-size="231.4713px">SOUTH</tspan><tspan x="-132.7495" y="215.9995" fill="#A875CC" stroke="#FFFFFF" stroke-width="10" stroke-miterlimit="10" font-family="'KornerDeliNF'" font-size="231.4713px">AMERICA</tspan></text>
</g>
</svg>
