<?xml version="1.0" encoding="utf-8"?>
<!-- Generator: Adobe Illustrator 22.1.0, SVG Export Plug-In . SVG Version: 6.00 Build 0)  -->
<svg version="1.1" id="Слой_1" xmlns="http://www.w3.org/2000/svg" xmlns:xlink="http://www.w3.org/1999/xlink" x="0px" y="0px"
	 width="1000px" height="1000px" viewBox="0 0 1000 1000" enable-background="new 0 0 1000 1000" xml:space="preserve">
<g transform="translate(0.000000,1262.000000) scale(0.100000,-0.100000)">
	<path fill="#1A3C5F" d="M4094.7437,11986.6758c-97.6477-46.0342-232.96-120.665-479.1721-266.4395l-343.1628-202.2715
		l-119.9673-118.5723l-119.9675-117.875l12.5547-66.958c6.9749-36.2695,13.9497-69.749,16.7397-73.9336
		c2.7898-4.8828,91.3706,46.0342,228.7751,129.7324l225.2876,137.4043l130.4297,9.0674l131.1272,9.0674l73.2361,36.2686
		c71.8408,35.5723,76.7234,36.9668,254.582,69.0518c99.7402,17.4365,185.5312,32.084,190.4136,32.084
		c5.5796,0,50.9165,32.084,101.1353,71.8408c50.9165,39.7568,157.6318,118.5723,237.145,175.0693l145.7744,102.5303l83.0005,22.3193
		c45.3364,12.5547,83.001,23.7148,83.001,25.8066c0,2.0928-25.1094,18.832-55.1016,36.9668l-55.1011,32.7822l-166.6992,10.4619
		c-91.3706,5.5801-227.3799,10.4619-302.0107,9.7646h-136.0098L4094.7437,11986.6758z"/>
	<path fill="#1A3C5F" d="M3644.8657,11914.834c-332.0029-89.9756-714.9221-265.0439-1049.7151-478.4746
		c-476.3823-304.1035-915.798-719.1074-1265.238-1194.792c-45.3365-62.0762-50.219-65.5635,87.1857,61.3789
		c44.639,41.1514,83.0007,74.6309,84.3956,74.6309c2.0925,0,9.7648-20.2275,16.7396-45.3369s14.6472-44.6387,16.7397-43.9414
		c2.0924,1.3955,55.1013,36.2695,117.875,78.8164l113.6901,76.7227l-26.5045,22.3193
		c-13.9497,12.5557-24.412,23.7148-23.017,25.1104c1.395,0.6973,43.9415,41.1514,93.463,89.9756l90.6731,87.8828l73.236-4.1846
		l72.5385-4.8828l-107.4127-85.791c-59.2863-47.4287-108.8077-89.2773-110.2026-92.0674
		c-1.395-3.4873,16.7396-43.9424,40.4541-90.6738l43.244-83.6982l18.8322,25.8076c10.4623,14.6465,46.0341,67.6562,79.5133,117.875
		c57.1937,85.79,60.6813,92.7656,60.6813,129.0342l0.6975,37.6641l123.4548,129.7324l123.4548,129.0352l41.8491,110.2021
		l41.8491,109.5059l146.4719,121.3623c145.0769,119.9668,147.8667,122.0596,317.3557,213.4307
		c182.0437,98.3447,866.9741,501.4912,850.2344,500.7939C3711.8245,11932.2715,3679.74,11924.5996,3644.8657,11914.834z"/>
	<path fill="#1A3C5F" d="M6690.0859,11747.4375c64.8662-78.1182,67.6562-82.3027,72.5386-124.8496
		c2.79-23.0166,6.2773-46.7314,7.6724-52.3115c2.0923-7.6719-13.9497-20.9238-48.8242-41.8486
		c-48.1265-28.5967-52.311-32.7822-57.1934-58.5889c-2.0928-16.042-5.5801-30.6895-6.9751-33.4795
		c-2.0923-2.79-27.2017,6.2773-57.1938,20.2275c-29.2944,13.252-61.3784,27.2012-70.4458,30.6895l-16.7397,6.9746l12.5547-19.5293
		c6.9751-11.1602,23.0171-34.875,35.5718-54.4043c12.5547-18.832,24.4121-48.8242,27.2021-66.2607
		c2.0923-17.4375,6.2773-36.2695,7.6724-43.2441c2.0923-7.6729-9.7651-21.6221-38.3618-43.2441
		c-23.0171-17.4375-43.2441-32.085-46.0342-32.085c-6.2773,0-122.0601,92.0684-122.0601,96.9512
		c0,2.0918,32.7822,3.4873,73.2363,2.0918c81.6055-2.79,80.2104-3.4873,66.2607,47.4297
		c-6.2773,24.4121-10.4619,26.5039-96.9502,61.3779c-78.8159,32.085-101.833,37.665-191.1108,49.5215
		c-85.0933,11.8574-107.4131,17.4375-138.7998,34.875c-28.5967,16.042-58.5889,24.4111-129.7319,36.2686l-93.4634,15.3447
		l-94.8579-46.0342c-53.0088-25.8066-109.5049-50.2188-126.2446-54.4033l-30.6895-6.9746l4.1851-41.8496
		c3.4873-41.8486,3.4873-42.5469-42.5469-119.2695c-32.084-54.4043-71.1436-104.623-129.0347-168.792
		c-46.0342-50.2188-88.5806-93.4629-94.8579-96.2529s-28.5967-4.8818-49.5215-4.8818l-39.0591-0.6982l4.8823-60.6807
		c4.1851-52.3115,10.4624-73.2363,39.7568-140.8916c19.5293-43.9424,39.0591-81.6064,44.6387-84.3965
		c4.8828-2.79,25.8071-6.9746,45.3369-9.7646c36.269-4.8818,37.6641-4.1846,83.6982,31.3867l47.4287,35.5723l48.1265-4.1855
		c26.5044-2.79,50.2192-6.2773,53.7065-7.6719c9.0674-6.2773,73.2358-121.3623,102.5303-184.834
		c22.3193-48.126,32.7817-63.4707,56.4961-78.8154l28.5972-19.5293l69.0508,56.4961l68.3535,56.4961l-12.5547,62.7734
		l-13.252,63.4717l41.8491,57.8906l41.1514,58.5889l-60.6812,43.2441l-61.3784,43.2441l-16.0425,56.4961
		c-9.0674,31.3877-17.437,61.3789-19.5293,68.3535c-2.0928,7.6729,11.8569,21.6221,50.2188,47.4297l54.4038,36.2686l-4.1851,59.2871
		l-3.4873,59.9834l36.269-4.8828c19.5298-2.0918,47.4292-4.1846,62.0767-4.1846c22.3193,0,27.2017-2.79,33.479-18.832
		c6.9751-17.4375,4.1851-26.5049-24.4121-79.5137c-41.8491-79.5127-41.8491-98.3447-0.6973-180.6484
		c17.437-34.874,35.5718-62.7734,40.4541-62.7734c25.1094,0,59.2861-15.3447,62.7734-27.8994
		c6.2773-24.4121,50.2192-18.1348,147.8672,22.3193l88.5806,35.5713l45.3364-22.3193l46.0342-22.3193l-16.0425-17.4375
		c-15.3442-16.042-20.9243-16.7393-91.3701-16.7393h-75.3286l-18.832-24.4121l-18.1348-24.4121l28.5972-51.6133
		c16.042-28.5977,28.5967-54.4043,28.5967-56.4971c0-3.4873-9.0674-2.7891-82.3032,6.9756l-30.6895,4.1846l4.8823-120.665
		l4.8823-120.665l-163.2114-47.4287l-163.2114-47.4287l-39.7568,15.3447c-37.6641,14.6465-41.1514,14.6465-82.3032,4.1846
		l-43.2441-11.1602l-41.1514,27.8994c-22.3193,15.3447-40.4541,28.5977-40.4541,29.2949s-9.7646,55.1016-20.9248,119.9668
		c-11.1597,65.5645-20.9243,119.9678-20.9243,121.3633c0,2.0918-80.9082-68.3535-127.6396-110.9004
		c-11.8574-11.1602-10.4624-15.3447,26.5044-100.4385c20.9243-48.126,38.3613-91.3701,38.3613-94.1602
		c0-3.4873-55.7988-16.7393-123.4546-29.9922l-123.4551-23.0166l-4.8823-24.4121c-2.79-13.252-6.9746-36.2695-9.0674-50.2188
		c-4.1846-24.4121-9.7646-28.5967-101.8325-82.3037c-89.9756-53.7061-100.438-62.0762-160.4219-129.7314l-63.4712-72.5391h-48.8237
		c-46.7314,0-49.5215-0.6973-78.8159-27.8994l-30.6895-28.5967l-100.4375,4.8828l-99.7407,4.8818l2.0928-41.8486l2.7896-41.8496
		l77.4209-30.6895l78.1187-30.6895l-2.0928-24.4111c-1.395-20.9248,4.1851-30.6895,35.5718-65.5645l37.6641-41.8486
		l-24.4116-139.4971c-12.5547-77.4209-24.4121-140.8916-25.8071-142.2871c-2.0923-2.0928-224.5903,27.8994-429.6509,57.8916
		c-66.9585,9.0674-68.3535,9.0674-130.4297-9.0674c-34.874-10.4629-64.8662-20.9248-66.9585-22.3193
		c-1.395-2.0928,0-53.707,4.1851-115.085l6.2773-111.5977l-46.0342-107.4131l-45.3367-107.4131l12.5549-112.2949l11.8569-112.2949
		l48.8242,2.0928l48.8237,2.0918l59.2866-69.0508c64.8657-76.7236,87.8828-89.2783,114.3872-64.8662
		c9.0674,7.6729,85.791,32.7822,194.5986,63.4717l179.9512,50.916l67.6558,51.6143c36.9668,28.5967,69.7485,57.1934,71.8413,63.4707
		c2.0923,6.2773,7.6724,48.127,12.5547,92.0684c8.3696,77.4209,10.4624,82.3027,38.3618,121.3623
		c27.8994,38.3613,31.3867,41.1514,101.8325,67.6562c40.4541,14.6465,87.1855,32.084,103.9253,38.3613l30.6895,11.8574
		l-4.1851,75.3281l-4.8823,76.0264l43.9414,27.8994c23.7148,15.3447,47.4292,27.8994,53.0093,27.8994
		c4.8823,0,44.6387-11.1602,88.5806-25.1094l79.5132-24.4121l101.833,65.5635l101.8325,65.5635l52.3115-19.5293
		c61.3789-22.3203,57.1938-19.5303,184.8335-157.6318c92.0684-99.7402,100.438-107.4131,144.3794-124.1523
		c25.1094-9.7646,89.9756-46.7314,142.9844-82.3037l96.9507-64.168l36.9668-64.1689l36.9668-64.8662l-53.0093-35.5713
		c-53.0088-36.2695-53.0088-36.2695-126.9419-41.8496c-40.4546-2.79-86.4883-5.5801-102.5308-5.5801
		c-26.5044-0.6973-28.5967-2.0918-36.269-26.5039c-4.1851-13.9502-6.9746-26.5049-5.5801-27.8994
		c0.6978-1.3955,56.4966-22.3193,123.4551-46.7314c66.9585-25.1094,126.2446-46.7314,132.522-49.5215
		c9.7651-3.4873,10.4624,3.4873,7.6724,66.2607l-3.4873,69.749h30.6895h30.6895l40.4541,76.7227l41.1514,76.7236l-28.5967,32.084
		c-32.0845,36.2695-33.4795,44.6396-16.042,78.1191l12.5547,22.3193l27.2017-20.2275
		c15.3447-10.4619,39.7568-21.6221,54.4038-24.4121c29.2944-5.5791,29.2944-5.5791,11.8574,41.1523
		c-3.4873,9.0674-39.7568,32.7812-94.1606,62.0762c-73.2358,39.0586-89.9756,51.6133-97.6479,69.748
		c-9.0674,21.6221-11.8569,23.0176-69.0508,31.3867l-59.9839,9.0674l-48.1265,57.1943
		c-26.5044,31.3867-69.7485,76.0254-96.2529,99.7402c-41.1514,36.9668-50.9165,49.5215-72.5386,101.833l-25.1094,59.2861
		l33.4795,14.6465l34.1768,13.9502l10.4619-24.4121c9.7651-23.0166,11.1602-23.7148,48.8242-23.7148
		c39.0591,0,39.7568-0.6973,76.7231-41.1514c32.0845-34.1768,70.4463-59.9834,230.1704-154.1445l191.8081-112.9922v-61.3789
		c0-59.9834,0.6978-62.0762,32.7822-118.5723c29.2939-51.6143,37.6641-60.6816,86.4878-92.7656l53.7065-36.2695l48.8237-98.3447
		c55.1016-110.9004,40.4541-99.7402,147.1694-111.5977l44.6392-4.8828l-4.1851,56.4961l-4.1846,56.4971l31.3867,39.7559
		l30.6895,40.4541l-39.7568,23.0176c-22.3193,12.5547-42.5464,23.7148-44.6392,24.4121
		c-6.2773,2.79-76.7231,145.0771-71.8408,145.0771c2.0923,0,11.8574-6.2783,21.6221-13.9502s25.8066-13.9492,35.5718-13.9492
		c17.437,0,17.437,0,12.5547,49.5205l-4.8823,49.5215l36.9668-4.1846c20.2271-2.0928,59.2861-5.5801,86.4878-8.3701l50.2192-4.1846
		l64.8662-142.2871l65.5635-142.2871L7311.5454,8818c56.4961-33.4795,103.2275-56.4961,129.0347-62.0762
		c52.3115-12.5547,50.9165-13.252,50.9165,6.2773c0,9.0674,2.0923,26.5049,4.1851,38.3623l4.8823,22.3193l46.0337-4.1855
		c39.0596-4.1846,64.1689-0.6973,166.6992,23.7148c66.2612,16.042,124.1523,28.5967,129.0347,28.5967
		s18.1348-29.2939,30.6895-67.6553c21.6221-66.2617,22.3193-74.6318,29.9917-260.1621
		c7.6724-186.9268,7.6724-193.2041-6.2773-225.2881c-7.6724-18.1348-16.7397-32.7822-19.5293-33.4795
		c-2.79,0-50.2192-4.1846-103.9253-9.0674l-98.3457-8.3691l-63.4712-50.2197l-62.7734-50.2183l-223.8931,27.2017l-224.5898,27.2021
		l-39.7568,26.5039c-32.0845,22.3203-50.2188,28.5977-94.1606,35.5723l-53.7061,7.6719l-69.7485-46.0342
		c-61.3789-41.1514-69.0513-48.8232-66.2612-64.168c1.395-9.7651,3.4873-45.3369,4.8823-79.5137l2.0928-62.7734l-41.8491-16.7397
		l-41.8491-16.7397l-76.7236,14.6475c-41.8491,7.6724-94.8579,16.042-117.1772,18.832
		c-39.7568,3.4873-43.2441,6.2773-108.1104,64.1685c-37.6641,33.4795-74.6309,66.2612-83.001,73.2358
		c-11.1597,9.7651-46.0337,16.7402-147.1689,29.2949c-130.4302,16.042-133.2197,16.7393-212.7334,53.7061
		c-79.5132,36.2695-80.9082,36.9668-89.2778,66.959c-8.3701,29.2939-8.3701,29.9912,31.3867,88.5801l39.0591,59.2861l-32.084,48.127
		l-31.3872,48.126l17.4375,35.5723c9.7646,18.832,18.1343,37.6641,18.1343,40.4541c0,12.5547-81.6055,49.5215-120.665,54.4033
		c-36.269,4.1855-41.8491,2.79-61.3784-13.252c-20.9248-18.1348-23.0171-18.1348-138.7998-18.1348
		c-110.2026,0-120.6646-1.3945-156.9341-16.7393l-38.3613-17.4375l-73.9336,20.2275l-73.9336,19.5293l-189.0186-66.2607
		c-104.6226-36.2695-232.2622-80.9092-283.8765-99.7412l-94.1602-33.4785l-34.8745,19.5293
		c-29.9917,16.7393-47.4287,20.9248-129.0347,27.8994c-99.043,8.3701-107.4126,11.8574-116.48,47.4287
		c-2.79,13.252-8.3696,15.3447-40.4541,15.3447h-36.9668l-4.8823-29.2939c-2.79-16.7402-7.6724-34.875-10.4624-40.4541
		c-3.4873-5.5801-98.3452-99.7402-211.3379-208.5488l-205.7581-198.0854l-4.8826-67.6558l-4.1848-67.6562l-96.2529-95.5557
		l-96.2529-96.2529l-83.0007-20.2271c-47.4292-11.8569-87.1858-25.1094-94.1606-32.084
		c-6.2773-6.9751-87.8831-114.3877-182.0435-239.2378c-149.262-198.0854-178.5564-240.6323-230.8677-341.0698
		c-33.4792-62.7739-60.6812-115.0854-60.6812-117.1777c0-1.395,12.5547-20.9243,27.8994-43.2441l27.2019-41.1514l-27.8994-225.2881
		l-28.5969-225.9849l-46.7314-55.7988c-25.8071-30.6895-48.824-59.2861-51.614-64.1689c-2.79-4.1846,8.3699-40.4541,25.1094-80.2104
		l29.9919-71.8413l-9.0674-61.3784l-9.0671-61.3789l159.7241-174.3711l159.0266-174.3716l36.9666-103.9253
		c20.2271-57.1934,39.0593-106.7148,41.1516-110.2026c2.0925-3.4873,122.0601-93.4629,265.7419-200.8755
		c209.9431-156.2368,265.7419-194.5986,282.4814-193.9009c11.8572,0,53.7063,9.0674,94.1606,20.2271l73.2358,20.2271
		l212.7332-33.4795c117.1772-18.832,219.0103-33.479,226.6826-33.479s100.438,26.5044,205.7578,59.2861l191.8086,59.2861
		l175.0688,4.8823l175.0688,4.8828l51.6138-94.8584c39.7568-73.2358,55.1016-94.8579,65.5635-94.8579
		c7.6724,0,76.7236,7.6724,152.7495,16.7397l138.7993,16.042l77.4209-62.7734c42.5469-34.1768,78.1182-63.4712,79.5132-64.1685
		c1.395-1.395-18.1343-42.5469-42.5464-91.3706c-24.4121-49.5215-57.8911-128.3374-74.6309-175.0688l-29.2944-84.396
		l32.7817-59.9834l32.7817-60.6812l110.2026-76.7236c60.6812-41.8491,112.9927-80.2109,117.1777-85.0933
		c3.4873-4.1846,25.8066-56.4961,48.8237-115.085l41.8491-106.7153l-20.2271-23.7144l-20.2271-23.0171l31.3867-58.5886
		l31.3872-59.2864l-133.2197-137.4045l-133.2197-137.4045l6.9746-54.4038c6.2773-53.7063,7.6724-56.4963,59.2866-124.8499
		l53.0088-69.7485l4.8823-56.4963l4.8823-56.4963l48.1265-26.5044l48.1265-27.2019l74.6309,16.7397
		c175.7666,38.3616,426.1636,119.9673,608.207,199.4807c189.7163,82.3032,433.8359,214.8254,603.3247,327.8181
		c126.2451,84.3955,227.3804,160.4214,219.708,165.304c-4.1851,2.7898-6.9751,18.1345-5.5801,35.5718l2.0928,29.9917
		l257.3716,204.363c141.5898,112.2954,260.1621,207.8506,262.9521,213.4307c3.4873,4.8823,52.3115,144.3794,109.5054,308.9858
		l104.623,299.2212l287.3633,459.6426l288.0615,460.3403l107.4131,281.0864l106.7148,281.7842l-1.3945,140.1943l-2.0928,140.8921
		l-117.1777-144.3794c-64.1689-78.8159-119.9678-145.7744-124.1523-147.8667c-3.4873-2.79-25.1094-2.79-47.4287,0l-41.1514,4.8823
		l-8.3701,56.4961c-9.7646,66.9585-16.7402,78.8159-75.3281,140.1948l-43.9424,45.3364l-49.5215,2.0923l-49.5215,2.0928
		l-22.3193,77.4204c-20.9238,74.6313-23.7139,79.5137-85.0928,157.6318l-62.7734,80.2109l-11.8574,93.4629
		c-6.9746,51.6138-15.3447,101.833-18.1348,112.2949c-3.4873,10.4624-32.7822,50.9165-65.5635,90.6733
		c-50.917,60.6812-78.1187,104.6226-177.8589,288.0615l-118.5723,216.2202l48.1265,24.4121
		c26.5044,12.5547,49.5215,22.3193,50.916,20.9243c1.395-2.0923,54.4038-72.5386,117.875-156.9341
		c70.4463-94.1606,136.0098-173.6738,170.1865-205.7583l55.1016-52.311l27.2021-104.623l27.2012-104.6226l115.085-139.4971
		c63.4717-76.7236,119.2705-144.3794,124.1523-150.6567c5.5801-6.2773,18.833-74.6309,30.6895-163.9092
		c28.5977-206.4556,25.1094-192.5059,50.917-189.7158c20.9248,2.0923,29.9912,16.042,182.7412,267.1367l161.1191,265.0444
		l67.6553,198.7832l66.959,198.7832l7.6719,223.1953c3.4883,122.7573,6.9756,232.96,6.9756,245.5146
		c0,20.2271-5.5801,26.5044-51.6143,57.1938c-50.2188,34.1768-51.6143,36.269-73.9336,92.7651
		c-33.4795,84.3965-33.4795,83.6982-48.8242,75.3291c-12.5547-6.9756-13.9492-15.3447-13.9492-108.1104v-100.438l-41.1514-43.9414
		l-41.1523-43.9419l-6.9746,27.8994c-4.1846,15.3447-12.5547,51.6143-18.832,80.2109l-11.1592,52.3115l-70.4463,48.8242
		c-38.3623,26.5039-73.9336,55.1006-79.5137,62.7734c-4.8818,7.6719-26.5039,50.2188-47.4287,95.5557l-37.6641,80.9082
		l34.874,22.3193c41.8496,25.1094,27.2021,34.1768,119.2695-73.9336l59.9844-70.4463l43.2441-4.1846
		c66.958-7.6719,65.5635-7.6719,83.001,29.9922c9.0664,19.5293,17.4365,34.874,18.832,34.874
		c2.0918,0,22.3193-14.6475,46.0332-32.7822c23.7148-17.4365,46.7314-34.874,50.917-37.6641
		c4.1846-3.4873,30.6895,27.2021,69.0508,81.6064c34.1768,47.4287,64.1689,84.3955,67.6562,80.9082
		c2.79-2.79,20.9248-41.1523,40.4541-85.0938c18.832-43.9414,34.874-76.0254,34.874-71.8408
		c0,16.7393-48.8242,255.9775-73.2354,355.0195c-163.9092,681.4434-467.3154,1279.8857-910.916,1798.8145
		c-92.0684,107.4131-355.7173,371.7598-459.6426,459.6426c-325.7256,277.5996-651.4512,499.3994-1042.7407,708.6455
		C6710.313,11746.7402,6676.834,11762.7822,6690.0859,11747.4375z M8110.166,9893.5225
		c41.8491-9.0674,46.7314-12.5547,125.5469-88.5811c48.8242-46.0332,111.5977-117.1768,154.8418-172.9756
		c72.5391-95.5557,265.7422-378.7344,265.7422-390.5918c0-3.4873-14.6475-18.1348-32.084-32.7822
		c-32.085-25.8066-32.7822-25.8066-64.8662-17.4365c-85.0938,22.3193-104.623,29.9912-108.1104,41.1514
		c-2.0928,6.2773-13.252,62.0762-25.1094,123.4551c-11.8574,61.3779-23.7148,112.9922-27.2021,115.085
		c-2.79,2.0918-55.7988,43.2441-117.1777,92.0674l-111.5977,88.5811l-55.1011,119.9678
		c-29.9922,66.2607-55.7988,122.7568-57.1938,126.2441C8054.3672,9904.6816,8057.8545,9904.6816,8110.166,9893.5225z
		 M7273.8813,9767.2773c36.269-4.8818,36.9663-5.5801,100.4375-78.8154c35.5718-41.1514,64.8662-76.0264,66.2612-77.4209
		c1.395-2.0928,27.2021,20.9248,57.1938,50.916l54.4038,54.4043l126.9424-52.3115
		c99.7402-41.8496,138.1021-61.3789,178.5562-92.7656c28.5967-21.6221,55.7988-43.9414,60.6812-49.5215
		c6.2773-7.6719,27.8994-120.665,23.7144-125.5469c-0.6973-0.6982-53.0088-6.9756-116.48-14.6475l-115.085-13.252l-107.4126,19.5293
		l-107.4126,19.5293l-69.0513-72.5381c-54.4038-57.8916-71.8408-72.5391-83.6982-69.749
		c-8.3696,1.3955-43.2441,4.8828-76.7231,6.9756l-61.3789,4.8818l-45.3364,41.8496
		c-27.2021,25.8066-44.6392,47.4287-44.6392,57.1934c0,7.6729,14.6475,101.833,32.7817,208.5479l33.4795,194.5986l27.8994-4.1846
		C7224.3599,9772.8574,7253.6543,9769.3701,7273.8813,9767.2773z"/>
	<path fill="#1A3C5F" d="M4101.021,11353.3584c-24.4119-19.5293-47.429-37.6641-50.2188-40.4541
		c-2.79-2.79,13.9497-29.2939,36.9666-58.5889l41.8494-53.7061h36.9668c19.5293,0.6973,87.8828,12.5547,150.6567,26.5049
		l114.3872,25.8066l10.4624,37.6641l10.4624,37.6641l-23.7144,19.5303l-23.7148,19.5293l-115.085,0.6973
		c-90.6729,0-118.5723,2.0928-130.4297,10.4629C4146.3579,11388.2334,4142.1729,11386.1406,4101.021,11353.3584z"/>
	<path fill="#1A3C5F" d="M4684.8164,10751.4287l-48.8242-43.2441l23.0171-48.8232c21.6221-46.0342,22.3193-50.917,18.1348-105.3203
		l-4.8823-57.1943l65.5635-2.0918c53.0088-1.3955,64.8662-4.1855,63.4712-12.5547c0-5.5801-6.2773-36.9668-12.5547-69.749
		l-11.8574-59.2861l-76.0259-52.3115c-73.2358-50.2188-76.0259-53.0088-71.8408-73.2354
		c6.2773-29.2949,6.9746-29.9922,37.6641-39.0596c15.3447-4.8828,27.8994-11.1602,27.8994-14.6475
		c0-2.79-27.2021-23.0166-59.9839-44.6387c-55.7988-35.5723-59.9834-39.7568-49.5215-50.2188
		c10.4624-9.7646,25.8071-8.3701,187.6235,18.1348c96.9507,16.7393,183.439,31.3867,191.8086,32.7812
		c9.0674,2.0928,37.6641,22.3193,64.8662,45.3369l48.1265,41.8486l-45.3364,62.7734
		c-32.0845,43.9424-48.8242,74.6309-56.4966,101.833c-6.9746,26.5049-28.5967,66.959-68.3535,126.9424l-58.5889,87.8828
		l4.1851,74.6318l4.1851,74.6309l-54.4038,25.1094c-29.9922,13.9492-57.8916,25.1094-62.0762,25.1094
		C4736.4302,10796.0684,4711.3208,10775.8408,4684.8164,10751.4287z"/>
	<path fill="#1A3C5F" d="M4451.1587,10510.0996c-21.6221-27.2021-25.1094-28.5977-55.1016-27.2021l-32.7817,2.0928l-25.1094-46.0342
		l-25.1094-46.0342l35.5718-13.252c29.2944-10.4629,35.5718-15.3447,35.5718-29.2949c0-17.4365-4.1851-20.2266-63.4712-34.874
		c-26.5044-6.9746-28.5972-9.7646-35.5718-40.4541c-4.1851-18.832-6.9751-34.1768-5.5801-35.5723
		c0.6978-1.3945,48.1265,4.1855,105.3203,11.8574c56.4966,8.3701,111.5977,14.6475,122.0601,14.6475
		c11.1597,0,21.6221,3.4873,24.4121,8.3701c13.252,20.9238,70.4458,223.8926,66.9585,239.2373
		c-2.0923,13.252-6.9751,17.4365-22.3198,17.4365c-10.4619,0-37.6641,2.0928-59.9834,4.1855l-41.1519,4.1846L4451.1587,10510.0996z"
		/>
	<path fill="#1A3C5F" d="M5679.4302,9290.8955c-29.2944-11.1602-30.6895-12.5547-26.5044-36.2695
		c2.0923-13.252,4.1846-30.6895,4.1846-39.0596c0-8.3691,8.3701-26.5039,18.1348-41.1514l18.1348-27.2021l-26.5044-21.6221
		l-26.5044-22.3193l8.3696-100.4375c4.8823-54.4043,9.7646-101.1357,11.1597-102.5303c2.0928-1.3955,25.1094,4.8818,52.3115,13.252
		l49.5215,16.042v81.6064v80.9082l-28.5972,32.7812l-28.5967,32.084l14.647,12.5557c13.9497,11.1592,14.6475,16.042,10.4624,73.2354
		c-2.79,36.9668-7.6724,60.6816-12.5547,59.9834C5712.9092,9302.752,5695.4722,9297.1729,5679.4302,9290.8955z"/>
	<path fill="#1A3C5F" d="M478.9807,7510.9131c-12.5547-61.3789,13.2522-414.3062,44.6391-620.7617
		c112.2951-729.5698,489.6346-1548.417,1018.3284-2211.0283c78.1183-97.6475,146.4718-177.8584,146.4718-172.2788
		c0,2.0928-29.9918,75.3286-66.2611,163.9092c-36.2692,88.5806-66.261,162.5142-66.261,164.6064
		c0,1.395,23.017,29.9922,51.6139,63.4712l52.3114,60.6812l-66.2611,133.2197c-63.4712,128.3374-71.8411,140.8921-197.3883,304.8013
		c-119.9675,155.5391-141.5895,180.6484-245.5148,276.2041l-114.3876,104.6226l-133.2197,254.582
		c-72.5385,139.4971-136.0096,269.9268-140.892,288.7588c-80.9083,337.583-138.7996,560.7783-187.6235,728.8721
		c-57.8912,197.3882-60.6812,211.3379-75.3284,345.2554C488.048,7500.4507,482.4681,7529.0479,478.9807,7510.9131z"/>
</g>
<g>
	<path fill="#1A3C5F" d="M500,1C224.4099,1,1,224.4099,1,500s223.4099,499,499,499s499-223.4099,499-499S775.5901,1,500,1z
		 M799.8135,799.8135c-38.9639,38.9629-84.3164,69.5459-134.7969,90.8975C612.792,912.7998,557.2725,924,500,924
		c-57.2729,0-112.7925-11.2002-165.0171-33.2891c-50.4805-21.3516-95.8325-51.9346-134.7964-90.8975
		c-38.9634-38.9639-69.5459-84.3164-90.8975-134.7969C87.2002,612.792,76,557.2725,76,500
		c0-57.2729,11.2002-112.7925,33.2891-165.0171c21.3516-50.4805,51.9341-95.8325,90.8975-134.7964
		c38.9639-38.9634,84.3159-69.5459,134.7964-90.8975C387.2075,87.2002,442.7271,76,500,76
		c57.2725,0,112.792,11.2002,165.0166,33.2891c50.4805,21.3516,95.833,51.9341,134.7969,90.8975
		c38.9629,38.9639,69.5459,84.3159,90.8975,134.7964C912.7998,387.2075,924,442.7271,924,500
		c0,57.2725-11.2002,112.792-33.2891,165.0166C869.3594,715.4971,838.7764,760.8496,799.8135,799.8135z"/>
</g>
<g>
	
		<text transform="matrix(1 0 0 1 12.1323 622.5059)" fill="#1A3C5F" stroke="#FFFFFF" stroke-width="10" stroke-miterlimit="10" font-family="'KornerDeliNF'" font-size="294.3436px">WORLD</text>
</g>
</svg>
